%TF.GenerationSoftware,KiCad,Pcbnew,8.0.3*%
%TF.CreationDate,2024-07-12T17:40:13+02:00*%
%TF.ProjectId,ARIII,41524949-492e-46b6-9963-61645f706362,rev?*%
%TF.SameCoordinates,Original*%
%TF.FileFunction,Soldermask,Bot*%
%TF.FilePolarity,Negative*%
%FSLAX46Y46*%
G04 Gerber Fmt 4.6, Leading zero omitted, Abs format (unit mm)*
G04 Created by KiCad (PCBNEW 8.0.3) date 2024-07-12 17:40:13*
%MOMM*%
%LPD*%
G01*
G04 APERTURE LIST*
%ADD10C,1.303000*%
%ADD11R,1.500000X1.500000*%
%ADD12C,1.600000*%
%ADD13C,1.500000*%
%ADD14R,1.600000X1.600000*%
%ADD15R,1.800000X1.800000*%
%ADD16C,1.800000*%
%ADD17C,1.635000*%
G04 APERTURE END LIST*
D10*
%TO.C,VR1*%
X190940000Y-125000000D03*
X188400000Y-119920000D03*
X185860000Y-125000000D03*
%TD*%
D11*
%TO.C,SW2*%
X189300000Y-102140000D03*
D12*
X189300000Y-104680000D03*
X189300000Y-99600000D03*
%TD*%
D11*
%TO.C,Q2*%
X88300000Y-69160000D03*
D13*
X88300000Y-71700000D03*
X88300000Y-74240000D03*
%TD*%
D14*
%TO.C,C1*%
X93400000Y-126994888D03*
D12*
X93400000Y-129494888D03*
%TD*%
D15*
%TO.C,D2*%
X94000000Y-99525000D03*
D16*
X94000000Y-102065000D03*
%TD*%
D11*
%TO.C,Q1*%
X92740000Y-69160000D03*
D13*
X92740000Y-71700000D03*
X92740000Y-74240000D03*
%TD*%
D15*
%TO.C,SW1*%
X91400000Y-114850000D03*
D16*
X96400000Y-114850000D03*
X91400000Y-119850000D03*
X96400000Y-119850000D03*
%TD*%
D17*
%TO.C,CN1*%
X88060000Y-39120000D03*
X88060000Y-44200000D03*
X90600000Y-39120000D03*
X90600000Y-44200000D03*
X93140000Y-39120000D03*
X93140000Y-44200000D03*
X95680000Y-39120000D03*
X95680000Y-44200000D03*
X98220000Y-39120000D03*
X98220000Y-44200000D03*
X100760000Y-39120000D03*
X100760000Y-44200000D03*
X103300000Y-39120000D03*
X103300000Y-44200000D03*
X105840000Y-39120000D03*
X105840000Y-44200000D03*
X108380000Y-39120000D03*
X108380000Y-44200000D03*
X110920000Y-39120000D03*
X110920000Y-44200000D03*
X113460000Y-39120000D03*
X113460000Y-44200000D03*
X116000000Y-39120000D03*
X116000000Y-44200000D03*
X118540000Y-39120000D03*
X118540000Y-44200000D03*
X121080000Y-39120000D03*
X121080000Y-44200000D03*
X123620000Y-39120000D03*
X123620000Y-44200000D03*
X126160000Y-39120000D03*
X126160000Y-44200000D03*
X128700000Y-39120000D03*
X128700000Y-44200000D03*
X131240000Y-39120000D03*
X131240000Y-44200000D03*
X133780000Y-39120000D03*
X133780000Y-44200000D03*
X136320000Y-39120000D03*
X136320000Y-44200000D03*
X138860000Y-39120000D03*
X138860000Y-44200000D03*
X141400000Y-39120000D03*
X141400000Y-44200000D03*
X143940000Y-39120000D03*
X143940000Y-44200000D03*
X146480000Y-39120000D03*
X146480000Y-44200000D03*
X149020000Y-39120000D03*
X149020000Y-44200000D03*
X151560000Y-39120000D03*
X151560000Y-44200000D03*
X154100000Y-39120000D03*
X154100000Y-44200000D03*
X156640000Y-39120000D03*
X156640000Y-44200000D03*
X159180000Y-39120000D03*
X159180000Y-44200000D03*
X161720000Y-39120000D03*
X161720000Y-44200000D03*
X164260000Y-39120000D03*
X164260000Y-44200000D03*
X166800000Y-39120000D03*
X166800000Y-44200000D03*
X169340000Y-39120000D03*
X169340000Y-44200000D03*
X171880000Y-39120000D03*
X171880000Y-44200000D03*
X174420000Y-39120000D03*
X174420000Y-44200000D03*
X176960000Y-39120000D03*
X176960000Y-44200000D03*
X179500000Y-39120000D03*
X179500000Y-44200000D03*
X182040000Y-39120000D03*
X182040000Y-44200000D03*
X184580000Y-39120000D03*
X184580000Y-44200000D03*
X187120000Y-39120000D03*
X187120000Y-44200000D03*
X189660000Y-39120000D03*
X189660000Y-44200000D03*
X192200000Y-39120000D03*
X192200000Y-44200000D03*
X194740000Y-39120000D03*
X194740000Y-44200000D03*
%TD*%
D14*
%TO.C,C6*%
X89500000Y-88000000D03*
D12*
X87000000Y-88000000D03*
%TD*%
D15*
%TO.C,D1*%
X189650000Y-93275000D03*
D16*
X189650000Y-90735000D03*
%TD*%
M02*
