%TF.GenerationSoftware,KiCad,Pcbnew,8.0.3*%
%TF.CreationDate,2024-07-13T21:17:26+02:00*%
%TF.ProjectId,ARIII,41524949-492e-46b6-9963-61645f706362,rev?*%
%TF.SameCoordinates,Original*%
%TF.FileFunction,Copper,L1,Top*%
%TF.FilePolarity,Positive*%
%FSLAX46Y46*%
G04 Gerber Fmt 4.6, Leading zero omitted, Abs format (unit mm)*
G04 Created by KiCad (PCBNEW 8.0.3) date 2024-07-13 21:17:26*
%MOMM*%
%LPD*%
G01*
G04 APERTURE LIST*
G04 Aperture macros list*
%AMRoundRect*
0 Rectangle with rounded corners*
0 $1 Rounding radius*
0 $2 $3 $4 $5 $6 $7 $8 $9 X,Y pos of 4 corners*
0 Add a 4 corners polygon primitive as box body*
4,1,4,$2,$3,$4,$5,$6,$7,$8,$9,$2,$3,0*
0 Add four circle primitives for the rounded corners*
1,1,$1+$1,$2,$3*
1,1,$1+$1,$4,$5*
1,1,$1+$1,$6,$7*
1,1,$1+$1,$8,$9*
0 Add four rect primitives between the rounded corners*
20,1,$1+$1,$2,$3,$4,$5,0*
20,1,$1+$1,$4,$5,$6,$7,0*
20,1,$1+$1,$6,$7,$8,$9,0*
20,1,$1+$1,$8,$9,$2,$3,0*%
G04 Aperture macros list end*
%TA.AperFunction,ComponentPad*%
%ADD10R,1.500000X1.500000*%
%TD*%
%TA.AperFunction,ComponentPad*%
%ADD11C,1.500000*%
%TD*%
%TA.AperFunction,ComponentPad*%
%ADD12C,1.303000*%
%TD*%
%TA.AperFunction,ComponentPad*%
%ADD13C,1.600000*%
%TD*%
%TA.AperFunction,ComponentPad*%
%ADD14R,1.600000X1.600000*%
%TD*%
%TA.AperFunction,ComponentPad*%
%ADD15R,1.800000X1.800000*%
%TD*%
%TA.AperFunction,ComponentPad*%
%ADD16C,1.800000*%
%TD*%
%TA.AperFunction,SMDPad,CuDef*%
%ADD17RoundRect,0.150000X-0.150000X-0.587500X0.150000X-0.587500X0.150000X0.587500X-0.150000X0.587500X0*%
%TD*%
%TA.AperFunction,SMDPad,CuDef*%
%ADD18RoundRect,0.150000X-0.587500X-0.150000X0.587500X-0.150000X0.587500X0.150000X-0.587500X0.150000X0*%
%TD*%
%TA.AperFunction,SMDPad,CuDef*%
%ADD19R,0.700000X1.925000*%
%TD*%
%TA.AperFunction,SMDPad,CuDef*%
%ADD20R,1.925000X0.700000*%
%TD*%
%TA.AperFunction,SMDPad,CuDef*%
%ADD21RoundRect,0.250000X-0.625000X0.400000X-0.625000X-0.400000X0.625000X-0.400000X0.625000X0.400000X0*%
%TD*%
%TA.AperFunction,SMDPad,CuDef*%
%ADD22RoundRect,0.250000X-0.650000X0.412500X-0.650000X-0.412500X0.650000X-0.412500X0.650000X0.412500X0*%
%TD*%
%TA.AperFunction,ComponentPad*%
%ADD23C,1.635000*%
%TD*%
%TA.AperFunction,SMDPad,CuDef*%
%ADD24RoundRect,0.150000X-0.750000X-0.150000X0.750000X-0.150000X0.750000X0.150000X-0.750000X0.150000X0*%
%TD*%
%TA.AperFunction,SMDPad,CuDef*%
%ADD25RoundRect,0.250000X0.412500X0.650000X-0.412500X0.650000X-0.412500X-0.650000X0.412500X-0.650000X0*%
%TD*%
%TA.AperFunction,SMDPad,CuDef*%
%ADD26RoundRect,0.150000X-0.150000X0.825000X-0.150000X-0.825000X0.150000X-0.825000X0.150000X0.825000X0*%
%TD*%
%TA.AperFunction,SMDPad,CuDef*%
%ADD27RoundRect,0.150000X-0.825000X-0.150000X0.825000X-0.150000X0.825000X0.150000X-0.825000X0.150000X0*%
%TD*%
%TA.AperFunction,SMDPad,CuDef*%
%ADD28RoundRect,0.250001X0.624999X-0.462499X0.624999X0.462499X-0.624999X0.462499X-0.624999X-0.462499X0*%
%TD*%
%TA.AperFunction,ViaPad*%
%ADD29C,0.600000*%
%TD*%
%TA.AperFunction,Conductor*%
%ADD30C,0.200000*%
%TD*%
%TA.AperFunction,Conductor*%
%ADD31C,0.400000*%
%TD*%
G04 APERTURE END LIST*
D10*
%TO.P,Q1,1,D*%
%TO.N,/A22*%
X92600000Y-69200000D03*
D11*
%TO.P,Q1,2,G*%
%TO.N,Net-(Q1-G)*%
X92600000Y-71740000D03*
%TO.P,Q1,3,S*%
%TO.N,+5V*%
X92600000Y-74280000D03*
%TD*%
D10*
%TO.P,Q2,1,D*%
%TO.N,/A22*%
X88900000Y-69200000D03*
D11*
%TO.P,Q2,2,G*%
%TO.N,Net-(Q1-G)*%
X88900000Y-71740000D03*
%TO.P,Q2,3,S*%
%TO.N,+5V*%
X88900000Y-74280000D03*
%TD*%
D12*
%TO.P,VR1,1,CCW*%
%TO.N,+5V*%
X191090000Y-125000000D03*
%TO.P,VR1,2,WIPER*%
X188550000Y-119920000D03*
%TO.P,VR1,3,CW*%
%TO.N,Net-(U11-DIS)*%
X186010000Y-125000000D03*
%TD*%
D10*
%TO.P,SW2,1,B*%
%TO.N,Net-(D1-K)*%
X188500000Y-101690000D03*
D13*
%TO.P,SW2,2,C*%
%TO.N,GND*%
X188500000Y-104230000D03*
%TO.P,SW2,3,A*%
%TO.N,Net-(D1-K)*%
X188500000Y-99150000D03*
%TD*%
D14*
%TO.P,C1,1*%
%TO.N,Net-(U11-DIS)*%
X94000000Y-126944888D03*
D13*
%TO.P,C1,2*%
%TO.N,GND*%
X94000000Y-129444888D03*
%TD*%
D15*
%TO.P,D2,1,K*%
%TO.N,GND*%
X94450000Y-99225000D03*
D16*
%TO.P,D2,2,A*%
%TO.N,Net-(D2-A)*%
X94450000Y-101765000D03*
%TD*%
D17*
%TO.P,U9,1,VPP*%
%TO.N,+5V*%
X133800000Y-104662500D03*
%TO.P,U9,2,A16*%
%TO.N,/A17*%
X132530000Y-104662500D03*
%TO.P,U9,3,A15*%
%TO.N,/A16*%
X131260000Y-104662500D03*
%TO.P,U9,4,A12*%
%TO.N,/A13*%
X129990000Y-104662500D03*
D18*
%TO.P,U9,5,A7*%
%TO.N,/A8*%
X128237500Y-106420000D03*
%TO.P,U9,6,A6*%
%TO.N,/A7*%
X128237500Y-107690000D03*
%TO.P,U9,7,A5*%
%TO.N,/A6*%
X128237500Y-108960000D03*
%TO.P,U9,8,A4*%
%TO.N,/A5*%
X128237500Y-110230000D03*
%TO.P,U9,9,A3*%
%TO.N,/A4*%
X128237500Y-111500000D03*
%TO.P,U9,10,A2*%
%TO.N,/A3*%
X128237500Y-112770000D03*
%TO.P,U9,11,A1*%
%TO.N,/A2*%
X128237500Y-114040000D03*
%TO.P,U9,12,A0*%
%TO.N,/A1*%
X128237500Y-115310000D03*
%TO.P,U9,13,D0*%
%TO.N,/D8*%
X128237500Y-116580000D03*
D17*
%TO.P,U9,14,D1*%
%TO.N,/D9*%
X129990000Y-118337500D03*
%TO.P,U9,15,D2*%
%TO.N,/D10*%
X131260000Y-118337500D03*
%TO.P,U9,16,GND*%
%TO.N,GND*%
X132530000Y-118337500D03*
%TO.P,U9,17,D3*%
%TO.N,/D11*%
X133800000Y-118337500D03*
%TO.P,U9,18,D4*%
%TO.N,/D12*%
X135070000Y-118337500D03*
%TO.P,U9,19,D5*%
%TO.N,/D13*%
X136340000Y-118337500D03*
%TO.P,U9,20,D6*%
%TO.N,/D14*%
X137610000Y-118337500D03*
D18*
%TO.P,U9,21,D7*%
%TO.N,/D15*%
X139362500Y-116580000D03*
%TO.P,U9,22,~{CE}*%
%TO.N,Net-(U4-IO5)*%
X139362500Y-115310000D03*
%TO.P,U9,23,A10*%
%TO.N,/A11*%
X139362500Y-114040000D03*
%TO.P,U9,24,~{OE}*%
%TO.N,/~{OE}*%
X139362500Y-112770000D03*
%TO.P,U9,25,A11*%
%TO.N,/A12*%
X139362500Y-111500000D03*
%TO.P,U9,26,A9*%
%TO.N,/A10*%
X139362500Y-110230000D03*
%TO.P,U9,27,A8*%
%TO.N,/A9*%
X139362500Y-108960000D03*
%TO.P,U9,28,A13*%
%TO.N,/A14*%
X139362500Y-107690000D03*
%TO.P,U9,29,A14*%
%TO.N,/A15*%
X139362500Y-106420000D03*
D17*
%TO.P,U9,30,NC*%
%TO.N,unconnected-(U9-NC-Pad30)*%
X137610000Y-104662500D03*
%TO.P,U9,31,~{PGM}*%
%TO.N,unconnected-(U9-~{PGM}-Pad31)*%
X136340000Y-104662500D03*
%TO.P,U9,32,VCC*%
%TO.N,+5V*%
X135070000Y-104662500D03*
%TD*%
D19*
%TO.P,U4,1,I1/CLK*%
%TO.N,Net-(U2-IO1)*%
X122400000Y-74697500D03*
%TO.P,U4,2,I2*%
%TO.N,Net-(U2-IO7)*%
X121130000Y-74697500D03*
%TO.P,U4,3,I3*%
%TO.N,Net-(U2-IO8)*%
X119860000Y-74697500D03*
D20*
%TO.P,U4,4,I4*%
%TO.N,Net-(U3-IO2)*%
X118347500Y-76210000D03*
%TO.P,U4,5,I5*%
%TO.N,Net-(U3-I03)*%
X118347500Y-77480000D03*
%TO.P,U4,6,I6*%
%TO.N,/~{OE}*%
X118347500Y-78750000D03*
%TO.P,U4,7,I7*%
%TO.N,/~{AS}*%
X118347500Y-80020000D03*
%TO.P,U4,8,I8*%
%TO.N,/~{UDS}*%
X118347500Y-81290000D03*
D19*
%TO.P,U4,9,I9*%
%TO.N,/~{LDS}*%
X119860000Y-82802500D03*
%TO.P,U4,10,GND*%
%TO.N,GND*%
X121130000Y-82802500D03*
%TO.P,U4,11,I10/~{OE}*%
%TO.N,Net-(U3-IO4)*%
X122400000Y-82802500D03*
%TO.P,U4,12,IO8*%
%TO.N,Net-(U4-IO8)*%
X123670000Y-82802500D03*
%TO.P,U4,13,IO7*%
%TO.N,Net-(U2-I8)*%
X124940000Y-82802500D03*
D20*
%TO.P,U4,14,IO6*%
%TO.N,Net-(U2-I9)*%
X126452500Y-81290000D03*
%TO.P,U4,15,IO5*%
%TO.N,Net-(U4-IO5)*%
X126452500Y-80020000D03*
%TO.P,U4,16,IO4*%
%TO.N,Net-(U4-IO4)*%
X126452500Y-78750000D03*
%TO.P,U4,17,I03*%
%TO.N,/D0*%
X126452500Y-77480000D03*
%TO.P,U4,18,IO2*%
%TO.N,/D1*%
X126452500Y-76210000D03*
D19*
%TO.P,U4,19,IO1*%
%TO.N,Net-(U10-~{CE})*%
X124940000Y-74697500D03*
%TO.P,U4,20,VCC*%
%TO.N,+5V*%
X123670000Y-74697500D03*
%TD*%
D15*
%TO.P,SW1,1,1*%
%TO.N,Net-(U3-I6)*%
X91677500Y-115377500D03*
D16*
%TO.P,SW1,2,2*%
%TO.N,GND*%
X96677500Y-115377500D03*
%TO.P,SW1,3,3*%
%TO.N,Net-(U3-I6)*%
X91677500Y-120377500D03*
%TO.P,SW1,4,4*%
%TO.N,GND*%
X96677500Y-120377500D03*
%TD*%
D21*
%TO.P,R3,1*%
%TO.N,Net-(D1-A)*%
X183300000Y-89750000D03*
%TO.P,R3,2*%
%TO.N,+5V*%
X183300000Y-92850000D03*
%TD*%
D22*
%TO.P,C2,1*%
%TO.N,+5V*%
X102400000Y-111587500D03*
%TO.P,C2,2*%
%TO.N,GND*%
X102400000Y-114712500D03*
%TD*%
D23*
%TO.P,CN1,1,1*%
%TO.N,GND*%
X88060000Y-39120000D03*
%TO.P,CN1,2,2*%
X88060000Y-44200000D03*
%TO.P,CN1,3,3*%
X90600000Y-39120000D03*
%TO.P,CN1,4,4*%
X90600000Y-44200000D03*
%TO.P,CN1,5,5*%
%TO.N,+5V*%
X93140000Y-39120000D03*
%TO.P,CN1,6,6*%
%TO.N,unconnected-(CN1-Pad6)*%
X93140000Y-44200000D03*
%TO.P,CN1,7,7*%
%TO.N,unconnected-(CN1-Pad7)*%
X95680000Y-39120000D03*
%TO.P,CN1,8,8*%
%TO.N,unconnected-(CN1-Pad8)*%
X95680000Y-44200000D03*
%TO.P,CN1,9,9*%
%TO.N,unconnected-(CN1-Pad9)*%
X98220000Y-39120000D03*
%TO.P,CN1,10,10*%
%TO.N,unconnected-(CN1-Pad10)*%
X98220000Y-44200000D03*
%TO.P,CN1,11,11*%
%TO.N,unconnected-(CN1-Pad11)*%
X100760000Y-39120000D03*
%TO.P,CN1,12,12*%
%TO.N,unconnected-(CN1-Pad12)*%
X100760000Y-44200000D03*
%TO.P,CN1,13,13*%
%TO.N,unconnected-(CN1-Pad13)*%
X103300000Y-39120000D03*
%TO.P,CN1,14,14*%
%TO.N,unconnected-(CN1-Pad14)*%
X103300000Y-44200000D03*
%TO.P,CN1,15,15*%
%TO.N,unconnected-(CN1-Pad15)*%
X105840000Y-39120000D03*
%TO.P,CN1,16,16*%
%TO.N,unconnected-(CN1-Pad16)*%
X105840000Y-44200000D03*
%TO.P,CN1,17,17*%
%TO.N,unconnected-(CN1-Pad17)*%
X108380000Y-39120000D03*
%TO.P,CN1,18,18*%
%TO.N,unconnected-(CN1-Pad18)*%
X108380000Y-44200000D03*
%TO.P,CN1,19,19*%
%TO.N,unconnected-(CN1-Pad19)*%
X110920000Y-39120000D03*
%TO.P,CN1,20,20*%
%TO.N,unconnected-(CN1-Pad20)*%
X110920000Y-44200000D03*
%TO.P,CN1,21,21*%
%TO.N,unconnected-(CN1-Pad21)*%
X113460000Y-39120000D03*
%TO.P,CN1,22,22*%
%TO.N,/A5*%
X113460000Y-44200000D03*
%TO.P,CN1,23,23*%
%TO.N,/A4*%
X116000000Y-39120000D03*
%TO.P,CN1,24,24*%
%TO.N,/A6*%
X116000000Y-44200000D03*
%TO.P,CN1,25,25*%
%TO.N,/A3*%
X118540000Y-39120000D03*
%TO.P,CN1,26,26*%
%TO.N,unconnected-(CN1-Pad26)*%
X118540000Y-44200000D03*
%TO.P,CN1,27,27*%
%TO.N,/A7*%
X121080000Y-39120000D03*
%TO.P,CN1,28,28*%
%TO.N,/A2*%
X121080000Y-44200000D03*
%TO.P,CN1,29,29*%
%TO.N,/A8*%
X123620000Y-39120000D03*
%TO.P,CN1,30,30*%
%TO.N,/A1*%
X123620000Y-44200000D03*
%TO.P,CN1,31,31*%
%TO.N,/A9*%
X126160000Y-39120000D03*
%TO.P,CN1,32,32*%
%TO.N,/~{FC0}*%
X126160000Y-44200000D03*
%TO.P,CN1,33,33*%
%TO.N,/A10*%
X128700000Y-39120000D03*
%TO.P,CN1,34,34*%
%TO.N,/~{FC1}*%
X128700000Y-44200000D03*
%TO.P,CN1,35,35*%
%TO.N,/A11*%
X131240000Y-39120000D03*
%TO.P,CN1,36,36*%
%TO.N,unconnected-(CN1-Pad36)*%
X131240000Y-44200000D03*
%TO.P,CN1,37,37*%
%TO.N,/A12*%
X133780000Y-39120000D03*
%TO.P,CN1,38,38*%
%TO.N,unconnected-(CN1-Pad38)*%
X133780000Y-44200000D03*
%TO.P,CN1,39,39*%
%TO.N,/~{IPL0}*%
X136320000Y-39120000D03*
%TO.P,CN1,40,40*%
%TO.N,/A13*%
X136320000Y-44200000D03*
%TO.P,CN1,41,41*%
%TO.N,/~{IPL1}*%
X138860000Y-39120000D03*
%TO.P,CN1,42,42*%
%TO.N,/A14*%
X138860000Y-44200000D03*
%TO.P,CN1,43,43*%
%TO.N,/~{IPL2}*%
X141400000Y-39120000D03*
%TO.P,CN1,44,44*%
%TO.N,/A15*%
X141400000Y-44200000D03*
%TO.P,CN1,45,45*%
%TO.N,unconnected-(CN1-Pad45)*%
X143940000Y-39120000D03*
%TO.P,CN1,46,46*%
%TO.N,/A16*%
X143940000Y-44200000D03*
%TO.P,CN1,47,47*%
%TO.N,unconnected-(CN1-Pad47)*%
X146480000Y-39120000D03*
%TO.P,CN1,48,48*%
%TO.N,/A17*%
X146480000Y-44200000D03*
%TO.P,CN1,49,49*%
%TO.N,unconnected-(CN1-Pad49)*%
X149020000Y-39120000D03*
%TO.P,CN1,50,50*%
%TO.N,unconnected-(CN1-Pad50)*%
X149020000Y-44200000D03*
%TO.P,CN1,51,51*%
%TO.N,/A18*%
X151560000Y-39120000D03*
%TO.P,CN1,52,52*%
%TO.N,unconnected-(CN1-Pad52)*%
X151560000Y-44200000D03*
%TO.P,CN1,53,53*%
%TO.N,/A19*%
X154100000Y-39120000D03*
%TO.P,CN1,54,54*%
%TO.N,/~{RST}*%
X154100000Y-44200000D03*
%TO.P,CN1,55,55*%
%TO.N,/A20*%
X156640000Y-39120000D03*
%TO.P,CN1,56,56*%
%TO.N,/~{HLT}*%
X156640000Y-44200000D03*
%TO.P,CN1,57,57*%
%TO.N,/A21*%
X159180000Y-39120000D03*
%TO.P,CN1,58,58*%
%TO.N,/A22*%
X159180000Y-44200000D03*
%TO.P,CN1,59,59*%
%TO.N,unconnected-(CN1-Pad59)*%
X161720000Y-39120000D03*
%TO.P,CN1,60,60*%
%TO.N,/A23*%
X161720000Y-44200000D03*
%TO.P,CN1,61,61*%
%TO.N,unconnected-(CN1-Pad61)*%
X164260000Y-39120000D03*
%TO.P,CN1,62,62*%
%TO.N,unconnected-(CN1-Pad62)*%
X164260000Y-44200000D03*
%TO.P,CN1,63,63*%
%TO.N,unconnected-(CN1-Pad63)*%
X166800000Y-39120000D03*
%TO.P,CN1,64,64*%
%TO.N,/D15*%
X166800000Y-44200000D03*
%TO.P,CN1,65,65*%
%TO.N,unconnected-(CN1-Pad65)*%
X169340000Y-39120000D03*
%TO.P,CN1,66,66*%
%TO.N,/D14*%
X169340000Y-44200000D03*
%TO.P,CN1,67,67*%
%TO.N,/R_W*%
X171880000Y-39120000D03*
%TO.P,CN1,68,68*%
%TO.N,/D13*%
X171880000Y-44200000D03*
%TO.P,CN1,69,69*%
%TO.N,/~{LDS}*%
X174420000Y-39120000D03*
%TO.P,CN1,70,70*%
%TO.N,/D12*%
X174420000Y-44200000D03*
%TO.P,CN1,71,71*%
%TO.N,/~{UDS}*%
X176960000Y-39120000D03*
%TO.P,CN1,72,72*%
%TO.N,/D11*%
X176960000Y-44200000D03*
%TO.P,CN1,73,73*%
%TO.N,/~{AS}*%
X179500000Y-39120000D03*
%TO.P,CN1,74,74*%
%TO.N,GND*%
X179500000Y-44200000D03*
%TO.P,CN1,75,75*%
%TO.N,/D10*%
X182040000Y-39120000D03*
%TO.P,CN1,76,76*%
%TO.N,/D0*%
X182040000Y-44200000D03*
%TO.P,CN1,77,77*%
%TO.N,/D9*%
X184580000Y-39120000D03*
%TO.P,CN1,78,78*%
%TO.N,/D1*%
X184580000Y-44200000D03*
%TO.P,CN1,79,79*%
%TO.N,/D8*%
X187120000Y-39120000D03*
%TO.P,CN1,80,80*%
%TO.N,/D2*%
X187120000Y-44200000D03*
%TO.P,CN1,81,81*%
%TO.N,/D7*%
X189660000Y-39120000D03*
%TO.P,CN1,82,82*%
%TO.N,/D3*%
X189660000Y-44200000D03*
%TO.P,CN1,83,83*%
%TO.N,/D6*%
X192200000Y-39120000D03*
%TO.P,CN1,84,84*%
%TO.N,/D4*%
X192200000Y-44200000D03*
%TO.P,CN1,85,85*%
%TO.N,/D5*%
X194740000Y-39120000D03*
%TO.P,CN1,86,86*%
%TO.N,unconnected-(CN1-Pad86)*%
X194740000Y-44200000D03*
%TD*%
D24*
%TO.P,U8,1*%
%TO.N,unconnected-(U8-Pad1)*%
X148850000Y-105145000D03*
%TO.P,U8,2,A12*%
%TO.N,/A13*%
X148850000Y-106415000D03*
%TO.P,U8,3,A7*%
%TO.N,/A8*%
X148850000Y-107685000D03*
%TO.P,U8,4,A6*%
%TO.N,/A7*%
X148850000Y-108955000D03*
%TO.P,U8,5,A5*%
%TO.N,/A6*%
X148850000Y-110225000D03*
%TO.P,U8,6,A4*%
%TO.N,/A5*%
X148850000Y-111495000D03*
%TO.P,U8,7,A3*%
%TO.N,/A4*%
X148850000Y-112765000D03*
%TO.P,U8,8,A2*%
%TO.N,/A3*%
X148850000Y-114035000D03*
%TO.P,U8,9,A1*%
%TO.N,/A2*%
X148850000Y-115305000D03*
%TO.P,U8,10,A0*%
%TO.N,/A1*%
X148850000Y-116575000D03*
%TO.P,U8,11,I/O0*%
%TO.N,/D0*%
X148850000Y-117845000D03*
%TO.P,U8,12,I/O1*%
%TO.N,/D1*%
X148850000Y-119115000D03*
%TO.P,U8,13,I/O2*%
%TO.N,/D2*%
X148850000Y-120385000D03*
%TO.P,U8,14,GND*%
%TO.N,GND*%
X148850000Y-121655000D03*
%TO.P,U8,15,I/O3*%
%TO.N,/D3*%
X158450000Y-121655000D03*
%TO.P,U8,16,I/O4*%
%TO.N,/D4*%
X158450000Y-120385000D03*
%TO.P,U8,17,I/O5*%
%TO.N,/D5*%
X158450000Y-119115000D03*
%TO.P,U8,18,I/O6*%
%TO.N,/D6*%
X158450000Y-117845000D03*
%TO.P,U8,19,I/O7*%
%TO.N,/D7*%
X158450000Y-116575000D03*
%TO.P,U8,20,~{CE}*%
%TO.N,Net-(U4-IO4)*%
X158450000Y-115305000D03*
%TO.P,U8,21,A10*%
%TO.N,/A11*%
X158450000Y-114035000D03*
%TO.P,U8,22,~{OE}*%
%TO.N,/~{OE}*%
X158450000Y-112765000D03*
%TO.P,U8,23,A11*%
%TO.N,/A12*%
X158450000Y-111495000D03*
%TO.P,U8,24,A9*%
%TO.N,/A10*%
X158450000Y-110225000D03*
%TO.P,U8,25,A8*%
%TO.N,/A9*%
X158450000Y-108955000D03*
%TO.P,U8,26,CE*%
%TO.N,+5V*%
X158450000Y-107685000D03*
%TO.P,U8,27,~{WE}*%
%TO.N,/R_W*%
X158450000Y-106415000D03*
%TO.P,U8,28,VDD*%
%TO.N,+5V*%
X158450000Y-105145000D03*
%TD*%
D21*
%TO.P,R1,1*%
%TO.N,/~{HLT}*%
X154050000Y-51700000D03*
%TO.P,R1,2*%
%TO.N,+5V*%
X154050000Y-54800000D03*
%TD*%
D25*
%TO.P,C4,1*%
%TO.N,GND*%
X157912500Y-70650000D03*
%TO.P,C4,2*%
%TO.N,+5V*%
X154787500Y-70650000D03*
%TD*%
D21*
%TO.P,R6,1*%
%TO.N,+5V*%
X91950000Y-92300000D03*
%TO.P,R6,2*%
%TO.N,Net-(U3-I6)*%
X91950000Y-95400000D03*
%TD*%
D14*
%TO.P,C6,1*%
%TO.N,Net-(D3-K)*%
X89950000Y-87650000D03*
D13*
%TO.P,C6,2*%
%TO.N,GND*%
X87450000Y-87650000D03*
%TD*%
D19*
%TO.P,U3,1,I1/CLK*%
%TO.N,Net-(U2-IO1)*%
X141400000Y-74697500D03*
%TO.P,U3,2,I2*%
%TO.N,Net-(U2-IO7)*%
X140130000Y-74697500D03*
%TO.P,U3,3,I3*%
%TO.N,Net-(U2-IO8)*%
X138860000Y-74697500D03*
D20*
%TO.P,U3,4,I4*%
%TO.N,/~{UDS}*%
X137347500Y-76210000D03*
%TO.P,U3,5,I5*%
%TO.N,Net-(U3-I5)*%
X137347500Y-77480000D03*
%TO.P,U3,6,I6*%
%TO.N,Net-(U3-I6)*%
X137347500Y-78750000D03*
%TO.P,U3,7,I7*%
%TO.N,/~{FC0}*%
X137347500Y-80020000D03*
%TO.P,U3,8,I8*%
%TO.N,Net-(U2-IO6)*%
X137347500Y-81290000D03*
D19*
%TO.P,U3,9,I9*%
%TO.N,/~{OE}*%
X138860000Y-82802500D03*
%TO.P,U3,10,GND*%
%TO.N,GND*%
X140130000Y-82802500D03*
%TO.P,U3,11,I10/~{OE}*%
%TO.N,/~{LDS}*%
X141400000Y-82802500D03*
%TO.P,U3,12,IO8*%
%TO.N,unconnected-(U3-IO8-Pad12)*%
X142670000Y-82802500D03*
%TO.P,U3,13,IO7*%
%TO.N,unconnected-(U3-IO7-Pad13)*%
X143940000Y-82802500D03*
D20*
%TO.P,U3,14,IO6*%
%TO.N,/~{AS}*%
X145452500Y-81290000D03*
%TO.P,U3,15,IO5*%
%TO.N,Net-(U3-IO5)*%
X145452500Y-80020000D03*
%TO.P,U3,16,IO4*%
%TO.N,Net-(U3-IO4)*%
X145452500Y-78750000D03*
%TO.P,U3,17,I03*%
%TO.N,Net-(U3-I03)*%
X145452500Y-77480000D03*
%TO.P,U3,18,IO2*%
%TO.N,Net-(U3-IO2)*%
X145452500Y-76210000D03*
D19*
%TO.P,U3,19,IO1*%
%TO.N,unconnected-(U3-IO1-Pad19)*%
X143940000Y-74697500D03*
%TO.P,U3,20,VCC*%
%TO.N,+5V*%
X142670000Y-74697500D03*
%TD*%
D15*
%TO.P,D1,1,K*%
%TO.N,Net-(D1-K)*%
X188850000Y-92700000D03*
D16*
%TO.P,D1,2,A*%
%TO.N,Net-(D1-A)*%
X188850000Y-90160000D03*
%TD*%
D19*
%TO.P,U1,1,I1/CLK*%
%TO.N,/A23*%
X178200000Y-74597500D03*
%TO.P,U1,2,I2*%
%TO.N,/A22*%
X176930000Y-74597500D03*
%TO.P,U1,3,I3*%
%TO.N,/A21*%
X175660000Y-74597500D03*
D20*
%TO.P,U1,4,I4*%
%TO.N,/A20*%
X174147500Y-76110000D03*
%TO.P,U1,5,I5*%
%TO.N,/A18*%
X174147500Y-77380000D03*
%TO.P,U1,6,I6*%
%TO.N,/A16*%
X174147500Y-78650000D03*
%TO.P,U1,7,I7*%
%TO.N,/A14*%
X174147500Y-79920000D03*
%TO.P,U1,8,I8*%
%TO.N,/A12*%
X174147500Y-81190000D03*
D19*
%TO.P,U1,9,I9*%
%TO.N,/A10*%
X175660000Y-82702500D03*
%TO.P,U1,10,GND*%
%TO.N,GND*%
X176930000Y-82702500D03*
%TO.P,U1,11,I10/~{OE}*%
%TO.N,/A9*%
X178200000Y-82702500D03*
%TO.P,U1,12,IO8*%
%TO.N,Net-(U1-IO8)*%
X179470000Y-82702500D03*
%TO.P,U1,13,IO7*%
%TO.N,/A11*%
X180740000Y-82702500D03*
D20*
%TO.P,U1,14,IO6*%
%TO.N,/A13*%
X182252500Y-81190000D03*
%TO.P,U1,15,IO5*%
%TO.N,/A15*%
X182252500Y-79920000D03*
%TO.P,U1,16,IO4*%
%TO.N,/A17*%
X182252500Y-78650000D03*
%TO.P,U1,17,I03*%
%TO.N,/A19*%
X182252500Y-77380000D03*
%TO.P,U1,18,IO2*%
%TO.N,Net-(U1-IO2)*%
X182252500Y-76110000D03*
D19*
%TO.P,U1,19,IO1*%
%TO.N,Net-(U1-IO1)*%
X180740000Y-74597500D03*
%TO.P,U1,20,VCC*%
%TO.N,+5V*%
X179470000Y-74597500D03*
%TD*%
%TO.P,U5,1,I1/CLK*%
%TO.N,/~{AS}*%
X104000000Y-74647500D03*
%TO.P,U5,2,I2*%
%TO.N,/R_W*%
X102730000Y-74647500D03*
%TO.P,U5,3,I3*%
%TO.N,Net-(Q1-G)*%
X101460000Y-74647500D03*
D20*
%TO.P,U5,4,I4*%
%TO.N,Net-(U3-IO5)*%
X99947500Y-76160000D03*
%TO.P,U5,5,I5*%
%TO.N,Net-(D3-A)*%
X99947500Y-77430000D03*
%TO.P,U5,6,I6*%
%TO.N,Net-(D1-K)*%
X99947500Y-78700000D03*
%TO.P,U5,7,I7*%
%TO.N,Net-(U5-I7)*%
X99947500Y-79970000D03*
%TO.P,U5,8,I8*%
%TO.N,/~{RST}*%
X99947500Y-81240000D03*
D19*
%TO.P,U5,9,I9*%
%TO.N,unconnected-(U5-I9-Pad9)*%
X101460000Y-82752500D03*
%TO.P,U5,10,GND*%
%TO.N,GND*%
X102730000Y-82752500D03*
%TO.P,U5,11,I10/~{OE}*%
%TO.N,Net-(U3-IO4)*%
X104000000Y-82752500D03*
%TO.P,U5,12,IO8*%
%TO.N,/~{OE}*%
X105270000Y-82752500D03*
%TO.P,U5,13,IO7*%
%TO.N,Net-(U3-I5)*%
X106540000Y-82752500D03*
D20*
%TO.P,U5,14,IO6*%
%TO.N,Net-(U5-IO6)*%
X108052500Y-81240000D03*
%TO.P,U5,15,IO5*%
%TO.N,Net-(U5-IO5)*%
X108052500Y-79970000D03*
%TO.P,U5,16,IO4*%
%TO.N,/~{HLT}*%
X108052500Y-78700000D03*
%TO.P,U5,17,I03*%
%TO.N,/~{IPL0}*%
X108052500Y-77430000D03*
%TO.P,U5,18,IO2*%
%TO.N,/~{IPL1}*%
X108052500Y-76160000D03*
D19*
%TO.P,U5,19,IO1*%
%TO.N,/~{IPL2}*%
X106540000Y-74647500D03*
%TO.P,U5,20,VCC*%
%TO.N,+5V*%
X105270000Y-74647500D03*
%TD*%
D22*
%TO.P,C3,1*%
%TO.N,+5V*%
X183200000Y-106137500D03*
%TO.P,C3,2*%
%TO.N,GND*%
X183200000Y-109262500D03*
%TD*%
D26*
%TO.P,U6,1,~{R}*%
%TO.N,+5V*%
X119760000Y-53575000D03*
%TO.P,U6,2,D*%
%TO.N,GND*%
X118490000Y-53575000D03*
%TO.P,U6,3,C*%
%TO.N,Net-(U5-I7)*%
X117220000Y-53575000D03*
%TO.P,U6,4,~{S}*%
%TO.N,Net-(U5-IO5)*%
X115950000Y-53575000D03*
%TO.P,U6,5,Q*%
%TO.N,Net-(Q1-G)*%
X114680000Y-53575000D03*
%TO.P,U6,6,~{Q}*%
%TO.N,unconnected-(U6A-~{Q}-Pad6)*%
X113410000Y-53575000D03*
%TO.P,U6,7,GND*%
%TO.N,GND*%
X112140000Y-53575000D03*
%TO.P,U6,8,~{Q}*%
%TO.N,Net-(U6B-D)*%
X112140000Y-58525000D03*
%TO.P,U6,9,Q*%
%TO.N,Net-(U5-I7)*%
X113410000Y-58525000D03*
%TO.P,U6,10,~{S}*%
%TO.N,Net-(U5-IO5)*%
X114680000Y-58525000D03*
%TO.P,U6,11,C*%
%TO.N,Net-(U5-IO6)*%
X115950000Y-58525000D03*
%TO.P,U6,12,D*%
%TO.N,Net-(U6B-D)*%
X117220000Y-58525000D03*
%TO.P,U6,13,~{R}*%
%TO.N,+5V*%
X118490000Y-58525000D03*
%TO.P,U6,14,VCC*%
X119760000Y-58525000D03*
%TD*%
D27*
%TO.P,U11,1,GND*%
%TO.N,GND*%
X91525000Y-104645000D03*
%TO.P,U11,2,TR*%
%TO.N,Net-(D3-K)*%
X91525000Y-105915000D03*
%TO.P,U11,3,Q*%
%TO.N,Net-(D3-A)*%
X91525000Y-107185000D03*
%TO.P,U11,4,R*%
%TO.N,+5V*%
X91525000Y-108455000D03*
%TO.P,U11,5,CV*%
%TO.N,unconnected-(U11-CV-Pad5)*%
X96475000Y-108455000D03*
%TO.P,U11,6,THR*%
%TO.N,Net-(U11-DIS)*%
X96475000Y-107185000D03*
%TO.P,U11,7,DIS*%
X96475000Y-105915000D03*
%TO.P,U11,8,VCC*%
%TO.N,+5V*%
X96475000Y-104645000D03*
%TD*%
D21*
%TO.P,R7,1*%
%TO.N,Net-(D2-A)*%
X88100000Y-92300000D03*
%TO.P,R7,2*%
%TO.N,+5V*%
X88100000Y-95400000D03*
%TD*%
D28*
%TO.P,D3,1,K*%
%TO.N,Net-(D3-K)*%
X99700000Y-95337500D03*
%TO.P,D3,2,A*%
%TO.N,Net-(D3-A)*%
X99700000Y-92362500D03*
%TD*%
D21*
%TO.P,R4,1*%
%TO.N,Net-(D1-K)*%
X183200000Y-99100000D03*
%TO.P,R4,2*%
%TO.N,+5V*%
X183200000Y-102200000D03*
%TD*%
%TO.P,R2,1*%
%TO.N,/~{RST}*%
X150150000Y-51700000D03*
%TO.P,R2,2*%
%TO.N,+5V*%
X150150000Y-54800000D03*
%TD*%
D17*
%TO.P,U7,1,VPP*%
%TO.N,+5V*%
X173000000Y-104712500D03*
%TO.P,U7,2,A16*%
%TO.N,/A17*%
X171730000Y-104712500D03*
%TO.P,U7,3,A15*%
%TO.N,/A16*%
X170460000Y-104712500D03*
%TO.P,U7,4,A12*%
%TO.N,/A13*%
X169190000Y-104712500D03*
D18*
%TO.P,U7,5,A7*%
%TO.N,/A8*%
X167437500Y-106470000D03*
%TO.P,U7,6,A6*%
%TO.N,/A7*%
X167437500Y-107740000D03*
%TO.P,U7,7,A5*%
%TO.N,/A6*%
X167437500Y-109010000D03*
%TO.P,U7,8,A4*%
%TO.N,/A5*%
X167437500Y-110280000D03*
%TO.P,U7,9,A3*%
%TO.N,/A4*%
X167437500Y-111550000D03*
%TO.P,U7,10,A2*%
%TO.N,/A3*%
X167437500Y-112820000D03*
%TO.P,U7,11,A1*%
%TO.N,/A2*%
X167437500Y-114090000D03*
%TO.P,U7,12,A0*%
%TO.N,/A1*%
X167437500Y-115360000D03*
%TO.P,U7,13,D0*%
%TO.N,/D0*%
X167437500Y-116630000D03*
D17*
%TO.P,U7,14,D1*%
%TO.N,/D1*%
X169190000Y-118387500D03*
%TO.P,U7,15,D2*%
%TO.N,/D2*%
X170460000Y-118387500D03*
%TO.P,U7,16,GND*%
%TO.N,GND*%
X171730000Y-118387500D03*
%TO.P,U7,17,D3*%
%TO.N,/D3*%
X173000000Y-118387500D03*
%TO.P,U7,18,D4*%
%TO.N,/D4*%
X174270000Y-118387500D03*
%TO.P,U7,19,D5*%
%TO.N,/D5*%
X175540000Y-118387500D03*
%TO.P,U7,20,D6*%
%TO.N,/D6*%
X176810000Y-118387500D03*
D18*
%TO.P,U7,21,D7*%
%TO.N,/D7*%
X178562500Y-116630000D03*
%TO.P,U7,22,~{CE}*%
%TO.N,Net-(U4-IO8)*%
X178562500Y-115360000D03*
%TO.P,U7,23,A10*%
%TO.N,/A11*%
X178562500Y-114090000D03*
%TO.P,U7,24,~{OE}*%
%TO.N,/~{OE}*%
X178562500Y-112820000D03*
%TO.P,U7,25,A11*%
%TO.N,/A12*%
X178562500Y-111550000D03*
%TO.P,U7,26,A9*%
%TO.N,/A10*%
X178562500Y-110280000D03*
%TO.P,U7,27,A8*%
%TO.N,/A9*%
X178562500Y-109010000D03*
%TO.P,U7,28,A13*%
%TO.N,/A14*%
X178562500Y-107740000D03*
%TO.P,U7,29,A14*%
%TO.N,/A15*%
X178562500Y-106470000D03*
D17*
%TO.P,U7,30,NC*%
%TO.N,unconnected-(U7-NC-Pad30)*%
X176810000Y-104712500D03*
%TO.P,U7,31,~{PGM}*%
%TO.N,unconnected-(U7-~{PGM}-Pad31)*%
X175540000Y-104712500D03*
%TO.P,U7,32,VCC*%
%TO.N,+5V*%
X174270000Y-104712500D03*
%TD*%
D19*
%TO.P,U2,1,I1/CLK*%
%TO.N,/A8*%
X159750000Y-74697500D03*
%TO.P,U2,2,I2*%
%TO.N,/A7*%
X158480000Y-74697500D03*
%TO.P,U2,3,I3*%
%TO.N,/A4*%
X157210000Y-74697500D03*
D20*
%TO.P,U2,4,I4*%
%TO.N,/A6*%
X155697500Y-76210000D03*
%TO.P,U2,5,I5*%
%TO.N,/A5*%
X155697500Y-77480000D03*
%TO.P,U2,6,I6*%
%TO.N,/A3*%
X155697500Y-78750000D03*
%TO.P,U2,7,I7*%
%TO.N,/A2*%
X155697500Y-80020000D03*
%TO.P,U2,8,I8*%
%TO.N,Net-(U2-I8)*%
X155697500Y-81290000D03*
D19*
%TO.P,U2,9,I9*%
%TO.N,Net-(U2-I9)*%
X157210000Y-82802500D03*
%TO.P,U2,10,GND*%
%TO.N,GND*%
X158480000Y-82802500D03*
%TO.P,U2,11,I10/~{OE}*%
%TO.N,/~{FC1}*%
X159750000Y-82802500D03*
%TO.P,U2,12,IO8*%
%TO.N,Net-(U2-IO8)*%
X161020000Y-82802500D03*
%TO.P,U2,13,IO7*%
%TO.N,Net-(U2-IO7)*%
X162290000Y-82802500D03*
D20*
%TO.P,U2,14,IO6*%
%TO.N,Net-(U2-IO6)*%
X163802500Y-81290000D03*
%TO.P,U2,15,IO5*%
%TO.N,/A1*%
X163802500Y-80020000D03*
%TO.P,U2,16,IO4*%
%TO.N,Net-(U1-IO1)*%
X163802500Y-78750000D03*
%TO.P,U2,17,I03*%
%TO.N,Net-(U1-IO2)*%
X163802500Y-77480000D03*
%TO.P,U2,18,IO2*%
%TO.N,Net-(U1-IO8)*%
X163802500Y-76210000D03*
D19*
%TO.P,U2,19,IO1*%
%TO.N,Net-(U2-IO1)*%
X162290000Y-74697500D03*
%TO.P,U2,20,VCC*%
%TO.N,+5V*%
X161020000Y-74697500D03*
%TD*%
D25*
%TO.P,C5,1*%
%TO.N,+5V*%
X90712500Y-48600000D03*
%TO.P,C5,2*%
%TO.N,GND*%
X87587500Y-48600000D03*
%TD*%
D24*
%TO.P,U10,1,A14*%
%TO.N,/A15*%
X109100000Y-105145000D03*
%TO.P,U10,2,A12*%
%TO.N,/A13*%
X109100000Y-106415000D03*
%TO.P,U10,3,A7*%
%TO.N,/A8*%
X109100000Y-107685000D03*
%TO.P,U10,4,A6*%
%TO.N,/A7*%
X109100000Y-108955000D03*
%TO.P,U10,5,A5*%
%TO.N,/A6*%
X109100000Y-110225000D03*
%TO.P,U10,6,A4*%
%TO.N,/A5*%
X109100000Y-111495000D03*
%TO.P,U10,7,A3*%
%TO.N,/A4*%
X109100000Y-112765000D03*
%TO.P,U10,8,A2*%
%TO.N,/A3*%
X109100000Y-114035000D03*
%TO.P,U10,9,A1*%
%TO.N,/A2*%
X109100000Y-115305000D03*
%TO.P,U10,10,A0*%
%TO.N,/A1*%
X109100000Y-116575000D03*
%TO.P,U10,11,I/O0*%
%TO.N,/D8*%
X109100000Y-117845000D03*
%TO.P,U10,12,I/O1*%
%TO.N,/D9*%
X109100000Y-119115000D03*
%TO.P,U10,13,I/O2*%
%TO.N,/D10*%
X109100000Y-120385000D03*
%TO.P,U10,14,GND*%
%TO.N,GND*%
X109100000Y-121655000D03*
%TO.P,U10,15,I/O3*%
%TO.N,/D11*%
X118700000Y-121655000D03*
%TO.P,U10,16,I/O4*%
%TO.N,/D12*%
X118700000Y-120385000D03*
%TO.P,U10,17,I/O5*%
%TO.N,/D13*%
X118700000Y-119115000D03*
%TO.P,U10,18,I/O6*%
%TO.N,/D14*%
X118700000Y-117845000D03*
%TO.P,U10,19,I/O7*%
%TO.N,/D15*%
X118700000Y-116575000D03*
%TO.P,U10,20,~{CE}*%
%TO.N,Net-(U10-~{CE})*%
X118700000Y-115305000D03*
%TO.P,U10,21,A10*%
%TO.N,/A11*%
X118700000Y-114035000D03*
%TO.P,U10,22,~{OE}*%
%TO.N,/~{OE}*%
X118700000Y-112765000D03*
%TO.P,U10,23,A11*%
%TO.N,/A12*%
X118700000Y-111495000D03*
%TO.P,U10,24,A9*%
%TO.N,/A10*%
X118700000Y-110225000D03*
%TO.P,U10,25,A8*%
%TO.N,/A9*%
X118700000Y-108955000D03*
%TO.P,U10,26,A13*%
%TO.N,/A14*%
X118700000Y-107685000D03*
%TO.P,U10,27,~{WE}*%
%TO.N,/R_W*%
X118700000Y-106415000D03*
%TO.P,U10,28,VDD*%
%TO.N,+5V*%
X118700000Y-105145000D03*
%TD*%
D21*
%TO.P,R5,1*%
%TO.N,Net-(D3-A)*%
X95750000Y-92300000D03*
%TO.P,R5,2*%
%TO.N,Net-(D3-K)*%
X95750000Y-95400000D03*
%TD*%
D29*
%TO.N,Net-(U3-I6)*%
X133300000Y-80050000D03*
X90600000Y-98550000D03*
X133300000Y-92650000D03*
%TO.N,Net-(U10-~{CE})*%
X127200000Y-73300000D03*
X113250000Y-64400000D03*
X127150000Y-64400000D03*
X112700000Y-115600000D03*
%TO.N,Net-(U2-IO1)*%
X118850000Y-61250000D03*
X163850000Y-61250000D03*
X163850000Y-74700000D03*
X143800000Y-77100000D03*
X120100000Y-77650000D03*
X144900000Y-61250000D03*
%TO.N,/A5*%
X122450000Y-109850000D03*
X113600000Y-111500000D03*
X156100000Y-110850000D03*
X122450000Y-94100000D03*
X122450000Y-101750000D03*
X113600000Y-101750000D03*
X156000000Y-93400000D03*
X157700000Y-76800000D03*
%TO.N,/A8*%
X165350000Y-94150000D03*
X158650000Y-94150000D03*
X127850000Y-105050000D03*
X117050000Y-62500000D03*
X160650000Y-76500000D03*
X117050000Y-95100000D03*
X119850000Y-62500000D03*
X146800000Y-107700000D03*
X111050000Y-95100000D03*
X127650000Y-103300000D03*
X147900000Y-94150000D03*
X165350000Y-106450000D03*
X127650000Y-95100000D03*
X111050000Y-107685000D03*
%TO.N,/~{IPL2}*%
X106550000Y-46050000D03*
X106550000Y-72450000D03*
X142700000Y-47150000D03*
%TO.N,/A15*%
X141400000Y-99150000D03*
X139200000Y-99150000D03*
X168300000Y-99300000D03*
X139200000Y-105200000D03*
X107150000Y-105150000D03*
X107150000Y-98250000D03*
X168300000Y-87950000D03*
%TO.N,GND*%
X158750000Y-86550000D03*
X158750000Y-79800000D03*
X179500000Y-52250000D03*
X132500000Y-123200000D03*
X186650000Y-110000000D03*
X96000000Y-54950000D03*
X132500000Y-125900000D03*
X109100000Y-123050000D03*
X120100000Y-78850000D03*
X109100000Y-125900000D03*
X96100000Y-113200000D03*
X87450000Y-104650000D03*
X173350000Y-114550000D03*
X132500000Y-120650000D03*
X87400000Y-113300000D03*
X156300000Y-70600000D03*
X96100000Y-88700000D03*
X173500000Y-94850000D03*
X158750000Y-52250000D03*
X173500000Y-84650000D03*
X118700000Y-88600000D03*
%TO.N,+5V*%
X188550000Y-106950000D03*
X107650000Y-71450000D03*
X158650000Y-100050000D03*
X134800000Y-102700000D03*
X176250000Y-100150000D03*
X97950000Y-56400000D03*
X94400000Y-48650000D03*
X119100000Y-100050000D03*
X101700000Y-104600000D03*
X117850000Y-72500000D03*
X160550000Y-105150000D03*
X101750000Y-93550000D03*
X117800000Y-56400000D03*
X118950000Y-104050000D03*
X176300000Y-102800000D03*
X178850000Y-102800000D03*
X97880000Y-74280000D03*
X134800000Y-100050000D03*
X178900000Y-93350000D03*
X107650000Y-56400000D03*
X101700000Y-109700000D03*
%TO.N,/~{OE}*%
X116250000Y-87000000D03*
X116300000Y-112765000D03*
X116300000Y-78750000D03*
X137550000Y-112750000D03*
X137850000Y-83650000D03*
X138850000Y-81300000D03*
X138850000Y-88300000D03*
%TO.N,Net-(U4-IO4)*%
X153500000Y-64600000D03*
X130750000Y-64600000D03*
X130400000Y-78750000D03*
X156750000Y-86600000D03*
X153500000Y-86600000D03*
X156200000Y-115300000D03*
%TO.N,Net-(U4-IO5)*%
X130000000Y-80000000D03*
X129950000Y-113900000D03*
%TO.N,/A1*%
X147000000Y-116600000D03*
X125900000Y-115300000D03*
X126350000Y-124700000D03*
X163750000Y-115350000D03*
X163750000Y-83600000D03*
X123300000Y-114650000D03*
X147000000Y-124700000D03*
%TO.N,Net-(U4-IO8)*%
X181300000Y-115350000D03*
X122050000Y-79650000D03*
X181300000Y-97850000D03*
X121700000Y-95900000D03*
%TO.N,/A16*%
X169350000Y-78650000D03*
X133500000Y-102700000D03*
X167350000Y-78650000D03*
X167350000Y-62300000D03*
X169350000Y-80000000D03*
X169350000Y-102750000D03*
X143250000Y-62300000D03*
X134300000Y-62300000D03*
%TO.N,Net-(U2-I8)*%
X126050000Y-87100000D03*
X147800000Y-82050000D03*
X147800000Y-87150000D03*
X126050000Y-84050000D03*
%TO.N,Net-(U2-I9)*%
X128350000Y-91500000D03*
X146600000Y-91500000D03*
X146650000Y-83150000D03*
X128350000Y-81950000D03*
%TO.N,Net-(U3-IO4)*%
X121700000Y-87750000D03*
X121700000Y-81300000D03*
X143750000Y-78750000D03*
X144500000Y-87900000D03*
%TO.N,/A9*%
X118700000Y-129250000D03*
X124950000Y-107750000D03*
X176700000Y-109000000D03*
X141650000Y-109000000D03*
X177400000Y-80950000D03*
X141650000Y-129250000D03*
X117000000Y-108950000D03*
%TO.N,Net-(U2-IO7)*%
X120100000Y-76450000D03*
X140400000Y-66350000D03*
X143700000Y-86200000D03*
X140400000Y-76750000D03*
X143700000Y-80800000D03*
X120100000Y-66350000D03*
%TO.N,Net-(U2-IO8)*%
X150100000Y-71450000D03*
X137800000Y-73900000D03*
X150100000Y-84900000D03*
X137800000Y-71450000D03*
%TO.N,Net-(U3-IO2)*%
X146700000Y-70600000D03*
X146700000Y-75100000D03*
%TO.N,Net-(U3-I03)*%
X152500000Y-77500000D03*
X152550000Y-69850000D03*
%TO.N,Net-(U3-I5)*%
X134350000Y-77700000D03*
X109500000Y-85200000D03*
X134350000Y-65400000D03*
X109500000Y-65400000D03*
%TO.N,Net-(U2-IO6)*%
X137200000Y-59850000D03*
X164850000Y-59850000D03*
X164850000Y-82500000D03*
X137450000Y-82700000D03*
%TO.N,Net-(U3-IO5)*%
X147850000Y-80020000D03*
X147850000Y-67950000D03*
%TO.N,/~{FC0}*%
X126050000Y-82850000D03*
%TO.N,/A17*%
X146450000Y-65300000D03*
%TO.N,Net-(U1-IO8)*%
X168250000Y-76200000D03*
X168250000Y-85600000D03*
%TO.N,Net-(U1-IO2)*%
X169000000Y-77500000D03*
X169000000Y-70650000D03*
%TO.N,/A18*%
X170800000Y-77400000D03*
X170800000Y-63400000D03*
X152800000Y-63350000D03*
%TO.N,Net-(U1-IO1)*%
X165850000Y-71050000D03*
X165850000Y-78750000D03*
%TO.N,Net-(Q1-G)*%
X101450000Y-52000000D03*
X101450000Y-71700000D03*
X101450000Y-68100000D03*
%TO.N,Net-(D1-K)*%
X185750000Y-99100000D03*
X181300000Y-89950000D03*
X185750000Y-92700000D03*
X105900000Y-78700000D03*
X105900000Y-89950000D03*
X181300000Y-96800000D03*
%TO.N,/A19*%
X155400000Y-66200000D03*
%TO.N,/A10*%
X120850000Y-92300000D03*
X120850000Y-110200000D03*
X175150000Y-110250000D03*
X176225000Y-80925000D03*
X126900000Y-91750000D03*
%TO.N,/~{FC1}*%
X159750000Y-67050000D03*
X127900000Y-67050000D03*
X159750000Y-80650000D03*
%TO.N,Net-(U5-I7)*%
X97050000Y-60200000D03*
X117200000Y-51600000D03*
X117200000Y-48950000D03*
X109100000Y-60200000D03*
X109100000Y-48950000D03*
X97050000Y-80000000D03*
%TO.N,Net-(U5-IO5)*%
X112500000Y-79950000D03*
X112500000Y-60950000D03*
X115300000Y-60950000D03*
X115300000Y-51450000D03*
%TO.N,Net-(U5-IO6)*%
X108700000Y-61900000D03*
X108700000Y-83150000D03*
%TO.N,/A11*%
X190850000Y-91400000D03*
X143250000Y-114050000D03*
X137150000Y-102600000D03*
X113650000Y-113700000D03*
X130000000Y-49100000D03*
X175350000Y-91400000D03*
X137150000Y-86500000D03*
X142300000Y-86300000D03*
X146950000Y-102600000D03*
X142400000Y-49100000D03*
X190850000Y-114100000D03*
X136450000Y-112750000D03*
X162850000Y-114000000D03*
X175350000Y-97750000D03*
X146950000Y-97550000D03*
X190850000Y-84950000D03*
X162850000Y-97850000D03*
%TO.N,/A12*%
X172650000Y-111550000D03*
X173100000Y-82500000D03*
X132550000Y-111550000D03*
%TO.N,/~{IPL0}*%
X138050000Y-68100000D03*
X110450000Y-77450000D03*
X110450000Y-68150000D03*
%TO.N,/~{RST}*%
X103400000Y-63450000D03*
X148250000Y-63450000D03*
X148250000Y-49100000D03*
X103400000Y-80700000D03*
X154150000Y-49050000D03*
%TO.N,/A13*%
X159850000Y-90650000D03*
X159850000Y-102850000D03*
X178600000Y-90650000D03*
X128400000Y-102550000D03*
X149850000Y-96750000D03*
X135000000Y-107550000D03*
X149850000Y-103450000D03*
X178600000Y-80100000D03*
X111900000Y-106400000D03*
X111900000Y-97400000D03*
X128400000Y-97400000D03*
%TO.N,/A20*%
X169750000Y-64400000D03*
X169750000Y-76100000D03*
X157850000Y-64400000D03*
%TO.N,/~{IPL1}*%
X105550000Y-77200000D03*
X105550000Y-47400000D03*
X140100000Y-48100000D03*
%TO.N,/A14*%
X141650000Y-107650000D03*
X140200000Y-92350000D03*
X180500000Y-107750000D03*
X180500000Y-78700000D03*
X180500000Y-92250000D03*
%TO.N,/~{HLT}*%
X156650000Y-51700000D03*
X111050000Y-78700000D03*
X111600000Y-49850000D03*
%TO.N,/A21*%
X160500000Y-54400000D03*
X168250000Y-74300000D03*
X168250000Y-54400000D03*
%TO.N,/A22*%
X159200000Y-47100000D03*
X99000000Y-50700000D03*
X176950000Y-76800000D03*
X145150000Y-47100000D03*
X88900000Y-67000000D03*
X145150000Y-51750000D03*
X99000000Y-67000000D03*
X177000000Y-47150000D03*
%TO.N,Net-(U11-DIS)*%
X94000000Y-107800000D03*
%TO.N,Net-(D3-A)*%
X89450000Y-107150000D03*
X101750000Y-77450000D03*
X89400000Y-89600000D03*
X101750000Y-92400000D03*
%TO.N,Net-(D3-K)*%
X93400000Y-105900000D03*
%TO.N,/A23*%
X161700000Y-55450000D03*
X180100000Y-76850000D03*
X180100000Y-55450000D03*
%TO.N,/D15*%
X144250000Y-116600000D03*
X139400000Y-117750000D03*
X116150000Y-116550000D03*
X144250000Y-94950000D03*
X162850000Y-94950000D03*
%TO.N,/A3*%
X135200000Y-112750000D03*
X121650000Y-98900000D03*
X121650000Y-112750000D03*
X157900000Y-78750000D03*
X135250000Y-115950000D03*
X104550000Y-41700000D03*
X157900000Y-87600000D03*
X155150000Y-87600000D03*
X104550000Y-98900000D03*
X104750000Y-114050000D03*
X155150000Y-114050000D03*
%TO.N,/A4*%
X154450000Y-74300000D03*
X124750000Y-124650000D03*
X107000000Y-112750000D03*
X153200000Y-112750000D03*
X153200000Y-128550000D03*
X124750000Y-128550000D03*
X114450000Y-112750000D03*
X124800000Y-111500000D03*
X107000000Y-124650000D03*
%TO.N,/A6*%
X115400000Y-110250000D03*
X124050000Y-101050000D03*
X124050000Y-108950000D03*
X115400000Y-101000000D03*
X150750000Y-78650000D03*
X151200000Y-110200000D03*
X150750000Y-101000000D03*
%TO.N,/A7*%
X126750000Y-94150000D03*
X105950000Y-91550000D03*
X154300000Y-93550000D03*
X162050000Y-104100000D03*
X154300000Y-104100000D03*
X105950000Y-96700000D03*
X126750000Y-96700000D03*
X105950000Y-108950000D03*
X122450000Y-91550000D03*
X126750000Y-104300000D03*
X162050000Y-77400000D03*
%TO.N,/A2*%
X152500000Y-98500000D03*
X152500000Y-115250000D03*
X106000000Y-115300000D03*
X120000000Y-94150000D03*
X148700000Y-98500000D03*
X103700000Y-94200000D03*
X152500000Y-80050000D03*
X103700000Y-102450000D03*
X148700000Y-101950000D03*
X125950000Y-102400000D03*
X126010000Y-114040000D03*
%TO.N,/D14*%
X175250000Y-59600000D03*
X122500000Y-117700000D03*
X142400000Y-88800000D03*
X138700000Y-118350000D03*
X175250000Y-88800000D03*
X169340000Y-59560000D03*
X142400000Y-118350000D03*
%TO.N,/R_W*%
X102700000Y-103400000D03*
X102700000Y-49450000D03*
X102700000Y-76400000D03*
X144000000Y-58650000D03*
X144000000Y-49950000D03*
X161200000Y-106350000D03*
X161250000Y-58650000D03*
X170600000Y-58550000D03*
%TO.N,/D13*%
X115900000Y-119450000D03*
X136350000Y-125400000D03*
X115900000Y-127750000D03*
X171850000Y-125450000D03*
X136340000Y-120300000D03*
X136350000Y-127750000D03*
%TO.N,/~{LDS}*%
X145150000Y-85300000D03*
X145750000Y-68900000D03*
X173050000Y-68900000D03*
%TO.N,/D12*%
X137250000Y-122450000D03*
X166550000Y-126100000D03*
X135050000Y-122450000D03*
X137250000Y-126100000D03*
X166550000Y-53100000D03*
X135050000Y-120700000D03*
X174450000Y-53100000D03*
%TO.N,/~{UDS}*%
X178200000Y-57650000D03*
X133400000Y-74700000D03*
X127650000Y-86400000D03*
X133400000Y-57650000D03*
X128050000Y-74700000D03*
%TO.N,/D11*%
X140400000Y-127750000D03*
X174300000Y-127700000D03*
X140400000Y-121650000D03*
%TO.N,/~{AS}*%
X111600000Y-90750000D03*
X180750000Y-67850000D03*
X111600000Y-81450000D03*
X149200000Y-81250000D03*
X149200000Y-90750000D03*
X149200000Y-67950000D03*
%TO.N,/D3*%
X183400000Y-47400000D03*
X175500000Y-121650000D03*
X183100000Y-121650000D03*
X175500000Y-115550000D03*
%TO.N,/D10*%
X131700000Y-54050000D03*
X147250000Y-54050000D03*
X147250000Y-46400000D03*
X131250000Y-123900000D03*
X183400000Y-46200000D03*
X131600000Y-116300000D03*
X131250000Y-120650000D03*
%TO.N,/D8*%
X133500000Y-115100000D03*
X136750000Y-46200000D03*
%TO.N,/D0*%
X131300000Y-77450000D03*
X145200000Y-117850000D03*
X145200000Y-97600000D03*
X156550000Y-117800000D03*
X160580000Y-116630000D03*
X164600000Y-86400000D03*
X182050000Y-86350000D03*
X130900000Y-97550000D03*
X164600000Y-116650000D03*
%TO.N,/D4*%
X179600000Y-120750000D03*
X178300000Y-59050000D03*
%TO.N,/D9*%
X128150000Y-118350000D03*
X128950000Y-56450000D03*
X128150000Y-123150000D03*
X185850000Y-56450000D03*
%TO.N,/D2*%
X187000000Y-96050000D03*
X169750000Y-122300000D03*
X170450000Y-96050000D03*
X170450000Y-116000000D03*
%TO.N,/D7*%
X182100000Y-128550000D03*
X182100000Y-116600000D03*
X155300000Y-128550000D03*
X155250000Y-116900000D03*
%TO.N,/D6*%
X189800000Y-57750000D03*
X185900000Y-57800000D03*
X184300000Y-117850000D03*
X161600000Y-123350000D03*
X161600000Y-117850000D03*
X178600000Y-123300000D03*
X178600000Y-118400000D03*
%TO.N,/D1*%
X146100000Y-119100000D03*
X160550000Y-118700000D03*
X133400000Y-76200000D03*
X167250000Y-87050000D03*
X146150000Y-98300000D03*
X134050000Y-98300000D03*
X156550000Y-119100000D03*
X184500000Y-87050000D03*
X167250000Y-118700000D03*
%TO.N,/D5*%
X181050000Y-124350000D03*
X160550000Y-119850000D03*
X181050000Y-119500000D03*
X160550000Y-124350000D03*
%TD*%
D30*
%TO.N,Net-(U3-I6)*%
X134050000Y-79650000D02*
X133650000Y-80050000D01*
X133650000Y-80050000D02*
X133300000Y-80050000D01*
X102700000Y-93950000D02*
X102500000Y-94150000D01*
X137347500Y-78750000D02*
X134400000Y-78750000D01*
X91650000Y-97650000D02*
X91950000Y-97350000D01*
X90600000Y-98550000D02*
X90600000Y-98150000D01*
X92300000Y-94150000D02*
X91950000Y-94500000D01*
X91950000Y-97350000D02*
X91950000Y-95400000D01*
X102900000Y-93350000D02*
X102700000Y-93550000D01*
X102700000Y-93550000D02*
X102700000Y-93950000D01*
X91100000Y-97650000D02*
X91650000Y-97650000D01*
X134050000Y-79100000D02*
X134050000Y-79650000D01*
X125500000Y-92650000D02*
X124800000Y-93350000D01*
X133300000Y-92650000D02*
X125500000Y-92650000D01*
X91950000Y-94500000D02*
X91950000Y-95400000D01*
X90600000Y-98150000D02*
X91100000Y-97650000D01*
X102500000Y-94150000D02*
X92300000Y-94150000D01*
X124800000Y-93350000D02*
X102900000Y-93350000D01*
X134400000Y-78750000D02*
X134050000Y-79100000D01*
%TO.N,Net-(U10-~{CE})*%
X116745000Y-115305000D02*
X118700000Y-115305000D01*
X126350000Y-74300000D02*
X127200000Y-73450000D01*
X116450000Y-115600000D02*
X116745000Y-115305000D01*
X112700000Y-115600000D02*
X116450000Y-115600000D01*
X124940000Y-74610000D02*
X125250000Y-74300000D01*
X127150000Y-64400000D02*
X113250000Y-64400000D01*
X127200000Y-73450000D02*
X127200000Y-73300000D01*
X125250000Y-74300000D02*
X126350000Y-74300000D01*
X124940000Y-74697500D02*
X124940000Y-74610000D01*
%TO.N,Net-(U2-IO1)*%
X162292500Y-74700000D02*
X162290000Y-74697500D01*
X122400000Y-77250000D02*
X122000000Y-77650000D01*
X122000000Y-77650000D02*
X120100000Y-77650000D01*
X141850000Y-77100000D02*
X141400000Y-76650000D01*
X118850000Y-61250000D02*
X144900000Y-61250000D01*
X141400000Y-76650000D02*
X141400000Y-74697500D01*
X144900000Y-61250000D02*
X163850000Y-61250000D01*
X122400000Y-74697500D02*
X122400000Y-77250000D01*
X143800000Y-77100000D02*
X141850000Y-77100000D01*
X163850000Y-74700000D02*
X162292500Y-74700000D01*
%TO.N,/A5*%
X155050000Y-92700000D02*
X148600000Y-92700000D01*
X157420000Y-77480000D02*
X157550000Y-77350000D01*
X157550000Y-77350000D02*
X157700000Y-77200000D01*
X109100000Y-111495000D02*
X113595000Y-111495000D01*
X125980000Y-110230000D02*
X128237500Y-110230000D01*
X161720000Y-110280000D02*
X167437500Y-110280000D01*
X122450000Y-109850000D02*
X122550000Y-109950000D01*
X156000000Y-93400000D02*
X155750000Y-93400000D01*
X126150000Y-93350000D02*
X125750000Y-93750000D01*
X152790000Y-110850000D02*
X152145000Y-111495000D01*
X148600000Y-92700000D02*
X148350000Y-92950000D01*
X125750000Y-93750000D02*
X125400000Y-94100000D01*
X113600000Y-101750000D02*
X122450000Y-101750000D01*
X156100000Y-110850000D02*
X161150000Y-110850000D01*
X161150000Y-110850000D02*
X161720000Y-110280000D01*
X142000000Y-92950000D02*
X141500000Y-92950000D01*
X141500000Y-92950000D02*
X141100000Y-93350000D01*
X156100000Y-110850000D02*
X152790000Y-110850000D01*
X152145000Y-111495000D02*
X148850000Y-111495000D01*
X122550000Y-109950000D02*
X125700000Y-109950000D01*
X113595000Y-111495000D02*
X113600000Y-111500000D01*
X157700000Y-77200000D02*
X157700000Y-76800000D01*
X148350000Y-92950000D02*
X142000000Y-92950000D01*
X125700000Y-109950000D02*
X125980000Y-110230000D01*
X141100000Y-93350000D02*
X126150000Y-93350000D01*
X125400000Y-94100000D02*
X122450000Y-94100000D01*
X155750000Y-93400000D02*
X155050000Y-92700000D01*
X155697500Y-77480000D02*
X157420000Y-77480000D01*
%TO.N,/A8*%
X160050000Y-76500000D02*
X160650000Y-76500000D01*
X159750000Y-74697500D02*
X159750000Y-76200000D01*
X143450000Y-94150000D02*
X147900000Y-94150000D01*
X148850000Y-107685000D02*
X146815000Y-107685000D01*
X127650000Y-103300000D02*
X127850000Y-103500000D01*
X159750000Y-76200000D02*
X160050000Y-76500000D01*
X111050000Y-95100000D02*
X117050000Y-95100000D01*
X165350000Y-94150000D02*
X158650000Y-94150000D01*
X117050000Y-95100000D02*
X127650000Y-95100000D01*
X117050000Y-62500000D02*
X119850000Y-62500000D01*
X165350000Y-106450000D02*
X165370000Y-106470000D01*
X165370000Y-106470000D02*
X167437500Y-106470000D01*
X142500000Y-95100000D02*
X143450000Y-94150000D01*
X127850000Y-105050000D02*
X127850000Y-106032500D01*
X111050000Y-107685000D02*
X109100000Y-107685000D01*
X127850000Y-103500000D02*
X127850000Y-105050000D01*
X127850000Y-106032500D02*
X128237500Y-106420000D01*
X127650000Y-95100000D02*
X142500000Y-95100000D01*
X147900000Y-94150000D02*
X158650000Y-94150000D01*
X146815000Y-107685000D02*
X146800000Y-107700000D01*
%TO.N,/~{IPL2}*%
X107100000Y-43500000D02*
X107100000Y-41950000D01*
X107100000Y-41950000D02*
X107350000Y-41700000D01*
X107100000Y-45500000D02*
X107100000Y-43500000D01*
X124600000Y-41700000D02*
X124900000Y-42000000D01*
X106540000Y-74647500D02*
X106540000Y-72460000D01*
X124900000Y-42000000D02*
X124900000Y-46400000D01*
X107350000Y-41700000D02*
X124600000Y-41700000D01*
X106540000Y-72460000D02*
X106550000Y-72450000D01*
X125650000Y-47150000D02*
X142700000Y-47150000D01*
X106550000Y-46050000D02*
X107100000Y-45500000D01*
X124900000Y-46400000D02*
X125650000Y-47150000D01*
%TO.N,/A15*%
X141400000Y-99150000D02*
X139200000Y-99150000D01*
X193100000Y-87950000D02*
X193100000Y-110900000D01*
X129250000Y-98300000D02*
X107200000Y-98300000D01*
X193100000Y-110900000D02*
X192700000Y-111300000D01*
X192570000Y-79920000D02*
X193100000Y-80450000D01*
X182252500Y-79920000D02*
X192570000Y-79920000D01*
X139200000Y-105200000D02*
X139200000Y-106257500D01*
X168150000Y-99150000D02*
X141400000Y-99150000D01*
X168300000Y-99300000D02*
X168150000Y-99150000D01*
X193100000Y-87950000D02*
X168300000Y-87950000D01*
X180820000Y-106470000D02*
X178562500Y-106470000D01*
X107200000Y-98300000D02*
X107150000Y-98250000D01*
X192700000Y-111300000D02*
X181700000Y-111300000D01*
X181300000Y-106950000D02*
X180820000Y-106470000D01*
X181300000Y-110900000D02*
X181300000Y-106950000D01*
X109095000Y-105150000D02*
X109100000Y-105145000D01*
X139200000Y-99150000D02*
X130100000Y-99150000D01*
X193100000Y-80450000D02*
X193100000Y-87950000D01*
X181700000Y-111300000D02*
X181300000Y-110900000D01*
X107150000Y-105150000D02*
X109095000Y-105150000D01*
X139200000Y-106257500D02*
X139362500Y-106420000D01*
X130100000Y-99150000D02*
X129250000Y-98300000D01*
D31*
%TO.N,GND*%
X118000000Y-54950000D02*
X118490000Y-54460000D01*
X87600000Y-46075000D02*
X87587500Y-46087500D01*
X191750000Y-95600000D02*
X191000000Y-94850000D01*
X118490000Y-54460000D02*
X118490000Y-53575000D01*
X145200000Y-122750000D02*
X144750000Y-123200000D01*
X88400000Y-54950000D02*
X96000000Y-54950000D01*
X183200000Y-109262500D02*
X183512500Y-109262500D01*
X103205000Y-121655000D02*
X102950000Y-121400000D01*
X96100000Y-113200000D02*
X96677500Y-113777500D01*
X87587500Y-46087500D02*
X87587500Y-48600000D01*
X158450000Y-82772500D02*
X158480000Y-82802500D01*
X102800000Y-88650000D02*
X102730000Y-88580000D01*
X139650000Y-85000000D02*
X121650000Y-85000000D01*
X157862500Y-70600000D02*
X157912500Y-70650000D01*
X87450000Y-104650000D02*
X91520000Y-104650000D01*
X96100000Y-88700000D02*
X96150000Y-88650000D01*
X191000000Y-94850000D02*
X173500000Y-94850000D01*
X190850000Y-110000000D02*
X191750000Y-109100000D01*
X158750000Y-79800000D02*
X158450000Y-80100000D01*
X96677500Y-113777500D02*
X96677500Y-115377500D01*
X102727500Y-120377500D02*
X96677500Y-120377500D01*
X132500000Y-118367500D02*
X132530000Y-118337500D01*
X158450000Y-80100000D02*
X158450000Y-82772500D01*
X163700000Y-86150000D02*
X163700000Y-85150000D01*
X176250000Y-84650000D02*
X176930000Y-83970000D01*
X118650000Y-88650000D02*
X102800000Y-88650000D01*
X102730000Y-88580000D02*
X102730000Y-82752500D01*
X156300000Y-70600000D02*
X157862500Y-70600000D01*
X96677500Y-115377500D02*
X101735000Y-115377500D01*
X112140000Y-53575000D02*
X112140000Y-54940000D01*
X109100000Y-123050000D02*
X109100000Y-121655000D01*
X171730000Y-114920000D02*
X171730000Y-118387500D01*
X121130000Y-84480000D02*
X121130000Y-82802500D01*
X179500000Y-52250000D02*
X158750000Y-52250000D01*
X90600000Y-39120000D02*
X88060000Y-39120000D01*
X145645000Y-121655000D02*
X145200000Y-122100000D01*
X120100000Y-80900000D02*
X120100000Y-78850000D01*
X176930000Y-83970000D02*
X176930000Y-82702500D01*
X145200000Y-122100000D02*
X145200000Y-122750000D01*
X109100000Y-121655000D02*
X103205000Y-121655000D01*
X140130000Y-82802500D02*
X140130000Y-84520000D01*
X88060000Y-39120000D02*
X88060000Y-44200000D01*
X87587500Y-48600000D02*
X87587500Y-54137500D01*
X102950000Y-121400000D02*
X102950000Y-120600000D01*
X102660000Y-88650000D02*
X102730000Y-88580000D01*
X186650000Y-110000000D02*
X190850000Y-110000000D01*
X102950000Y-120600000D02*
X102727500Y-120377500D01*
X121130000Y-81930000D02*
X120100000Y-80900000D01*
X173500000Y-84650000D02*
X176250000Y-84650000D01*
X121650000Y-85000000D02*
X121130000Y-84480000D01*
X87587500Y-54137500D02*
X88400000Y-54950000D01*
X118700000Y-88600000D02*
X118650000Y-88650000D01*
X121130000Y-82802500D02*
X121130000Y-81930000D01*
X158750000Y-86550000D02*
X163300000Y-86550000D01*
X101735000Y-115377500D02*
X102400000Y-114712500D01*
X183512500Y-109262500D02*
X184250000Y-110000000D01*
X96000000Y-54950000D02*
X112150000Y-54950000D01*
X112150000Y-54950000D02*
X118000000Y-54950000D01*
X163300000Y-86550000D02*
X163700000Y-86150000D01*
X112140000Y-54940000D02*
X112150000Y-54950000D01*
X87400000Y-113300000D02*
X96000000Y-113300000D01*
X164200000Y-84650000D02*
X173500000Y-84650000D01*
X173350000Y-114550000D02*
X172100000Y-114550000D01*
X90600000Y-39120000D02*
X90600000Y-44200000D01*
X88060000Y-44200000D02*
X87600000Y-44660000D01*
X87600000Y-44660000D02*
X87600000Y-46075000D01*
X91520000Y-104650000D02*
X91525000Y-104645000D01*
X172100000Y-114550000D02*
X171730000Y-114920000D01*
X140130000Y-84520000D02*
X139650000Y-85000000D01*
X96000000Y-113300000D02*
X96100000Y-113200000D01*
X148850000Y-121655000D02*
X145645000Y-121655000D01*
X132500000Y-125900000D02*
X109100000Y-125900000D01*
X163700000Y-85150000D02*
X164200000Y-84650000D01*
X96150000Y-88650000D02*
X102660000Y-88650000D01*
X144750000Y-123200000D02*
X132500000Y-123200000D01*
X191750000Y-109100000D02*
X191750000Y-95600000D01*
X184250000Y-110000000D02*
X186650000Y-110000000D01*
X132500000Y-120650000D02*
X132500000Y-118367500D01*
%TO.N,+5V*%
X107650000Y-56400000D02*
X97950000Y-56400000D01*
X119760000Y-56000000D02*
X119100000Y-56000000D01*
X123670000Y-74697500D02*
X123670000Y-72580000D01*
X182600000Y-102800000D02*
X183200000Y-102200000D01*
X161020000Y-74697500D02*
X161020000Y-72530000D01*
X149800000Y-55150000D02*
X150150000Y-54800000D01*
X119100000Y-56000000D02*
X118700000Y-56400000D01*
D30*
X91500000Y-93850000D02*
X91950000Y-93400000D01*
D31*
X97880000Y-74280000D02*
X92600000Y-74280000D01*
X91525000Y-108455000D02*
X91525000Y-109375000D01*
X119100000Y-100050000D02*
X134800000Y-100050000D01*
X161050000Y-72500000D02*
X179250000Y-72500000D01*
X117800000Y-56400000D02*
X107650000Y-56400000D01*
X150150000Y-54800000D02*
X150450000Y-55100000D01*
X188550000Y-106950000D02*
X184012500Y-106950000D01*
X105270000Y-74647500D02*
X105270000Y-71980000D01*
X156500000Y-105650000D02*
X157000000Y-105150000D01*
X154750000Y-72500000D02*
X161050000Y-72500000D01*
X158450000Y-107685000D02*
X156835000Y-107685000D01*
X179250000Y-72500000D02*
X179470000Y-72720000D01*
X157000000Y-105150000D02*
X158445000Y-105150000D01*
X156500000Y-107350000D02*
X156500000Y-105650000D01*
X119760000Y-53575000D02*
X119760000Y-55000000D01*
X102400000Y-109950000D02*
X102400000Y-111587500D01*
X134800000Y-102700000D02*
X135100000Y-103000000D01*
X158445000Y-105150000D02*
X158450000Y-105145000D01*
X101700000Y-104600000D02*
X101655000Y-104645000D01*
X184012500Y-106950000D02*
X183200000Y-106137500D01*
X142670000Y-72530000D02*
X142700000Y-72500000D01*
X133800000Y-104662500D02*
X135070000Y-104662500D01*
X105800000Y-71450000D02*
X107650000Y-71450000D01*
X178900000Y-93350000D02*
X182800000Y-93350000D01*
X101655000Y-104645000D02*
X96475000Y-104645000D01*
X183200000Y-106137500D02*
X183200000Y-102200000D01*
X174700000Y-102800000D02*
X174270000Y-103230000D01*
X142700000Y-72500000D02*
X154750000Y-72500000D01*
X90762500Y-48650000D02*
X90712500Y-48600000D01*
X101700000Y-109700000D02*
X102150000Y-109700000D01*
X105700000Y-104050000D02*
X105150000Y-104600000D01*
X102150000Y-109700000D02*
X102400000Y-109950000D01*
X154787500Y-72462500D02*
X154750000Y-72500000D01*
X174270000Y-103230000D02*
X174270000Y-104712500D01*
X105270000Y-71980000D02*
X105800000Y-71450000D01*
X160550000Y-105150000D02*
X158455000Y-105150000D01*
X119910000Y-55150000D02*
X149800000Y-55150000D01*
X91525000Y-109375000D02*
X91850000Y-109700000D01*
X158650000Y-100050000D02*
X134800000Y-100050000D01*
X123670000Y-72580000D02*
X123750000Y-72500000D01*
X118700000Y-56400000D02*
X118490000Y-56610000D01*
X91950000Y-93400000D02*
X91950000Y-92300000D01*
X176150000Y-100050000D02*
X158650000Y-100050000D01*
X142670000Y-74697500D02*
X142670000Y-72530000D01*
X176300000Y-102800000D02*
X174700000Y-102800000D01*
X117850000Y-72500000D02*
X123750000Y-72500000D01*
X154787500Y-70650000D02*
X154787500Y-72462500D01*
X179470000Y-72720000D02*
X179470000Y-74597500D01*
X158455000Y-105150000D02*
X158450000Y-105145000D01*
D30*
X88100000Y-95400000D02*
X88100000Y-94600000D01*
D31*
X118950000Y-104895000D02*
X118700000Y-105145000D01*
X176250000Y-100150000D02*
X176150000Y-100050000D01*
X161020000Y-72530000D02*
X161050000Y-72500000D01*
X101750000Y-93550000D02*
X92100000Y-93550000D01*
X105150000Y-104600000D02*
X101700000Y-104600000D01*
X119760000Y-55000000D02*
X119760000Y-56000000D01*
X178850000Y-102800000D02*
X182600000Y-102800000D01*
X153750000Y-55100000D02*
X154050000Y-54800000D01*
X156835000Y-107685000D02*
X156500000Y-107350000D01*
X118950000Y-104050000D02*
X118950000Y-104895000D01*
D30*
X88100000Y-94600000D02*
X88850000Y-93850000D01*
D31*
X92600000Y-74280000D02*
X88900000Y-74280000D01*
X118700000Y-56400000D02*
X117800000Y-56400000D01*
X123750000Y-72500000D02*
X142700000Y-72500000D01*
X174270000Y-104712500D02*
X173000000Y-104712500D01*
X119760000Y-56000000D02*
X119760000Y-58525000D01*
X118950000Y-104050000D02*
X105700000Y-104050000D01*
X182800000Y-93350000D02*
X183300000Y-92850000D01*
X118490000Y-56610000D02*
X118490000Y-58525000D01*
X176300000Y-102800000D02*
X178850000Y-102800000D01*
X150450000Y-55100000D02*
X153750000Y-55100000D01*
X94400000Y-48650000D02*
X90762500Y-48650000D01*
X91850000Y-109700000D02*
X101700000Y-109700000D01*
X92100000Y-93550000D02*
X91950000Y-93400000D01*
X119760000Y-55000000D02*
X119910000Y-55150000D01*
D30*
X88850000Y-93850000D02*
X91500000Y-93850000D01*
D31*
X135100000Y-104632500D02*
X135070000Y-104662500D01*
X135100000Y-103000000D02*
X135100000Y-104632500D01*
D30*
%TO.N,/~{OE}*%
X138850000Y-82792500D02*
X138860000Y-82802500D01*
X105270000Y-82752500D02*
X105270000Y-86520000D01*
X155335000Y-112765000D02*
X158450000Y-112765000D01*
X162135000Y-112765000D02*
X162700000Y-112200000D01*
X146100000Y-113400000D02*
X154700000Y-113400000D01*
X116250000Y-87000000D02*
X123450000Y-87000000D01*
X116300000Y-112765000D02*
X118700000Y-112765000D01*
X105270000Y-86520000D02*
X105750000Y-87000000D01*
X123450000Y-87000000D02*
X123850000Y-87400000D01*
X169570000Y-112820000D02*
X178562500Y-112820000D01*
X138850000Y-81300000D02*
X138850000Y-82792500D01*
X105750000Y-87000000D02*
X116250000Y-87000000D01*
X168950000Y-112200000D02*
X169570000Y-112820000D01*
X162700000Y-112200000D02*
X168950000Y-112200000D01*
X139342500Y-112750000D02*
X139362500Y-112770000D01*
X137550000Y-112750000D02*
X139342500Y-112750000D01*
X158450000Y-112765000D02*
X162135000Y-112765000D01*
X138860000Y-82802500D02*
X138860000Y-83340000D01*
X124200000Y-88300000D02*
X125350000Y-88300000D01*
X125350000Y-88300000D02*
X138850000Y-88300000D01*
X123850000Y-87950000D02*
X124200000Y-88300000D01*
X116300000Y-78750000D02*
X118347500Y-78750000D01*
X123850000Y-87400000D02*
X123850000Y-87950000D01*
X138860000Y-83340000D02*
X138550000Y-83650000D01*
X139362500Y-112770000D02*
X145470000Y-112770000D01*
X138550000Y-83650000D02*
X137850000Y-83650000D01*
X154700000Y-113400000D02*
X155335000Y-112765000D01*
X145470000Y-112770000D02*
X146100000Y-113400000D01*
%TO.N,Net-(U4-IO4)*%
X156205000Y-115305000D02*
X158450000Y-115305000D01*
X156200000Y-115300000D02*
X156205000Y-115305000D01*
X153500000Y-86600000D02*
X156750000Y-86600000D01*
X126452500Y-78750000D02*
X130400000Y-78750000D01*
X130750000Y-64600000D02*
X153500000Y-64600000D01*
%TO.N,Net-(U4-IO5)*%
X134050000Y-113900000D02*
X134300000Y-114150000D01*
X134300000Y-114150000D02*
X134300000Y-114750000D01*
X126452500Y-80020000D02*
X129980000Y-80020000D01*
X134650000Y-115100000D02*
X139152500Y-115100000D01*
X129950000Y-113900000D02*
X134050000Y-113900000D01*
X134300000Y-114750000D02*
X134650000Y-115100000D01*
X129980000Y-80020000D02*
X130000000Y-80000000D01*
X139152500Y-115100000D02*
X139362500Y-115310000D01*
%TO.N,/A1*%
X165950000Y-80350000D02*
X165950000Y-83300000D01*
X111400000Y-115350000D02*
X112100000Y-114650000D01*
X148825000Y-116600000D02*
X148850000Y-116575000D01*
X165620000Y-80020000D02*
X165950000Y-80350000D01*
X165650000Y-83600000D02*
X163750000Y-83600000D01*
X123300000Y-114650000D02*
X123960000Y-115310000D01*
X160450000Y-115350000D02*
X159850000Y-115950000D01*
X163750000Y-115350000D02*
X163760000Y-115360000D01*
X111400000Y-116150000D02*
X111400000Y-115350000D01*
X163760000Y-115360000D02*
X167437500Y-115360000D01*
X153350000Y-115950000D02*
X152725000Y-116575000D01*
X123960000Y-115310000D02*
X125890000Y-115310000D01*
X125910000Y-115310000D02*
X128237500Y-115310000D01*
X110975000Y-116575000D02*
X111400000Y-116150000D01*
X147000000Y-116600000D02*
X148825000Y-116600000D01*
X125900000Y-115300000D02*
X125910000Y-115310000D01*
X165950000Y-83300000D02*
X165650000Y-83600000D01*
X163802500Y-80020000D02*
X165620000Y-80020000D01*
X163750000Y-115350000D02*
X160450000Y-115350000D01*
X159850000Y-115950000D02*
X153350000Y-115950000D01*
X125890000Y-115310000D02*
X125900000Y-115300000D01*
X112100000Y-114650000D02*
X123300000Y-114650000D01*
X126350000Y-124700000D02*
X147000000Y-124700000D01*
X152725000Y-116575000D02*
X148850000Y-116575000D01*
X109100000Y-116575000D02*
X110975000Y-116575000D01*
%TO.N,Net-(U4-IO8)*%
X179800000Y-97000000D02*
X180050000Y-97250000D01*
X181300000Y-115350000D02*
X181290000Y-115360000D01*
X180150000Y-97850000D02*
X181300000Y-97850000D01*
X123670000Y-82802500D02*
X123670000Y-80070000D01*
X123250000Y-79650000D02*
X122050000Y-79650000D01*
X161700000Y-95900000D02*
X161850000Y-96050000D01*
X180050000Y-97250000D02*
X180050000Y-97750000D01*
X161850000Y-96800000D02*
X162050000Y-97000000D01*
X162050000Y-97000000D02*
X179800000Y-97000000D01*
X161850000Y-96050000D02*
X161850000Y-96800000D01*
X121700000Y-95900000D02*
X161700000Y-95900000D01*
X123670000Y-80070000D02*
X123250000Y-79650000D01*
X180050000Y-97750000D02*
X180150000Y-97850000D01*
X181290000Y-115360000D02*
X178562500Y-115360000D01*
%TO.N,/A16*%
X167350000Y-62300000D02*
X143250000Y-62300000D01*
X143250000Y-62300000D02*
X134300000Y-62300000D01*
X133500000Y-102700000D02*
X131450000Y-102700000D01*
X174147500Y-78650000D02*
X169350000Y-78650000D01*
X170150000Y-102750000D02*
X170460000Y-103060000D01*
X169350000Y-78650000D02*
X169350000Y-80000000D01*
X169350000Y-102750000D02*
X170150000Y-102750000D01*
X131260000Y-102890000D02*
X131260000Y-104662500D01*
X169350000Y-78650000D02*
X167350000Y-78650000D01*
X170460000Y-103060000D02*
X170460000Y-104712500D01*
X131450000Y-102700000D02*
X131260000Y-102890000D01*
%TO.N,Net-(U2-I8)*%
X155300000Y-82050000D02*
X155697500Y-81652500D01*
X125800000Y-83600000D02*
X126050000Y-83850000D01*
X124940000Y-82802500D02*
X124940000Y-83490000D01*
X126050000Y-87100000D02*
X126100000Y-87150000D01*
X124940000Y-83490000D02*
X125050000Y-83600000D01*
X125050000Y-83600000D02*
X125800000Y-83600000D01*
X155697500Y-81652500D02*
X155697500Y-81290000D01*
X126050000Y-83850000D02*
X126050000Y-84050000D01*
X147800000Y-82050000D02*
X155300000Y-82050000D01*
X126100000Y-87150000D02*
X147800000Y-87150000D01*
%TO.N,Net-(U2-I9)*%
X154150000Y-83550000D02*
X156650000Y-83550000D01*
X146650000Y-83150000D02*
X153750000Y-83150000D01*
X127990000Y-81290000D02*
X128250000Y-81550000D01*
X128350000Y-91500000D02*
X146600000Y-91500000D01*
X128350000Y-81650000D02*
X128350000Y-81950000D01*
X126452500Y-81290000D02*
X127990000Y-81290000D01*
X153750000Y-83150000D02*
X154150000Y-83550000D01*
X157210000Y-82990000D02*
X157210000Y-82802500D01*
X156650000Y-83550000D02*
X157210000Y-82990000D01*
X128250000Y-81550000D02*
X128350000Y-81650000D01*
%TO.N,Net-(U3-IO4)*%
X140350000Y-88900000D02*
X140050000Y-89200000D01*
X140050000Y-89200000D02*
X122150000Y-89200000D01*
X143750000Y-78750000D02*
X145452500Y-78750000D01*
X121650000Y-87800000D02*
X121700000Y-87750000D01*
X140750000Y-87900000D02*
X140350000Y-88300000D01*
X121700000Y-81300000D02*
X122150000Y-81300000D01*
X104000000Y-82752500D02*
X104000000Y-87050000D01*
X121700000Y-88750000D02*
X121700000Y-87750000D01*
X122150000Y-81300000D02*
X122400000Y-81550000D01*
X140350000Y-88300000D02*
X140350000Y-88900000D01*
X144500000Y-87900000D02*
X140750000Y-87900000D01*
X122400000Y-81550000D02*
X122400000Y-82802500D01*
X104000000Y-87050000D02*
X104750000Y-87800000D01*
X122150000Y-89200000D02*
X121700000Y-88750000D01*
X104750000Y-87800000D02*
X121650000Y-87800000D01*
%TO.N,/A9*%
X177900000Y-80950000D02*
X178200000Y-81250000D01*
X160345000Y-108955000D02*
X158450000Y-108955000D01*
X158450000Y-108955000D02*
X151595000Y-108955000D01*
X176700000Y-109000000D02*
X170300000Y-109000000D01*
X118700000Y-108955000D02*
X117005000Y-108955000D01*
X176700000Y-109000000D02*
X178552500Y-109000000D01*
X141650000Y-109000000D02*
X141610000Y-108960000D01*
X170300000Y-109000000D02*
X169700000Y-108400000D01*
X141690000Y-108960000D02*
X141650000Y-109000000D01*
X178552500Y-109000000D02*
X178562500Y-109010000D01*
X123100000Y-108150000D02*
X123500000Y-107750000D01*
X169700000Y-108400000D02*
X160900000Y-108400000D01*
X118700000Y-108955000D02*
X122795000Y-108955000D01*
X117005000Y-108955000D02*
X117000000Y-108950000D01*
X160900000Y-108400000D02*
X160345000Y-108955000D01*
X123500000Y-107750000D02*
X124950000Y-107750000D01*
X177400000Y-80950000D02*
X177900000Y-80950000D01*
X178200000Y-81250000D02*
X178200000Y-82702500D01*
X118700000Y-129250000D02*
X141650000Y-129250000D01*
X123050000Y-108200000D02*
X123100000Y-108150000D01*
X151595000Y-108955000D02*
X150950000Y-109600000D01*
X122795000Y-108955000D02*
X123050000Y-108700000D01*
X147350000Y-109600000D02*
X146710000Y-108960000D01*
X146710000Y-108960000D02*
X141690000Y-108960000D01*
X141610000Y-108960000D02*
X139362500Y-108960000D01*
X150950000Y-109600000D02*
X147350000Y-109600000D01*
X123050000Y-108700000D02*
X123050000Y-108200000D01*
%TO.N,Net-(U2-IO7)*%
X120100000Y-66350000D02*
X140400000Y-66350000D01*
X140400000Y-80250000D02*
X140950000Y-80800000D01*
X143700000Y-86200000D02*
X146900000Y-86200000D01*
X161850000Y-85650000D02*
X162290000Y-85210000D01*
X121130000Y-74697500D02*
X121130000Y-76170000D01*
X140950000Y-80800000D02*
X143700000Y-80800000D01*
X146900000Y-86200000D02*
X147450000Y-85650000D01*
X140130000Y-76480000D02*
X140130000Y-74697500D01*
X121130000Y-76170000D02*
X120850000Y-76450000D01*
X147450000Y-85650000D02*
X161850000Y-85650000D01*
X120850000Y-76450000D02*
X120100000Y-76450000D01*
X140400000Y-76750000D02*
X140130000Y-76480000D01*
X140400000Y-76750000D02*
X140400000Y-80250000D01*
X162290000Y-85210000D02*
X162290000Y-82802500D01*
%TO.N,Net-(U2-IO8)*%
X117350000Y-74250000D02*
X117000000Y-74250000D01*
X137800000Y-71450000D02*
X150100000Y-71450000D01*
X116900000Y-71450000D02*
X137800000Y-71450000D01*
X119860000Y-74510000D02*
X119600000Y-74250000D01*
X119600000Y-74250000D02*
X117350000Y-74250000D01*
X117000000Y-74250000D02*
X116650000Y-73900000D01*
X137800000Y-73900000D02*
X138450000Y-73900000D01*
X116650000Y-73900000D02*
X116650000Y-71700000D01*
X116650000Y-71700000D02*
X116900000Y-71450000D01*
X160800000Y-84900000D02*
X161020000Y-84680000D01*
X138860000Y-74310000D02*
X138860000Y-74697500D01*
X119860000Y-74697500D02*
X119860000Y-74510000D01*
X161020000Y-84680000D02*
X161020000Y-82802500D01*
X150100000Y-84900000D02*
X160800000Y-84900000D01*
X138450000Y-73900000D02*
X138860000Y-74310000D01*
%TO.N,Net-(U3-IO2)*%
X115950000Y-70600000D02*
X146700000Y-70600000D01*
X146700000Y-75100000D02*
X146700000Y-76100000D01*
X116160000Y-76210000D02*
X115600000Y-75650000D01*
X146700000Y-76100000D02*
X146590000Y-76210000D01*
X115600000Y-70950000D02*
X115950000Y-70600000D01*
X146590000Y-76210000D02*
X145452500Y-76210000D01*
X118347500Y-76210000D02*
X116160000Y-76210000D01*
X115600000Y-71150000D02*
X115600000Y-70950000D01*
X115600000Y-75650000D02*
X115600000Y-71150000D01*
%TO.N,Net-(U3-I03)*%
X114400000Y-70250000D02*
X114800000Y-69850000D01*
X152500000Y-77500000D02*
X145472500Y-77500000D01*
X114630000Y-77480000D02*
X114400000Y-77250000D01*
X118347500Y-77480000D02*
X114630000Y-77480000D01*
X114400000Y-77250000D02*
X114400000Y-70250000D01*
X114800000Y-69850000D02*
X152550000Y-69850000D01*
X145472500Y-77500000D02*
X145452500Y-77480000D01*
%TO.N,Net-(U3-I5)*%
X109500000Y-65400000D02*
X134350000Y-65400000D01*
X106950000Y-85200000D02*
X109500000Y-85200000D01*
X135870000Y-77480000D02*
X137347500Y-77480000D01*
X134350000Y-77700000D02*
X135650000Y-77700000D01*
X106540000Y-84790000D02*
X106950000Y-85200000D01*
X135650000Y-77700000D02*
X135870000Y-77480000D01*
X106540000Y-82752500D02*
X106540000Y-84790000D01*
%TO.N,Net-(U2-IO6)*%
X164850000Y-82500000D02*
X164850000Y-81350000D01*
X164850000Y-81350000D02*
X164790000Y-81290000D01*
X164790000Y-81290000D02*
X163802500Y-81290000D01*
X137200000Y-59850000D02*
X164850000Y-59850000D01*
X137450000Y-82700000D02*
X137450000Y-81392500D01*
X137450000Y-81392500D02*
X137347500Y-81290000D01*
%TO.N,Net-(U3-IO5)*%
X100250000Y-75700000D02*
X99947500Y-76002500D01*
X147850000Y-67950000D02*
X144250000Y-67950000D01*
X100250000Y-69500000D02*
X100250000Y-75700000D01*
X100800000Y-68950000D02*
X100250000Y-69500000D01*
X147850000Y-80020000D02*
X145452500Y-80020000D01*
X99947500Y-76002500D02*
X99947500Y-76160000D01*
X144250000Y-67950000D02*
X143250000Y-68950000D01*
X143250000Y-68950000D02*
X100800000Y-68950000D01*
%TO.N,/~{FC0}*%
X135380000Y-80020000D02*
X135000000Y-80400000D01*
X135000000Y-82550000D02*
X134700000Y-82850000D01*
X137347500Y-80020000D02*
X135380000Y-80020000D01*
X135000000Y-80400000D02*
X135000000Y-82350000D01*
X134700000Y-82850000D02*
X126050000Y-82850000D01*
X135000000Y-82350000D02*
X135000000Y-82550000D01*
%TO.N,/A17*%
X180550000Y-109050000D02*
X179900000Y-108400000D01*
X193175000Y-78650000D02*
X193700000Y-79175000D01*
X148700000Y-103350000D02*
X150200000Y-101850000D01*
X179900000Y-108400000D02*
X172200000Y-108400000D01*
X142750000Y-103850000D02*
X143250000Y-103350000D01*
X171400000Y-101850000D02*
X171730000Y-102180000D01*
X184150000Y-65300000D02*
X184450000Y-65600000D01*
X143250000Y-103350000D02*
X148700000Y-103350000D01*
X172200000Y-108400000D02*
X171730000Y-107930000D01*
X137050000Y-107050000D02*
X142300000Y-107050000D01*
X193700000Y-79175000D02*
X193700000Y-111350000D01*
X132530000Y-104662500D02*
X132530000Y-106380000D01*
X186200000Y-69550000D02*
X186450000Y-69800000D01*
X182252500Y-78650000D02*
X186450000Y-78650000D01*
X132900000Y-106750000D02*
X136750000Y-106750000D01*
X150200000Y-101850000D02*
X171400000Y-101850000D01*
X171730000Y-107930000D02*
X171730000Y-104712500D01*
X142300000Y-107050000D02*
X142750000Y-106600000D01*
X146450000Y-65300000D02*
X184150000Y-65300000D01*
X180550000Y-111550000D02*
X180550000Y-109050000D01*
X186450000Y-69800000D02*
X186450000Y-78650000D01*
X193700000Y-111350000D02*
X193050000Y-112000000D01*
X184450000Y-69150000D02*
X184850000Y-69550000D01*
X193050000Y-112000000D02*
X181000000Y-112000000D01*
X171730000Y-102180000D02*
X171730000Y-104712500D01*
X132530000Y-106380000D02*
X132900000Y-106750000D01*
X184450000Y-65600000D02*
X184450000Y-69150000D01*
X184850000Y-69550000D02*
X186200000Y-69550000D01*
X181000000Y-112000000D02*
X180550000Y-111550000D01*
X186450000Y-78650000D02*
X193175000Y-78650000D01*
X142750000Y-106600000D02*
X142750000Y-103850000D01*
X136750000Y-106750000D02*
X137050000Y-107050000D01*
%TO.N,Net-(U1-IO8)*%
X179050000Y-85600000D02*
X179470000Y-85180000D01*
X163802500Y-76210000D02*
X168240000Y-76210000D01*
X168250000Y-85600000D02*
X179050000Y-85600000D01*
X179470000Y-85180000D02*
X179470000Y-82702500D01*
X168240000Y-76210000D02*
X168250000Y-76200000D01*
%TO.N,Net-(U1-IO2)*%
X163802500Y-77480000D02*
X168980000Y-77480000D01*
X181900000Y-70650000D02*
X182250000Y-71000000D01*
X182250000Y-71000000D02*
X182250000Y-76107500D01*
X168980000Y-77480000D02*
X169000000Y-77500000D01*
X169000000Y-70650000D02*
X181900000Y-70650000D01*
X182250000Y-76107500D02*
X182252500Y-76110000D01*
%TO.N,/A18*%
X174147500Y-77380000D02*
X170820000Y-77380000D01*
X170820000Y-77380000D02*
X170800000Y-77400000D01*
X152800000Y-63350000D02*
X152850000Y-63400000D01*
X152850000Y-63400000D02*
X170800000Y-63400000D01*
%TO.N,Net-(U1-IO1)*%
X180740000Y-71890000D02*
X180740000Y-74597500D01*
X180450000Y-71600000D02*
X180740000Y-71890000D01*
X165850000Y-71050000D02*
X167250000Y-71050000D01*
X167250000Y-71050000D02*
X167800000Y-71600000D01*
X167800000Y-71600000D02*
X180450000Y-71600000D01*
X163802500Y-78750000D02*
X165850000Y-78750000D01*
%TO.N,Net-(Q1-G)*%
X99200000Y-68500000D02*
X99200000Y-71150000D01*
X99200000Y-71150000D02*
X98610000Y-71740000D01*
X92600000Y-71740000D02*
X88900000Y-71740000D01*
X114500000Y-52000000D02*
X114650000Y-52150000D01*
X114650000Y-52300000D02*
X114680000Y-52330000D01*
X99600000Y-68100000D02*
X99200000Y-68500000D01*
X101460000Y-71710000D02*
X101450000Y-71700000D01*
X114650000Y-52150000D02*
X114650000Y-52300000D01*
X114680000Y-52330000D02*
X114680000Y-53575000D01*
X101450000Y-52000000D02*
X114500000Y-52000000D01*
X101450000Y-68100000D02*
X99600000Y-68100000D01*
X101460000Y-74647500D02*
X101460000Y-71710000D01*
X98610000Y-71740000D02*
X92600000Y-71740000D01*
%TO.N,Net-(D1-K)*%
X105900000Y-89950000D02*
X181300000Y-89950000D01*
X183200000Y-97400000D02*
X183200000Y-99100000D01*
X185750000Y-92700000D02*
X188850000Y-92700000D01*
X182600000Y-96800000D02*
X183200000Y-97400000D01*
X183200000Y-99100000D02*
X185750000Y-99100000D01*
X188450000Y-99100000D02*
X188500000Y-99150000D01*
X181300000Y-96800000D02*
X182600000Y-96800000D01*
X185750000Y-99100000D02*
X188450000Y-99100000D01*
X99947500Y-78700000D02*
X105900000Y-78700000D01*
%TO.N,/A19*%
X184800000Y-70400000D02*
X185050000Y-70650000D01*
X155400000Y-66200000D02*
X182850000Y-66200000D01*
X185050000Y-77000000D02*
X184670000Y-77380000D01*
X185050000Y-70650000D02*
X185050000Y-77000000D01*
X184670000Y-77380000D02*
X182252500Y-77380000D01*
X183650000Y-70400000D02*
X184800000Y-70400000D01*
X183250000Y-70000000D02*
X183650000Y-70400000D01*
X182850000Y-66200000D02*
X183250000Y-66600000D01*
X183250000Y-66600000D02*
X183250000Y-70000000D01*
%TO.N,/A10*%
X125900000Y-110850000D02*
X130450000Y-110850000D01*
X120850000Y-110200000D02*
X121300000Y-110650000D01*
X161500000Y-109650000D02*
X160925000Y-110225000D01*
X150500000Y-110850000D02*
X150745000Y-111095000D01*
X176225000Y-80925000D02*
X175660000Y-81490000D01*
X118700000Y-110225000D02*
X120825000Y-110225000D01*
X152575000Y-110225000D02*
X158450000Y-110225000D01*
X170100000Y-110250000D02*
X169500000Y-109650000D01*
X175150000Y-110250000D02*
X175200000Y-110300000D01*
X125700000Y-110650000D02*
X125900000Y-110850000D01*
X169500000Y-109650000D02*
X161500000Y-109650000D01*
X175150000Y-110250000D02*
X170100000Y-110250000D01*
X121300000Y-110650000D02*
X125700000Y-110650000D01*
X126900000Y-91750000D02*
X124400000Y-91750000D01*
X151705000Y-111095000D02*
X152575000Y-110225000D01*
X120825000Y-110225000D02*
X120850000Y-110200000D01*
X130450000Y-110850000D02*
X131070000Y-110230000D01*
X175200000Y-110300000D02*
X178542500Y-110300000D01*
X146130000Y-110230000D02*
X146750000Y-110850000D01*
X160925000Y-110225000D02*
X158450000Y-110225000D01*
X139362500Y-110230000D02*
X146130000Y-110230000D01*
X175660000Y-81490000D02*
X175660000Y-82702500D01*
X150745000Y-111095000D02*
X151705000Y-111095000D01*
X123850000Y-92300000D02*
X120850000Y-92300000D01*
X146750000Y-110850000D02*
X150500000Y-110850000D01*
X131070000Y-110230000D02*
X139362500Y-110230000D01*
X178542500Y-110300000D02*
X178562500Y-110280000D01*
X124400000Y-91750000D02*
X123850000Y-92300000D01*
%TO.N,/~{FC1}*%
X159750000Y-82802500D02*
X159750000Y-80650000D01*
X159750000Y-67050000D02*
X127900000Y-67050000D01*
%TO.N,Net-(U5-I7)*%
X109100000Y-60200000D02*
X113100000Y-60200000D01*
X97050000Y-60200000D02*
X109100000Y-60200000D01*
X113410000Y-59740000D02*
X113410000Y-58525000D01*
X113400000Y-59900000D02*
X113400000Y-59750000D01*
X117200000Y-51600000D02*
X117200000Y-53555000D01*
X113100000Y-60200000D02*
X113400000Y-59900000D01*
X109100000Y-48950000D02*
X117200000Y-48950000D01*
X99947500Y-79970000D02*
X97080000Y-79970000D01*
X113400000Y-59750000D02*
X113410000Y-59740000D01*
X117200000Y-53555000D02*
X117220000Y-53575000D01*
X97080000Y-79970000D02*
X97050000Y-80000000D01*
%TO.N,Net-(U5-IO5)*%
X108052500Y-79970000D02*
X112480000Y-79970000D01*
X114300000Y-60950000D02*
X114680000Y-60570000D01*
X112480000Y-79970000D02*
X112500000Y-79950000D01*
X114680000Y-60570000D02*
X114680000Y-58525000D01*
X115700000Y-51450000D02*
X115950000Y-51700000D01*
X115950000Y-51700000D02*
X115950000Y-53575000D01*
X114300000Y-60950000D02*
X115300000Y-60950000D01*
X112500000Y-60950000D02*
X114300000Y-60950000D01*
X115300000Y-51450000D02*
X115700000Y-51450000D01*
%TO.N,Net-(U5-IO6)*%
X115950000Y-61400000D02*
X115950000Y-58525000D01*
X115450000Y-61900000D02*
X115950000Y-61400000D01*
X108052500Y-81240000D02*
X108390000Y-81240000D01*
X108390000Y-81240000D02*
X108700000Y-81550000D01*
X108700000Y-81550000D02*
X108700000Y-83150000D01*
X108700000Y-61900000D02*
X115450000Y-61900000D01*
%TO.N,/A11*%
X190850000Y-114100000D02*
X190500000Y-114100000D01*
X162850000Y-97850000D02*
X175250000Y-97850000D01*
X146950000Y-97550000D02*
X158950000Y-97550000D01*
X118700000Y-114035000D02*
X117085000Y-114035000D01*
X162850000Y-114000000D02*
X162815000Y-114035000D01*
X142200000Y-86400000D02*
X142300000Y-86300000D01*
X143250000Y-114050000D02*
X143240000Y-114040000D01*
X139362500Y-114040000D02*
X139390000Y-114040000D01*
X159250000Y-97850000D02*
X162850000Y-97850000D01*
X137250000Y-86400000D02*
X142200000Y-86400000D01*
X158950000Y-97550000D02*
X159250000Y-97850000D01*
X180740000Y-82702500D02*
X180740000Y-84290000D01*
X116750000Y-113700000D02*
X113650000Y-113700000D01*
X130000000Y-49100000D02*
X142400000Y-49100000D01*
X162815000Y-114035000D02*
X158450000Y-114035000D01*
X136450000Y-113800000D02*
X136450000Y-112750000D01*
X137150000Y-86500000D02*
X137250000Y-86400000D01*
X175250000Y-97850000D02*
X175350000Y-97750000D01*
X190500000Y-114100000D02*
X190490000Y-114090000D01*
X139390000Y-114040000D02*
X136690000Y-114040000D01*
X137150000Y-102600000D02*
X146950000Y-102600000D01*
X190850000Y-91400000D02*
X175350000Y-91400000D01*
X190490000Y-114090000D02*
X178562500Y-114090000D01*
X117085000Y-114035000D02*
X116750000Y-113700000D01*
X180740000Y-84290000D02*
X181400000Y-84950000D01*
X136690000Y-114040000D02*
X136450000Y-113800000D01*
X181400000Y-84950000D02*
X190850000Y-84950000D01*
X143240000Y-114040000D02*
X139362500Y-114040000D01*
%TO.N,Net-(U6B-D)*%
X112350000Y-57050000D02*
X116800000Y-57050000D01*
X117220000Y-57470000D02*
X117220000Y-58525000D01*
X112140000Y-58525000D02*
X112140000Y-57260000D01*
X112140000Y-57260000D02*
X112350000Y-57050000D01*
X116800000Y-57050000D02*
X117220000Y-57470000D01*
%TO.N,/A12*%
X132550000Y-111550000D02*
X132600000Y-111500000D01*
X139362500Y-111500000D02*
X145900000Y-111500000D01*
X122745000Y-111495000D02*
X123400000Y-112150000D01*
X173610000Y-81190000D02*
X174147500Y-81190000D01*
X161355000Y-111495000D02*
X158450000Y-111495000D01*
X169500000Y-111350000D02*
X169500000Y-111000000D01*
X172650000Y-111550000D02*
X178562500Y-111550000D01*
X132600000Y-111500000D02*
X139362500Y-111500000D01*
X169400000Y-110900000D02*
X161950000Y-110900000D01*
X169700000Y-111550000D02*
X169500000Y-111350000D01*
X152800000Y-111800000D02*
X156550000Y-111800000D01*
X131950000Y-112150000D02*
X132550000Y-111550000D01*
X161950000Y-110900000D02*
X161355000Y-111495000D01*
X156855000Y-111495000D02*
X158450000Y-111495000D01*
X118700000Y-111495000D02*
X122745000Y-111495000D01*
X173100000Y-81700000D02*
X173610000Y-81190000D01*
X169500000Y-111000000D02*
X169400000Y-110900000D01*
X172650000Y-111550000D02*
X169700000Y-111550000D01*
X145900000Y-111500000D02*
X146550000Y-112150000D01*
X152450000Y-112150000D02*
X152800000Y-111800000D01*
X146550000Y-112150000D02*
X152450000Y-112150000D01*
X123400000Y-112150000D02*
X131950000Y-112150000D01*
X173100000Y-82500000D02*
X173100000Y-81700000D01*
X156550000Y-111800000D02*
X156855000Y-111495000D01*
%TO.N,/~{IPL0}*%
X110450000Y-68150000D02*
X138000000Y-68150000D01*
X108052500Y-77430000D02*
X110430000Y-77430000D01*
X110430000Y-77430000D02*
X110450000Y-77450000D01*
X138000000Y-68150000D02*
X138050000Y-68100000D01*
%TO.N,/~{RST}*%
X102860000Y-81240000D02*
X103400000Y-80700000D01*
X150150000Y-49150000D02*
X150200000Y-49100000D01*
X154150000Y-49050000D02*
X154100000Y-49100000D01*
X150200000Y-49100000D02*
X148250000Y-49100000D01*
X99947500Y-81240000D02*
X102860000Y-81240000D01*
X150150000Y-51700000D02*
X150150000Y-49150000D01*
X103400000Y-63450000D02*
X148250000Y-63450000D01*
X154100000Y-49100000D02*
X150200000Y-49100000D01*
%TO.N,/A13*%
X111900000Y-106400000D02*
X111650000Y-106400000D01*
X167750000Y-103300000D02*
X167750000Y-104350000D01*
X130300000Y-107550000D02*
X135000000Y-107550000D01*
X180150000Y-80950000D02*
X180150000Y-80350000D01*
X178600000Y-90650000D02*
X159850000Y-90650000D01*
X150750000Y-106200000D02*
X150535000Y-106415000D01*
X180150000Y-80350000D02*
X179900000Y-80100000D01*
X151250000Y-102850000D02*
X150750000Y-103350000D01*
X168112500Y-104712500D02*
X169190000Y-104712500D01*
X167750000Y-104350000D02*
X168112500Y-104712500D01*
X128400000Y-97400000D02*
X111900000Y-97400000D01*
X150750000Y-103450000D02*
X150750000Y-106200000D01*
X167300000Y-102850000D02*
X167750000Y-103300000D01*
X129500000Y-102550000D02*
X129990000Y-103040000D01*
X128400000Y-102550000D02*
X129500000Y-102550000D01*
X129990000Y-104662500D02*
X129990000Y-107240000D01*
X129100000Y-96700000D02*
X128400000Y-97400000D01*
X150535000Y-106415000D02*
X148850000Y-106415000D01*
X159850000Y-102850000D02*
X151250000Y-102850000D01*
X182252500Y-81190000D02*
X180390000Y-81190000D01*
X179900000Y-80100000D02*
X178600000Y-80100000D01*
X159850000Y-102850000D02*
X167300000Y-102850000D01*
X180390000Y-81190000D02*
X180150000Y-80950000D01*
X111635000Y-106415000D02*
X109100000Y-106415000D01*
X129990000Y-103040000D02*
X129990000Y-104662500D01*
X149850000Y-96750000D02*
X149800000Y-96700000D01*
X129990000Y-107240000D02*
X130300000Y-107550000D01*
X150750000Y-103450000D02*
X149850000Y-103450000D01*
X149800000Y-96700000D02*
X129100000Y-96700000D01*
X150750000Y-103350000D02*
X150750000Y-103450000D01*
X111650000Y-106400000D02*
X111635000Y-106415000D01*
%TO.N,/A20*%
X174147500Y-76110000D02*
X169760000Y-76110000D01*
X169750000Y-64400000D02*
X157850000Y-64400000D01*
X169760000Y-76110000D02*
X169750000Y-76100000D01*
%TO.N,/~{IPL1}*%
X105550000Y-77200000D02*
X106400000Y-77200000D01*
X124000000Y-47700000D02*
X124400000Y-48100000D01*
X106990000Y-76160000D02*
X108052500Y-76160000D01*
X123550000Y-46700000D02*
X124000000Y-47150000D01*
X124000000Y-47150000D02*
X124000000Y-47600000D01*
X124400000Y-48100000D02*
X140100000Y-48100000D01*
X106400000Y-77200000D02*
X106650000Y-76950000D01*
X105550000Y-47400000D02*
X106750000Y-47400000D01*
X106750000Y-47400000D02*
X107450000Y-46700000D01*
X124000000Y-47600000D02*
X124000000Y-47700000D01*
X106650000Y-76500000D02*
X106990000Y-76160000D01*
X106650000Y-76950000D02*
X106650000Y-76500000D01*
X107450000Y-46700000D02*
X123550000Y-46700000D01*
%TO.N,/A14*%
X136450000Y-108300000D02*
X137060000Y-107690000D01*
X178572500Y-107750000D02*
X178562500Y-107740000D01*
X126150000Y-108300000D02*
X136450000Y-108300000D01*
X176080000Y-79920000D02*
X176450000Y-79550000D01*
X147450000Y-92350000D02*
X140200000Y-92350000D01*
X121500000Y-106900000D02*
X125450000Y-106900000D01*
X141610000Y-107690000D02*
X139362500Y-107690000D01*
X125450000Y-106900000D02*
X125800000Y-107250000D01*
X176500000Y-78950000D02*
X176750000Y-78700000D01*
X141650000Y-107650000D02*
X141610000Y-107690000D01*
X125800000Y-107250000D02*
X125800000Y-107950000D01*
X137060000Y-107690000D02*
X139362500Y-107690000D01*
X176750000Y-78700000D02*
X180500000Y-78700000D01*
X120715000Y-107685000D02*
X121500000Y-106900000D01*
X155900000Y-92000000D02*
X147800000Y-92000000D01*
X118700000Y-107685000D02*
X120715000Y-107685000D01*
X147800000Y-92000000D02*
X147450000Y-92350000D01*
X180500000Y-107750000D02*
X178572500Y-107750000D01*
X156150000Y-92250000D02*
X155900000Y-92000000D01*
X180500000Y-92250000D02*
X156150000Y-92250000D01*
X176500000Y-79500000D02*
X176500000Y-78950000D01*
X174147500Y-79920000D02*
X176080000Y-79920000D01*
X125800000Y-107950000D02*
X126150000Y-108300000D01*
X176450000Y-79550000D02*
X176500000Y-79500000D01*
%TO.N,/~{HLT}*%
X121600000Y-50700000D02*
X147800000Y-50700000D01*
X154050000Y-51700000D02*
X156650000Y-51700000D01*
X147800000Y-50700000D02*
X148300000Y-51200000D01*
X154050000Y-52750000D02*
X154050000Y-51700000D01*
X108052500Y-78700000D02*
X111050000Y-78700000D01*
X148300000Y-52350000D02*
X148850000Y-52900000D01*
X120750000Y-49850000D02*
X121600000Y-50700000D01*
X148300000Y-51200000D02*
X148300000Y-52350000D01*
X153900000Y-52900000D02*
X154050000Y-52750000D01*
X111600000Y-49850000D02*
X120750000Y-49850000D01*
X148850000Y-52900000D02*
X153900000Y-52900000D01*
%TO.N,Net-(D1-A)*%
X183300000Y-89750000D02*
X186200000Y-89750000D01*
X186200000Y-89750000D02*
X186610000Y-90160000D01*
X186610000Y-90160000D02*
X188850000Y-90160000D01*
%TO.N,/A21*%
X168250000Y-54400000D02*
X160500000Y-54400000D01*
X175250000Y-74300000D02*
X168250000Y-74300000D01*
X175362500Y-74300000D02*
X175250000Y-74300000D01*
X175660000Y-74597500D02*
X175362500Y-74300000D01*
%TO.N,/A22*%
X176950000Y-47100000D02*
X159200000Y-47100000D01*
X88900000Y-69200000D02*
X92600000Y-69200000D01*
X176930000Y-76780000D02*
X176950000Y-76800000D01*
X119900000Y-50700000D02*
X99000000Y-50700000D01*
X120950000Y-51750000D02*
X119900000Y-50700000D01*
X99000000Y-67000000D02*
X88900000Y-67000000D01*
X176930000Y-74597500D02*
X176930000Y-76780000D01*
X159200000Y-47100000D02*
X145150000Y-47100000D01*
X177000000Y-47150000D02*
X176950000Y-47100000D01*
X145150000Y-51750000D02*
X120950000Y-51750000D01*
%TO.N,Net-(U11-DIS)*%
X96475000Y-107185000D02*
X94265000Y-107185000D01*
X94000000Y-107450000D02*
X94000000Y-107800000D01*
X94050000Y-107400000D02*
X94000000Y-107450000D01*
X185550000Y-126900000D02*
X186010000Y-126440000D01*
X186010000Y-126440000D02*
X186010000Y-125000000D01*
X94000000Y-126750000D02*
X94000000Y-126944888D01*
X94265000Y-107185000D02*
X94050000Y-107400000D01*
X94044888Y-126900000D02*
X185550000Y-126900000D01*
X96475000Y-105915000D02*
X96475000Y-107185000D01*
X94000000Y-126944888D02*
X94044888Y-126900000D01*
%TO.N,Net-(D3-A)*%
X89485000Y-107185000D02*
X89450000Y-107150000D01*
X95750000Y-90100000D02*
X95750000Y-92300000D01*
X99700000Y-92362500D02*
X95812500Y-92362500D01*
X101712500Y-92362500D02*
X99700000Y-92362500D01*
X95812500Y-92362500D02*
X95750000Y-92300000D01*
X101730000Y-77430000D02*
X101750000Y-77450000D01*
X95250000Y-89600000D02*
X95750000Y-90100000D01*
X101750000Y-92400000D02*
X101712500Y-92362500D01*
X89400000Y-89600000D02*
X95250000Y-89600000D01*
X99947500Y-77430000D02*
X101730000Y-77430000D01*
X91525000Y-107185000D02*
X89485000Y-107185000D01*
%TO.N,Net-(D3-K)*%
X93385000Y-105915000D02*
X93400000Y-105900000D01*
X97250000Y-103350000D02*
X97800000Y-102800000D01*
X97800000Y-95462500D02*
X97737500Y-95400000D01*
X97800000Y-102800000D02*
X97800000Y-95462500D01*
X97737500Y-95400000D02*
X95750000Y-95400000D01*
X95150000Y-103350000D02*
X97250000Y-103350000D01*
X93400000Y-105900000D02*
X94200000Y-105900000D01*
X91525000Y-105915000D02*
X93385000Y-105915000D01*
X99637500Y-95400000D02*
X99700000Y-95337500D01*
X94650000Y-103850000D02*
X95150000Y-103350000D01*
X97737500Y-95400000D02*
X99637500Y-95400000D01*
X94200000Y-105900000D02*
X94650000Y-105450000D01*
X94650000Y-105450000D02*
X94650000Y-103850000D01*
%TO.N,Net-(D2-A)*%
X85650000Y-92900000D02*
X86250000Y-92300000D01*
X94085000Y-101400000D02*
X86350000Y-101400000D01*
X85650000Y-100700000D02*
X85650000Y-92900000D01*
X94450000Y-101765000D02*
X94085000Y-101400000D01*
X86350000Y-101400000D02*
X85650000Y-100700000D01*
X86250000Y-92300000D02*
X88100000Y-92300000D01*
%TO.N,/A23*%
X178200000Y-75850000D02*
X178650000Y-76300000D01*
X179700000Y-76300000D02*
X179850000Y-76300000D01*
X179850000Y-76300000D02*
X180100000Y-76550000D01*
X180100000Y-55450000D02*
X161700000Y-55450000D01*
X180100000Y-76550000D02*
X180100000Y-76850000D01*
X178650000Y-76300000D02*
X179700000Y-76300000D01*
X178200000Y-74597500D02*
X178200000Y-75850000D01*
%TO.N,/D15*%
X144230000Y-116580000D02*
X144250000Y-116600000D01*
X118700000Y-116575000D02*
X116175000Y-116575000D01*
X139400000Y-116617500D02*
X139362500Y-116580000D01*
X144250000Y-94950000D02*
X162850000Y-94950000D01*
X139362500Y-116580000D02*
X144230000Y-116580000D01*
X139400000Y-117750000D02*
X139400000Y-116617500D01*
X116175000Y-116575000D02*
X116150000Y-116550000D01*
%TO.N,/A3*%
X155697500Y-78750000D02*
X157900000Y-78750000D01*
X162150000Y-113400000D02*
X155800000Y-113400000D01*
X118540000Y-40060000D02*
X118540000Y-39120000D01*
X104550000Y-40750000D02*
X104900000Y-40400000D01*
X162730000Y-112820000D02*
X162150000Y-113400000D01*
X145700000Y-115450000D02*
X145700000Y-114500000D01*
X157900000Y-87600000D02*
X155150000Y-87600000D01*
X155800000Y-113400000D02*
X155150000Y-114050000D01*
X135180000Y-112770000D02*
X128237500Y-112770000D01*
X104550000Y-41700000D02*
X104550000Y-40750000D01*
X167437500Y-112820000D02*
X162730000Y-112820000D01*
X118200000Y-40400000D02*
X118540000Y-40060000D01*
X121650000Y-112750000D02*
X121700000Y-112800000D01*
X135250000Y-115950000D02*
X145200000Y-115950000D01*
X135200000Y-112750000D02*
X135180000Y-112770000D01*
X109100000Y-114035000D02*
X104765000Y-114035000D01*
X104550000Y-98900000D02*
X121650000Y-98900000D01*
X104900000Y-40400000D02*
X118200000Y-40400000D01*
X121700000Y-112800000D02*
X128207500Y-112800000D01*
X128207500Y-112800000D02*
X128237500Y-112770000D01*
X155135000Y-114035000D02*
X148850000Y-114035000D01*
X146165000Y-114035000D02*
X148850000Y-114035000D01*
X104765000Y-114035000D02*
X104750000Y-114050000D01*
X145200000Y-115950000D02*
X145700000Y-115450000D01*
X155150000Y-114050000D02*
X155135000Y-114035000D01*
X145700000Y-114500000D02*
X146165000Y-114035000D01*
%TO.N,/A4*%
X114435000Y-112765000D02*
X114450000Y-112750000D01*
X128237500Y-111500000D02*
X124800000Y-111500000D01*
X162400000Y-111550000D02*
X167437500Y-111550000D01*
X107015000Y-112765000D02*
X109100000Y-112765000D01*
X153200000Y-112750000D02*
X153650000Y-112300000D01*
X124750000Y-124650000D02*
X107000000Y-124650000D01*
X161800000Y-112150000D02*
X162400000Y-111550000D01*
X156850000Y-74300000D02*
X154450000Y-74300000D01*
X157210000Y-74660000D02*
X156850000Y-74300000D01*
X153650000Y-112300000D02*
X156700000Y-112300000D01*
X157210000Y-74697500D02*
X157210000Y-74660000D01*
X153100000Y-112750000D02*
X153085000Y-112765000D01*
X153200000Y-112750000D02*
X153100000Y-112750000D01*
X156850000Y-112150000D02*
X161800000Y-112150000D01*
X153200000Y-128550000D02*
X124750000Y-128550000D01*
X109100000Y-112765000D02*
X114435000Y-112765000D01*
X107000000Y-112750000D02*
X107015000Y-112765000D01*
X153085000Y-112765000D02*
X148850000Y-112765000D01*
X156700000Y-112300000D02*
X156850000Y-112150000D01*
%TO.N,/A6*%
X160855686Y-109010000D02*
X167437500Y-109010000D01*
X153400000Y-78250000D02*
X153000000Y-78650000D01*
X115450000Y-101050000D02*
X124050000Y-101050000D01*
X124050000Y-108950000D02*
X124060000Y-108960000D01*
X151225000Y-110225000D02*
X151575000Y-110225000D01*
X151200000Y-110200000D02*
X151225000Y-110225000D01*
X115400000Y-110250000D02*
X115375000Y-110225000D01*
X153400000Y-76550000D02*
X153400000Y-78250000D01*
X160265686Y-109600000D02*
X160855686Y-109010000D01*
X115375000Y-110225000D02*
X109100000Y-110225000D01*
X151575000Y-110225000D02*
X152200000Y-109600000D01*
X150700000Y-101050000D02*
X124050000Y-101050000D01*
X152200000Y-109600000D02*
X160265686Y-109600000D01*
X148850000Y-110225000D02*
X151175000Y-110225000D01*
X150750000Y-101000000D02*
X150700000Y-101050000D01*
X153740000Y-76210000D02*
X153400000Y-76550000D01*
X124060000Y-108960000D02*
X128237500Y-108960000D01*
X151175000Y-110225000D02*
X151200000Y-110200000D01*
X153000000Y-78650000D02*
X150750000Y-78650000D01*
X115400000Y-101000000D02*
X115450000Y-101050000D01*
X155697500Y-76210000D02*
X153740000Y-76210000D01*
%TO.N,/A7*%
X150895000Y-108955000D02*
X148850000Y-108955000D01*
X126750000Y-105350000D02*
X126250000Y-105850000D01*
X158480000Y-74697500D02*
X158480000Y-76980000D01*
X105955000Y-108955000D02*
X109100000Y-108955000D01*
X162050000Y-104100000D02*
X162650000Y-104100000D01*
X162900000Y-104350000D02*
X162900000Y-107400000D01*
X162900000Y-107400000D02*
X163240000Y-107740000D01*
X142950000Y-93550000D02*
X142350000Y-94150000D01*
X162050000Y-104100000D02*
X154300000Y-104100000D01*
X126890000Y-107690000D02*
X128237500Y-107690000D01*
X142350000Y-94150000D02*
X126750000Y-94150000D01*
X105950000Y-96700000D02*
X126750000Y-96700000D01*
X105950000Y-108950000D02*
X105955000Y-108955000D01*
X105950000Y-91550000D02*
X122450000Y-91550000D01*
X163240000Y-107740000D02*
X167437500Y-107740000D01*
X154300000Y-93550000D02*
X142950000Y-93550000D01*
X126750000Y-104300000D02*
X126750000Y-105350000D01*
X162650000Y-104100000D02*
X162900000Y-104350000D01*
X158900000Y-77400000D02*
X162050000Y-77400000D01*
X151450000Y-104650000D02*
X151450000Y-108400000D01*
X126250000Y-105850000D02*
X126250000Y-107050000D01*
X152000000Y-104100000D02*
X151450000Y-104650000D01*
X154300000Y-104100000D02*
X152000000Y-104100000D01*
X151450000Y-108400000D02*
X150895000Y-108955000D01*
X158480000Y-76980000D02*
X158900000Y-77400000D01*
X126250000Y-107050000D02*
X126890000Y-107690000D01*
%TO.N,/A2*%
X152500000Y-98500000D02*
X148700000Y-98500000D01*
X152555000Y-115305000D02*
X155095000Y-115305000D01*
X106005000Y-115305000D02*
X106000000Y-115300000D01*
X126450000Y-101900000D02*
X125950000Y-102400000D01*
X152530000Y-80020000D02*
X152500000Y-80050000D01*
X148700000Y-101950000D02*
X148650000Y-101900000D01*
X155750000Y-114650000D02*
X163350000Y-114650000D01*
X163910000Y-114090000D02*
X167437500Y-114090000D01*
X126010000Y-114040000D02*
X128237500Y-114040000D01*
X155697500Y-80020000D02*
X152530000Y-80020000D01*
X120000000Y-94150000D02*
X103750000Y-94150000D01*
X155095000Y-115305000D02*
X155750000Y-114650000D01*
X125900000Y-102450000D02*
X125950000Y-102400000D01*
X163350000Y-114650000D02*
X163910000Y-114090000D01*
X148650000Y-101900000D02*
X126450000Y-101900000D01*
X109100000Y-115305000D02*
X106005000Y-115305000D01*
X152500000Y-115250000D02*
X152445000Y-115305000D01*
X103700000Y-102450000D02*
X125900000Y-102450000D01*
X152445000Y-115305000D02*
X148850000Y-115305000D01*
X103750000Y-94150000D02*
X103700000Y-94200000D01*
X152500000Y-115250000D02*
X152555000Y-115305000D01*
%TO.N,/D14*%
X142400000Y-88800000D02*
X175250000Y-88800000D01*
X169380000Y-59600000D02*
X169340000Y-59560000D01*
X138700000Y-118350000D02*
X137622500Y-118350000D01*
X120900000Y-117700000D02*
X122500000Y-117700000D01*
X175250000Y-59600000D02*
X169380000Y-59600000D01*
X137622500Y-118350000D02*
X137610000Y-118337500D01*
X120755000Y-117845000D02*
X120900000Y-117700000D01*
X138700000Y-118350000D02*
X142400000Y-118350000D01*
X118700000Y-117845000D02*
X120755000Y-117845000D01*
%TO.N,/R_W*%
X102730000Y-74647500D02*
X102730000Y-76370000D01*
X102730000Y-76370000D02*
X102700000Y-76400000D01*
X108050000Y-48500000D02*
X108450000Y-48100000D01*
X122300000Y-49950000D02*
X144000000Y-49950000D01*
X170500000Y-58650000D02*
X161250000Y-58650000D01*
X108050000Y-49200000D02*
X108050000Y-48500000D01*
X108450000Y-48100000D02*
X121300000Y-48100000D01*
X102700000Y-103400000D02*
X102800000Y-103300000D01*
X120800000Y-103750000D02*
X120800000Y-106050000D01*
X170600000Y-58550000D02*
X170500000Y-58650000D01*
X121300000Y-48100000D02*
X121800000Y-48600000D01*
X121800000Y-48600000D02*
X121800000Y-49450000D01*
X161250000Y-58650000D02*
X144000000Y-58650000D01*
X102700000Y-49450000D02*
X107800000Y-49450000D01*
X120435000Y-106415000D02*
X118700000Y-106415000D01*
X161200000Y-106350000D02*
X161135000Y-106415000D01*
X120800000Y-106050000D02*
X120435000Y-106415000D01*
X107800000Y-49450000D02*
X108050000Y-49200000D01*
X102800000Y-103300000D02*
X120350000Y-103300000D01*
X161135000Y-106415000D02*
X158450000Y-106415000D01*
X121800000Y-49450000D02*
X122300000Y-49950000D01*
X120350000Y-103300000D02*
X120800000Y-103750000D01*
%TO.N,/D13*%
X171800000Y-125400000D02*
X171850000Y-125450000D01*
X136350000Y-125400000D02*
X171800000Y-125400000D01*
X115900000Y-127750000D02*
X136350000Y-127750000D01*
X117185000Y-119115000D02*
X117100000Y-119200000D01*
X117100000Y-119200000D02*
X116850000Y-119450000D01*
X116850000Y-119450000D02*
X115900000Y-119450000D01*
X118700000Y-119115000D02*
X117185000Y-119115000D01*
X136340000Y-120300000D02*
X136340000Y-118337500D01*
%TO.N,/~{LDS}*%
X141400000Y-85300000D02*
X141400000Y-82802500D01*
X141400000Y-85300000D02*
X145150000Y-85300000D01*
X145750000Y-68900000D02*
X173050000Y-68900000D01*
X141000000Y-85700000D02*
X141400000Y-85300000D01*
X119860000Y-82802500D02*
X119860000Y-85360000D01*
X120200000Y-85700000D02*
X141000000Y-85700000D01*
X119860000Y-85360000D02*
X120200000Y-85700000D01*
%TO.N,/D12*%
X135070000Y-120530000D02*
X135070000Y-118337500D01*
X166550000Y-53100000D02*
X174450000Y-53100000D01*
X116950000Y-122100000D02*
X116950000Y-120650000D01*
X116950000Y-120650000D02*
X117215000Y-120385000D01*
X117300000Y-122450000D02*
X116950000Y-122100000D01*
X137250000Y-126100000D02*
X166550000Y-126100000D01*
X135050000Y-120700000D02*
X135050000Y-120550000D01*
X117215000Y-120385000D02*
X118700000Y-120385000D01*
X135050000Y-120550000D02*
X135070000Y-120530000D01*
X135050000Y-122450000D02*
X117300000Y-122450000D01*
X135050000Y-122450000D02*
X137250000Y-122450000D01*
%TO.N,/~{UDS}*%
X117900000Y-85900000D02*
X118400000Y-86400000D01*
X118347500Y-81290000D02*
X117900000Y-81737500D01*
X136950000Y-74950000D02*
X136950000Y-75812500D01*
X136950000Y-75812500D02*
X137347500Y-76210000D01*
X133400000Y-57650000D02*
X178200000Y-57650000D01*
X136700000Y-74700000D02*
X136950000Y-74950000D01*
X118400000Y-86400000D02*
X127650000Y-86400000D01*
X128050000Y-74700000D02*
X133400000Y-74700000D01*
X133400000Y-74700000D02*
X136700000Y-74700000D01*
X117900000Y-81737500D02*
X117900000Y-81800000D01*
X117900000Y-81800000D02*
X117900000Y-85900000D01*
%TO.N,/D11*%
X174250000Y-127750000D02*
X140400000Y-127750000D01*
X133800000Y-121655000D02*
X140395000Y-121655000D01*
X118700000Y-121655000D02*
X133800000Y-121655000D01*
X140395000Y-121655000D02*
X140400000Y-121650000D01*
X133800000Y-118337500D02*
X133800000Y-121655000D01*
X174300000Y-127700000D02*
X174250000Y-127750000D01*
%TO.N,/~{AS}*%
X112950000Y-81450000D02*
X111600000Y-81450000D01*
X111600000Y-90750000D02*
X149200000Y-90750000D01*
X104000000Y-71050000D02*
X104500000Y-70550000D01*
X104500000Y-70550000D02*
X112900000Y-70550000D01*
X113530000Y-80020000D02*
X118347500Y-80020000D01*
X149160000Y-81290000D02*
X145452500Y-81290000D01*
X149200000Y-67950000D02*
X149250000Y-67900000D01*
X113500000Y-80900000D02*
X112950000Y-81450000D01*
X149200000Y-81250000D02*
X149160000Y-81290000D01*
X104000000Y-74647500D02*
X104000000Y-71050000D01*
X149250000Y-67900000D02*
X180700000Y-67900000D01*
X180700000Y-67900000D02*
X180750000Y-67850000D01*
X112900000Y-70550000D02*
X113500000Y-71150000D01*
X113500000Y-71150000D02*
X113500000Y-80900000D01*
%TO.N,/D3*%
X189660000Y-44200000D02*
X189660000Y-46690000D01*
X189150000Y-47200000D02*
X188950000Y-47400000D01*
X173000000Y-117200000D02*
X173000000Y-118387500D01*
X175500000Y-121650000D02*
X175200000Y-121350000D01*
X175200000Y-121350000D02*
X168800000Y-121350000D01*
X175500000Y-116350000D02*
X175250000Y-116600000D01*
X173600000Y-116600000D02*
X173000000Y-117200000D01*
X189660000Y-46690000D02*
X189150000Y-47200000D01*
X168500000Y-121650000D02*
X158455000Y-121650000D01*
X183100000Y-121650000D02*
X175500000Y-121650000D01*
X168800000Y-121350000D02*
X168500000Y-121650000D01*
X175500000Y-115550000D02*
X175500000Y-116350000D01*
X175250000Y-116600000D02*
X173600000Y-116600000D01*
X158455000Y-121650000D02*
X158450000Y-121655000D01*
X188950000Y-47400000D02*
X183400000Y-47400000D01*
%TO.N,/D10*%
X131260000Y-120440000D02*
X131260000Y-118337500D01*
X111800000Y-123900000D02*
X131250000Y-123900000D01*
X111200000Y-120800000D02*
X111200000Y-123300000D01*
X109100000Y-120385000D02*
X110785000Y-120385000D01*
X131250000Y-120450000D02*
X131260000Y-120440000D01*
X131260000Y-116640000D02*
X131600000Y-116300000D01*
X131250000Y-120650000D02*
X131250000Y-120450000D01*
X183400000Y-46200000D02*
X183350000Y-46250000D01*
X111200000Y-123300000D02*
X111800000Y-123900000D01*
X131260000Y-118337500D02*
X131260000Y-116640000D01*
X110785000Y-120385000D02*
X111200000Y-120800000D01*
X183350000Y-46250000D02*
X147400000Y-46250000D01*
X131700000Y-54050000D02*
X147250000Y-54050000D01*
X147400000Y-46250000D02*
X147250000Y-46400000D01*
%TO.N,/D8*%
X123700000Y-118050000D02*
X123700000Y-117100000D01*
X133500000Y-115100000D02*
X130850000Y-115100000D01*
X123250000Y-118500000D02*
X123700000Y-118050000D01*
X124220000Y-116580000D02*
X128237500Y-116580000D01*
X130070000Y-116580000D02*
X128237500Y-116580000D01*
X130500000Y-115450000D02*
X130500000Y-116150000D01*
X130500000Y-116150000D02*
X130070000Y-116580000D01*
X137250000Y-46200000D02*
X137600000Y-45850000D01*
X138150000Y-41250000D02*
X186400000Y-41250000D01*
X123700000Y-117100000D02*
X124220000Y-116580000D01*
X137600000Y-41800000D02*
X138150000Y-41250000D01*
X112850000Y-118500000D02*
X123250000Y-118500000D01*
X136750000Y-46200000D02*
X137250000Y-46200000D01*
X137600000Y-45850000D02*
X137600000Y-41800000D01*
X109100000Y-117845000D02*
X112195000Y-117845000D01*
X186400000Y-41250000D02*
X187120000Y-40530000D01*
X112195000Y-117845000D02*
X112850000Y-118500000D01*
X187120000Y-40530000D02*
X187120000Y-39120000D01*
X130850000Y-115100000D02*
X130500000Y-115450000D01*
%TO.N,/D0*%
X126452500Y-77480000D02*
X131270000Y-77480000D01*
X164620000Y-116630000D02*
X167437500Y-116630000D01*
X131270000Y-77480000D02*
X131300000Y-77450000D01*
X160580000Y-116630000D02*
X164580000Y-116630000D01*
X145705000Y-117845000D02*
X148850000Y-117845000D01*
X182000000Y-86400000D02*
X164600000Y-86400000D01*
X130900000Y-97550000D02*
X130950000Y-97600000D01*
X130950000Y-97600000D02*
X145200000Y-97600000D01*
X145200000Y-117850000D02*
X145700000Y-117850000D01*
X164600000Y-116650000D02*
X164620000Y-116630000D01*
X156550000Y-117800000D02*
X156505000Y-117845000D01*
X145700000Y-117850000D02*
X145705000Y-117845000D01*
X156505000Y-117845000D02*
X148850000Y-117845000D01*
X164580000Y-116630000D02*
X164600000Y-116650000D01*
X182050000Y-86350000D02*
X182000000Y-86400000D01*
%TO.N,/D4*%
X192200000Y-44200000D02*
X192200000Y-58450000D01*
X191600000Y-59050000D02*
X178300000Y-59050000D01*
X174300000Y-120800000D02*
X158865000Y-120800000D01*
X179450000Y-120800000D02*
X174300000Y-120800000D01*
X179600000Y-120750000D02*
X179500000Y-120750000D01*
X158865000Y-120800000D02*
X158450000Y-120385000D01*
X192200000Y-58450000D02*
X191600000Y-59050000D01*
X174270000Y-118387500D02*
X174270000Y-120770000D01*
X179500000Y-120750000D02*
X179450000Y-120800000D01*
X174270000Y-120770000D02*
X174300000Y-120800000D01*
%TO.N,/D9*%
X111900000Y-122600000D02*
X111900000Y-122850000D01*
X129977500Y-118350000D02*
X129990000Y-118337500D01*
X128150000Y-118350000D02*
X129977500Y-118350000D01*
X111565000Y-119115000D02*
X111900000Y-119450000D01*
X111900000Y-119450000D02*
X111900000Y-122600000D01*
X111900000Y-122850000D02*
X112200000Y-123150000D01*
X109100000Y-119115000D02*
X111565000Y-119115000D01*
X112200000Y-123150000D02*
X128150000Y-123150000D01*
X185850000Y-56450000D02*
X128950000Y-56450000D01*
%TO.N,/D2*%
X150750000Y-120850000D02*
X150285000Y-120385000D01*
X170460000Y-118387500D02*
X170460000Y-116010000D01*
X151050000Y-122300000D02*
X150750000Y-122000000D01*
X169750000Y-122300000D02*
X151050000Y-122300000D01*
X150750000Y-122000000D02*
X150750000Y-120850000D01*
X170450000Y-96050000D02*
X187000000Y-96050000D01*
X150285000Y-120385000D02*
X148850000Y-120385000D01*
X170460000Y-116010000D02*
X170450000Y-116000000D01*
%TO.N,/D7*%
X193500000Y-59300000D02*
X193500000Y-41755000D01*
X193095000Y-41350000D02*
X189900000Y-41350000D01*
X195050000Y-115700000D02*
X195050000Y-68350000D01*
X178562500Y-116630000D02*
X182070000Y-116630000D01*
X194350000Y-116600000D02*
X194750000Y-116200000D01*
X185650000Y-67450000D02*
X185650000Y-60250000D01*
X155575000Y-116575000D02*
X158450000Y-116575000D01*
X182100000Y-116600000D02*
X194350000Y-116600000D01*
X194750000Y-116000000D02*
X195050000Y-115700000D01*
X193100000Y-59700000D02*
X193500000Y-59300000D01*
X182070000Y-116630000D02*
X182100000Y-116600000D01*
X193500000Y-41755000D02*
X193095000Y-41350000D01*
X195050000Y-68350000D02*
X194600000Y-67900000D01*
X189660000Y-41110000D02*
X189660000Y-39120000D01*
X186200000Y-59700000D02*
X193100000Y-59700000D01*
X155250000Y-116900000D02*
X155575000Y-116575000D01*
X189900000Y-41350000D02*
X189660000Y-41110000D01*
X194600000Y-67900000D02*
X186100000Y-67900000D01*
X185650000Y-60250000D02*
X186200000Y-59700000D01*
X182100000Y-128550000D02*
X155300000Y-128550000D01*
X194750000Y-116200000D02*
X194750000Y-116000000D01*
X186100000Y-67900000D02*
X185650000Y-67450000D01*
%TO.N,/D6*%
X183750000Y-118400000D02*
X184300000Y-117850000D01*
X158455000Y-117850000D02*
X158450000Y-117845000D01*
X178600000Y-123300000D02*
X161650000Y-123300000D01*
X185950000Y-57750000D02*
X189800000Y-57750000D01*
X178587500Y-118387500D02*
X178600000Y-118400000D01*
X185900000Y-57800000D02*
X185950000Y-57750000D01*
X176810000Y-118387500D02*
X178587500Y-118387500D01*
X178600000Y-118400000D02*
X183750000Y-118400000D01*
X161650000Y-123300000D02*
X161600000Y-123350000D01*
X161600000Y-117850000D02*
X158455000Y-117850000D01*
%TO.N,/D1*%
X168877500Y-118700000D02*
X169190000Y-118387500D01*
X160550000Y-118700000D02*
X167250000Y-118700000D01*
X148850000Y-119115000D02*
X156535000Y-119115000D01*
X156535000Y-119115000D02*
X156550000Y-119100000D01*
X133390000Y-76210000D02*
X133400000Y-76200000D01*
X126452500Y-76210000D02*
X133390000Y-76210000D01*
X134050000Y-98300000D02*
X146150000Y-98300000D01*
X146100000Y-119100000D02*
X146115000Y-119115000D01*
X146115000Y-119115000D02*
X148850000Y-119115000D01*
X167250000Y-118700000D02*
X168877500Y-118700000D01*
X167250000Y-87050000D02*
X184500000Y-87050000D01*
%TO.N,/D5*%
X186500000Y-66500000D02*
X187050000Y-67050000D01*
X184550000Y-119500000D02*
X181050000Y-119500000D01*
X184950000Y-120400000D02*
X184950000Y-119900000D01*
X187050000Y-67050000D02*
X194850000Y-67050000D01*
X195300000Y-41400000D02*
X196000000Y-41400000D01*
X185800000Y-121250000D02*
X184950000Y-120400000D01*
X187200000Y-60500000D02*
X186500000Y-61200000D01*
X181050000Y-124350000D02*
X160550000Y-124350000D01*
X196450000Y-41850000D02*
X196450000Y-59600000D01*
X177550000Y-120200000D02*
X175900000Y-120200000D01*
X178250000Y-119500000D02*
X177550000Y-120200000D01*
X194850000Y-121250000D02*
X185800000Y-121250000D01*
X194740000Y-40840000D02*
X195300000Y-41400000D01*
X195550000Y-60500000D02*
X187200000Y-60500000D01*
X194850000Y-67050000D02*
X195550000Y-67750000D01*
X196450000Y-59600000D02*
X195550000Y-60500000D01*
X184950000Y-119900000D02*
X184550000Y-119500000D01*
X175540000Y-119840000D02*
X175540000Y-118387500D01*
X195550000Y-67750000D02*
X195550000Y-120550000D01*
X175900000Y-120200000D02*
X175540000Y-119840000D01*
X181050000Y-119500000D02*
X178250000Y-119500000D01*
X159815000Y-119115000D02*
X158450000Y-119115000D01*
X186500000Y-61200000D02*
X186500000Y-66500000D01*
X196000000Y-41400000D02*
X196450000Y-41850000D01*
X194740000Y-39120000D02*
X194740000Y-40840000D01*
X160550000Y-119850000D02*
X159815000Y-119115000D01*
X195550000Y-120550000D02*
X194850000Y-121250000D01*
%TD*%
M02*
