%TF.GenerationSoftware,KiCad,Pcbnew,8.0.3*%
%TF.CreationDate,2024-07-12T17:40:21+02:00*%
%TF.ProjectId,ARIII,41524949-492e-46b6-9963-61645f706362,rev?*%
%TF.SameCoordinates,Original*%
%TF.FileFunction,Drillmap*%
%TF.FilePolarity,Positive*%
%FSLAX45Y45*%
G04 Gerber Fmt 4.5, Leading zero omitted, Abs format (unit mm)*
G04 Created by KiCad (PCBNEW 8.0.3) date 2024-07-12 17:40:21*
%MOMM*%
%LPD*%
G01*
G04 APERTURE LIST*
%ADD10C,0.050000*%
%ADD11C,0.200000*%
%ADD12C,0.100000*%
%ADD13C,0.109000*%
G04 APERTURE END LIST*
D10*
X9390000Y-6190000D02*
G75*
G02*
X9540000Y-6340000I0J-150000D01*
G01*
X8440000Y-3690000D02*
X8440000Y-6190000D01*
X8440000Y-6190000D02*
X9390000Y-6190000D01*
X19840000Y-6490000D02*
X19840000Y-13290000D01*
X19840000Y-3690000D02*
X19840000Y-6190000D01*
X18890000Y-6490000D02*
G75*
G02*
X18740000Y-6340000I0J150000D01*
G01*
X9390000Y-6490000D02*
X8440000Y-6490000D01*
X18890000Y-6190000D02*
X19840000Y-6190000D01*
X9540000Y-6340000D02*
G75*
G02*
X9390000Y-6490000I-150000J0D01*
G01*
X8440000Y-13290000D02*
X19840000Y-13290000D01*
X18740000Y-6340000D02*
G75*
G02*
X18890000Y-6190000I150000J0D01*
G01*
X8440000Y-3690000D02*
X19840000Y-3690000D01*
X8440000Y-6490000D02*
X8440000Y-13290000D01*
X19840000Y-6490000D02*
X18890000Y-6490000D01*
D11*
D12*
X8685000Y-10505000D02*
X8715000Y-10535000D01*
X8715000Y-10505000D02*
X8685000Y-10535000D01*
X8685000Y-11285000D02*
X8715000Y-11315000D01*
X8715000Y-11285000D02*
X8685000Y-11315000D01*
X8820000Y-6680000D02*
X8850000Y-6710000D01*
X8850000Y-6680000D02*
X8820000Y-6710000D01*
X8870000Y-8990000D02*
X8900000Y-9020000D01*
X8900000Y-8990000D02*
X8870000Y-9020000D01*
X8870000Y-10765000D02*
X8900000Y-10795000D01*
X8900000Y-10765000D02*
X8870000Y-10795000D01*
X8995000Y-9860000D02*
X9025000Y-9890000D01*
X9025000Y-9860000D02*
X8995000Y-9890000D01*
X9260000Y-10645000D02*
X9290000Y-10675000D01*
X9290000Y-10645000D02*
X9260000Y-10675000D01*
X9325000Y-10815000D02*
X9355000Y-10845000D01*
X9355000Y-10815000D02*
X9325000Y-10845000D01*
X9425000Y-4805000D02*
X9455000Y-4835000D01*
X9455000Y-4805000D02*
X9425000Y-4835000D01*
X9595000Y-5475000D02*
X9625000Y-5505000D01*
X9625000Y-5475000D02*
X9595000Y-5505000D01*
X9595000Y-8905000D02*
X9625000Y-8935000D01*
X9625000Y-8905000D02*
X9595000Y-8935000D01*
X9595000Y-11285000D02*
X9625000Y-11315000D01*
X9625000Y-11285000D02*
X9595000Y-11315000D01*
X9680000Y-5985000D02*
X9710000Y-6015000D01*
X9710000Y-5985000D02*
X9680000Y-6015000D01*
X9680000Y-8017250D02*
X9710000Y-8047250D01*
X9710000Y-8017250D02*
X9680000Y-8047250D01*
X9755000Y-5595000D02*
X9785000Y-5625000D01*
X9785000Y-5595000D02*
X9755000Y-5625000D01*
X9755000Y-7410000D02*
X9785000Y-7440000D01*
X9785000Y-7410000D02*
X9755000Y-7440000D01*
X9875000Y-5035000D02*
X9905000Y-5065000D01*
X9905000Y-5035000D02*
X9875000Y-5065000D01*
X9875000Y-6680000D02*
X9905000Y-6710000D01*
X9905000Y-6680000D02*
X9875000Y-6710000D01*
X10100000Y-9380000D02*
X10130000Y-9410000D01*
X10130000Y-9380000D02*
X10100000Y-9410000D01*
X10100000Y-11035000D02*
X10130000Y-11065000D01*
X10130000Y-11035000D02*
X10100000Y-11065000D01*
X10105000Y-5150000D02*
X10135000Y-5180000D01*
X10135000Y-5150000D02*
X10105000Y-5180000D01*
X10105000Y-6785000D02*
X10135000Y-6815000D01*
X10135000Y-6785000D02*
X10105000Y-6815000D01*
X10105000Y-7180000D02*
X10135000Y-7210000D01*
X10135000Y-7180000D02*
X10105000Y-7210000D01*
X10105000Y-10515000D02*
X10135000Y-10545000D01*
X10135000Y-10515000D02*
X10105000Y-10545000D01*
X10130000Y-7765000D02*
X10160000Y-7795000D01*
X10160000Y-7765000D02*
X10130000Y-7795000D01*
X10130000Y-9235000D02*
X10160000Y-9265000D01*
X10160000Y-9235000D02*
X10130000Y-9265000D01*
X10210000Y-4885000D02*
X10240000Y-4915000D01*
X10240000Y-4885000D02*
X10210000Y-4915000D01*
X10210000Y-7655000D02*
X10240000Y-7685000D01*
X10240000Y-7655000D02*
X10210000Y-7685000D01*
X10210000Y-10395000D02*
X10240000Y-10425000D01*
X10240000Y-10395000D02*
X10210000Y-10425000D01*
X10300000Y-6375000D02*
X10330000Y-6405000D01*
X10330000Y-6375000D02*
X10300000Y-6405000D01*
X10300000Y-8055000D02*
X10330000Y-8085000D01*
X10330000Y-8055000D02*
X10300000Y-8085000D01*
X10320000Y-9450000D02*
X10350000Y-9480000D01*
X10350000Y-9450000D02*
X10320000Y-9480000D01*
X10325000Y-10310000D02*
X10355000Y-10340000D01*
X10355000Y-10310000D02*
X10325000Y-10340000D01*
X10440000Y-9955000D02*
X10470000Y-9985000D01*
X10470000Y-9955000D02*
X10440000Y-9985000D01*
X10445000Y-4035000D02*
X10475000Y-4065000D01*
X10475000Y-4035000D02*
X10445000Y-4065000D01*
X10445000Y-11505000D02*
X10475000Y-11535000D01*
X10475000Y-11505000D02*
X10445000Y-11535000D01*
X10535000Y-4680000D02*
X10565000Y-4710000D01*
X10565000Y-4680000D02*
X10535000Y-4710000D01*
X10535000Y-7725000D02*
X10565000Y-7755000D01*
X10565000Y-7725000D02*
X10535000Y-7755000D01*
X10545000Y-11625000D02*
X10575000Y-11655000D01*
X10575000Y-11625000D02*
X10545000Y-11655000D01*
X10555000Y-9035000D02*
X10585000Y-9065000D01*
X10585000Y-9035000D02*
X10555000Y-9065000D01*
X10555000Y-9180000D02*
X10585000Y-9210000D01*
X10585000Y-9180000D02*
X10555000Y-9210000D01*
X10555000Y-9710000D02*
X10585000Y-9740000D01*
X10585000Y-9710000D02*
X10555000Y-9740000D01*
X10555000Y-10990000D02*
X10585000Y-11020000D01*
X10585000Y-10990000D02*
X10555000Y-11020000D01*
X10560000Y-7890000D02*
X10590000Y-7920000D01*
X10590000Y-7890000D02*
X10560000Y-7920000D01*
X10612000Y-7285000D02*
X10642000Y-7315000D01*
X10642000Y-7285000D02*
X10612000Y-7315000D01*
X10615000Y-4560000D02*
X10645000Y-4590000D01*
X10645000Y-4560000D02*
X10615000Y-4590000D01*
X10650000Y-11370000D02*
X10680000Y-11400000D01*
X10680000Y-11370000D02*
X10650000Y-11400000D01*
X10650000Y-12565000D02*
X10680000Y-12595000D01*
X10680000Y-12565000D02*
X10650000Y-12595000D01*
X10670000Y-9880000D02*
X10700000Y-9910000D01*
X10700000Y-9880000D02*
X10670000Y-9910000D01*
X10670000Y-10610000D02*
X10700000Y-10640000D01*
X10700000Y-10610000D02*
X10670000Y-10640000D01*
X10745000Y-5595000D02*
X10775000Y-5625000D01*
X10775000Y-5595000D02*
X10745000Y-5625000D01*
X10745000Y-7135000D02*
X10775000Y-7165000D01*
X10775000Y-7135000D02*
X10745000Y-7165000D01*
X10825000Y-6180000D02*
X10855000Y-6210000D01*
X10855000Y-6180000D02*
X10825000Y-6210000D01*
X10825000Y-8320000D02*
X10855000Y-8350000D01*
X10855000Y-8320000D02*
X10825000Y-8350000D01*
X10890000Y-12390000D02*
X10920000Y-12420000D01*
X10920000Y-12390000D02*
X10890000Y-12420000D01*
X10890000Y-12690000D02*
X10920000Y-12720000D01*
X10920000Y-12690000D02*
X10890000Y-12720000D01*
X10900000Y-4850000D02*
X10930000Y-4880000D01*
X10930000Y-4850000D02*
X10900000Y-4880000D01*
X10900000Y-5985000D02*
X10930000Y-6015000D01*
X10930000Y-5985000D02*
X10900000Y-6015000D01*
X10925000Y-6550000D02*
X10955000Y-6580000D01*
X10955000Y-6550000D02*
X10925000Y-6580000D01*
X10925000Y-8530000D02*
X10955000Y-8560000D01*
X10955000Y-8530000D02*
X10925000Y-8560000D01*
X11028250Y-7763250D02*
X11058250Y-7793250D01*
X11058250Y-7763250D02*
X11028250Y-7793250D01*
X11030000Y-6835000D02*
X11060000Y-6865000D01*
X11060000Y-6835000D02*
X11030000Y-6865000D01*
X11060000Y-9540000D02*
X11090000Y-9570000D01*
X11090000Y-9540000D02*
X11060000Y-9570000D01*
X11060000Y-10865000D02*
X11090000Y-10895000D01*
X11090000Y-10865000D02*
X11060000Y-10895000D01*
X11100000Y-7890000D02*
X11130000Y-7920000D01*
X11130000Y-7890000D02*
X11100000Y-7920000D01*
X11130000Y-8170000D02*
X11160000Y-8200000D01*
X11160000Y-8170000D02*
X11130000Y-8200000D01*
X11130000Y-9110000D02*
X11160000Y-9140000D01*
X11160000Y-9110000D02*
X11130000Y-9140000D01*
X11135000Y-4935000D02*
X11165000Y-4965000D01*
X11165000Y-4935000D02*
X11135000Y-4965000D01*
X11145000Y-10735000D02*
X11175000Y-10765000D01*
X11175000Y-10735000D02*
X11145000Y-10765000D01*
X11150000Y-9790000D02*
X11180000Y-9820000D01*
X11180000Y-9790000D02*
X11150000Y-9820000D01*
X11220000Y-6065000D02*
X11250000Y-6095000D01*
X11250000Y-6065000D02*
X11220000Y-6095000D01*
X11220000Y-8017250D02*
X11250000Y-8047250D01*
X11250000Y-8017250D02*
X11220000Y-8047250D01*
X11225000Y-11650000D02*
X11255000Y-11680000D01*
X11255000Y-11650000D02*
X11225000Y-11680000D01*
X11300000Y-6445000D02*
X11330000Y-6475000D01*
X11330000Y-6445000D02*
X11300000Y-6475000D01*
X11320000Y-11460000D02*
X11350000Y-11490000D01*
X11350000Y-11460000D02*
X11320000Y-11490000D01*
X11325000Y-10235000D02*
X11355000Y-10265000D01*
X11355000Y-10235000D02*
X11325000Y-10265000D01*
X11325000Y-11245000D02*
X11355000Y-11275000D01*
X11355000Y-11245000D02*
X11325000Y-11275000D01*
X11410000Y-11371500D02*
X11440000Y-11401500D01*
X11440000Y-11371500D02*
X11410000Y-11401500D01*
X11510000Y-5100000D02*
X11540000Y-5130000D01*
X11540000Y-5100000D02*
X11510000Y-5130000D01*
X11510000Y-6065000D02*
X11540000Y-6095000D01*
X11540000Y-6065000D02*
X11510000Y-6095000D01*
X11520000Y-10145000D02*
X11550000Y-10175000D01*
X11550000Y-10145000D02*
X11520000Y-10175000D01*
X11520000Y-11115000D02*
X11550000Y-11145000D01*
X11550000Y-11115000D02*
X11520000Y-11145000D01*
X11560000Y-12875000D02*
X11590000Y-12905000D01*
X11590000Y-12875000D02*
X11560000Y-12905000D01*
X11565000Y-12035000D02*
X11595000Y-12065000D01*
X11595000Y-12035000D02*
X11565000Y-12065000D01*
X11590000Y-11755000D02*
X11620000Y-11785000D01*
X11620000Y-11755000D02*
X11590000Y-11785000D01*
X11595000Y-7915000D02*
X11625000Y-7945000D01*
X11625000Y-7915000D02*
X11595000Y-7945000D01*
X11595000Y-8730000D02*
X11625000Y-8760000D01*
X11625000Y-8730000D02*
X11595000Y-8760000D01*
X11595000Y-11375000D02*
X11625000Y-11405000D01*
X11625000Y-11375000D02*
X11595000Y-11405000D01*
X11675000Y-6230000D02*
X11705000Y-6260000D01*
X11705000Y-6230000D02*
X11675000Y-6260000D01*
X11675000Y-9545000D02*
X11705000Y-9575000D01*
X11705000Y-9545000D02*
X11675000Y-9575000D01*
X11675000Y-10990000D02*
X11705000Y-11020000D01*
X11705000Y-10990000D02*
X11675000Y-11020000D01*
X11725000Y-4850000D02*
X11755000Y-4880000D01*
X11755000Y-4850000D02*
X11725000Y-4880000D01*
X11731000Y-5124000D02*
X11761000Y-5154000D01*
X11761000Y-5124000D02*
X11731000Y-5154000D01*
X11785000Y-5595000D02*
X11815000Y-5625000D01*
X11815000Y-5595000D02*
X11785000Y-5625000D01*
X11785000Y-7285000D02*
X11815000Y-7315000D01*
X11815000Y-7285000D02*
X11785000Y-7315000D01*
X11850000Y-13025000D02*
X11880000Y-13055000D01*
X11880000Y-13025000D02*
X11850000Y-13055000D01*
X11875000Y-6145000D02*
X11905000Y-6175000D01*
X11905000Y-6145000D02*
X11875000Y-6175000D01*
X11875000Y-8905000D02*
X11905000Y-8935000D01*
X11905000Y-8905000D02*
X11875000Y-8935000D01*
X11875000Y-10065000D02*
X11905000Y-10095000D01*
X11905000Y-10065000D02*
X11875000Y-10095000D01*
X11875000Y-10490000D02*
X11905000Y-10520000D01*
X11905000Y-10490000D02*
X11875000Y-10520000D01*
X11970000Y-9450000D02*
X12000000Y-9480000D01*
X12000000Y-9450000D02*
X11970000Y-9480000D01*
X11975000Y-6230000D02*
X12005000Y-6260000D01*
X12005000Y-6230000D02*
X11975000Y-6260000D01*
X12025000Y-6635000D02*
X12055000Y-6665000D01*
X12055000Y-6635000D02*
X12025000Y-6665000D01*
X12025000Y-7670000D02*
X12055000Y-7700000D01*
X12055000Y-7670000D02*
X12025000Y-7700000D01*
X12025000Y-7785000D02*
X12055000Y-7815000D01*
X12055000Y-7785000D02*
X12025000Y-7815000D01*
X12025000Y-7895000D02*
X12055000Y-7925000D01*
X12055000Y-7895000D02*
X12025000Y-7925000D01*
X12065000Y-9255000D02*
X12095000Y-9285000D01*
X12095000Y-9255000D02*
X12065000Y-9285000D01*
X12065000Y-11115000D02*
X12095000Y-11145000D01*
X12095000Y-11115000D02*
X12065000Y-11145000D01*
X12160000Y-9630000D02*
X12190000Y-9660000D01*
X12190000Y-9630000D02*
X12160000Y-9660000D01*
X12165000Y-8125000D02*
X12195000Y-8155000D01*
X12195000Y-8125000D02*
X12165000Y-8155000D01*
X12165000Y-8820000D02*
X12195000Y-8850000D01*
X12195000Y-8820000D02*
X12165000Y-8850000D01*
X12165000Y-9955000D02*
X12195000Y-9985000D01*
X12195000Y-9955000D02*
X12165000Y-9985000D01*
X12165000Y-11360000D02*
X12195000Y-11390000D01*
X12195000Y-11360000D02*
X12165000Y-11390000D01*
X12210000Y-7980000D02*
X12240000Y-8010000D01*
X12240000Y-7980000D02*
X12210000Y-8010000D01*
X12230000Y-11880000D02*
X12260000Y-11910000D01*
X12260000Y-11880000D02*
X12230000Y-11910000D01*
X12245000Y-9455000D02*
X12275000Y-9485000D01*
X12275000Y-9455000D02*
X12245000Y-9485000D01*
X12245000Y-10235000D02*
X12275000Y-10265000D01*
X12275000Y-10235000D02*
X12245000Y-10265000D01*
X12245000Y-11080000D02*
X12275000Y-11110000D01*
X12275000Y-11080000D02*
X12245000Y-11110000D01*
X12260000Y-9180000D02*
X12290000Y-9210000D01*
X12290000Y-9180000D02*
X12260000Y-9210000D01*
X12320000Y-11555000D02*
X12350000Y-11585000D01*
X12350000Y-11555000D02*
X12320000Y-11585000D01*
X12410000Y-10160000D02*
X12440000Y-10190000D01*
X12440000Y-10160000D02*
X12410000Y-10190000D01*
X12410000Y-10995000D02*
X12440000Y-11025000D01*
X12440000Y-10995000D02*
X12410000Y-11025000D01*
X12455000Y-11245000D02*
X12485000Y-11275000D01*
X12485000Y-11245000D02*
X12455000Y-11275000D01*
X12455000Y-12565000D02*
X12485000Y-12595000D01*
X12485000Y-12565000D02*
X12455000Y-12595000D01*
X12455000Y-12945000D02*
X12485000Y-12975000D01*
X12485000Y-12945000D02*
X12455000Y-12975000D01*
X12480000Y-10860000D02*
X12510000Y-10890000D01*
X12510000Y-10860000D02*
X12480000Y-10890000D01*
X12580000Y-11625000D02*
X12610000Y-11655000D01*
X12610000Y-11625000D02*
X12580000Y-11655000D01*
X12585000Y-11500000D02*
X12615000Y-11530000D01*
X12615000Y-11500000D02*
X12585000Y-11530000D01*
X12590000Y-10310000D02*
X12620000Y-10340000D01*
X12620000Y-10310000D02*
X12590000Y-10340000D01*
X12620000Y-12570000D02*
X12650000Y-12600000D01*
X12650000Y-12570000D02*
X12620000Y-12600000D01*
X12625000Y-8760000D02*
X12655000Y-8790000D01*
X12655000Y-8760000D02*
X12625000Y-8790000D01*
X12630000Y-8325000D02*
X12660000Y-8355000D01*
X12660000Y-8325000D02*
X12630000Y-8355000D01*
X12630000Y-8455000D02*
X12660000Y-8485000D01*
X12660000Y-8455000D02*
X12630000Y-8485000D01*
X12670000Y-9460000D02*
X12700000Y-9490000D01*
X12700000Y-9460000D02*
X12670000Y-9490000D01*
X12670000Y-9710000D02*
X12700000Y-9740000D01*
X12700000Y-9710000D02*
X12670000Y-9740000D01*
X12670000Y-10485000D02*
X12700000Y-10515000D01*
X12700000Y-10485000D02*
X12670000Y-10515000D01*
X12690000Y-9210000D02*
X12720000Y-9240000D01*
X12720000Y-9210000D02*
X12690000Y-9240000D01*
X12705000Y-6445000D02*
X12735000Y-6475000D01*
X12735000Y-6445000D02*
X12705000Y-6475000D01*
X12705000Y-7355000D02*
X12735000Y-7385000D01*
X12735000Y-7355000D02*
X12705000Y-7385000D01*
X12765000Y-8680000D02*
X12795000Y-8710000D01*
X12795000Y-8680000D02*
X12765000Y-8710000D01*
X12765000Y-9545000D02*
X12795000Y-9575000D01*
X12795000Y-9545000D02*
X12765000Y-9575000D01*
X12765000Y-10410000D02*
X12795000Y-10440000D01*
X12795000Y-10410000D02*
X12765000Y-10440000D01*
X12790000Y-6745000D02*
X12820000Y-6775000D01*
X12820000Y-6745000D02*
X12790000Y-6775000D01*
X12790000Y-7475000D02*
X12820000Y-7505000D01*
X12820000Y-7475000D02*
X12790000Y-7505000D01*
X12810000Y-11930000D02*
X12840000Y-11960000D01*
X12840000Y-11930000D02*
X12810000Y-11960000D01*
X12810000Y-12410000D02*
X12840000Y-12440000D01*
X12840000Y-12410000D02*
X12810000Y-12440000D01*
X12835000Y-9795000D02*
X12865000Y-9825000D01*
X12865000Y-9795000D02*
X12835000Y-9825000D01*
X12835000Y-10305000D02*
X12865000Y-10335000D01*
X12865000Y-10305000D02*
X12835000Y-10335000D01*
X12855000Y-9200000D02*
X12885000Y-9230000D01*
X12885000Y-9200000D02*
X12855000Y-9230000D01*
X12860000Y-8230000D02*
X12890000Y-8260000D01*
X12890000Y-8230000D02*
X12860000Y-8260000D01*
X12905000Y-5690000D02*
X12935000Y-5720000D01*
X12935000Y-5690000D02*
X12905000Y-5720000D01*
X12980000Y-4875000D02*
X13010000Y-4905000D01*
X13010000Y-4875000D02*
X12980000Y-4905000D01*
X13005000Y-8035000D02*
X13035000Y-8065000D01*
X13035000Y-8035000D02*
X13005000Y-8065000D01*
X13005000Y-11445000D02*
X13035000Y-11475000D01*
X13035000Y-11445000D02*
X13005000Y-11475000D01*
X13059750Y-7910250D02*
X13089750Y-7940250D01*
X13089750Y-7910250D02*
X13059750Y-7940250D01*
X13095000Y-9820000D02*
X13125000Y-9850000D01*
X13125000Y-9820000D02*
X13095000Y-9850000D01*
X13105000Y-6475000D02*
X13135000Y-6505000D01*
X13135000Y-6475000D02*
X13105000Y-6505000D01*
X13140000Y-12165000D02*
X13170000Y-12195000D01*
X13170000Y-12165000D02*
X13140000Y-12195000D01*
X13140000Y-12490000D02*
X13170000Y-12520000D01*
X13170000Y-12490000D02*
X13140000Y-12520000D01*
X13160000Y-7785000D02*
X13190000Y-7815000D01*
X13190000Y-7785000D02*
X13160000Y-7815000D01*
X13165000Y-11725000D02*
X13195000Y-11755000D01*
X13195000Y-11725000D02*
X13165000Y-11755000D01*
X13190000Y-5360000D02*
X13220000Y-5390000D01*
X13220000Y-5360000D02*
X13190000Y-5390000D01*
X13265000Y-12165000D02*
X13295000Y-12195000D01*
X13295000Y-12165000D02*
X13265000Y-12195000D01*
X13265000Y-12440000D02*
X13295000Y-12470000D01*
X13295000Y-12440000D02*
X13265000Y-12470000D01*
X13265000Y-12690000D02*
X13295000Y-12720000D01*
X13295000Y-12690000D02*
X13265000Y-12720000D01*
X13285000Y-11245000D02*
X13315000Y-11275000D01*
X13315000Y-11245000D02*
X13285000Y-11275000D01*
X13345000Y-10335000D02*
X13375000Y-10365000D01*
X13375000Y-10335000D02*
X13345000Y-10365000D01*
X13345000Y-11600000D02*
X13375000Y-11630000D01*
X13375000Y-11600000D02*
X13345000Y-11630000D01*
X13350000Y-7475000D02*
X13380000Y-7505000D01*
X13380000Y-7475000D02*
X13350000Y-7505000D01*
X13360000Y-7660000D02*
X13390000Y-7690000D01*
X13390000Y-7660000D02*
X13360000Y-7690000D01*
X13365000Y-8050000D02*
X13395000Y-8080000D01*
X13395000Y-8050000D02*
X13365000Y-8080000D01*
X13365000Y-9300000D02*
X13395000Y-9330000D01*
X13395000Y-9300000D02*
X13365000Y-9330000D01*
X13375000Y-5800000D02*
X13405000Y-5830000D01*
X13405000Y-5800000D02*
X13375000Y-5830000D01*
X13410000Y-6230000D02*
X13440000Y-6260000D01*
X13440000Y-6230000D02*
X13410000Y-6260000D01*
X13445000Y-9895000D02*
X13475000Y-9925000D01*
X13475000Y-9895000D02*
X13445000Y-9925000D01*
X13455000Y-6550000D02*
X13485000Y-6580000D01*
X13485000Y-6550000D02*
X13455000Y-6580000D01*
X13455000Y-7800000D02*
X13485000Y-7830000D01*
X13485000Y-7800000D02*
X13455000Y-7830000D01*
X13510000Y-10065000D02*
X13540000Y-10095000D01*
X13540000Y-10065000D02*
X13510000Y-10095000D01*
X13510000Y-10330000D02*
X13540000Y-10360000D01*
X13540000Y-10330000D02*
X13510000Y-10360000D01*
X13520000Y-10830000D02*
X13550000Y-10860000D01*
X13550000Y-10830000D02*
X13520000Y-10860000D01*
X13520000Y-12155000D02*
X13550000Y-12185000D01*
X13550000Y-12155000D02*
X13520000Y-12185000D01*
X13520000Y-12335000D02*
X13550000Y-12365000D01*
X13550000Y-12335000D02*
X13520000Y-12365000D01*
X13535000Y-11375000D02*
X13565000Y-11405000D01*
X13565000Y-11375000D02*
X13535000Y-11405000D01*
X13535000Y-11675000D02*
X13565000Y-11705000D01*
X13565000Y-11675000D02*
X13535000Y-11705000D01*
X13640000Y-12645000D02*
X13670000Y-12675000D01*
X13670000Y-12645000D02*
X13640000Y-12675000D01*
X13640000Y-12875000D02*
X13670000Y-12905000D01*
X13670000Y-12875000D02*
X13640000Y-12905000D01*
X13645000Y-12110000D02*
X13675000Y-12140000D01*
X13675000Y-12110000D02*
X13645000Y-12140000D01*
X13650000Y-11375000D02*
X13680000Y-11405000D01*
X13680000Y-11375000D02*
X13650000Y-11405000D01*
X13675000Y-4615000D02*
X13705000Y-4645000D01*
X13705000Y-4615000D02*
X13675000Y-4645000D01*
X13715000Y-6005000D02*
X13745000Y-6035000D01*
X13745000Y-6005000D02*
X13715000Y-6035000D01*
X13735000Y-8675000D02*
X13765000Y-8705000D01*
X13765000Y-8675000D02*
X13735000Y-8705000D01*
X13735000Y-10325000D02*
X13765000Y-10355000D01*
X13765000Y-10325000D02*
X13735000Y-10355000D01*
X13750000Y-12340000D02*
X13780000Y-12370000D01*
X13780000Y-12340000D02*
X13750000Y-12370000D01*
X13750000Y-12735000D02*
X13780000Y-12765000D01*
X13780000Y-12735000D02*
X13750000Y-12765000D01*
X13755000Y-8305000D02*
X13785000Y-8335000D01*
X13785000Y-8305000D02*
X13755000Y-8335000D01*
X13765000Y-11375000D02*
X13795000Y-11405000D01*
X13795000Y-11375000D02*
X13765000Y-11405000D01*
X13780000Y-6835000D02*
X13810000Y-6865000D01*
X13810000Y-6835000D02*
X13780000Y-6865000D01*
X13805000Y-8395000D02*
X13835000Y-8425000D01*
X13835000Y-8395000D02*
X13805000Y-8425000D01*
X13810000Y-7195000D02*
X13840000Y-7225000D01*
X13840000Y-7195000D02*
X13810000Y-7225000D01*
X13810000Y-7395000D02*
X13840000Y-7425000D01*
X13840000Y-7395000D02*
X13810000Y-7425000D01*
X13875000Y-11950000D02*
X13905000Y-11980000D01*
X13905000Y-11950000D02*
X13875000Y-11980000D01*
X13930000Y-8165000D02*
X13960000Y-8195000D01*
X13960000Y-8165000D02*
X13930000Y-8195000D01*
X13930000Y-8865000D02*
X13960000Y-8895000D01*
X13960000Y-8865000D02*
X13930000Y-8895000D01*
X13950000Y-9985000D02*
X13980000Y-10015000D01*
X13980000Y-9985000D02*
X13950000Y-10015000D01*
X13950000Y-10585000D02*
X13980000Y-10615000D01*
X13980000Y-10585000D02*
X13950000Y-10615000D01*
X13950000Y-11855000D02*
X13980000Y-11885000D01*
X13980000Y-11855000D02*
X13950000Y-11885000D01*
X14000000Y-4785000D02*
X14030000Y-4815000D01*
X14030000Y-4785000D02*
X14000000Y-4815000D01*
X14035000Y-9285000D02*
X14065000Y-9315000D01*
X14065000Y-9285000D02*
X14035000Y-9315000D01*
X14045000Y-12255000D02*
X14075000Y-12285000D01*
X14075000Y-12255000D02*
X14045000Y-12285000D01*
X14045000Y-12875000D02*
X14075000Y-12905000D01*
X14075000Y-12875000D02*
X14045000Y-12905000D01*
X14060000Y-6635000D02*
X14090000Y-6665000D01*
X14090000Y-6635000D02*
X14060000Y-6665000D01*
X14060000Y-7690000D02*
X14090000Y-7720000D01*
X14090000Y-7690000D02*
X14060000Y-7720000D01*
X14150000Y-9985000D02*
X14180000Y-10015000D01*
X14180000Y-9985000D02*
X14150000Y-10015000D01*
X14170000Y-10865000D02*
X14200000Y-10895000D01*
X14200000Y-10865000D02*
X14170000Y-10895000D01*
X14170000Y-10990000D02*
X14200000Y-11020000D01*
X14200000Y-10990000D02*
X14170000Y-11020000D01*
X14170000Y-13025000D02*
X14200000Y-13055000D01*
X14200000Y-13025000D02*
X14170000Y-13055000D01*
X14260000Y-4690000D02*
X14290000Y-4720000D01*
X14290000Y-4690000D02*
X14260000Y-4720000D01*
X14265000Y-11955000D02*
X14295000Y-11985000D01*
X14295000Y-11955000D02*
X14265000Y-11985000D01*
X14270000Y-4875000D02*
X14300000Y-4905000D01*
X14300000Y-4875000D02*
X14270000Y-4905000D01*
X14270000Y-8675000D02*
X14300000Y-8705000D01*
X14300000Y-8675000D02*
X14270000Y-8705000D01*
X14270000Y-8930000D02*
X14300000Y-8960000D01*
X14300000Y-8930000D02*
X14270000Y-8960000D01*
X14345000Y-11500000D02*
X14375000Y-11530000D01*
X14375000Y-11500000D02*
X14345000Y-11530000D01*
X14380000Y-6230000D02*
X14410000Y-6260000D01*
X14410000Y-6230000D02*
X14380000Y-6260000D01*
X14380000Y-8125000D02*
X14410000Y-8155000D01*
X14410000Y-8125000D02*
X14380000Y-8155000D01*
X14380000Y-8675000D02*
X14410000Y-8705000D01*
X14410000Y-8675000D02*
X14380000Y-8705000D01*
X14405000Y-7920000D02*
X14435000Y-7950000D01*
X14435000Y-7920000D02*
X14405000Y-7950000D01*
X14425000Y-7745000D02*
X14455000Y-7775000D01*
X14455000Y-7745000D02*
X14425000Y-7775000D01*
X14460000Y-4970000D02*
X14490000Y-5000000D01*
X14490000Y-4970000D02*
X14460000Y-5000000D01*
X14460000Y-5880000D02*
X14490000Y-5910000D01*
X14490000Y-5880000D02*
X14460000Y-5910000D01*
X14470000Y-8840000D02*
X14500000Y-8870000D01*
X14500000Y-8840000D02*
X14470000Y-8870000D01*
X14470000Y-9565000D02*
X14500000Y-9595000D01*
X14500000Y-9565000D02*
X14470000Y-9595000D01*
X14470000Y-11755000D02*
X14500000Y-11785000D01*
X14500000Y-11755000D02*
X14470000Y-11785000D01*
X14535000Y-6145000D02*
X14565000Y-6175000D01*
X14565000Y-6145000D02*
X14535000Y-6175000D01*
X14540000Y-9820000D02*
X14570000Y-9850000D01*
X14570000Y-9820000D02*
X14540000Y-9850000D01*
X14540000Y-11884000D02*
X14570000Y-11914000D01*
X14570000Y-11884000D02*
X14540000Y-11914000D01*
X14545000Y-8565000D02*
X14575000Y-8595000D01*
X14575000Y-8565000D02*
X14545000Y-8595000D01*
X14555000Y-4710000D02*
X14585000Y-4740000D01*
X14585000Y-4710000D02*
X14555000Y-4740000D01*
X14555000Y-5165000D02*
X14585000Y-5195000D01*
X14585000Y-5165000D02*
X14555000Y-5195000D01*
X14610000Y-6930000D02*
X14640000Y-6960000D01*
X14640000Y-6930000D02*
X14610000Y-6960000D01*
X14630000Y-12011000D02*
X14660000Y-12041000D01*
X14660000Y-12011000D02*
X14630000Y-12041000D01*
X14635000Y-6560000D02*
X14665000Y-6590000D01*
X14665000Y-6560000D02*
X14635000Y-6590000D01*
X14635000Y-9900000D02*
X14665000Y-9930000D01*
X14665000Y-9900000D02*
X14635000Y-9930000D01*
X14705000Y-8355000D02*
X14735000Y-8385000D01*
X14735000Y-8355000D02*
X14705000Y-8385000D01*
X14705000Y-9200000D02*
X14735000Y-9230000D01*
X14735000Y-9200000D02*
X14705000Y-9230000D01*
X14715000Y-11755000D02*
X14745000Y-11785000D01*
X14745000Y-11755000D02*
X14715000Y-11785000D01*
X14715000Y-12570000D02*
X14745000Y-12600000D01*
X14745000Y-12570000D02*
X14715000Y-12600000D01*
X14718000Y-10868000D02*
X14748000Y-10898000D01*
X14748000Y-10868000D02*
X14718000Y-10898000D01*
X14725000Y-7115000D02*
X14755000Y-7145000D01*
X14755000Y-7115000D02*
X14725000Y-7145000D01*
X14725000Y-7530000D02*
X14755000Y-7560000D01*
X14755000Y-7530000D02*
X14725000Y-7560000D01*
X14730000Y-9825000D02*
X14760000Y-9855000D01*
X14760000Y-9825000D02*
X14730000Y-9855000D01*
X14730000Y-10325000D02*
X14760000Y-10355000D01*
X14760000Y-10325000D02*
X14730000Y-10355000D01*
X14770000Y-4620000D02*
X14800000Y-4650000D01*
X14800000Y-4620000D02*
X14770000Y-4650000D01*
X14770000Y-5360000D02*
X14800000Y-5390000D01*
X14800000Y-5360000D02*
X14770000Y-5390000D01*
X14810000Y-9475000D02*
X14840000Y-9505000D01*
X14840000Y-9475000D02*
X14810000Y-9505000D01*
X14825000Y-8760000D02*
X14855000Y-8790000D01*
X14855000Y-8760000D02*
X14825000Y-8790000D01*
X14830000Y-6840000D02*
X14860000Y-6870000D01*
X14860000Y-6840000D02*
X14830000Y-6870000D01*
X14830000Y-8055000D02*
X14860000Y-8085000D01*
X14860000Y-8055000D02*
X14830000Y-8085000D01*
X14830000Y-8260000D02*
X14860000Y-8290000D01*
X14860000Y-8260000D02*
X14830000Y-8290000D01*
X14875000Y-4910000D02*
X14905000Y-4940000D01*
X14905000Y-4910000D02*
X14875000Y-4940000D01*
X14875000Y-6375000D02*
X14905000Y-6405000D01*
X14905000Y-6375000D02*
X14875000Y-6405000D01*
X14910000Y-9905000D02*
X14940000Y-9935000D01*
X14940000Y-9905000D02*
X14910000Y-9935000D01*
X14910000Y-10235000D02*
X14940000Y-10265000D01*
X14940000Y-10235000D02*
X14910000Y-10265000D01*
X14940000Y-6845000D02*
X14970000Y-6875000D01*
X14970000Y-6845000D02*
X14940000Y-6875000D01*
X14940000Y-8180000D02*
X14970000Y-8210000D01*
X14970000Y-8180000D02*
X14940000Y-8210000D01*
X14940000Y-9110000D02*
X14970000Y-9140000D01*
X14970000Y-9110000D02*
X14940000Y-9140000D01*
X15030000Y-7195000D02*
X15060000Y-7225000D01*
X15060000Y-7195000D02*
X15030000Y-7225000D01*
X15030000Y-9720000D02*
X15060000Y-9750000D01*
X15060000Y-9720000D02*
X15030000Y-9750000D01*
X15030000Y-10425000D02*
X15060000Y-10455000D01*
X15060000Y-10425000D02*
X15030000Y-10455000D01*
X15035000Y-8535000D02*
X15065000Y-8565000D01*
X15065000Y-8535000D02*
X15035000Y-8565000D01*
X15125000Y-10160000D02*
X15155000Y-10190000D01*
X15155000Y-10160000D02*
X15125000Y-10190000D01*
X15130000Y-7920000D02*
X15160000Y-7950000D01*
X15160000Y-7920000D02*
X15130000Y-7950000D01*
X15170000Y-11125000D02*
X15200000Y-11155000D01*
X15200000Y-11125000D02*
X15170000Y-11155000D01*
X15260000Y-8055000D02*
X15290000Y-8085000D01*
X15290000Y-8055000D02*
X15260000Y-8085000D01*
X15260000Y-9900000D02*
X15290000Y-9930000D01*
X15290000Y-9900000D02*
X15260000Y-9930000D01*
X15260000Y-11630000D02*
X15290000Y-11660000D01*
X15290000Y-11630000D02*
X15260000Y-11660000D01*
X15285000Y-6375000D02*
X15315000Y-6405000D01*
X15315000Y-6375000D02*
X15285000Y-6405000D01*
X15295000Y-7035000D02*
X15325000Y-7065000D01*
X15325000Y-7035000D02*
X15295000Y-7065000D01*
X15295000Y-7795000D02*
X15325000Y-7825000D01*
X15325000Y-7795000D02*
X15295000Y-7825000D01*
X15320000Y-12945000D02*
X15350000Y-12975000D01*
X15350000Y-12945000D02*
X15320000Y-12975000D01*
X15345000Y-11365000D02*
X15375000Y-11395000D01*
X15375000Y-11365000D02*
X15345000Y-11395000D01*
X15395000Y-4910000D02*
X15425000Y-4940000D01*
X15425000Y-4910000D02*
X15395000Y-4940000D01*
X15400000Y-6475000D02*
X15430000Y-6505000D01*
X15430000Y-6475000D02*
X15400000Y-6505000D01*
X15400000Y-8700000D02*
X15430000Y-8730000D01*
X15430000Y-8700000D02*
X15400000Y-8730000D01*
X15475000Y-9400000D02*
X15505000Y-9430000D01*
X15505000Y-9400000D02*
X15475000Y-9430000D01*
X15475000Y-10475000D02*
X15505000Y-10505000D01*
X15505000Y-10475000D02*
X15475000Y-10505000D01*
X15480000Y-7465000D02*
X15510000Y-7495000D01*
X15510000Y-7465000D02*
X15480000Y-7495000D01*
X15525000Y-6650000D02*
X15555000Y-6680000D01*
X15555000Y-6650000D02*
X15525000Y-6680000D01*
X15540000Y-11775000D02*
X15570000Y-11805000D01*
X15570000Y-11775000D02*
X15540000Y-11805000D01*
X15540000Y-12985000D02*
X15570000Y-13015000D01*
X15570000Y-12985000D02*
X15540000Y-13015000D01*
X15565000Y-8790000D02*
X15595000Y-8820000D01*
X15595000Y-8790000D02*
X15565000Y-8820000D01*
X15565000Y-11485000D02*
X15595000Y-11515000D01*
X15595000Y-11485000D02*
X15565000Y-11515000D01*
X15650000Y-5145000D02*
X15680000Y-5175000D01*
X15680000Y-5145000D02*
X15650000Y-5175000D01*
X15655000Y-9405000D02*
X15685000Y-9435000D01*
X15685000Y-9405000D02*
X15655000Y-9435000D01*
X15655000Y-11190000D02*
X15685000Y-11220000D01*
X15685000Y-11190000D02*
X15655000Y-11220000D01*
X15670000Y-11630000D02*
X15700000Y-11660000D01*
X15700000Y-11630000D02*
X15670000Y-11660000D01*
X15680000Y-11885000D02*
X15710000Y-11915000D01*
X15710000Y-11885000D02*
X15680000Y-11915000D01*
X15680000Y-12015000D02*
X15710000Y-12045000D01*
X15710000Y-12015000D02*
X15680000Y-12045000D01*
X15735000Y-8700000D02*
X15765000Y-8730000D01*
X15765000Y-8700000D02*
X15735000Y-8730000D01*
X15760000Y-7105000D02*
X15790000Y-7135000D01*
X15790000Y-7105000D02*
X15760000Y-7135000D01*
X15775000Y-6480000D02*
X15805000Y-6510000D01*
X15805000Y-6480000D02*
X15775000Y-6510000D01*
X15830000Y-7725000D02*
X15860000Y-7755000D01*
X15860000Y-7725000D02*
X15830000Y-7755000D01*
X15840000Y-7935000D02*
X15870000Y-7965000D01*
X15870000Y-7935000D02*
X15840000Y-7965000D01*
X15840000Y-8790000D02*
X15870000Y-8820000D01*
X15870000Y-8790000D02*
X15840000Y-8820000D01*
X15890000Y-9475000D02*
X15920000Y-9505000D01*
X15920000Y-9475000D02*
X15890000Y-9505000D01*
X15905000Y-4710000D02*
X15935000Y-4740000D01*
X15935000Y-4710000D02*
X15905000Y-4740000D01*
X15910000Y-10072500D02*
X15940000Y-10102500D01*
X15940000Y-10072500D02*
X15910000Y-10102500D01*
X15925000Y-5215000D02*
X15955000Y-5245000D01*
X15955000Y-5215000D02*
X15925000Y-5245000D01*
X15925000Y-8025000D02*
X15955000Y-8055000D01*
X15955000Y-8025000D02*
X15925000Y-8055000D01*
X15925000Y-8695000D02*
X15955000Y-8725000D01*
X15955000Y-8695000D02*
X15925000Y-8725000D01*
X16025000Y-5465000D02*
X16055000Y-5495000D01*
X16055000Y-5465000D02*
X16025000Y-5495000D01*
X16040000Y-9115000D02*
X16070000Y-9145000D01*
X16070000Y-9115000D02*
X16040000Y-9145000D01*
X16040000Y-10355000D02*
X16070000Y-10385000D01*
X16070000Y-10355000D02*
X16040000Y-10385000D01*
X16045000Y-6750000D02*
X16075000Y-6780000D01*
X16075000Y-6750000D02*
X16045000Y-6780000D01*
X16045000Y-8120000D02*
X16075000Y-8150000D01*
X16075000Y-8120000D02*
X16045000Y-8150000D01*
X16080000Y-10610000D02*
X16110000Y-10640000D01*
X16110000Y-10610000D02*
X16080000Y-10640000D01*
X16085000Y-12085000D02*
X16115000Y-12115000D01*
X16115000Y-12085000D02*
X16085000Y-12115000D01*
X16085000Y-12560000D02*
X16115000Y-12590000D01*
X16115000Y-12560000D02*
X16085000Y-12590000D01*
X16100000Y-11765000D02*
X16130000Y-11795000D01*
X16130000Y-11765000D02*
X16100000Y-11795000D01*
X16100000Y-11960000D02*
X16130000Y-11990000D01*
X16130000Y-11960000D02*
X16100000Y-11990000D01*
X16105000Y-7715000D02*
X16135000Y-7745000D01*
X16135000Y-7715000D02*
X16105000Y-7745000D01*
X16155000Y-5595000D02*
X16185000Y-5625000D01*
X16185000Y-5595000D02*
X16155000Y-5625000D01*
X16170000Y-10745000D02*
X16200000Y-10775000D01*
X16200000Y-10745000D02*
X16170000Y-10775000D01*
X16175000Y-5880000D02*
X16205000Y-5910000D01*
X16205000Y-5880000D02*
X16175000Y-5910000D01*
X16195000Y-11880000D02*
X16225000Y-11910000D01*
X16225000Y-11880000D02*
X16195000Y-11910000D01*
X16195000Y-12455000D02*
X16225000Y-12485000D01*
X16225000Y-12455000D02*
X16195000Y-12485000D01*
X16235000Y-7790000D02*
X16265000Y-7820000D01*
X16265000Y-7790000D02*
X16235000Y-7820000D01*
X16240000Y-10475000D02*
X16270000Y-10505000D01*
X16270000Y-10475000D02*
X16240000Y-10505000D01*
X16335000Y-9565000D02*
X16365000Y-9595000D01*
X16365000Y-9565000D02*
X16335000Y-9595000D01*
X16340000Y-9850000D02*
X16370000Y-9880000D01*
X16370000Y-9850000D02*
X16340000Y-9880000D01*
X16340000Y-11495000D02*
X16370000Y-11525000D01*
X16370000Y-11495000D02*
X16340000Y-11525000D01*
X16430000Y-11640000D02*
X16460000Y-11670000D01*
X16460000Y-11640000D02*
X16430000Y-11670000D01*
X16435000Y-8415000D02*
X16465000Y-8445000D01*
X16465000Y-8415000D02*
X16435000Y-8445000D01*
X16445000Y-7485000D02*
X16475000Y-7515000D01*
X16475000Y-7485000D02*
X16445000Y-7515000D01*
X16465000Y-6145000D02*
X16495000Y-6175000D01*
X16495000Y-6145000D02*
X16465000Y-6175000D01*
X16515000Y-8690000D02*
X16545000Y-8720000D01*
X16545000Y-8690000D02*
X16515000Y-8720000D01*
X16515000Y-11765000D02*
X16545000Y-11795000D01*
X16545000Y-11765000D02*
X16515000Y-11795000D01*
X16535000Y-8290000D02*
X16565000Y-8320000D01*
X16565000Y-8290000D02*
X16535000Y-8320000D01*
X16540000Y-6005000D02*
X16570000Y-6035000D01*
X16570000Y-6005000D02*
X16540000Y-6035000D01*
X16595000Y-9475000D02*
X16625000Y-9505000D01*
X16625000Y-9475000D02*
X16595000Y-9505000D01*
X16595000Y-10750000D02*
X16625000Y-10780000D01*
X16625000Y-10750000D02*
X16595000Y-10780000D01*
X16665000Y-7150000D02*
X16695000Y-7180000D01*
X16695000Y-7150000D02*
X16665000Y-7180000D01*
X16665000Y-7925000D02*
X16695000Y-7955000D01*
X16695000Y-7925000D02*
X16665000Y-7955000D01*
X16740000Y-5355000D02*
X16770000Y-5385000D01*
X16770000Y-5355000D02*
X16740000Y-5385000D01*
X16740000Y-12735000D02*
X16770000Y-12765000D01*
X16770000Y-12735000D02*
X16740000Y-12765000D01*
X16805000Y-8765000D02*
X16835000Y-8795000D01*
X16835000Y-8765000D02*
X16805000Y-8795000D01*
X16805000Y-11960000D02*
X16835000Y-11990000D01*
X16835000Y-11960000D02*
X16805000Y-11990000D01*
X16830000Y-7925000D02*
X16860000Y-7955000D01*
X16860000Y-7925000D02*
X16830000Y-7955000D01*
X16835000Y-6235000D02*
X16865000Y-6265000D01*
X16865000Y-6235000D02*
X16835000Y-6265000D01*
X16895000Y-9985000D02*
X16925000Y-10015000D01*
X16925000Y-9985000D02*
X16895000Y-10015000D01*
X16900000Y-7675000D02*
X16930000Y-7705000D01*
X16930000Y-7675000D02*
X16900000Y-7705000D01*
X16900000Y-8620000D02*
X16930000Y-8650000D01*
X16930000Y-8620000D02*
X16900000Y-8650000D01*
X16900000Y-8860000D02*
X16930000Y-8890000D01*
X16930000Y-8860000D02*
X16900000Y-8890000D01*
X16905000Y-5465000D02*
X16935000Y-5495000D01*
X16935000Y-5465000D02*
X16905000Y-5495000D01*
X16905000Y-7475000D02*
X16935000Y-7505000D01*
X16935000Y-7475000D02*
X16905000Y-7505000D01*
X16990000Y-7115000D02*
X17020000Y-7145000D01*
X17020000Y-7115000D02*
X16990000Y-7145000D01*
X16990000Y-7800000D02*
X17020000Y-7830000D01*
X17020000Y-7800000D02*
X16990000Y-7830000D01*
X17000000Y-5980000D02*
X17030000Y-6010000D01*
X17030000Y-5980000D02*
X17000000Y-6010000D01*
X17000000Y-8065000D02*
X17030000Y-8095000D01*
X17030000Y-8065000D02*
X17000000Y-8095000D01*
X17000000Y-10345000D02*
X17030000Y-10375000D01*
X17030000Y-10345000D02*
X17000000Y-10375000D01*
X17030000Y-12350000D02*
X17060000Y-12380000D01*
X17060000Y-12350000D02*
X17030000Y-12380000D01*
X17075000Y-6480000D02*
X17105000Y-6510000D01*
X17105000Y-6480000D02*
X17075000Y-6510000D01*
X17080000Y-7665000D02*
X17110000Y-7695000D01*
X17110000Y-7665000D02*
X17080000Y-7695000D01*
X17117000Y-11707000D02*
X17147000Y-11737000D01*
X17147000Y-11707000D02*
X17117000Y-11737000D01*
X17120000Y-9675000D02*
X17150000Y-9705000D01*
X17150000Y-9675000D02*
X17120000Y-9705000D01*
X17135000Y-5885000D02*
X17165000Y-5915000D01*
X17165000Y-5885000D02*
X17135000Y-5915000D01*
X17175000Y-6375000D02*
X17205000Y-6405000D01*
X17205000Y-6375000D02*
X17175000Y-6405000D01*
X17175000Y-7795000D02*
X17205000Y-7825000D01*
X17205000Y-7795000D02*
X17175000Y-7825000D01*
X17245000Y-12640000D02*
X17275000Y-12670000D01*
X17275000Y-12640000D02*
X17245000Y-12670000D01*
X17320000Y-11260000D02*
X17350000Y-11290000D01*
X17350000Y-11260000D02*
X17320000Y-11290000D01*
X17400000Y-6930000D02*
X17430000Y-6960000D01*
X17430000Y-6930000D02*
X17400000Y-6960000D01*
X17400000Y-8315000D02*
X17430000Y-8345000D01*
X17430000Y-8315000D02*
X17400000Y-8345000D01*
X17425000Y-8545000D02*
X17455000Y-8575000D01*
X17455000Y-8545000D02*
X17425000Y-8575000D01*
X17425000Y-9570000D02*
X17455000Y-9600000D01*
X17455000Y-9570000D02*
X17425000Y-9600000D01*
X17425000Y-11570000D02*
X17455000Y-11600000D01*
X17455000Y-11570000D02*
X17425000Y-11600000D01*
X17530000Y-5355000D02*
X17560000Y-5385000D01*
X17560000Y-5355000D02*
X17530000Y-5385000D01*
X17530000Y-12875000D02*
X17560000Y-12905000D01*
X17560000Y-12875000D02*
X17530000Y-12905000D01*
X17590000Y-11135000D02*
X17620000Y-11165000D01*
X17620000Y-11135000D02*
X17590000Y-11165000D01*
X17600000Y-8930000D02*
X17630000Y-8960000D01*
X17630000Y-8930000D02*
X17600000Y-8960000D01*
X17605000Y-12265000D02*
X17635000Y-12295000D01*
X17635000Y-12265000D02*
X17605000Y-12295000D01*
X17610000Y-9190000D02*
X17640000Y-9220000D01*
X17640000Y-9190000D02*
X17610000Y-9220000D01*
X17610000Y-9850000D02*
X17640000Y-9880000D01*
X17640000Y-9850000D02*
X17610000Y-9880000D01*
X17610000Y-11630000D02*
X17640000Y-11660000D01*
X17640000Y-11630000D02*
X17610000Y-11660000D01*
X17645000Y-5985000D02*
X17675000Y-6015000D01*
X17675000Y-5985000D02*
X17645000Y-6015000D01*
X17695000Y-8155000D02*
X17725000Y-8185000D01*
X17725000Y-8155000D02*
X17695000Y-8185000D01*
X17710000Y-10070000D02*
X17740000Y-10100000D01*
X17740000Y-10070000D02*
X17710000Y-10100000D01*
X17715000Y-10290000D02*
X17745000Y-10320000D01*
X17745000Y-10290000D02*
X17715000Y-10320000D01*
X17735000Y-11005000D02*
X17765000Y-11035000D01*
X17765000Y-11005000D02*
X17735000Y-11035000D01*
X17765000Y-4710000D02*
X17795000Y-4740000D01*
X17795000Y-4710000D02*
X17765000Y-4740000D01*
X17780000Y-7740000D02*
X17810000Y-7770000D01*
X17810000Y-7740000D02*
X17780000Y-7770000D01*
X17805000Y-8150000D02*
X17835000Y-8180000D01*
X17835000Y-8150000D02*
X17805000Y-8180000D01*
X17870000Y-5800000D02*
X17900000Y-5830000D01*
X17900000Y-5800000D02*
X17870000Y-5830000D01*
X17885000Y-5945000D02*
X17915000Y-5975000D01*
X17915000Y-5945000D02*
X17885000Y-5975000D01*
X17930000Y-11945000D02*
X17960000Y-11975000D01*
X17960000Y-11945000D02*
X17930000Y-11975000D01*
X17930000Y-12455000D02*
X17960000Y-12485000D01*
X17960000Y-12455000D02*
X17930000Y-12485000D01*
X17935000Y-8055000D02*
X17965000Y-8085000D01*
X17965000Y-8055000D02*
X17935000Y-8085000D01*
X17935000Y-9115000D02*
X17965000Y-9145000D01*
X17965000Y-9115000D02*
X17935000Y-9145000D01*
X17965000Y-9390000D02*
X17995000Y-9420000D01*
X17995000Y-9390000D02*
X17965000Y-9420000D01*
X17970000Y-10290000D02*
X18000000Y-10320000D01*
X18000000Y-10290000D02*
X17970000Y-10320000D01*
X18045000Y-5595000D02*
X18075000Y-5625000D01*
X18075000Y-5595000D02*
X18045000Y-5625000D01*
X18050000Y-5230000D02*
X18080000Y-5260000D01*
X18080000Y-5230000D02*
X18050000Y-5260000D01*
X18050000Y-12185000D02*
X18080000Y-12215000D01*
X18080000Y-12185000D02*
X18050000Y-12215000D01*
X18095000Y-7735000D02*
X18125000Y-7765000D01*
X18125000Y-7735000D02*
X18095000Y-7765000D01*
X18130000Y-7930000D02*
X18160000Y-7960000D01*
X18160000Y-7930000D02*
X18130000Y-7960000D01*
X18130000Y-9295000D02*
X18160000Y-9325000D01*
X18160000Y-9295000D02*
X18130000Y-9325000D01*
X18130000Y-10875000D02*
X18160000Y-10905000D01*
X18160000Y-10875000D02*
X18130000Y-10905000D01*
X18175000Y-6845000D02*
X18205000Y-6875000D01*
X18205000Y-6845000D02*
X18175000Y-6875000D01*
X18180000Y-12110000D02*
X18210000Y-12140000D01*
X18210000Y-12110000D02*
X18180000Y-12140000D01*
X18180000Y-12560000D02*
X18210000Y-12590000D01*
X18210000Y-12560000D02*
X18180000Y-12590000D01*
X18205000Y-9865000D02*
X18235000Y-9895000D01*
X18235000Y-9865000D02*
X18205000Y-9895000D01*
X18205000Y-11600000D02*
X18235000Y-11630000D01*
X18235000Y-11600000D02*
X18205000Y-11630000D01*
X18210000Y-9035000D02*
X18240000Y-9065000D01*
X18240000Y-9035000D02*
X18210000Y-9065000D01*
X18210000Y-9755000D02*
X18240000Y-9785000D01*
X18240000Y-9755000D02*
X18210000Y-9785000D01*
X18275000Y-8690000D02*
X18305000Y-8720000D01*
X18305000Y-8690000D02*
X18275000Y-8720000D01*
X18290000Y-11765000D02*
X18320000Y-11795000D01*
X18320000Y-11765000D02*
X18290000Y-11795000D01*
X18290000Y-12985000D02*
X18320000Y-13015000D01*
X18320000Y-12985000D02*
X18290000Y-13015000D01*
X18315000Y-4625000D02*
X18345000Y-4655000D01*
X18345000Y-4625000D02*
X18315000Y-4655000D01*
X18390000Y-12265000D02*
X18420000Y-12295000D01*
X18420000Y-12265000D02*
X18390000Y-12295000D01*
X18395000Y-4770000D02*
X18425000Y-4800000D01*
X18425000Y-4770000D02*
X18395000Y-4800000D01*
X18485000Y-8765000D02*
X18515000Y-8795000D01*
X18515000Y-8765000D02*
X18485000Y-8795000D01*
X18520000Y-11880000D02*
X18550000Y-11910000D01*
X18550000Y-11880000D02*
X18520000Y-11910000D01*
X18570000Y-5685000D02*
X18600000Y-5715000D01*
X18600000Y-5685000D02*
X18570000Y-5715000D01*
X18580000Y-5780000D02*
X18610000Y-5810000D01*
X18610000Y-5780000D02*
X18580000Y-5810000D01*
X18605000Y-9320000D02*
X18635000Y-9350000D01*
X18635000Y-9320000D02*
X18605000Y-9350000D01*
X18605000Y-9980000D02*
X18635000Y-10010000D01*
X18635000Y-9980000D02*
X18605000Y-10010000D01*
X18715000Y-11080000D02*
X18745000Y-11110000D01*
X18745000Y-11080000D02*
X18715000Y-11110000D01*
X18795000Y-9675000D02*
X18825000Y-9705000D01*
X18825000Y-9675000D02*
X18795000Y-9705000D01*
X18830000Y-10768750D02*
X18860000Y-10798750D01*
X18860000Y-10768750D02*
X18830000Y-10798750D01*
X19080000Y-5775000D02*
X19110000Y-5805000D01*
X19110000Y-5775000D02*
X19080000Y-5805000D01*
X19160000Y-8565000D02*
X19190000Y-8595000D01*
X19190000Y-8565000D02*
X19160000Y-8595000D01*
X19160000Y-9185000D02*
X19190000Y-9215000D01*
X19190000Y-9185000D02*
X19160000Y-9215000D01*
X19160000Y-11515000D02*
X19190000Y-11545000D01*
X19190000Y-11515000D02*
X19160000Y-11545000D01*
X18624000Y-12500000D02*
G75*
G02*
X18548000Y-12500000I-38000J0D01*
G01*
X18548000Y-12500000D02*
G75*
G02*
X18624000Y-12500000I38000J0D01*
G01*
X18878000Y-11992000D02*
G75*
G02*
X18802000Y-11992000I-38000J0D01*
G01*
X18802000Y-11992000D02*
G75*
G02*
X18878000Y-11992000I38000J0D01*
G01*
X19132000Y-12500000D02*
G75*
G02*
X19056000Y-12500000I-38000J0D01*
G01*
X19056000Y-12500000D02*
G75*
G02*
X19132000Y-12500000I38000J0D01*
G01*
X8700000Y-8760000D02*
X8700000Y-8840000D01*
X8660000Y-8800000D02*
X8740000Y-8800000D01*
X8830000Y-6876000D02*
X8830000Y-6956000D01*
X8790000Y-6916000D02*
X8870000Y-6916000D01*
X8830000Y-7130000D02*
X8830000Y-7210000D01*
X8790000Y-7170000D02*
X8870000Y-7170000D01*
X8830000Y-7384000D02*
X8830000Y-7464000D01*
X8790000Y-7424000D02*
X8870000Y-7424000D01*
X8950000Y-8760000D02*
X8950000Y-8840000D01*
X8910000Y-8800000D02*
X8990000Y-8800000D01*
X9274000Y-6876000D02*
X9274000Y-6956000D01*
X9234000Y-6916000D02*
X9314000Y-6916000D01*
X9274000Y-7130000D02*
X9274000Y-7210000D01*
X9234000Y-7170000D02*
X9314000Y-7170000D01*
X9274000Y-7384000D02*
X9274000Y-7464000D01*
X9234000Y-7424000D02*
X9314000Y-7424000D01*
X9340000Y-12659489D02*
X9340000Y-12739489D01*
X9300000Y-12699489D02*
X9380000Y-12699489D01*
X9340000Y-12909489D02*
X9340000Y-12989489D01*
X9300000Y-12949489D02*
X9380000Y-12949489D01*
X18930000Y-9920000D02*
X18930000Y-10000000D01*
X18890000Y-9960000D02*
X18970000Y-9960000D01*
X18930000Y-10174000D02*
X18930000Y-10254000D01*
X18890000Y-10214000D02*
X18970000Y-10214000D01*
X18930000Y-10428000D02*
X18930000Y-10508000D01*
X18890000Y-10468000D02*
X18970000Y-10468000D01*
X9171820Y-11516820D02*
X9171820Y-11453180D01*
X9108180Y-11453180D01*
X9108180Y-11516820D01*
X9171820Y-11516820D01*
X9171820Y-12016820D02*
X9171820Y-11953180D01*
X9108180Y-11953180D01*
X9108180Y-12016820D01*
X9171820Y-12016820D01*
X9431820Y-9984320D02*
X9431820Y-9920680D01*
X9368180Y-9920680D01*
X9368180Y-9984320D01*
X9431820Y-9984320D01*
X9431820Y-10238320D02*
X9431820Y-10174680D01*
X9368180Y-10174680D01*
X9368180Y-10238320D01*
X9431820Y-10238320D01*
X9671820Y-11516820D02*
X9671820Y-11453180D01*
X9608180Y-11453180D01*
X9608180Y-11516820D01*
X9671820Y-11516820D01*
X9671820Y-12016820D02*
X9671820Y-11953180D01*
X9608180Y-11953180D01*
X9608180Y-12016820D01*
X9671820Y-12016820D01*
X18996820Y-9105320D02*
X18996820Y-9041680D01*
X18933180Y-9041680D01*
X18933180Y-9105320D01*
X18996820Y-9105320D01*
X18996820Y-9359320D02*
X18996820Y-9295680D01*
X18933180Y-9295680D01*
X18933180Y-9359320D01*
X18996820Y-9359320D01*
D13*
X8806000Y-3966500D02*
X8860500Y-3912000D01*
X8806000Y-3857500D01*
X8751500Y-3912000D01*
X8806000Y-3966500D01*
X8806000Y-4474500D02*
X8860500Y-4420000D01*
X8806000Y-4365500D01*
X8751500Y-4420000D01*
X8806000Y-4474500D01*
X9060000Y-3966500D02*
X9114500Y-3912000D01*
X9060000Y-3857500D01*
X9005500Y-3912000D01*
X9060000Y-3966500D01*
X9060000Y-4474500D02*
X9114500Y-4420000D01*
X9060000Y-4365500D01*
X9005500Y-4420000D01*
X9060000Y-4474500D01*
X9314000Y-3966500D02*
X9368500Y-3912000D01*
X9314000Y-3857500D01*
X9259500Y-3912000D01*
X9314000Y-3966500D01*
X9314000Y-4474500D02*
X9368500Y-4420000D01*
X9314000Y-4365500D01*
X9259500Y-4420000D01*
X9314000Y-4474500D01*
X9568000Y-3966500D02*
X9622500Y-3912000D01*
X9568000Y-3857500D01*
X9513500Y-3912000D01*
X9568000Y-3966500D01*
X9568000Y-4474500D02*
X9622500Y-4420000D01*
X9568000Y-4365500D01*
X9513500Y-4420000D01*
X9568000Y-4474500D01*
X9822000Y-3966500D02*
X9876500Y-3912000D01*
X9822000Y-3857500D01*
X9767500Y-3912000D01*
X9822000Y-3966500D01*
X9822000Y-4474500D02*
X9876500Y-4420000D01*
X9822000Y-4365500D01*
X9767500Y-4420000D01*
X9822000Y-4474500D01*
X10076000Y-3966500D02*
X10130500Y-3912000D01*
X10076000Y-3857500D01*
X10021500Y-3912000D01*
X10076000Y-3966500D01*
X10076000Y-4474500D02*
X10130500Y-4420000D01*
X10076000Y-4365500D01*
X10021500Y-4420000D01*
X10076000Y-4474500D01*
X10330000Y-3966500D02*
X10384500Y-3912000D01*
X10330000Y-3857500D01*
X10275500Y-3912000D01*
X10330000Y-3966500D01*
X10330000Y-4474500D02*
X10384500Y-4420000D01*
X10330000Y-4365500D01*
X10275500Y-4420000D01*
X10330000Y-4474500D01*
X10584000Y-3966500D02*
X10638500Y-3912000D01*
X10584000Y-3857500D01*
X10529500Y-3912000D01*
X10584000Y-3966500D01*
X10584000Y-4474500D02*
X10638500Y-4420000D01*
X10584000Y-4365500D01*
X10529500Y-4420000D01*
X10584000Y-4474500D01*
X10838000Y-3966500D02*
X10892500Y-3912000D01*
X10838000Y-3857500D01*
X10783500Y-3912000D01*
X10838000Y-3966500D01*
X10838000Y-4474500D02*
X10892500Y-4420000D01*
X10838000Y-4365500D01*
X10783500Y-4420000D01*
X10838000Y-4474500D01*
X11092000Y-3966500D02*
X11146500Y-3912000D01*
X11092000Y-3857500D01*
X11037500Y-3912000D01*
X11092000Y-3966500D01*
X11092000Y-4474500D02*
X11146500Y-4420000D01*
X11092000Y-4365500D01*
X11037500Y-4420000D01*
X11092000Y-4474500D01*
X11346000Y-3966500D02*
X11400500Y-3912000D01*
X11346000Y-3857500D01*
X11291500Y-3912000D01*
X11346000Y-3966500D01*
X11346000Y-4474500D02*
X11400500Y-4420000D01*
X11346000Y-4365500D01*
X11291500Y-4420000D01*
X11346000Y-4474500D01*
X11600000Y-3966500D02*
X11654500Y-3912000D01*
X11600000Y-3857500D01*
X11545500Y-3912000D01*
X11600000Y-3966500D01*
X11600000Y-4474500D02*
X11654500Y-4420000D01*
X11600000Y-4365500D01*
X11545500Y-4420000D01*
X11600000Y-4474500D01*
X11854000Y-3966500D02*
X11908500Y-3912000D01*
X11854000Y-3857500D01*
X11799500Y-3912000D01*
X11854000Y-3966500D01*
X11854000Y-4474500D02*
X11908500Y-4420000D01*
X11854000Y-4365500D01*
X11799500Y-4420000D01*
X11854000Y-4474500D01*
X12108000Y-3966500D02*
X12162500Y-3912000D01*
X12108000Y-3857500D01*
X12053500Y-3912000D01*
X12108000Y-3966500D01*
X12108000Y-4474500D02*
X12162500Y-4420000D01*
X12108000Y-4365500D01*
X12053500Y-4420000D01*
X12108000Y-4474500D01*
X12362000Y-3966500D02*
X12416500Y-3912000D01*
X12362000Y-3857500D01*
X12307500Y-3912000D01*
X12362000Y-3966500D01*
X12362000Y-4474500D02*
X12416500Y-4420000D01*
X12362000Y-4365500D01*
X12307500Y-4420000D01*
X12362000Y-4474500D01*
X12616000Y-3966500D02*
X12670500Y-3912000D01*
X12616000Y-3857500D01*
X12561500Y-3912000D01*
X12616000Y-3966500D01*
X12616000Y-4474500D02*
X12670500Y-4420000D01*
X12616000Y-4365500D01*
X12561500Y-4420000D01*
X12616000Y-4474500D01*
X12870000Y-3966500D02*
X12924500Y-3912000D01*
X12870000Y-3857500D01*
X12815500Y-3912000D01*
X12870000Y-3966500D01*
X12870000Y-4474500D02*
X12924500Y-4420000D01*
X12870000Y-4365500D01*
X12815500Y-4420000D01*
X12870000Y-4474500D01*
X13124000Y-3966500D02*
X13178500Y-3912000D01*
X13124000Y-3857500D01*
X13069500Y-3912000D01*
X13124000Y-3966500D01*
X13124000Y-4474500D02*
X13178500Y-4420000D01*
X13124000Y-4365500D01*
X13069500Y-4420000D01*
X13124000Y-4474500D01*
X13378000Y-3966500D02*
X13432500Y-3912000D01*
X13378000Y-3857500D01*
X13323500Y-3912000D01*
X13378000Y-3966500D01*
X13378000Y-4474500D02*
X13432500Y-4420000D01*
X13378000Y-4365500D01*
X13323500Y-4420000D01*
X13378000Y-4474500D01*
X13632000Y-3966500D02*
X13686500Y-3912000D01*
X13632000Y-3857500D01*
X13577500Y-3912000D01*
X13632000Y-3966500D01*
X13632000Y-4474500D02*
X13686500Y-4420000D01*
X13632000Y-4365500D01*
X13577500Y-4420000D01*
X13632000Y-4474500D01*
X13886000Y-3966500D02*
X13940500Y-3912000D01*
X13886000Y-3857500D01*
X13831500Y-3912000D01*
X13886000Y-3966500D01*
X13886000Y-4474500D02*
X13940500Y-4420000D01*
X13886000Y-4365500D01*
X13831500Y-4420000D01*
X13886000Y-4474500D01*
X14140000Y-3966500D02*
X14194500Y-3912000D01*
X14140000Y-3857500D01*
X14085500Y-3912000D01*
X14140000Y-3966500D01*
X14140000Y-4474500D02*
X14194500Y-4420000D01*
X14140000Y-4365500D01*
X14085500Y-4420000D01*
X14140000Y-4474500D01*
X14394000Y-3966500D02*
X14448500Y-3912000D01*
X14394000Y-3857500D01*
X14339500Y-3912000D01*
X14394000Y-3966500D01*
X14394000Y-4474500D02*
X14448500Y-4420000D01*
X14394000Y-4365500D01*
X14339500Y-4420000D01*
X14394000Y-4474500D01*
X14648000Y-3966500D02*
X14702500Y-3912000D01*
X14648000Y-3857500D01*
X14593500Y-3912000D01*
X14648000Y-3966500D01*
X14648000Y-4474500D02*
X14702500Y-4420000D01*
X14648000Y-4365500D01*
X14593500Y-4420000D01*
X14648000Y-4474500D01*
X14902000Y-3966500D02*
X14956500Y-3912000D01*
X14902000Y-3857500D01*
X14847500Y-3912000D01*
X14902000Y-3966500D01*
X14902000Y-4474500D02*
X14956500Y-4420000D01*
X14902000Y-4365500D01*
X14847500Y-4420000D01*
X14902000Y-4474500D01*
X15156000Y-3966500D02*
X15210500Y-3912000D01*
X15156000Y-3857500D01*
X15101500Y-3912000D01*
X15156000Y-3966500D01*
X15156000Y-4474500D02*
X15210500Y-4420000D01*
X15156000Y-4365500D01*
X15101500Y-4420000D01*
X15156000Y-4474500D01*
X15410000Y-3966500D02*
X15464500Y-3912000D01*
X15410000Y-3857500D01*
X15355500Y-3912000D01*
X15410000Y-3966500D01*
X15410000Y-4474500D02*
X15464500Y-4420000D01*
X15410000Y-4365500D01*
X15355500Y-4420000D01*
X15410000Y-4474500D01*
X15664000Y-3966500D02*
X15718500Y-3912000D01*
X15664000Y-3857500D01*
X15609500Y-3912000D01*
X15664000Y-3966500D01*
X15664000Y-4474500D02*
X15718500Y-4420000D01*
X15664000Y-4365500D01*
X15609500Y-4420000D01*
X15664000Y-4474500D01*
X15918000Y-3966500D02*
X15972500Y-3912000D01*
X15918000Y-3857500D01*
X15863500Y-3912000D01*
X15918000Y-3966500D01*
X15918000Y-4474500D02*
X15972500Y-4420000D01*
X15918000Y-4365500D01*
X15863500Y-4420000D01*
X15918000Y-4474500D01*
X16172000Y-3966500D02*
X16226500Y-3912000D01*
X16172000Y-3857500D01*
X16117500Y-3912000D01*
X16172000Y-3966500D01*
X16172000Y-4474500D02*
X16226500Y-4420000D01*
X16172000Y-4365500D01*
X16117500Y-4420000D01*
X16172000Y-4474500D01*
X16426000Y-3966500D02*
X16480500Y-3912000D01*
X16426000Y-3857500D01*
X16371500Y-3912000D01*
X16426000Y-3966500D01*
X16426000Y-4474500D02*
X16480500Y-4420000D01*
X16426000Y-4365500D01*
X16371500Y-4420000D01*
X16426000Y-4474500D01*
X16680000Y-3966500D02*
X16734500Y-3912000D01*
X16680000Y-3857500D01*
X16625500Y-3912000D01*
X16680000Y-3966500D01*
X16680000Y-4474500D02*
X16734500Y-4420000D01*
X16680000Y-4365500D01*
X16625500Y-4420000D01*
X16680000Y-4474500D01*
X16934000Y-3966500D02*
X16988500Y-3912000D01*
X16934000Y-3857500D01*
X16879500Y-3912000D01*
X16934000Y-3966500D01*
X16934000Y-4474500D02*
X16988500Y-4420000D01*
X16934000Y-4365500D01*
X16879500Y-4420000D01*
X16934000Y-4474500D01*
X17188000Y-3966500D02*
X17242500Y-3912000D01*
X17188000Y-3857500D01*
X17133500Y-3912000D01*
X17188000Y-3966500D01*
X17188000Y-4474500D02*
X17242500Y-4420000D01*
X17188000Y-4365500D01*
X17133500Y-4420000D01*
X17188000Y-4474500D01*
X17442000Y-3966500D02*
X17496500Y-3912000D01*
X17442000Y-3857500D01*
X17387500Y-3912000D01*
X17442000Y-3966500D01*
X17442000Y-4474500D02*
X17496500Y-4420000D01*
X17442000Y-4365500D01*
X17387500Y-4420000D01*
X17442000Y-4474500D01*
X17696000Y-3966500D02*
X17750500Y-3912000D01*
X17696000Y-3857500D01*
X17641500Y-3912000D01*
X17696000Y-3966500D01*
X17696000Y-4474500D02*
X17750500Y-4420000D01*
X17696000Y-4365500D01*
X17641500Y-4420000D01*
X17696000Y-4474500D01*
X17950000Y-3966500D02*
X18004500Y-3912000D01*
X17950000Y-3857500D01*
X17895500Y-3912000D01*
X17950000Y-3966500D01*
X17950000Y-4474500D02*
X18004500Y-4420000D01*
X17950000Y-4365500D01*
X17895500Y-4420000D01*
X17950000Y-4474500D01*
X18204000Y-3966500D02*
X18258500Y-3912000D01*
X18204000Y-3857500D01*
X18149500Y-3912000D01*
X18204000Y-3966500D01*
X18204000Y-4474500D02*
X18258500Y-4420000D01*
X18204000Y-4365500D01*
X18149500Y-4420000D01*
X18204000Y-4474500D01*
X18458000Y-3966500D02*
X18512500Y-3912000D01*
X18458000Y-3857500D01*
X18403500Y-3912000D01*
X18458000Y-3966500D01*
X18458000Y-4474500D02*
X18512500Y-4420000D01*
X18458000Y-4365500D01*
X18403500Y-4420000D01*
X18458000Y-4474500D01*
X18712000Y-3966500D02*
X18766500Y-3912000D01*
X18712000Y-3857500D01*
X18657500Y-3912000D01*
X18712000Y-3966500D01*
X18712000Y-4474500D02*
X18766500Y-4420000D01*
X18712000Y-4365500D01*
X18657500Y-4420000D01*
X18712000Y-4474500D01*
X18966000Y-3966500D02*
X19020500Y-3912000D01*
X18966000Y-3857500D01*
X18911500Y-3912000D01*
X18966000Y-3966500D01*
X18966000Y-4474500D02*
X19020500Y-4420000D01*
X18966000Y-4365500D01*
X18911500Y-4420000D01*
X18966000Y-4474500D01*
X19220000Y-3966500D02*
X19274500Y-3912000D01*
X19220000Y-3857500D01*
X19165500Y-3912000D01*
X19220000Y-3966500D01*
X19220000Y-4474500D02*
X19274500Y-4420000D01*
X19220000Y-4365500D01*
X19165500Y-4420000D01*
X19220000Y-4474500D01*
X19474000Y-3966500D02*
X19528500Y-3912000D01*
X19474000Y-3857500D01*
X19419500Y-3912000D01*
X19474000Y-3966500D01*
X19474000Y-4474500D02*
X19528500Y-4420000D01*
X19474000Y-4365500D01*
X19419500Y-4420000D01*
X19474000Y-4474500D01*
D11*
X8698277Y-13603984D02*
X8698277Y-13403984D01*
X8698277Y-13403984D02*
X8745896Y-13403984D01*
X8745896Y-13403984D02*
X8774467Y-13413508D01*
X8774467Y-13413508D02*
X8793515Y-13432555D01*
X8793515Y-13432555D02*
X8803039Y-13451603D01*
X8803039Y-13451603D02*
X8812563Y-13489698D01*
X8812563Y-13489698D02*
X8812563Y-13518269D01*
X8812563Y-13518269D02*
X8803039Y-13556365D01*
X8803039Y-13556365D02*
X8793515Y-13575412D01*
X8793515Y-13575412D02*
X8774467Y-13594460D01*
X8774467Y-13594460D02*
X8745896Y-13603984D01*
X8745896Y-13603984D02*
X8698277Y-13603984D01*
X8898277Y-13603984D02*
X8898277Y-13470650D01*
X8898277Y-13508746D02*
X8907801Y-13489698D01*
X8907801Y-13489698D02*
X8917324Y-13480174D01*
X8917324Y-13480174D02*
X8936372Y-13470650D01*
X8936372Y-13470650D02*
X8955420Y-13470650D01*
X9022086Y-13603984D02*
X9022086Y-13470650D01*
X9022086Y-13403984D02*
X9012563Y-13413508D01*
X9012563Y-13413508D02*
X9022086Y-13423031D01*
X9022086Y-13423031D02*
X9031610Y-13413508D01*
X9031610Y-13413508D02*
X9022086Y-13403984D01*
X9022086Y-13403984D02*
X9022086Y-13423031D01*
X9145896Y-13603984D02*
X9126848Y-13594460D01*
X9126848Y-13594460D02*
X9117324Y-13575412D01*
X9117324Y-13575412D02*
X9117324Y-13403984D01*
X9250658Y-13603984D02*
X9231610Y-13594460D01*
X9231610Y-13594460D02*
X9222086Y-13575412D01*
X9222086Y-13575412D02*
X9222086Y-13403984D01*
X9479229Y-13603984D02*
X9479229Y-13403984D01*
X9479229Y-13403984D02*
X9545896Y-13546841D01*
X9545896Y-13546841D02*
X9612563Y-13403984D01*
X9612563Y-13403984D02*
X9612563Y-13603984D01*
X9793515Y-13603984D02*
X9793515Y-13499222D01*
X9793515Y-13499222D02*
X9783991Y-13480174D01*
X9783991Y-13480174D02*
X9764944Y-13470650D01*
X9764944Y-13470650D02*
X9726848Y-13470650D01*
X9726848Y-13470650D02*
X9707801Y-13480174D01*
X9793515Y-13594460D02*
X9774467Y-13603984D01*
X9774467Y-13603984D02*
X9726848Y-13603984D01*
X9726848Y-13603984D02*
X9707801Y-13594460D01*
X9707801Y-13594460D02*
X9698277Y-13575412D01*
X9698277Y-13575412D02*
X9698277Y-13556365D01*
X9698277Y-13556365D02*
X9707801Y-13537317D01*
X9707801Y-13537317D02*
X9726848Y-13527793D01*
X9726848Y-13527793D02*
X9774467Y-13527793D01*
X9774467Y-13527793D02*
X9793515Y-13518269D01*
X9888753Y-13470650D02*
X9888753Y-13670650D01*
X9888753Y-13480174D02*
X9907801Y-13470650D01*
X9907801Y-13470650D02*
X9945896Y-13470650D01*
X9945896Y-13470650D02*
X9964944Y-13480174D01*
X9964944Y-13480174D02*
X9974467Y-13489698D01*
X9974467Y-13489698D02*
X9983991Y-13508746D01*
X9983991Y-13508746D02*
X9983991Y-13565888D01*
X9983991Y-13565888D02*
X9974467Y-13584936D01*
X9974467Y-13584936D02*
X9964944Y-13594460D01*
X9964944Y-13594460D02*
X9945896Y-13603984D01*
X9945896Y-13603984D02*
X9907801Y-13603984D01*
X9907801Y-13603984D02*
X9888753Y-13594460D01*
X10069705Y-13584936D02*
X10079229Y-13594460D01*
X10079229Y-13594460D02*
X10069705Y-13603984D01*
X10069705Y-13603984D02*
X10060182Y-13594460D01*
X10060182Y-13594460D02*
X10069705Y-13584936D01*
X10069705Y-13584936D02*
X10069705Y-13603984D01*
X10069705Y-13480174D02*
X10079229Y-13489698D01*
X10079229Y-13489698D02*
X10069705Y-13499222D01*
X10069705Y-13499222D02*
X10060182Y-13489698D01*
X10060182Y-13489698D02*
X10069705Y-13480174D01*
X10069705Y-13480174D02*
X10069705Y-13499222D01*
D12*
X8407500Y-13917500D02*
X8437500Y-13947500D01*
X8437500Y-13917500D02*
X8407500Y-13947500D01*
D11*
X8736372Y-13823984D02*
X8755420Y-13823984D01*
X8755420Y-13823984D02*
X8774467Y-13833508D01*
X8774467Y-13833508D02*
X8783991Y-13843031D01*
X8783991Y-13843031D02*
X8793515Y-13862079D01*
X8793515Y-13862079D02*
X8803039Y-13900174D01*
X8803039Y-13900174D02*
X8803039Y-13947793D01*
X8803039Y-13947793D02*
X8793515Y-13985888D01*
X8793515Y-13985888D02*
X8783991Y-14004936D01*
X8783991Y-14004936D02*
X8774467Y-14014460D01*
X8774467Y-14014460D02*
X8755420Y-14023984D01*
X8755420Y-14023984D02*
X8736372Y-14023984D01*
X8736372Y-14023984D02*
X8717324Y-14014460D01*
X8717324Y-14014460D02*
X8707801Y-14004936D01*
X8707801Y-14004936D02*
X8698277Y-13985888D01*
X8698277Y-13985888D02*
X8688753Y-13947793D01*
X8688753Y-13947793D02*
X8688753Y-13900174D01*
X8688753Y-13900174D02*
X8698277Y-13862079D01*
X8698277Y-13862079D02*
X8707801Y-13843031D01*
X8707801Y-13843031D02*
X8717324Y-13833508D01*
X8717324Y-13833508D02*
X8736372Y-13823984D01*
X8888753Y-14004936D02*
X8898277Y-14014460D01*
X8898277Y-14014460D02*
X8888753Y-14023984D01*
X8888753Y-14023984D02*
X8879229Y-14014460D01*
X8879229Y-14014460D02*
X8888753Y-14004936D01*
X8888753Y-14004936D02*
X8888753Y-14023984D01*
X8964944Y-13823984D02*
X9088753Y-13823984D01*
X9088753Y-13823984D02*
X9022086Y-13900174D01*
X9022086Y-13900174D02*
X9050658Y-13900174D01*
X9050658Y-13900174D02*
X9069705Y-13909698D01*
X9069705Y-13909698D02*
X9079229Y-13919222D01*
X9079229Y-13919222D02*
X9088753Y-13938269D01*
X9088753Y-13938269D02*
X9088753Y-13985888D01*
X9088753Y-13985888D02*
X9079229Y-14004936D01*
X9079229Y-14004936D02*
X9069705Y-14014460D01*
X9069705Y-14014460D02*
X9050658Y-14023984D01*
X9050658Y-14023984D02*
X8993515Y-14023984D01*
X8993515Y-14023984D02*
X8974467Y-14014460D01*
X8974467Y-14014460D02*
X8964944Y-14004936D01*
X9212563Y-13823984D02*
X9231610Y-13823984D01*
X9231610Y-13823984D02*
X9250658Y-13833508D01*
X9250658Y-13833508D02*
X9260182Y-13843031D01*
X9260182Y-13843031D02*
X9269705Y-13862079D01*
X9269705Y-13862079D02*
X9279229Y-13900174D01*
X9279229Y-13900174D02*
X9279229Y-13947793D01*
X9279229Y-13947793D02*
X9269705Y-13985888D01*
X9269705Y-13985888D02*
X9260182Y-14004936D01*
X9260182Y-14004936D02*
X9250658Y-14014460D01*
X9250658Y-14014460D02*
X9231610Y-14023984D01*
X9231610Y-14023984D02*
X9212563Y-14023984D01*
X9212563Y-14023984D02*
X9193515Y-14014460D01*
X9193515Y-14014460D02*
X9183991Y-14004936D01*
X9183991Y-14004936D02*
X9174467Y-13985888D01*
X9174467Y-13985888D02*
X9164944Y-13947793D01*
X9164944Y-13947793D02*
X9164944Y-13900174D01*
X9164944Y-13900174D02*
X9174467Y-13862079D01*
X9174467Y-13862079D02*
X9183991Y-13843031D01*
X9183991Y-13843031D02*
X9193515Y-13833508D01*
X9193515Y-13833508D02*
X9212563Y-13823984D01*
X9403039Y-13823984D02*
X9422086Y-13823984D01*
X9422086Y-13823984D02*
X9441134Y-13833508D01*
X9441134Y-13833508D02*
X9450658Y-13843031D01*
X9450658Y-13843031D02*
X9460182Y-13862079D01*
X9460182Y-13862079D02*
X9469705Y-13900174D01*
X9469705Y-13900174D02*
X9469705Y-13947793D01*
X9469705Y-13947793D02*
X9460182Y-13985888D01*
X9460182Y-13985888D02*
X9450658Y-14004936D01*
X9450658Y-14004936D02*
X9441134Y-14014460D01*
X9441134Y-14014460D02*
X9422086Y-14023984D01*
X9422086Y-14023984D02*
X9403039Y-14023984D01*
X9403039Y-14023984D02*
X9383991Y-14014460D01*
X9383991Y-14014460D02*
X9374467Y-14004936D01*
X9374467Y-14004936D02*
X9364944Y-13985888D01*
X9364944Y-13985888D02*
X9355420Y-13947793D01*
X9355420Y-13947793D02*
X9355420Y-13900174D01*
X9355420Y-13900174D02*
X9364944Y-13862079D01*
X9364944Y-13862079D02*
X9374467Y-13843031D01*
X9374467Y-13843031D02*
X9383991Y-13833508D01*
X9383991Y-13833508D02*
X9403039Y-13823984D01*
X9555420Y-14023984D02*
X9555420Y-13890650D01*
X9555420Y-13909698D02*
X9564944Y-13900174D01*
X9564944Y-13900174D02*
X9583991Y-13890650D01*
X9583991Y-13890650D02*
X9612563Y-13890650D01*
X9612563Y-13890650D02*
X9631610Y-13900174D01*
X9631610Y-13900174D02*
X9641134Y-13919222D01*
X9641134Y-13919222D02*
X9641134Y-14023984D01*
X9641134Y-13919222D02*
X9650658Y-13900174D01*
X9650658Y-13900174D02*
X9669705Y-13890650D01*
X9669705Y-13890650D02*
X9698277Y-13890650D01*
X9698277Y-13890650D02*
X9717325Y-13900174D01*
X9717325Y-13900174D02*
X9726848Y-13919222D01*
X9726848Y-13919222D02*
X9726848Y-14023984D01*
X9822086Y-14023984D02*
X9822086Y-13890650D01*
X9822086Y-13909698D02*
X9831610Y-13900174D01*
X9831610Y-13900174D02*
X9850658Y-13890650D01*
X9850658Y-13890650D02*
X9879229Y-13890650D01*
X9879229Y-13890650D02*
X9898277Y-13900174D01*
X9898277Y-13900174D02*
X9907801Y-13919222D01*
X9907801Y-13919222D02*
X9907801Y-14023984D01*
X9907801Y-13919222D02*
X9917325Y-13900174D01*
X9917325Y-13900174D02*
X9936372Y-13890650D01*
X9936372Y-13890650D02*
X9964944Y-13890650D01*
X9964944Y-13890650D02*
X9983991Y-13900174D01*
X9983991Y-13900174D02*
X9993515Y-13919222D01*
X9993515Y-13919222D02*
X9993515Y-14023984D01*
X10383991Y-13814460D02*
X10212563Y-14071603D01*
X10641134Y-13823984D02*
X10660182Y-13823984D01*
X10660182Y-13823984D02*
X10679229Y-13833508D01*
X10679229Y-13833508D02*
X10688753Y-13843031D01*
X10688753Y-13843031D02*
X10698277Y-13862079D01*
X10698277Y-13862079D02*
X10707801Y-13900174D01*
X10707801Y-13900174D02*
X10707801Y-13947793D01*
X10707801Y-13947793D02*
X10698277Y-13985888D01*
X10698277Y-13985888D02*
X10688753Y-14004936D01*
X10688753Y-14004936D02*
X10679229Y-14014460D01*
X10679229Y-14014460D02*
X10660182Y-14023984D01*
X10660182Y-14023984D02*
X10641134Y-14023984D01*
X10641134Y-14023984D02*
X10622087Y-14014460D01*
X10622087Y-14014460D02*
X10612563Y-14004936D01*
X10612563Y-14004936D02*
X10603039Y-13985888D01*
X10603039Y-13985888D02*
X10593515Y-13947793D01*
X10593515Y-13947793D02*
X10593515Y-13900174D01*
X10593515Y-13900174D02*
X10603039Y-13862079D01*
X10603039Y-13862079D02*
X10612563Y-13843031D01*
X10612563Y-13843031D02*
X10622087Y-13833508D01*
X10622087Y-13833508D02*
X10641134Y-13823984D01*
X10793515Y-14004936D02*
X10803039Y-14014460D01*
X10803039Y-14014460D02*
X10793515Y-14023984D01*
X10793515Y-14023984D02*
X10783991Y-14014460D01*
X10783991Y-14014460D02*
X10793515Y-14004936D01*
X10793515Y-14004936D02*
X10793515Y-14023984D01*
X10926848Y-13823984D02*
X10945896Y-13823984D01*
X10945896Y-13823984D02*
X10964944Y-13833508D01*
X10964944Y-13833508D02*
X10974468Y-13843031D01*
X10974468Y-13843031D02*
X10983991Y-13862079D01*
X10983991Y-13862079D02*
X10993515Y-13900174D01*
X10993515Y-13900174D02*
X10993515Y-13947793D01*
X10993515Y-13947793D02*
X10983991Y-13985888D01*
X10983991Y-13985888D02*
X10974468Y-14004936D01*
X10974468Y-14004936D02*
X10964944Y-14014460D01*
X10964944Y-14014460D02*
X10945896Y-14023984D01*
X10945896Y-14023984D02*
X10926848Y-14023984D01*
X10926848Y-14023984D02*
X10907801Y-14014460D01*
X10907801Y-14014460D02*
X10898277Y-14004936D01*
X10898277Y-14004936D02*
X10888753Y-13985888D01*
X10888753Y-13985888D02*
X10879229Y-13947793D01*
X10879229Y-13947793D02*
X10879229Y-13900174D01*
X10879229Y-13900174D02*
X10888753Y-13862079D01*
X10888753Y-13862079D02*
X10898277Y-13843031D01*
X10898277Y-13843031D02*
X10907801Y-13833508D01*
X10907801Y-13833508D02*
X10926848Y-13823984D01*
X11183991Y-14023984D02*
X11069706Y-14023984D01*
X11126848Y-14023984D02*
X11126848Y-13823984D01*
X11126848Y-13823984D02*
X11107801Y-13852555D01*
X11107801Y-13852555D02*
X11088753Y-13871603D01*
X11088753Y-13871603D02*
X11069706Y-13881127D01*
X11374467Y-14023984D02*
X11260182Y-14023984D01*
X11317325Y-14023984D02*
X11317325Y-13823984D01*
X11317325Y-13823984D02*
X11298277Y-13852555D01*
X11298277Y-13852555D02*
X11279229Y-13871603D01*
X11279229Y-13871603D02*
X11260182Y-13881127D01*
X11488753Y-13909698D02*
X11469706Y-13900174D01*
X11469706Y-13900174D02*
X11460182Y-13890650D01*
X11460182Y-13890650D02*
X11450658Y-13871603D01*
X11450658Y-13871603D02*
X11450658Y-13862079D01*
X11450658Y-13862079D02*
X11460182Y-13843031D01*
X11460182Y-13843031D02*
X11469706Y-13833508D01*
X11469706Y-13833508D02*
X11488753Y-13823984D01*
X11488753Y-13823984D02*
X11526848Y-13823984D01*
X11526848Y-13823984D02*
X11545896Y-13833508D01*
X11545896Y-13833508D02*
X11555420Y-13843031D01*
X11555420Y-13843031D02*
X11564944Y-13862079D01*
X11564944Y-13862079D02*
X11564944Y-13871603D01*
X11564944Y-13871603D02*
X11555420Y-13890650D01*
X11555420Y-13890650D02*
X11545896Y-13900174D01*
X11545896Y-13900174D02*
X11526848Y-13909698D01*
X11526848Y-13909698D02*
X11488753Y-13909698D01*
X11488753Y-13909698D02*
X11469706Y-13919222D01*
X11469706Y-13919222D02*
X11460182Y-13928746D01*
X11460182Y-13928746D02*
X11450658Y-13947793D01*
X11450658Y-13947793D02*
X11450658Y-13985888D01*
X11450658Y-13985888D02*
X11460182Y-14004936D01*
X11460182Y-14004936D02*
X11469706Y-14014460D01*
X11469706Y-14014460D02*
X11488753Y-14023984D01*
X11488753Y-14023984D02*
X11526848Y-14023984D01*
X11526848Y-14023984D02*
X11545896Y-14014460D01*
X11545896Y-14014460D02*
X11555420Y-14004936D01*
X11555420Y-14004936D02*
X11564944Y-13985888D01*
X11564944Y-13985888D02*
X11564944Y-13947793D01*
X11564944Y-13947793D02*
X11555420Y-13928746D01*
X11555420Y-13928746D02*
X11545896Y-13919222D01*
X11545896Y-13919222D02*
X11526848Y-13909698D01*
X11641134Y-13823984D02*
X11641134Y-13862079D01*
X11717325Y-13823984D02*
X11717325Y-13862079D01*
X12012563Y-14100174D02*
X12003039Y-14090650D01*
X12003039Y-14090650D02*
X11983991Y-14062079D01*
X11983991Y-14062079D02*
X11974468Y-14043031D01*
X11974468Y-14043031D02*
X11964944Y-14014460D01*
X11964944Y-14014460D02*
X11955420Y-13966841D01*
X11955420Y-13966841D02*
X11955420Y-13928746D01*
X11955420Y-13928746D02*
X11964944Y-13881127D01*
X11964944Y-13881127D02*
X11974468Y-13852555D01*
X11974468Y-13852555D02*
X11983991Y-13833508D01*
X11983991Y-13833508D02*
X12003039Y-13804936D01*
X12003039Y-13804936D02*
X12012563Y-13795412D01*
X12174468Y-13890650D02*
X12174468Y-14023984D01*
X12126848Y-13814460D02*
X12079229Y-13957317D01*
X12079229Y-13957317D02*
X12203039Y-13957317D01*
X12260182Y-13823984D02*
X12383991Y-13823984D01*
X12383991Y-13823984D02*
X12317325Y-13900174D01*
X12317325Y-13900174D02*
X12345896Y-13900174D01*
X12345896Y-13900174D02*
X12364944Y-13909698D01*
X12364944Y-13909698D02*
X12374468Y-13919222D01*
X12374468Y-13919222D02*
X12383991Y-13938269D01*
X12383991Y-13938269D02*
X12383991Y-13985888D01*
X12383991Y-13985888D02*
X12374468Y-14004936D01*
X12374468Y-14004936D02*
X12364944Y-14014460D01*
X12364944Y-14014460D02*
X12345896Y-14023984D01*
X12345896Y-14023984D02*
X12288753Y-14023984D01*
X12288753Y-14023984D02*
X12269706Y-14014460D01*
X12269706Y-14014460D02*
X12260182Y-14004936D01*
X12574468Y-14023984D02*
X12460182Y-14023984D01*
X12517325Y-14023984D02*
X12517325Y-13823984D01*
X12517325Y-13823984D02*
X12498277Y-13852555D01*
X12498277Y-13852555D02*
X12479229Y-13871603D01*
X12479229Y-13871603D02*
X12460182Y-13881127D01*
X12812563Y-14023984D02*
X12812563Y-13823984D01*
X12898277Y-14023984D02*
X12898277Y-13919222D01*
X12898277Y-13919222D02*
X12888753Y-13900174D01*
X12888753Y-13900174D02*
X12869706Y-13890650D01*
X12869706Y-13890650D02*
X12841134Y-13890650D01*
X12841134Y-13890650D02*
X12822087Y-13900174D01*
X12822087Y-13900174D02*
X12812563Y-13909698D01*
X13022087Y-14023984D02*
X13003039Y-14014460D01*
X13003039Y-14014460D02*
X12993515Y-14004936D01*
X12993515Y-14004936D02*
X12983991Y-13985888D01*
X12983991Y-13985888D02*
X12983991Y-13928746D01*
X12983991Y-13928746D02*
X12993515Y-13909698D01*
X12993515Y-13909698D02*
X13003039Y-13900174D01*
X13003039Y-13900174D02*
X13022087Y-13890650D01*
X13022087Y-13890650D02*
X13050658Y-13890650D01*
X13050658Y-13890650D02*
X13069706Y-13900174D01*
X13069706Y-13900174D02*
X13079230Y-13909698D01*
X13079230Y-13909698D02*
X13088753Y-13928746D01*
X13088753Y-13928746D02*
X13088753Y-13985888D01*
X13088753Y-13985888D02*
X13079230Y-14004936D01*
X13079230Y-14004936D02*
X13069706Y-14014460D01*
X13069706Y-14014460D02*
X13050658Y-14023984D01*
X13050658Y-14023984D02*
X13022087Y-14023984D01*
X13203039Y-14023984D02*
X13183991Y-14014460D01*
X13183991Y-14014460D02*
X13174468Y-13995412D01*
X13174468Y-13995412D02*
X13174468Y-13823984D01*
X13355420Y-14014460D02*
X13336372Y-14023984D01*
X13336372Y-14023984D02*
X13298277Y-14023984D01*
X13298277Y-14023984D02*
X13279230Y-14014460D01*
X13279230Y-14014460D02*
X13269706Y-13995412D01*
X13269706Y-13995412D02*
X13269706Y-13919222D01*
X13269706Y-13919222D02*
X13279230Y-13900174D01*
X13279230Y-13900174D02*
X13298277Y-13890650D01*
X13298277Y-13890650D02*
X13336372Y-13890650D01*
X13336372Y-13890650D02*
X13355420Y-13900174D01*
X13355420Y-13900174D02*
X13364944Y-13919222D01*
X13364944Y-13919222D02*
X13364944Y-13938269D01*
X13364944Y-13938269D02*
X13269706Y-13957317D01*
X13441134Y-14014460D02*
X13460182Y-14023984D01*
X13460182Y-14023984D02*
X13498277Y-14023984D01*
X13498277Y-14023984D02*
X13517325Y-14014460D01*
X13517325Y-14014460D02*
X13526849Y-13995412D01*
X13526849Y-13995412D02*
X13526849Y-13985888D01*
X13526849Y-13985888D02*
X13517325Y-13966841D01*
X13517325Y-13966841D02*
X13498277Y-13957317D01*
X13498277Y-13957317D02*
X13469706Y-13957317D01*
X13469706Y-13957317D02*
X13450658Y-13947793D01*
X13450658Y-13947793D02*
X13441134Y-13928746D01*
X13441134Y-13928746D02*
X13441134Y-13919222D01*
X13441134Y-13919222D02*
X13450658Y-13900174D01*
X13450658Y-13900174D02*
X13469706Y-13890650D01*
X13469706Y-13890650D02*
X13498277Y-13890650D01*
X13498277Y-13890650D02*
X13517325Y-13900174D01*
X13593515Y-14100174D02*
X13603039Y-14090650D01*
X13603039Y-14090650D02*
X13622087Y-14062079D01*
X13622087Y-14062079D02*
X13631611Y-14043031D01*
X13631611Y-14043031D02*
X13641134Y-14014460D01*
X13641134Y-14014460D02*
X13650658Y-13966841D01*
X13650658Y-13966841D02*
X13650658Y-13928746D01*
X13650658Y-13928746D02*
X13641134Y-13881127D01*
X13641134Y-13881127D02*
X13631611Y-13852555D01*
X13631611Y-13852555D02*
X13622087Y-13833508D01*
X13622087Y-13833508D02*
X13603039Y-13804936D01*
X13603039Y-13804936D02*
X13593515Y-13795412D01*
D12*
X8437500Y-14196500D02*
G75*
G02*
X8361500Y-14196500I-38000J0D01*
G01*
X8361500Y-14196500D02*
G75*
G02*
X8437500Y-14196500I38000J0D01*
G01*
D11*
X8736372Y-14087984D02*
X8755420Y-14087984D01*
X8755420Y-14087984D02*
X8774467Y-14097508D01*
X8774467Y-14097508D02*
X8783991Y-14107031D01*
X8783991Y-14107031D02*
X8793515Y-14126079D01*
X8793515Y-14126079D02*
X8803039Y-14164174D01*
X8803039Y-14164174D02*
X8803039Y-14211793D01*
X8803039Y-14211793D02*
X8793515Y-14249888D01*
X8793515Y-14249888D02*
X8783991Y-14268936D01*
X8783991Y-14268936D02*
X8774467Y-14278460D01*
X8774467Y-14278460D02*
X8755420Y-14287984D01*
X8755420Y-14287984D02*
X8736372Y-14287984D01*
X8736372Y-14287984D02*
X8717324Y-14278460D01*
X8717324Y-14278460D02*
X8707801Y-14268936D01*
X8707801Y-14268936D02*
X8698277Y-14249888D01*
X8698277Y-14249888D02*
X8688753Y-14211793D01*
X8688753Y-14211793D02*
X8688753Y-14164174D01*
X8688753Y-14164174D02*
X8698277Y-14126079D01*
X8698277Y-14126079D02*
X8707801Y-14107031D01*
X8707801Y-14107031D02*
X8717324Y-14097508D01*
X8717324Y-14097508D02*
X8736372Y-14087984D01*
X8888753Y-14268936D02*
X8898277Y-14278460D01*
X8898277Y-14278460D02*
X8888753Y-14287984D01*
X8888753Y-14287984D02*
X8879229Y-14278460D01*
X8879229Y-14278460D02*
X8888753Y-14268936D01*
X8888753Y-14268936D02*
X8888753Y-14287984D01*
X8964944Y-14087984D02*
X9098277Y-14087984D01*
X9098277Y-14087984D02*
X9012563Y-14287984D01*
X9260182Y-14087984D02*
X9222086Y-14087984D01*
X9222086Y-14087984D02*
X9203039Y-14097508D01*
X9203039Y-14097508D02*
X9193515Y-14107031D01*
X9193515Y-14107031D02*
X9174467Y-14135603D01*
X9174467Y-14135603D02*
X9164944Y-14173698D01*
X9164944Y-14173698D02*
X9164944Y-14249888D01*
X9164944Y-14249888D02*
X9174467Y-14268936D01*
X9174467Y-14268936D02*
X9183991Y-14278460D01*
X9183991Y-14278460D02*
X9203039Y-14287984D01*
X9203039Y-14287984D02*
X9241134Y-14287984D01*
X9241134Y-14287984D02*
X9260182Y-14278460D01*
X9260182Y-14278460D02*
X9269705Y-14268936D01*
X9269705Y-14268936D02*
X9279229Y-14249888D01*
X9279229Y-14249888D02*
X9279229Y-14202269D01*
X9279229Y-14202269D02*
X9269705Y-14183222D01*
X9269705Y-14183222D02*
X9260182Y-14173698D01*
X9260182Y-14173698D02*
X9241134Y-14164174D01*
X9241134Y-14164174D02*
X9203039Y-14164174D01*
X9203039Y-14164174D02*
X9183991Y-14173698D01*
X9183991Y-14173698D02*
X9174467Y-14183222D01*
X9174467Y-14183222D02*
X9164944Y-14202269D01*
X9403039Y-14087984D02*
X9422086Y-14087984D01*
X9422086Y-14087984D02*
X9441134Y-14097508D01*
X9441134Y-14097508D02*
X9450658Y-14107031D01*
X9450658Y-14107031D02*
X9460182Y-14126079D01*
X9460182Y-14126079D02*
X9469705Y-14164174D01*
X9469705Y-14164174D02*
X9469705Y-14211793D01*
X9469705Y-14211793D02*
X9460182Y-14249888D01*
X9460182Y-14249888D02*
X9450658Y-14268936D01*
X9450658Y-14268936D02*
X9441134Y-14278460D01*
X9441134Y-14278460D02*
X9422086Y-14287984D01*
X9422086Y-14287984D02*
X9403039Y-14287984D01*
X9403039Y-14287984D02*
X9383991Y-14278460D01*
X9383991Y-14278460D02*
X9374467Y-14268936D01*
X9374467Y-14268936D02*
X9364944Y-14249888D01*
X9364944Y-14249888D02*
X9355420Y-14211793D01*
X9355420Y-14211793D02*
X9355420Y-14164174D01*
X9355420Y-14164174D02*
X9364944Y-14126079D01*
X9364944Y-14126079D02*
X9374467Y-14107031D01*
X9374467Y-14107031D02*
X9383991Y-14097508D01*
X9383991Y-14097508D02*
X9403039Y-14087984D01*
X9555420Y-14287984D02*
X9555420Y-14154650D01*
X9555420Y-14173698D02*
X9564944Y-14164174D01*
X9564944Y-14164174D02*
X9583991Y-14154650D01*
X9583991Y-14154650D02*
X9612563Y-14154650D01*
X9612563Y-14154650D02*
X9631610Y-14164174D01*
X9631610Y-14164174D02*
X9641134Y-14183222D01*
X9641134Y-14183222D02*
X9641134Y-14287984D01*
X9641134Y-14183222D02*
X9650658Y-14164174D01*
X9650658Y-14164174D02*
X9669705Y-14154650D01*
X9669705Y-14154650D02*
X9698277Y-14154650D01*
X9698277Y-14154650D02*
X9717325Y-14164174D01*
X9717325Y-14164174D02*
X9726848Y-14183222D01*
X9726848Y-14183222D02*
X9726848Y-14287984D01*
X9822086Y-14287984D02*
X9822086Y-14154650D01*
X9822086Y-14173698D02*
X9831610Y-14164174D01*
X9831610Y-14164174D02*
X9850658Y-14154650D01*
X9850658Y-14154650D02*
X9879229Y-14154650D01*
X9879229Y-14154650D02*
X9898277Y-14164174D01*
X9898277Y-14164174D02*
X9907801Y-14183222D01*
X9907801Y-14183222D02*
X9907801Y-14287984D01*
X9907801Y-14183222D02*
X9917325Y-14164174D01*
X9917325Y-14164174D02*
X9936372Y-14154650D01*
X9936372Y-14154650D02*
X9964944Y-14154650D01*
X9964944Y-14154650D02*
X9983991Y-14164174D01*
X9983991Y-14164174D02*
X9993515Y-14183222D01*
X9993515Y-14183222D02*
X9993515Y-14287984D01*
X10383991Y-14078460D02*
X10212563Y-14335603D01*
X10641134Y-14087984D02*
X10660182Y-14087984D01*
X10660182Y-14087984D02*
X10679229Y-14097508D01*
X10679229Y-14097508D02*
X10688753Y-14107031D01*
X10688753Y-14107031D02*
X10698277Y-14126079D01*
X10698277Y-14126079D02*
X10707801Y-14164174D01*
X10707801Y-14164174D02*
X10707801Y-14211793D01*
X10707801Y-14211793D02*
X10698277Y-14249888D01*
X10698277Y-14249888D02*
X10688753Y-14268936D01*
X10688753Y-14268936D02*
X10679229Y-14278460D01*
X10679229Y-14278460D02*
X10660182Y-14287984D01*
X10660182Y-14287984D02*
X10641134Y-14287984D01*
X10641134Y-14287984D02*
X10622087Y-14278460D01*
X10622087Y-14278460D02*
X10612563Y-14268936D01*
X10612563Y-14268936D02*
X10603039Y-14249888D01*
X10603039Y-14249888D02*
X10593515Y-14211793D01*
X10593515Y-14211793D02*
X10593515Y-14164174D01*
X10593515Y-14164174D02*
X10603039Y-14126079D01*
X10603039Y-14126079D02*
X10612563Y-14107031D01*
X10612563Y-14107031D02*
X10622087Y-14097508D01*
X10622087Y-14097508D02*
X10641134Y-14087984D01*
X10793515Y-14268936D02*
X10803039Y-14278460D01*
X10803039Y-14278460D02*
X10793515Y-14287984D01*
X10793515Y-14287984D02*
X10783991Y-14278460D01*
X10783991Y-14278460D02*
X10793515Y-14268936D01*
X10793515Y-14268936D02*
X10793515Y-14287984D01*
X10926848Y-14087984D02*
X10945896Y-14087984D01*
X10945896Y-14087984D02*
X10964944Y-14097508D01*
X10964944Y-14097508D02*
X10974468Y-14107031D01*
X10974468Y-14107031D02*
X10983991Y-14126079D01*
X10983991Y-14126079D02*
X10993515Y-14164174D01*
X10993515Y-14164174D02*
X10993515Y-14211793D01*
X10993515Y-14211793D02*
X10983991Y-14249888D01*
X10983991Y-14249888D02*
X10974468Y-14268936D01*
X10974468Y-14268936D02*
X10964944Y-14278460D01*
X10964944Y-14278460D02*
X10945896Y-14287984D01*
X10945896Y-14287984D02*
X10926848Y-14287984D01*
X10926848Y-14287984D02*
X10907801Y-14278460D01*
X10907801Y-14278460D02*
X10898277Y-14268936D01*
X10898277Y-14268936D02*
X10888753Y-14249888D01*
X10888753Y-14249888D02*
X10879229Y-14211793D01*
X10879229Y-14211793D02*
X10879229Y-14164174D01*
X10879229Y-14164174D02*
X10888753Y-14126079D01*
X10888753Y-14126079D02*
X10898277Y-14107031D01*
X10898277Y-14107031D02*
X10907801Y-14097508D01*
X10907801Y-14097508D02*
X10926848Y-14087984D01*
X11069706Y-14107031D02*
X11079229Y-14097508D01*
X11079229Y-14097508D02*
X11098277Y-14087984D01*
X11098277Y-14087984D02*
X11145896Y-14087984D01*
X11145896Y-14087984D02*
X11164944Y-14097508D01*
X11164944Y-14097508D02*
X11174468Y-14107031D01*
X11174468Y-14107031D02*
X11183991Y-14126079D01*
X11183991Y-14126079D02*
X11183991Y-14145127D01*
X11183991Y-14145127D02*
X11174468Y-14173698D01*
X11174468Y-14173698D02*
X11060182Y-14287984D01*
X11060182Y-14287984D02*
X11183991Y-14287984D01*
X11279229Y-14287984D02*
X11317325Y-14287984D01*
X11317325Y-14287984D02*
X11336372Y-14278460D01*
X11336372Y-14278460D02*
X11345896Y-14268936D01*
X11345896Y-14268936D02*
X11364944Y-14240365D01*
X11364944Y-14240365D02*
X11374467Y-14202269D01*
X11374467Y-14202269D02*
X11374467Y-14126079D01*
X11374467Y-14126079D02*
X11364944Y-14107031D01*
X11364944Y-14107031D02*
X11355420Y-14097508D01*
X11355420Y-14097508D02*
X11336372Y-14087984D01*
X11336372Y-14087984D02*
X11298277Y-14087984D01*
X11298277Y-14087984D02*
X11279229Y-14097508D01*
X11279229Y-14097508D02*
X11269706Y-14107031D01*
X11269706Y-14107031D02*
X11260182Y-14126079D01*
X11260182Y-14126079D02*
X11260182Y-14173698D01*
X11260182Y-14173698D02*
X11269706Y-14192746D01*
X11269706Y-14192746D02*
X11279229Y-14202269D01*
X11279229Y-14202269D02*
X11298277Y-14211793D01*
X11298277Y-14211793D02*
X11336372Y-14211793D01*
X11336372Y-14211793D02*
X11355420Y-14202269D01*
X11355420Y-14202269D02*
X11364944Y-14192746D01*
X11364944Y-14192746D02*
X11374467Y-14173698D01*
X11469706Y-14287984D02*
X11507801Y-14287984D01*
X11507801Y-14287984D02*
X11526848Y-14278460D01*
X11526848Y-14278460D02*
X11536372Y-14268936D01*
X11536372Y-14268936D02*
X11555420Y-14240365D01*
X11555420Y-14240365D02*
X11564944Y-14202269D01*
X11564944Y-14202269D02*
X11564944Y-14126079D01*
X11564944Y-14126079D02*
X11555420Y-14107031D01*
X11555420Y-14107031D02*
X11545896Y-14097508D01*
X11545896Y-14097508D02*
X11526848Y-14087984D01*
X11526848Y-14087984D02*
X11488753Y-14087984D01*
X11488753Y-14087984D02*
X11469706Y-14097508D01*
X11469706Y-14097508D02*
X11460182Y-14107031D01*
X11460182Y-14107031D02*
X11450658Y-14126079D01*
X11450658Y-14126079D02*
X11450658Y-14173698D01*
X11450658Y-14173698D02*
X11460182Y-14192746D01*
X11460182Y-14192746D02*
X11469706Y-14202269D01*
X11469706Y-14202269D02*
X11488753Y-14211793D01*
X11488753Y-14211793D02*
X11526848Y-14211793D01*
X11526848Y-14211793D02*
X11545896Y-14202269D01*
X11545896Y-14202269D02*
X11555420Y-14192746D01*
X11555420Y-14192746D02*
X11564944Y-14173698D01*
X11641134Y-14087984D02*
X11641134Y-14126079D01*
X11717325Y-14087984D02*
X11717325Y-14126079D01*
X12012563Y-14364174D02*
X12003039Y-14354650D01*
X12003039Y-14354650D02*
X11983991Y-14326079D01*
X11983991Y-14326079D02*
X11974468Y-14307031D01*
X11974468Y-14307031D02*
X11964944Y-14278460D01*
X11964944Y-14278460D02*
X11955420Y-14230841D01*
X11955420Y-14230841D02*
X11955420Y-14192746D01*
X11955420Y-14192746D02*
X11964944Y-14145127D01*
X11964944Y-14145127D02*
X11974468Y-14116555D01*
X11974468Y-14116555D02*
X11983991Y-14097508D01*
X11983991Y-14097508D02*
X12003039Y-14068936D01*
X12003039Y-14068936D02*
X12012563Y-14059412D01*
X12069706Y-14087984D02*
X12193515Y-14087984D01*
X12193515Y-14087984D02*
X12126848Y-14164174D01*
X12126848Y-14164174D02*
X12155420Y-14164174D01*
X12155420Y-14164174D02*
X12174468Y-14173698D01*
X12174468Y-14173698D02*
X12183991Y-14183222D01*
X12183991Y-14183222D02*
X12193515Y-14202269D01*
X12193515Y-14202269D02*
X12193515Y-14249888D01*
X12193515Y-14249888D02*
X12183991Y-14268936D01*
X12183991Y-14268936D02*
X12174468Y-14278460D01*
X12174468Y-14278460D02*
X12155420Y-14287984D01*
X12155420Y-14287984D02*
X12098277Y-14287984D01*
X12098277Y-14287984D02*
X12079229Y-14278460D01*
X12079229Y-14278460D02*
X12069706Y-14268936D01*
X12431610Y-14287984D02*
X12431610Y-14087984D01*
X12517325Y-14287984D02*
X12517325Y-14183222D01*
X12517325Y-14183222D02*
X12507801Y-14164174D01*
X12507801Y-14164174D02*
X12488753Y-14154650D01*
X12488753Y-14154650D02*
X12460182Y-14154650D01*
X12460182Y-14154650D02*
X12441134Y-14164174D01*
X12441134Y-14164174D02*
X12431610Y-14173698D01*
X12641134Y-14287984D02*
X12622087Y-14278460D01*
X12622087Y-14278460D02*
X12612563Y-14268936D01*
X12612563Y-14268936D02*
X12603039Y-14249888D01*
X12603039Y-14249888D02*
X12603039Y-14192746D01*
X12603039Y-14192746D02*
X12612563Y-14173698D01*
X12612563Y-14173698D02*
X12622087Y-14164174D01*
X12622087Y-14164174D02*
X12641134Y-14154650D01*
X12641134Y-14154650D02*
X12669706Y-14154650D01*
X12669706Y-14154650D02*
X12688753Y-14164174D01*
X12688753Y-14164174D02*
X12698277Y-14173698D01*
X12698277Y-14173698D02*
X12707801Y-14192746D01*
X12707801Y-14192746D02*
X12707801Y-14249888D01*
X12707801Y-14249888D02*
X12698277Y-14268936D01*
X12698277Y-14268936D02*
X12688753Y-14278460D01*
X12688753Y-14278460D02*
X12669706Y-14287984D01*
X12669706Y-14287984D02*
X12641134Y-14287984D01*
X12822087Y-14287984D02*
X12803039Y-14278460D01*
X12803039Y-14278460D02*
X12793515Y-14259412D01*
X12793515Y-14259412D02*
X12793515Y-14087984D01*
X12974468Y-14278460D02*
X12955420Y-14287984D01*
X12955420Y-14287984D02*
X12917325Y-14287984D01*
X12917325Y-14287984D02*
X12898277Y-14278460D01*
X12898277Y-14278460D02*
X12888753Y-14259412D01*
X12888753Y-14259412D02*
X12888753Y-14183222D01*
X12888753Y-14183222D02*
X12898277Y-14164174D01*
X12898277Y-14164174D02*
X12917325Y-14154650D01*
X12917325Y-14154650D02*
X12955420Y-14154650D01*
X12955420Y-14154650D02*
X12974468Y-14164174D01*
X12974468Y-14164174D02*
X12983991Y-14183222D01*
X12983991Y-14183222D02*
X12983991Y-14202269D01*
X12983991Y-14202269D02*
X12888753Y-14221317D01*
X13060182Y-14278460D02*
X13079230Y-14287984D01*
X13079230Y-14287984D02*
X13117325Y-14287984D01*
X13117325Y-14287984D02*
X13136372Y-14278460D01*
X13136372Y-14278460D02*
X13145896Y-14259412D01*
X13145896Y-14259412D02*
X13145896Y-14249888D01*
X13145896Y-14249888D02*
X13136372Y-14230841D01*
X13136372Y-14230841D02*
X13117325Y-14221317D01*
X13117325Y-14221317D02*
X13088753Y-14221317D01*
X13088753Y-14221317D02*
X13069706Y-14211793D01*
X13069706Y-14211793D02*
X13060182Y-14192746D01*
X13060182Y-14192746D02*
X13060182Y-14183222D01*
X13060182Y-14183222D02*
X13069706Y-14164174D01*
X13069706Y-14164174D02*
X13088753Y-14154650D01*
X13088753Y-14154650D02*
X13117325Y-14154650D01*
X13117325Y-14154650D02*
X13136372Y-14164174D01*
X13212563Y-14364174D02*
X13222087Y-14354650D01*
X13222087Y-14354650D02*
X13241134Y-14326079D01*
X13241134Y-14326079D02*
X13250658Y-14307031D01*
X13250658Y-14307031D02*
X13260182Y-14278460D01*
X13260182Y-14278460D02*
X13269706Y-14230841D01*
X13269706Y-14230841D02*
X13269706Y-14192746D01*
X13269706Y-14192746D02*
X13260182Y-14145127D01*
X13260182Y-14145127D02*
X13250658Y-14116555D01*
X13250658Y-14116555D02*
X13241134Y-14097508D01*
X13241134Y-14097508D02*
X13222087Y-14068936D01*
X13222087Y-14068936D02*
X13212563Y-14059412D01*
D12*
X8397500Y-14420500D02*
X8397500Y-14500500D01*
X8357500Y-14460500D02*
X8437500Y-14460500D01*
D11*
X8736372Y-14351984D02*
X8755420Y-14351984D01*
X8755420Y-14351984D02*
X8774467Y-14361508D01*
X8774467Y-14361508D02*
X8783991Y-14371031D01*
X8783991Y-14371031D02*
X8793515Y-14390079D01*
X8793515Y-14390079D02*
X8803039Y-14428174D01*
X8803039Y-14428174D02*
X8803039Y-14475793D01*
X8803039Y-14475793D02*
X8793515Y-14513888D01*
X8793515Y-14513888D02*
X8783991Y-14532936D01*
X8783991Y-14532936D02*
X8774467Y-14542460D01*
X8774467Y-14542460D02*
X8755420Y-14551984D01*
X8755420Y-14551984D02*
X8736372Y-14551984D01*
X8736372Y-14551984D02*
X8717324Y-14542460D01*
X8717324Y-14542460D02*
X8707801Y-14532936D01*
X8707801Y-14532936D02*
X8698277Y-14513888D01*
X8698277Y-14513888D02*
X8688753Y-14475793D01*
X8688753Y-14475793D02*
X8688753Y-14428174D01*
X8688753Y-14428174D02*
X8698277Y-14390079D01*
X8698277Y-14390079D02*
X8707801Y-14371031D01*
X8707801Y-14371031D02*
X8717324Y-14361508D01*
X8717324Y-14361508D02*
X8736372Y-14351984D01*
X8888753Y-14532936D02*
X8898277Y-14542460D01*
X8898277Y-14542460D02*
X8888753Y-14551984D01*
X8888753Y-14551984D02*
X8879229Y-14542460D01*
X8879229Y-14542460D02*
X8888753Y-14532936D01*
X8888753Y-14532936D02*
X8888753Y-14551984D01*
X9012563Y-14437698D02*
X8993515Y-14428174D01*
X8993515Y-14428174D02*
X8983991Y-14418650D01*
X8983991Y-14418650D02*
X8974467Y-14399603D01*
X8974467Y-14399603D02*
X8974467Y-14390079D01*
X8974467Y-14390079D02*
X8983991Y-14371031D01*
X8983991Y-14371031D02*
X8993515Y-14361508D01*
X8993515Y-14361508D02*
X9012563Y-14351984D01*
X9012563Y-14351984D02*
X9050658Y-14351984D01*
X9050658Y-14351984D02*
X9069705Y-14361508D01*
X9069705Y-14361508D02*
X9079229Y-14371031D01*
X9079229Y-14371031D02*
X9088753Y-14390079D01*
X9088753Y-14390079D02*
X9088753Y-14399603D01*
X9088753Y-14399603D02*
X9079229Y-14418650D01*
X9079229Y-14418650D02*
X9069705Y-14428174D01*
X9069705Y-14428174D02*
X9050658Y-14437698D01*
X9050658Y-14437698D02*
X9012563Y-14437698D01*
X9012563Y-14437698D02*
X8993515Y-14447222D01*
X8993515Y-14447222D02*
X8983991Y-14456746D01*
X8983991Y-14456746D02*
X8974467Y-14475793D01*
X8974467Y-14475793D02*
X8974467Y-14513888D01*
X8974467Y-14513888D02*
X8983991Y-14532936D01*
X8983991Y-14532936D02*
X8993515Y-14542460D01*
X8993515Y-14542460D02*
X9012563Y-14551984D01*
X9012563Y-14551984D02*
X9050658Y-14551984D01*
X9050658Y-14551984D02*
X9069705Y-14542460D01*
X9069705Y-14542460D02*
X9079229Y-14532936D01*
X9079229Y-14532936D02*
X9088753Y-14513888D01*
X9088753Y-14513888D02*
X9088753Y-14475793D01*
X9088753Y-14475793D02*
X9079229Y-14456746D01*
X9079229Y-14456746D02*
X9069705Y-14447222D01*
X9069705Y-14447222D02*
X9050658Y-14437698D01*
X9212563Y-14351984D02*
X9231610Y-14351984D01*
X9231610Y-14351984D02*
X9250658Y-14361508D01*
X9250658Y-14361508D02*
X9260182Y-14371031D01*
X9260182Y-14371031D02*
X9269705Y-14390079D01*
X9269705Y-14390079D02*
X9279229Y-14428174D01*
X9279229Y-14428174D02*
X9279229Y-14475793D01*
X9279229Y-14475793D02*
X9269705Y-14513888D01*
X9269705Y-14513888D02*
X9260182Y-14532936D01*
X9260182Y-14532936D02*
X9250658Y-14542460D01*
X9250658Y-14542460D02*
X9231610Y-14551984D01*
X9231610Y-14551984D02*
X9212563Y-14551984D01*
X9212563Y-14551984D02*
X9193515Y-14542460D01*
X9193515Y-14542460D02*
X9183991Y-14532936D01*
X9183991Y-14532936D02*
X9174467Y-14513888D01*
X9174467Y-14513888D02*
X9164944Y-14475793D01*
X9164944Y-14475793D02*
X9164944Y-14428174D01*
X9164944Y-14428174D02*
X9174467Y-14390079D01*
X9174467Y-14390079D02*
X9183991Y-14371031D01*
X9183991Y-14371031D02*
X9193515Y-14361508D01*
X9193515Y-14361508D02*
X9212563Y-14351984D01*
X9403039Y-14351984D02*
X9422086Y-14351984D01*
X9422086Y-14351984D02*
X9441134Y-14361508D01*
X9441134Y-14361508D02*
X9450658Y-14371031D01*
X9450658Y-14371031D02*
X9460182Y-14390079D01*
X9460182Y-14390079D02*
X9469705Y-14428174D01*
X9469705Y-14428174D02*
X9469705Y-14475793D01*
X9469705Y-14475793D02*
X9460182Y-14513888D01*
X9460182Y-14513888D02*
X9450658Y-14532936D01*
X9450658Y-14532936D02*
X9441134Y-14542460D01*
X9441134Y-14542460D02*
X9422086Y-14551984D01*
X9422086Y-14551984D02*
X9403039Y-14551984D01*
X9403039Y-14551984D02*
X9383991Y-14542460D01*
X9383991Y-14542460D02*
X9374467Y-14532936D01*
X9374467Y-14532936D02*
X9364944Y-14513888D01*
X9364944Y-14513888D02*
X9355420Y-14475793D01*
X9355420Y-14475793D02*
X9355420Y-14428174D01*
X9355420Y-14428174D02*
X9364944Y-14390079D01*
X9364944Y-14390079D02*
X9374467Y-14371031D01*
X9374467Y-14371031D02*
X9383991Y-14361508D01*
X9383991Y-14361508D02*
X9403039Y-14351984D01*
X9555420Y-14551984D02*
X9555420Y-14418650D01*
X9555420Y-14437698D02*
X9564944Y-14428174D01*
X9564944Y-14428174D02*
X9583991Y-14418650D01*
X9583991Y-14418650D02*
X9612563Y-14418650D01*
X9612563Y-14418650D02*
X9631610Y-14428174D01*
X9631610Y-14428174D02*
X9641134Y-14447222D01*
X9641134Y-14447222D02*
X9641134Y-14551984D01*
X9641134Y-14447222D02*
X9650658Y-14428174D01*
X9650658Y-14428174D02*
X9669705Y-14418650D01*
X9669705Y-14418650D02*
X9698277Y-14418650D01*
X9698277Y-14418650D02*
X9717325Y-14428174D01*
X9717325Y-14428174D02*
X9726848Y-14447222D01*
X9726848Y-14447222D02*
X9726848Y-14551984D01*
X9822086Y-14551984D02*
X9822086Y-14418650D01*
X9822086Y-14437698D02*
X9831610Y-14428174D01*
X9831610Y-14428174D02*
X9850658Y-14418650D01*
X9850658Y-14418650D02*
X9879229Y-14418650D01*
X9879229Y-14418650D02*
X9898277Y-14428174D01*
X9898277Y-14428174D02*
X9907801Y-14447222D01*
X9907801Y-14447222D02*
X9907801Y-14551984D01*
X9907801Y-14447222D02*
X9917325Y-14428174D01*
X9917325Y-14428174D02*
X9936372Y-14418650D01*
X9936372Y-14418650D02*
X9964944Y-14418650D01*
X9964944Y-14418650D02*
X9983991Y-14428174D01*
X9983991Y-14428174D02*
X9993515Y-14447222D01*
X9993515Y-14447222D02*
X9993515Y-14551984D01*
X10383991Y-14342460D02*
X10212563Y-14599603D01*
X10641134Y-14351984D02*
X10660182Y-14351984D01*
X10660182Y-14351984D02*
X10679229Y-14361508D01*
X10679229Y-14361508D02*
X10688753Y-14371031D01*
X10688753Y-14371031D02*
X10698277Y-14390079D01*
X10698277Y-14390079D02*
X10707801Y-14428174D01*
X10707801Y-14428174D02*
X10707801Y-14475793D01*
X10707801Y-14475793D02*
X10698277Y-14513888D01*
X10698277Y-14513888D02*
X10688753Y-14532936D01*
X10688753Y-14532936D02*
X10679229Y-14542460D01*
X10679229Y-14542460D02*
X10660182Y-14551984D01*
X10660182Y-14551984D02*
X10641134Y-14551984D01*
X10641134Y-14551984D02*
X10622087Y-14542460D01*
X10622087Y-14542460D02*
X10612563Y-14532936D01*
X10612563Y-14532936D02*
X10603039Y-14513888D01*
X10603039Y-14513888D02*
X10593515Y-14475793D01*
X10593515Y-14475793D02*
X10593515Y-14428174D01*
X10593515Y-14428174D02*
X10603039Y-14390079D01*
X10603039Y-14390079D02*
X10612563Y-14371031D01*
X10612563Y-14371031D02*
X10622087Y-14361508D01*
X10622087Y-14361508D02*
X10641134Y-14351984D01*
X10793515Y-14532936D02*
X10803039Y-14542460D01*
X10803039Y-14542460D02*
X10793515Y-14551984D01*
X10793515Y-14551984D02*
X10783991Y-14542460D01*
X10783991Y-14542460D02*
X10793515Y-14532936D01*
X10793515Y-14532936D02*
X10793515Y-14551984D01*
X10926848Y-14351984D02*
X10945896Y-14351984D01*
X10945896Y-14351984D02*
X10964944Y-14361508D01*
X10964944Y-14361508D02*
X10974468Y-14371031D01*
X10974468Y-14371031D02*
X10983991Y-14390079D01*
X10983991Y-14390079D02*
X10993515Y-14428174D01*
X10993515Y-14428174D02*
X10993515Y-14475793D01*
X10993515Y-14475793D02*
X10983991Y-14513888D01*
X10983991Y-14513888D02*
X10974468Y-14532936D01*
X10974468Y-14532936D02*
X10964944Y-14542460D01*
X10964944Y-14542460D02*
X10945896Y-14551984D01*
X10945896Y-14551984D02*
X10926848Y-14551984D01*
X10926848Y-14551984D02*
X10907801Y-14542460D01*
X10907801Y-14542460D02*
X10898277Y-14532936D01*
X10898277Y-14532936D02*
X10888753Y-14513888D01*
X10888753Y-14513888D02*
X10879229Y-14475793D01*
X10879229Y-14475793D02*
X10879229Y-14428174D01*
X10879229Y-14428174D02*
X10888753Y-14390079D01*
X10888753Y-14390079D02*
X10898277Y-14371031D01*
X10898277Y-14371031D02*
X10907801Y-14361508D01*
X10907801Y-14361508D02*
X10926848Y-14351984D01*
X11060182Y-14351984D02*
X11183991Y-14351984D01*
X11183991Y-14351984D02*
X11117325Y-14428174D01*
X11117325Y-14428174D02*
X11145896Y-14428174D01*
X11145896Y-14428174D02*
X11164944Y-14437698D01*
X11164944Y-14437698D02*
X11174468Y-14447222D01*
X11174468Y-14447222D02*
X11183991Y-14466269D01*
X11183991Y-14466269D02*
X11183991Y-14513888D01*
X11183991Y-14513888D02*
X11174468Y-14532936D01*
X11174468Y-14532936D02*
X11164944Y-14542460D01*
X11164944Y-14542460D02*
X11145896Y-14551984D01*
X11145896Y-14551984D02*
X11088753Y-14551984D01*
X11088753Y-14551984D02*
X11069706Y-14542460D01*
X11069706Y-14542460D02*
X11060182Y-14532936D01*
X11374467Y-14551984D02*
X11260182Y-14551984D01*
X11317325Y-14551984D02*
X11317325Y-14351984D01*
X11317325Y-14351984D02*
X11298277Y-14380555D01*
X11298277Y-14380555D02*
X11279229Y-14399603D01*
X11279229Y-14399603D02*
X11260182Y-14409127D01*
X11555420Y-14351984D02*
X11460182Y-14351984D01*
X11460182Y-14351984D02*
X11450658Y-14447222D01*
X11450658Y-14447222D02*
X11460182Y-14437698D01*
X11460182Y-14437698D02*
X11479229Y-14428174D01*
X11479229Y-14428174D02*
X11526848Y-14428174D01*
X11526848Y-14428174D02*
X11545896Y-14437698D01*
X11545896Y-14437698D02*
X11555420Y-14447222D01*
X11555420Y-14447222D02*
X11564944Y-14466269D01*
X11564944Y-14466269D02*
X11564944Y-14513888D01*
X11564944Y-14513888D02*
X11555420Y-14532936D01*
X11555420Y-14532936D02*
X11545896Y-14542460D01*
X11545896Y-14542460D02*
X11526848Y-14551984D01*
X11526848Y-14551984D02*
X11479229Y-14551984D01*
X11479229Y-14551984D02*
X11460182Y-14542460D01*
X11460182Y-14542460D02*
X11450658Y-14532936D01*
X11641134Y-14351984D02*
X11641134Y-14390079D01*
X11717325Y-14351984D02*
X11717325Y-14390079D01*
X12012563Y-14628174D02*
X12003039Y-14618650D01*
X12003039Y-14618650D02*
X11983991Y-14590079D01*
X11983991Y-14590079D02*
X11974468Y-14571031D01*
X11974468Y-14571031D02*
X11964944Y-14542460D01*
X11964944Y-14542460D02*
X11955420Y-14494841D01*
X11955420Y-14494841D02*
X11955420Y-14456746D01*
X11955420Y-14456746D02*
X11964944Y-14409127D01*
X11964944Y-14409127D02*
X11974468Y-14380555D01*
X11974468Y-14380555D02*
X11983991Y-14361508D01*
X11983991Y-14361508D02*
X12003039Y-14332936D01*
X12003039Y-14332936D02*
X12012563Y-14323412D01*
X12193515Y-14551984D02*
X12079229Y-14551984D01*
X12136372Y-14551984D02*
X12136372Y-14351984D01*
X12136372Y-14351984D02*
X12117325Y-14380555D01*
X12117325Y-14380555D02*
X12098277Y-14399603D01*
X12098277Y-14399603D02*
X12079229Y-14409127D01*
X12260182Y-14351984D02*
X12383991Y-14351984D01*
X12383991Y-14351984D02*
X12317325Y-14428174D01*
X12317325Y-14428174D02*
X12345896Y-14428174D01*
X12345896Y-14428174D02*
X12364944Y-14437698D01*
X12364944Y-14437698D02*
X12374468Y-14447222D01*
X12374468Y-14447222D02*
X12383991Y-14466269D01*
X12383991Y-14466269D02*
X12383991Y-14513888D01*
X12383991Y-14513888D02*
X12374468Y-14532936D01*
X12374468Y-14532936D02*
X12364944Y-14542460D01*
X12364944Y-14542460D02*
X12345896Y-14551984D01*
X12345896Y-14551984D02*
X12288753Y-14551984D01*
X12288753Y-14551984D02*
X12269706Y-14542460D01*
X12269706Y-14542460D02*
X12260182Y-14532936D01*
X12622087Y-14551984D02*
X12622087Y-14351984D01*
X12707801Y-14551984D02*
X12707801Y-14447222D01*
X12707801Y-14447222D02*
X12698277Y-14428174D01*
X12698277Y-14428174D02*
X12679230Y-14418650D01*
X12679230Y-14418650D02*
X12650658Y-14418650D01*
X12650658Y-14418650D02*
X12631610Y-14428174D01*
X12631610Y-14428174D02*
X12622087Y-14437698D01*
X12831610Y-14551984D02*
X12812563Y-14542460D01*
X12812563Y-14542460D02*
X12803039Y-14532936D01*
X12803039Y-14532936D02*
X12793515Y-14513888D01*
X12793515Y-14513888D02*
X12793515Y-14456746D01*
X12793515Y-14456746D02*
X12803039Y-14437698D01*
X12803039Y-14437698D02*
X12812563Y-14428174D01*
X12812563Y-14428174D02*
X12831610Y-14418650D01*
X12831610Y-14418650D02*
X12860182Y-14418650D01*
X12860182Y-14418650D02*
X12879230Y-14428174D01*
X12879230Y-14428174D02*
X12888753Y-14437698D01*
X12888753Y-14437698D02*
X12898277Y-14456746D01*
X12898277Y-14456746D02*
X12898277Y-14513888D01*
X12898277Y-14513888D02*
X12888753Y-14532936D01*
X12888753Y-14532936D02*
X12879230Y-14542460D01*
X12879230Y-14542460D02*
X12860182Y-14551984D01*
X12860182Y-14551984D02*
X12831610Y-14551984D01*
X13012563Y-14551984D02*
X12993515Y-14542460D01*
X12993515Y-14542460D02*
X12983991Y-14523412D01*
X12983991Y-14523412D02*
X12983991Y-14351984D01*
X13164944Y-14542460D02*
X13145896Y-14551984D01*
X13145896Y-14551984D02*
X13107801Y-14551984D01*
X13107801Y-14551984D02*
X13088753Y-14542460D01*
X13088753Y-14542460D02*
X13079230Y-14523412D01*
X13079230Y-14523412D02*
X13079230Y-14447222D01*
X13079230Y-14447222D02*
X13088753Y-14428174D01*
X13088753Y-14428174D02*
X13107801Y-14418650D01*
X13107801Y-14418650D02*
X13145896Y-14418650D01*
X13145896Y-14418650D02*
X13164944Y-14428174D01*
X13164944Y-14428174D02*
X13174468Y-14447222D01*
X13174468Y-14447222D02*
X13174468Y-14466269D01*
X13174468Y-14466269D02*
X13079230Y-14485317D01*
X13250658Y-14542460D02*
X13269706Y-14551984D01*
X13269706Y-14551984D02*
X13307801Y-14551984D01*
X13307801Y-14551984D02*
X13326849Y-14542460D01*
X13326849Y-14542460D02*
X13336372Y-14523412D01*
X13336372Y-14523412D02*
X13336372Y-14513888D01*
X13336372Y-14513888D02*
X13326849Y-14494841D01*
X13326849Y-14494841D02*
X13307801Y-14485317D01*
X13307801Y-14485317D02*
X13279230Y-14485317D01*
X13279230Y-14485317D02*
X13260182Y-14475793D01*
X13260182Y-14475793D02*
X13250658Y-14456746D01*
X13250658Y-14456746D02*
X13250658Y-14447222D01*
X13250658Y-14447222D02*
X13260182Y-14428174D01*
X13260182Y-14428174D02*
X13279230Y-14418650D01*
X13279230Y-14418650D02*
X13307801Y-14418650D01*
X13307801Y-14418650D02*
X13326849Y-14428174D01*
X13403039Y-14628174D02*
X13412563Y-14618650D01*
X13412563Y-14618650D02*
X13431611Y-14590079D01*
X13431611Y-14590079D02*
X13441134Y-14571031D01*
X13441134Y-14571031D02*
X13450658Y-14542460D01*
X13450658Y-14542460D02*
X13460182Y-14494841D01*
X13460182Y-14494841D02*
X13460182Y-14456746D01*
X13460182Y-14456746D02*
X13450658Y-14409127D01*
X13450658Y-14409127D02*
X13441134Y-14380555D01*
X13441134Y-14380555D02*
X13431611Y-14361508D01*
X13431611Y-14361508D02*
X13412563Y-14332936D01*
X13412563Y-14332936D02*
X13403039Y-14323412D01*
D12*
X8424320Y-14756320D02*
X8424320Y-14692680D01*
X8360680Y-14692680D01*
X8360680Y-14756320D01*
X8424320Y-14756320D01*
D11*
X8736372Y-14615984D02*
X8755420Y-14615984D01*
X8755420Y-14615984D02*
X8774467Y-14625508D01*
X8774467Y-14625508D02*
X8783991Y-14635031D01*
X8783991Y-14635031D02*
X8793515Y-14654079D01*
X8793515Y-14654079D02*
X8803039Y-14692174D01*
X8803039Y-14692174D02*
X8803039Y-14739793D01*
X8803039Y-14739793D02*
X8793515Y-14777888D01*
X8793515Y-14777888D02*
X8783991Y-14796936D01*
X8783991Y-14796936D02*
X8774467Y-14806460D01*
X8774467Y-14806460D02*
X8755420Y-14815984D01*
X8755420Y-14815984D02*
X8736372Y-14815984D01*
X8736372Y-14815984D02*
X8717324Y-14806460D01*
X8717324Y-14806460D02*
X8707801Y-14796936D01*
X8707801Y-14796936D02*
X8698277Y-14777888D01*
X8698277Y-14777888D02*
X8688753Y-14739793D01*
X8688753Y-14739793D02*
X8688753Y-14692174D01*
X8688753Y-14692174D02*
X8698277Y-14654079D01*
X8698277Y-14654079D02*
X8707801Y-14635031D01*
X8707801Y-14635031D02*
X8717324Y-14625508D01*
X8717324Y-14625508D02*
X8736372Y-14615984D01*
X8888753Y-14796936D02*
X8898277Y-14806460D01*
X8898277Y-14806460D02*
X8888753Y-14815984D01*
X8888753Y-14815984D02*
X8879229Y-14806460D01*
X8879229Y-14806460D02*
X8888753Y-14796936D01*
X8888753Y-14796936D02*
X8888753Y-14815984D01*
X8993515Y-14815984D02*
X9031610Y-14815984D01*
X9031610Y-14815984D02*
X9050658Y-14806460D01*
X9050658Y-14806460D02*
X9060182Y-14796936D01*
X9060182Y-14796936D02*
X9079229Y-14768365D01*
X9079229Y-14768365D02*
X9088753Y-14730269D01*
X9088753Y-14730269D02*
X9088753Y-14654079D01*
X9088753Y-14654079D02*
X9079229Y-14635031D01*
X9079229Y-14635031D02*
X9069705Y-14625508D01*
X9069705Y-14625508D02*
X9050658Y-14615984D01*
X9050658Y-14615984D02*
X9012563Y-14615984D01*
X9012563Y-14615984D02*
X8993515Y-14625508D01*
X8993515Y-14625508D02*
X8983991Y-14635031D01*
X8983991Y-14635031D02*
X8974467Y-14654079D01*
X8974467Y-14654079D02*
X8974467Y-14701698D01*
X8974467Y-14701698D02*
X8983991Y-14720746D01*
X8983991Y-14720746D02*
X8993515Y-14730269D01*
X8993515Y-14730269D02*
X9012563Y-14739793D01*
X9012563Y-14739793D02*
X9050658Y-14739793D01*
X9050658Y-14739793D02*
X9069705Y-14730269D01*
X9069705Y-14730269D02*
X9079229Y-14720746D01*
X9079229Y-14720746D02*
X9088753Y-14701698D01*
X9212563Y-14615984D02*
X9231610Y-14615984D01*
X9231610Y-14615984D02*
X9250658Y-14625508D01*
X9250658Y-14625508D02*
X9260182Y-14635031D01*
X9260182Y-14635031D02*
X9269705Y-14654079D01*
X9269705Y-14654079D02*
X9279229Y-14692174D01*
X9279229Y-14692174D02*
X9279229Y-14739793D01*
X9279229Y-14739793D02*
X9269705Y-14777888D01*
X9269705Y-14777888D02*
X9260182Y-14796936D01*
X9260182Y-14796936D02*
X9250658Y-14806460D01*
X9250658Y-14806460D02*
X9231610Y-14815984D01*
X9231610Y-14815984D02*
X9212563Y-14815984D01*
X9212563Y-14815984D02*
X9193515Y-14806460D01*
X9193515Y-14806460D02*
X9183991Y-14796936D01*
X9183991Y-14796936D02*
X9174467Y-14777888D01*
X9174467Y-14777888D02*
X9164944Y-14739793D01*
X9164944Y-14739793D02*
X9164944Y-14692174D01*
X9164944Y-14692174D02*
X9174467Y-14654079D01*
X9174467Y-14654079D02*
X9183991Y-14635031D01*
X9183991Y-14635031D02*
X9193515Y-14625508D01*
X9193515Y-14625508D02*
X9212563Y-14615984D01*
X9403039Y-14615984D02*
X9422086Y-14615984D01*
X9422086Y-14615984D02*
X9441134Y-14625508D01*
X9441134Y-14625508D02*
X9450658Y-14635031D01*
X9450658Y-14635031D02*
X9460182Y-14654079D01*
X9460182Y-14654079D02*
X9469705Y-14692174D01*
X9469705Y-14692174D02*
X9469705Y-14739793D01*
X9469705Y-14739793D02*
X9460182Y-14777888D01*
X9460182Y-14777888D02*
X9450658Y-14796936D01*
X9450658Y-14796936D02*
X9441134Y-14806460D01*
X9441134Y-14806460D02*
X9422086Y-14815984D01*
X9422086Y-14815984D02*
X9403039Y-14815984D01*
X9403039Y-14815984D02*
X9383991Y-14806460D01*
X9383991Y-14806460D02*
X9374467Y-14796936D01*
X9374467Y-14796936D02*
X9364944Y-14777888D01*
X9364944Y-14777888D02*
X9355420Y-14739793D01*
X9355420Y-14739793D02*
X9355420Y-14692174D01*
X9355420Y-14692174D02*
X9364944Y-14654079D01*
X9364944Y-14654079D02*
X9374467Y-14635031D01*
X9374467Y-14635031D02*
X9383991Y-14625508D01*
X9383991Y-14625508D02*
X9403039Y-14615984D01*
X9555420Y-14815984D02*
X9555420Y-14682650D01*
X9555420Y-14701698D02*
X9564944Y-14692174D01*
X9564944Y-14692174D02*
X9583991Y-14682650D01*
X9583991Y-14682650D02*
X9612563Y-14682650D01*
X9612563Y-14682650D02*
X9631610Y-14692174D01*
X9631610Y-14692174D02*
X9641134Y-14711222D01*
X9641134Y-14711222D02*
X9641134Y-14815984D01*
X9641134Y-14711222D02*
X9650658Y-14692174D01*
X9650658Y-14692174D02*
X9669705Y-14682650D01*
X9669705Y-14682650D02*
X9698277Y-14682650D01*
X9698277Y-14682650D02*
X9717325Y-14692174D01*
X9717325Y-14692174D02*
X9726848Y-14711222D01*
X9726848Y-14711222D02*
X9726848Y-14815984D01*
X9822086Y-14815984D02*
X9822086Y-14682650D01*
X9822086Y-14701698D02*
X9831610Y-14692174D01*
X9831610Y-14692174D02*
X9850658Y-14682650D01*
X9850658Y-14682650D02*
X9879229Y-14682650D01*
X9879229Y-14682650D02*
X9898277Y-14692174D01*
X9898277Y-14692174D02*
X9907801Y-14711222D01*
X9907801Y-14711222D02*
X9907801Y-14815984D01*
X9907801Y-14711222D02*
X9917325Y-14692174D01*
X9917325Y-14692174D02*
X9936372Y-14682650D01*
X9936372Y-14682650D02*
X9964944Y-14682650D01*
X9964944Y-14682650D02*
X9983991Y-14692174D01*
X9983991Y-14692174D02*
X9993515Y-14711222D01*
X9993515Y-14711222D02*
X9993515Y-14815984D01*
X10383991Y-14606460D02*
X10212563Y-14863603D01*
X10641134Y-14615984D02*
X10660182Y-14615984D01*
X10660182Y-14615984D02*
X10679229Y-14625508D01*
X10679229Y-14625508D02*
X10688753Y-14635031D01*
X10688753Y-14635031D02*
X10698277Y-14654079D01*
X10698277Y-14654079D02*
X10707801Y-14692174D01*
X10707801Y-14692174D02*
X10707801Y-14739793D01*
X10707801Y-14739793D02*
X10698277Y-14777888D01*
X10698277Y-14777888D02*
X10688753Y-14796936D01*
X10688753Y-14796936D02*
X10679229Y-14806460D01*
X10679229Y-14806460D02*
X10660182Y-14815984D01*
X10660182Y-14815984D02*
X10641134Y-14815984D01*
X10641134Y-14815984D02*
X10622087Y-14806460D01*
X10622087Y-14806460D02*
X10612563Y-14796936D01*
X10612563Y-14796936D02*
X10603039Y-14777888D01*
X10603039Y-14777888D02*
X10593515Y-14739793D01*
X10593515Y-14739793D02*
X10593515Y-14692174D01*
X10593515Y-14692174D02*
X10603039Y-14654079D01*
X10603039Y-14654079D02*
X10612563Y-14635031D01*
X10612563Y-14635031D02*
X10622087Y-14625508D01*
X10622087Y-14625508D02*
X10641134Y-14615984D01*
X10793515Y-14796936D02*
X10803039Y-14806460D01*
X10803039Y-14806460D02*
X10793515Y-14815984D01*
X10793515Y-14815984D02*
X10783991Y-14806460D01*
X10783991Y-14806460D02*
X10793515Y-14796936D01*
X10793515Y-14796936D02*
X10793515Y-14815984D01*
X10926848Y-14615984D02*
X10945896Y-14615984D01*
X10945896Y-14615984D02*
X10964944Y-14625508D01*
X10964944Y-14625508D02*
X10974468Y-14635031D01*
X10974468Y-14635031D02*
X10983991Y-14654079D01*
X10983991Y-14654079D02*
X10993515Y-14692174D01*
X10993515Y-14692174D02*
X10993515Y-14739793D01*
X10993515Y-14739793D02*
X10983991Y-14777888D01*
X10983991Y-14777888D02*
X10974468Y-14796936D01*
X10974468Y-14796936D02*
X10964944Y-14806460D01*
X10964944Y-14806460D02*
X10945896Y-14815984D01*
X10945896Y-14815984D02*
X10926848Y-14815984D01*
X10926848Y-14815984D02*
X10907801Y-14806460D01*
X10907801Y-14806460D02*
X10898277Y-14796936D01*
X10898277Y-14796936D02*
X10888753Y-14777888D01*
X10888753Y-14777888D02*
X10879229Y-14739793D01*
X10879229Y-14739793D02*
X10879229Y-14692174D01*
X10879229Y-14692174D02*
X10888753Y-14654079D01*
X10888753Y-14654079D02*
X10898277Y-14635031D01*
X10898277Y-14635031D02*
X10907801Y-14625508D01*
X10907801Y-14625508D02*
X10926848Y-14615984D01*
X11060182Y-14615984D02*
X11183991Y-14615984D01*
X11183991Y-14615984D02*
X11117325Y-14692174D01*
X11117325Y-14692174D02*
X11145896Y-14692174D01*
X11145896Y-14692174D02*
X11164944Y-14701698D01*
X11164944Y-14701698D02*
X11174468Y-14711222D01*
X11174468Y-14711222D02*
X11183991Y-14730269D01*
X11183991Y-14730269D02*
X11183991Y-14777888D01*
X11183991Y-14777888D02*
X11174468Y-14796936D01*
X11174468Y-14796936D02*
X11164944Y-14806460D01*
X11164944Y-14806460D02*
X11145896Y-14815984D01*
X11145896Y-14815984D02*
X11088753Y-14815984D01*
X11088753Y-14815984D02*
X11069706Y-14806460D01*
X11069706Y-14806460D02*
X11060182Y-14796936D01*
X11364944Y-14615984D02*
X11269706Y-14615984D01*
X11269706Y-14615984D02*
X11260182Y-14711222D01*
X11260182Y-14711222D02*
X11269706Y-14701698D01*
X11269706Y-14701698D02*
X11288753Y-14692174D01*
X11288753Y-14692174D02*
X11336372Y-14692174D01*
X11336372Y-14692174D02*
X11355420Y-14701698D01*
X11355420Y-14701698D02*
X11364944Y-14711222D01*
X11364944Y-14711222D02*
X11374467Y-14730269D01*
X11374467Y-14730269D02*
X11374467Y-14777888D01*
X11374467Y-14777888D02*
X11364944Y-14796936D01*
X11364944Y-14796936D02*
X11355420Y-14806460D01*
X11355420Y-14806460D02*
X11336372Y-14815984D01*
X11336372Y-14815984D02*
X11288753Y-14815984D01*
X11288753Y-14815984D02*
X11269706Y-14806460D01*
X11269706Y-14806460D02*
X11260182Y-14796936D01*
X11545896Y-14682650D02*
X11545896Y-14815984D01*
X11498277Y-14606460D02*
X11450658Y-14749317D01*
X11450658Y-14749317D02*
X11574467Y-14749317D01*
X11641134Y-14615984D02*
X11641134Y-14654079D01*
X11717325Y-14615984D02*
X11717325Y-14654079D01*
X12012563Y-14892174D02*
X12003039Y-14882650D01*
X12003039Y-14882650D02*
X11983991Y-14854079D01*
X11983991Y-14854079D02*
X11974468Y-14835031D01*
X11974468Y-14835031D02*
X11964944Y-14806460D01*
X11964944Y-14806460D02*
X11955420Y-14758841D01*
X11955420Y-14758841D02*
X11955420Y-14720746D01*
X11955420Y-14720746D02*
X11964944Y-14673127D01*
X11964944Y-14673127D02*
X11974468Y-14644555D01*
X11974468Y-14644555D02*
X11983991Y-14625508D01*
X11983991Y-14625508D02*
X12003039Y-14596936D01*
X12003039Y-14596936D02*
X12012563Y-14587412D01*
X12117325Y-14701698D02*
X12098277Y-14692174D01*
X12098277Y-14692174D02*
X12088753Y-14682650D01*
X12088753Y-14682650D02*
X12079229Y-14663603D01*
X12079229Y-14663603D02*
X12079229Y-14654079D01*
X12079229Y-14654079D02*
X12088753Y-14635031D01*
X12088753Y-14635031D02*
X12098277Y-14625508D01*
X12098277Y-14625508D02*
X12117325Y-14615984D01*
X12117325Y-14615984D02*
X12155420Y-14615984D01*
X12155420Y-14615984D02*
X12174468Y-14625508D01*
X12174468Y-14625508D02*
X12183991Y-14635031D01*
X12183991Y-14635031D02*
X12193515Y-14654079D01*
X12193515Y-14654079D02*
X12193515Y-14663603D01*
X12193515Y-14663603D02*
X12183991Y-14682650D01*
X12183991Y-14682650D02*
X12174468Y-14692174D01*
X12174468Y-14692174D02*
X12155420Y-14701698D01*
X12155420Y-14701698D02*
X12117325Y-14701698D01*
X12117325Y-14701698D02*
X12098277Y-14711222D01*
X12098277Y-14711222D02*
X12088753Y-14720746D01*
X12088753Y-14720746D02*
X12079229Y-14739793D01*
X12079229Y-14739793D02*
X12079229Y-14777888D01*
X12079229Y-14777888D02*
X12088753Y-14796936D01*
X12088753Y-14796936D02*
X12098277Y-14806460D01*
X12098277Y-14806460D02*
X12117325Y-14815984D01*
X12117325Y-14815984D02*
X12155420Y-14815984D01*
X12155420Y-14815984D02*
X12174468Y-14806460D01*
X12174468Y-14806460D02*
X12183991Y-14796936D01*
X12183991Y-14796936D02*
X12193515Y-14777888D01*
X12193515Y-14777888D02*
X12193515Y-14739793D01*
X12193515Y-14739793D02*
X12183991Y-14720746D01*
X12183991Y-14720746D02*
X12174468Y-14711222D01*
X12174468Y-14711222D02*
X12155420Y-14701698D01*
X12431610Y-14815984D02*
X12431610Y-14615984D01*
X12517325Y-14815984D02*
X12517325Y-14711222D01*
X12517325Y-14711222D02*
X12507801Y-14692174D01*
X12507801Y-14692174D02*
X12488753Y-14682650D01*
X12488753Y-14682650D02*
X12460182Y-14682650D01*
X12460182Y-14682650D02*
X12441134Y-14692174D01*
X12441134Y-14692174D02*
X12431610Y-14701698D01*
X12641134Y-14815984D02*
X12622087Y-14806460D01*
X12622087Y-14806460D02*
X12612563Y-14796936D01*
X12612563Y-14796936D02*
X12603039Y-14777888D01*
X12603039Y-14777888D02*
X12603039Y-14720746D01*
X12603039Y-14720746D02*
X12612563Y-14701698D01*
X12612563Y-14701698D02*
X12622087Y-14692174D01*
X12622087Y-14692174D02*
X12641134Y-14682650D01*
X12641134Y-14682650D02*
X12669706Y-14682650D01*
X12669706Y-14682650D02*
X12688753Y-14692174D01*
X12688753Y-14692174D02*
X12698277Y-14701698D01*
X12698277Y-14701698D02*
X12707801Y-14720746D01*
X12707801Y-14720746D02*
X12707801Y-14777888D01*
X12707801Y-14777888D02*
X12698277Y-14796936D01*
X12698277Y-14796936D02*
X12688753Y-14806460D01*
X12688753Y-14806460D02*
X12669706Y-14815984D01*
X12669706Y-14815984D02*
X12641134Y-14815984D01*
X12822087Y-14815984D02*
X12803039Y-14806460D01*
X12803039Y-14806460D02*
X12793515Y-14787412D01*
X12793515Y-14787412D02*
X12793515Y-14615984D01*
X12974468Y-14806460D02*
X12955420Y-14815984D01*
X12955420Y-14815984D02*
X12917325Y-14815984D01*
X12917325Y-14815984D02*
X12898277Y-14806460D01*
X12898277Y-14806460D02*
X12888753Y-14787412D01*
X12888753Y-14787412D02*
X12888753Y-14711222D01*
X12888753Y-14711222D02*
X12898277Y-14692174D01*
X12898277Y-14692174D02*
X12917325Y-14682650D01*
X12917325Y-14682650D02*
X12955420Y-14682650D01*
X12955420Y-14682650D02*
X12974468Y-14692174D01*
X12974468Y-14692174D02*
X12983991Y-14711222D01*
X12983991Y-14711222D02*
X12983991Y-14730269D01*
X12983991Y-14730269D02*
X12888753Y-14749317D01*
X13060182Y-14806460D02*
X13079230Y-14815984D01*
X13079230Y-14815984D02*
X13117325Y-14815984D01*
X13117325Y-14815984D02*
X13136372Y-14806460D01*
X13136372Y-14806460D02*
X13145896Y-14787412D01*
X13145896Y-14787412D02*
X13145896Y-14777888D01*
X13145896Y-14777888D02*
X13136372Y-14758841D01*
X13136372Y-14758841D02*
X13117325Y-14749317D01*
X13117325Y-14749317D02*
X13088753Y-14749317D01*
X13088753Y-14749317D02*
X13069706Y-14739793D01*
X13069706Y-14739793D02*
X13060182Y-14720746D01*
X13060182Y-14720746D02*
X13060182Y-14711222D01*
X13060182Y-14711222D02*
X13069706Y-14692174D01*
X13069706Y-14692174D02*
X13088753Y-14682650D01*
X13088753Y-14682650D02*
X13117325Y-14682650D01*
X13117325Y-14682650D02*
X13136372Y-14692174D01*
X13212563Y-14892174D02*
X13222087Y-14882650D01*
X13222087Y-14882650D02*
X13241134Y-14854079D01*
X13241134Y-14854079D02*
X13250658Y-14835031D01*
X13250658Y-14835031D02*
X13260182Y-14806460D01*
X13260182Y-14806460D02*
X13269706Y-14758841D01*
X13269706Y-14758841D02*
X13269706Y-14720746D01*
X13269706Y-14720746D02*
X13260182Y-14673127D01*
X13260182Y-14673127D02*
X13250658Y-14644555D01*
X13250658Y-14644555D02*
X13241134Y-14625508D01*
X13241134Y-14625508D02*
X13222087Y-14596936D01*
X13222087Y-14596936D02*
X13212563Y-14587412D01*
D13*
X8383000Y-15043000D02*
X8437500Y-14988500D01*
X8383000Y-14934000D01*
X8328500Y-14988500D01*
X8383000Y-15043000D01*
D11*
X8803039Y-15079984D02*
X8688753Y-15079984D01*
X8745896Y-15079984D02*
X8745896Y-14879984D01*
X8745896Y-14879984D02*
X8726848Y-14908555D01*
X8726848Y-14908555D02*
X8707801Y-14927603D01*
X8707801Y-14927603D02*
X8688753Y-14937127D01*
X8888753Y-15060936D02*
X8898277Y-15070460D01*
X8898277Y-15070460D02*
X8888753Y-15079984D01*
X8888753Y-15079984D02*
X8879229Y-15070460D01*
X8879229Y-15070460D02*
X8888753Y-15060936D01*
X8888753Y-15060936D02*
X8888753Y-15079984D01*
X9022086Y-14879984D02*
X9041134Y-14879984D01*
X9041134Y-14879984D02*
X9060182Y-14889508D01*
X9060182Y-14889508D02*
X9069705Y-14899031D01*
X9069705Y-14899031D02*
X9079229Y-14918079D01*
X9079229Y-14918079D02*
X9088753Y-14956174D01*
X9088753Y-14956174D02*
X9088753Y-15003793D01*
X9088753Y-15003793D02*
X9079229Y-15041888D01*
X9079229Y-15041888D02*
X9069705Y-15060936D01*
X9069705Y-15060936D02*
X9060182Y-15070460D01*
X9060182Y-15070460D02*
X9041134Y-15079984D01*
X9041134Y-15079984D02*
X9022086Y-15079984D01*
X9022086Y-15079984D02*
X9003039Y-15070460D01*
X9003039Y-15070460D02*
X8993515Y-15060936D01*
X8993515Y-15060936D02*
X8983991Y-15041888D01*
X8983991Y-15041888D02*
X8974467Y-15003793D01*
X8974467Y-15003793D02*
X8974467Y-14956174D01*
X8974467Y-14956174D02*
X8983991Y-14918079D01*
X8983991Y-14918079D02*
X8993515Y-14899031D01*
X8993515Y-14899031D02*
X9003039Y-14889508D01*
X9003039Y-14889508D02*
X9022086Y-14879984D01*
X9183991Y-15079984D02*
X9222086Y-15079984D01*
X9222086Y-15079984D02*
X9241134Y-15070460D01*
X9241134Y-15070460D02*
X9250658Y-15060936D01*
X9250658Y-15060936D02*
X9269705Y-15032365D01*
X9269705Y-15032365D02*
X9279229Y-14994269D01*
X9279229Y-14994269D02*
X9279229Y-14918079D01*
X9279229Y-14918079D02*
X9269705Y-14899031D01*
X9269705Y-14899031D02*
X9260182Y-14889508D01*
X9260182Y-14889508D02*
X9241134Y-14879984D01*
X9241134Y-14879984D02*
X9203039Y-14879984D01*
X9203039Y-14879984D02*
X9183991Y-14889508D01*
X9183991Y-14889508D02*
X9174467Y-14899031D01*
X9174467Y-14899031D02*
X9164944Y-14918079D01*
X9164944Y-14918079D02*
X9164944Y-14965698D01*
X9164944Y-14965698D02*
X9174467Y-14984746D01*
X9174467Y-14984746D02*
X9183991Y-14994269D01*
X9183991Y-14994269D02*
X9203039Y-15003793D01*
X9203039Y-15003793D02*
X9241134Y-15003793D01*
X9241134Y-15003793D02*
X9260182Y-14994269D01*
X9260182Y-14994269D02*
X9269705Y-14984746D01*
X9269705Y-14984746D02*
X9279229Y-14965698D01*
X9403039Y-14879984D02*
X9422086Y-14879984D01*
X9422086Y-14879984D02*
X9441134Y-14889508D01*
X9441134Y-14889508D02*
X9450658Y-14899031D01*
X9450658Y-14899031D02*
X9460182Y-14918079D01*
X9460182Y-14918079D02*
X9469705Y-14956174D01*
X9469705Y-14956174D02*
X9469705Y-15003793D01*
X9469705Y-15003793D02*
X9460182Y-15041888D01*
X9460182Y-15041888D02*
X9450658Y-15060936D01*
X9450658Y-15060936D02*
X9441134Y-15070460D01*
X9441134Y-15070460D02*
X9422086Y-15079984D01*
X9422086Y-15079984D02*
X9403039Y-15079984D01*
X9403039Y-15079984D02*
X9383991Y-15070460D01*
X9383991Y-15070460D02*
X9374467Y-15060936D01*
X9374467Y-15060936D02*
X9364944Y-15041888D01*
X9364944Y-15041888D02*
X9355420Y-15003793D01*
X9355420Y-15003793D02*
X9355420Y-14956174D01*
X9355420Y-14956174D02*
X9364944Y-14918079D01*
X9364944Y-14918079D02*
X9374467Y-14899031D01*
X9374467Y-14899031D02*
X9383991Y-14889508D01*
X9383991Y-14889508D02*
X9403039Y-14879984D01*
X9555420Y-15079984D02*
X9555420Y-14946650D01*
X9555420Y-14965698D02*
X9564944Y-14956174D01*
X9564944Y-14956174D02*
X9583991Y-14946650D01*
X9583991Y-14946650D02*
X9612563Y-14946650D01*
X9612563Y-14946650D02*
X9631610Y-14956174D01*
X9631610Y-14956174D02*
X9641134Y-14975222D01*
X9641134Y-14975222D02*
X9641134Y-15079984D01*
X9641134Y-14975222D02*
X9650658Y-14956174D01*
X9650658Y-14956174D02*
X9669705Y-14946650D01*
X9669705Y-14946650D02*
X9698277Y-14946650D01*
X9698277Y-14946650D02*
X9717325Y-14956174D01*
X9717325Y-14956174D02*
X9726848Y-14975222D01*
X9726848Y-14975222D02*
X9726848Y-15079984D01*
X9822086Y-15079984D02*
X9822086Y-14946650D01*
X9822086Y-14965698D02*
X9831610Y-14956174D01*
X9831610Y-14956174D02*
X9850658Y-14946650D01*
X9850658Y-14946650D02*
X9879229Y-14946650D01*
X9879229Y-14946650D02*
X9898277Y-14956174D01*
X9898277Y-14956174D02*
X9907801Y-14975222D01*
X9907801Y-14975222D02*
X9907801Y-15079984D01*
X9907801Y-14975222D02*
X9917325Y-14956174D01*
X9917325Y-14956174D02*
X9936372Y-14946650D01*
X9936372Y-14946650D02*
X9964944Y-14946650D01*
X9964944Y-14946650D02*
X9983991Y-14956174D01*
X9983991Y-14956174D02*
X9993515Y-14975222D01*
X9993515Y-14975222D02*
X9993515Y-15079984D01*
X10383991Y-14870460D02*
X10212563Y-15127603D01*
X10641134Y-14879984D02*
X10660182Y-14879984D01*
X10660182Y-14879984D02*
X10679229Y-14889508D01*
X10679229Y-14889508D02*
X10688753Y-14899031D01*
X10688753Y-14899031D02*
X10698277Y-14918079D01*
X10698277Y-14918079D02*
X10707801Y-14956174D01*
X10707801Y-14956174D02*
X10707801Y-15003793D01*
X10707801Y-15003793D02*
X10698277Y-15041888D01*
X10698277Y-15041888D02*
X10688753Y-15060936D01*
X10688753Y-15060936D02*
X10679229Y-15070460D01*
X10679229Y-15070460D02*
X10660182Y-15079984D01*
X10660182Y-15079984D02*
X10641134Y-15079984D01*
X10641134Y-15079984D02*
X10622087Y-15070460D01*
X10622087Y-15070460D02*
X10612563Y-15060936D01*
X10612563Y-15060936D02*
X10603039Y-15041888D01*
X10603039Y-15041888D02*
X10593515Y-15003793D01*
X10593515Y-15003793D02*
X10593515Y-14956174D01*
X10593515Y-14956174D02*
X10603039Y-14918079D01*
X10603039Y-14918079D02*
X10612563Y-14899031D01*
X10612563Y-14899031D02*
X10622087Y-14889508D01*
X10622087Y-14889508D02*
X10641134Y-14879984D01*
X10793515Y-15060936D02*
X10803039Y-15070460D01*
X10803039Y-15070460D02*
X10793515Y-15079984D01*
X10793515Y-15079984D02*
X10783991Y-15070460D01*
X10783991Y-15070460D02*
X10793515Y-15060936D01*
X10793515Y-15060936D02*
X10793515Y-15079984D01*
X10926848Y-14879984D02*
X10945896Y-14879984D01*
X10945896Y-14879984D02*
X10964944Y-14889508D01*
X10964944Y-14889508D02*
X10974468Y-14899031D01*
X10974468Y-14899031D02*
X10983991Y-14918079D01*
X10983991Y-14918079D02*
X10993515Y-14956174D01*
X10993515Y-14956174D02*
X10993515Y-15003793D01*
X10993515Y-15003793D02*
X10983991Y-15041888D01*
X10983991Y-15041888D02*
X10974468Y-15060936D01*
X10974468Y-15060936D02*
X10964944Y-15070460D01*
X10964944Y-15070460D02*
X10945896Y-15079984D01*
X10945896Y-15079984D02*
X10926848Y-15079984D01*
X10926848Y-15079984D02*
X10907801Y-15070460D01*
X10907801Y-15070460D02*
X10898277Y-15060936D01*
X10898277Y-15060936D02*
X10888753Y-15041888D01*
X10888753Y-15041888D02*
X10879229Y-15003793D01*
X10879229Y-15003793D02*
X10879229Y-14956174D01*
X10879229Y-14956174D02*
X10888753Y-14918079D01*
X10888753Y-14918079D02*
X10898277Y-14899031D01*
X10898277Y-14899031D02*
X10907801Y-14889508D01*
X10907801Y-14889508D02*
X10926848Y-14879984D01*
X11164944Y-14946650D02*
X11164944Y-15079984D01*
X11117325Y-14870460D02*
X11069706Y-15013317D01*
X11069706Y-15013317D02*
X11193515Y-15013317D01*
X11260182Y-14899031D02*
X11269706Y-14889508D01*
X11269706Y-14889508D02*
X11288753Y-14879984D01*
X11288753Y-14879984D02*
X11336372Y-14879984D01*
X11336372Y-14879984D02*
X11355420Y-14889508D01*
X11355420Y-14889508D02*
X11364944Y-14899031D01*
X11364944Y-14899031D02*
X11374467Y-14918079D01*
X11374467Y-14918079D02*
X11374467Y-14937127D01*
X11374467Y-14937127D02*
X11364944Y-14965698D01*
X11364944Y-14965698D02*
X11250658Y-15079984D01*
X11250658Y-15079984D02*
X11374467Y-15079984D01*
X11469706Y-15079984D02*
X11507801Y-15079984D01*
X11507801Y-15079984D02*
X11526848Y-15070460D01*
X11526848Y-15070460D02*
X11536372Y-15060936D01*
X11536372Y-15060936D02*
X11555420Y-15032365D01*
X11555420Y-15032365D02*
X11564944Y-14994269D01*
X11564944Y-14994269D02*
X11564944Y-14918079D01*
X11564944Y-14918079D02*
X11555420Y-14899031D01*
X11555420Y-14899031D02*
X11545896Y-14889508D01*
X11545896Y-14889508D02*
X11526848Y-14879984D01*
X11526848Y-14879984D02*
X11488753Y-14879984D01*
X11488753Y-14879984D02*
X11469706Y-14889508D01*
X11469706Y-14889508D02*
X11460182Y-14899031D01*
X11460182Y-14899031D02*
X11450658Y-14918079D01*
X11450658Y-14918079D02*
X11450658Y-14965698D01*
X11450658Y-14965698D02*
X11460182Y-14984746D01*
X11460182Y-14984746D02*
X11469706Y-14994269D01*
X11469706Y-14994269D02*
X11488753Y-15003793D01*
X11488753Y-15003793D02*
X11526848Y-15003793D01*
X11526848Y-15003793D02*
X11545896Y-14994269D01*
X11545896Y-14994269D02*
X11555420Y-14984746D01*
X11555420Y-14984746D02*
X11564944Y-14965698D01*
X11641134Y-14879984D02*
X11641134Y-14918079D01*
X11717325Y-14879984D02*
X11717325Y-14918079D01*
X12012563Y-15156174D02*
X12003039Y-15146650D01*
X12003039Y-15146650D02*
X11983991Y-15118079D01*
X11983991Y-15118079D02*
X11974468Y-15099031D01*
X11974468Y-15099031D02*
X11964944Y-15070460D01*
X11964944Y-15070460D02*
X11955420Y-15022841D01*
X11955420Y-15022841D02*
X11955420Y-14984746D01*
X11955420Y-14984746D02*
X11964944Y-14937127D01*
X11964944Y-14937127D02*
X11974468Y-14908555D01*
X11974468Y-14908555D02*
X11983991Y-14889508D01*
X11983991Y-14889508D02*
X12003039Y-14860936D01*
X12003039Y-14860936D02*
X12012563Y-14851412D01*
X12117325Y-14965698D02*
X12098277Y-14956174D01*
X12098277Y-14956174D02*
X12088753Y-14946650D01*
X12088753Y-14946650D02*
X12079229Y-14927603D01*
X12079229Y-14927603D02*
X12079229Y-14918079D01*
X12079229Y-14918079D02*
X12088753Y-14899031D01*
X12088753Y-14899031D02*
X12098277Y-14889508D01*
X12098277Y-14889508D02*
X12117325Y-14879984D01*
X12117325Y-14879984D02*
X12155420Y-14879984D01*
X12155420Y-14879984D02*
X12174468Y-14889508D01*
X12174468Y-14889508D02*
X12183991Y-14899031D01*
X12183991Y-14899031D02*
X12193515Y-14918079D01*
X12193515Y-14918079D02*
X12193515Y-14927603D01*
X12193515Y-14927603D02*
X12183991Y-14946650D01*
X12183991Y-14946650D02*
X12174468Y-14956174D01*
X12174468Y-14956174D02*
X12155420Y-14965698D01*
X12155420Y-14965698D02*
X12117325Y-14965698D01*
X12117325Y-14965698D02*
X12098277Y-14975222D01*
X12098277Y-14975222D02*
X12088753Y-14984746D01*
X12088753Y-14984746D02*
X12079229Y-15003793D01*
X12079229Y-15003793D02*
X12079229Y-15041888D01*
X12079229Y-15041888D02*
X12088753Y-15060936D01*
X12088753Y-15060936D02*
X12098277Y-15070460D01*
X12098277Y-15070460D02*
X12117325Y-15079984D01*
X12117325Y-15079984D02*
X12155420Y-15079984D01*
X12155420Y-15079984D02*
X12174468Y-15070460D01*
X12174468Y-15070460D02*
X12183991Y-15060936D01*
X12183991Y-15060936D02*
X12193515Y-15041888D01*
X12193515Y-15041888D02*
X12193515Y-15003793D01*
X12193515Y-15003793D02*
X12183991Y-14984746D01*
X12183991Y-14984746D02*
X12174468Y-14975222D01*
X12174468Y-14975222D02*
X12155420Y-14965698D01*
X12364944Y-14879984D02*
X12326848Y-14879984D01*
X12326848Y-14879984D02*
X12307801Y-14889508D01*
X12307801Y-14889508D02*
X12298277Y-14899031D01*
X12298277Y-14899031D02*
X12279229Y-14927603D01*
X12279229Y-14927603D02*
X12269706Y-14965698D01*
X12269706Y-14965698D02*
X12269706Y-15041888D01*
X12269706Y-15041888D02*
X12279229Y-15060936D01*
X12279229Y-15060936D02*
X12288753Y-15070460D01*
X12288753Y-15070460D02*
X12307801Y-15079984D01*
X12307801Y-15079984D02*
X12345896Y-15079984D01*
X12345896Y-15079984D02*
X12364944Y-15070460D01*
X12364944Y-15070460D02*
X12374468Y-15060936D01*
X12374468Y-15060936D02*
X12383991Y-15041888D01*
X12383991Y-15041888D02*
X12383991Y-14994269D01*
X12383991Y-14994269D02*
X12374468Y-14975222D01*
X12374468Y-14975222D02*
X12364944Y-14965698D01*
X12364944Y-14965698D02*
X12345896Y-14956174D01*
X12345896Y-14956174D02*
X12307801Y-14956174D01*
X12307801Y-14956174D02*
X12288753Y-14965698D01*
X12288753Y-14965698D02*
X12279229Y-14975222D01*
X12279229Y-14975222D02*
X12269706Y-14994269D01*
X12622087Y-15079984D02*
X12622087Y-14879984D01*
X12707801Y-15079984D02*
X12707801Y-14975222D01*
X12707801Y-14975222D02*
X12698277Y-14956174D01*
X12698277Y-14956174D02*
X12679230Y-14946650D01*
X12679230Y-14946650D02*
X12650658Y-14946650D01*
X12650658Y-14946650D02*
X12631610Y-14956174D01*
X12631610Y-14956174D02*
X12622087Y-14965698D01*
X12831610Y-15079984D02*
X12812563Y-15070460D01*
X12812563Y-15070460D02*
X12803039Y-15060936D01*
X12803039Y-15060936D02*
X12793515Y-15041888D01*
X12793515Y-15041888D02*
X12793515Y-14984746D01*
X12793515Y-14984746D02*
X12803039Y-14965698D01*
X12803039Y-14965698D02*
X12812563Y-14956174D01*
X12812563Y-14956174D02*
X12831610Y-14946650D01*
X12831610Y-14946650D02*
X12860182Y-14946650D01*
X12860182Y-14946650D02*
X12879230Y-14956174D01*
X12879230Y-14956174D02*
X12888753Y-14965698D01*
X12888753Y-14965698D02*
X12898277Y-14984746D01*
X12898277Y-14984746D02*
X12898277Y-15041888D01*
X12898277Y-15041888D02*
X12888753Y-15060936D01*
X12888753Y-15060936D02*
X12879230Y-15070460D01*
X12879230Y-15070460D02*
X12860182Y-15079984D01*
X12860182Y-15079984D02*
X12831610Y-15079984D01*
X13012563Y-15079984D02*
X12993515Y-15070460D01*
X12993515Y-15070460D02*
X12983991Y-15051412D01*
X12983991Y-15051412D02*
X12983991Y-14879984D01*
X13164944Y-15070460D02*
X13145896Y-15079984D01*
X13145896Y-15079984D02*
X13107801Y-15079984D01*
X13107801Y-15079984D02*
X13088753Y-15070460D01*
X13088753Y-15070460D02*
X13079230Y-15051412D01*
X13079230Y-15051412D02*
X13079230Y-14975222D01*
X13079230Y-14975222D02*
X13088753Y-14956174D01*
X13088753Y-14956174D02*
X13107801Y-14946650D01*
X13107801Y-14946650D02*
X13145896Y-14946650D01*
X13145896Y-14946650D02*
X13164944Y-14956174D01*
X13164944Y-14956174D02*
X13174468Y-14975222D01*
X13174468Y-14975222D02*
X13174468Y-14994269D01*
X13174468Y-14994269D02*
X13079230Y-15013317D01*
X13250658Y-15070460D02*
X13269706Y-15079984D01*
X13269706Y-15079984D02*
X13307801Y-15079984D01*
X13307801Y-15079984D02*
X13326849Y-15070460D01*
X13326849Y-15070460D02*
X13336372Y-15051412D01*
X13336372Y-15051412D02*
X13336372Y-15041888D01*
X13336372Y-15041888D02*
X13326849Y-15022841D01*
X13326849Y-15022841D02*
X13307801Y-15013317D01*
X13307801Y-15013317D02*
X13279230Y-15013317D01*
X13279230Y-15013317D02*
X13260182Y-15003793D01*
X13260182Y-15003793D02*
X13250658Y-14984746D01*
X13250658Y-14984746D02*
X13250658Y-14975222D01*
X13250658Y-14975222D02*
X13260182Y-14956174D01*
X13260182Y-14956174D02*
X13279230Y-14946650D01*
X13279230Y-14946650D02*
X13307801Y-14946650D01*
X13307801Y-14946650D02*
X13326849Y-14956174D01*
X13403039Y-15156174D02*
X13412563Y-15146650D01*
X13412563Y-15146650D02*
X13431611Y-15118079D01*
X13431611Y-15118079D02*
X13441134Y-15099031D01*
X13441134Y-15099031D02*
X13450658Y-15070460D01*
X13450658Y-15070460D02*
X13460182Y-15022841D01*
X13460182Y-15022841D02*
X13460182Y-14984746D01*
X13460182Y-14984746D02*
X13450658Y-14937127D01*
X13450658Y-14937127D02*
X13441134Y-14908555D01*
X13441134Y-14908555D02*
X13431611Y-14889508D01*
X13431611Y-14889508D02*
X13412563Y-14860936D01*
X13412563Y-14860936D02*
X13403039Y-14851412D01*
M02*
