%TF.GenerationSoftware,KiCad,Pcbnew,8.0.3*%
%TF.CreationDate,2024-09-18T06:56:09+02:00*%
%TF.ProjectId,ARIII,41524949-492e-46b6-9963-61645f706362,rev?*%
%TF.SameCoordinates,Original*%
%TF.FileFunction,Legend,Top*%
%TF.FilePolarity,Positive*%
%FSLAX46Y46*%
G04 Gerber Fmt 4.6, Leading zero omitted, Abs format (unit mm)*
G04 Created by KiCad (PCBNEW 8.0.3) date 2024-09-18 06:56:09*
%MOMM*%
%LPD*%
G01*
G04 APERTURE LIST*
%ADD10C,0.300000*%
%ADD11C,0.100000*%
%ADD12C,0.254000*%
%ADD13C,0.150000*%
%ADD14C,0.200000*%
%ADD15C,0.120000*%
%ADD16C,0.152400*%
%ADD17C,0.400000*%
%ADD18C,0.000000*%
G04 APERTURE END LIST*
D10*
G36*
X120641311Y-92935324D02*
G01*
X120885310Y-92935324D01*
X120885310Y-96124159D01*
X120313049Y-96124159D01*
X120313049Y-94537801D01*
X119853628Y-94537801D01*
X119853628Y-96124159D01*
X119281367Y-96124159D01*
X119281367Y-93967006D01*
X119853628Y-93967006D01*
X120313049Y-93967006D01*
X120313049Y-92990279D01*
X119853628Y-92990279D01*
X119853628Y-93967006D01*
X119281367Y-93967006D01*
X119281367Y-92935324D01*
X119562735Y-92935324D01*
X119562735Y-92419483D01*
X120641311Y-92419483D01*
X120641311Y-92935324D01*
G37*
G36*
X121661270Y-93451165D02*
G01*
X122739846Y-93451165D01*
X122739846Y-94021960D01*
X121952163Y-94021960D01*
X121952163Y-95553363D01*
X122739846Y-95553363D01*
X122739846Y-96124159D01*
X121661270Y-96124159D01*
X121661270Y-95600258D01*
X121379902Y-95600258D01*
X121379902Y-93967006D01*
X121661270Y-93967006D01*
X121661270Y-93451165D01*
G37*
G36*
X124322540Y-95553363D02*
G01*
X124838381Y-95553363D01*
X124838381Y-96124159D01*
X123994277Y-96124159D01*
X123994277Y-95608318D01*
X123750279Y-95608318D01*
X123750279Y-94021960D01*
X123478436Y-94021960D01*
X123478436Y-93451165D01*
X123750279Y-93451165D01*
X123750279Y-92419483D01*
X124322540Y-92419483D01*
X124322540Y-93451165D01*
X124838381Y-93451165D01*
X124838381Y-94021960D01*
X124322540Y-94021960D01*
X124322540Y-95553363D01*
G37*
G36*
X126092812Y-93451165D02*
G01*
X126665073Y-93451165D01*
X126665073Y-95553363D01*
X126936915Y-95553363D01*
X126936915Y-96124159D01*
X126364654Y-96124159D01*
X126364654Y-95608318D01*
X126092812Y-95608318D01*
X126092812Y-93451165D01*
G37*
G36*
X126092812Y-92419483D02*
G01*
X126665073Y-92419483D01*
X126665073Y-92990279D01*
X126092812Y-92990279D01*
X126092812Y-92419483D01*
G37*
G36*
X129035450Y-93967006D02*
G01*
X129279448Y-93967006D01*
X129279448Y-95600258D01*
X129035450Y-95600258D01*
X129035450Y-96124159D01*
X127956873Y-96124159D01*
X127956873Y-95600258D01*
X127675505Y-95600258D01*
X127675505Y-95553363D01*
X128247766Y-95553363D01*
X128707187Y-95553363D01*
X128707187Y-94021960D01*
X128247766Y-94021960D01*
X128247766Y-95553363D01*
X127675505Y-95553363D01*
X127675505Y-93967006D01*
X127956873Y-93967006D01*
X127956873Y-93451165D01*
X129035450Y-93451165D01*
X129035450Y-93967006D01*
G37*
G36*
X130346301Y-96124159D02*
G01*
X129774040Y-96124159D01*
X129774040Y-93451165D01*
X131115666Y-93451165D01*
X131115666Y-93967006D01*
X131377983Y-93967006D01*
X131377983Y-96124159D01*
X130805722Y-96124159D01*
X130805722Y-94021960D01*
X130346301Y-94021960D01*
X130346301Y-96124159D01*
G37*
G36*
X135331053Y-92935324D02*
G01*
X135575052Y-92935324D01*
X135575052Y-94013900D01*
X135331053Y-94013900D01*
X135331053Y-95045582D01*
X135575052Y-95045582D01*
X135575052Y-96124159D01*
X135002791Y-96124159D01*
X135002791Y-95092477D01*
X134758792Y-95092477D01*
X134758792Y-94537801D01*
X134543370Y-94537801D01*
X134543370Y-96124159D01*
X133971109Y-96124159D01*
X133971109Y-93967006D01*
X134543370Y-93967006D01*
X135002791Y-93967006D01*
X135002791Y-92990279D01*
X134543370Y-92990279D01*
X134543370Y-93967006D01*
X133971109Y-93967006D01*
X133971109Y-92419483D01*
X135331053Y-92419483D01*
X135331053Y-92935324D01*
G37*
G36*
X137429588Y-93967006D02*
G01*
X137673586Y-93967006D01*
X137673586Y-95092477D01*
X136641905Y-95092477D01*
X136641905Y-95553363D01*
X137429588Y-95553363D01*
X137429588Y-96124159D01*
X136351011Y-96124159D01*
X136351011Y-95600258D01*
X136069644Y-95600258D01*
X136069644Y-94521681D01*
X136641905Y-94521681D01*
X137101325Y-94521681D01*
X137101325Y-94021960D01*
X136641905Y-94021960D01*
X136641905Y-94521681D01*
X136069644Y-94521681D01*
X136069644Y-93967006D01*
X136351011Y-93967006D01*
X136351011Y-93451165D01*
X137429588Y-93451165D01*
X137429588Y-93967006D01*
G37*
G36*
X139509804Y-93967006D02*
G01*
X139772121Y-93967006D01*
X139772121Y-95045582D01*
X139509804Y-95045582D01*
X139509804Y-95608318D01*
X138740439Y-95608318D01*
X138740439Y-96640000D01*
X138168178Y-96640000D01*
X138168178Y-95037522D01*
X138740439Y-95037522D01*
X139199860Y-95037522D01*
X139199860Y-94021960D01*
X138740439Y-94021960D01*
X138740439Y-95037522D01*
X138168178Y-95037522D01*
X138168178Y-93451165D01*
X139509804Y-93451165D01*
X139509804Y-93967006D01*
G37*
G36*
X140782554Y-92419483D02*
G01*
X141354815Y-92419483D01*
X141354815Y-95553363D01*
X141626657Y-95553363D01*
X141626657Y-96124159D01*
X141054396Y-96124159D01*
X141054396Y-95608318D01*
X140782554Y-95608318D01*
X140782554Y-92419483D01*
G37*
G36*
X143725191Y-93975066D02*
G01*
X143969190Y-93975066D01*
X143969190Y-96124159D01*
X142646615Y-96124159D01*
X142646615Y-95600258D01*
X142365247Y-95600258D01*
X142365247Y-95553363D01*
X142937508Y-95553363D01*
X143396929Y-95553363D01*
X143396929Y-95084417D01*
X142937508Y-95084417D01*
X142937508Y-95553363D01*
X142365247Y-95553363D01*
X142365247Y-95037522D01*
X142646615Y-95037522D01*
X142646615Y-94521681D01*
X143396929Y-94521681D01*
X143396929Y-94021960D01*
X142646615Y-94021960D01*
X142646615Y-93451165D01*
X143725191Y-93451165D01*
X143725191Y-93975066D01*
G37*
G36*
X145504989Y-93451165D02*
G01*
X146067725Y-93451165D01*
X146067725Y-95092477D01*
X145814200Y-95092477D01*
X145814200Y-95608318D01*
X145551884Y-95608318D01*
X145551884Y-96124159D01*
X145307885Y-96124159D01*
X145307885Y-96640000D01*
X144735624Y-96640000D01*
X144735624Y-96069204D01*
X144989148Y-96069204D01*
X144989148Y-95608318D01*
X144735624Y-95608318D01*
X144735624Y-95092477D01*
X144463782Y-95092477D01*
X144463782Y-93451165D01*
X145036043Y-93451165D01*
X145036043Y-95045582D01*
X145504989Y-95045582D01*
X145504989Y-93451165D01*
G37*
G36*
X148895324Y-92419483D02*
G01*
X149973900Y-92419483D01*
X149973900Y-92990279D01*
X149739427Y-92990279D01*
X149739427Y-95553363D01*
X149973900Y-95553363D01*
X149973900Y-96124159D01*
X148895324Y-96124159D01*
X148895324Y-95553363D01*
X149167166Y-95553363D01*
X149167166Y-92990279D01*
X148895324Y-92990279D01*
X148895324Y-92419483D01*
G37*
G36*
X150993859Y-92419483D02*
G01*
X152072435Y-92419483D01*
X152072435Y-92990279D01*
X151837962Y-92990279D01*
X151837962Y-95553363D01*
X152072435Y-95553363D01*
X152072435Y-96124159D01*
X150993859Y-96124159D01*
X150993859Y-95553363D01*
X151265701Y-95553363D01*
X151265701Y-92990279D01*
X150993859Y-92990279D01*
X150993859Y-92419483D01*
G37*
G36*
X153092393Y-92419483D02*
G01*
X154170969Y-92419483D01*
X154170969Y-92990279D01*
X153936496Y-92990279D01*
X153936496Y-95553363D01*
X154170969Y-95553363D01*
X154170969Y-96124159D01*
X153092393Y-96124159D01*
X153092393Y-95553363D01*
X153364235Y-95553363D01*
X153364235Y-92990279D01*
X153092393Y-92990279D01*
X153092393Y-92419483D01*
G37*
G36*
X156740683Y-94284741D02*
G01*
X157026814Y-94284741D01*
X157026814Y-95316423D01*
X157261287Y-95316423D01*
X157261287Y-94284741D01*
X157542655Y-94284741D01*
X157542655Y-95363318D01*
X157420655Y-95363318D01*
X157420655Y-95871465D01*
X157284734Y-95871465D01*
X157284734Y-96137079D01*
X157003367Y-96137079D01*
X157003367Y-95871465D01*
X156881367Y-95871465D01*
X156881367Y-95363318D01*
X156740683Y-95363318D01*
X156740683Y-94284741D01*
G37*
G36*
X158469923Y-95058503D02*
G01*
X158591922Y-95058503D01*
X158591922Y-95621238D01*
X158076081Y-95621238D01*
X158076081Y-95851681D01*
X158469923Y-95851681D01*
X158469923Y-96137079D01*
X157930635Y-96137079D01*
X157930635Y-95875129D01*
X157789951Y-95875129D01*
X157789951Y-95335840D01*
X158076081Y-95335840D01*
X158305792Y-95335840D01*
X158305792Y-95085980D01*
X158076081Y-95085980D01*
X158076081Y-95335840D01*
X157789951Y-95335840D01*
X157789951Y-95058503D01*
X157930635Y-95058503D01*
X157930635Y-94800582D01*
X158469923Y-94800582D01*
X158469923Y-95058503D01*
G37*
G36*
X159125348Y-96137079D02*
G01*
X158839218Y-96137079D01*
X158839218Y-94800582D01*
X159510031Y-94800582D01*
X159510031Y-95058503D01*
X159641189Y-95058503D01*
X159641189Y-95343900D01*
X159355059Y-95343900D01*
X159355059Y-95085980D01*
X159125348Y-95085980D01*
X159125348Y-96137079D01*
G37*
G36*
X160937752Y-94800582D02*
G01*
X161066713Y-94800582D01*
X161066713Y-94542662D01*
X161195673Y-94542662D01*
X161195673Y-94284741D01*
X161481803Y-94284741D01*
X161481803Y-96137079D01*
X161195673Y-96137079D01*
X161195673Y-95085980D01*
X160937752Y-95085980D01*
X160937752Y-94800582D01*
G37*
G36*
X160937752Y-94800582D02*
G01*
X161066713Y-94800582D01*
X161066713Y-94542662D01*
X161195673Y-94542662D01*
X161195673Y-94284741D01*
X161481803Y-94284741D01*
X161481803Y-96137079D01*
X161195673Y-96137079D01*
X161195673Y-95085980D01*
X160937752Y-95085980D01*
X160937752Y-94800582D01*
G37*
G36*
X162244940Y-95597791D02*
G01*
X162531071Y-95597791D01*
X162531071Y-96137079D01*
X162244940Y-96137079D01*
X162244940Y-95597791D01*
G37*
G36*
X163716259Y-94542662D02*
G01*
X163838258Y-94542662D01*
X163838258Y-95875129D01*
X163716259Y-95875129D01*
X163716259Y-96137079D01*
X163176971Y-96137079D01*
X163176971Y-95875129D01*
X163036287Y-95875129D01*
X163036287Y-95621238D01*
X163322418Y-95621238D01*
X163322418Y-95851681D01*
X163552128Y-95851681D01*
X163552128Y-95339870D01*
X163449180Y-95339870D01*
X163449180Y-95621238D01*
X163322418Y-95621238D01*
X163036287Y-95621238D01*
X163036287Y-95081950D01*
X163322418Y-95081950D01*
X163425732Y-95081950D01*
X163425732Y-94800582D01*
X163552128Y-94800582D01*
X163552128Y-94570139D01*
X163322418Y-94570139D01*
X163322418Y-95081950D01*
X163036287Y-95081950D01*
X163036287Y-94542662D01*
X163176971Y-94542662D01*
X163176971Y-94284741D01*
X163716259Y-94284741D01*
X163716259Y-94542662D01*
G37*
D11*
X162903884Y-49962475D02*
X162903884Y-49295808D01*
X162903884Y-49486284D02*
X162951503Y-49391046D01*
X162951503Y-49391046D02*
X162999122Y-49343427D01*
X162999122Y-49343427D02*
X163094360Y-49295808D01*
X163094360Y-49295808D02*
X163189598Y-49295808D01*
X163903884Y-49914856D02*
X163808646Y-49962475D01*
X163808646Y-49962475D02*
X163618170Y-49962475D01*
X163618170Y-49962475D02*
X163522932Y-49914856D01*
X163522932Y-49914856D02*
X163475313Y-49819617D01*
X163475313Y-49819617D02*
X163475313Y-49438665D01*
X163475313Y-49438665D02*
X163522932Y-49343427D01*
X163522932Y-49343427D02*
X163618170Y-49295808D01*
X163618170Y-49295808D02*
X163808646Y-49295808D01*
X163808646Y-49295808D02*
X163903884Y-49343427D01*
X163903884Y-49343427D02*
X163951503Y-49438665D01*
X163951503Y-49438665D02*
X163951503Y-49533903D01*
X163951503Y-49533903D02*
X163475313Y-49629141D01*
X164284837Y-49295808D02*
X164522932Y-49962475D01*
X164522932Y-49962475D02*
X164761027Y-49295808D01*
X165522932Y-49914856D02*
X165427694Y-49962475D01*
X165427694Y-49962475D02*
X165237218Y-49962475D01*
X165237218Y-49962475D02*
X165141980Y-49914856D01*
X165141980Y-49914856D02*
X165094361Y-49819617D01*
X165094361Y-49819617D02*
X165094361Y-49438665D01*
X165094361Y-49438665D02*
X165141980Y-49343427D01*
X165141980Y-49343427D02*
X165237218Y-49295808D01*
X165237218Y-49295808D02*
X165427694Y-49295808D01*
X165427694Y-49295808D02*
X165522932Y-49343427D01*
X165522932Y-49343427D02*
X165570551Y-49438665D01*
X165570551Y-49438665D02*
X165570551Y-49533903D01*
X165570551Y-49533903D02*
X165094361Y-49629141D01*
X165999123Y-49962475D02*
X165999123Y-49295808D01*
X165999123Y-49486284D02*
X166046742Y-49391046D01*
X166046742Y-49391046D02*
X166094361Y-49343427D01*
X166094361Y-49343427D02*
X166189599Y-49295808D01*
X166189599Y-49295808D02*
X166284837Y-49295808D01*
X166570552Y-49914856D02*
X166665790Y-49962475D01*
X166665790Y-49962475D02*
X166856266Y-49962475D01*
X166856266Y-49962475D02*
X166951504Y-49914856D01*
X166951504Y-49914856D02*
X166999123Y-49819617D01*
X166999123Y-49819617D02*
X166999123Y-49771998D01*
X166999123Y-49771998D02*
X166951504Y-49676760D01*
X166951504Y-49676760D02*
X166856266Y-49629141D01*
X166856266Y-49629141D02*
X166713409Y-49629141D01*
X166713409Y-49629141D02*
X166618171Y-49581522D01*
X166618171Y-49581522D02*
X166570552Y-49486284D01*
X166570552Y-49486284D02*
X166570552Y-49438665D01*
X166570552Y-49438665D02*
X166618171Y-49343427D01*
X166618171Y-49343427D02*
X166713409Y-49295808D01*
X166713409Y-49295808D02*
X166856266Y-49295808D01*
X166856266Y-49295808D02*
X166951504Y-49343427D01*
X167808647Y-49914856D02*
X167713409Y-49962475D01*
X167713409Y-49962475D02*
X167522933Y-49962475D01*
X167522933Y-49962475D02*
X167427695Y-49914856D01*
X167427695Y-49914856D02*
X167380076Y-49819617D01*
X167380076Y-49819617D02*
X167380076Y-49438665D01*
X167380076Y-49438665D02*
X167427695Y-49343427D01*
X167427695Y-49343427D02*
X167522933Y-49295808D01*
X167522933Y-49295808D02*
X167713409Y-49295808D01*
X167713409Y-49295808D02*
X167808647Y-49343427D01*
X167808647Y-49343427D02*
X167856266Y-49438665D01*
X167856266Y-49438665D02*
X167856266Y-49533903D01*
X167856266Y-49533903D02*
X167380076Y-49629141D01*
X169427695Y-49914856D02*
X169332457Y-49962475D01*
X169332457Y-49962475D02*
X169141981Y-49962475D01*
X169141981Y-49962475D02*
X169046743Y-49914856D01*
X169046743Y-49914856D02*
X168999124Y-49819617D01*
X168999124Y-49819617D02*
X168999124Y-49438665D01*
X168999124Y-49438665D02*
X169046743Y-49343427D01*
X169046743Y-49343427D02*
X169141981Y-49295808D01*
X169141981Y-49295808D02*
X169332457Y-49295808D01*
X169332457Y-49295808D02*
X169427695Y-49343427D01*
X169427695Y-49343427D02*
X169475314Y-49438665D01*
X169475314Y-49438665D02*
X169475314Y-49533903D01*
X169475314Y-49533903D02*
X168999124Y-49629141D01*
X169903886Y-49295808D02*
X169903886Y-49962475D01*
X169903886Y-49391046D02*
X169951505Y-49343427D01*
X169951505Y-49343427D02*
X170046743Y-49295808D01*
X170046743Y-49295808D02*
X170189600Y-49295808D01*
X170189600Y-49295808D02*
X170284838Y-49343427D01*
X170284838Y-49343427D02*
X170332457Y-49438665D01*
X170332457Y-49438665D02*
X170332457Y-49962475D01*
X171237219Y-49295808D02*
X171237219Y-50105332D01*
X171237219Y-50105332D02*
X171189600Y-50200570D01*
X171189600Y-50200570D02*
X171141981Y-50248189D01*
X171141981Y-50248189D02*
X171046743Y-50295808D01*
X171046743Y-50295808D02*
X170903886Y-50295808D01*
X170903886Y-50295808D02*
X170808648Y-50248189D01*
X171237219Y-49914856D02*
X171141981Y-49962475D01*
X171141981Y-49962475D02*
X170951505Y-49962475D01*
X170951505Y-49962475D02*
X170856267Y-49914856D01*
X170856267Y-49914856D02*
X170808648Y-49867236D01*
X170808648Y-49867236D02*
X170761029Y-49771998D01*
X170761029Y-49771998D02*
X170761029Y-49486284D01*
X170761029Y-49486284D02*
X170808648Y-49391046D01*
X170808648Y-49391046D02*
X170856267Y-49343427D01*
X170856267Y-49343427D02*
X170951505Y-49295808D01*
X170951505Y-49295808D02*
X171141981Y-49295808D01*
X171141981Y-49295808D02*
X171237219Y-49343427D01*
X171713410Y-49962475D02*
X171713410Y-49295808D01*
X171713410Y-48962475D02*
X171665791Y-49010094D01*
X171665791Y-49010094D02*
X171713410Y-49057713D01*
X171713410Y-49057713D02*
X171761029Y-49010094D01*
X171761029Y-49010094D02*
X171713410Y-48962475D01*
X171713410Y-48962475D02*
X171713410Y-49057713D01*
X172189600Y-49295808D02*
X172189600Y-49962475D01*
X172189600Y-49391046D02*
X172237219Y-49343427D01*
X172237219Y-49343427D02*
X172332457Y-49295808D01*
X172332457Y-49295808D02*
X172475314Y-49295808D01*
X172475314Y-49295808D02*
X172570552Y-49343427D01*
X172570552Y-49343427D02*
X172618171Y-49438665D01*
X172618171Y-49438665D02*
X172618171Y-49962475D01*
X173475314Y-49914856D02*
X173380076Y-49962475D01*
X173380076Y-49962475D02*
X173189600Y-49962475D01*
X173189600Y-49962475D02*
X173094362Y-49914856D01*
X173094362Y-49914856D02*
X173046743Y-49819617D01*
X173046743Y-49819617D02*
X173046743Y-49438665D01*
X173046743Y-49438665D02*
X173094362Y-49343427D01*
X173094362Y-49343427D02*
X173189600Y-49295808D01*
X173189600Y-49295808D02*
X173380076Y-49295808D01*
X173380076Y-49295808D02*
X173475314Y-49343427D01*
X173475314Y-49343427D02*
X173522933Y-49438665D01*
X173522933Y-49438665D02*
X173522933Y-49533903D01*
X173522933Y-49533903D02*
X173046743Y-49629141D01*
X174332457Y-49914856D02*
X174237219Y-49962475D01*
X174237219Y-49962475D02*
X174046743Y-49962475D01*
X174046743Y-49962475D02*
X173951505Y-49914856D01*
X173951505Y-49914856D02*
X173903886Y-49819617D01*
X173903886Y-49819617D02*
X173903886Y-49438665D01*
X173903886Y-49438665D02*
X173951505Y-49343427D01*
X173951505Y-49343427D02*
X174046743Y-49295808D01*
X174046743Y-49295808D02*
X174237219Y-49295808D01*
X174237219Y-49295808D02*
X174332457Y-49343427D01*
X174332457Y-49343427D02*
X174380076Y-49438665D01*
X174380076Y-49438665D02*
X174380076Y-49533903D01*
X174380076Y-49533903D02*
X173903886Y-49629141D01*
X174808648Y-49962475D02*
X174808648Y-49295808D01*
X174808648Y-49486284D02*
X174856267Y-49391046D01*
X174856267Y-49391046D02*
X174903886Y-49343427D01*
X174903886Y-49343427D02*
X174999124Y-49295808D01*
X174999124Y-49295808D02*
X175094362Y-49295808D01*
X175427696Y-49962475D02*
X175427696Y-49295808D01*
X175427696Y-48962475D02*
X175380077Y-49010094D01*
X175380077Y-49010094D02*
X175427696Y-49057713D01*
X175427696Y-49057713D02*
X175475315Y-49010094D01*
X175475315Y-49010094D02*
X175427696Y-48962475D01*
X175427696Y-48962475D02*
X175427696Y-49057713D01*
X175903886Y-49295808D02*
X175903886Y-49962475D01*
X175903886Y-49391046D02*
X175951505Y-49343427D01*
X175951505Y-49343427D02*
X176046743Y-49295808D01*
X176046743Y-49295808D02*
X176189600Y-49295808D01*
X176189600Y-49295808D02*
X176284838Y-49343427D01*
X176284838Y-49343427D02*
X176332457Y-49438665D01*
X176332457Y-49438665D02*
X176332457Y-49962475D01*
X177237219Y-49295808D02*
X177237219Y-50105332D01*
X177237219Y-50105332D02*
X177189600Y-50200570D01*
X177189600Y-50200570D02*
X177141981Y-50248189D01*
X177141981Y-50248189D02*
X177046743Y-50295808D01*
X177046743Y-50295808D02*
X176903886Y-50295808D01*
X176903886Y-50295808D02*
X176808648Y-50248189D01*
X177237219Y-49914856D02*
X177141981Y-49962475D01*
X177141981Y-49962475D02*
X176951505Y-49962475D01*
X176951505Y-49962475D02*
X176856267Y-49914856D01*
X176856267Y-49914856D02*
X176808648Y-49867236D01*
X176808648Y-49867236D02*
X176761029Y-49771998D01*
X176761029Y-49771998D02*
X176761029Y-49486284D01*
X176761029Y-49486284D02*
X176808648Y-49391046D01*
X176808648Y-49391046D02*
X176856267Y-49343427D01*
X176856267Y-49343427D02*
X176951505Y-49295808D01*
X176951505Y-49295808D02*
X177141981Y-49295808D01*
X177141981Y-49295808D02*
X177237219Y-49343427D01*
X178475315Y-49962475D02*
X178475315Y-48962475D01*
X178475315Y-49343427D02*
X178570553Y-49295808D01*
X178570553Y-49295808D02*
X178761029Y-49295808D01*
X178761029Y-49295808D02*
X178856267Y-49343427D01*
X178856267Y-49343427D02*
X178903886Y-49391046D01*
X178903886Y-49391046D02*
X178951505Y-49486284D01*
X178951505Y-49486284D02*
X178951505Y-49771998D01*
X178951505Y-49771998D02*
X178903886Y-49867236D01*
X178903886Y-49867236D02*
X178856267Y-49914856D01*
X178856267Y-49914856D02*
X178761029Y-49962475D01*
X178761029Y-49962475D02*
X178570553Y-49962475D01*
X178570553Y-49962475D02*
X178475315Y-49914856D01*
X179284839Y-49295808D02*
X179522934Y-49962475D01*
X179761029Y-49295808D02*
X179522934Y-49962475D01*
X179522934Y-49962475D02*
X179427696Y-50200570D01*
X179427696Y-50200570D02*
X179380077Y-50248189D01*
X179380077Y-50248189D02*
X179284839Y-50295808D01*
X180903887Y-49295808D02*
X180903887Y-49962475D01*
X180903887Y-49391046D02*
X180951506Y-49343427D01*
X180951506Y-49343427D02*
X181046744Y-49295808D01*
X181046744Y-49295808D02*
X181189601Y-49295808D01*
X181189601Y-49295808D02*
X181284839Y-49343427D01*
X181284839Y-49343427D02*
X181332458Y-49438665D01*
X181332458Y-49438665D02*
X181332458Y-49962475D01*
X182237220Y-49962475D02*
X182237220Y-49438665D01*
X182237220Y-49438665D02*
X182189601Y-49343427D01*
X182189601Y-49343427D02*
X182094363Y-49295808D01*
X182094363Y-49295808D02*
X181903887Y-49295808D01*
X181903887Y-49295808D02*
X181808649Y-49343427D01*
X182237220Y-49914856D02*
X182141982Y-49962475D01*
X182141982Y-49962475D02*
X181903887Y-49962475D01*
X181903887Y-49962475D02*
X181808649Y-49914856D01*
X181808649Y-49914856D02*
X181761030Y-49819617D01*
X181761030Y-49819617D02*
X181761030Y-49724379D01*
X181761030Y-49724379D02*
X181808649Y-49629141D01*
X181808649Y-49629141D02*
X181903887Y-49581522D01*
X181903887Y-49581522D02*
X182141982Y-49581522D01*
X182141982Y-49581522D02*
X182237220Y-49533903D01*
X183237220Y-49962475D02*
X182665792Y-49962475D01*
X182951506Y-49962475D02*
X182951506Y-48962475D01*
X182951506Y-48962475D02*
X182856268Y-49105332D01*
X182856268Y-49105332D02*
X182761030Y-49200570D01*
X182761030Y-49200570D02*
X182665792Y-49248189D01*
X183856268Y-48962475D02*
X183951506Y-48962475D01*
X183951506Y-48962475D02*
X184046744Y-49010094D01*
X184046744Y-49010094D02*
X184094363Y-49057713D01*
X184094363Y-49057713D02*
X184141982Y-49152951D01*
X184141982Y-49152951D02*
X184189601Y-49343427D01*
X184189601Y-49343427D02*
X184189601Y-49581522D01*
X184189601Y-49581522D02*
X184141982Y-49771998D01*
X184141982Y-49771998D02*
X184094363Y-49867236D01*
X184094363Y-49867236D02*
X184046744Y-49914856D01*
X184046744Y-49914856D02*
X183951506Y-49962475D01*
X183951506Y-49962475D02*
X183856268Y-49962475D01*
X183856268Y-49962475D02*
X183761030Y-49914856D01*
X183761030Y-49914856D02*
X183713411Y-49867236D01*
X183713411Y-49867236D02*
X183665792Y-49771998D01*
X183665792Y-49771998D02*
X183618173Y-49581522D01*
X183618173Y-49581522D02*
X183618173Y-49343427D01*
X183618173Y-49343427D02*
X183665792Y-49152951D01*
X183665792Y-49152951D02*
X183713411Y-49057713D01*
X183713411Y-49057713D02*
X183761030Y-49010094D01*
X183761030Y-49010094D02*
X183856268Y-48962475D01*
X184522935Y-48962475D02*
X185141982Y-48962475D01*
X185141982Y-48962475D02*
X184808649Y-49343427D01*
X184808649Y-49343427D02*
X184951506Y-49343427D01*
X184951506Y-49343427D02*
X185046744Y-49391046D01*
X185046744Y-49391046D02*
X185094363Y-49438665D01*
X185094363Y-49438665D02*
X185141982Y-49533903D01*
X185141982Y-49533903D02*
X185141982Y-49771998D01*
X185141982Y-49771998D02*
X185094363Y-49867236D01*
X185094363Y-49867236D02*
X185046744Y-49914856D01*
X185046744Y-49914856D02*
X184951506Y-49962475D01*
X184951506Y-49962475D02*
X184665792Y-49962475D01*
X184665792Y-49962475D02*
X184570554Y-49914856D01*
X184570554Y-49914856D02*
X184522935Y-49867236D01*
X163332455Y-50905752D02*
X163332455Y-51715276D01*
X163332455Y-51715276D02*
X163284836Y-51810514D01*
X163284836Y-51810514D02*
X163237217Y-51858133D01*
X163237217Y-51858133D02*
X163141979Y-51905752D01*
X163141979Y-51905752D02*
X162999122Y-51905752D01*
X162999122Y-51905752D02*
X162903884Y-51858133D01*
X163332455Y-51524800D02*
X163237217Y-51572419D01*
X163237217Y-51572419D02*
X163046741Y-51572419D01*
X163046741Y-51572419D02*
X162951503Y-51524800D01*
X162951503Y-51524800D02*
X162903884Y-51477180D01*
X162903884Y-51477180D02*
X162856265Y-51381942D01*
X162856265Y-51381942D02*
X162856265Y-51096228D01*
X162856265Y-51096228D02*
X162903884Y-51000990D01*
X162903884Y-51000990D02*
X162951503Y-50953371D01*
X162951503Y-50953371D02*
X163046741Y-50905752D01*
X163046741Y-50905752D02*
X163237217Y-50905752D01*
X163237217Y-50905752D02*
X163332455Y-50953371D01*
X163808646Y-51572419D02*
X163808646Y-50905752D01*
X163808646Y-50572419D02*
X163761027Y-50620038D01*
X163761027Y-50620038D02*
X163808646Y-50667657D01*
X163808646Y-50667657D02*
X163856265Y-50620038D01*
X163856265Y-50620038D02*
X163808646Y-50572419D01*
X163808646Y-50572419D02*
X163808646Y-50667657D01*
X164141979Y-50905752D02*
X164522931Y-50905752D01*
X164284836Y-50572419D02*
X164284836Y-51429561D01*
X164284836Y-51429561D02*
X164332455Y-51524800D01*
X164332455Y-51524800D02*
X164427693Y-51572419D01*
X164427693Y-51572419D02*
X164522931Y-51572419D01*
X164856265Y-51572419D02*
X164856265Y-50572419D01*
X165284836Y-51572419D02*
X165284836Y-51048609D01*
X165284836Y-51048609D02*
X165237217Y-50953371D01*
X165237217Y-50953371D02*
X165141979Y-50905752D01*
X165141979Y-50905752D02*
X164999122Y-50905752D01*
X164999122Y-50905752D02*
X164903884Y-50953371D01*
X164903884Y-50953371D02*
X164856265Y-51000990D01*
X166189598Y-50905752D02*
X166189598Y-51572419D01*
X165761027Y-50905752D02*
X165761027Y-51429561D01*
X165761027Y-51429561D02*
X165808646Y-51524800D01*
X165808646Y-51524800D02*
X165903884Y-51572419D01*
X165903884Y-51572419D02*
X166046741Y-51572419D01*
X166046741Y-51572419D02*
X166141979Y-51524800D01*
X166141979Y-51524800D02*
X166189598Y-51477180D01*
X166665789Y-51572419D02*
X166665789Y-50572419D01*
X166665789Y-50953371D02*
X166761027Y-50905752D01*
X166761027Y-50905752D02*
X166951503Y-50905752D01*
X166951503Y-50905752D02*
X167046741Y-50953371D01*
X167046741Y-50953371D02*
X167094360Y-51000990D01*
X167094360Y-51000990D02*
X167141979Y-51096228D01*
X167141979Y-51096228D02*
X167141979Y-51381942D01*
X167141979Y-51381942D02*
X167094360Y-51477180D01*
X167094360Y-51477180D02*
X167046741Y-51524800D01*
X167046741Y-51524800D02*
X166951503Y-51572419D01*
X166951503Y-51572419D02*
X166761027Y-51572419D01*
X166761027Y-51572419D02*
X166665789Y-51524800D01*
X167570551Y-51477180D02*
X167618170Y-51524800D01*
X167618170Y-51524800D02*
X167570551Y-51572419D01*
X167570551Y-51572419D02*
X167522932Y-51524800D01*
X167522932Y-51524800D02*
X167570551Y-51477180D01*
X167570551Y-51477180D02*
X167570551Y-51572419D01*
X168475312Y-51524800D02*
X168380074Y-51572419D01*
X168380074Y-51572419D02*
X168189598Y-51572419D01*
X168189598Y-51572419D02*
X168094360Y-51524800D01*
X168094360Y-51524800D02*
X168046741Y-51477180D01*
X168046741Y-51477180D02*
X167999122Y-51381942D01*
X167999122Y-51381942D02*
X167999122Y-51096228D01*
X167999122Y-51096228D02*
X168046741Y-51000990D01*
X168046741Y-51000990D02*
X168094360Y-50953371D01*
X168094360Y-50953371D02*
X168189598Y-50905752D01*
X168189598Y-50905752D02*
X168380074Y-50905752D01*
X168380074Y-50905752D02*
X168475312Y-50953371D01*
X169046741Y-51572419D02*
X168951503Y-51524800D01*
X168951503Y-51524800D02*
X168903884Y-51477180D01*
X168903884Y-51477180D02*
X168856265Y-51381942D01*
X168856265Y-51381942D02*
X168856265Y-51096228D01*
X168856265Y-51096228D02*
X168903884Y-51000990D01*
X168903884Y-51000990D02*
X168951503Y-50953371D01*
X168951503Y-50953371D02*
X169046741Y-50905752D01*
X169046741Y-50905752D02*
X169189598Y-50905752D01*
X169189598Y-50905752D02*
X169284836Y-50953371D01*
X169284836Y-50953371D02*
X169332455Y-51000990D01*
X169332455Y-51000990D02*
X169380074Y-51096228D01*
X169380074Y-51096228D02*
X169380074Y-51381942D01*
X169380074Y-51381942D02*
X169332455Y-51477180D01*
X169332455Y-51477180D02*
X169284836Y-51524800D01*
X169284836Y-51524800D02*
X169189598Y-51572419D01*
X169189598Y-51572419D02*
X169046741Y-51572419D01*
X169808646Y-51572419D02*
X169808646Y-50905752D01*
X169808646Y-51000990D02*
X169856265Y-50953371D01*
X169856265Y-50953371D02*
X169951503Y-50905752D01*
X169951503Y-50905752D02*
X170094360Y-50905752D01*
X170094360Y-50905752D02*
X170189598Y-50953371D01*
X170189598Y-50953371D02*
X170237217Y-51048609D01*
X170237217Y-51048609D02*
X170237217Y-51572419D01*
X170237217Y-51048609D02*
X170284836Y-50953371D01*
X170284836Y-50953371D02*
X170380074Y-50905752D01*
X170380074Y-50905752D02*
X170522931Y-50905752D01*
X170522931Y-50905752D02*
X170618170Y-50953371D01*
X170618170Y-50953371D02*
X170665789Y-51048609D01*
X170665789Y-51048609D02*
X170665789Y-51572419D01*
X171856264Y-50524800D02*
X170999122Y-51810514D01*
X172189598Y-50905752D02*
X172189598Y-51572419D01*
X172189598Y-51000990D02*
X172237217Y-50953371D01*
X172237217Y-50953371D02*
X172332455Y-50905752D01*
X172332455Y-50905752D02*
X172475312Y-50905752D01*
X172475312Y-50905752D02*
X172570550Y-50953371D01*
X172570550Y-50953371D02*
X172618169Y-51048609D01*
X172618169Y-51048609D02*
X172618169Y-51572419D01*
X173522931Y-51572419D02*
X173522931Y-51048609D01*
X173522931Y-51048609D02*
X173475312Y-50953371D01*
X173475312Y-50953371D02*
X173380074Y-50905752D01*
X173380074Y-50905752D02*
X173189598Y-50905752D01*
X173189598Y-50905752D02*
X173094360Y-50953371D01*
X173522931Y-51524800D02*
X173427693Y-51572419D01*
X173427693Y-51572419D02*
X173189598Y-51572419D01*
X173189598Y-51572419D02*
X173094360Y-51524800D01*
X173094360Y-51524800D02*
X173046741Y-51429561D01*
X173046741Y-51429561D02*
X173046741Y-51334323D01*
X173046741Y-51334323D02*
X173094360Y-51239085D01*
X173094360Y-51239085D02*
X173189598Y-51191466D01*
X173189598Y-51191466D02*
X173427693Y-51191466D01*
X173427693Y-51191466D02*
X173522931Y-51143847D01*
X174522931Y-51572419D02*
X173951503Y-51572419D01*
X174237217Y-51572419D02*
X174237217Y-50572419D01*
X174237217Y-50572419D02*
X174141979Y-50715276D01*
X174141979Y-50715276D02*
X174046741Y-50810514D01*
X174046741Y-50810514D02*
X173951503Y-50858133D01*
X175141979Y-50572419D02*
X175237217Y-50572419D01*
X175237217Y-50572419D02*
X175332455Y-50620038D01*
X175332455Y-50620038D02*
X175380074Y-50667657D01*
X175380074Y-50667657D02*
X175427693Y-50762895D01*
X175427693Y-50762895D02*
X175475312Y-50953371D01*
X175475312Y-50953371D02*
X175475312Y-51191466D01*
X175475312Y-51191466D02*
X175427693Y-51381942D01*
X175427693Y-51381942D02*
X175380074Y-51477180D01*
X175380074Y-51477180D02*
X175332455Y-51524800D01*
X175332455Y-51524800D02*
X175237217Y-51572419D01*
X175237217Y-51572419D02*
X175141979Y-51572419D01*
X175141979Y-51572419D02*
X175046741Y-51524800D01*
X175046741Y-51524800D02*
X174999122Y-51477180D01*
X174999122Y-51477180D02*
X174951503Y-51381942D01*
X174951503Y-51381942D02*
X174903884Y-51191466D01*
X174903884Y-51191466D02*
X174903884Y-50953371D01*
X174903884Y-50953371D02*
X174951503Y-50762895D01*
X174951503Y-50762895D02*
X174999122Y-50667657D01*
X174999122Y-50667657D02*
X175046741Y-50620038D01*
X175046741Y-50620038D02*
X175141979Y-50572419D01*
X175808646Y-50572419D02*
X176427693Y-50572419D01*
X176427693Y-50572419D02*
X176094360Y-50953371D01*
X176094360Y-50953371D02*
X176237217Y-50953371D01*
X176237217Y-50953371D02*
X176332455Y-51000990D01*
X176332455Y-51000990D02*
X176380074Y-51048609D01*
X176380074Y-51048609D02*
X176427693Y-51143847D01*
X176427693Y-51143847D02*
X176427693Y-51381942D01*
X176427693Y-51381942D02*
X176380074Y-51477180D01*
X176380074Y-51477180D02*
X176332455Y-51524800D01*
X176332455Y-51524800D02*
X176237217Y-51572419D01*
X176237217Y-51572419D02*
X175951503Y-51572419D01*
X175951503Y-51572419D02*
X175856265Y-51524800D01*
X175856265Y-51524800D02*
X175808646Y-51477180D01*
X177570550Y-50524800D02*
X176713408Y-51810514D01*
X178332455Y-51572419D02*
X178332455Y-51048609D01*
X178332455Y-51048609D02*
X178284836Y-50953371D01*
X178284836Y-50953371D02*
X178189598Y-50905752D01*
X178189598Y-50905752D02*
X177999122Y-50905752D01*
X177999122Y-50905752D02*
X177903884Y-50953371D01*
X178332455Y-51524800D02*
X178237217Y-51572419D01*
X178237217Y-51572419D02*
X177999122Y-51572419D01*
X177999122Y-51572419D02*
X177903884Y-51524800D01*
X177903884Y-51524800D02*
X177856265Y-51429561D01*
X177856265Y-51429561D02*
X177856265Y-51334323D01*
X177856265Y-51334323D02*
X177903884Y-51239085D01*
X177903884Y-51239085D02*
X177999122Y-51191466D01*
X177999122Y-51191466D02*
X178237217Y-51191466D01*
X178237217Y-51191466D02*
X178332455Y-51143847D01*
X178808646Y-51572419D02*
X178808646Y-50905752D01*
X178808646Y-51096228D02*
X178856265Y-51000990D01*
X178856265Y-51000990D02*
X178903884Y-50953371D01*
X178903884Y-50953371D02*
X178999122Y-50905752D01*
X178999122Y-50905752D02*
X179094360Y-50905752D01*
X179332456Y-50572419D02*
X179951503Y-50572419D01*
X179951503Y-50572419D02*
X179618170Y-50953371D01*
X179618170Y-50953371D02*
X179761027Y-50953371D01*
X179761027Y-50953371D02*
X179856265Y-51000990D01*
X179856265Y-51000990D02*
X179903884Y-51048609D01*
X179903884Y-51048609D02*
X179951503Y-51143847D01*
X179951503Y-51143847D02*
X179951503Y-51381942D01*
X179951503Y-51381942D02*
X179903884Y-51477180D01*
X179903884Y-51477180D02*
X179856265Y-51524800D01*
X179856265Y-51524800D02*
X179761027Y-51572419D01*
X179761027Y-51572419D02*
X179475313Y-51572419D01*
X179475313Y-51572419D02*
X179380075Y-51524800D01*
X179380075Y-51524800D02*
X179332456Y-51477180D01*
D12*
X187173905Y-118729318D02*
X187597238Y-119999318D01*
X187597238Y-119999318D02*
X188020572Y-118729318D01*
X189169619Y-119999318D02*
X188746285Y-119394556D01*
X188443904Y-119999318D02*
X188443904Y-118729318D01*
X188443904Y-118729318D02*
X188927714Y-118729318D01*
X188927714Y-118729318D02*
X189048666Y-118789794D01*
X189048666Y-118789794D02*
X189109143Y-118850270D01*
X189109143Y-118850270D02*
X189169619Y-118971222D01*
X189169619Y-118971222D02*
X189169619Y-119152651D01*
X189169619Y-119152651D02*
X189109143Y-119273603D01*
X189109143Y-119273603D02*
X189048666Y-119334080D01*
X189048666Y-119334080D02*
X188927714Y-119394556D01*
X188927714Y-119394556D02*
X188443904Y-119394556D01*
X190379143Y-119999318D02*
X189653428Y-119999318D01*
X190016285Y-119999318D02*
X190016285Y-118729318D01*
X190016285Y-118729318D02*
X189895333Y-118910746D01*
X189895333Y-118910746D02*
X189774381Y-119031699D01*
X189774381Y-119031699D02*
X189653428Y-119092175D01*
D13*
X191507200Y-102983332D02*
X191554819Y-102840475D01*
X191554819Y-102840475D02*
X191554819Y-102602380D01*
X191554819Y-102602380D02*
X191507200Y-102507142D01*
X191507200Y-102507142D02*
X191459580Y-102459523D01*
X191459580Y-102459523D02*
X191364342Y-102411904D01*
X191364342Y-102411904D02*
X191269104Y-102411904D01*
X191269104Y-102411904D02*
X191173866Y-102459523D01*
X191173866Y-102459523D02*
X191126247Y-102507142D01*
X191126247Y-102507142D02*
X191078628Y-102602380D01*
X191078628Y-102602380D02*
X191031009Y-102792856D01*
X191031009Y-102792856D02*
X190983390Y-102888094D01*
X190983390Y-102888094D02*
X190935771Y-102935713D01*
X190935771Y-102935713D02*
X190840533Y-102983332D01*
X190840533Y-102983332D02*
X190745295Y-102983332D01*
X190745295Y-102983332D02*
X190650057Y-102935713D01*
X190650057Y-102935713D02*
X190602438Y-102888094D01*
X190602438Y-102888094D02*
X190554819Y-102792856D01*
X190554819Y-102792856D02*
X190554819Y-102554761D01*
X190554819Y-102554761D02*
X190602438Y-102411904D01*
X190554819Y-102078570D02*
X191554819Y-101840475D01*
X191554819Y-101840475D02*
X190840533Y-101649999D01*
X190840533Y-101649999D02*
X191554819Y-101459523D01*
X191554819Y-101459523D02*
X190554819Y-101221428D01*
X190650057Y-100888094D02*
X190602438Y-100840475D01*
X190602438Y-100840475D02*
X190554819Y-100745237D01*
X190554819Y-100745237D02*
X190554819Y-100507142D01*
X190554819Y-100507142D02*
X190602438Y-100411904D01*
X190602438Y-100411904D02*
X190650057Y-100364285D01*
X190650057Y-100364285D02*
X190745295Y-100316666D01*
X190745295Y-100316666D02*
X190840533Y-100316666D01*
X190840533Y-100316666D02*
X190983390Y-100364285D01*
X190983390Y-100364285D02*
X191554819Y-100935713D01*
X191554819Y-100935713D02*
X191554819Y-100316666D01*
X93833333Y-124609580D02*
X93785714Y-124657200D01*
X93785714Y-124657200D02*
X93642857Y-124704819D01*
X93642857Y-124704819D02*
X93547619Y-124704819D01*
X93547619Y-124704819D02*
X93404762Y-124657200D01*
X93404762Y-124657200D02*
X93309524Y-124561961D01*
X93309524Y-124561961D02*
X93261905Y-124466723D01*
X93261905Y-124466723D02*
X93214286Y-124276247D01*
X93214286Y-124276247D02*
X93214286Y-124133390D01*
X93214286Y-124133390D02*
X93261905Y-123942914D01*
X93261905Y-123942914D02*
X93309524Y-123847676D01*
X93309524Y-123847676D02*
X93404762Y-123752438D01*
X93404762Y-123752438D02*
X93547619Y-123704819D01*
X93547619Y-123704819D02*
X93642857Y-123704819D01*
X93642857Y-123704819D02*
X93785714Y-123752438D01*
X93785714Y-123752438D02*
X93833333Y-123800057D01*
X94785714Y-124704819D02*
X94214286Y-124704819D01*
X94500000Y-124704819D02*
X94500000Y-123704819D01*
X94500000Y-123704819D02*
X94404762Y-123847676D01*
X94404762Y-123847676D02*
X94309524Y-123942914D01*
X94309524Y-123942914D02*
X94214286Y-123990533D01*
X97864819Y-101233094D02*
X96864819Y-101233094D01*
X96864819Y-101233094D02*
X96864819Y-100994999D01*
X96864819Y-100994999D02*
X96912438Y-100852142D01*
X96912438Y-100852142D02*
X97007676Y-100756904D01*
X97007676Y-100756904D02*
X97102914Y-100709285D01*
X97102914Y-100709285D02*
X97293390Y-100661666D01*
X97293390Y-100661666D02*
X97436247Y-100661666D01*
X97436247Y-100661666D02*
X97626723Y-100709285D01*
X97626723Y-100709285D02*
X97721961Y-100756904D01*
X97721961Y-100756904D02*
X97817200Y-100852142D01*
X97817200Y-100852142D02*
X97864819Y-100994999D01*
X97864819Y-100994999D02*
X97864819Y-101233094D01*
X96960057Y-100280713D02*
X96912438Y-100233094D01*
X96912438Y-100233094D02*
X96864819Y-100137856D01*
X96864819Y-100137856D02*
X96864819Y-99899761D01*
X96864819Y-99899761D02*
X96912438Y-99804523D01*
X96912438Y-99804523D02*
X96960057Y-99756904D01*
X96960057Y-99756904D02*
X97055295Y-99709285D01*
X97055295Y-99709285D02*
X97150533Y-99709285D01*
X97150533Y-99709285D02*
X97293390Y-99756904D01*
X97293390Y-99756904D02*
X97864819Y-100328332D01*
X97864819Y-100328332D02*
X97864819Y-99709285D01*
X133038095Y-102434819D02*
X133038095Y-103244342D01*
X133038095Y-103244342D02*
X133085714Y-103339580D01*
X133085714Y-103339580D02*
X133133333Y-103387200D01*
X133133333Y-103387200D02*
X133228571Y-103434819D01*
X133228571Y-103434819D02*
X133419047Y-103434819D01*
X133419047Y-103434819D02*
X133514285Y-103387200D01*
X133514285Y-103387200D02*
X133561904Y-103339580D01*
X133561904Y-103339580D02*
X133609523Y-103244342D01*
X133609523Y-103244342D02*
X133609523Y-102434819D01*
X134133333Y-103434819D02*
X134323809Y-103434819D01*
X134323809Y-103434819D02*
X134419047Y-103387200D01*
X134419047Y-103387200D02*
X134466666Y-103339580D01*
X134466666Y-103339580D02*
X134561904Y-103196723D01*
X134561904Y-103196723D02*
X134609523Y-103006247D01*
X134609523Y-103006247D02*
X134609523Y-102625295D01*
X134609523Y-102625295D02*
X134561904Y-102530057D01*
X134561904Y-102530057D02*
X134514285Y-102482438D01*
X134514285Y-102482438D02*
X134419047Y-102434819D01*
X134419047Y-102434819D02*
X134228571Y-102434819D01*
X134228571Y-102434819D02*
X134133333Y-102482438D01*
X134133333Y-102482438D02*
X134085714Y-102530057D01*
X134085714Y-102530057D02*
X134038095Y-102625295D01*
X134038095Y-102625295D02*
X134038095Y-102863390D01*
X134038095Y-102863390D02*
X134085714Y-102958628D01*
X134085714Y-102958628D02*
X134133333Y-103006247D01*
X134133333Y-103006247D02*
X134228571Y-103053866D01*
X134228571Y-103053866D02*
X134419047Y-103053866D01*
X134419047Y-103053866D02*
X134514285Y-103006247D01*
X134514285Y-103006247D02*
X134561904Y-102958628D01*
X134561904Y-102958628D02*
X134609523Y-102863390D01*
X96710057Y-71835238D02*
X96662438Y-71930476D01*
X96662438Y-71930476D02*
X96567200Y-72025714D01*
X96567200Y-72025714D02*
X96424342Y-72168571D01*
X96424342Y-72168571D02*
X96376723Y-72263809D01*
X96376723Y-72263809D02*
X96376723Y-72359047D01*
X96614819Y-72311428D02*
X96567200Y-72406666D01*
X96567200Y-72406666D02*
X96471961Y-72501904D01*
X96471961Y-72501904D02*
X96281485Y-72549523D01*
X96281485Y-72549523D02*
X95948152Y-72549523D01*
X95948152Y-72549523D02*
X95757676Y-72501904D01*
X95757676Y-72501904D02*
X95662438Y-72406666D01*
X95662438Y-72406666D02*
X95614819Y-72311428D01*
X95614819Y-72311428D02*
X95614819Y-72120952D01*
X95614819Y-72120952D02*
X95662438Y-72025714D01*
X95662438Y-72025714D02*
X95757676Y-71930476D01*
X95757676Y-71930476D02*
X95948152Y-71882857D01*
X95948152Y-71882857D02*
X96281485Y-71882857D01*
X96281485Y-71882857D02*
X96471961Y-71930476D01*
X96471961Y-71930476D02*
X96567200Y-72025714D01*
X96567200Y-72025714D02*
X96614819Y-72120952D01*
X96614819Y-72120952D02*
X96614819Y-72311428D01*
X96614819Y-70930476D02*
X96614819Y-71501904D01*
X96614819Y-71216190D02*
X95614819Y-71216190D01*
X95614819Y-71216190D02*
X95757676Y-71311428D01*
X95757676Y-71311428D02*
X95852914Y-71406666D01*
X95852914Y-71406666D02*
X95900533Y-71501904D01*
X121638095Y-72189819D02*
X121638095Y-72999342D01*
X121638095Y-72999342D02*
X121685714Y-73094580D01*
X121685714Y-73094580D02*
X121733333Y-73142200D01*
X121733333Y-73142200D02*
X121828571Y-73189819D01*
X121828571Y-73189819D02*
X122019047Y-73189819D01*
X122019047Y-73189819D02*
X122114285Y-73142200D01*
X122114285Y-73142200D02*
X122161904Y-73094580D01*
X122161904Y-73094580D02*
X122209523Y-72999342D01*
X122209523Y-72999342D02*
X122209523Y-72189819D01*
X123114285Y-72523152D02*
X123114285Y-73189819D01*
X122876190Y-72142200D02*
X122638095Y-72856485D01*
X122638095Y-72856485D02*
X123257142Y-72856485D01*
X92816667Y-112307200D02*
X92959524Y-112354819D01*
X92959524Y-112354819D02*
X93197619Y-112354819D01*
X93197619Y-112354819D02*
X93292857Y-112307200D01*
X93292857Y-112307200D02*
X93340476Y-112259580D01*
X93340476Y-112259580D02*
X93388095Y-112164342D01*
X93388095Y-112164342D02*
X93388095Y-112069104D01*
X93388095Y-112069104D02*
X93340476Y-111973866D01*
X93340476Y-111973866D02*
X93292857Y-111926247D01*
X93292857Y-111926247D02*
X93197619Y-111878628D01*
X93197619Y-111878628D02*
X93007143Y-111831009D01*
X93007143Y-111831009D02*
X92911905Y-111783390D01*
X92911905Y-111783390D02*
X92864286Y-111735771D01*
X92864286Y-111735771D02*
X92816667Y-111640533D01*
X92816667Y-111640533D02*
X92816667Y-111545295D01*
X92816667Y-111545295D02*
X92864286Y-111450057D01*
X92864286Y-111450057D02*
X92911905Y-111402438D01*
X92911905Y-111402438D02*
X93007143Y-111354819D01*
X93007143Y-111354819D02*
X93245238Y-111354819D01*
X93245238Y-111354819D02*
X93388095Y-111402438D01*
X93721429Y-111354819D02*
X93959524Y-112354819D01*
X93959524Y-112354819D02*
X94150000Y-111640533D01*
X94150000Y-111640533D02*
X94340476Y-112354819D01*
X94340476Y-112354819D02*
X94578572Y-111354819D01*
X95483333Y-112354819D02*
X94911905Y-112354819D01*
X95197619Y-112354819D02*
X95197619Y-111354819D01*
X95197619Y-111354819D02*
X95102381Y-111497676D01*
X95102381Y-111497676D02*
X95007143Y-111592914D01*
X95007143Y-111592914D02*
X94911905Y-111640533D01*
X181504819Y-91416666D02*
X181028628Y-91749999D01*
X181504819Y-91988094D02*
X180504819Y-91988094D01*
X180504819Y-91988094D02*
X180504819Y-91607142D01*
X180504819Y-91607142D02*
X180552438Y-91511904D01*
X180552438Y-91511904D02*
X180600057Y-91464285D01*
X180600057Y-91464285D02*
X180695295Y-91416666D01*
X180695295Y-91416666D02*
X180838152Y-91416666D01*
X180838152Y-91416666D02*
X180933390Y-91464285D01*
X180933390Y-91464285D02*
X180981009Y-91511904D01*
X180981009Y-91511904D02*
X181028628Y-91607142D01*
X181028628Y-91607142D02*
X181028628Y-91988094D01*
X180504819Y-91083332D02*
X180504819Y-90464285D01*
X180504819Y-90464285D02*
X180885771Y-90797618D01*
X180885771Y-90797618D02*
X180885771Y-90654761D01*
X180885771Y-90654761D02*
X180933390Y-90559523D01*
X180933390Y-90559523D02*
X180981009Y-90511904D01*
X180981009Y-90511904D02*
X181076247Y-90464285D01*
X181076247Y-90464285D02*
X181314342Y-90464285D01*
X181314342Y-90464285D02*
X181409580Y-90511904D01*
X181409580Y-90511904D02*
X181457200Y-90559523D01*
X181457200Y-90559523D02*
X181504819Y-90654761D01*
X181504819Y-90654761D02*
X181504819Y-90940475D01*
X181504819Y-90940475D02*
X181457200Y-91035713D01*
X181457200Y-91035713D02*
X181409580Y-91083332D01*
X104609580Y-113316666D02*
X104657200Y-113364285D01*
X104657200Y-113364285D02*
X104704819Y-113507142D01*
X104704819Y-113507142D02*
X104704819Y-113602380D01*
X104704819Y-113602380D02*
X104657200Y-113745237D01*
X104657200Y-113745237D02*
X104561961Y-113840475D01*
X104561961Y-113840475D02*
X104466723Y-113888094D01*
X104466723Y-113888094D02*
X104276247Y-113935713D01*
X104276247Y-113935713D02*
X104133390Y-113935713D01*
X104133390Y-113935713D02*
X103942914Y-113888094D01*
X103942914Y-113888094D02*
X103847676Y-113840475D01*
X103847676Y-113840475D02*
X103752438Y-113745237D01*
X103752438Y-113745237D02*
X103704819Y-113602380D01*
X103704819Y-113602380D02*
X103704819Y-113507142D01*
X103704819Y-113507142D02*
X103752438Y-113364285D01*
X103752438Y-113364285D02*
X103800057Y-113316666D01*
X103800057Y-112935713D02*
X103752438Y-112888094D01*
X103752438Y-112888094D02*
X103704819Y-112792856D01*
X103704819Y-112792856D02*
X103704819Y-112554761D01*
X103704819Y-112554761D02*
X103752438Y-112459523D01*
X103752438Y-112459523D02*
X103800057Y-112411904D01*
X103800057Y-112411904D02*
X103895295Y-112364285D01*
X103895295Y-112364285D02*
X103990533Y-112364285D01*
X103990533Y-112364285D02*
X104133390Y-112411904D01*
X104133390Y-112411904D02*
X104704819Y-112983332D01*
X104704819Y-112983332D02*
X104704819Y-112364285D01*
D12*
X139173095Y-42253365D02*
X139112619Y-42313842D01*
X139112619Y-42313842D02*
X138931190Y-42374318D01*
X138931190Y-42374318D02*
X138810238Y-42374318D01*
X138810238Y-42374318D02*
X138628809Y-42313842D01*
X138628809Y-42313842D02*
X138507857Y-42192889D01*
X138507857Y-42192889D02*
X138447380Y-42071937D01*
X138447380Y-42071937D02*
X138386904Y-41830032D01*
X138386904Y-41830032D02*
X138386904Y-41648603D01*
X138386904Y-41648603D02*
X138447380Y-41406699D01*
X138447380Y-41406699D02*
X138507857Y-41285746D01*
X138507857Y-41285746D02*
X138628809Y-41164794D01*
X138628809Y-41164794D02*
X138810238Y-41104318D01*
X138810238Y-41104318D02*
X138931190Y-41104318D01*
X138931190Y-41104318D02*
X139112619Y-41164794D01*
X139112619Y-41164794D02*
X139173095Y-41225270D01*
X139717380Y-42374318D02*
X139717380Y-41104318D01*
X139717380Y-41104318D02*
X140443095Y-42374318D01*
X140443095Y-42374318D02*
X140443095Y-41104318D01*
X141713095Y-42374318D02*
X140987380Y-42374318D01*
X141350237Y-42374318D02*
X141350237Y-41104318D01*
X141350237Y-41104318D02*
X141229285Y-41285746D01*
X141229285Y-41285746D02*
X141108333Y-41406699D01*
X141108333Y-41406699D02*
X140987380Y-41467175D01*
D13*
X152888095Y-102617819D02*
X152888095Y-103427342D01*
X152888095Y-103427342D02*
X152935714Y-103522580D01*
X152935714Y-103522580D02*
X152983333Y-103570200D01*
X152983333Y-103570200D02*
X153078571Y-103617819D01*
X153078571Y-103617819D02*
X153269047Y-103617819D01*
X153269047Y-103617819D02*
X153364285Y-103570200D01*
X153364285Y-103570200D02*
X153411904Y-103522580D01*
X153411904Y-103522580D02*
X153459523Y-103427342D01*
X153459523Y-103427342D02*
X153459523Y-102617819D01*
X154078571Y-103046390D02*
X153983333Y-102998771D01*
X153983333Y-102998771D02*
X153935714Y-102951152D01*
X153935714Y-102951152D02*
X153888095Y-102855914D01*
X153888095Y-102855914D02*
X153888095Y-102808295D01*
X153888095Y-102808295D02*
X153935714Y-102713057D01*
X153935714Y-102713057D02*
X153983333Y-102665438D01*
X153983333Y-102665438D02*
X154078571Y-102617819D01*
X154078571Y-102617819D02*
X154269047Y-102617819D01*
X154269047Y-102617819D02*
X154364285Y-102665438D01*
X154364285Y-102665438D02*
X154411904Y-102713057D01*
X154411904Y-102713057D02*
X154459523Y-102808295D01*
X154459523Y-102808295D02*
X154459523Y-102855914D01*
X154459523Y-102855914D02*
X154411904Y-102951152D01*
X154411904Y-102951152D02*
X154364285Y-102998771D01*
X154364285Y-102998771D02*
X154269047Y-103046390D01*
X154269047Y-103046390D02*
X154078571Y-103046390D01*
X154078571Y-103046390D02*
X153983333Y-103094009D01*
X153983333Y-103094009D02*
X153935714Y-103141628D01*
X153935714Y-103141628D02*
X153888095Y-103236866D01*
X153888095Y-103236866D02*
X153888095Y-103427342D01*
X153888095Y-103427342D02*
X153935714Y-103522580D01*
X153935714Y-103522580D02*
X153983333Y-103570200D01*
X153983333Y-103570200D02*
X154078571Y-103617819D01*
X154078571Y-103617819D02*
X154269047Y-103617819D01*
X154269047Y-103617819D02*
X154364285Y-103570200D01*
X154364285Y-103570200D02*
X154411904Y-103522580D01*
X154411904Y-103522580D02*
X154459523Y-103427342D01*
X154459523Y-103427342D02*
X154459523Y-103236866D01*
X154459523Y-103236866D02*
X154411904Y-103141628D01*
X154411904Y-103141628D02*
X154364285Y-103094009D01*
X154364285Y-103094009D02*
X154269047Y-103046390D01*
X156324819Y-53416666D02*
X155848628Y-53749999D01*
X156324819Y-53988094D02*
X155324819Y-53988094D01*
X155324819Y-53988094D02*
X155324819Y-53607142D01*
X155324819Y-53607142D02*
X155372438Y-53511904D01*
X155372438Y-53511904D02*
X155420057Y-53464285D01*
X155420057Y-53464285D02*
X155515295Y-53416666D01*
X155515295Y-53416666D02*
X155658152Y-53416666D01*
X155658152Y-53416666D02*
X155753390Y-53464285D01*
X155753390Y-53464285D02*
X155801009Y-53511904D01*
X155801009Y-53511904D02*
X155848628Y-53607142D01*
X155848628Y-53607142D02*
X155848628Y-53988094D01*
X156324819Y-52464285D02*
X156324819Y-53035713D01*
X156324819Y-52749999D02*
X155324819Y-52749999D01*
X155324819Y-52749999D02*
X155467676Y-52845237D01*
X155467676Y-52845237D02*
X155562914Y-52940475D01*
X155562914Y-52940475D02*
X155610533Y-53035713D01*
X156183333Y-69109580D02*
X156135714Y-69157200D01*
X156135714Y-69157200D02*
X155992857Y-69204819D01*
X155992857Y-69204819D02*
X155897619Y-69204819D01*
X155897619Y-69204819D02*
X155754762Y-69157200D01*
X155754762Y-69157200D02*
X155659524Y-69061961D01*
X155659524Y-69061961D02*
X155611905Y-68966723D01*
X155611905Y-68966723D02*
X155564286Y-68776247D01*
X155564286Y-68776247D02*
X155564286Y-68633390D01*
X155564286Y-68633390D02*
X155611905Y-68442914D01*
X155611905Y-68442914D02*
X155659524Y-68347676D01*
X155659524Y-68347676D02*
X155754762Y-68252438D01*
X155754762Y-68252438D02*
X155897619Y-68204819D01*
X155897619Y-68204819D02*
X155992857Y-68204819D01*
X155992857Y-68204819D02*
X156135714Y-68252438D01*
X156135714Y-68252438D02*
X156183333Y-68300057D01*
X157040476Y-68538152D02*
X157040476Y-69204819D01*
X156802381Y-68157200D02*
X156564286Y-68871485D01*
X156564286Y-68871485D02*
X157183333Y-68871485D01*
X94224819Y-94016666D02*
X93748628Y-94349999D01*
X94224819Y-94588094D02*
X93224819Y-94588094D01*
X93224819Y-94588094D02*
X93224819Y-94207142D01*
X93224819Y-94207142D02*
X93272438Y-94111904D01*
X93272438Y-94111904D02*
X93320057Y-94064285D01*
X93320057Y-94064285D02*
X93415295Y-94016666D01*
X93415295Y-94016666D02*
X93558152Y-94016666D01*
X93558152Y-94016666D02*
X93653390Y-94064285D01*
X93653390Y-94064285D02*
X93701009Y-94111904D01*
X93701009Y-94111904D02*
X93748628Y-94207142D01*
X93748628Y-94207142D02*
X93748628Y-94588094D01*
X93224819Y-93159523D02*
X93224819Y-93349999D01*
X93224819Y-93349999D02*
X93272438Y-93445237D01*
X93272438Y-93445237D02*
X93320057Y-93492856D01*
X93320057Y-93492856D02*
X93462914Y-93588094D01*
X93462914Y-93588094D02*
X93653390Y-93635713D01*
X93653390Y-93635713D02*
X94034342Y-93635713D01*
X94034342Y-93635713D02*
X94129580Y-93588094D01*
X94129580Y-93588094D02*
X94177200Y-93540475D01*
X94177200Y-93540475D02*
X94224819Y-93445237D01*
X94224819Y-93445237D02*
X94224819Y-93254761D01*
X94224819Y-93254761D02*
X94177200Y-93159523D01*
X94177200Y-93159523D02*
X94129580Y-93111904D01*
X94129580Y-93111904D02*
X94034342Y-93064285D01*
X94034342Y-93064285D02*
X93796247Y-93064285D01*
X93796247Y-93064285D02*
X93701009Y-93111904D01*
X93701009Y-93111904D02*
X93653390Y-93159523D01*
X93653390Y-93159523D02*
X93605771Y-93254761D01*
X93605771Y-93254761D02*
X93605771Y-93445237D01*
X93605771Y-93445237D02*
X93653390Y-93540475D01*
X93653390Y-93540475D02*
X93701009Y-93588094D01*
X93701009Y-93588094D02*
X93796247Y-93635713D01*
X88633333Y-84059580D02*
X88585714Y-84107200D01*
X88585714Y-84107200D02*
X88442857Y-84154819D01*
X88442857Y-84154819D02*
X88347619Y-84154819D01*
X88347619Y-84154819D02*
X88204762Y-84107200D01*
X88204762Y-84107200D02*
X88109524Y-84011961D01*
X88109524Y-84011961D02*
X88061905Y-83916723D01*
X88061905Y-83916723D02*
X88014286Y-83726247D01*
X88014286Y-83726247D02*
X88014286Y-83583390D01*
X88014286Y-83583390D02*
X88061905Y-83392914D01*
X88061905Y-83392914D02*
X88109524Y-83297676D01*
X88109524Y-83297676D02*
X88204762Y-83202438D01*
X88204762Y-83202438D02*
X88347619Y-83154819D01*
X88347619Y-83154819D02*
X88442857Y-83154819D01*
X88442857Y-83154819D02*
X88585714Y-83202438D01*
X88585714Y-83202438D02*
X88633333Y-83250057D01*
X89490476Y-83154819D02*
X89300000Y-83154819D01*
X89300000Y-83154819D02*
X89204762Y-83202438D01*
X89204762Y-83202438D02*
X89157143Y-83250057D01*
X89157143Y-83250057D02*
X89061905Y-83392914D01*
X89061905Y-83392914D02*
X89014286Y-83583390D01*
X89014286Y-83583390D02*
X89014286Y-83964342D01*
X89014286Y-83964342D02*
X89061905Y-84059580D01*
X89061905Y-84059580D02*
X89109524Y-84107200D01*
X89109524Y-84107200D02*
X89204762Y-84154819D01*
X89204762Y-84154819D02*
X89395238Y-84154819D01*
X89395238Y-84154819D02*
X89490476Y-84107200D01*
X89490476Y-84107200D02*
X89538095Y-84059580D01*
X89538095Y-84059580D02*
X89585714Y-83964342D01*
X89585714Y-83964342D02*
X89585714Y-83726247D01*
X89585714Y-83726247D02*
X89538095Y-83631009D01*
X89538095Y-83631009D02*
X89490476Y-83583390D01*
X89490476Y-83583390D02*
X89395238Y-83535771D01*
X89395238Y-83535771D02*
X89204762Y-83535771D01*
X89204762Y-83535771D02*
X89109524Y-83583390D01*
X89109524Y-83583390D02*
X89061905Y-83631009D01*
X89061905Y-83631009D02*
X89014286Y-83726247D01*
X140638095Y-72189819D02*
X140638095Y-72999342D01*
X140638095Y-72999342D02*
X140685714Y-73094580D01*
X140685714Y-73094580D02*
X140733333Y-73142200D01*
X140733333Y-73142200D02*
X140828571Y-73189819D01*
X140828571Y-73189819D02*
X141019047Y-73189819D01*
X141019047Y-73189819D02*
X141114285Y-73142200D01*
X141114285Y-73142200D02*
X141161904Y-73094580D01*
X141161904Y-73094580D02*
X141209523Y-72999342D01*
X141209523Y-72999342D02*
X141209523Y-72189819D01*
X141590476Y-72189819D02*
X142209523Y-72189819D01*
X142209523Y-72189819D02*
X141876190Y-72570771D01*
X141876190Y-72570771D02*
X142019047Y-72570771D01*
X142019047Y-72570771D02*
X142114285Y-72618390D01*
X142114285Y-72618390D02*
X142161904Y-72666009D01*
X142161904Y-72666009D02*
X142209523Y-72761247D01*
X142209523Y-72761247D02*
X142209523Y-72999342D01*
X142209523Y-72999342D02*
X142161904Y-73094580D01*
X142161904Y-73094580D02*
X142114285Y-73142200D01*
X142114285Y-73142200D02*
X142019047Y-73189819D01*
X142019047Y-73189819D02*
X141733333Y-73189819D01*
X141733333Y-73189819D02*
X141638095Y-73142200D01*
X141638095Y-73142200D02*
X141590476Y-73094580D01*
X186344819Y-92168094D02*
X185344819Y-92168094D01*
X185344819Y-92168094D02*
X185344819Y-91929999D01*
X185344819Y-91929999D02*
X185392438Y-91787142D01*
X185392438Y-91787142D02*
X185487676Y-91691904D01*
X185487676Y-91691904D02*
X185582914Y-91644285D01*
X185582914Y-91644285D02*
X185773390Y-91596666D01*
X185773390Y-91596666D02*
X185916247Y-91596666D01*
X185916247Y-91596666D02*
X186106723Y-91644285D01*
X186106723Y-91644285D02*
X186201961Y-91691904D01*
X186201961Y-91691904D02*
X186297200Y-91787142D01*
X186297200Y-91787142D02*
X186344819Y-91929999D01*
X186344819Y-91929999D02*
X186344819Y-92168094D01*
X186344819Y-90644285D02*
X186344819Y-91215713D01*
X186344819Y-90929999D02*
X185344819Y-90929999D01*
X185344819Y-90929999D02*
X185487676Y-91025237D01*
X185487676Y-91025237D02*
X185582914Y-91120475D01*
X185582914Y-91120475D02*
X185630533Y-91215713D01*
X177438095Y-72089819D02*
X177438095Y-72899342D01*
X177438095Y-72899342D02*
X177485714Y-72994580D01*
X177485714Y-72994580D02*
X177533333Y-73042200D01*
X177533333Y-73042200D02*
X177628571Y-73089819D01*
X177628571Y-73089819D02*
X177819047Y-73089819D01*
X177819047Y-73089819D02*
X177914285Y-73042200D01*
X177914285Y-73042200D02*
X177961904Y-72994580D01*
X177961904Y-72994580D02*
X178009523Y-72899342D01*
X178009523Y-72899342D02*
X178009523Y-72089819D01*
X179009523Y-73089819D02*
X178438095Y-73089819D01*
X178723809Y-73089819D02*
X178723809Y-72089819D01*
X178723809Y-72089819D02*
X178628571Y-72232676D01*
X178628571Y-72232676D02*
X178533333Y-72327914D01*
X178533333Y-72327914D02*
X178438095Y-72375533D01*
X103238095Y-72139819D02*
X103238095Y-72949342D01*
X103238095Y-72949342D02*
X103285714Y-73044580D01*
X103285714Y-73044580D02*
X103333333Y-73092200D01*
X103333333Y-73092200D02*
X103428571Y-73139819D01*
X103428571Y-73139819D02*
X103619047Y-73139819D01*
X103619047Y-73139819D02*
X103714285Y-73092200D01*
X103714285Y-73092200D02*
X103761904Y-73044580D01*
X103761904Y-73044580D02*
X103809523Y-72949342D01*
X103809523Y-72949342D02*
X103809523Y-72139819D01*
X104761904Y-72139819D02*
X104285714Y-72139819D01*
X104285714Y-72139819D02*
X104238095Y-72616009D01*
X104238095Y-72616009D02*
X104285714Y-72568390D01*
X104285714Y-72568390D02*
X104380952Y-72520771D01*
X104380952Y-72520771D02*
X104619047Y-72520771D01*
X104619047Y-72520771D02*
X104714285Y-72568390D01*
X104714285Y-72568390D02*
X104761904Y-72616009D01*
X104761904Y-72616009D02*
X104809523Y-72711247D01*
X104809523Y-72711247D02*
X104809523Y-72949342D01*
X104809523Y-72949342D02*
X104761904Y-73044580D01*
X104761904Y-73044580D02*
X104714285Y-73092200D01*
X104714285Y-73092200D02*
X104619047Y-73139819D01*
X104619047Y-73139819D02*
X104380952Y-73139819D01*
X104380952Y-73139819D02*
X104285714Y-73092200D01*
X104285714Y-73092200D02*
X104238095Y-73044580D01*
X185409580Y-107866666D02*
X185457200Y-107914285D01*
X185457200Y-107914285D02*
X185504819Y-108057142D01*
X185504819Y-108057142D02*
X185504819Y-108152380D01*
X185504819Y-108152380D02*
X185457200Y-108295237D01*
X185457200Y-108295237D02*
X185361961Y-108390475D01*
X185361961Y-108390475D02*
X185266723Y-108438094D01*
X185266723Y-108438094D02*
X185076247Y-108485713D01*
X185076247Y-108485713D02*
X184933390Y-108485713D01*
X184933390Y-108485713D02*
X184742914Y-108438094D01*
X184742914Y-108438094D02*
X184647676Y-108390475D01*
X184647676Y-108390475D02*
X184552438Y-108295237D01*
X184552438Y-108295237D02*
X184504819Y-108152380D01*
X184504819Y-108152380D02*
X184504819Y-108057142D01*
X184504819Y-108057142D02*
X184552438Y-107914285D01*
X184552438Y-107914285D02*
X184600057Y-107866666D01*
X184504819Y-107533332D02*
X184504819Y-106914285D01*
X184504819Y-106914285D02*
X184885771Y-107247618D01*
X184885771Y-107247618D02*
X184885771Y-107104761D01*
X184885771Y-107104761D02*
X184933390Y-107009523D01*
X184933390Y-107009523D02*
X184981009Y-106961904D01*
X184981009Y-106961904D02*
X185076247Y-106914285D01*
X185076247Y-106914285D02*
X185314342Y-106914285D01*
X185314342Y-106914285D02*
X185409580Y-106961904D01*
X185409580Y-106961904D02*
X185457200Y-107009523D01*
X185457200Y-107009523D02*
X185504819Y-107104761D01*
X185504819Y-107104761D02*
X185504819Y-107390475D01*
X185504819Y-107390475D02*
X185457200Y-107485713D01*
X185457200Y-107485713D02*
X185409580Y-107533332D01*
X121454819Y-56811904D02*
X122264342Y-56811904D01*
X122264342Y-56811904D02*
X122359580Y-56764285D01*
X122359580Y-56764285D02*
X122407200Y-56716666D01*
X122407200Y-56716666D02*
X122454819Y-56621428D01*
X122454819Y-56621428D02*
X122454819Y-56430952D01*
X122454819Y-56430952D02*
X122407200Y-56335714D01*
X122407200Y-56335714D02*
X122359580Y-56288095D01*
X122359580Y-56288095D02*
X122264342Y-56240476D01*
X122264342Y-56240476D02*
X121454819Y-56240476D01*
X121454819Y-55335714D02*
X121454819Y-55526190D01*
X121454819Y-55526190D02*
X121502438Y-55621428D01*
X121502438Y-55621428D02*
X121550057Y-55669047D01*
X121550057Y-55669047D02*
X121692914Y-55764285D01*
X121692914Y-55764285D02*
X121883390Y-55811904D01*
X121883390Y-55811904D02*
X122264342Y-55811904D01*
X122264342Y-55811904D02*
X122359580Y-55764285D01*
X122359580Y-55764285D02*
X122407200Y-55716666D01*
X122407200Y-55716666D02*
X122454819Y-55621428D01*
X122454819Y-55621428D02*
X122454819Y-55430952D01*
X122454819Y-55430952D02*
X122407200Y-55335714D01*
X122407200Y-55335714D02*
X122359580Y-55288095D01*
X122359580Y-55288095D02*
X122264342Y-55240476D01*
X122264342Y-55240476D02*
X122026247Y-55240476D01*
X122026247Y-55240476D02*
X121931009Y-55288095D01*
X121931009Y-55288095D02*
X121883390Y-55335714D01*
X121883390Y-55335714D02*
X121835771Y-55430952D01*
X121835771Y-55430952D02*
X121835771Y-55621428D01*
X121835771Y-55621428D02*
X121883390Y-55716666D01*
X121883390Y-55716666D02*
X121931009Y-55764285D01*
X121931009Y-55764285D02*
X122026247Y-55811904D01*
X89511905Y-102304819D02*
X89511905Y-103114342D01*
X89511905Y-103114342D02*
X89559524Y-103209580D01*
X89559524Y-103209580D02*
X89607143Y-103257200D01*
X89607143Y-103257200D02*
X89702381Y-103304819D01*
X89702381Y-103304819D02*
X89892857Y-103304819D01*
X89892857Y-103304819D02*
X89988095Y-103257200D01*
X89988095Y-103257200D02*
X90035714Y-103209580D01*
X90035714Y-103209580D02*
X90083333Y-103114342D01*
X90083333Y-103114342D02*
X90083333Y-102304819D01*
X91083333Y-103304819D02*
X90511905Y-103304819D01*
X90797619Y-103304819D02*
X90797619Y-102304819D01*
X90797619Y-102304819D02*
X90702381Y-102447676D01*
X90702381Y-102447676D02*
X90607143Y-102542914D01*
X90607143Y-102542914D02*
X90511905Y-102590533D01*
X92035714Y-103304819D02*
X91464286Y-103304819D01*
X91750000Y-103304819D02*
X91750000Y-102304819D01*
X91750000Y-102304819D02*
X91654762Y-102447676D01*
X91654762Y-102447676D02*
X91559524Y-102542914D01*
X91559524Y-102542914D02*
X91464286Y-102590533D01*
X90374819Y-94016666D02*
X89898628Y-94349999D01*
X90374819Y-94588094D02*
X89374819Y-94588094D01*
X89374819Y-94588094D02*
X89374819Y-94207142D01*
X89374819Y-94207142D02*
X89422438Y-94111904D01*
X89422438Y-94111904D02*
X89470057Y-94064285D01*
X89470057Y-94064285D02*
X89565295Y-94016666D01*
X89565295Y-94016666D02*
X89708152Y-94016666D01*
X89708152Y-94016666D02*
X89803390Y-94064285D01*
X89803390Y-94064285D02*
X89851009Y-94111904D01*
X89851009Y-94111904D02*
X89898628Y-94207142D01*
X89898628Y-94207142D02*
X89898628Y-94588094D01*
X89374819Y-93683332D02*
X89374819Y-93016666D01*
X89374819Y-93016666D02*
X90374819Y-93445237D01*
X102254819Y-94588094D02*
X101254819Y-94588094D01*
X101254819Y-94588094D02*
X101254819Y-94349999D01*
X101254819Y-94349999D02*
X101302438Y-94207142D01*
X101302438Y-94207142D02*
X101397676Y-94111904D01*
X101397676Y-94111904D02*
X101492914Y-94064285D01*
X101492914Y-94064285D02*
X101683390Y-94016666D01*
X101683390Y-94016666D02*
X101826247Y-94016666D01*
X101826247Y-94016666D02*
X102016723Y-94064285D01*
X102016723Y-94064285D02*
X102111961Y-94111904D01*
X102111961Y-94111904D02*
X102207200Y-94207142D01*
X102207200Y-94207142D02*
X102254819Y-94349999D01*
X102254819Y-94349999D02*
X102254819Y-94588094D01*
X101254819Y-93683332D02*
X101254819Y-93064285D01*
X101254819Y-93064285D02*
X101635771Y-93397618D01*
X101635771Y-93397618D02*
X101635771Y-93254761D01*
X101635771Y-93254761D02*
X101683390Y-93159523D01*
X101683390Y-93159523D02*
X101731009Y-93111904D01*
X101731009Y-93111904D02*
X101826247Y-93064285D01*
X101826247Y-93064285D02*
X102064342Y-93064285D01*
X102064342Y-93064285D02*
X102159580Y-93111904D01*
X102159580Y-93111904D02*
X102207200Y-93159523D01*
X102207200Y-93159523D02*
X102254819Y-93254761D01*
X102254819Y-93254761D02*
X102254819Y-93540475D01*
X102254819Y-93540475D02*
X102207200Y-93635713D01*
X102207200Y-93635713D02*
X102159580Y-93683332D01*
X185474819Y-100816666D02*
X184998628Y-101149999D01*
X185474819Y-101388094D02*
X184474819Y-101388094D01*
X184474819Y-101388094D02*
X184474819Y-101007142D01*
X184474819Y-101007142D02*
X184522438Y-100911904D01*
X184522438Y-100911904D02*
X184570057Y-100864285D01*
X184570057Y-100864285D02*
X184665295Y-100816666D01*
X184665295Y-100816666D02*
X184808152Y-100816666D01*
X184808152Y-100816666D02*
X184903390Y-100864285D01*
X184903390Y-100864285D02*
X184951009Y-100911904D01*
X184951009Y-100911904D02*
X184998628Y-101007142D01*
X184998628Y-101007142D02*
X184998628Y-101388094D01*
X184808152Y-99959523D02*
X185474819Y-99959523D01*
X184427200Y-100197618D02*
X185141485Y-100435713D01*
X185141485Y-100435713D02*
X185141485Y-99816666D01*
X152424819Y-53416666D02*
X151948628Y-53749999D01*
X152424819Y-53988094D02*
X151424819Y-53988094D01*
X151424819Y-53988094D02*
X151424819Y-53607142D01*
X151424819Y-53607142D02*
X151472438Y-53511904D01*
X151472438Y-53511904D02*
X151520057Y-53464285D01*
X151520057Y-53464285D02*
X151615295Y-53416666D01*
X151615295Y-53416666D02*
X151758152Y-53416666D01*
X151758152Y-53416666D02*
X151853390Y-53464285D01*
X151853390Y-53464285D02*
X151901009Y-53511904D01*
X151901009Y-53511904D02*
X151948628Y-53607142D01*
X151948628Y-53607142D02*
X151948628Y-53988094D01*
X151520057Y-53035713D02*
X151472438Y-52988094D01*
X151472438Y-52988094D02*
X151424819Y-52892856D01*
X151424819Y-52892856D02*
X151424819Y-52654761D01*
X151424819Y-52654761D02*
X151472438Y-52559523D01*
X151472438Y-52559523D02*
X151520057Y-52511904D01*
X151520057Y-52511904D02*
X151615295Y-52464285D01*
X151615295Y-52464285D02*
X151710533Y-52464285D01*
X151710533Y-52464285D02*
X151853390Y-52511904D01*
X151853390Y-52511904D02*
X152424819Y-53083332D01*
X152424819Y-53083332D02*
X152424819Y-52464285D01*
X172238095Y-102484819D02*
X172238095Y-103294342D01*
X172238095Y-103294342D02*
X172285714Y-103389580D01*
X172285714Y-103389580D02*
X172333333Y-103437200D01*
X172333333Y-103437200D02*
X172428571Y-103484819D01*
X172428571Y-103484819D02*
X172619047Y-103484819D01*
X172619047Y-103484819D02*
X172714285Y-103437200D01*
X172714285Y-103437200D02*
X172761904Y-103389580D01*
X172761904Y-103389580D02*
X172809523Y-103294342D01*
X172809523Y-103294342D02*
X172809523Y-102484819D01*
X173190476Y-102484819D02*
X173857142Y-102484819D01*
X173857142Y-102484819D02*
X173428571Y-103484819D01*
X158988095Y-72189819D02*
X158988095Y-72999342D01*
X158988095Y-72999342D02*
X159035714Y-73094580D01*
X159035714Y-73094580D02*
X159083333Y-73142200D01*
X159083333Y-73142200D02*
X159178571Y-73189819D01*
X159178571Y-73189819D02*
X159369047Y-73189819D01*
X159369047Y-73189819D02*
X159464285Y-73142200D01*
X159464285Y-73142200D02*
X159511904Y-73094580D01*
X159511904Y-73094580D02*
X159559523Y-72999342D01*
X159559523Y-72999342D02*
X159559523Y-72189819D01*
X159988095Y-72285057D02*
X160035714Y-72237438D01*
X160035714Y-72237438D02*
X160130952Y-72189819D01*
X160130952Y-72189819D02*
X160369047Y-72189819D01*
X160369047Y-72189819D02*
X160464285Y-72237438D01*
X160464285Y-72237438D02*
X160511904Y-72285057D01*
X160511904Y-72285057D02*
X160559523Y-72380295D01*
X160559523Y-72380295D02*
X160559523Y-72475533D01*
X160559523Y-72475533D02*
X160511904Y-72618390D01*
X160511904Y-72618390D02*
X159940476Y-73189819D01*
X159940476Y-73189819D02*
X160559523Y-73189819D01*
X88983333Y-50809580D02*
X88935714Y-50857200D01*
X88935714Y-50857200D02*
X88792857Y-50904819D01*
X88792857Y-50904819D02*
X88697619Y-50904819D01*
X88697619Y-50904819D02*
X88554762Y-50857200D01*
X88554762Y-50857200D02*
X88459524Y-50761961D01*
X88459524Y-50761961D02*
X88411905Y-50666723D01*
X88411905Y-50666723D02*
X88364286Y-50476247D01*
X88364286Y-50476247D02*
X88364286Y-50333390D01*
X88364286Y-50333390D02*
X88411905Y-50142914D01*
X88411905Y-50142914D02*
X88459524Y-50047676D01*
X88459524Y-50047676D02*
X88554762Y-49952438D01*
X88554762Y-49952438D02*
X88697619Y-49904819D01*
X88697619Y-49904819D02*
X88792857Y-49904819D01*
X88792857Y-49904819D02*
X88935714Y-49952438D01*
X88935714Y-49952438D02*
X88983333Y-50000057D01*
X89888095Y-49904819D02*
X89411905Y-49904819D01*
X89411905Y-49904819D02*
X89364286Y-50381009D01*
X89364286Y-50381009D02*
X89411905Y-50333390D01*
X89411905Y-50333390D02*
X89507143Y-50285771D01*
X89507143Y-50285771D02*
X89745238Y-50285771D01*
X89745238Y-50285771D02*
X89840476Y-50333390D01*
X89840476Y-50333390D02*
X89888095Y-50381009D01*
X89888095Y-50381009D02*
X89935714Y-50476247D01*
X89935714Y-50476247D02*
X89935714Y-50714342D01*
X89935714Y-50714342D02*
X89888095Y-50809580D01*
X89888095Y-50809580D02*
X89840476Y-50857200D01*
X89840476Y-50857200D02*
X89745238Y-50904819D01*
X89745238Y-50904819D02*
X89507143Y-50904819D01*
X89507143Y-50904819D02*
X89411905Y-50857200D01*
X89411905Y-50857200D02*
X89364286Y-50809580D01*
X112661905Y-102617819D02*
X112661905Y-103427342D01*
X112661905Y-103427342D02*
X112709524Y-103522580D01*
X112709524Y-103522580D02*
X112757143Y-103570200D01*
X112757143Y-103570200D02*
X112852381Y-103617819D01*
X112852381Y-103617819D02*
X113042857Y-103617819D01*
X113042857Y-103617819D02*
X113138095Y-103570200D01*
X113138095Y-103570200D02*
X113185714Y-103522580D01*
X113185714Y-103522580D02*
X113233333Y-103427342D01*
X113233333Y-103427342D02*
X113233333Y-102617819D01*
X114233333Y-103617819D02*
X113661905Y-103617819D01*
X113947619Y-103617819D02*
X113947619Y-102617819D01*
X113947619Y-102617819D02*
X113852381Y-102760676D01*
X113852381Y-102760676D02*
X113757143Y-102855914D01*
X113757143Y-102855914D02*
X113661905Y-102903533D01*
X114852381Y-102617819D02*
X114947619Y-102617819D01*
X114947619Y-102617819D02*
X115042857Y-102665438D01*
X115042857Y-102665438D02*
X115090476Y-102713057D01*
X115090476Y-102713057D02*
X115138095Y-102808295D01*
X115138095Y-102808295D02*
X115185714Y-102998771D01*
X115185714Y-102998771D02*
X115185714Y-103236866D01*
X115185714Y-103236866D02*
X115138095Y-103427342D01*
X115138095Y-103427342D02*
X115090476Y-103522580D01*
X115090476Y-103522580D02*
X115042857Y-103570200D01*
X115042857Y-103570200D02*
X114947619Y-103617819D01*
X114947619Y-103617819D02*
X114852381Y-103617819D01*
X114852381Y-103617819D02*
X114757143Y-103570200D01*
X114757143Y-103570200D02*
X114709524Y-103522580D01*
X114709524Y-103522580D02*
X114661905Y-103427342D01*
X114661905Y-103427342D02*
X114614286Y-103236866D01*
X114614286Y-103236866D02*
X114614286Y-102998771D01*
X114614286Y-102998771D02*
X114661905Y-102808295D01*
X114661905Y-102808295D02*
X114709524Y-102713057D01*
X114709524Y-102713057D02*
X114757143Y-102665438D01*
X114757143Y-102665438D02*
X114852381Y-102617819D01*
X98024819Y-94016666D02*
X97548628Y-94349999D01*
X98024819Y-94588094D02*
X97024819Y-94588094D01*
X97024819Y-94588094D02*
X97024819Y-94207142D01*
X97024819Y-94207142D02*
X97072438Y-94111904D01*
X97072438Y-94111904D02*
X97120057Y-94064285D01*
X97120057Y-94064285D02*
X97215295Y-94016666D01*
X97215295Y-94016666D02*
X97358152Y-94016666D01*
X97358152Y-94016666D02*
X97453390Y-94064285D01*
X97453390Y-94064285D02*
X97501009Y-94111904D01*
X97501009Y-94111904D02*
X97548628Y-94207142D01*
X97548628Y-94207142D02*
X97548628Y-94588094D01*
X97024819Y-93111904D02*
X97024819Y-93588094D01*
X97024819Y-93588094D02*
X97501009Y-93635713D01*
X97501009Y-93635713D02*
X97453390Y-93588094D01*
X97453390Y-93588094D02*
X97405771Y-93492856D01*
X97405771Y-93492856D02*
X97405771Y-93254761D01*
X97405771Y-93254761D02*
X97453390Y-93159523D01*
X97453390Y-93159523D02*
X97501009Y-93111904D01*
X97501009Y-93111904D02*
X97596247Y-93064285D01*
X97596247Y-93064285D02*
X97834342Y-93064285D01*
X97834342Y-93064285D02*
X97929580Y-93111904D01*
X97929580Y-93111904D02*
X97977200Y-93159523D01*
X97977200Y-93159523D02*
X98024819Y-93254761D01*
X98024819Y-93254761D02*
X98024819Y-93492856D01*
X98024819Y-93492856D02*
X97977200Y-93588094D01*
X97977200Y-93588094D02*
X97929580Y-93635713D01*
D14*
%TO.C,VR1*%
X183785000Y-114660000D02*
X183785000Y-124190000D01*
X183785000Y-124190000D02*
X193315000Y-124190000D01*
X193315000Y-114660000D02*
X183785000Y-114660000D01*
X193315000Y-124190000D02*
X193315000Y-114660000D01*
%TO.C,SW2*%
D15*
X187140000Y-106800000D02*
X189860000Y-106800000D01*
X189860000Y-96580000D01*
X187140000Y-96580000D01*
X187140000Y-106800000D01*
%TO.C,C1*%
X92960000Y-128434888D02*
X91431000Y-128434888D01*
X92960000Y-128474888D02*
X91435000Y-128474888D01*
X92960000Y-128514888D02*
X91439000Y-128514888D01*
X92960000Y-128554888D02*
X91444000Y-128554888D01*
X92960000Y-128594888D02*
X91450000Y-128594888D01*
X92960000Y-128634888D02*
X91457000Y-128634888D01*
X92960000Y-128674888D02*
X91464000Y-128674888D01*
X92960000Y-128714888D02*
X91472000Y-128714888D01*
X92960000Y-128754888D02*
X91480000Y-128754888D01*
X92960000Y-128794888D02*
X91489000Y-128794888D01*
X92960000Y-128834888D02*
X91499000Y-128834888D01*
X92960000Y-128874888D02*
X91509000Y-128874888D01*
X92960000Y-128915888D02*
X91520000Y-128915888D01*
X92960000Y-128955888D02*
X91532000Y-128955888D01*
X92960000Y-128995888D02*
X91545000Y-128995888D01*
X92960000Y-129035888D02*
X91558000Y-129035888D01*
X92960000Y-129075888D02*
X91572000Y-129075888D01*
X92960000Y-129115888D02*
X91586000Y-129115888D01*
X92960000Y-129155888D02*
X91602000Y-129155888D01*
X92960000Y-129195888D02*
X91618000Y-129195888D01*
X92960000Y-129235888D02*
X91635000Y-129235888D01*
X92960000Y-129275888D02*
X91652000Y-129275888D01*
X92960000Y-129315888D02*
X91671000Y-129315888D01*
X92960000Y-129355888D02*
X91690000Y-129355888D01*
X92960000Y-129395888D02*
X91710000Y-129395888D01*
X92960000Y-129435888D02*
X91732000Y-129435888D01*
X92960000Y-129475888D02*
X91753000Y-129475888D01*
X92960000Y-129515888D02*
X91776000Y-129515888D01*
X92960000Y-129555888D02*
X91800000Y-129555888D01*
X92960000Y-129595888D02*
X91825000Y-129595888D01*
X92960000Y-129635888D02*
X91851000Y-129635888D01*
X92960000Y-129675888D02*
X91878000Y-129675888D01*
X92960000Y-129715888D02*
X91905000Y-129715888D01*
X92960000Y-129755888D02*
X91935000Y-129755888D01*
X92960000Y-129795888D02*
X91965000Y-129795888D01*
X92960000Y-129835888D02*
X91996000Y-129835888D01*
X92960000Y-129875888D02*
X92029000Y-129875888D01*
X92960000Y-129915888D02*
X92063000Y-129915888D01*
X92960000Y-129955888D02*
X92099000Y-129955888D01*
X92960000Y-129995888D02*
X92136000Y-129995888D01*
X92960000Y-130035888D02*
X92174000Y-130035888D01*
X92960000Y-130075888D02*
X92215000Y-130075888D01*
X92960000Y-130115888D02*
X92257000Y-130115888D01*
X92960000Y-130155888D02*
X92301000Y-130155888D01*
X92960000Y-130195888D02*
X92347000Y-130195888D01*
X92960000Y-130235888D02*
X92395000Y-130235888D01*
X92960000Y-130275888D02*
X92446000Y-130275888D01*
X92960000Y-130315888D02*
X92500000Y-130315888D01*
X92960000Y-130355888D02*
X92557000Y-130355888D01*
X92960000Y-130395888D02*
X92617000Y-130395888D01*
X92960000Y-130435888D02*
X92681000Y-130435888D01*
X92960000Y-130475888D02*
X92749000Y-130475888D01*
X94284000Y-130795888D02*
X93716000Y-130795888D01*
X94518000Y-130755888D02*
X93482000Y-130755888D01*
X94677000Y-130715888D02*
X93323000Y-130715888D01*
X94805000Y-130675888D02*
X93195000Y-130675888D01*
X94915000Y-130635888D02*
X93085000Y-130635888D01*
X95011000Y-130595888D02*
X92989000Y-130595888D01*
X95098000Y-130555888D02*
X92902000Y-130555888D01*
X95178000Y-130515888D02*
X92822000Y-130515888D01*
X95251000Y-130475888D02*
X95040000Y-130475888D01*
X95319000Y-130435888D02*
X95040000Y-130435888D01*
X95383000Y-130395888D02*
X95040000Y-130395888D01*
X95443000Y-130355888D02*
X95040000Y-130355888D01*
X95475000Y-125390113D02*
X95475000Y-125890113D01*
X95500000Y-130315888D02*
X95040000Y-130315888D01*
X95554000Y-130275888D02*
X95040000Y-130275888D01*
X95605000Y-130235888D02*
X95040000Y-130235888D01*
X95653000Y-130195888D02*
X95040000Y-130195888D01*
X95699000Y-130155888D02*
X95040000Y-130155888D01*
X95725000Y-125640113D02*
X95225000Y-125640113D01*
X95743000Y-130115888D02*
X95040000Y-130115888D01*
X95785000Y-130075888D02*
X95040000Y-130075888D01*
X95826000Y-130035888D02*
X95040000Y-130035888D01*
X95864000Y-129995888D02*
X95040000Y-129995888D01*
X95901000Y-129955888D02*
X95040000Y-129955888D01*
X95937000Y-129915888D02*
X95040000Y-129915888D01*
X95971000Y-129875888D02*
X95040000Y-129875888D01*
X96004000Y-129835888D02*
X95040000Y-129835888D01*
X96035000Y-129795888D02*
X95040000Y-129795888D01*
X96065000Y-129755888D02*
X95040000Y-129755888D01*
X96095000Y-129715888D02*
X95040000Y-129715888D01*
X96122000Y-129675888D02*
X95040000Y-129675888D01*
X96149000Y-129635888D02*
X95040000Y-129635888D01*
X96175000Y-129595888D02*
X95040000Y-129595888D01*
X96200000Y-129555888D02*
X95040000Y-129555888D01*
X96224000Y-129515888D02*
X95040000Y-129515888D01*
X96247000Y-129475888D02*
X95040000Y-129475888D01*
X96268000Y-129435888D02*
X95040000Y-129435888D01*
X96290000Y-129395888D02*
X95040000Y-129395888D01*
X96310000Y-129355888D02*
X95040000Y-129355888D01*
X96329000Y-129315888D02*
X95040000Y-129315888D01*
X96348000Y-129275888D02*
X95040000Y-129275888D01*
X96365000Y-129235888D02*
X95040000Y-129235888D01*
X96382000Y-129195888D02*
X95040000Y-129195888D01*
X96398000Y-129155888D02*
X95040000Y-129155888D01*
X96414000Y-129115888D02*
X95040000Y-129115888D01*
X96428000Y-129075888D02*
X95040000Y-129075888D01*
X96442000Y-129035888D02*
X95040000Y-129035888D01*
X96455000Y-128995888D02*
X95040000Y-128995888D01*
X96468000Y-128955888D02*
X95040000Y-128955888D01*
X96480000Y-128915888D02*
X95040000Y-128915888D01*
X96491000Y-128874888D02*
X95040000Y-128874888D01*
X96501000Y-128834888D02*
X95040000Y-128834888D01*
X96511000Y-128794888D02*
X95040000Y-128794888D01*
X96520000Y-128754888D02*
X95040000Y-128754888D01*
X96528000Y-128714888D02*
X95040000Y-128714888D01*
X96536000Y-128674888D02*
X95040000Y-128674888D01*
X96543000Y-128634888D02*
X95040000Y-128634888D01*
X96550000Y-128594888D02*
X95040000Y-128594888D01*
X96556000Y-128554888D02*
X95040000Y-128554888D01*
X96561000Y-128514888D02*
X95040000Y-128514888D01*
X96565000Y-128474888D02*
X95040000Y-128474888D01*
X96569000Y-128434888D02*
X95040000Y-128434888D01*
X96573000Y-128394888D02*
X91427000Y-128394888D01*
X96576000Y-128354888D02*
X91424000Y-128354888D01*
X96578000Y-128314888D02*
X91422000Y-128314888D01*
X96579000Y-128274888D02*
X91421000Y-128274888D01*
X96580000Y-128194888D02*
X91420000Y-128194888D01*
X96580000Y-128234888D02*
X91420000Y-128234888D01*
X96620000Y-128194888D02*
G75*
G02*
X91380000Y-128194888I-2620000J0D01*
G01*
X91380000Y-128194888D02*
G75*
G02*
X96620000Y-128194888I2620000J0D01*
G01*
%TO.C,D2*%
X93370000Y-98935000D02*
X93214000Y-98935000D01*
X95686000Y-98935000D02*
X95530000Y-98935000D01*
X93370163Y-101536130D02*
G75*
G02*
X93370000Y-99454039I1079837J1041130D01*
G01*
X93371392Y-102167335D02*
G75*
G02*
X93214484Y-98935000I1078608J1672335D01*
G01*
X95530000Y-99454039D02*
G75*
G02*
X95529837Y-101536130I-1080000J-1040961D01*
G01*
X95685516Y-98935000D02*
G75*
G02*
X95528608Y-102167335I-1235516J-1560000D01*
G01*
%TO.C,U9*%
X127975000Y-105577218D02*
X127975000Y-105860000D01*
X127975000Y-118595000D02*
X127975000Y-117140000D01*
X129147218Y-104405000D02*
X127975000Y-105577218D01*
X129430000Y-104405000D02*
X129147218Y-104405000D01*
X129430000Y-118595000D02*
X127975000Y-118595000D01*
X138170000Y-104405000D02*
X139625000Y-104405000D01*
X138170000Y-118595000D02*
X139625000Y-118595000D01*
X139625000Y-104405000D02*
X139625000Y-105860000D01*
X139625000Y-118595000D02*
X139625000Y-117140000D01*
%TO.C,Q1*%
X94600000Y-73540000D02*
X94600000Y-69940000D01*
X90150000Y-71740000D02*
G75*
G02*
X91651193Y-69383600I2600000J0D01*
G01*
X91651193Y-74096400D02*
G75*
G02*
X90150000Y-71740000I1098807J2356400D01*
G01*
X93872795Y-69415816D02*
G75*
G02*
X94600000Y-69940000I-1122795J-2324184D01*
G01*
X94600000Y-73540000D02*
G75*
G02*
X93872795Y-74064184I-1850000J1800000D01*
G01*
D11*
%TO.C,U4*%
X117235000Y-74735000D02*
X117235000Y-75235000D01*
X117235000Y-83915000D02*
X117235000Y-82265000D01*
X118385000Y-73585000D02*
X117235000Y-74735000D01*
X118885000Y-73585000D02*
X118385000Y-73585000D01*
X118885000Y-83915000D02*
X117235000Y-83915000D01*
X125915000Y-73585000D02*
X127565000Y-73585000D01*
X125915000Y-83915000D02*
X127565000Y-83915000D01*
X127565000Y-73585000D02*
X127565000Y-75235000D01*
X127565000Y-83915000D02*
X127565000Y-82265000D01*
D15*
%TO.C,SW1*%
X88907500Y-113507500D02*
X88907500Y-112507500D01*
X89157500Y-122197500D02*
X89157500Y-112757500D01*
X89907500Y-112507500D02*
X88907500Y-112507500D01*
X99197500Y-112757500D02*
X89157500Y-112757500D01*
X99197500Y-122197500D02*
X89157500Y-122197500D01*
X99197500Y-122197500D02*
X99197500Y-112757500D01*
%TO.C,R3*%
X182390000Y-90572936D02*
X182390000Y-92027064D01*
X184210000Y-90572936D02*
X184210000Y-92027064D01*
%TO.C,C2*%
X101490000Y-112438748D02*
X101490000Y-113861252D01*
X103310000Y-112438748D02*
X103310000Y-113861252D01*
D16*
%TO.C,U8*%
X149205000Y-104027400D02*
X149205000Y-104583660D01*
X149205000Y-122216340D02*
X149205000Y-122772600D01*
X149205000Y-122772600D02*
X158095000Y-122772600D01*
X158095000Y-104027400D02*
X149205000Y-104027400D01*
X158095000Y-104583660D02*
X158095000Y-104027400D01*
X158095000Y-122772600D02*
X158095000Y-122216340D01*
D15*
X148048000Y-104078000D02*
X147808000Y-103748000D01*
X148288000Y-103748000D01*
X148048000Y-104078000D01*
G36*
X148048000Y-104078000D02*
G01*
X147808000Y-103748000D01*
X148288000Y-103748000D01*
X148048000Y-104078000D01*
G37*
%TO.C,R1*%
X153140000Y-52522936D02*
X153140000Y-53977064D01*
X154960000Y-52522936D02*
X154960000Y-53977064D01*
%TO.C,C4*%
X157061252Y-69740000D02*
X155638748Y-69740000D01*
X157061252Y-71560000D02*
X155638748Y-71560000D01*
D17*
%TO.C,REF\u002A\u002A*%
X188400000Y-54050000D02*
G75*
G02*
X183400000Y-54050000I-2500000J0D01*
G01*
X183400000Y-54050000D02*
G75*
G02*
X188400000Y-54050000I2500000J0D01*
G01*
D18*
G36*
X185016196Y-53004264D02*
G01*
X185090648Y-53009973D01*
X185162308Y-53019513D01*
X185231177Y-53032884D01*
X185297256Y-53050087D01*
X185360544Y-53071120D01*
X185421044Y-53095984D01*
X185478754Y-53124678D01*
X185533677Y-53157202D01*
X185585812Y-53193556D01*
X185635161Y-53233738D01*
X185681723Y-53277750D01*
X185725499Y-53325590D01*
X185766491Y-53377258D01*
X185804698Y-53432755D01*
X185840122Y-53492079D01*
X185386414Y-53727982D01*
X185377198Y-53709461D01*
X185367726Y-53691644D01*
X185357998Y-53674529D01*
X185348013Y-53658118D01*
X185337772Y-53642412D01*
X185327274Y-53627411D01*
X185316518Y-53613116D01*
X185305505Y-53599526D01*
X185294233Y-53586644D01*
X185282704Y-53574470D01*
X185270916Y-53563003D01*
X185258869Y-53552245D01*
X185246562Y-53542197D01*
X185233997Y-53532859D01*
X185221171Y-53524231D01*
X185208085Y-53516315D01*
X185194909Y-53509009D01*
X185181852Y-53502172D01*
X185168913Y-53495804D01*
X185156093Y-53489906D01*
X185143391Y-53484478D01*
X185130808Y-53479521D01*
X185118343Y-53475034D01*
X185105996Y-53471018D01*
X185093766Y-53467474D01*
X185081655Y-53464401D01*
X185069661Y-53461800D01*
X185057784Y-53459671D01*
X185046024Y-53458015D01*
X185034382Y-53456831D01*
X185022856Y-53456121D01*
X185011447Y-53455884D01*
X184983552Y-53456469D01*
X184956542Y-53458222D01*
X184930416Y-53461145D01*
X184905175Y-53465236D01*
X184880818Y-53470497D01*
X184857346Y-53476926D01*
X184834758Y-53484525D01*
X184813056Y-53493293D01*
X184792238Y-53503230D01*
X184772305Y-53514337D01*
X184753258Y-53526612D01*
X184735095Y-53540058D01*
X184717818Y-53554672D01*
X184701426Y-53570456D01*
X184685920Y-53587410D01*
X184671299Y-53605532D01*
X184657563Y-53624825D01*
X184644713Y-53645287D01*
X184632749Y-53666919D01*
X184621670Y-53689720D01*
X184611478Y-53713691D01*
X184602171Y-53738832D01*
X184593750Y-53765142D01*
X184586215Y-53792623D01*
X184579567Y-53821273D01*
X184573804Y-53851093D01*
X184568928Y-53882083D01*
X184564939Y-53914243D01*
X184561835Y-53947573D01*
X184559619Y-53982073D01*
X184558289Y-54017743D01*
X184557845Y-54054583D01*
X184558294Y-54088169D01*
X184559641Y-54120902D01*
X184561885Y-54152782D01*
X184565027Y-54183811D01*
X184569066Y-54213988D01*
X184574002Y-54243314D01*
X184579836Y-54271790D01*
X184586566Y-54299415D01*
X184594193Y-54326192D01*
X184602716Y-54352118D01*
X184612136Y-54377197D01*
X184622452Y-54401427D01*
X184633664Y-54424810D01*
X184645771Y-54447345D01*
X184658775Y-54469033D01*
X184672674Y-54489876D01*
X184687467Y-54509657D01*
X184703110Y-54528164D01*
X184719604Y-54545395D01*
X184736948Y-54561351D01*
X184745940Y-54568851D01*
X184755144Y-54576032D01*
X184764561Y-54582893D01*
X184774190Y-54589436D01*
X184784032Y-54595660D01*
X184794087Y-54601565D01*
X184804355Y-54607151D01*
X184814835Y-54612418D01*
X184836434Y-54621994D01*
X184858883Y-54630294D01*
X184882183Y-54637318D01*
X184906335Y-54643065D01*
X184931336Y-54647535D01*
X184957189Y-54650728D01*
X184983893Y-54652644D01*
X185011447Y-54653282D01*
X185047809Y-54652148D01*
X185082800Y-54648744D01*
X185116420Y-54643070D01*
X185148670Y-54635129D01*
X185179549Y-54624918D01*
X185209057Y-54612440D01*
X185237196Y-54597694D01*
X185263965Y-54580681D01*
X185289365Y-54561400D01*
X185313396Y-54539853D01*
X185336059Y-54516039D01*
X185357353Y-54489958D01*
X185377279Y-54461612D01*
X185395838Y-54431001D01*
X185413029Y-54398124D01*
X185428854Y-54362982D01*
X185846049Y-54574648D01*
X185829018Y-54605248D01*
X185811183Y-54635018D01*
X185792545Y-54663958D01*
X185773103Y-54692067D01*
X185752857Y-54719347D01*
X185731808Y-54745797D01*
X185709955Y-54771418D01*
X185687299Y-54796210D01*
X185663838Y-54820174D01*
X185639574Y-54843310D01*
X185614507Y-54865618D01*
X185588636Y-54887098D01*
X185561961Y-54907751D01*
X185534482Y-54927577D01*
X185506200Y-54946577D01*
X185477114Y-54964750D01*
X185447473Y-54981973D01*
X185417449Y-54998083D01*
X185387041Y-55013079D01*
X185356250Y-55026963D01*
X185325077Y-55039735D01*
X185293521Y-55051394D01*
X185261584Y-55061941D01*
X185229265Y-55071377D01*
X185196566Y-55079701D01*
X185163486Y-55086915D01*
X185130027Y-55093018D01*
X185096188Y-55098010D01*
X185061970Y-55101893D01*
X185027374Y-55104666D01*
X184992400Y-55106329D01*
X184957049Y-55106884D01*
X184901039Y-55105799D01*
X184846396Y-55102542D01*
X184793120Y-55097114D01*
X184741213Y-55089514D01*
X184690675Y-55079741D01*
X184641505Y-55067794D01*
X184593705Y-55053673D01*
X184547275Y-55037378D01*
X184502216Y-55018907D01*
X184458527Y-54998260D01*
X184416210Y-54975436D01*
X184375265Y-54950436D01*
X184335692Y-54923257D01*
X184297492Y-54893900D01*
X184260665Y-54862364D01*
X184225211Y-54828648D01*
X184191532Y-54793031D01*
X184160025Y-54755712D01*
X184130691Y-54716693D01*
X184103530Y-54675972D01*
X184078541Y-54633550D01*
X184055726Y-54589427D01*
X184035083Y-54543604D01*
X184016614Y-54496080D01*
X184000317Y-54446856D01*
X183986193Y-54395931D01*
X183974243Y-54343307D01*
X183964465Y-54288982D01*
X183956859Y-54232958D01*
X183951427Y-54175235D01*
X183948168Y-54115811D01*
X183947081Y-54054689D01*
X183948180Y-53994986D01*
X183951477Y-53936846D01*
X183956970Y-53880268D01*
X183964661Y-53825250D01*
X183974549Y-53771794D01*
X183986634Y-53719898D01*
X184000916Y-53669562D01*
X184017394Y-53620785D01*
X184036069Y-53573568D01*
X184056940Y-53527909D01*
X184080008Y-53483808D01*
X184105271Y-53441264D01*
X184132730Y-53400278D01*
X184162385Y-53360848D01*
X184194235Y-53322974D01*
X184228281Y-53286656D01*
X184264003Y-53252245D01*
X184300884Y-53220051D01*
X184338924Y-53190076D01*
X184378122Y-53162319D01*
X184418480Y-53136780D01*
X184459997Y-53113461D01*
X184502673Y-53092362D01*
X184546508Y-53073482D01*
X184591503Y-53056822D01*
X184637658Y-53042382D01*
X184684973Y-53030163D01*
X184733448Y-53020165D01*
X184783083Y-53012388D01*
X184833878Y-53006833D01*
X184885834Y-53003499D01*
X184938951Y-53002388D01*
X185016196Y-53004264D01*
G37*
G36*
X186975555Y-53004264D02*
G01*
X187049930Y-53009973D01*
X187121473Y-53019513D01*
X187190183Y-53032884D01*
X187256060Y-53050087D01*
X187319103Y-53071120D01*
X187379312Y-53095984D01*
X187436684Y-53124678D01*
X187491220Y-53157202D01*
X187542919Y-53193556D01*
X187591780Y-53233738D01*
X187637802Y-53277750D01*
X187680985Y-53325590D01*
X187721327Y-53377258D01*
X187758828Y-53432755D01*
X187793488Y-53492079D01*
X187793487Y-53492079D01*
X187345918Y-53727982D01*
X187336718Y-53709461D01*
X187327256Y-53691644D01*
X187317531Y-53674529D01*
X187307545Y-53658118D01*
X187297298Y-53642412D01*
X187286791Y-53627411D01*
X187276023Y-53613116D01*
X187264995Y-53599526D01*
X187253709Y-53586644D01*
X187242163Y-53574470D01*
X187230360Y-53563003D01*
X187218298Y-53552245D01*
X187205979Y-53542197D01*
X187193403Y-53532859D01*
X187180571Y-53524231D01*
X187167483Y-53516315D01*
X187154264Y-53509009D01*
X187141116Y-53502172D01*
X187128042Y-53495804D01*
X187115041Y-53489906D01*
X187102114Y-53484478D01*
X187089261Y-53479521D01*
X187076483Y-53475034D01*
X187063780Y-53471018D01*
X187051152Y-53467474D01*
X187038601Y-53464401D01*
X187026126Y-53461800D01*
X187013729Y-53459671D01*
X187001409Y-53458015D01*
X186989167Y-53456831D01*
X186977003Y-53456121D01*
X186964918Y-53455884D01*
X186937014Y-53456469D01*
X186909994Y-53458222D01*
X186883860Y-53461145D01*
X186858611Y-53465236D01*
X186834247Y-53470497D01*
X186810768Y-53476926D01*
X186788174Y-53484525D01*
X186766466Y-53493293D01*
X186745643Y-53503230D01*
X186725705Y-53514337D01*
X186706653Y-53526612D01*
X186688487Y-53540058D01*
X186671206Y-53554672D01*
X186654811Y-53570456D01*
X186639301Y-53587410D01*
X186624677Y-53605532D01*
X186610939Y-53624825D01*
X186598087Y-53645287D01*
X186586121Y-53666919D01*
X186575041Y-53689720D01*
X186564847Y-53713691D01*
X186555539Y-53738832D01*
X186547118Y-53765142D01*
X186539582Y-53792623D01*
X186532933Y-53821273D01*
X186527170Y-53851093D01*
X186522294Y-53882083D01*
X186518304Y-53914243D01*
X186515201Y-53947573D01*
X186512984Y-53982073D01*
X186511654Y-54017743D01*
X186511211Y-54054583D01*
X186511661Y-54088169D01*
X186513011Y-54120902D01*
X186515260Y-54152782D01*
X186518409Y-54183811D01*
X186522456Y-54213988D01*
X186527401Y-54243314D01*
X186533244Y-54271790D01*
X186539984Y-54299415D01*
X186547621Y-54326192D01*
X186556154Y-54352118D01*
X186565582Y-54377197D01*
X186575906Y-54401427D01*
X186587125Y-54424810D01*
X186599238Y-54447345D01*
X186612245Y-54469033D01*
X186626145Y-54489876D01*
X186640918Y-54509657D01*
X186656542Y-54528164D01*
X186673017Y-54545395D01*
X186681575Y-54553533D01*
X186690345Y-54561351D01*
X186699329Y-54568851D01*
X186708525Y-54576032D01*
X186717935Y-54582893D01*
X186727559Y-54589436D01*
X186737396Y-54595660D01*
X186747446Y-54601565D01*
X186757710Y-54607151D01*
X186768187Y-54612418D01*
X186789783Y-54621994D01*
X186812233Y-54630294D01*
X186835540Y-54637318D01*
X186859702Y-54643065D01*
X186884720Y-54647535D01*
X186910595Y-54650728D01*
X186937328Y-54652644D01*
X186964918Y-54653282D01*
X187001244Y-54652148D01*
X187036206Y-54648744D01*
X187069802Y-54643070D01*
X187102032Y-54635129D01*
X187132895Y-54624918D01*
X187162391Y-54612440D01*
X187190519Y-54597694D01*
X187217278Y-54580681D01*
X187242668Y-54561400D01*
X187266688Y-54539853D01*
X187289338Y-54516039D01*
X187310616Y-54489958D01*
X187330523Y-54461612D01*
X187349058Y-54431001D01*
X187366219Y-54398124D01*
X187382008Y-54362982D01*
X187805341Y-54574648D01*
X187787597Y-54605248D01*
X187769092Y-54635018D01*
X187749828Y-54663958D01*
X187729804Y-54692067D01*
X187709022Y-54719347D01*
X187687482Y-54745797D01*
X187665185Y-54771418D01*
X187642132Y-54796210D01*
X187618324Y-54820174D01*
X187593762Y-54843310D01*
X187568446Y-54865618D01*
X187542376Y-54887098D01*
X187515555Y-54907751D01*
X187487982Y-54927577D01*
X187459658Y-54946577D01*
X187430585Y-54964750D01*
X187400932Y-54981973D01*
X187370950Y-54998083D01*
X187340637Y-55013079D01*
X187309994Y-55026963D01*
X187279022Y-55039735D01*
X187247720Y-55051394D01*
X187216088Y-55061941D01*
X187184126Y-55071377D01*
X187151834Y-55079701D01*
X187119212Y-55086915D01*
X187086260Y-55093018D01*
X187052978Y-55098010D01*
X187019367Y-55101893D01*
X186985425Y-55104666D01*
X186951154Y-55106329D01*
X186916553Y-55106884D01*
X186859808Y-55105799D01*
X186804509Y-55102542D01*
X186750656Y-55097114D01*
X186698248Y-55089514D01*
X186647285Y-55079741D01*
X186597767Y-55067794D01*
X186549692Y-55053673D01*
X186503062Y-55037378D01*
X186457875Y-55018907D01*
X186414132Y-54998260D01*
X186371831Y-54975436D01*
X186330974Y-54950436D01*
X186291558Y-54923257D01*
X186253585Y-54893900D01*
X186217054Y-54862364D01*
X186181964Y-54828648D01*
X186148594Y-54793031D01*
X186117381Y-54755712D01*
X186088326Y-54716693D01*
X186061426Y-54675972D01*
X186036682Y-54633550D01*
X186014093Y-54589427D01*
X185993658Y-54543604D01*
X185975377Y-54496080D01*
X185959249Y-54446856D01*
X185945273Y-54395931D01*
X185933449Y-54343307D01*
X185923777Y-54288982D01*
X185916254Y-54232958D01*
X185910882Y-54175235D01*
X185907659Y-54115811D01*
X185906585Y-54054689D01*
X185907683Y-53994986D01*
X185910976Y-53936846D01*
X185916466Y-53880268D01*
X185924152Y-53825250D01*
X185934035Y-53771794D01*
X185946116Y-53719898D01*
X185960395Y-53669562D01*
X185976872Y-53620785D01*
X185995548Y-53573568D01*
X186016423Y-53527909D01*
X186039499Y-53483808D01*
X186064775Y-53441264D01*
X186092251Y-53400278D01*
X186121929Y-53360848D01*
X186153808Y-53322974D01*
X186187890Y-53286656D01*
X186223594Y-53252245D01*
X186260459Y-53220051D01*
X186298484Y-53190076D01*
X186337669Y-53162319D01*
X186378015Y-53136780D01*
X186419521Y-53113461D01*
X186462187Y-53092362D01*
X186506012Y-53073482D01*
X186550997Y-53056822D01*
X186597142Y-53042382D01*
X186644446Y-53030163D01*
X186692909Y-53020165D01*
X186742531Y-53012388D01*
X186793312Y-53006833D01*
X186845251Y-53003499D01*
X186898350Y-53002388D01*
X186975555Y-53004264D01*
G37*
D15*
%TO.C,R6*%
X91040000Y-93122936D02*
X91040000Y-94577064D01*
X92860000Y-93122936D02*
X92860000Y-94577064D01*
%TO.C,C6*%
X86099000Y-87934000D02*
X86099000Y-87366000D01*
X86139000Y-88168000D02*
X86139000Y-87132000D01*
X86179000Y-88327000D02*
X86179000Y-86973000D01*
X86219000Y-88455000D02*
X86219000Y-86845000D01*
X86259000Y-88565000D02*
X86259000Y-86735000D01*
X86299000Y-88661000D02*
X86299000Y-86639000D01*
X86339000Y-88748000D02*
X86339000Y-86552000D01*
X86379000Y-88828000D02*
X86379000Y-86472000D01*
X86419000Y-86610000D02*
X86419000Y-86399000D01*
X86419000Y-88901000D02*
X86419000Y-88690000D01*
X86459000Y-86610000D02*
X86459000Y-86331000D01*
X86459000Y-88969000D02*
X86459000Y-88690000D01*
X86499000Y-86610000D02*
X86499000Y-86267000D01*
X86499000Y-89033000D02*
X86499000Y-88690000D01*
X86539000Y-86610000D02*
X86539000Y-86207000D01*
X86539000Y-89093000D02*
X86539000Y-88690000D01*
X86579000Y-86610000D02*
X86579000Y-86150000D01*
X86579000Y-89150000D02*
X86579000Y-88690000D01*
X86619000Y-86610000D02*
X86619000Y-86096000D01*
X86619000Y-89204000D02*
X86619000Y-88690000D01*
X86659000Y-86610000D02*
X86659000Y-86045000D01*
X86659000Y-89255000D02*
X86659000Y-88690000D01*
X86699000Y-86610000D02*
X86699000Y-85997000D01*
X86699000Y-89303000D02*
X86699000Y-88690000D01*
X86739000Y-86610000D02*
X86739000Y-85951000D01*
X86739000Y-89349000D02*
X86739000Y-88690000D01*
X86779000Y-86610000D02*
X86779000Y-85907000D01*
X86779000Y-89393000D02*
X86779000Y-88690000D01*
X86819000Y-86610000D02*
X86819000Y-85865000D01*
X86819000Y-89435000D02*
X86819000Y-88690000D01*
X86859000Y-86610000D02*
X86859000Y-85824000D01*
X86859000Y-89476000D02*
X86859000Y-88690000D01*
X86899000Y-86610000D02*
X86899000Y-85786000D01*
X86899000Y-89514000D02*
X86899000Y-88690000D01*
X86939000Y-86610000D02*
X86939000Y-85749000D01*
X86939000Y-89551000D02*
X86939000Y-88690000D01*
X86979000Y-86610000D02*
X86979000Y-85713000D01*
X86979000Y-89587000D02*
X86979000Y-88690000D01*
X87019000Y-86610000D02*
X87019000Y-85679000D01*
X87019000Y-89621000D02*
X87019000Y-88690000D01*
X87059000Y-86610000D02*
X87059000Y-85646000D01*
X87059000Y-89654000D02*
X87059000Y-88690000D01*
X87099000Y-86610000D02*
X87099000Y-85615000D01*
X87099000Y-89685000D02*
X87099000Y-88690000D01*
X87139000Y-86610000D02*
X87139000Y-85585000D01*
X87139000Y-89715000D02*
X87139000Y-88690000D01*
X87179000Y-86610000D02*
X87179000Y-85555000D01*
X87179000Y-89745000D02*
X87179000Y-88690000D01*
X87219000Y-86610000D02*
X87219000Y-85528000D01*
X87219000Y-89772000D02*
X87219000Y-88690000D01*
X87259000Y-86610000D02*
X87259000Y-85501000D01*
X87259000Y-89799000D02*
X87259000Y-88690000D01*
X87299000Y-86610000D02*
X87299000Y-85475000D01*
X87299000Y-89825000D02*
X87299000Y-88690000D01*
X87339000Y-86610000D02*
X87339000Y-85450000D01*
X87339000Y-89850000D02*
X87339000Y-88690000D01*
X87379000Y-86610000D02*
X87379000Y-85426000D01*
X87379000Y-89874000D02*
X87379000Y-88690000D01*
X87419000Y-86610000D02*
X87419000Y-85403000D01*
X87419000Y-89897000D02*
X87419000Y-88690000D01*
X87459000Y-86610000D02*
X87459000Y-85382000D01*
X87459000Y-89918000D02*
X87459000Y-88690000D01*
X87499000Y-86610000D02*
X87499000Y-85360000D01*
X87499000Y-89940000D02*
X87499000Y-88690000D01*
X87539000Y-86610000D02*
X87539000Y-85340000D01*
X87539000Y-89960000D02*
X87539000Y-88690000D01*
X87579000Y-86610000D02*
X87579000Y-85321000D01*
X87579000Y-89979000D02*
X87579000Y-88690000D01*
X87619000Y-86610000D02*
X87619000Y-85302000D01*
X87619000Y-89998000D02*
X87619000Y-88690000D01*
X87659000Y-86610000D02*
X87659000Y-85285000D01*
X87659000Y-90015000D02*
X87659000Y-88690000D01*
X87699000Y-86610000D02*
X87699000Y-85268000D01*
X87699000Y-90032000D02*
X87699000Y-88690000D01*
X87739000Y-86610000D02*
X87739000Y-85252000D01*
X87739000Y-90048000D02*
X87739000Y-88690000D01*
X87779000Y-86610000D02*
X87779000Y-85236000D01*
X87779000Y-90064000D02*
X87779000Y-88690000D01*
X87819000Y-86610000D02*
X87819000Y-85222000D01*
X87819000Y-90078000D02*
X87819000Y-88690000D01*
X87859000Y-86610000D02*
X87859000Y-85208000D01*
X87859000Y-90092000D02*
X87859000Y-88690000D01*
X87899000Y-86610000D02*
X87899000Y-85195000D01*
X87899000Y-90105000D02*
X87899000Y-88690000D01*
X87939000Y-86610000D02*
X87939000Y-85182000D01*
X87939000Y-90118000D02*
X87939000Y-88690000D01*
X87979000Y-86610000D02*
X87979000Y-85170000D01*
X87979000Y-90130000D02*
X87979000Y-88690000D01*
X88020000Y-86610000D02*
X88020000Y-85159000D01*
X88020000Y-90141000D02*
X88020000Y-88690000D01*
X88060000Y-86610000D02*
X88060000Y-85149000D01*
X88060000Y-90151000D02*
X88060000Y-88690000D01*
X88100000Y-86610000D02*
X88100000Y-85139000D01*
X88100000Y-90161000D02*
X88100000Y-88690000D01*
X88140000Y-86610000D02*
X88140000Y-85130000D01*
X88140000Y-90170000D02*
X88140000Y-88690000D01*
X88180000Y-86610000D02*
X88180000Y-85122000D01*
X88180000Y-90178000D02*
X88180000Y-88690000D01*
X88220000Y-86610000D02*
X88220000Y-85114000D01*
X88220000Y-90186000D02*
X88220000Y-88690000D01*
X88260000Y-86610000D02*
X88260000Y-85107000D01*
X88260000Y-90193000D02*
X88260000Y-88690000D01*
X88300000Y-86610000D02*
X88300000Y-85100000D01*
X88300000Y-90200000D02*
X88300000Y-88690000D01*
X88340000Y-86610000D02*
X88340000Y-85094000D01*
X88340000Y-90206000D02*
X88340000Y-88690000D01*
X88380000Y-86610000D02*
X88380000Y-85089000D01*
X88380000Y-90211000D02*
X88380000Y-88690000D01*
X88420000Y-86610000D02*
X88420000Y-85085000D01*
X88420000Y-90215000D02*
X88420000Y-88690000D01*
X88460000Y-86610000D02*
X88460000Y-85081000D01*
X88460000Y-90219000D02*
X88460000Y-88690000D01*
X88500000Y-90223000D02*
X88500000Y-85077000D01*
X88540000Y-90226000D02*
X88540000Y-85074000D01*
X88580000Y-90228000D02*
X88580000Y-85072000D01*
X88620000Y-90229000D02*
X88620000Y-85071000D01*
X88660000Y-90230000D02*
X88660000Y-85070000D01*
X88700000Y-90230000D02*
X88700000Y-85070000D01*
X91254775Y-89375000D02*
X91254775Y-88875000D01*
X91504775Y-89125000D02*
X91004775Y-89125000D01*
X91320000Y-87650000D02*
G75*
G02*
X86080000Y-87650000I-2620000J0D01*
G01*
X86080000Y-87650000D02*
G75*
G02*
X91320000Y-87650000I2620000J0D01*
G01*
D11*
%TO.C,U3*%
X136235000Y-74735000D02*
X136235000Y-75235000D01*
X136235000Y-83915000D02*
X136235000Y-82265000D01*
X137385000Y-73585000D02*
X136235000Y-74735000D01*
X137885000Y-73585000D02*
X137385000Y-73585000D01*
X137885000Y-83915000D02*
X136235000Y-83915000D01*
X144915000Y-73585000D02*
X146565000Y-73585000D01*
X144915000Y-83915000D02*
X146565000Y-83915000D01*
X146565000Y-73585000D02*
X146565000Y-75235000D01*
X146565000Y-83915000D02*
X146565000Y-82265000D01*
D15*
%TO.C,D1*%
X187614000Y-92990000D02*
X187770000Y-92990000D01*
X189930000Y-92990000D02*
X190086000Y-92990000D01*
X187614484Y-92990000D02*
G75*
G02*
X187771392Y-89757665I1235516J1560000D01*
G01*
X187770000Y-92470961D02*
G75*
G02*
X187770163Y-90388870I1080000J1040961D01*
G01*
X189928608Y-89757665D02*
G75*
G02*
X190085516Y-92990000I-1078608J-1672335D01*
G01*
X189929837Y-90388870D02*
G75*
G02*
X189930000Y-92470961I-1079837J-1041130D01*
G01*
D11*
%TO.C,U1*%
X173035000Y-74635000D02*
X173035000Y-75135000D01*
X173035000Y-83815000D02*
X173035000Y-82165000D01*
X174185000Y-73485000D02*
X173035000Y-74635000D01*
X174685000Y-73485000D02*
X174185000Y-73485000D01*
X174685000Y-83815000D02*
X173035000Y-83815000D01*
X181715000Y-73485000D02*
X183365000Y-73485000D01*
X181715000Y-83815000D02*
X183365000Y-83815000D01*
X183365000Y-73485000D02*
X183365000Y-75135000D01*
X183365000Y-83815000D02*
X183365000Y-82165000D01*
%TO.C,U5*%
X98835000Y-74685000D02*
X98835000Y-75185000D01*
X98835000Y-83865000D02*
X98835000Y-82215000D01*
X99985000Y-73535000D02*
X98835000Y-74685000D01*
X100485000Y-73535000D02*
X99985000Y-73535000D01*
X100485000Y-83865000D02*
X98835000Y-83865000D01*
X107515000Y-73535000D02*
X109165000Y-73535000D01*
X107515000Y-83865000D02*
X109165000Y-83865000D01*
X109165000Y-73535000D02*
X109165000Y-75185000D01*
X109165000Y-83865000D02*
X109165000Y-82215000D01*
D15*
%TO.C,C3*%
X182290000Y-106988748D02*
X182290000Y-108411252D01*
X184110000Y-106988748D02*
X184110000Y-108411252D01*
%TO.C,U6*%
X110740000Y-53290000D02*
X111580000Y-53290000D01*
X110740000Y-56050000D02*
X110740000Y-53290000D01*
X110740000Y-56050000D02*
X110740000Y-58810000D01*
X110740000Y-58810000D02*
X111580000Y-58810000D01*
X121160000Y-53290000D02*
X120320000Y-53290000D01*
X121160000Y-56050000D02*
X121160000Y-53290000D01*
X121160000Y-56050000D02*
X121160000Y-58810000D01*
X121160000Y-58810000D02*
X120320000Y-58810000D01*
X120650000Y-52740000D02*
X120320000Y-52500000D01*
X120650000Y-52260000D01*
X120650000Y-52740000D01*
G36*
X120650000Y-52740000D02*
G01*
X120320000Y-52500000D01*
X120650000Y-52260000D01*
X120650000Y-52740000D01*
G37*
%TO.C,U11*%
X94000000Y-103990000D02*
X92050000Y-103990000D01*
X94000000Y-103990000D02*
X95950000Y-103990000D01*
X94000000Y-109110000D02*
X92050000Y-109110000D01*
X94000000Y-109110000D02*
X95950000Y-109110000D01*
X91300000Y-104085000D02*
X91060000Y-103755000D01*
X91540000Y-103755000D01*
X91300000Y-104085000D01*
G36*
X91300000Y-104085000D02*
G01*
X91060000Y-103755000D01*
X91540000Y-103755000D01*
X91300000Y-104085000D01*
G37*
%TO.C,R7*%
X87190000Y-93122936D02*
X87190000Y-94577064D01*
X89010000Y-93122936D02*
X89010000Y-94577064D01*
%TO.C,D3*%
X98565000Y-92250000D02*
X98565000Y-96310000D01*
X98565000Y-96310000D02*
X100835000Y-96310000D01*
X100835000Y-96310000D02*
X100835000Y-92250000D01*
%TO.C,R4*%
X182290000Y-99922936D02*
X182290000Y-101377064D01*
X184110000Y-99922936D02*
X184110000Y-101377064D01*
%TO.C,R2*%
X149240000Y-52522936D02*
X149240000Y-53977064D01*
X151060000Y-52522936D02*
X151060000Y-53977064D01*
%TO.C,U7*%
X167175000Y-105627218D02*
X167175000Y-105910000D01*
X167175000Y-118645000D02*
X167175000Y-117190000D01*
X168347218Y-104455000D02*
X167175000Y-105627218D01*
X168630000Y-104455000D02*
X168347218Y-104455000D01*
X168630000Y-118645000D02*
X167175000Y-118645000D01*
X177370000Y-104455000D02*
X178825000Y-104455000D01*
X177370000Y-118645000D02*
X178825000Y-118645000D01*
X178825000Y-104455000D02*
X178825000Y-105910000D01*
X178825000Y-118645000D02*
X178825000Y-117190000D01*
D11*
%TO.C,U2*%
X154585000Y-74735000D02*
X154585000Y-75235000D01*
X154585000Y-83915000D02*
X154585000Y-82265000D01*
X155735000Y-73585000D02*
X154585000Y-74735000D01*
X156235000Y-73585000D02*
X155735000Y-73585000D01*
X156235000Y-83915000D02*
X154585000Y-83915000D01*
X163265000Y-73585000D02*
X164915000Y-73585000D01*
X163265000Y-83915000D02*
X164915000Y-83915000D01*
X164915000Y-73585000D02*
X164915000Y-75235000D01*
X164915000Y-83915000D02*
X164915000Y-82265000D01*
D15*
%TO.C,C5*%
X89861252Y-47690000D02*
X88438748Y-47690000D01*
X89861252Y-49510000D02*
X88438748Y-49510000D01*
D16*
%TO.C,U10*%
X109455000Y-104027400D02*
X109455000Y-104583660D01*
X109455000Y-122216340D02*
X109455000Y-122772600D01*
X109455000Y-122772600D02*
X118345000Y-122772600D01*
X118345000Y-104027400D02*
X109455000Y-104027400D01*
X118345000Y-104583660D02*
X118345000Y-104027400D01*
X118345000Y-122772600D02*
X118345000Y-122216340D01*
D15*
X108298000Y-104078000D02*
X108058000Y-103748000D01*
X108538000Y-103748000D01*
X108298000Y-104078000D01*
G36*
X108298000Y-104078000D02*
G01*
X108058000Y-103748000D01*
X108538000Y-103748000D01*
X108298000Y-104078000D01*
G37*
%TO.C,R5*%
X94840000Y-93122936D02*
X94840000Y-94577064D01*
X96660000Y-93122936D02*
X96660000Y-94577064D01*
%TD*%
M02*
