%TF.GenerationSoftware,KiCad,Pcbnew,8.0.3*%
%TF.CreationDate,2024-07-12T17:40:13+02:00*%
%TF.ProjectId,ARIII,41524949-492e-46b6-9963-61645f706362,rev?*%
%TF.SameCoordinates,Original*%
%TF.FileFunction,Paste,Top*%
%TF.FilePolarity,Positive*%
%FSLAX46Y46*%
G04 Gerber Fmt 4.6, Leading zero omitted, Abs format (unit mm)*
G04 Created by KiCad (PCBNEW 8.0.3) date 2024-07-12 17:40:13*
%MOMM*%
%LPD*%
G01*
G04 APERTURE LIST*
G04 Aperture macros list*
%AMRoundRect*
0 Rectangle with rounded corners*
0 $1 Rounding radius*
0 $2 $3 $4 $5 $6 $7 $8 $9 X,Y pos of 4 corners*
0 Add a 4 corners polygon primitive as box body*
4,1,4,$2,$3,$4,$5,$6,$7,$8,$9,$2,$3,0*
0 Add four circle primitives for the rounded corners*
1,1,$1+$1,$2,$3*
1,1,$1+$1,$4,$5*
1,1,$1+$1,$6,$7*
1,1,$1+$1,$8,$9*
0 Add four rect primitives between the rounded corners*
20,1,$1+$1,$2,$3,$4,$5,0*
20,1,$1+$1,$4,$5,$6,$7,0*
20,1,$1+$1,$6,$7,$8,$9,0*
20,1,$1+$1,$8,$9,$2,$3,0*%
G04 Aperture macros list end*
%ADD10RoundRect,0.150000X-0.150000X-0.587500X0.150000X-0.587500X0.150000X0.587500X-0.150000X0.587500X0*%
%ADD11RoundRect,0.150000X-0.587500X-0.150000X0.587500X-0.150000X0.587500X0.150000X-0.587500X0.150000X0*%
%ADD12R,0.700000X1.925000*%
%ADD13R,1.925000X0.700000*%
%ADD14RoundRect,0.250000X-0.625000X0.400000X-0.625000X-0.400000X0.625000X-0.400000X0.625000X0.400000X0*%
%ADD15RoundRect,0.250000X-0.650000X0.412500X-0.650000X-0.412500X0.650000X-0.412500X0.650000X0.412500X0*%
%ADD16RoundRect,0.150000X-0.750000X-0.150000X0.750000X-0.150000X0.750000X0.150000X-0.750000X0.150000X0*%
%ADD17RoundRect,0.250000X0.412500X0.650000X-0.412500X0.650000X-0.412500X-0.650000X0.412500X-0.650000X0*%
%ADD18RoundRect,0.150000X-0.150000X0.825000X-0.150000X-0.825000X0.150000X-0.825000X0.150000X0.825000X0*%
%ADD19RoundRect,0.150000X-0.825000X-0.150000X0.825000X-0.150000X0.825000X0.150000X-0.825000X0.150000X0*%
%ADD20RoundRect,0.250001X0.624999X-0.462499X0.624999X0.462499X-0.624999X0.462499X-0.624999X-0.462499X0*%
G04 APERTURE END LIST*
D10*
%TO.C,U9*%
X134100000Y-105762500D03*
X132830000Y-105762500D03*
X131560000Y-105762500D03*
X130290000Y-105762500D03*
D11*
X128537500Y-107520000D03*
X128537500Y-108790000D03*
X128537500Y-110060000D03*
X128537500Y-111330000D03*
X128537500Y-112600000D03*
X128537500Y-113870000D03*
X128537500Y-115140000D03*
X128537500Y-116410000D03*
X128537500Y-117680000D03*
D10*
X130290000Y-119437500D03*
X131560000Y-119437500D03*
X132830000Y-119437500D03*
X134100000Y-119437500D03*
X135370000Y-119437500D03*
X136640000Y-119437500D03*
X137910000Y-119437500D03*
D11*
X139662500Y-117680000D03*
X139662500Y-116410000D03*
X139662500Y-115140000D03*
X139662500Y-113870000D03*
X139662500Y-112600000D03*
X139662500Y-111330000D03*
X139662500Y-110060000D03*
X139662500Y-108790000D03*
X139662500Y-107520000D03*
D10*
X137910000Y-105762500D03*
X136640000Y-105762500D03*
X135370000Y-105762500D03*
%TD*%
D12*
%TO.C,U4*%
X122730000Y-75200000D03*
X121460000Y-75200000D03*
X120190000Y-75200000D03*
D13*
X118677500Y-76712500D03*
X118677500Y-77982500D03*
X118677500Y-79252500D03*
X118677500Y-80522500D03*
X118677500Y-81792500D03*
D12*
X120190000Y-83305000D03*
X121460000Y-83305000D03*
X122730000Y-83305000D03*
X124000000Y-83305000D03*
X125270000Y-83305000D03*
D13*
X126782500Y-81792500D03*
X126782500Y-80522500D03*
X126782500Y-79252500D03*
X126782500Y-77982500D03*
X126782500Y-76712500D03*
D12*
X125270000Y-75200000D03*
X124000000Y-75200000D03*
%TD*%
D14*
%TO.C,R3*%
X184300000Y-90450000D03*
X184300000Y-93550000D03*
%TD*%
D15*
%TO.C,C2*%
X101800000Y-112637500D03*
X101800000Y-115762500D03*
%TD*%
D16*
%TO.C,U8*%
X149400000Y-106290000D03*
X149400000Y-107560000D03*
X149400000Y-108830000D03*
X149400000Y-110100000D03*
X149400000Y-111370000D03*
X149400000Y-112640000D03*
X149400000Y-113910000D03*
X149400000Y-115180000D03*
X149400000Y-116450000D03*
X149400000Y-117720000D03*
X149400000Y-118990000D03*
X149400000Y-120260000D03*
X149400000Y-121530000D03*
X149400000Y-122800000D03*
X159000000Y-122800000D03*
X159000000Y-121530000D03*
X159000000Y-120260000D03*
X159000000Y-118990000D03*
X159000000Y-117720000D03*
X159000000Y-116450000D03*
X159000000Y-115180000D03*
X159000000Y-113910000D03*
X159000000Y-112640000D03*
X159000000Y-111370000D03*
X159000000Y-110100000D03*
X159000000Y-108830000D03*
X159000000Y-107560000D03*
X159000000Y-106290000D03*
%TD*%
D14*
%TO.C,R1*%
X154600000Y-51700000D03*
X154600000Y-54800000D03*
%TD*%
D17*
%TO.C,C4*%
X159062500Y-71200000D03*
X155937500Y-71200000D03*
%TD*%
D14*
%TO.C,R6*%
X91400000Y-92750000D03*
X91400000Y-95850000D03*
%TD*%
D12*
%TO.C,U3*%
X142000000Y-75347500D03*
X140730000Y-75347500D03*
X139460000Y-75347500D03*
D13*
X137947500Y-76860000D03*
X137947500Y-78130000D03*
X137947500Y-79400000D03*
X137947500Y-80670000D03*
X137947500Y-81940000D03*
D12*
X139460000Y-83452500D03*
X140730000Y-83452500D03*
X142000000Y-83452500D03*
X143270000Y-83452500D03*
X144540000Y-83452500D03*
D13*
X146052500Y-81940000D03*
X146052500Y-80670000D03*
X146052500Y-79400000D03*
X146052500Y-78130000D03*
X146052500Y-76860000D03*
D12*
X144540000Y-75347500D03*
X143270000Y-75347500D03*
%TD*%
%TO.C,U1*%
X179200000Y-75347500D03*
X177930000Y-75347500D03*
X176660000Y-75347500D03*
D13*
X175147500Y-76860000D03*
X175147500Y-78130000D03*
X175147500Y-79400000D03*
X175147500Y-80670000D03*
X175147500Y-81940000D03*
D12*
X176660000Y-83452500D03*
X177930000Y-83452500D03*
X179200000Y-83452500D03*
X180470000Y-83452500D03*
X181740000Y-83452500D03*
D13*
X183252500Y-81940000D03*
X183252500Y-80670000D03*
X183252500Y-79400000D03*
X183252500Y-78130000D03*
X183252500Y-76860000D03*
D12*
X181740000Y-75347500D03*
X180470000Y-75347500D03*
%TD*%
%TO.C,U5*%
X103730000Y-75000000D03*
X102460000Y-75000000D03*
X101190000Y-75000000D03*
D13*
X99677500Y-76512500D03*
X99677500Y-77782500D03*
X99677500Y-79052500D03*
X99677500Y-80322500D03*
X99677500Y-81592500D03*
D12*
X101190000Y-83105000D03*
X102460000Y-83105000D03*
X103730000Y-83105000D03*
X105000000Y-83105000D03*
X106270000Y-83105000D03*
D13*
X107782500Y-81592500D03*
X107782500Y-80322500D03*
X107782500Y-79052500D03*
X107782500Y-77782500D03*
X107782500Y-76512500D03*
D12*
X106270000Y-75000000D03*
X105000000Y-75000000D03*
%TD*%
D15*
%TO.C,C3*%
X184250000Y-107837500D03*
X184250000Y-110962500D03*
%TD*%
D18*
%TO.C,U6*%
X120000000Y-53387500D03*
X118730000Y-53387500D03*
X117460000Y-53387500D03*
X116190000Y-53387500D03*
X114920000Y-53387500D03*
X113650000Y-53387500D03*
X112380000Y-53387500D03*
X112380000Y-58337500D03*
X113650000Y-58337500D03*
X114920000Y-58337500D03*
X116190000Y-58337500D03*
X117460000Y-58337500D03*
X118730000Y-58337500D03*
X120000000Y-58337500D03*
%TD*%
D19*
%TO.C,U11*%
X90950000Y-105290000D03*
X90950000Y-106560000D03*
X90950000Y-107830000D03*
X90950000Y-109100000D03*
X95900000Y-109100000D03*
X95900000Y-107830000D03*
X95900000Y-106560000D03*
X95900000Y-105290000D03*
%TD*%
D14*
%TO.C,R7*%
X87500000Y-92650000D03*
X87500000Y-95750000D03*
%TD*%
D20*
%TO.C,D3*%
X99100000Y-95787500D03*
X99100000Y-92812500D03*
%TD*%
D14*
%TO.C,R4*%
X184200000Y-99950000D03*
X184200000Y-103050000D03*
%TD*%
%TO.C,R2*%
X150700000Y-51700000D03*
X150700000Y-54800000D03*
%TD*%
D10*
%TO.C,U7*%
X173860000Y-105900000D03*
X172590000Y-105900000D03*
X171320000Y-105900000D03*
X170050000Y-105900000D03*
D11*
X168297500Y-107657500D03*
X168297500Y-108927500D03*
X168297500Y-110197500D03*
X168297500Y-111467500D03*
X168297500Y-112737500D03*
X168297500Y-114007500D03*
X168297500Y-115277500D03*
X168297500Y-116547500D03*
X168297500Y-117817500D03*
D10*
X170050000Y-119575000D03*
X171320000Y-119575000D03*
X172590000Y-119575000D03*
X173860000Y-119575000D03*
X175130000Y-119575000D03*
X176400000Y-119575000D03*
X177670000Y-119575000D03*
D11*
X179422500Y-117817500D03*
X179422500Y-116547500D03*
X179422500Y-115277500D03*
X179422500Y-114007500D03*
X179422500Y-112737500D03*
X179422500Y-111467500D03*
X179422500Y-110197500D03*
X179422500Y-108927500D03*
X179422500Y-107657500D03*
D10*
X177670000Y-105900000D03*
X176400000Y-105900000D03*
X175130000Y-105900000D03*
%TD*%
D12*
%TO.C,U2*%
X160600000Y-75347500D03*
X159330000Y-75347500D03*
X158060000Y-75347500D03*
D13*
X156547500Y-76860000D03*
X156547500Y-78130000D03*
X156547500Y-79400000D03*
X156547500Y-80670000D03*
X156547500Y-81940000D03*
D12*
X158060000Y-83452500D03*
X159330000Y-83452500D03*
X160600000Y-83452500D03*
X161870000Y-83452500D03*
X163140000Y-83452500D03*
D13*
X164652500Y-81940000D03*
X164652500Y-80670000D03*
X164652500Y-79400000D03*
X164652500Y-78130000D03*
X164652500Y-76860000D03*
D12*
X163140000Y-75347500D03*
X161870000Y-75347500D03*
%TD*%
D17*
%TO.C,C5*%
X89662500Y-48200000D03*
X86537500Y-48200000D03*
%TD*%
D16*
%TO.C,U10*%
X109037500Y-106245000D03*
X109037500Y-107515000D03*
X109037500Y-108785000D03*
X109037500Y-110055000D03*
X109037500Y-111325000D03*
X109037500Y-112595000D03*
X109037500Y-113865000D03*
X109037500Y-115135000D03*
X109037500Y-116405000D03*
X109037500Y-117675000D03*
X109037500Y-118945000D03*
X109037500Y-120215000D03*
X109037500Y-121485000D03*
X109037500Y-122755000D03*
X118637500Y-122755000D03*
X118637500Y-121485000D03*
X118637500Y-120215000D03*
X118637500Y-118945000D03*
X118637500Y-117675000D03*
X118637500Y-116405000D03*
X118637500Y-115135000D03*
X118637500Y-113865000D03*
X118637500Y-112595000D03*
X118637500Y-111325000D03*
X118637500Y-110055000D03*
X118637500Y-108785000D03*
X118637500Y-107515000D03*
X118637500Y-106245000D03*
%TD*%
D14*
%TO.C,R5*%
X95200000Y-92750000D03*
X95200000Y-95850000D03*
%TD*%
M02*
