%TF.GenerationSoftware,KiCad,Pcbnew,8.0.3*%
%TF.CreationDate,2024-08-18T17:29:15+02:00*%
%TF.ProjectId,ARIII,41524949-492e-46b6-9963-61645f706362,rev?*%
%TF.SameCoordinates,Original*%
%TF.FileFunction,Copper,L2,Bot*%
%TF.FilePolarity,Positive*%
%FSLAX46Y46*%
G04 Gerber Fmt 4.6, Leading zero omitted, Abs format (unit mm)*
G04 Created by KiCad (PCBNEW 8.0.3) date 2024-08-18 17:29:15*
%MOMM*%
%LPD*%
G01*
G04 APERTURE LIST*
%TA.AperFunction,ComponentPad*%
%ADD10C,1.303000*%
%TD*%
%TA.AperFunction,ComponentPad*%
%ADD11R,1.500000X1.500000*%
%TD*%
%TA.AperFunction,ComponentPad*%
%ADD12C,1.600000*%
%TD*%
%TA.AperFunction,ComponentPad*%
%ADD13C,1.500000*%
%TD*%
%TA.AperFunction,ComponentPad*%
%ADD14R,1.600000X1.600000*%
%TD*%
%TA.AperFunction,ComponentPad*%
%ADD15R,1.800000X1.800000*%
%TD*%
%TA.AperFunction,ComponentPad*%
%ADD16C,1.800000*%
%TD*%
%TA.AperFunction,ComponentPad*%
%ADD17C,1.635000*%
%TD*%
%TA.AperFunction,ViaPad*%
%ADD18C,0.600000*%
%TD*%
%TA.AperFunction,Conductor*%
%ADD19C,0.200000*%
%TD*%
%TA.AperFunction,Conductor*%
%ADD20C,0.400000*%
%TD*%
G04 APERTURE END LIST*
D10*
%TO.P,VR1,1,CCW*%
%TO.N,+5V*%
X191090000Y-122080000D03*
%TO.P,VR1,2,WIPER*%
X188550000Y-117000000D03*
%TO.P,VR1,3,CW*%
%TO.N,Net-(U11-DIS)*%
X186010000Y-122080000D03*
%TD*%
D11*
%TO.P,SW2,1,B*%
%TO.N,Net-(D1-K)*%
X188500000Y-101690000D03*
D12*
%TO.P,SW2,2,C*%
%TO.N,GND*%
X188500000Y-104230000D03*
%TO.P,SW2,3,A*%
%TO.N,Net-(D1-K)*%
X188500000Y-99150000D03*
%TD*%
D11*
%TO.P,Q2,1,D*%
%TO.N,/A22*%
X88900000Y-69200000D03*
D13*
%TO.P,Q2,2,G*%
%TO.N,Net-(Q1-G)*%
X88900000Y-71740000D03*
%TO.P,Q2,3,S*%
%TO.N,+5V*%
X88900000Y-74280000D03*
%TD*%
D14*
%TO.P,C1,1*%
%TO.N,Net-(U11-DIS)*%
X94000000Y-126944888D03*
D12*
%TO.P,C1,2*%
%TO.N,GND*%
X94000000Y-129444888D03*
%TD*%
D15*
%TO.P,D2,1,K*%
%TO.N,GND*%
X94450000Y-99225000D03*
D16*
%TO.P,D2,2,A*%
%TO.N,Net-(D2-A)*%
X94450000Y-101765000D03*
%TD*%
D11*
%TO.P,Q1,1,D*%
%TO.N,/A22*%
X92600000Y-69200000D03*
D13*
%TO.P,Q1,2,G*%
%TO.N,Net-(Q1-G)*%
X92600000Y-71740000D03*
%TO.P,Q1,3,S*%
%TO.N,+5V*%
X92600000Y-74280000D03*
%TD*%
D15*
%TO.P,SW1,1,1*%
%TO.N,Net-(U3-I6)*%
X91677500Y-115377500D03*
D16*
%TO.P,SW1,2,2*%
%TO.N,GND*%
X96677500Y-115377500D03*
%TO.P,SW1,3,3*%
%TO.N,Net-(U3-I6)*%
X91677500Y-120377500D03*
%TO.P,SW1,4,4*%
%TO.N,GND*%
X96677500Y-120377500D03*
%TD*%
D17*
%TO.P,CN1,1,1*%
%TO.N,GND*%
X88060000Y-39120000D03*
%TO.P,CN1,2,2*%
X88060000Y-44200000D03*
%TO.P,CN1,3,3*%
X90600000Y-39120000D03*
%TO.P,CN1,4,4*%
X90600000Y-44200000D03*
%TO.P,CN1,5,5*%
%TO.N,+5V*%
X93140000Y-39120000D03*
%TO.P,CN1,6,6*%
%TO.N,unconnected-(CN1-Pad6)*%
X93140000Y-44200000D03*
%TO.P,CN1,7,7*%
%TO.N,unconnected-(CN1-Pad7)*%
X95680000Y-39120000D03*
%TO.P,CN1,8,8*%
%TO.N,unconnected-(CN1-Pad8)*%
X95680000Y-44200000D03*
%TO.P,CN1,9,9*%
%TO.N,unconnected-(CN1-Pad9)*%
X98220000Y-39120000D03*
%TO.P,CN1,10,10*%
%TO.N,unconnected-(CN1-Pad10)*%
X98220000Y-44200000D03*
%TO.P,CN1,11,11*%
%TO.N,unconnected-(CN1-Pad11)*%
X100760000Y-39120000D03*
%TO.P,CN1,12,12*%
%TO.N,unconnected-(CN1-Pad12)*%
X100760000Y-44200000D03*
%TO.P,CN1,13,13*%
%TO.N,unconnected-(CN1-Pad13)*%
X103300000Y-39120000D03*
%TO.P,CN1,14,14*%
%TO.N,unconnected-(CN1-Pad14)*%
X103300000Y-44200000D03*
%TO.P,CN1,15,15*%
%TO.N,unconnected-(CN1-Pad15)*%
X105840000Y-39120000D03*
%TO.P,CN1,16,16*%
%TO.N,unconnected-(CN1-Pad16)*%
X105840000Y-44200000D03*
%TO.P,CN1,17,17*%
%TO.N,unconnected-(CN1-Pad17)*%
X108380000Y-39120000D03*
%TO.P,CN1,18,18*%
%TO.N,unconnected-(CN1-Pad18)*%
X108380000Y-44200000D03*
%TO.P,CN1,19,19*%
%TO.N,unconnected-(CN1-Pad19)*%
X110920000Y-39120000D03*
%TO.P,CN1,20,20*%
%TO.N,unconnected-(CN1-Pad20)*%
X110920000Y-44200000D03*
%TO.P,CN1,21,21*%
%TO.N,unconnected-(CN1-Pad21)*%
X113460000Y-39120000D03*
%TO.P,CN1,22,22*%
%TO.N,/A5*%
X113460000Y-44200000D03*
%TO.P,CN1,23,23*%
%TO.N,/A4*%
X116000000Y-39120000D03*
%TO.P,CN1,24,24*%
%TO.N,/A6*%
X116000000Y-44200000D03*
%TO.P,CN1,25,25*%
%TO.N,/A3*%
X118540000Y-39120000D03*
%TO.P,CN1,26,26*%
%TO.N,unconnected-(CN1-Pad26)*%
X118540000Y-44200000D03*
%TO.P,CN1,27,27*%
%TO.N,/A7*%
X121080000Y-39120000D03*
%TO.P,CN1,28,28*%
%TO.N,/A2*%
X121080000Y-44200000D03*
%TO.P,CN1,29,29*%
%TO.N,/A8*%
X123620000Y-39120000D03*
%TO.P,CN1,30,30*%
%TO.N,/A1*%
X123620000Y-44200000D03*
%TO.P,CN1,31,31*%
%TO.N,/A9*%
X126160000Y-39120000D03*
%TO.P,CN1,32,32*%
%TO.N,/~{FC0}*%
X126160000Y-44200000D03*
%TO.P,CN1,33,33*%
%TO.N,/A10*%
X128700000Y-39120000D03*
%TO.P,CN1,34,34*%
%TO.N,/~{FC1}*%
X128700000Y-44200000D03*
%TO.P,CN1,35,35*%
%TO.N,/A11*%
X131240000Y-39120000D03*
%TO.P,CN1,36,36*%
%TO.N,unconnected-(CN1-Pad36)*%
X131240000Y-44200000D03*
%TO.P,CN1,37,37*%
%TO.N,/A12*%
X133780000Y-39120000D03*
%TO.P,CN1,38,38*%
%TO.N,unconnected-(CN1-Pad38)*%
X133780000Y-44200000D03*
%TO.P,CN1,39,39*%
%TO.N,/~{IPL0}*%
X136320000Y-39120000D03*
%TO.P,CN1,40,40*%
%TO.N,/A13*%
X136320000Y-44200000D03*
%TO.P,CN1,41,41*%
%TO.N,/~{IPL1}*%
X138860000Y-39120000D03*
%TO.P,CN1,42,42*%
%TO.N,/A14*%
X138860000Y-44200000D03*
%TO.P,CN1,43,43*%
%TO.N,/~{IPL2}*%
X141400000Y-39120000D03*
%TO.P,CN1,44,44*%
%TO.N,/A15*%
X141400000Y-44200000D03*
%TO.P,CN1,45,45*%
%TO.N,unconnected-(CN1-Pad45)*%
X143940000Y-39120000D03*
%TO.P,CN1,46,46*%
%TO.N,/A16*%
X143940000Y-44200000D03*
%TO.P,CN1,47,47*%
%TO.N,unconnected-(CN1-Pad47)*%
X146480000Y-39120000D03*
%TO.P,CN1,48,48*%
%TO.N,/A17*%
X146480000Y-44200000D03*
%TO.P,CN1,49,49*%
%TO.N,unconnected-(CN1-Pad49)*%
X149020000Y-39120000D03*
%TO.P,CN1,50,50*%
%TO.N,unconnected-(CN1-Pad50)*%
X149020000Y-44200000D03*
%TO.P,CN1,51,51*%
%TO.N,/A18*%
X151560000Y-39120000D03*
%TO.P,CN1,52,52*%
%TO.N,unconnected-(CN1-Pad52)*%
X151560000Y-44200000D03*
%TO.P,CN1,53,53*%
%TO.N,/A19*%
X154100000Y-39120000D03*
%TO.P,CN1,54,54*%
%TO.N,/~{RST}*%
X154100000Y-44200000D03*
%TO.P,CN1,55,55*%
%TO.N,/A20*%
X156640000Y-39120000D03*
%TO.P,CN1,56,56*%
%TO.N,/~{HLT}*%
X156640000Y-44200000D03*
%TO.P,CN1,57,57*%
%TO.N,/A21*%
X159180000Y-39120000D03*
%TO.P,CN1,58,58*%
%TO.N,/A22*%
X159180000Y-44200000D03*
%TO.P,CN1,59,59*%
%TO.N,unconnected-(CN1-Pad59)*%
X161720000Y-39120000D03*
%TO.P,CN1,60,60*%
%TO.N,/A23*%
X161720000Y-44200000D03*
%TO.P,CN1,61,61*%
%TO.N,unconnected-(CN1-Pad61)*%
X164260000Y-39120000D03*
%TO.P,CN1,62,62*%
%TO.N,unconnected-(CN1-Pad62)*%
X164260000Y-44200000D03*
%TO.P,CN1,63,63*%
%TO.N,unconnected-(CN1-Pad63)*%
X166800000Y-39120000D03*
%TO.P,CN1,64,64*%
%TO.N,/D15*%
X166800000Y-44200000D03*
%TO.P,CN1,65,65*%
%TO.N,unconnected-(CN1-Pad65)*%
X169340000Y-39120000D03*
%TO.P,CN1,66,66*%
%TO.N,/D14*%
X169340000Y-44200000D03*
%TO.P,CN1,67,67*%
%TO.N,/R_W*%
X171880000Y-39120000D03*
%TO.P,CN1,68,68*%
%TO.N,/D13*%
X171880000Y-44200000D03*
%TO.P,CN1,69,69*%
%TO.N,/~{LDS}*%
X174420000Y-39120000D03*
%TO.P,CN1,70,70*%
%TO.N,/D12*%
X174420000Y-44200000D03*
%TO.P,CN1,71,71*%
%TO.N,/~{UDS}*%
X176960000Y-39120000D03*
%TO.P,CN1,72,72*%
%TO.N,/D11*%
X176960000Y-44200000D03*
%TO.P,CN1,73,73*%
%TO.N,/~{AS}*%
X179500000Y-39120000D03*
%TO.P,CN1,74,74*%
%TO.N,GND*%
X179500000Y-44200000D03*
%TO.P,CN1,75,75*%
%TO.N,/D10*%
X182040000Y-39120000D03*
%TO.P,CN1,76,76*%
%TO.N,/D0*%
X182040000Y-44200000D03*
%TO.P,CN1,77,77*%
%TO.N,/D9*%
X184580000Y-39120000D03*
%TO.P,CN1,78,78*%
%TO.N,/D1*%
X184580000Y-44200000D03*
%TO.P,CN1,79,79*%
%TO.N,/D8*%
X187120000Y-39120000D03*
%TO.P,CN1,80,80*%
%TO.N,/D2*%
X187120000Y-44200000D03*
%TO.P,CN1,81,81*%
%TO.N,/D7*%
X189660000Y-39120000D03*
%TO.P,CN1,82,82*%
%TO.N,/D3*%
X189660000Y-44200000D03*
%TO.P,CN1,83,83*%
%TO.N,/D6*%
X192200000Y-39120000D03*
%TO.P,CN1,84,84*%
%TO.N,/D4*%
X192200000Y-44200000D03*
%TO.P,CN1,85,85*%
%TO.N,/D5*%
X194740000Y-39120000D03*
%TO.P,CN1,86,86*%
%TO.N,unconnected-(CN1-Pad86)*%
X194740000Y-44200000D03*
%TD*%
D14*
%TO.P,C6,1*%
%TO.N,Net-(D3-K)*%
X89950000Y-87650000D03*
D12*
%TO.P,C6,2*%
%TO.N,GND*%
X87450000Y-87650000D03*
%TD*%
D15*
%TO.P,D1,1,K*%
%TO.N,Net-(D1-K)*%
X188850000Y-92700000D03*
D16*
%TO.P,D1,2,A*%
%TO.N,Net-(D1-A)*%
X188850000Y-90160000D03*
%TD*%
D18*
%TO.N,Net-(U3-I6)*%
X133300000Y-80050000D03*
X90600000Y-98100000D03*
X133300000Y-92650000D03*
%TO.N,Net-(U10-~{CE})*%
X127200000Y-73300000D03*
X113250000Y-64400000D03*
X127150000Y-64400000D03*
X112700000Y-115600000D03*
%TO.N,Net-(U2-IO1)*%
X118850000Y-61250000D03*
X163850000Y-61250000D03*
X163850000Y-74700000D03*
X143800000Y-77100000D03*
X120100000Y-77650000D03*
X144900000Y-61250000D03*
%TO.N,/A5*%
X122450000Y-109850000D03*
X113600000Y-111500000D03*
X156100000Y-110850000D03*
X122450000Y-94100000D03*
X122450000Y-101750000D03*
X113600000Y-101750000D03*
X156000000Y-93400000D03*
X157700000Y-76800000D03*
%TO.N,/A8*%
X165350000Y-94150000D03*
X158650000Y-94150000D03*
X127850000Y-105050000D03*
X117050000Y-62500000D03*
X160650000Y-76500000D03*
X117050000Y-95100000D03*
X119850000Y-62500000D03*
X146800000Y-107700000D03*
X111050000Y-95100000D03*
X147900000Y-94150000D03*
X165350000Y-106450000D03*
X127650000Y-95100000D03*
X111050000Y-107685000D03*
%TO.N,/~{IPL2}*%
X106550000Y-46050000D03*
X106550000Y-72450000D03*
X142700000Y-47150000D03*
%TO.N,/A15*%
X141400000Y-99150000D03*
X139200000Y-99150000D03*
X168300000Y-99300000D03*
X139200000Y-105200000D03*
X107150000Y-105150000D03*
X107150000Y-98250000D03*
X168300000Y-87950000D03*
%TO.N,GND*%
X158750000Y-86550000D03*
X158750000Y-79800000D03*
X179500000Y-52250000D03*
X132500000Y-123200000D03*
X186650000Y-110000000D03*
X96000000Y-54950000D03*
X132500000Y-125900000D03*
X109100000Y-123050000D03*
X120100000Y-78850000D03*
X109100000Y-125900000D03*
X96100000Y-113200000D03*
X87450000Y-104650000D03*
X173350000Y-114550000D03*
X132500000Y-120650000D03*
X87400000Y-113300000D03*
X156300000Y-70600000D03*
X96100000Y-88700000D03*
X173500000Y-94850000D03*
X158750000Y-52250000D03*
X173500000Y-84650000D03*
X118700000Y-88600000D03*
%TO.N,+5V*%
X188550000Y-106950000D03*
X107650000Y-71450000D03*
X158650000Y-100050000D03*
X134800000Y-102700000D03*
X176250000Y-100150000D03*
X97950000Y-56400000D03*
X94400000Y-48650000D03*
X119100000Y-100050000D03*
X101700000Y-104600000D03*
X117850000Y-72500000D03*
X160550000Y-105150000D03*
X101750000Y-93550000D03*
X117800000Y-56400000D03*
X118950000Y-104050000D03*
X176300000Y-102800000D03*
X178850000Y-102800000D03*
X97880000Y-74280000D03*
X134800000Y-100050000D03*
X178900000Y-93350000D03*
X107650000Y-56400000D03*
X101700000Y-109700000D03*
%TO.N,/~{OE}*%
X116250000Y-87000000D03*
X116300000Y-112765000D03*
X116300000Y-78750000D03*
X137550000Y-112750000D03*
X137850000Y-83650000D03*
X138850000Y-81300000D03*
X138850000Y-88300000D03*
%TO.N,Net-(U4-IO4)*%
X153500000Y-64600000D03*
X130750000Y-64600000D03*
X130400000Y-78750000D03*
X156750000Y-86600000D03*
X153500000Y-86600000D03*
X156200000Y-115300000D03*
%TO.N,Net-(U4-IO5)*%
X130000000Y-80000000D03*
X129950000Y-113900000D03*
%TO.N,/A1*%
X147000000Y-116600000D03*
X125900000Y-115300000D03*
X126350000Y-124700000D03*
X163750000Y-115350000D03*
X163750000Y-83600000D03*
X123300000Y-114650000D03*
X147000000Y-124700000D03*
%TO.N,Net-(U4-IO8)*%
X181300000Y-115350000D03*
X122050000Y-79650000D03*
X181300000Y-97850000D03*
X121700000Y-95900000D03*
%TO.N,/A16*%
X133500000Y-102700000D03*
X167350000Y-78650000D03*
X167350000Y-62300000D03*
X169350000Y-80000000D03*
X169350000Y-102750000D03*
X143250000Y-62300000D03*
X134300000Y-62300000D03*
%TO.N,Net-(U2-I8)*%
X126050000Y-87100000D03*
X147800000Y-82050000D03*
X147800000Y-87150000D03*
X126050000Y-84050000D03*
%TO.N,Net-(U2-I9)*%
X128350000Y-91500000D03*
X146600000Y-91500000D03*
X146650000Y-83150000D03*
X128350000Y-81950000D03*
%TO.N,Net-(U3-IO4)*%
X121700000Y-87750000D03*
X121700000Y-81300000D03*
X143750000Y-78750000D03*
X144500000Y-87900000D03*
%TO.N,/A9*%
X118700000Y-129250000D03*
X124950000Y-107750000D03*
X176700000Y-109000000D03*
X141650000Y-109000000D03*
X177400000Y-80950000D03*
X141650000Y-129250000D03*
X117000000Y-108950000D03*
%TO.N,Net-(U2-IO7)*%
X120100000Y-76450000D03*
X140400000Y-66350000D03*
X143700000Y-86200000D03*
X140400000Y-76750000D03*
X143700000Y-80800000D03*
X120100000Y-66350000D03*
%TO.N,Net-(U2-IO8)*%
X150100000Y-71450000D03*
X137800000Y-73900000D03*
X150100000Y-84900000D03*
X137800000Y-71450000D03*
%TO.N,Net-(U3-IO2)*%
X146700000Y-70600000D03*
X146700000Y-75100000D03*
%TO.N,Net-(U3-I03)*%
X152500000Y-77500000D03*
X152550000Y-69850000D03*
%TO.N,Net-(U3-I5)*%
X134350000Y-77700000D03*
X109500000Y-85200000D03*
X134350000Y-65400000D03*
X109500000Y-65400000D03*
%TO.N,Net-(U2-IO6)*%
X137200000Y-59850000D03*
X164850000Y-59850000D03*
X164850000Y-82500000D03*
X137450000Y-82700000D03*
%TO.N,Net-(U3-IO5)*%
X147850000Y-80020000D03*
X147850000Y-67950000D03*
%TO.N,/~{FC0}*%
X126050000Y-82850000D03*
%TO.N,/A17*%
X146450000Y-65300000D03*
%TO.N,Net-(U1-IO8)*%
X168250000Y-76200000D03*
X168250000Y-85600000D03*
%TO.N,Net-(U1-IO2)*%
X169000000Y-77500000D03*
X169000000Y-70650000D03*
%TO.N,/A18*%
X170800000Y-77400000D03*
X170800000Y-63400000D03*
X152800000Y-63350000D03*
%TO.N,Net-(U1-IO1)*%
X165850000Y-71050000D03*
X165850000Y-78750000D03*
%TO.N,Net-(Q1-G)*%
X101450000Y-52000000D03*
X101450000Y-71700000D03*
X101450000Y-68100000D03*
%TO.N,Net-(D1-K)*%
X185750000Y-99100000D03*
X181300000Y-89950000D03*
X185750000Y-92700000D03*
X105900000Y-78700000D03*
X105900000Y-89950000D03*
X181300000Y-96800000D03*
%TO.N,/A19*%
X155400000Y-66200000D03*
%TO.N,/A10*%
X120850000Y-92300000D03*
X120850000Y-110200000D03*
X175150000Y-110250000D03*
X176225000Y-80925000D03*
X126900000Y-91750000D03*
%TO.N,/~{FC1}*%
X159750000Y-67050000D03*
X127900000Y-67050000D03*
X159750000Y-80650000D03*
%TO.N,Net-(U5-I7)*%
X97050000Y-60200000D03*
X117200000Y-51600000D03*
X117200000Y-48950000D03*
X109100000Y-60200000D03*
X109100000Y-48950000D03*
X97050000Y-80000000D03*
%TO.N,Net-(U5-IO5)*%
X112500000Y-79950000D03*
X112500000Y-60950000D03*
X115300000Y-60950000D03*
X115300000Y-51450000D03*
%TO.N,Net-(U5-IO6)*%
X108700000Y-61900000D03*
X108700000Y-83150000D03*
%TO.N,/A11*%
X190850000Y-91400000D03*
X143250000Y-114050000D03*
X137150000Y-102600000D03*
X113650000Y-113700000D03*
X130000000Y-49100000D03*
X175350000Y-91400000D03*
X137150000Y-86500000D03*
X142300000Y-86300000D03*
X146950000Y-102600000D03*
X142400000Y-49100000D03*
X190850000Y-114100000D03*
X136450000Y-112750000D03*
X162850000Y-114000000D03*
X175350000Y-97750000D03*
X146950000Y-97550000D03*
X190850000Y-84950000D03*
X162850000Y-97850000D03*
%TO.N,/A12*%
X172650000Y-111550000D03*
X173100000Y-82500000D03*
X132550000Y-111550000D03*
%TO.N,/~{IPL0}*%
X138050000Y-68100000D03*
X110450000Y-77450000D03*
X110450000Y-68150000D03*
%TO.N,/~{RST}*%
X103400000Y-63450000D03*
X148250000Y-63450000D03*
X148250000Y-49100000D03*
X103400000Y-80700000D03*
X154150000Y-49050000D03*
%TO.N,/A13*%
X159850000Y-90650000D03*
X159850000Y-102850000D03*
X178600000Y-90650000D03*
X128400000Y-102550000D03*
X149850000Y-96750000D03*
X135000000Y-107550000D03*
X149850000Y-103450000D03*
X178600000Y-80100000D03*
X111900000Y-106400000D03*
X111900000Y-97400000D03*
X128400000Y-97400000D03*
%TO.N,/A20*%
X169750000Y-64400000D03*
X169750000Y-76100000D03*
X157850000Y-64400000D03*
%TO.N,/~{IPL1}*%
X105550000Y-77200000D03*
X105550000Y-47400000D03*
X140100000Y-48100000D03*
%TO.N,/A14*%
X141650000Y-107650000D03*
X140200000Y-92350000D03*
X180500000Y-107750000D03*
X180500000Y-78700000D03*
X180500000Y-92250000D03*
%TO.N,/~{HLT}*%
X156650000Y-51700000D03*
X111050000Y-78700000D03*
X111600000Y-49850000D03*
%TO.N,/A21*%
X160500000Y-54400000D03*
X168250000Y-74300000D03*
X168250000Y-54400000D03*
%TO.N,/A22*%
X159200000Y-47100000D03*
X99000000Y-50700000D03*
X176950000Y-76800000D03*
X145150000Y-47100000D03*
X88900000Y-67000000D03*
X145150000Y-51750000D03*
X99000000Y-67000000D03*
X177000000Y-47150000D03*
%TO.N,Net-(U11-DIS)*%
X94000000Y-107800000D03*
%TO.N,Net-(D3-A)*%
X89450000Y-107150000D03*
X101750000Y-77450000D03*
X89400000Y-89600000D03*
X101750000Y-92400000D03*
%TO.N,Net-(D3-K)*%
X93400000Y-105900000D03*
%TO.N,/A23*%
X161700000Y-55450000D03*
X180100000Y-76850000D03*
X180100000Y-55450000D03*
%TO.N,/D15*%
X144250000Y-116600000D03*
X139400000Y-117750000D03*
X116150000Y-116550000D03*
X144250000Y-94950000D03*
X162850000Y-94950000D03*
%TO.N,/A3*%
X135200000Y-112750000D03*
X121650000Y-98900000D03*
X121650000Y-112750000D03*
X157900000Y-78750000D03*
X135250000Y-115950000D03*
X104550000Y-41700000D03*
X157900000Y-87600000D03*
X155150000Y-87600000D03*
X104550000Y-98900000D03*
X104750000Y-114050000D03*
X155150000Y-114050000D03*
%TO.N,/A4*%
X154450000Y-74300000D03*
X124750000Y-124650000D03*
X107000000Y-112750000D03*
X153200000Y-112750000D03*
X153200000Y-128550000D03*
X124750000Y-128550000D03*
X114450000Y-112750000D03*
X124800000Y-111500000D03*
X107000000Y-124650000D03*
%TO.N,/A6*%
X115400000Y-110250000D03*
X124050000Y-101050000D03*
X124050000Y-108950000D03*
X115400000Y-101000000D03*
X150750000Y-78650000D03*
X151200000Y-110200000D03*
X150750000Y-101000000D03*
%TO.N,/A7*%
X126750000Y-94150000D03*
X105950000Y-91550000D03*
X154300000Y-93550000D03*
X162050000Y-104100000D03*
X154300000Y-104100000D03*
X105950000Y-96700000D03*
X126750000Y-96700000D03*
X105950000Y-108950000D03*
X122450000Y-91550000D03*
X126750000Y-104300000D03*
X162050000Y-77400000D03*
%TO.N,/A2*%
X152500000Y-98500000D03*
X152500000Y-115250000D03*
X106000000Y-115300000D03*
X120000000Y-94150000D03*
X148700000Y-98500000D03*
X103700000Y-94200000D03*
X152500000Y-80050000D03*
X103700000Y-102450000D03*
X148700000Y-101950000D03*
X125950000Y-102400000D03*
X126010000Y-114040000D03*
%TO.N,/D14*%
X175250000Y-59600000D03*
X122500000Y-117700000D03*
X142400000Y-88800000D03*
X138700000Y-118350000D03*
X175250000Y-88800000D03*
X169340000Y-59560000D03*
X142400000Y-118350000D03*
%TO.N,/R_W*%
X102700000Y-103400000D03*
X102700000Y-49450000D03*
X102700000Y-76400000D03*
X144000000Y-58650000D03*
X144000000Y-49950000D03*
X161200000Y-106350000D03*
X161250000Y-58650000D03*
X170600000Y-58550000D03*
%TO.N,/D13*%
X115900000Y-119450000D03*
X136350000Y-125400000D03*
X115900000Y-127750000D03*
X171850000Y-125450000D03*
X136340000Y-120300000D03*
X136350000Y-127750000D03*
%TO.N,/~{LDS}*%
X145150000Y-85300000D03*
X145750000Y-68900000D03*
X173050000Y-68900000D03*
%TO.N,/D12*%
X137250000Y-122450000D03*
X166550000Y-126100000D03*
X135050000Y-122450000D03*
X137250000Y-126100000D03*
X166550000Y-53100000D03*
X135050000Y-120700000D03*
X174450000Y-53100000D03*
%TO.N,/~{UDS}*%
X178200000Y-57650000D03*
X133400000Y-74700000D03*
X127650000Y-86400000D03*
X133400000Y-57650000D03*
X128050000Y-74700000D03*
%TO.N,/D11*%
X140400000Y-127750000D03*
X174300000Y-127700000D03*
X140400000Y-121650000D03*
%TO.N,/~{AS}*%
X111600000Y-90750000D03*
X180750000Y-67850000D03*
X111600000Y-81450000D03*
X149200000Y-81250000D03*
X149200000Y-90750000D03*
X149200000Y-67950000D03*
%TO.N,/D3*%
X183400000Y-47400000D03*
X175500000Y-121650000D03*
X183100000Y-121650000D03*
X175500000Y-115550000D03*
%TO.N,/D10*%
X131700000Y-54050000D03*
X147250000Y-54050000D03*
X147250000Y-46400000D03*
X131250000Y-123900000D03*
X183400000Y-46200000D03*
X131600000Y-116300000D03*
X131250000Y-120650000D03*
%TO.N,/D8*%
X133500000Y-115100000D03*
X136750000Y-46200000D03*
%TO.N,/D0*%
X131300000Y-77450000D03*
X145200000Y-117850000D03*
X145200000Y-97600000D03*
X156550000Y-117800000D03*
X160580000Y-116630000D03*
X164600000Y-86400000D03*
X182050000Y-86350000D03*
X130900000Y-97550000D03*
X164600000Y-116650000D03*
%TO.N,/D4*%
X179600000Y-120750000D03*
X178300000Y-59050000D03*
%TO.N,/D9*%
X128150000Y-118350000D03*
X128950000Y-56450000D03*
X128150000Y-123150000D03*
X185850000Y-56450000D03*
%TO.N,/D2*%
X187000000Y-96050000D03*
X169750000Y-122300000D03*
X170450000Y-96050000D03*
X170450000Y-116000000D03*
%TO.N,/D7*%
X182100000Y-128550000D03*
X182100000Y-116600000D03*
X155300000Y-128550000D03*
X155250000Y-116900000D03*
%TO.N,/D6*%
X189800000Y-57750000D03*
X185900000Y-57800000D03*
X184300000Y-117850000D03*
X161600000Y-123350000D03*
X161600000Y-117850000D03*
X178600000Y-123300000D03*
X178600000Y-118400000D03*
%TO.N,/D1*%
X146100000Y-119100000D03*
X160550000Y-118700000D03*
X133400000Y-76200000D03*
X167250000Y-87050000D03*
X146150000Y-98300000D03*
X134050000Y-98300000D03*
X156550000Y-119100000D03*
X184500000Y-87050000D03*
X167250000Y-118700000D03*
%TO.N,/D5*%
X181050000Y-124350000D03*
X160550000Y-119850000D03*
X181050000Y-119500000D03*
X160550000Y-124350000D03*
%TD*%
D19*
%TO.N,Net-(U3-I6)*%
X91677500Y-120377500D02*
X91677500Y-115377500D01*
X133300000Y-92650000D02*
X133300000Y-80050000D01*
X90600000Y-98100000D02*
X90600000Y-105700000D01*
X90600000Y-105700000D02*
X91650000Y-106750000D01*
X91650000Y-106750000D02*
X91650000Y-115350000D01*
X91650000Y-115350000D02*
X91677500Y-115377500D01*
%TO.N,Net-(U10-~{CE})*%
X112700000Y-84550000D02*
X112700000Y-115600000D01*
X127150000Y-64400000D02*
X127200000Y-64450000D01*
X127200000Y-64450000D02*
X127200000Y-73300000D01*
X113250000Y-84000000D02*
X112700000Y-84550000D01*
X113250000Y-64400000D02*
X113250000Y-84000000D01*
%TO.N,Net-(U2-IO1)*%
X118850000Y-77200000D02*
X118850000Y-61250000D01*
X144900000Y-76800000D02*
X144600000Y-77100000D01*
X144600000Y-77100000D02*
X143800000Y-77100000D01*
X163850000Y-61250000D02*
X163850000Y-74700000D01*
X144900000Y-61250000D02*
X144900000Y-76800000D01*
X119300000Y-77650000D02*
X118850000Y-77200000D01*
X120100000Y-77650000D02*
X119300000Y-77650000D01*
%TO.N,/A5*%
X114100000Y-63400000D02*
X113460000Y-62760000D01*
X122450000Y-94100000D02*
X122450000Y-101750000D01*
X156000000Y-77650000D02*
X156000000Y-93400000D01*
X113600000Y-101750000D02*
X113600000Y-85200000D01*
X113600000Y-85200000D02*
X114100000Y-84700000D01*
X156850000Y-76800000D02*
X156000000Y-77650000D01*
X157700000Y-76800000D02*
X156850000Y-76800000D01*
X113460000Y-62760000D02*
X113460000Y-44200000D01*
X156000000Y-110750000D02*
X156100000Y-110850000D01*
X113600000Y-111500000D02*
X113600000Y-101750000D01*
X114100000Y-84700000D02*
X114100000Y-63400000D01*
X156000000Y-93400000D02*
X156000000Y-110750000D01*
X122450000Y-101750000D02*
X122450000Y-109850000D01*
%TO.N,/A8*%
X160650000Y-88500000D02*
X160650000Y-76500000D01*
X160250000Y-88900000D02*
X160650000Y-88500000D01*
X147950000Y-94200000D02*
X147900000Y-94150000D01*
X119850000Y-62500000D02*
X119750000Y-62400000D01*
X127650000Y-95100000D02*
X127650000Y-103300000D01*
X127650000Y-103300000D02*
X127850000Y-103500000D01*
X159000000Y-88900000D02*
X160250000Y-88900000D01*
X147950000Y-107350000D02*
X147950000Y-94200000D01*
X165350000Y-94150000D02*
X165350000Y-106450000D01*
X123620000Y-37820000D02*
X123620000Y-39120000D01*
X120350000Y-37500000D02*
X123300000Y-37500000D01*
X123300000Y-37500000D02*
X123620000Y-37820000D01*
X117050000Y-95100000D02*
X117050000Y-62500000D01*
X127850000Y-103500000D02*
X127850000Y-105050000D01*
X119750000Y-38100000D02*
X120350000Y-37500000D01*
X111050000Y-107685000D02*
X111050000Y-95100000D01*
X147600000Y-107700000D02*
X147950000Y-107350000D01*
X158650000Y-94150000D02*
X158650000Y-89250000D01*
X146800000Y-107700000D02*
X147600000Y-107700000D01*
X119750000Y-62400000D02*
X119750000Y-38100000D01*
X158650000Y-89250000D02*
X159000000Y-88900000D01*
%TO.N,/~{IPL2}*%
X142700000Y-47150000D02*
X142700000Y-40420000D01*
X142700000Y-40420000D02*
X141400000Y-39120000D01*
X106550000Y-72450000D02*
X106550000Y-46050000D01*
%TO.N,/A15*%
X168300000Y-87950000D02*
X168300000Y-99300000D01*
X139200000Y-99150000D02*
X139200000Y-105200000D01*
X141400000Y-99150000D02*
X141400000Y-44200000D01*
X107150000Y-98250000D02*
X107150000Y-105150000D01*
D20*
%TO.N,GND*%
X93200000Y-85150000D02*
X93900000Y-85850000D01*
X94450000Y-98900000D02*
X94450000Y-99225000D01*
X93900000Y-98350000D02*
X94450000Y-98900000D01*
X90600000Y-39120000D02*
X90600000Y-44200000D01*
X173500000Y-114400000D02*
X173500000Y-94850000D01*
X187270000Y-104230000D02*
X186650000Y-104850000D01*
X158750000Y-70600000D02*
X158750000Y-79800000D01*
X88000000Y-85150000D02*
X93200000Y-85150000D01*
X132500000Y-123200000D02*
X132500000Y-120650000D01*
X158750000Y-70600000D02*
X156300000Y-70600000D01*
X93900000Y-85850000D02*
X93900000Y-98350000D01*
X87450000Y-87650000D02*
X87450000Y-113250000D01*
X173500000Y-94850000D02*
X173500000Y-84650000D01*
X96677500Y-120377500D02*
X96677500Y-128872500D01*
X87450000Y-85700000D02*
X88000000Y-85150000D01*
X179500000Y-44200000D02*
X179500000Y-52250000D01*
X109100000Y-125900000D02*
X109100000Y-123050000D01*
X158750000Y-52250000D02*
X158750000Y-70600000D01*
X96100000Y-88700000D02*
X96100000Y-113200000D01*
X96105112Y-129444888D02*
X94000000Y-129444888D01*
X188500000Y-104230000D02*
X187270000Y-104230000D01*
X96000000Y-54950000D02*
X96101600Y-55051600D01*
X173350000Y-114550000D02*
X173500000Y-114400000D01*
X118700000Y-79400000D02*
X119250000Y-78850000D01*
X96677500Y-128872500D02*
X96105112Y-129444888D01*
X87450000Y-113250000D02*
X87450000Y-104650000D01*
X88060000Y-44200000D02*
X88060000Y-39120000D01*
X96677500Y-115377500D02*
X96677500Y-120377500D01*
X96101600Y-55051600D02*
X96101600Y-88698400D01*
X119250000Y-78850000D02*
X120100000Y-78850000D01*
X96101600Y-88698400D02*
X96100000Y-88700000D01*
X186650000Y-104850000D02*
X186650000Y-110000000D01*
X87450000Y-87650000D02*
X87450000Y-85700000D01*
X132500000Y-123200000D02*
X132500000Y-125900000D01*
X87450000Y-113250000D02*
X87400000Y-113300000D01*
X158750000Y-79800000D02*
X158750000Y-86550000D01*
X118700000Y-88600000D02*
X118700000Y-79400000D01*
%TO.N,+5V*%
X158650000Y-100050000D02*
X158650000Y-103700000D01*
X118950000Y-100200000D02*
X118950000Y-104050000D01*
X189000000Y-119500000D02*
X190500000Y-119500000D01*
X176250000Y-100150000D02*
X176300000Y-100200000D01*
X158650000Y-103700000D02*
X159050000Y-104100000D01*
X188550000Y-119050000D02*
X189000000Y-119500000D01*
X99150000Y-93550000D02*
X99000000Y-93400000D01*
X190500000Y-119500000D02*
X191090000Y-120090000D01*
X94357500Y-48607500D02*
X94357500Y-41707500D01*
X191090000Y-120090000D02*
X191090000Y-122080000D01*
X97950000Y-49100000D02*
X97500000Y-48650000D01*
X101750000Y-93550000D02*
X99150000Y-93550000D01*
X99000000Y-93400000D02*
X99000000Y-85500000D01*
X176300000Y-100200000D02*
X176300000Y-102800000D01*
X93140000Y-40490000D02*
X93140000Y-39120000D01*
X97950000Y-56400000D02*
X97950000Y-49100000D01*
X101700000Y-104600000D02*
X101700000Y-109700000D01*
X97950000Y-74210000D02*
X97880000Y-74280000D01*
X160550000Y-104600000D02*
X160550000Y-105150000D01*
X160050000Y-104100000D02*
X160550000Y-104600000D01*
X94400000Y-48650000D02*
X94357500Y-48607500D01*
X117800000Y-72450000D02*
X117800000Y-56400000D01*
X97950000Y-56400000D02*
X97950000Y-74210000D01*
X178900000Y-93350000D02*
X178850000Y-93400000D01*
X107650000Y-71450000D02*
X107650000Y-56400000D01*
X178850000Y-93400000D02*
X178850000Y-102800000D01*
X97500000Y-48650000D02*
X94400000Y-48650000D01*
X101750000Y-93550000D02*
X101700000Y-93600000D01*
X188550000Y-106950000D02*
X188550000Y-119050000D01*
X134800000Y-102700000D02*
X134800000Y-100050000D01*
X119100000Y-100050000D02*
X118950000Y-100200000D01*
X101700000Y-93600000D02*
X101700000Y-104600000D01*
X117850000Y-72500000D02*
X117800000Y-72450000D01*
X97880000Y-84380000D02*
X97880000Y-74280000D01*
X94357500Y-41707500D02*
X93140000Y-40490000D01*
X159050000Y-104100000D02*
X160050000Y-104100000D01*
X99000000Y-85500000D02*
X97880000Y-84380000D01*
D19*
%TO.N,/~{OE}*%
X116250000Y-78800000D02*
X116300000Y-78750000D01*
X116250000Y-112715000D02*
X116250000Y-87000000D01*
X116250000Y-87000000D02*
X116250000Y-78800000D01*
X116300000Y-112765000D02*
X116250000Y-112715000D01*
X138850000Y-88300000D02*
X138850000Y-81300000D01*
X137850000Y-112450000D02*
X137550000Y-112750000D01*
X137850000Y-83650000D02*
X137850000Y-112450000D01*
%TO.N,Net-(U4-IO4)*%
X130400000Y-78750000D02*
X130400000Y-74800000D01*
X156750000Y-86600000D02*
X156700000Y-86650000D01*
X130400000Y-74800000D02*
X130750000Y-74450000D01*
X153500000Y-64600000D02*
X153500000Y-86600000D01*
X156700000Y-112600000D02*
X156200000Y-113100000D01*
X156700000Y-86650000D02*
X156700000Y-112600000D01*
X156200000Y-113100000D02*
X156200000Y-115300000D01*
X130750000Y-74450000D02*
X130750000Y-64600000D01*
%TO.N,Net-(U4-IO5)*%
X130000000Y-113850000D02*
X129950000Y-113900000D01*
X130000000Y-80000000D02*
X130000000Y-113850000D01*
%TO.N,/A1*%
X126350000Y-124700000D02*
X125900000Y-124250000D01*
X123300000Y-92650000D02*
X123620000Y-92330000D01*
X123300000Y-114650000D02*
X123300000Y-92650000D01*
X125900000Y-124250000D02*
X125900000Y-115300000D01*
X163750000Y-83600000D02*
X163750000Y-115350000D01*
X147000000Y-124700000D02*
X147000000Y-116600000D01*
X123620000Y-92330000D02*
X123620000Y-44200000D01*
%TO.N,Net-(U4-IO8)*%
X122650000Y-89150000D02*
X121700000Y-90100000D01*
X122050000Y-79650000D02*
X122050000Y-79700000D01*
X122650000Y-81850000D02*
X122650000Y-89150000D01*
X121700000Y-90100000D02*
X121700000Y-95900000D01*
X122050000Y-79700000D02*
X122650000Y-80300000D01*
X181300000Y-97850000D02*
X181300000Y-115350000D01*
X122650000Y-80300000D02*
X122650000Y-81850000D01*
%TO.N,/A16*%
X135150000Y-64850000D02*
X134300000Y-64000000D01*
X143250000Y-62300000D02*
X143250000Y-48550000D01*
X134300000Y-64000000D02*
X134300000Y-62300000D01*
X143250000Y-48550000D02*
X143950000Y-47850000D01*
X143940000Y-47840000D02*
X143940000Y-44200000D01*
X143950000Y-47850000D02*
X143940000Y-47840000D01*
X167350000Y-78650000D02*
X167350000Y-62300000D01*
X133850000Y-99300000D02*
X134850000Y-99300000D01*
X133500000Y-102700000D02*
X133500000Y-99650000D01*
X133500000Y-99650000D02*
X133850000Y-99300000D01*
X135150000Y-99000000D02*
X135150000Y-64850000D01*
X169350000Y-80000000D02*
X169350000Y-102750000D01*
X134850000Y-99300000D02*
X135150000Y-99000000D01*
%TO.N,Net-(U2-I8)*%
X147800000Y-82050000D02*
X147800000Y-87150000D01*
X126050000Y-84050000D02*
X126050000Y-87100000D01*
%TO.N,Net-(U2-I9)*%
X128350000Y-81950000D02*
X128350000Y-91500000D01*
X146600000Y-91500000D02*
X146600000Y-83200000D01*
X146600000Y-83200000D02*
X146650000Y-83150000D01*
%TO.N,Net-(U3-IO4)*%
X144500000Y-80300000D02*
X144000000Y-79800000D01*
X121700000Y-87750000D02*
X121700000Y-81300000D01*
X144000000Y-79800000D02*
X143750000Y-79550000D01*
X144500000Y-87900000D02*
X144500000Y-80300000D01*
X143750000Y-79550000D02*
X143750000Y-78750000D01*
%TO.N,/A9*%
X124900000Y-107700000D02*
X124900000Y-40380000D01*
X124900000Y-40380000D02*
X126160000Y-39120000D01*
X177400000Y-80950000D02*
X177200000Y-81150000D01*
X118700000Y-109550000D02*
X118700000Y-129250000D01*
X118100000Y-108950000D02*
X118700000Y-109550000D01*
X117000000Y-108950000D02*
X118100000Y-108950000D01*
X124950000Y-107750000D02*
X124900000Y-107700000D01*
X177200000Y-81150000D02*
X177200000Y-108500000D01*
X177200000Y-108500000D02*
X176700000Y-109000000D01*
X141650000Y-129250000D02*
X141650000Y-109000000D01*
%TO.N,Net-(U2-IO7)*%
X143700000Y-80800000D02*
X143700000Y-86200000D01*
X120100000Y-76450000D02*
X120100000Y-66350000D01*
X140400000Y-66350000D02*
X140400000Y-76750000D01*
%TO.N,Net-(U2-IO8)*%
X137800000Y-71450000D02*
X137800000Y-73900000D01*
X150100000Y-71450000D02*
X150100000Y-84900000D01*
%TO.N,Net-(U3-IO2)*%
X146700000Y-70600000D02*
X146700000Y-75100000D01*
%TO.N,Net-(U3-I03)*%
X152550000Y-77450000D02*
X152500000Y-77500000D01*
X152550000Y-69850000D02*
X152550000Y-77450000D01*
%TO.N,Net-(U3-I5)*%
X109500000Y-85200000D02*
X109500000Y-65400000D01*
X134350000Y-65400000D02*
X134350000Y-77700000D01*
%TO.N,Net-(U2-IO6)*%
X137450000Y-74850000D02*
X137200000Y-74600000D01*
X164850000Y-59850000D02*
X164850000Y-82500000D01*
X137450000Y-82700000D02*
X137450000Y-74850000D01*
X137200000Y-74600000D02*
X137200000Y-59850000D01*
%TO.N,Net-(U3-IO5)*%
X147850000Y-67950000D02*
X147850000Y-80020000D01*
%TO.N,/~{FC0}*%
X125700000Y-44660000D02*
X126160000Y-44200000D01*
X126050000Y-80450000D02*
X125700000Y-80100000D01*
X125700000Y-80100000D02*
X125700000Y-44660000D01*
X126050000Y-82850000D02*
X126050000Y-80450000D01*
%TO.N,/A17*%
X146480000Y-65270000D02*
X146480000Y-44200000D01*
X146450000Y-65300000D02*
X146480000Y-65270000D01*
%TO.N,Net-(U1-IO8)*%
X168250000Y-76200000D02*
X168250000Y-85600000D01*
%TO.N,Net-(U1-IO2)*%
X169000000Y-77500000D02*
X169000000Y-70650000D01*
%TO.N,/A18*%
X170800000Y-77400000D02*
X170800000Y-63400000D01*
X152800000Y-63350000D02*
X152800000Y-40360000D01*
X152800000Y-40360000D02*
X151560000Y-39120000D01*
%TO.N,Net-(U1-IO1)*%
X165850000Y-78750000D02*
X165850000Y-71050000D01*
%TO.N,Net-(Q1-G)*%
X101450000Y-68100000D02*
X101450000Y-52000000D01*
X101450000Y-71700000D02*
X101450000Y-68100000D01*
%TO.N,Net-(D1-K)*%
X188500000Y-99150000D02*
X188500000Y-101690000D01*
X185750000Y-99100000D02*
X185750000Y-92700000D01*
X181300000Y-89950000D02*
X181300000Y-96800000D01*
X105900000Y-78700000D02*
X105900000Y-89950000D01*
%TO.N,/A19*%
X155400000Y-66200000D02*
X155400000Y-40420000D01*
X155400000Y-40420000D02*
X154100000Y-39120000D01*
%TO.N,/A10*%
X175150000Y-99800000D02*
X176225000Y-98725000D01*
X128700000Y-41350000D02*
X128700000Y-39120000D01*
X120850000Y-110200000D02*
X120850000Y-92300000D01*
X126900000Y-77950000D02*
X126300000Y-77350000D01*
X127700000Y-41750000D02*
X128300000Y-41750000D01*
X127400000Y-42050000D02*
X127700000Y-41750000D01*
X176225000Y-98725000D02*
X176225000Y-80925000D01*
X126900000Y-91750000D02*
X126900000Y-77950000D01*
X126300000Y-77350000D02*
X126300000Y-54550000D01*
X128300000Y-41750000D02*
X128700000Y-41350000D01*
X126300000Y-54550000D02*
X127400000Y-53450000D01*
X175150000Y-110250000D02*
X175150000Y-99800000D01*
X127400000Y-53450000D02*
X127400000Y-42050000D01*
%TO.N,/~{FC1}*%
X159750000Y-80650000D02*
X159750000Y-67050000D01*
X127900000Y-55700000D02*
X128700000Y-54900000D01*
X127900000Y-67050000D02*
X127900000Y-55700000D01*
X128700000Y-54900000D02*
X128700000Y-44200000D01*
%TO.N,Net-(U5-I7)*%
X109100000Y-60200000D02*
X109100000Y-48950000D01*
X97050000Y-80000000D02*
X97050000Y-60200000D01*
X117200000Y-48950000D02*
X117200000Y-51600000D01*
%TO.N,Net-(U5-IO5)*%
X112500000Y-79950000D02*
X112500000Y-60950000D01*
X115300000Y-60950000D02*
X115300000Y-51450000D01*
%TO.N,Net-(U5-IO6)*%
X108700000Y-83150000D02*
X108700000Y-61900000D01*
%TO.N,/A11*%
X136450000Y-112750000D02*
X136450000Y-112150000D01*
X142400000Y-49100000D02*
X142400000Y-86200000D01*
X142400000Y-86200000D02*
X142300000Y-86300000D01*
X136750000Y-111850000D02*
X137150000Y-111450000D01*
X114400000Y-131150000D02*
X113650000Y-130400000D01*
X113650000Y-130400000D02*
X113650000Y-113700000D01*
X137150000Y-86500000D02*
X137150000Y-102600000D01*
X190850000Y-91400000D02*
X190850000Y-84950000D01*
X175350000Y-97750000D02*
X175350000Y-91400000D01*
X162850000Y-97850000D02*
X162850000Y-114000000D01*
X131240000Y-39120000D02*
X131240000Y-41410000D01*
X130950000Y-41700000D02*
X130362500Y-41700000D01*
X131240000Y-41410000D02*
X130950000Y-41700000D01*
X137150000Y-111450000D02*
X137150000Y-102600000D01*
X130000000Y-42062500D02*
X130000000Y-49100000D01*
X146950000Y-102600000D02*
X146950000Y-97550000D01*
X142450000Y-131150000D02*
X114400000Y-131150000D01*
X143250000Y-114050000D02*
X143250000Y-130350000D01*
X143250000Y-130350000D02*
X142450000Y-131150000D01*
X136450000Y-112150000D02*
X136750000Y-111850000D01*
X190850000Y-91400000D02*
X190850000Y-114100000D01*
X130362500Y-41700000D02*
X130000000Y-42062500D01*
%TO.N,/A12*%
X133500000Y-41550000D02*
X133800000Y-41250000D01*
X132900000Y-41550000D02*
X133500000Y-41550000D01*
X132550000Y-111550000D02*
X132500000Y-111500000D01*
X172650000Y-82950000D02*
X172650000Y-111550000D01*
X133780000Y-41230000D02*
X133780000Y-39120000D01*
X132500000Y-111500000D02*
X132500000Y-41950000D01*
X133800000Y-41250000D02*
X133780000Y-41230000D01*
X132500000Y-41950000D02*
X132900000Y-41550000D01*
X173100000Y-82500000D02*
X172650000Y-82950000D01*
%TO.N,/~{IPL0}*%
X137600000Y-58300000D02*
X137600000Y-40400000D01*
X138050000Y-68100000D02*
X138050000Y-58750000D01*
X110450000Y-77450000D02*
X110450000Y-68150000D01*
X138050000Y-58750000D02*
X137600000Y-58300000D01*
X137600000Y-40400000D02*
X136320000Y-39120000D01*
%TO.N,/~{RST}*%
X103400000Y-80700000D02*
X103400000Y-63450000D01*
X148250000Y-63450000D02*
X148250000Y-49100000D01*
X154150000Y-49050000D02*
X154150000Y-44250000D01*
X154150000Y-44250000D02*
X154100000Y-44200000D01*
%TO.N,/A13*%
X135000000Y-107550000D02*
X135750000Y-106800000D01*
X149850000Y-103450000D02*
X149850000Y-96750000D01*
X128400000Y-97400000D02*
X128400000Y-102550000D01*
X159850000Y-90650000D02*
X159850000Y-102850000D01*
X135050000Y-43200000D02*
X135500000Y-42750000D01*
X135750000Y-64200000D02*
X135050000Y-63500000D01*
X135750000Y-106800000D02*
X135750000Y-64200000D01*
X135050000Y-63500000D02*
X135050000Y-43200000D01*
X136320000Y-42970000D02*
X136320000Y-44200000D01*
X178600000Y-80100000D02*
X178600000Y-90650000D01*
X136100000Y-42750000D02*
X136320000Y-42970000D01*
X111900000Y-97400000D02*
X111900000Y-106400000D01*
X135500000Y-42750000D02*
X136100000Y-42750000D01*
%TO.N,/A20*%
X157850000Y-64400000D02*
X157900000Y-64350000D01*
X157900000Y-64350000D02*
X157900000Y-40380000D01*
X157900000Y-40380000D02*
X156640000Y-39120000D01*
X169750000Y-76100000D02*
X169750000Y-64400000D01*
%TO.N,/~{IPL1}*%
X105550000Y-77200000D02*
X105550000Y-47400000D01*
X140100000Y-40360000D02*
X138860000Y-39120000D01*
X140100000Y-48100000D02*
X140100000Y-40360000D01*
%TO.N,/A14*%
X140600000Y-105600000D02*
X141300000Y-105600000D01*
X138860000Y-79860000D02*
X138860000Y-44200000D01*
X139850000Y-80350000D02*
X139350000Y-80350000D01*
X180500000Y-78700000D02*
X180500000Y-92250000D01*
X141650000Y-105950000D02*
X141650000Y-107650000D01*
X140200000Y-80700000D02*
X139850000Y-80350000D01*
X141300000Y-105600000D02*
X141350000Y-105650000D01*
X140200000Y-92350000D02*
X140200000Y-105200000D01*
X140200000Y-92350000D02*
X140200000Y-80700000D01*
X139350000Y-80350000D02*
X138860000Y-79860000D01*
X141350000Y-105650000D02*
X141650000Y-105950000D01*
X180500000Y-92250000D02*
X180500000Y-107750000D01*
X140200000Y-105200000D02*
X140600000Y-105600000D01*
%TO.N,/~{HLT}*%
X111050000Y-78700000D02*
X111600000Y-78150000D01*
X156650000Y-51700000D02*
X156640000Y-51690000D01*
X156640000Y-51690000D02*
X156640000Y-44200000D01*
X111600000Y-76550000D02*
X111600000Y-49850000D01*
X111600000Y-78150000D02*
X111600000Y-76550000D01*
%TO.N,/A21*%
X160450000Y-40390000D02*
X159180000Y-39120000D01*
X168250000Y-74300000D02*
X168250000Y-54400000D01*
X160500000Y-54400000D02*
X160450000Y-54350000D01*
X160450000Y-54350000D02*
X160450000Y-40390000D01*
%TO.N,/A22*%
X176950000Y-47200000D02*
X177000000Y-47150000D01*
X176950000Y-76800000D02*
X176950000Y-47200000D01*
X145150000Y-47100000D02*
X145150000Y-51750000D01*
X99000000Y-50700000D02*
X99000000Y-67000000D01*
X159200000Y-47100000D02*
X159180000Y-47080000D01*
X88900000Y-67000000D02*
X88900000Y-69200000D01*
X159180000Y-47080000D02*
X159180000Y-44200000D01*
%TO.N,Net-(U11-DIS)*%
X94000000Y-107800000D02*
X94000000Y-127044888D01*
%TO.N,Net-(D3-A)*%
X89450000Y-107150000D02*
X89450000Y-89650000D01*
X101750000Y-77450000D02*
X101750000Y-92400000D01*
X89450000Y-89650000D02*
X89400000Y-89600000D01*
%TO.N,Net-(D3-K)*%
X92450000Y-105350000D02*
X92000000Y-104900000D01*
X93050000Y-105350000D02*
X92450000Y-105350000D01*
X93400000Y-105700000D02*
X93050000Y-105350000D01*
X93400000Y-105900000D02*
X93400000Y-105700000D01*
X92000000Y-104900000D02*
X92000000Y-87950000D01*
X92000000Y-87950000D02*
X91700000Y-87650000D01*
X91700000Y-87650000D02*
X89950000Y-87650000D01*
%TO.N,/A23*%
X161720000Y-55080000D02*
X161720000Y-44200000D01*
X161700000Y-55450000D02*
X161700000Y-55100000D01*
X180100000Y-76850000D02*
X180100000Y-55450000D01*
X161700000Y-55100000D02*
X161720000Y-55080000D01*
%TO.N,/D15*%
X116150000Y-116550000D02*
X114350000Y-118350000D01*
X114900000Y-130400000D02*
X138700000Y-130400000D01*
X166800000Y-49950000D02*
X166800000Y-44200000D01*
X162850000Y-51250000D02*
X163350000Y-50750000D01*
X166000000Y-50750000D02*
X166800000Y-49950000D01*
X163350000Y-50750000D02*
X166000000Y-50750000D01*
X138700000Y-130400000D02*
X139400000Y-129700000D01*
X114350000Y-129850000D02*
X114900000Y-130400000D01*
X144250000Y-116600000D02*
X144250000Y-94950000D01*
X139400000Y-129700000D02*
X139400000Y-117750000D01*
X162850000Y-94950000D02*
X162850000Y-51250000D01*
X114350000Y-118350000D02*
X114350000Y-129850000D01*
%TO.N,/A3*%
X104550000Y-113850000D02*
X104750000Y-114050000D01*
X135250000Y-115950000D02*
X135200000Y-115900000D01*
X104550000Y-98900000D02*
X104550000Y-113850000D01*
X121650000Y-112750000D02*
X121650000Y-98900000D01*
X155150000Y-87600000D02*
X155150000Y-114050000D01*
X135200000Y-115900000D02*
X135200000Y-112750000D01*
X157900000Y-78750000D02*
X157900000Y-87600000D01*
X104550000Y-41700000D02*
X104550000Y-98900000D01*
%TO.N,/A4*%
X114200000Y-62100000D02*
X114200000Y-49450000D01*
X153200000Y-112750000D02*
X153200000Y-88300000D01*
X114450000Y-91100000D02*
X114800000Y-90750000D01*
X114800000Y-62700000D02*
X114200000Y-62100000D01*
X124750000Y-128550000D02*
X124750000Y-124650000D01*
X114200000Y-49450000D02*
X114700000Y-48950000D01*
X153200000Y-88300000D02*
X154450000Y-87050000D01*
X114700000Y-48950000D02*
X114700000Y-40420000D01*
X124800000Y-111500000D02*
X124750000Y-111550000D01*
X153200000Y-128550000D02*
X153200000Y-112750000D01*
X124750000Y-111550000D02*
X124750000Y-124650000D01*
X114800000Y-90750000D02*
X114800000Y-62700000D01*
X154450000Y-87050000D02*
X154450000Y-74300000D01*
X114450000Y-112750000D02*
X114450000Y-91100000D01*
X107000000Y-124650000D02*
X107000000Y-112750000D01*
X114700000Y-40420000D02*
X116000000Y-39120000D01*
%TO.N,/A6*%
X115400000Y-101000000D02*
X115400000Y-110250000D01*
X150750000Y-78650000D02*
X150750000Y-101000000D01*
X150750000Y-101000000D02*
X150750000Y-103100000D01*
X116000000Y-76750000D02*
X116000000Y-44200000D01*
X151200000Y-103550000D02*
X151200000Y-110200000D01*
X124050000Y-101050000D02*
X124050000Y-108950000D01*
X115400000Y-77350000D02*
X116000000Y-76750000D01*
X115400000Y-101000000D02*
X115400000Y-77350000D01*
X150750000Y-103100000D02*
X151200000Y-103550000D01*
%TO.N,/A7*%
X126750000Y-94150000D02*
X126750000Y-96700000D01*
X122700000Y-91550000D02*
X123050000Y-91200000D01*
X123050000Y-46000000D02*
X122350000Y-45300000D01*
X122350000Y-40390000D02*
X121080000Y-39120000D01*
X162050000Y-77400000D02*
X162050000Y-104100000D01*
X122350000Y-45300000D02*
X122350000Y-40390000D01*
X105950000Y-96700000D02*
X105950000Y-91550000D01*
X123050000Y-91200000D02*
X123050000Y-46000000D01*
X154300000Y-104100000D02*
X154300000Y-93550000D01*
X126750000Y-96700000D02*
X126750000Y-104300000D01*
X105950000Y-96700000D02*
X105950000Y-108950000D01*
X122450000Y-91550000D02*
X122700000Y-91550000D01*
%TO.N,/A2*%
X103700000Y-102450000D02*
X103700000Y-114900000D01*
X121080000Y-79620000D02*
X120550000Y-80150000D01*
X120550000Y-80150000D02*
X120550000Y-84000000D01*
X120000000Y-91700000D02*
X120000000Y-94150000D01*
X152500000Y-80050000D02*
X152500000Y-98500000D01*
X120550000Y-91150000D02*
X120000000Y-91700000D01*
X104100000Y-115300000D02*
X106000000Y-115300000D01*
X125950000Y-113980000D02*
X125950000Y-102400000D01*
X126010000Y-114040000D02*
X125950000Y-113980000D01*
X121080000Y-44200000D02*
X121080000Y-79620000D01*
X120550000Y-84000000D02*
X120550000Y-91150000D01*
X152500000Y-115250000D02*
X152500000Y-98500000D01*
X103700000Y-114900000D02*
X104100000Y-115300000D01*
X148700000Y-98500000D02*
X148700000Y-101950000D01*
X103700000Y-94200000D02*
X103700000Y-102450000D01*
%TO.N,/D14*%
X142400000Y-118350000D02*
X142400000Y-88800000D01*
X122500000Y-128900000D02*
X122500000Y-117700000D01*
X169340000Y-59560000D02*
X169340000Y-44200000D01*
X137900000Y-129450000D02*
X123050000Y-129450000D01*
X138700000Y-118350000D02*
X138700000Y-128650000D01*
X123050000Y-129450000D02*
X122500000Y-128900000D01*
X138700000Y-128650000D02*
X137900000Y-129450000D01*
X175250000Y-88800000D02*
X175250000Y-59600000D01*
%TO.N,/R_W*%
X144000000Y-58650000D02*
X144000000Y-49950000D01*
X161250000Y-106300000D02*
X161250000Y-58650000D01*
X161200000Y-106350000D02*
X161250000Y-106300000D01*
X170600000Y-40400000D02*
X171880000Y-39120000D01*
X170600000Y-58550000D02*
X170600000Y-40400000D01*
X102700000Y-49450000D02*
X102700000Y-76400000D01*
X102700000Y-76400000D02*
X102700000Y-103400000D01*
%TO.N,/D13*%
X136350000Y-127750000D02*
X136350000Y-125400000D01*
X136350000Y-125400000D02*
X136350000Y-120310000D01*
X171880000Y-125420000D02*
X171880000Y-44200000D01*
X136350000Y-120310000D02*
X136340000Y-120300000D01*
X171850000Y-125450000D02*
X171880000Y-125420000D01*
X115900000Y-119450000D02*
X115900000Y-127750000D01*
%TO.N,/~{LDS}*%
X145150000Y-85300000D02*
X145150000Y-82200000D01*
X173150000Y-40390000D02*
X174420000Y-39120000D01*
X173050000Y-68900000D02*
X173150000Y-68800000D01*
X145750000Y-81600000D02*
X145750000Y-68900000D01*
X145150000Y-82200000D02*
X145750000Y-81600000D01*
X173150000Y-68800000D02*
X173150000Y-40390000D01*
%TO.N,/D12*%
X137250000Y-122450000D02*
X137250000Y-126100000D01*
X174420000Y-53070000D02*
X174420000Y-44200000D01*
X174450000Y-53100000D02*
X174420000Y-53070000D01*
X135050000Y-122450000D02*
X135050000Y-120700000D01*
X166550000Y-126100000D02*
X166550000Y-53100000D01*
%TO.N,/~{UDS}*%
X177020000Y-39120000D02*
X176960000Y-39120000D01*
X127950000Y-75700000D02*
X128050000Y-75600000D01*
X178200000Y-57650000D02*
X178200000Y-40300000D01*
X127650000Y-86400000D02*
X127650000Y-76000000D01*
X178200000Y-40300000D02*
X177020000Y-39120000D01*
X128050000Y-75600000D02*
X128050000Y-74700000D01*
X127650000Y-76000000D02*
X127950000Y-75700000D01*
X133400000Y-57650000D02*
X133400000Y-74700000D01*
%TO.N,/D11*%
X175500000Y-54650000D02*
X175850000Y-54300000D01*
X175850000Y-54300000D02*
X175850000Y-46725000D01*
X174300000Y-127700000D02*
X174300000Y-55250000D01*
X174300000Y-55250000D02*
X174900000Y-54650000D01*
X140400000Y-121650000D02*
X140400000Y-127750000D01*
X175850000Y-46725000D02*
X176960000Y-45615000D01*
X176960000Y-45615000D02*
X176960000Y-44200000D01*
X174900000Y-54650000D02*
X175500000Y-54650000D01*
%TO.N,/~{AS}*%
X149200000Y-90750000D02*
X149200000Y-81250000D01*
X180750000Y-67850000D02*
X180750000Y-40370000D01*
X149200000Y-67950000D02*
X149200000Y-81250000D01*
X111600000Y-81450000D02*
X111600000Y-90750000D01*
X180750000Y-40370000D02*
X179500000Y-39120000D01*
%TO.N,/D3*%
X183100000Y-47700000D02*
X183100000Y-121650000D01*
X175500000Y-121650000D02*
X175500000Y-115550000D01*
X183400000Y-47400000D02*
X183100000Y-47700000D01*
%TO.N,/D10*%
X132100000Y-76650000D02*
X132100000Y-87200000D01*
X131700000Y-116200000D02*
X131600000Y-116300000D01*
X132100000Y-87200000D02*
X131700000Y-87600000D01*
X183350000Y-46150000D02*
X183350000Y-40430000D01*
X131700000Y-76250000D02*
X132100000Y-76650000D01*
X147250000Y-54050000D02*
X147250000Y-46400000D01*
X131700000Y-87600000D02*
X131700000Y-116200000D01*
X131250000Y-123900000D02*
X131250000Y-120650000D01*
X183350000Y-40430000D02*
X182040000Y-39120000D01*
X183400000Y-46200000D02*
X183350000Y-46150000D01*
X131700000Y-54050000D02*
X131700000Y-76250000D01*
%TO.N,/D8*%
X135800000Y-110450000D02*
X134300000Y-110450000D01*
X136700000Y-58200000D02*
X136300000Y-58600000D01*
X134300000Y-110450000D02*
X133500000Y-111250000D01*
X133500000Y-111250000D02*
X133500000Y-115100000D01*
X136300000Y-58600000D02*
X136300000Y-109950000D01*
X136750000Y-46200000D02*
X136700000Y-46250000D01*
X136300000Y-109950000D02*
X135800000Y-110450000D01*
X136700000Y-46250000D02*
X136700000Y-58200000D01*
%TO.N,/D0*%
X157100000Y-117250000D02*
X156550000Y-117800000D01*
X131300000Y-87050000D02*
X131300000Y-77450000D01*
X160580000Y-117070000D02*
X160400000Y-117250000D01*
X130900000Y-87450000D02*
X131300000Y-87050000D01*
X182050000Y-86350000D02*
X182040000Y-86340000D01*
X130900000Y-97550000D02*
X130900000Y-87450000D01*
X164600000Y-116650000D02*
X164600000Y-86400000D01*
X160400000Y-117250000D02*
X157100000Y-117250000D01*
X145200000Y-97600000D02*
X145200000Y-117850000D01*
X182040000Y-86340000D02*
X182040000Y-44200000D01*
X160580000Y-116630000D02*
X160580000Y-117070000D01*
%TO.N,/D4*%
X178300000Y-78250000D02*
X178300000Y-59050000D01*
X179600000Y-120750000D02*
X179600000Y-78900000D01*
X179350000Y-78650000D02*
X178700000Y-78650000D01*
X178700000Y-78650000D02*
X178300000Y-78250000D01*
X179600000Y-78900000D02*
X179350000Y-78650000D01*
%TO.N,/D9*%
X128400000Y-115850000D02*
X128350000Y-115850000D01*
X129350000Y-81200000D02*
X129100000Y-81450000D01*
X128150000Y-123150000D02*
X128150000Y-118350000D01*
X128950000Y-56450000D02*
X128950000Y-80650000D01*
X129350000Y-81050000D02*
X129350000Y-81200000D01*
X128950000Y-80650000D02*
X129350000Y-81050000D01*
X128350000Y-115850000D02*
X128150000Y-116050000D01*
X185850000Y-56450000D02*
X185850000Y-40390000D01*
X129100000Y-115150000D02*
X128400000Y-115850000D01*
X185850000Y-40390000D02*
X184580000Y-39120000D01*
X129100000Y-81450000D02*
X129100000Y-115150000D01*
X128150000Y-116050000D02*
X128150000Y-118350000D01*
%TO.N,/D2*%
X187100000Y-44220000D02*
X187120000Y-44200000D01*
X170450000Y-121600000D02*
X170450000Y-116000000D01*
X186600000Y-65600000D02*
X186600000Y-61240202D01*
X186600000Y-61240202D02*
X187100000Y-60740202D01*
X187100000Y-60740202D02*
X187100000Y-44220000D01*
X187000000Y-66000000D02*
X186600000Y-65600000D01*
X169750000Y-122300000D02*
X170450000Y-121600000D01*
X187000000Y-96050000D02*
X187000000Y-66000000D01*
X170450000Y-116000000D02*
X170450000Y-96050000D01*
%TO.N,/D7*%
X182100000Y-116600000D02*
X182100000Y-128550000D01*
X155300000Y-128550000D02*
X155300000Y-116950000D01*
X155300000Y-116950000D02*
X155250000Y-116900000D01*
%TO.N,/D6*%
X178600000Y-118400000D02*
X178600000Y-123300000D01*
X184300000Y-88600000D02*
X184500000Y-88400000D01*
X192200000Y-40600000D02*
X192200000Y-39120000D01*
X190900000Y-57450000D02*
X190900000Y-41350000D01*
X184500000Y-88400000D02*
X185650000Y-88400000D01*
X161600000Y-123350000D02*
X161600000Y-117850000D01*
X185900000Y-88150000D02*
X185900000Y-57800000D01*
X191300000Y-40950000D02*
X191850000Y-40950000D01*
X184300000Y-117850000D02*
X184300000Y-88600000D01*
X189800000Y-57750000D02*
X190600000Y-57750000D01*
X190900000Y-41350000D02*
X191300000Y-40950000D01*
X190600000Y-57750000D02*
X190900000Y-57450000D01*
X191850000Y-40950000D02*
X192200000Y-40600000D01*
X185650000Y-88400000D02*
X185900000Y-88150000D01*
%TO.N,/D1*%
X184500000Y-87050000D02*
X184580000Y-86970000D01*
X146150000Y-98300000D02*
X146100000Y-98350000D01*
X156950000Y-118700000D02*
X160550000Y-118700000D01*
X184580000Y-86970000D02*
X184580000Y-44200000D01*
X134050000Y-98300000D02*
X134050000Y-79350000D01*
X167250000Y-118700000D02*
X167250000Y-87050000D01*
X146100000Y-98350000D02*
X146100000Y-119100000D01*
X133400000Y-78700000D02*
X133400000Y-76200000D01*
X134050000Y-79350000D02*
X133400000Y-78700000D01*
X156550000Y-119100000D02*
X156950000Y-118700000D01*
%TO.N,/D5*%
X181050000Y-119500000D02*
X181050000Y-124350000D01*
X160550000Y-124350000D02*
X160550000Y-119850000D01*
%TD*%
M02*
