%TF.GenerationSoftware,KiCad,Pcbnew,8.0.3*%
%TF.CreationDate,2024-10-04T18:37:16+02:00*%
%TF.ProjectId,ARIII,41524949-492e-46b6-9963-61645f706362,rev?*%
%TF.SameCoordinates,Original*%
%TF.FileFunction,Soldermask,Bot*%
%TF.FilePolarity,Negative*%
%FSLAX46Y46*%
G04 Gerber Fmt 4.6, Leading zero omitted, Abs format (unit mm)*
G04 Created by KiCad (PCBNEW 8.0.3) date 2024-10-04 18:37:16*
%MOMM*%
%LPD*%
G01*
G04 APERTURE LIST*
%ADD10C,1.635000*%
%ADD11C,1.303000*%
%ADD12R,1.500000X1.500000*%
%ADD13C,1.600000*%
%ADD14C,1.500000*%
%ADD15R,1.600000X1.600000*%
%ADD16R,1.800000X1.800000*%
%ADD17C,1.800000*%
G04 APERTURE END LIST*
D10*
%TO.C,CN1*%
X88060000Y-44200000D03*
X88060000Y-39120000D03*
X90600000Y-44200000D03*
X90600000Y-39120000D03*
X93140000Y-44200000D03*
X93140000Y-39120000D03*
X95680000Y-44200000D03*
X95680000Y-39120000D03*
X98220000Y-44200000D03*
X98220000Y-39120000D03*
X100760000Y-44200000D03*
X100760000Y-39120000D03*
X103300000Y-44200000D03*
X103300000Y-39120000D03*
X105840000Y-44200000D03*
X105840000Y-39120000D03*
X108380000Y-44200000D03*
X108380000Y-39120000D03*
X110920000Y-44200000D03*
X110920000Y-39120000D03*
X113460000Y-44200000D03*
X113460000Y-39120000D03*
X116000000Y-44200000D03*
X116000000Y-39120000D03*
X118540000Y-44200000D03*
X118540000Y-39120000D03*
X121080000Y-44200000D03*
X121080000Y-39120000D03*
X123620000Y-44200000D03*
X123620000Y-39120000D03*
X126160000Y-44200000D03*
X126160000Y-39120000D03*
X128700000Y-44200000D03*
X128700000Y-39120000D03*
X131240000Y-44200000D03*
X131240000Y-39120000D03*
X133780000Y-44200000D03*
X133780000Y-39120000D03*
X136320000Y-44200000D03*
X136320000Y-39120000D03*
X138860000Y-44200000D03*
X138860000Y-39120000D03*
X141400000Y-44200000D03*
X141400000Y-39120000D03*
X143940000Y-44200000D03*
X143940000Y-39120000D03*
X146480000Y-44200000D03*
X146480000Y-39120000D03*
X149020000Y-44200000D03*
X149020000Y-39120000D03*
X151560000Y-44200000D03*
X151560000Y-39120000D03*
X154100000Y-44200000D03*
X154100000Y-39120000D03*
X156640000Y-44200000D03*
X156640000Y-39120000D03*
X159180000Y-44200000D03*
X159180000Y-39120000D03*
X161720000Y-44200000D03*
X161720000Y-39120000D03*
X164260000Y-44200000D03*
X164260000Y-39120000D03*
X166800000Y-44200000D03*
X166800000Y-39120000D03*
X169340000Y-44200000D03*
X169340000Y-39120000D03*
X171880000Y-44200000D03*
X171880000Y-39120000D03*
X174420000Y-44200000D03*
X174420000Y-39120000D03*
X176960000Y-44200000D03*
X176960000Y-39120000D03*
X179500000Y-44200000D03*
X179500000Y-39120000D03*
X182040000Y-44200000D03*
X182040000Y-39120000D03*
X184580000Y-44200000D03*
X184580000Y-39120000D03*
X187120000Y-44200000D03*
X187120000Y-39120000D03*
X189660000Y-44200000D03*
X189660000Y-39120000D03*
X192200000Y-44200000D03*
X192200000Y-39120000D03*
X194740000Y-44200000D03*
X194740000Y-39120000D03*
%TD*%
D11*
%TO.C,VR1*%
X191090000Y-122080000D03*
X188550000Y-117000000D03*
X186010000Y-122080000D03*
%TD*%
D12*
%TO.C,SW2*%
X188500000Y-101690000D03*
D13*
X188500000Y-104230000D03*
X188500000Y-99150000D03*
%TD*%
D12*
%TO.C,Q2*%
X88900000Y-69200000D03*
D14*
X88900000Y-71740000D03*
X88900000Y-74280000D03*
%TD*%
D15*
%TO.C,C1*%
X94000000Y-126944888D03*
D13*
X94000000Y-129444888D03*
%TD*%
D16*
%TO.C,D2*%
X94450000Y-99225000D03*
D17*
X94450000Y-101765000D03*
%TD*%
D12*
%TO.C,Q1*%
X92600000Y-69200000D03*
D14*
X92600000Y-71740000D03*
X92600000Y-74280000D03*
%TD*%
D16*
%TO.C,SW1*%
X91677500Y-115377500D03*
D17*
X96677500Y-115377500D03*
X91677500Y-120377500D03*
X96677500Y-120377500D03*
%TD*%
D15*
%TO.C,C6*%
X89950000Y-87650000D03*
D13*
X87450000Y-87650000D03*
%TD*%
D16*
%TO.C,D1*%
X188850000Y-92700000D03*
D17*
X188850000Y-90160000D03*
%TD*%
M02*
