%TF.GenerationSoftware,KiCad,Pcbnew,8.0.3*%
%TF.CreationDate,2024-07-12T17:40:13+02:00*%
%TF.ProjectId,ARIII,41524949-492e-46b6-9963-61645f706362,rev?*%
%TF.SameCoordinates,Original*%
%TF.FileFunction,Copper,L2,Bot*%
%TF.FilePolarity,Positive*%
%FSLAX46Y46*%
G04 Gerber Fmt 4.6, Leading zero omitted, Abs format (unit mm)*
G04 Created by KiCad (PCBNEW 8.0.3) date 2024-07-12 17:40:13*
%MOMM*%
%LPD*%
G01*
G04 APERTURE LIST*
%TA.AperFunction,ComponentPad*%
%ADD10C,1.303000*%
%TD*%
%TA.AperFunction,ComponentPad*%
%ADD11R,1.500000X1.500000*%
%TD*%
%TA.AperFunction,ComponentPad*%
%ADD12C,1.600000*%
%TD*%
%TA.AperFunction,ComponentPad*%
%ADD13C,1.500000*%
%TD*%
%TA.AperFunction,ComponentPad*%
%ADD14R,1.600000X1.600000*%
%TD*%
%TA.AperFunction,ComponentPad*%
%ADD15R,1.800000X1.800000*%
%TD*%
%TA.AperFunction,ComponentPad*%
%ADD16C,1.800000*%
%TD*%
%TA.AperFunction,ComponentPad*%
%ADD17C,1.635000*%
%TD*%
%TA.AperFunction,ViaPad*%
%ADD18C,0.600000*%
%TD*%
%TA.AperFunction,Conductor*%
%ADD19C,0.200000*%
%TD*%
%TA.AperFunction,Conductor*%
%ADD20C,0.400000*%
%TD*%
G04 APERTURE END LIST*
D10*
%TO.P,VR1,1,CCW*%
%TO.N,+5V*%
X190940000Y-125000000D03*
%TO.P,VR1,2,WIPER*%
X188400000Y-119920000D03*
%TO.P,VR1,3,CW*%
%TO.N,Net-(U11-DIS)*%
X185860000Y-125000000D03*
%TD*%
D11*
%TO.P,SW2,1,B*%
%TO.N,Net-(D1-K)*%
X189300000Y-102140000D03*
D12*
%TO.P,SW2,2,C*%
%TO.N,GND*%
X189300000Y-104680000D03*
%TO.P,SW2,3,A*%
%TO.N,Net-(D1-K)*%
X189300000Y-99600000D03*
%TD*%
D11*
%TO.P,Q2,1,D*%
%TO.N,/A22*%
X88300000Y-69160000D03*
D13*
%TO.P,Q2,2,G*%
%TO.N,Net-(Q1-G)*%
X88300000Y-71700000D03*
%TO.P,Q2,3,S*%
%TO.N,+5V*%
X88300000Y-74240000D03*
%TD*%
D14*
%TO.P,C1,1*%
%TO.N,Net-(U11-DIS)*%
X93400000Y-126994888D03*
D12*
%TO.P,C1,2*%
%TO.N,GND*%
X93400000Y-129494888D03*
%TD*%
D15*
%TO.P,D2,1,K*%
%TO.N,GND*%
X94000000Y-99525000D03*
D16*
%TO.P,D2,2,A*%
%TO.N,Net-(D2-A)*%
X94000000Y-102065000D03*
%TD*%
D11*
%TO.P,Q1,1,D*%
%TO.N,/A22*%
X92740000Y-69160000D03*
D13*
%TO.P,Q1,2,G*%
%TO.N,Net-(Q1-G)*%
X92740000Y-71700000D03*
%TO.P,Q1,3,S*%
%TO.N,+5V*%
X92740000Y-74240000D03*
%TD*%
D15*
%TO.P,SW1,1,1*%
%TO.N,Net-(U3-I6)*%
X91400000Y-114850000D03*
D16*
%TO.P,SW1,2,2*%
%TO.N,GND*%
X96400000Y-114850000D03*
%TO.P,SW1,3,3*%
%TO.N,Net-(U3-I6)*%
X91400000Y-119850000D03*
%TO.P,SW1,4,4*%
%TO.N,GND*%
X96400000Y-119850000D03*
%TD*%
D17*
%TO.P,CN1,1,1*%
%TO.N,GND*%
X88060000Y-39120000D03*
%TO.P,CN1,2,2*%
X88060000Y-44200000D03*
%TO.P,CN1,3,3*%
X90600000Y-39120000D03*
%TO.P,CN1,4,4*%
X90600000Y-44200000D03*
%TO.P,CN1,5,5*%
%TO.N,+5V*%
X93140000Y-39120000D03*
%TO.P,CN1,6,6*%
%TO.N,unconnected-(CN1-Pad6)*%
X93140000Y-44200000D03*
%TO.P,CN1,7,7*%
%TO.N,unconnected-(CN1-Pad7)*%
X95680000Y-39120000D03*
%TO.P,CN1,8,8*%
%TO.N,unconnected-(CN1-Pad8)*%
X95680000Y-44200000D03*
%TO.P,CN1,9,9*%
%TO.N,unconnected-(CN1-Pad9)*%
X98220000Y-39120000D03*
%TO.P,CN1,10,10*%
%TO.N,unconnected-(CN1-Pad10)*%
X98220000Y-44200000D03*
%TO.P,CN1,11,11*%
%TO.N,unconnected-(CN1-Pad11)*%
X100760000Y-39120000D03*
%TO.P,CN1,12,12*%
%TO.N,unconnected-(CN1-Pad12)*%
X100760000Y-44200000D03*
%TO.P,CN1,13,13*%
%TO.N,unconnected-(CN1-Pad13)*%
X103300000Y-39120000D03*
%TO.P,CN1,14,14*%
%TO.N,unconnected-(CN1-Pad14)*%
X103300000Y-44200000D03*
%TO.P,CN1,15,15*%
%TO.N,unconnected-(CN1-Pad15)*%
X105840000Y-39120000D03*
%TO.P,CN1,16,16*%
%TO.N,unconnected-(CN1-Pad16)*%
X105840000Y-44200000D03*
%TO.P,CN1,17,17*%
%TO.N,unconnected-(CN1-Pad17)*%
X108380000Y-39120000D03*
%TO.P,CN1,18,18*%
%TO.N,unconnected-(CN1-Pad18)*%
X108380000Y-44200000D03*
%TO.P,CN1,19,19*%
%TO.N,unconnected-(CN1-Pad19)*%
X110920000Y-39120000D03*
%TO.P,CN1,20,20*%
%TO.N,unconnected-(CN1-Pad20)*%
X110920000Y-44200000D03*
%TO.P,CN1,21,21*%
%TO.N,unconnected-(CN1-Pad21)*%
X113460000Y-39120000D03*
%TO.P,CN1,22,22*%
%TO.N,/A5*%
X113460000Y-44200000D03*
%TO.P,CN1,23,23*%
%TO.N,/A4*%
X116000000Y-39120000D03*
%TO.P,CN1,24,24*%
%TO.N,/A6*%
X116000000Y-44200000D03*
%TO.P,CN1,25,25*%
%TO.N,/A3*%
X118540000Y-39120000D03*
%TO.P,CN1,26,26*%
%TO.N,unconnected-(CN1-Pad26)*%
X118540000Y-44200000D03*
%TO.P,CN1,27,27*%
%TO.N,/A7*%
X121080000Y-39120000D03*
%TO.P,CN1,28,28*%
%TO.N,/A2*%
X121080000Y-44200000D03*
%TO.P,CN1,29,29*%
%TO.N,/A8*%
X123620000Y-39120000D03*
%TO.P,CN1,30,30*%
%TO.N,/A1*%
X123620000Y-44200000D03*
%TO.P,CN1,31,31*%
%TO.N,/A9*%
X126160000Y-39120000D03*
%TO.P,CN1,32,32*%
%TO.N,/~{FC0}*%
X126160000Y-44200000D03*
%TO.P,CN1,33,33*%
%TO.N,/A10*%
X128700000Y-39120000D03*
%TO.P,CN1,34,34*%
%TO.N,/~{FC1}*%
X128700000Y-44200000D03*
%TO.P,CN1,35,35*%
%TO.N,/A11*%
X131240000Y-39120000D03*
%TO.P,CN1,36,36*%
%TO.N,unconnected-(CN1-Pad36)*%
X131240000Y-44200000D03*
%TO.P,CN1,37,37*%
%TO.N,/A12*%
X133780000Y-39120000D03*
%TO.P,CN1,38,38*%
%TO.N,unconnected-(CN1-Pad38)*%
X133780000Y-44200000D03*
%TO.P,CN1,39,39*%
%TO.N,/~{IPL0}*%
X136320000Y-39120000D03*
%TO.P,CN1,40,40*%
%TO.N,/A13*%
X136320000Y-44200000D03*
%TO.P,CN1,41,41*%
%TO.N,/~{IPL1}*%
X138860000Y-39120000D03*
%TO.P,CN1,42,42*%
%TO.N,/A14*%
X138860000Y-44200000D03*
%TO.P,CN1,43,43*%
%TO.N,/~{IPL2}*%
X141400000Y-39120000D03*
%TO.P,CN1,44,44*%
%TO.N,/A15*%
X141400000Y-44200000D03*
%TO.P,CN1,45,45*%
%TO.N,unconnected-(CN1-Pad45)*%
X143940000Y-39120000D03*
%TO.P,CN1,46,46*%
%TO.N,/A16*%
X143940000Y-44200000D03*
%TO.P,CN1,47,47*%
%TO.N,unconnected-(CN1-Pad47)*%
X146480000Y-39120000D03*
%TO.P,CN1,48,48*%
%TO.N,/A17*%
X146480000Y-44200000D03*
%TO.P,CN1,49,49*%
%TO.N,unconnected-(CN1-Pad49)*%
X149020000Y-39120000D03*
%TO.P,CN1,50,50*%
%TO.N,unconnected-(CN1-Pad50)*%
X149020000Y-44200000D03*
%TO.P,CN1,51,51*%
%TO.N,/A18*%
X151560000Y-39120000D03*
%TO.P,CN1,52,52*%
%TO.N,unconnected-(CN1-Pad52)*%
X151560000Y-44200000D03*
%TO.P,CN1,53,53*%
%TO.N,/A19*%
X154100000Y-39120000D03*
%TO.P,CN1,54,54*%
%TO.N,/~{RST}*%
X154100000Y-44200000D03*
%TO.P,CN1,55,55*%
%TO.N,/A20*%
X156640000Y-39120000D03*
%TO.P,CN1,56,56*%
%TO.N,/~{HLT}*%
X156640000Y-44200000D03*
%TO.P,CN1,57,57*%
%TO.N,/A21*%
X159180000Y-39120000D03*
%TO.P,CN1,58,58*%
%TO.N,/A22*%
X159180000Y-44200000D03*
%TO.P,CN1,59,59*%
%TO.N,unconnected-(CN1-Pad59)*%
X161720000Y-39120000D03*
%TO.P,CN1,60,60*%
%TO.N,/A23*%
X161720000Y-44200000D03*
%TO.P,CN1,61,61*%
%TO.N,unconnected-(CN1-Pad61)*%
X164260000Y-39120000D03*
%TO.P,CN1,62,62*%
%TO.N,unconnected-(CN1-Pad62)*%
X164260000Y-44200000D03*
%TO.P,CN1,63,63*%
%TO.N,unconnected-(CN1-Pad63)*%
X166800000Y-39120000D03*
%TO.P,CN1,64,64*%
%TO.N,/D15*%
X166800000Y-44200000D03*
%TO.P,CN1,65,65*%
%TO.N,unconnected-(CN1-Pad65)*%
X169340000Y-39120000D03*
%TO.P,CN1,66,66*%
%TO.N,/D14*%
X169340000Y-44200000D03*
%TO.P,CN1,67,67*%
%TO.N,/R_W*%
X171880000Y-39120000D03*
%TO.P,CN1,68,68*%
%TO.N,/D13*%
X171880000Y-44200000D03*
%TO.P,CN1,69,69*%
%TO.N,/~{LDS}*%
X174420000Y-39120000D03*
%TO.P,CN1,70,70*%
%TO.N,/D12*%
X174420000Y-44200000D03*
%TO.P,CN1,71,71*%
%TO.N,/~{UDS}*%
X176960000Y-39120000D03*
%TO.P,CN1,72,72*%
%TO.N,/D11*%
X176960000Y-44200000D03*
%TO.P,CN1,73,73*%
%TO.N,/~{AS}*%
X179500000Y-39120000D03*
%TO.P,CN1,74,74*%
%TO.N,GND*%
X179500000Y-44200000D03*
%TO.P,CN1,75,75*%
%TO.N,/D10*%
X182040000Y-39120000D03*
%TO.P,CN1,76,76*%
%TO.N,/D0*%
X182040000Y-44200000D03*
%TO.P,CN1,77,77*%
%TO.N,/D9*%
X184580000Y-39120000D03*
%TO.P,CN1,78,78*%
%TO.N,/D1*%
X184580000Y-44200000D03*
%TO.P,CN1,79,79*%
%TO.N,/D8*%
X187120000Y-39120000D03*
%TO.P,CN1,80,80*%
%TO.N,/D2*%
X187120000Y-44200000D03*
%TO.P,CN1,81,81*%
%TO.N,/D7*%
X189660000Y-39120000D03*
%TO.P,CN1,82,82*%
%TO.N,/D3*%
X189660000Y-44200000D03*
%TO.P,CN1,83,83*%
%TO.N,/D6*%
X192200000Y-39120000D03*
%TO.P,CN1,84,84*%
%TO.N,/D4*%
X192200000Y-44200000D03*
%TO.P,CN1,85,85*%
%TO.N,/D5*%
X194740000Y-39120000D03*
%TO.P,CN1,86,86*%
%TO.N,unconnected-(CN1-Pad86)*%
X194740000Y-44200000D03*
%TD*%
D14*
%TO.P,C6,1*%
%TO.N,Net-(D3-K)*%
X89500000Y-88000000D03*
D12*
%TO.P,C6,2*%
%TO.N,GND*%
X87000000Y-88000000D03*
%TD*%
D15*
%TO.P,D1,1,K*%
%TO.N,Net-(D1-K)*%
X189650000Y-93275000D03*
D16*
%TO.P,D1,2,A*%
%TO.N,Net-(D1-A)*%
X189650000Y-90735000D03*
%TD*%
D18*
%TO.N,Net-(U3-I6)*%
X133800000Y-80650000D03*
X133800000Y-93150000D03*
X90100000Y-98750000D03*
%TO.N,Net-(U10-~{CE})*%
X127200000Y-73700000D03*
X113150000Y-64600000D03*
X112400000Y-116650000D03*
X127200000Y-64600000D03*
%TO.N,Net-(U2-IO1)*%
X164600000Y-75000000D03*
X120400000Y-78000000D03*
X144400000Y-77600000D03*
X145500000Y-61600000D03*
X164800000Y-61600000D03*
X118900000Y-61600000D03*
%TO.N,/A5*%
X156700000Y-112050000D03*
X122600000Y-110950000D03*
X122600000Y-102500000D03*
X158450000Y-77400000D03*
X156700000Y-94200000D03*
X122600000Y-94700000D03*
X113400000Y-102500000D03*
X113400000Y-112600000D03*
%TO.N,/A8*%
X166100000Y-94900000D03*
X148250000Y-94900000D03*
X147330000Y-108830000D03*
X159050000Y-94900000D03*
X116900000Y-95600000D03*
X127800000Y-95600000D03*
X161200000Y-77300000D03*
X110750000Y-95550000D03*
X127800000Y-104250000D03*
X110750000Y-108800000D03*
X166100000Y-107650000D03*
X119900000Y-62450000D03*
X116900000Y-62450000D03*
%TO.N,/~{IPL2}*%
X106270000Y-73000000D03*
X142750000Y-47050000D03*
X106300000Y-45750000D03*
%TO.N,/A15*%
X141650000Y-100000000D03*
X139650000Y-100000000D03*
X139650000Y-106000000D03*
X106850000Y-98950000D03*
X106850000Y-106250000D03*
X169150000Y-88750000D03*
X169100000Y-100000000D03*
%TO.N,GND*%
X96100000Y-54900000D03*
X109050000Y-124050000D03*
X159400000Y-87100000D03*
X174400000Y-95850000D03*
X120400000Y-79100000D03*
X180650000Y-52450000D03*
X157750000Y-71200000D03*
X132800000Y-127050000D03*
X174400000Y-115850000D03*
X159400000Y-80400000D03*
X96100000Y-89200000D03*
X87000000Y-113000000D03*
X87000000Y-105200000D03*
X159400000Y-52300000D03*
X174400000Y-85600000D03*
X118900000Y-89200000D03*
X96100000Y-113000000D03*
X132800000Y-124550000D03*
X132800000Y-121800000D03*
X109050000Y-127050000D03*
X187300000Y-110950000D03*
%TO.N,+5V*%
X118900000Y-105050000D03*
X188450000Y-107837500D03*
X179850000Y-103050000D03*
X179800000Y-94050000D03*
X101150000Y-93950000D03*
X94400000Y-48200000D03*
X107600000Y-71500000D03*
X160950000Y-106250000D03*
X135250000Y-100800000D03*
X107600000Y-56100000D03*
X118000000Y-56100000D03*
X159250000Y-100875000D03*
X177250000Y-100850000D03*
X97700000Y-74250000D03*
X118000000Y-73000000D03*
X101150000Y-110500000D03*
X135250000Y-103450000D03*
X118900000Y-100800000D03*
X177300000Y-103050000D03*
X101200000Y-105300000D03*
X97700000Y-56100000D03*
%TO.N,/~{OE}*%
X116100000Y-113900000D03*
X139450000Y-88800000D03*
X116100000Y-87450000D03*
X116100000Y-79300000D03*
X139450000Y-81800000D03*
X137800000Y-113900000D03*
X138200000Y-84100000D03*
%TO.N,Net-(U4-IO4)*%
X130747500Y-79252500D03*
X154150000Y-64900000D03*
X156850000Y-116450000D03*
X131200000Y-64900000D03*
X157500000Y-87150000D03*
X154150000Y-87150000D03*
%TO.N,Net-(U4-IO5)*%
X130200000Y-80500000D03*
X130200000Y-114600000D03*
%TO.N,/A1*%
X147300000Y-117700000D03*
X123350000Y-115700000D03*
X126350000Y-125850000D03*
X147300000Y-125850000D03*
X164450000Y-116550000D03*
X125950000Y-116400000D03*
X164500000Y-84300000D03*
%TO.N,Net-(U4-IO8)*%
X182200000Y-98800000D03*
X122250000Y-79950000D03*
X121750000Y-96450000D03*
X182200000Y-116150000D03*
%TO.N,/A16*%
X133600000Y-103500000D03*
X170150000Y-80800000D03*
X168500000Y-62500000D03*
X170150000Y-103600000D03*
X168450000Y-79400000D03*
X143950000Y-62450000D03*
X134250000Y-62450000D03*
%TO.N,Net-(U2-I8)*%
X148400000Y-87750000D03*
X126450000Y-84700000D03*
X126400000Y-87750000D03*
X148450000Y-82750000D03*
%TO.N,Net-(U2-I9)*%
X128750000Y-82450000D03*
X147200000Y-92150000D03*
X147200000Y-83700000D03*
X128700000Y-92150000D03*
%TO.N,Net-(U3-IO4)*%
X121800000Y-88350000D03*
X144200000Y-79350000D03*
X121800000Y-81400000D03*
X144850000Y-88550000D03*
%TO.N,/A9*%
X178200000Y-81650000D03*
X118650000Y-130400000D03*
X116900000Y-110050000D03*
X141850000Y-130400000D03*
X124950000Y-108750000D03*
X177500000Y-110200000D03*
X141850000Y-110050000D03*
%TO.N,Net-(U2-IO7)*%
X143950000Y-86900000D03*
X120400000Y-76850000D03*
X143950000Y-81400000D03*
X140750000Y-66500000D03*
X140750000Y-77050000D03*
X120400000Y-66500000D03*
%TO.N,Net-(U2-IO8)*%
X150500000Y-85500000D03*
X138250000Y-72100000D03*
X150450000Y-72100000D03*
X138250000Y-74100000D03*
%TO.N,Net-(U3-IO2)*%
X147400000Y-71300000D03*
X147400000Y-75450000D03*
%TO.N,Net-(U3-I03)*%
X153100000Y-70500000D03*
X153100000Y-78100000D03*
%TO.N,Net-(U3-I5)*%
X134700000Y-65650000D03*
X109400000Y-85450000D03*
X109400000Y-65650000D03*
X134700000Y-78150000D03*
%TO.N,Net-(U2-IO6)*%
X165500000Y-83050000D03*
X165550000Y-60200000D03*
X137700000Y-83200000D03*
X137300000Y-60200000D03*
%TO.N,Net-(U3-IO5)*%
X148450000Y-68550000D03*
X148450000Y-80700000D03*
%TO.N,/~{FC0}*%
X126450000Y-83400000D03*
%TO.N,/A17*%
X146500000Y-65750000D03*
%TO.N,Net-(U1-IO8)*%
X169150000Y-76900000D03*
X169150000Y-86350000D03*
%TO.N,Net-(U1-IO2)*%
X170050000Y-78150000D03*
X170050000Y-71300000D03*
%TO.N,/A18*%
X153000000Y-63900000D03*
X171900000Y-78100000D03*
X171900000Y-63900000D03*
%TO.N,Net-(U1-IO1)*%
X166800000Y-71650000D03*
X166800000Y-79400000D03*
%TO.N,Net-(Q1-G)*%
X101200000Y-71950000D03*
X101200000Y-51650000D03*
X101200000Y-68000000D03*
%TO.N,Net-(D1-K)*%
X105750000Y-79050000D03*
X186200000Y-93350000D03*
X182250000Y-90500000D03*
X182250000Y-97700000D03*
X105700000Y-90500000D03*
X186200000Y-99950000D03*
%TO.N,/A19*%
X155400000Y-66650000D03*
%TO.N,/A10*%
X127050000Y-92250000D03*
X177100000Y-81700000D03*
X176050000Y-111500000D03*
X120800000Y-111300000D03*
X120800000Y-92700000D03*
%TO.N,/~{FC1}*%
X128050000Y-67600000D03*
X160600000Y-67650000D03*
X160600000Y-81350000D03*
%TO.N,Net-(U5-I7)*%
X117460000Y-51390000D03*
X96950000Y-80322500D03*
X109150000Y-48650000D03*
X96950000Y-60000000D03*
X117400000Y-48650000D03*
X109150000Y-60000000D03*
%TO.N,Net-(U5-IO5)*%
X115250000Y-60800000D03*
X115250000Y-51150000D03*
X112350000Y-60800000D03*
X112350000Y-80322500D03*
%TO.N,Net-(U5-IO6)*%
X108400000Y-61950000D03*
X108400000Y-83350000D03*
%TO.N,/A11*%
X137500000Y-86900000D03*
X136650000Y-113900000D03*
X147450000Y-98400000D03*
X176250000Y-98650000D03*
X142850000Y-86900000D03*
X142850000Y-48900000D03*
X137500000Y-103400000D03*
X147450000Y-103400000D03*
X176250000Y-92050000D03*
X191750000Y-115300000D03*
X163550000Y-115100000D03*
X191750000Y-92000000D03*
X143600000Y-115150000D03*
X191750000Y-85800000D03*
X129950000Y-48900000D03*
X163550000Y-98650000D03*
X113350000Y-114750000D03*
%TO.N,/A12*%
X133000000Y-112600000D03*
X174150000Y-83300000D03*
X173350000Y-112750000D03*
%TO.N,/~{IPL0}*%
X110432500Y-77782500D03*
X110450000Y-68500000D03*
X137950000Y-68500000D03*
%TO.N,/~{RST}*%
X103150000Y-80700000D03*
X103150000Y-63900000D03*
X148900000Y-63900000D03*
X148900000Y-49250000D03*
X154100000Y-49250000D03*
%TO.N,/A13*%
X179500000Y-80700000D03*
X150450000Y-104400000D03*
X128500000Y-103200000D03*
X150450000Y-97350000D03*
X160550000Y-91300000D03*
X179500000Y-91300000D03*
X135350000Y-108450000D03*
X160550000Y-103700000D03*
X128500000Y-98100000D03*
X111600000Y-107500000D03*
X111650000Y-98050000D03*
%TO.N,/A20*%
X157900000Y-64950000D03*
X170950000Y-76800000D03*
X170900000Y-64950000D03*
%TO.N,/~{IPL1}*%
X140150000Y-48000000D03*
X105500000Y-46950000D03*
X105500000Y-77400000D03*
%TO.N,/A14*%
X181450000Y-93100000D03*
X181450000Y-79450000D03*
X181450000Y-108900000D03*
X141850000Y-108800000D03*
X140500000Y-93000000D03*
%TO.N,/~{HLT}*%
X111500000Y-49500000D03*
X111150000Y-79050000D03*
X156650000Y-51600000D03*
%TO.N,/A21*%
X169200000Y-54800000D03*
X169200000Y-74900000D03*
X160400000Y-54800000D03*
%TO.N,/A22*%
X177950000Y-77550000D03*
X159200000Y-47250000D03*
X145700000Y-47250000D03*
X88350000Y-66950000D03*
X177800000Y-47250000D03*
X145700000Y-51800000D03*
X98900000Y-66950000D03*
X98900000Y-50500000D03*
%TO.N,Net-(U11-DIS)*%
X93400000Y-108300000D03*
%TO.N,Net-(D3-A)*%
X101450000Y-92500000D03*
X88850000Y-90050000D03*
X88850000Y-107800000D03*
X101450000Y-77800000D03*
%TO.N,Net-(D3-K)*%
X92750000Y-106600000D03*
%TO.N,/A23*%
X161700000Y-56100000D03*
X180600000Y-56100000D03*
X181100000Y-77500000D03*
%TO.N,/D15*%
X144850000Y-95800000D03*
X144850000Y-117700000D03*
X116050000Y-117700000D03*
X139650000Y-118700000D03*
X163500000Y-95800000D03*
%TO.N,/A3*%
X121800000Y-99700000D03*
X155800000Y-115000000D03*
X158550000Y-88050000D03*
X104600000Y-40500000D03*
X104550000Y-99700000D03*
X121800000Y-113750000D03*
X104600000Y-115200000D03*
X135500000Y-113900000D03*
X135500000Y-116900000D03*
X155800000Y-88050000D03*
X158550000Y-79500000D03*
%TO.N,/A4*%
X124700000Y-125800000D03*
X153350000Y-129600000D03*
X153600000Y-113800000D03*
X124700000Y-112600000D03*
X114250000Y-113865000D03*
X124700000Y-129600000D03*
X106650000Y-125800000D03*
X106650000Y-113850000D03*
X154950000Y-74800000D03*
%TO.N,/A6*%
X151850000Y-111400000D03*
X115350000Y-111300000D03*
X124250000Y-110100000D03*
X115350000Y-101600000D03*
X124250000Y-101750000D03*
X151400000Y-101750000D03*
X151450000Y-79350000D03*
%TO.N,/A7*%
X126850000Y-94750000D03*
X105700000Y-110050000D03*
X162550000Y-104900000D03*
X122750000Y-91950000D03*
X162500000Y-78050000D03*
X105700000Y-91950000D03*
X105700000Y-97250000D03*
X126850000Y-105000000D03*
X154900000Y-104900000D03*
X126850000Y-97250000D03*
X154900000Y-94150000D03*
%TO.N,/A2*%
X105600000Y-116400000D03*
X119850000Y-94650000D03*
X152750000Y-116450000D03*
X126050000Y-103250000D03*
X149250000Y-102500000D03*
X126000000Y-115150000D03*
X152750000Y-99150000D03*
X149250000Y-99200000D03*
X152750000Y-80700000D03*
X103350000Y-94650000D03*
X103400000Y-103250000D03*
%TO.N,/D14*%
X142800000Y-119700000D03*
X122450000Y-118950000D03*
X176600000Y-60000000D03*
X142850000Y-89450000D03*
X138900000Y-119650000D03*
X176150000Y-89450000D03*
X170150000Y-59950000D03*
%TO.N,/R_W*%
X102250000Y-104100000D03*
X171500000Y-59000000D03*
X144750000Y-49850000D03*
X161850000Y-107600000D03*
X102250000Y-76700000D03*
X144750000Y-58950000D03*
X102250000Y-49000000D03*
X161900000Y-58950000D03*
%TO.N,/D13*%
X136600000Y-121250000D03*
X115750000Y-128900000D03*
X172600000Y-126550000D03*
X115800000Y-120500000D03*
X136550000Y-126600000D03*
X136550000Y-128900000D03*
%TO.N,/~{LDS}*%
X146250000Y-69450000D03*
X174150000Y-69450000D03*
X145600000Y-85800000D03*
%TO.N,/D12*%
X137650000Y-123550000D03*
X175450000Y-53700000D03*
X135350000Y-123500000D03*
X135350000Y-121700000D03*
X137650000Y-127500000D03*
X167550000Y-127500000D03*
X167550000Y-53700000D03*
%TO.N,/~{UDS}*%
X127800000Y-86950000D03*
X128050000Y-74900000D03*
X133650000Y-74900000D03*
X133900000Y-58150000D03*
X178850000Y-58150000D03*
%TO.N,/D11*%
X175450000Y-128900000D03*
X140600000Y-128900000D03*
X140600000Y-122700000D03*
%TO.N,/~{AS}*%
X181900000Y-68600000D03*
X111450000Y-81850000D03*
X111450000Y-91250000D03*
X149550000Y-91250000D03*
X149550000Y-68600000D03*
X149550000Y-81950000D03*
%TO.N,/D3*%
X184100000Y-47850000D03*
X184050000Y-122800000D03*
X176250000Y-116450000D03*
X176200000Y-122800000D03*
%TO.N,/D10*%
X132050000Y-53750000D03*
X131550000Y-121800000D03*
X147850000Y-53750000D03*
X147850000Y-46350000D03*
X131800000Y-117400000D03*
X183300000Y-46400000D03*
X131550000Y-125050000D03*
%TO.N,/D8*%
X133600000Y-116150000D03*
X136900000Y-46300000D03*
%TO.N,/D0*%
X145550000Y-98350000D03*
X156950000Y-119000000D03*
X165300000Y-117800000D03*
X145550000Y-118990000D03*
X161150000Y-117800000D03*
X131100000Y-98350000D03*
X182900000Y-87050000D03*
X165300000Y-87050000D03*
X131750000Y-78000000D03*
%TO.N,/D4*%
X179000000Y-59600000D03*
X180650000Y-122000000D03*
%TO.N,/D9*%
X129200000Y-57050000D03*
X185850000Y-57000000D03*
X128250000Y-124250000D03*
X128250000Y-119450000D03*
%TO.N,/D2*%
X171320000Y-117220000D03*
X171350000Y-96900000D03*
X170450000Y-123650000D03*
X188100000Y-96900000D03*
%TO.N,/D7*%
X183050000Y-130000000D03*
X155550000Y-130000000D03*
X183050000Y-117800000D03*
X155550000Y-117900000D03*
%TO.N,/D6*%
X162100000Y-118950000D03*
X190950000Y-57900000D03*
X185950000Y-57950000D03*
X179450000Y-119600000D03*
X179450000Y-124700000D03*
X185350000Y-118950000D03*
X162100000Y-124700000D03*
%TO.N,/D1*%
X168200000Y-119750000D03*
X146500000Y-99150000D03*
X146450000Y-120260000D03*
X168200000Y-87800000D03*
X134600000Y-99100000D03*
X156950000Y-120300000D03*
X133750000Y-76750000D03*
X161150000Y-119750000D03*
X185000000Y-87800000D03*
%TO.N,/D5*%
X161000000Y-125750000D03*
X161000000Y-121000000D03*
X181950000Y-125750000D03*
X181950000Y-121250000D03*
%TD*%
D19*
%TO.N,Net-(U3-I6)*%
X90100000Y-106150000D02*
X91400000Y-107450000D01*
X90100000Y-98750000D02*
X90100000Y-106150000D01*
X91400000Y-107450000D02*
X91400000Y-119850000D01*
X133800000Y-93150000D02*
X133800000Y-80650000D01*
%TO.N,Net-(U10-~{CE})*%
X112400000Y-116650000D02*
X112400000Y-85000000D01*
X113150000Y-84250000D02*
X113150000Y-64600000D01*
X127200000Y-64600000D02*
X127200000Y-73700000D01*
X113050000Y-84350000D02*
X113150000Y-84250000D01*
X112400000Y-85000000D02*
X113050000Y-84350000D01*
%TO.N,Net-(U2-IO1)*%
X119300000Y-78000000D02*
X120400000Y-78000000D01*
X118900000Y-77600000D02*
X119300000Y-78000000D01*
X164800000Y-74800000D02*
X164600000Y-75000000D01*
X145000000Y-77600000D02*
X144400000Y-77600000D01*
X164800000Y-61600000D02*
X164800000Y-74800000D01*
X118900000Y-61600000D02*
X118900000Y-77600000D01*
X145500000Y-61600000D02*
X145500000Y-77100000D01*
X145500000Y-77100000D02*
X145000000Y-77600000D01*
%TO.N,/A5*%
X113400000Y-102500000D02*
X113400000Y-85500000D01*
X156700000Y-77700000D02*
X156700000Y-94200000D01*
X113400000Y-112600000D02*
X113400000Y-102500000D01*
X113900000Y-63050000D02*
X113460000Y-62610000D01*
X122600000Y-102500000D02*
X122600000Y-94700000D01*
X158450000Y-77400000D02*
X157000000Y-77400000D01*
X113460000Y-62610000D02*
X113460000Y-44200000D01*
X157000000Y-77400000D02*
X156700000Y-77700000D01*
X113900000Y-85000000D02*
X113900000Y-63050000D01*
X113400000Y-85500000D02*
X113900000Y-85000000D01*
X122600000Y-110950000D02*
X122600000Y-102500000D01*
X156700000Y-94200000D02*
X156700000Y-112050000D01*
%TO.N,/A8*%
X148250000Y-108050000D02*
X148250000Y-94900000D01*
X116900000Y-62450000D02*
X116900000Y-95600000D01*
X123050000Y-37650000D02*
X120350000Y-37650000D01*
X119800000Y-62350000D02*
X119900000Y-62450000D01*
X160750000Y-89300000D02*
X161200000Y-88850000D01*
X119800000Y-38200000D02*
X119800000Y-62350000D01*
X159100000Y-89900000D02*
X159700000Y-89300000D01*
X161200000Y-88850000D02*
X161200000Y-77300000D01*
X110750000Y-95550000D02*
X110750000Y-108800000D01*
X166100000Y-94900000D02*
X166100000Y-107650000D01*
X159100000Y-94850000D02*
X159100000Y-89900000D01*
X123620000Y-38220000D02*
X123050000Y-37650000D01*
X147470000Y-108830000D02*
X148250000Y-108050000D01*
X120350000Y-37650000D02*
X119800000Y-38200000D01*
X147330000Y-108830000D02*
X147470000Y-108830000D01*
X123620000Y-39120000D02*
X123620000Y-38220000D01*
X159050000Y-94900000D02*
X159100000Y-94850000D01*
X159700000Y-89300000D02*
X160750000Y-89300000D01*
X127800000Y-95600000D02*
X127800000Y-104250000D01*
%TO.N,/~{IPL2}*%
X141400000Y-39120000D02*
X142750000Y-40470000D01*
X106270000Y-45780000D02*
X106270000Y-73000000D01*
X106300000Y-45750000D02*
X106270000Y-45780000D01*
X142750000Y-40470000D02*
X142750000Y-47050000D01*
%TO.N,/A15*%
X169150000Y-99950000D02*
X169150000Y-88750000D01*
X106850000Y-98950000D02*
X106850000Y-106250000D01*
X169100000Y-100000000D02*
X169150000Y-99950000D01*
X141600000Y-44400000D02*
X141400000Y-44200000D01*
X141600000Y-99950000D02*
X141600000Y-44400000D01*
X139650000Y-106000000D02*
X139650000Y-100000000D01*
X141650000Y-100000000D02*
X141600000Y-99950000D01*
D20*
%TO.N,GND*%
X88100000Y-39060000D02*
X88100000Y-44140000D01*
X180700000Y-49150000D02*
X179500000Y-47950000D01*
X180650000Y-52450000D02*
X180700000Y-52400000D01*
X87000000Y-88000000D02*
X87000000Y-85500000D01*
X132800000Y-124550000D02*
X132800000Y-121800000D01*
X119000000Y-79300000D02*
X119200000Y-79100000D01*
X118900000Y-89200000D02*
X118900000Y-79400000D01*
X119200000Y-79100000D02*
X120400000Y-79100000D01*
D19*
X157750000Y-71200000D02*
X159350000Y-71200000D01*
D20*
X180700000Y-52400000D02*
X180700000Y-49150000D01*
X94000000Y-99050000D02*
X94000000Y-99525000D01*
X174400000Y-95850000D02*
X174400000Y-115850000D01*
X95505112Y-129494888D02*
X93400000Y-129494888D01*
X118900000Y-79400000D02*
X119000000Y-79300000D01*
X187300000Y-105250000D02*
X187870000Y-104680000D01*
X96100000Y-89200000D02*
X96100000Y-54900000D01*
X132800000Y-124550000D02*
X132800000Y-127050000D01*
X87000000Y-105200000D02*
X87000000Y-113000000D01*
X187300000Y-110950000D02*
X187300000Y-105250000D01*
X87000000Y-85500000D02*
X87550000Y-84950000D01*
X179500000Y-47950000D02*
X179500000Y-44200000D01*
X96400000Y-114850000D02*
X96400000Y-119850000D01*
X109050000Y-127050000D02*
X109050000Y-124050000D01*
X187870000Y-104680000D02*
X189300000Y-104680000D01*
D19*
X159350000Y-71200000D02*
X159400000Y-71250000D01*
D20*
X159400000Y-71250000D02*
X159400000Y-80400000D01*
X96100000Y-113000000D02*
X96100000Y-89200000D01*
X90600000Y-39160000D02*
X90600000Y-44240000D01*
X174400000Y-85600000D02*
X174400000Y-95850000D01*
X96400000Y-128600000D02*
X95505112Y-129494888D01*
X159400000Y-80400000D02*
X159400000Y-87100000D01*
X96400000Y-119850000D02*
X96400000Y-128600000D01*
X92700000Y-84950000D02*
X93450000Y-85700000D01*
X93450000Y-98500000D02*
X94000000Y-99050000D01*
X87550000Y-84950000D02*
X92700000Y-84950000D01*
X93450000Y-85700000D02*
X93450000Y-98500000D01*
X87000000Y-105200000D02*
X87000000Y-88000000D01*
X159400000Y-52300000D02*
X159400000Y-71250000D01*
%TO.N,+5V*%
X97700000Y-49000000D02*
X97700000Y-56100000D01*
X101150000Y-105250000D02*
X101150000Y-93950000D01*
X159200000Y-100925000D02*
X159200000Y-104500000D01*
X97700000Y-84650000D02*
X98500000Y-85450000D01*
X118000000Y-73000000D02*
X118000000Y-56100000D01*
X190940000Y-123790000D02*
X190940000Y-125000000D01*
X107600000Y-56100000D02*
X107600000Y-71500000D01*
X177250000Y-103000000D02*
X177300000Y-103050000D01*
X98500000Y-93550000D02*
X98900000Y-93950000D01*
X96900000Y-48200000D02*
X97700000Y-49000000D01*
X179850000Y-103050000D02*
X179800000Y-103000000D01*
X101200000Y-105300000D02*
X101150000Y-105250000D01*
X94400000Y-48200000D02*
X94400000Y-40500000D01*
X97700000Y-74250000D02*
X97700000Y-84650000D01*
X159500000Y-104800000D02*
X160250000Y-104800000D01*
X160950000Y-106250000D02*
X160900000Y-106200000D01*
X188450000Y-107837500D02*
X188400000Y-107887500D01*
X98900000Y-93950000D02*
X101150000Y-93950000D01*
X160250000Y-104800000D02*
X160950000Y-105500000D01*
X177250000Y-100850000D02*
X177250000Y-103000000D01*
X94400000Y-40500000D02*
X93100000Y-39200000D01*
X94400000Y-48200000D02*
X96900000Y-48200000D01*
X118900000Y-100800000D02*
X118900000Y-105050000D01*
X159200000Y-104500000D02*
X159500000Y-104800000D01*
X179800000Y-103000000D02*
X179800000Y-94050000D01*
X160950000Y-105500000D02*
X160950000Y-106250000D01*
X188400000Y-121250000D02*
X190940000Y-123790000D01*
X97700000Y-56100000D02*
X97700000Y-74250000D01*
X188400000Y-107887500D02*
X188400000Y-121250000D01*
X101200000Y-110450000D02*
X101150000Y-110500000D01*
X135250000Y-100800000D02*
X135250000Y-103450000D01*
X101200000Y-105300000D02*
X101200000Y-110450000D01*
X159250000Y-100875000D02*
X159200000Y-100925000D01*
X98500000Y-85450000D02*
X98500000Y-93550000D01*
D19*
%TO.N,/~{OE}*%
X137800000Y-113900000D02*
X137800000Y-113200000D01*
X137800000Y-113200000D02*
X138200000Y-112800000D01*
X116100000Y-87450000D02*
X116100000Y-79300000D01*
X139450000Y-88800000D02*
X139450000Y-81800000D01*
X116100000Y-113900000D02*
X116100000Y-87450000D01*
X138200000Y-112800000D02*
X138200000Y-84100000D01*
%TO.N,Net-(U4-IO4)*%
X154150000Y-87150000D02*
X154150000Y-64900000D01*
X130747500Y-79252500D02*
X130800000Y-79200000D01*
X131200000Y-74150000D02*
X131200000Y-64900000D01*
X156850000Y-113800000D02*
X156850000Y-116450000D01*
X130800000Y-74550000D02*
X131200000Y-74150000D01*
X130800000Y-79200000D02*
X130800000Y-74550000D01*
X157500000Y-113150000D02*
X156850000Y-113800000D01*
X157500000Y-87150000D02*
X157500000Y-113150000D01*
%TO.N,Net-(U4-IO5)*%
X130200000Y-114600000D02*
X130200000Y-80500000D01*
%TO.N,/A1*%
X164450000Y-116550000D02*
X164450000Y-84350000D01*
X125950000Y-125500000D02*
X125950000Y-116400000D01*
X123350000Y-93050000D02*
X123350000Y-115700000D01*
X126350000Y-125850000D02*
X126300000Y-125850000D01*
X126300000Y-125850000D02*
X125950000Y-125500000D01*
X123650000Y-44230000D02*
X123650000Y-92750000D01*
X123650000Y-92750000D02*
X123350000Y-93050000D01*
X164450000Y-84350000D02*
X164500000Y-84300000D01*
X147300000Y-125850000D02*
X147300000Y-117700000D01*
X123620000Y-44200000D02*
X123650000Y-44230000D01*
%TO.N,Net-(U4-IO8)*%
X182200000Y-116150000D02*
X182200000Y-98800000D01*
X122650000Y-80350000D02*
X122250000Y-79950000D01*
X122650000Y-89500000D02*
X122650000Y-80350000D01*
X121750000Y-96450000D02*
X121750000Y-90400000D01*
X121750000Y-90400000D02*
X122650000Y-89500000D01*
%TO.N,/A16*%
X168500000Y-62500000D02*
X168450000Y-62550000D01*
X143940000Y-62440000D02*
X143950000Y-62450000D01*
X170150000Y-80800000D02*
X170150000Y-103600000D01*
X134300000Y-99700000D02*
X133600000Y-100400000D01*
X143940000Y-44200000D02*
X143940000Y-62440000D01*
X135450000Y-99450000D02*
X135200000Y-99700000D01*
X135200000Y-99700000D02*
X134300000Y-99700000D01*
X168450000Y-62550000D02*
X168450000Y-79400000D01*
X134250000Y-62450000D02*
X134250000Y-63300000D01*
X134250000Y-63300000D02*
X135450000Y-64500000D01*
X135450000Y-64500000D02*
X135450000Y-99450000D01*
X133600000Y-100400000D02*
X133600000Y-103500000D01*
%TO.N,Net-(U2-I8)*%
X148400000Y-87750000D02*
X148450000Y-87700000D01*
X126450000Y-84700000D02*
X126450000Y-87700000D01*
X126450000Y-87700000D02*
X126400000Y-87750000D01*
X148450000Y-87700000D02*
X148450000Y-82750000D01*
%TO.N,Net-(U2-I9)*%
X128700000Y-82500000D02*
X128700000Y-92150000D01*
X128750000Y-82450000D02*
X128700000Y-82500000D01*
X147200000Y-83700000D02*
X147200000Y-92150000D01*
%TO.N,Net-(U3-IO4)*%
X144200000Y-79750000D02*
X144200000Y-79350000D01*
X144400000Y-79950000D02*
X144200000Y-79750000D01*
X144850000Y-80400000D02*
X144400000Y-79950000D01*
X144850000Y-88550000D02*
X144850000Y-80400000D01*
X121800000Y-81400000D02*
X121800000Y-88350000D01*
%TO.N,/A9*%
X118550000Y-110050000D02*
X118650000Y-110150000D01*
X177500000Y-110200000D02*
X178200000Y-109500000D01*
X118650000Y-110150000D02*
X118650000Y-130400000D01*
X124950000Y-108750000D02*
X124950000Y-40330000D01*
X124950000Y-40330000D02*
X126160000Y-39120000D01*
X141850000Y-110050000D02*
X141850000Y-130400000D01*
X178200000Y-109500000D02*
X178200000Y-81650000D01*
X116900000Y-110050000D02*
X118550000Y-110050000D01*
%TO.N,Net-(U2-IO7)*%
X140750000Y-66500000D02*
X140750000Y-76550000D01*
X120400000Y-76850000D02*
X120400000Y-66500000D01*
X140750000Y-76550000D02*
X140750000Y-77050000D01*
X143950000Y-81400000D02*
X143950000Y-86900000D01*
%TO.N,Net-(U2-IO8)*%
X138250000Y-72100000D02*
X138250000Y-74100000D01*
X150450000Y-85450000D02*
X150500000Y-85500000D01*
X150450000Y-72100000D02*
X150450000Y-85450000D01*
%TO.N,Net-(U3-IO2)*%
X147400000Y-71300000D02*
X147400000Y-75450000D01*
%TO.N,Net-(U3-I03)*%
X153100000Y-70500000D02*
X153100000Y-78100000D01*
%TO.N,Net-(U3-I5)*%
X134700000Y-78150000D02*
X134700000Y-65650000D01*
X109400000Y-65650000D02*
X109400000Y-85450000D01*
%TO.N,Net-(U2-IO6)*%
X137300000Y-74700000D02*
X137700000Y-75100000D01*
X165500000Y-60250000D02*
X165500000Y-83050000D01*
X165550000Y-60200000D02*
X165500000Y-60250000D01*
X137700000Y-75100000D02*
X137700000Y-83200000D01*
X137300000Y-60200000D02*
X137300000Y-74700000D01*
%TO.N,Net-(U3-IO5)*%
X148450000Y-80700000D02*
X148450000Y-68550000D01*
%TO.N,/~{FC0}*%
X126450000Y-80700000D02*
X125650000Y-79900000D01*
X125650000Y-79900000D02*
X125650000Y-44710000D01*
X125650000Y-44710000D02*
X126160000Y-44200000D01*
X126450000Y-83400000D02*
X126450000Y-80700000D01*
%TO.N,/A17*%
X146480000Y-65730000D02*
X146500000Y-65750000D01*
X146480000Y-44200000D02*
X146480000Y-65730000D01*
%TO.N,Net-(U1-IO8)*%
X169150000Y-76900000D02*
X169150000Y-86350000D01*
%TO.N,Net-(U1-IO2)*%
X170050000Y-78150000D02*
X170050000Y-71300000D01*
%TO.N,/A18*%
X152800000Y-63700000D02*
X153000000Y-63900000D01*
X151560000Y-39120000D02*
X151560000Y-39160000D01*
X171900000Y-63900000D02*
X171900000Y-78100000D01*
X151560000Y-39160000D02*
X152800000Y-40400000D01*
X152800000Y-40400000D02*
X152800000Y-63700000D01*
%TO.N,Net-(U1-IO1)*%
X166800000Y-79400000D02*
X166800000Y-71650000D01*
%TO.N,Net-(Q1-G)*%
X101200000Y-71950000D02*
X101200000Y-68000000D01*
X101200000Y-68000000D02*
X101200000Y-51650000D01*
%TO.N,Net-(D1-K)*%
X105700000Y-90500000D02*
X105750000Y-90450000D01*
X182250000Y-90500000D02*
X182250000Y-97700000D01*
X105750000Y-90450000D02*
X105750000Y-79050000D01*
X186200000Y-99950000D02*
X186200000Y-93350000D01*
%TO.N,/A19*%
X155400000Y-40420000D02*
X154100000Y-39120000D01*
X155400000Y-66650000D02*
X155400000Y-40420000D01*
%TO.N,/A10*%
X128700000Y-40925000D02*
X128700000Y-39120000D01*
X127450000Y-42175000D02*
X128700000Y-40925000D01*
X126350000Y-77150000D02*
X126350000Y-54100000D01*
X126350000Y-54100000D02*
X127450000Y-53000000D01*
X127000000Y-77750000D02*
X126950000Y-77750000D01*
X176050000Y-100250000D02*
X177100000Y-99200000D01*
X127050000Y-92250000D02*
X127050000Y-77800000D01*
X120800000Y-92700000D02*
X120800000Y-111300000D01*
X176050000Y-111500000D02*
X176050000Y-100250000D01*
X126950000Y-77750000D02*
X126350000Y-77150000D01*
X127050000Y-77800000D02*
X127000000Y-77750000D01*
X177100000Y-99200000D02*
X177100000Y-81700000D01*
X127450000Y-53000000D02*
X127450000Y-42175000D01*
%TO.N,/~{FC1}*%
X128050000Y-67600000D02*
X128050000Y-55650000D01*
X128050000Y-55650000D02*
X128700000Y-55000000D01*
X128700000Y-55000000D02*
X128700000Y-44200000D01*
X160600000Y-67650000D02*
X160600000Y-81350000D01*
%TO.N,Net-(U5-I7)*%
X109150000Y-60000000D02*
X109150000Y-48650000D01*
X117400000Y-48650000D02*
X117450000Y-48700000D01*
X117450000Y-51380000D02*
X117460000Y-51390000D01*
X96950000Y-80322500D02*
X96950000Y-60000000D01*
X117450000Y-48700000D02*
X117450000Y-51380000D01*
%TO.N,Net-(U5-IO5)*%
X115250000Y-60800000D02*
X115250000Y-51150000D01*
X112350000Y-80322500D02*
X112350000Y-60800000D01*
%TO.N,Net-(U5-IO6)*%
X108400000Y-83350000D02*
X108400000Y-61950000D01*
%TO.N,/A11*%
X137500000Y-86900000D02*
X137500000Y-103400000D01*
X131240000Y-40960000D02*
X130100000Y-42100000D01*
X142850000Y-48900000D02*
X142850000Y-86900000D01*
X147450000Y-103400000D02*
X147450000Y-98400000D01*
X137500000Y-103400000D02*
X137500000Y-111400000D01*
X191750000Y-92000000D02*
X191750000Y-115300000D01*
X176250000Y-98650000D02*
X176250000Y-92050000D01*
X136650000Y-112250000D02*
X136650000Y-113900000D01*
X113800000Y-131500000D02*
X143200000Y-131500000D01*
X130100000Y-42100000D02*
X129950000Y-42250000D01*
X113350000Y-131050000D02*
X113800000Y-131500000D01*
X143200000Y-131500000D02*
X143600000Y-131100000D01*
X113350000Y-114750000D02*
X113350000Y-131050000D01*
X137500000Y-111400000D02*
X136650000Y-112250000D01*
X191750000Y-92000000D02*
X191750000Y-85800000D01*
X163550000Y-98650000D02*
X163550000Y-115100000D01*
X129950000Y-42250000D02*
X129950000Y-48900000D01*
X143600000Y-131100000D02*
X143600000Y-115150000D01*
X131240000Y-39120000D02*
X131240000Y-40960000D01*
%TO.N,/A12*%
X132500000Y-45775192D02*
X132500000Y-40400000D01*
X133000000Y-112600000D02*
X133000000Y-46275192D01*
X133000000Y-46275192D02*
X132500000Y-45775192D01*
X132500000Y-40400000D02*
X133780000Y-39120000D01*
X173350000Y-84100000D02*
X173350000Y-112750000D01*
X174150000Y-83300000D02*
X173350000Y-84100000D01*
%TO.N,/~{IPL0}*%
X137950000Y-68500000D02*
X137950000Y-58850000D01*
X137950000Y-58850000D02*
X137600000Y-58500000D01*
X110450000Y-77765000D02*
X110432500Y-77782500D01*
X110450000Y-68500000D02*
X110450000Y-77765000D01*
X137600000Y-58500000D02*
X137600000Y-40400000D01*
X137600000Y-40400000D02*
X136320000Y-39120000D01*
%TO.N,/~{RST}*%
X154100000Y-44200000D02*
X154100000Y-49250000D01*
X148900000Y-49250000D02*
X148900000Y-63900000D01*
X103150000Y-63900000D02*
X103150000Y-80700000D01*
%TO.N,/A13*%
X111650000Y-107450000D02*
X111600000Y-107500000D01*
X150450000Y-104400000D02*
X150450000Y-97350000D01*
X179500000Y-91300000D02*
X179500000Y-80700000D01*
X136000000Y-42650000D02*
X136320000Y-42970000D01*
X136000000Y-107800000D02*
X136000000Y-64100000D01*
X136000000Y-64100000D02*
X135050000Y-63150000D01*
X128500000Y-98100000D02*
X128500000Y-103200000D01*
X135050000Y-63150000D02*
X135050000Y-42950000D01*
X135350000Y-42650000D02*
X136000000Y-42650000D01*
X135050000Y-42950000D02*
X135350000Y-42650000D01*
X160550000Y-103700000D02*
X160550000Y-91300000D01*
X136320000Y-42970000D02*
X136320000Y-44200000D01*
X135350000Y-108450000D02*
X136000000Y-107800000D01*
X111650000Y-98050000D02*
X111650000Y-107450000D01*
%TO.N,/A20*%
X157900000Y-40380000D02*
X157900000Y-64950000D01*
X170900000Y-64950000D02*
X170900000Y-76750000D01*
X170900000Y-76750000D02*
X170950000Y-76800000D01*
X156640000Y-39120000D02*
X157900000Y-40380000D01*
%TO.N,/~{IPL1}*%
X138860000Y-39120000D02*
X140150000Y-40410000D01*
X140150000Y-40410000D02*
X140150000Y-48000000D01*
X105500000Y-77400000D02*
X105500000Y-46950000D01*
%TO.N,/A14*%
X138850000Y-44210000D02*
X138860000Y-44200000D01*
X140500000Y-80950000D02*
X140100000Y-80550000D01*
X140500000Y-93000000D02*
X140500000Y-105600000D01*
X141850000Y-106300000D02*
X141850000Y-108800000D01*
X140850000Y-105950000D02*
X141500000Y-105950000D01*
X140500000Y-105600000D02*
X140850000Y-105950000D01*
X181450000Y-79450000D02*
X181450000Y-93100000D01*
X139150000Y-80550000D02*
X138850000Y-80250000D01*
X141500000Y-105950000D02*
X141850000Y-106300000D01*
X140100000Y-80550000D02*
X139150000Y-80550000D01*
X181450000Y-93100000D02*
X181450000Y-108900000D01*
X140500000Y-93000000D02*
X140500000Y-80950000D01*
X138850000Y-80250000D02*
X138850000Y-44210000D01*
%TO.N,/~{HLT}*%
X111500000Y-78700000D02*
X111500000Y-49500000D01*
X156640000Y-51590000D02*
X156640000Y-44200000D01*
X111150000Y-79050000D02*
X111500000Y-78700000D01*
X156650000Y-51600000D02*
X156640000Y-51590000D01*
%TO.N,/A21*%
X159180000Y-39120000D02*
X160500000Y-40440000D01*
X160500000Y-54700000D02*
X160400000Y-54800000D01*
X160500000Y-40440000D02*
X160500000Y-54700000D01*
X169200000Y-54800000D02*
X169200000Y-74900000D01*
%TO.N,/A22*%
X98900000Y-50500000D02*
X98900000Y-66950000D01*
X159180000Y-44200000D02*
X159180000Y-47230000D01*
X145700000Y-51800000D02*
X145700000Y-47250000D01*
X88300000Y-67000000D02*
X88300000Y-69160000D01*
X177800000Y-47250000D02*
X177950000Y-47400000D01*
X177950000Y-47400000D02*
X177950000Y-77550000D01*
X88350000Y-66950000D02*
X88300000Y-67000000D01*
X159180000Y-47230000D02*
X159200000Y-47250000D01*
%TO.N,Net-(U11-DIS)*%
X93400000Y-126994888D02*
X93400000Y-108300000D01*
%TO.N,Net-(D3-A)*%
X88850000Y-90050000D02*
X88850000Y-107800000D01*
X101450000Y-92500000D02*
X101450000Y-77800000D01*
%TO.N,Net-(D3-K)*%
X89500000Y-88000000D02*
X91000000Y-88000000D01*
X91750000Y-105500000D02*
X92250000Y-105500000D01*
X92250000Y-105500000D02*
X92750000Y-106000000D01*
X92750000Y-106000000D02*
X92750000Y-106600000D01*
X91250000Y-88250000D02*
X91250000Y-105000000D01*
X91250000Y-105000000D02*
X91750000Y-105500000D01*
X91000000Y-88000000D02*
X91250000Y-88250000D01*
%TO.N,/A23*%
X181100000Y-77500000D02*
X180600000Y-77000000D01*
X161720000Y-44200000D02*
X161720000Y-56080000D01*
X180600000Y-76000000D02*
X180600000Y-56100000D01*
X180600000Y-77000000D02*
X180600000Y-76000000D01*
X161720000Y-56080000D02*
X161700000Y-56100000D01*
%TO.N,/D15*%
X139300000Y-130950000D02*
X139250000Y-131000000D01*
X166250000Y-50900000D02*
X164050000Y-50900000D01*
X144850000Y-95800000D02*
X144850000Y-117700000D01*
X139650000Y-130600000D02*
X139300000Y-130950000D01*
X164050000Y-50900000D02*
X163500000Y-51450000D01*
X139650000Y-118700000D02*
X139650000Y-130600000D01*
X166800000Y-50350000D02*
X166250000Y-50900000D01*
X163500000Y-51450000D02*
X163500000Y-95800000D01*
X114350000Y-130500000D02*
X114350000Y-119400000D01*
X114350000Y-119400000D02*
X116050000Y-117700000D01*
X166800000Y-44200000D02*
X166800000Y-50350000D01*
X114850000Y-131000000D02*
X114350000Y-130500000D01*
X139250000Y-131000000D02*
X114850000Y-131000000D01*
%TO.N,/A3*%
X104600000Y-40500000D02*
X104550000Y-40550000D01*
X121800000Y-99700000D02*
X121800000Y-113750000D01*
X135500000Y-113900000D02*
X135500000Y-116900000D01*
X104550000Y-40550000D02*
X104550000Y-99700000D01*
X155800000Y-115000000D02*
X155800000Y-88050000D01*
X158550000Y-88050000D02*
X158550000Y-79500000D01*
X104550000Y-115150000D02*
X104600000Y-115200000D01*
X104550000Y-99700000D02*
X104550000Y-115150000D01*
%TO.N,/A4*%
X114700000Y-90900000D02*
X114700000Y-62600000D01*
X114800000Y-40675000D02*
X116000000Y-39475000D01*
X124700000Y-112600000D02*
X124700000Y-125800000D01*
X114200000Y-49000000D02*
X114800000Y-48400000D01*
X114800000Y-48400000D02*
X114800000Y-40675000D01*
X153600000Y-113800000D02*
X153600000Y-89000000D01*
X153550000Y-129400000D02*
X153350000Y-129600000D01*
X114250000Y-91350000D02*
X114700000Y-90900000D01*
X114700000Y-62600000D02*
X114200000Y-62100000D01*
X153550000Y-113850000D02*
X153550000Y-129400000D01*
X153600000Y-89000000D02*
X154950000Y-87650000D01*
X116000000Y-39475000D02*
X116000000Y-39120000D01*
X154950000Y-87650000D02*
X154950000Y-74800000D01*
X114250000Y-113865000D02*
X114250000Y-91350000D01*
X106650000Y-113850000D02*
X106650000Y-125800000D01*
X153600000Y-113800000D02*
X153550000Y-113850000D01*
X114200000Y-62100000D02*
X114200000Y-49000000D01*
X124700000Y-125800000D02*
X124700000Y-129600000D01*
%TO.N,/A6*%
X151800000Y-104400000D02*
X151800000Y-111350000D01*
X115400000Y-77250000D02*
X115400000Y-101550000D01*
X151450000Y-101700000D02*
X151450000Y-79350000D01*
X116000000Y-44200000D02*
X116000000Y-76650000D01*
X116000000Y-76650000D02*
X115400000Y-77250000D01*
X151800000Y-111350000D02*
X151850000Y-111400000D01*
X151400000Y-101750000D02*
X151400000Y-104000000D01*
X151400000Y-101750000D02*
X151450000Y-101700000D01*
X115350000Y-111300000D02*
X115350000Y-101600000D01*
X151400000Y-104000000D02*
X151800000Y-104400000D01*
X124250000Y-101750000D02*
X124250000Y-110100000D01*
X115400000Y-101550000D02*
X115350000Y-101600000D01*
%TO.N,/A7*%
X126850000Y-97250000D02*
X126850000Y-94750000D01*
X122750000Y-91950000D02*
X123150000Y-91550000D01*
X121080000Y-39380000D02*
X121080000Y-39120000D01*
X126850000Y-97250000D02*
X126850000Y-105000000D01*
X123150000Y-91550000D02*
X123150000Y-46050000D01*
X162500000Y-104850000D02*
X162550000Y-104900000D01*
X122350000Y-40650000D02*
X121080000Y-39380000D01*
X105700000Y-97250000D02*
X105700000Y-110050000D01*
X123150000Y-46050000D02*
X122350000Y-45250000D01*
X154900000Y-104900000D02*
X154900000Y-94150000D01*
X122350000Y-45250000D02*
X122350000Y-40650000D01*
X162500000Y-78050000D02*
X162500000Y-104850000D01*
X105700000Y-91950000D02*
X105700000Y-97250000D01*
%TO.N,/A2*%
X103350000Y-103200000D02*
X103350000Y-94650000D01*
X103850000Y-116400000D02*
X103350000Y-115900000D01*
X120500000Y-91200000D02*
X119850000Y-91850000D01*
X126000000Y-103300000D02*
X126000000Y-115150000D01*
X120600000Y-80600000D02*
X120600000Y-80750000D01*
X119850000Y-91850000D02*
X119850000Y-94650000D01*
X105600000Y-116400000D02*
X103850000Y-116400000D01*
X121080000Y-44200000D02*
X121080000Y-80120000D01*
X126050000Y-103250000D02*
X126000000Y-103300000D01*
X103400000Y-103250000D02*
X103350000Y-103200000D01*
X120500000Y-90950000D02*
X120500000Y-91200000D01*
X152750000Y-99150000D02*
X152750000Y-116450000D01*
X152750000Y-99150000D02*
X152750000Y-80700000D01*
X103350000Y-115900000D02*
X103350000Y-103300000D01*
X120500000Y-80850000D02*
X120500000Y-90950000D01*
X103350000Y-103300000D02*
X103400000Y-103250000D01*
X120600000Y-80750000D02*
X120500000Y-80850000D01*
X121080000Y-80120000D02*
X120600000Y-80600000D01*
X149250000Y-102500000D02*
X149250000Y-99200000D01*
%TO.N,/D14*%
X169340000Y-44200000D02*
X169350000Y-44210000D01*
X138900000Y-119650000D02*
X138900000Y-130000000D01*
X176600000Y-81050000D02*
X176600000Y-60000000D01*
X169350000Y-44210000D02*
X169350000Y-53350000D01*
X142850000Y-89450000D02*
X142850000Y-119650000D01*
X142850000Y-119650000D02*
X142800000Y-119700000D01*
X176150000Y-81500000D02*
X176600000Y-81050000D01*
X122450000Y-129500000D02*
X122450000Y-118950000D01*
X176150000Y-89450000D02*
X176150000Y-81500000D01*
X123300000Y-130350000D02*
X122450000Y-129500000D01*
X170150000Y-54150000D02*
X170150000Y-59950000D01*
X138900000Y-130000000D02*
X138550000Y-130350000D01*
X169350000Y-53350000D02*
X170150000Y-54150000D01*
X138550000Y-130350000D02*
X123300000Y-130350000D01*
%TO.N,/R_W*%
X102250000Y-49000000D02*
X102250000Y-76700000D01*
X161850000Y-103500000D02*
X161300000Y-102950000D01*
X170550000Y-40450000D02*
X170550000Y-52950000D01*
X171880000Y-39120000D02*
X170550000Y-40450000D01*
X161300000Y-90450000D02*
X161850000Y-89900000D01*
X161850000Y-89900000D02*
X161850000Y-59000000D01*
X102250000Y-76700000D02*
X102250000Y-104100000D01*
X161850000Y-59000000D02*
X161900000Y-58950000D01*
X161300000Y-102950000D02*
X161300000Y-90450000D01*
X144750000Y-49850000D02*
X144750000Y-58950000D01*
X161850000Y-107600000D02*
X161850000Y-103500000D01*
X171500000Y-53900000D02*
X171500000Y-59000000D01*
X170550000Y-52950000D02*
X171500000Y-53900000D01*
%TO.N,/D13*%
X136550000Y-126600000D02*
X136600000Y-126550000D01*
X136550000Y-128900000D02*
X136550000Y-126600000D01*
X115750000Y-128900000D02*
X115800000Y-128850000D01*
X172600000Y-126550000D02*
X172600000Y-53550000D01*
X136600000Y-126550000D02*
X136600000Y-121250000D01*
X171880000Y-52830000D02*
X171880000Y-44200000D01*
X115800000Y-128850000D02*
X115800000Y-120500000D01*
X172600000Y-53550000D02*
X171880000Y-52830000D01*
%TO.N,/~{LDS}*%
X146250000Y-81550000D02*
X145600000Y-82200000D01*
X174420000Y-39120000D02*
X173200000Y-40340000D01*
X173200000Y-40340000D02*
X173200000Y-45400000D01*
X145600000Y-82200000D02*
X145600000Y-85800000D01*
X173700000Y-53150000D02*
X174150000Y-53600000D01*
X173200000Y-52650000D02*
X173700000Y-53150000D01*
X174150000Y-54900000D02*
X174150000Y-69450000D01*
X174150000Y-53600000D02*
X174150000Y-54900000D01*
X146250000Y-69450000D02*
X146250000Y-81550000D01*
X173200000Y-45400000D02*
X173200000Y-52650000D01*
%TO.N,/D12*%
X174420000Y-52670000D02*
X175450000Y-53700000D01*
X174420000Y-44200000D02*
X174420000Y-52670000D01*
X167550000Y-53700000D02*
X167550000Y-127500000D01*
X135350000Y-123500000D02*
X135350000Y-121700000D01*
X137650000Y-127500000D02*
X137650000Y-123550000D01*
%TO.N,/~{UDS}*%
X178800000Y-46900000D02*
X178200000Y-46300000D01*
X178200000Y-46300000D02*
X178200000Y-40360000D01*
X128050000Y-74900000D02*
X127800000Y-75150000D01*
X178800000Y-58100000D02*
X178800000Y-46900000D01*
X133900000Y-58150000D02*
X133650000Y-58400000D01*
X133650000Y-58400000D02*
X133650000Y-74900000D01*
X127800000Y-75150000D02*
X127800000Y-86950000D01*
X178850000Y-58150000D02*
X178800000Y-58100000D01*
X178200000Y-40360000D02*
X176960000Y-39120000D01*
%TO.N,/D11*%
X175450000Y-128900000D02*
X175450000Y-57600000D01*
X176960000Y-54290000D02*
X176960000Y-44200000D01*
X175450000Y-57700000D02*
X175450000Y-55800000D01*
X175450000Y-55800000D02*
X176960000Y-54290000D01*
X140600000Y-128900000D02*
X140600000Y-122700000D01*
X175450000Y-57600000D02*
X175450000Y-57700000D01*
%TO.N,/~{AS}*%
X181850000Y-49100000D02*
X180750000Y-48000000D01*
X181850000Y-68550000D02*
X181850000Y-49100000D01*
X149550000Y-81950000D02*
X149550000Y-68600000D01*
X180750000Y-48000000D02*
X180750000Y-40370000D01*
X181900000Y-68600000D02*
X181850000Y-68550000D01*
X111450000Y-91250000D02*
X111450000Y-81850000D01*
X180750000Y-40370000D02*
X179500000Y-39120000D01*
X149550000Y-81950000D02*
X149550000Y-91250000D01*
%TO.N,/D3*%
X176200000Y-122800000D02*
X176200000Y-116500000D01*
X184100000Y-122750000D02*
X184050000Y-122800000D01*
X184100000Y-47850000D02*
X184100000Y-122750000D01*
X176200000Y-116500000D02*
X176250000Y-116450000D01*
%TO.N,/D10*%
X183300000Y-46400000D02*
X183300000Y-40380000D01*
X132450000Y-87450000D02*
X131800000Y-88100000D01*
X131800000Y-88100000D02*
X131800000Y-117400000D01*
X183300000Y-40380000D02*
X182040000Y-39120000D01*
X132450000Y-77100000D02*
X132450000Y-87450000D01*
X147850000Y-46350000D02*
X147850000Y-53750000D01*
X132050000Y-53750000D02*
X132050000Y-76700000D01*
X132050000Y-76700000D02*
X132450000Y-77100000D01*
X131550000Y-121800000D02*
X131550000Y-125050000D01*
%TO.N,/D8*%
X136650000Y-58850000D02*
X136900000Y-58600000D01*
X136900000Y-58600000D02*
X136900000Y-46300000D01*
X136650000Y-110450000D02*
X136650000Y-58850000D01*
X134200000Y-111000000D02*
X136100000Y-111000000D01*
X136100000Y-111000000D02*
X136650000Y-110450000D01*
X133600000Y-116150000D02*
X133600000Y-111600000D01*
X133600000Y-111600000D02*
X134200000Y-111000000D01*
%TO.N,/D0*%
X181950000Y-48000000D02*
X182900000Y-48950000D01*
X156950000Y-119000000D02*
X157600000Y-118350000D01*
X181950000Y-44290000D02*
X181950000Y-48000000D01*
X182040000Y-44200000D02*
X181950000Y-44290000D01*
X157600000Y-118350000D02*
X160650000Y-118350000D01*
X160650000Y-118350000D02*
X161150000Y-117850000D01*
X131750000Y-78000000D02*
X131750000Y-87050000D01*
X182900000Y-48950000D02*
X182900000Y-87050000D01*
X131100000Y-87700000D02*
X131100000Y-98350000D01*
X145550000Y-118990000D02*
X145550000Y-98350000D01*
X131750000Y-87050000D02*
X131100000Y-87700000D01*
X165300000Y-87050000D02*
X165300000Y-117800000D01*
X161150000Y-117850000D02*
X161150000Y-117800000D01*
%TO.N,/D4*%
X179000000Y-78550000D02*
X179200000Y-78750000D01*
X180600000Y-121950000D02*
X180650000Y-122000000D01*
X179200000Y-78750000D02*
X180250000Y-78750000D01*
X180250000Y-78750000D02*
X180600000Y-79100000D01*
X179000000Y-59600000D02*
X179000000Y-78550000D01*
X180600000Y-79100000D02*
X180600000Y-121950000D01*
%TO.N,/D9*%
X129350000Y-115550000D02*
X128200000Y-116700000D01*
X129650000Y-81550000D02*
X129650000Y-90200000D01*
X129650000Y-90200000D02*
X129350000Y-90500000D01*
X185850000Y-57000000D02*
X185900000Y-56950000D01*
X185900000Y-56950000D02*
X185900000Y-40440000D01*
X129200000Y-81100000D02*
X129650000Y-81550000D01*
X128200000Y-119400000D02*
X128250000Y-119450000D01*
X128250000Y-119450000D02*
X128250000Y-124250000D01*
X128200000Y-116700000D02*
X128200000Y-119400000D01*
X185900000Y-40440000D02*
X184580000Y-39120000D01*
X129350000Y-90500000D02*
X129350000Y-115550000D01*
X129200000Y-57050000D02*
X129200000Y-81100000D01*
%TO.N,/D2*%
X186750000Y-47100000D02*
X186750000Y-92650000D01*
X171300000Y-117200000D02*
X171320000Y-117220000D01*
X170450000Y-118090000D02*
X170450000Y-123650000D01*
X186750000Y-92650000D02*
X188100000Y-94000000D01*
X171320000Y-117220000D02*
X170450000Y-118090000D01*
X171300000Y-96950000D02*
X171300000Y-117200000D01*
X188100000Y-94000000D02*
X188100000Y-96900000D01*
X187120000Y-46730000D02*
X186750000Y-47100000D01*
X171350000Y-96900000D02*
X171300000Y-96950000D01*
X187120000Y-44200000D02*
X187120000Y-46730000D01*
%TO.N,/D7*%
X155550000Y-130000000D02*
X155550000Y-117900000D01*
X183050000Y-117800000D02*
X183050000Y-130000000D01*
%TO.N,/D6*%
X185350000Y-88750000D02*
X185350000Y-118950000D01*
X162100000Y-124700000D02*
X162100000Y-118950000D01*
X185900000Y-88200000D02*
X185350000Y-88750000D01*
X185950000Y-57950000D02*
X185900000Y-58000000D01*
X190950000Y-57900000D02*
X190950000Y-41950000D01*
X185900000Y-58000000D02*
X185900000Y-88200000D01*
X179450000Y-119600000D02*
X179450000Y-124700000D01*
X190950000Y-41950000D02*
X192200000Y-40700000D01*
X192200000Y-40700000D02*
X192200000Y-39120000D01*
%TO.N,/D1*%
X133750000Y-78850000D02*
X133750000Y-76750000D01*
X168200000Y-87800000D02*
X168200000Y-119750000D01*
X146450000Y-120260000D02*
X146500000Y-120210000D01*
X134600000Y-79700000D02*
X133750000Y-78850000D01*
X185000000Y-87800000D02*
X185000000Y-47100000D01*
X146500000Y-120210000D02*
X146500000Y-99150000D01*
X157500000Y-119750000D02*
X161150000Y-119750000D01*
X156950000Y-120300000D02*
X157500000Y-119750000D01*
X134600000Y-99100000D02*
X134600000Y-79700000D01*
X184580000Y-46680000D02*
X184580000Y-44200000D01*
X185000000Y-47100000D02*
X184580000Y-46680000D01*
%TO.N,/D5*%
X161000000Y-125750000D02*
X161000000Y-121000000D01*
X181950000Y-121250000D02*
X181950000Y-125750000D01*
%TD*%
M02*
