%TF.GenerationSoftware,KiCad,Pcbnew,8.0.3*%
%TF.CreationDate,2024-10-04T18:37:16+02:00*%
%TF.ProjectId,ARIII,41524949-492e-46b6-9963-61645f706362,rev?*%
%TF.SameCoordinates,Original*%
%TF.FileFunction,Paste,Top*%
%TF.FilePolarity,Positive*%
%FSLAX46Y46*%
G04 Gerber Fmt 4.6, Leading zero omitted, Abs format (unit mm)*
G04 Created by KiCad (PCBNEW 8.0.3) date 2024-10-04 18:37:16*
%MOMM*%
%LPD*%
G01*
G04 APERTURE LIST*
G04 Aperture macros list*
%AMRoundRect*
0 Rectangle with rounded corners*
0 $1 Rounding radius*
0 $2 $3 $4 $5 $6 $7 $8 $9 X,Y pos of 4 corners*
0 Add a 4 corners polygon primitive as box body*
4,1,4,$2,$3,$4,$5,$6,$7,$8,$9,$2,$3,0*
0 Add four circle primitives for the rounded corners*
1,1,$1+$1,$2,$3*
1,1,$1+$1,$4,$5*
1,1,$1+$1,$6,$7*
1,1,$1+$1,$8,$9*
0 Add four rect primitives between the rounded corners*
20,1,$1+$1,$2,$3,$4,$5,0*
20,1,$1+$1,$4,$5,$6,$7,0*
20,1,$1+$1,$6,$7,$8,$9,0*
20,1,$1+$1,$8,$9,$2,$3,0*%
G04 Aperture macros list end*
%ADD10RoundRect,0.150000X-0.150000X-0.587500X0.150000X-0.587500X0.150000X0.587500X-0.150000X0.587500X0*%
%ADD11RoundRect,0.150000X-0.587500X-0.150000X0.587500X-0.150000X0.587500X0.150000X-0.587500X0.150000X0*%
%ADD12R,0.700000X1.925000*%
%ADD13R,1.925000X0.700000*%
%ADD14RoundRect,0.250000X-0.625000X0.400000X-0.625000X-0.400000X0.625000X-0.400000X0.625000X0.400000X0*%
%ADD15RoundRect,0.250000X-0.650000X0.412500X-0.650000X-0.412500X0.650000X-0.412500X0.650000X0.412500X0*%
%ADD16R,1.981200X0.457200*%
%ADD17RoundRect,0.250000X0.412500X0.650000X-0.412500X0.650000X-0.412500X-0.650000X0.412500X-0.650000X0*%
%ADD18RoundRect,0.150000X-0.150000X1.350000X-0.150000X-1.350000X0.150000X-1.350000X0.150000X1.350000X0*%
%ADD19RoundRect,0.150000X-0.825000X-0.150000X0.825000X-0.150000X0.825000X0.150000X-0.825000X0.150000X0*%
%ADD20RoundRect,0.250001X0.624999X-0.462499X0.624999X0.462499X-0.624999X0.462499X-0.624999X-0.462499X0*%
G04 APERTURE END LIST*
D10*
%TO.C,U9*%
X133800000Y-104662500D03*
X132530000Y-104662500D03*
X131260000Y-104662500D03*
X129990000Y-104662500D03*
D11*
X128237500Y-106420000D03*
X128237500Y-107690000D03*
X128237500Y-108960000D03*
X128237500Y-110230000D03*
X128237500Y-111500000D03*
X128237500Y-112770000D03*
X128237500Y-114040000D03*
X128237500Y-115310000D03*
X128237500Y-116580000D03*
D10*
X129990000Y-118337500D03*
X131260000Y-118337500D03*
X132530000Y-118337500D03*
X133800000Y-118337500D03*
X135070000Y-118337500D03*
X136340000Y-118337500D03*
X137610000Y-118337500D03*
D11*
X139362500Y-116580000D03*
X139362500Y-115310000D03*
X139362500Y-114040000D03*
X139362500Y-112770000D03*
X139362500Y-111500000D03*
X139362500Y-110230000D03*
X139362500Y-108960000D03*
X139362500Y-107690000D03*
X139362500Y-106420000D03*
D10*
X137610000Y-104662500D03*
X136340000Y-104662500D03*
X135070000Y-104662500D03*
%TD*%
D12*
%TO.C,U4*%
X122400000Y-74697500D03*
X121130000Y-74697500D03*
X119860000Y-74697500D03*
D13*
X118347500Y-76210000D03*
X118347500Y-77480000D03*
X118347500Y-78750000D03*
X118347500Y-80020000D03*
X118347500Y-81290000D03*
D12*
X119860000Y-82802500D03*
X121130000Y-82802500D03*
X122400000Y-82802500D03*
X123670000Y-82802500D03*
X124940000Y-82802500D03*
D13*
X126452500Y-81290000D03*
X126452500Y-80020000D03*
X126452500Y-78750000D03*
X126452500Y-77480000D03*
X126452500Y-76210000D03*
D12*
X124940000Y-74697500D03*
X123670000Y-74697500D03*
%TD*%
D14*
%TO.C,R3*%
X183300000Y-89750000D03*
X183300000Y-92850000D03*
%TD*%
D15*
%TO.C,C2*%
X102400000Y-111587500D03*
X102400000Y-114712500D03*
%TD*%
D16*
%TO.C,U8*%
X148227100Y-105145000D03*
X148227100Y-106415000D03*
X148227100Y-107685000D03*
X148227100Y-108955000D03*
X148227100Y-110225000D03*
X148227100Y-111495000D03*
X148227100Y-112765000D03*
X148227100Y-114035000D03*
X148227100Y-115305000D03*
X148227100Y-116575000D03*
X148227100Y-117845000D03*
X148227100Y-119115000D03*
X148227100Y-120385000D03*
X148227100Y-121655000D03*
X159072900Y-121655000D03*
X159072900Y-120385000D03*
X159072900Y-119115000D03*
X159072900Y-117845000D03*
X159072900Y-116575000D03*
X159072900Y-115305000D03*
X159072900Y-114035000D03*
X159072900Y-112765000D03*
X159072900Y-111495000D03*
X159072900Y-110225000D03*
X159072900Y-108955000D03*
X159072900Y-107685000D03*
X159072900Y-106415000D03*
X159072900Y-105145000D03*
%TD*%
D14*
%TO.C,R1*%
X154050000Y-51700000D03*
X154050000Y-54800000D03*
%TD*%
D17*
%TO.C,C4*%
X157912500Y-70650000D03*
X154787500Y-70650000D03*
%TD*%
D14*
%TO.C,R6*%
X91950000Y-92300000D03*
X91950000Y-95400000D03*
%TD*%
D12*
%TO.C,U3*%
X141400000Y-74697500D03*
X140130000Y-74697500D03*
X138860000Y-74697500D03*
D13*
X137347500Y-76210000D03*
X137347500Y-77480000D03*
X137347500Y-78750000D03*
X137347500Y-80020000D03*
X137347500Y-81290000D03*
D12*
X138860000Y-82802500D03*
X140130000Y-82802500D03*
X141400000Y-82802500D03*
X142670000Y-82802500D03*
X143940000Y-82802500D03*
D13*
X145452500Y-81290000D03*
X145452500Y-80020000D03*
X145452500Y-78750000D03*
X145452500Y-77480000D03*
X145452500Y-76210000D03*
D12*
X143940000Y-74697500D03*
X142670000Y-74697500D03*
%TD*%
%TO.C,U1*%
X178200000Y-74597500D03*
X176930000Y-74597500D03*
X175660000Y-74597500D03*
D13*
X174147500Y-76110000D03*
X174147500Y-77380000D03*
X174147500Y-78650000D03*
X174147500Y-79920000D03*
X174147500Y-81190000D03*
D12*
X175660000Y-82702500D03*
X176930000Y-82702500D03*
X178200000Y-82702500D03*
X179470000Y-82702500D03*
X180740000Y-82702500D03*
D13*
X182252500Y-81190000D03*
X182252500Y-79920000D03*
X182252500Y-78650000D03*
X182252500Y-77380000D03*
X182252500Y-76110000D03*
D12*
X180740000Y-74597500D03*
X179470000Y-74597500D03*
%TD*%
%TO.C,U5*%
X104000000Y-74647500D03*
X102730000Y-74647500D03*
X101460000Y-74647500D03*
D13*
X99947500Y-76160000D03*
X99947500Y-77430000D03*
X99947500Y-78700000D03*
X99947500Y-79970000D03*
X99947500Y-81240000D03*
D12*
X101460000Y-82752500D03*
X102730000Y-82752500D03*
X104000000Y-82752500D03*
X105270000Y-82752500D03*
X106540000Y-82752500D03*
D13*
X108052500Y-81240000D03*
X108052500Y-79970000D03*
X108052500Y-78700000D03*
X108052500Y-77430000D03*
X108052500Y-76160000D03*
D12*
X106540000Y-74647500D03*
X105270000Y-74647500D03*
%TD*%
D15*
%TO.C,C3*%
X183200000Y-106137500D03*
X183200000Y-109262500D03*
%TD*%
D18*
%TO.C,U6*%
X119760000Y-53100000D03*
X118490000Y-53100000D03*
X117220000Y-53100000D03*
X115950000Y-53100000D03*
X114680000Y-53100000D03*
X113410000Y-53100000D03*
X112140000Y-53100000D03*
X112140000Y-59000000D03*
X113410000Y-59000000D03*
X114680000Y-59000000D03*
X115950000Y-59000000D03*
X117220000Y-59000000D03*
X118490000Y-59000000D03*
X119760000Y-59000000D03*
%TD*%
D19*
%TO.C,U11*%
X91525000Y-104645000D03*
X91525000Y-105915000D03*
X91525000Y-107185000D03*
X91525000Y-108455000D03*
X96475000Y-108455000D03*
X96475000Y-107185000D03*
X96475000Y-105915000D03*
X96475000Y-104645000D03*
%TD*%
D14*
%TO.C,R7*%
X88100000Y-92300000D03*
X88100000Y-95400000D03*
%TD*%
D20*
%TO.C,D3*%
X99700000Y-95337500D03*
X99700000Y-92362500D03*
%TD*%
D14*
%TO.C,R4*%
X183200000Y-99100000D03*
X183200000Y-102200000D03*
%TD*%
%TO.C,R2*%
X150150000Y-51700000D03*
X150150000Y-54800000D03*
%TD*%
D10*
%TO.C,U7*%
X173000000Y-104712500D03*
X171730000Y-104712500D03*
X170460000Y-104712500D03*
X169190000Y-104712500D03*
D11*
X167437500Y-106470000D03*
X167437500Y-107740000D03*
X167437500Y-109010000D03*
X167437500Y-110280000D03*
X167437500Y-111550000D03*
X167437500Y-112820000D03*
X167437500Y-114090000D03*
X167437500Y-115360000D03*
X167437500Y-116630000D03*
D10*
X169190000Y-118387500D03*
X170460000Y-118387500D03*
X171730000Y-118387500D03*
X173000000Y-118387500D03*
X174270000Y-118387500D03*
X175540000Y-118387500D03*
X176810000Y-118387500D03*
D11*
X178562500Y-116630000D03*
X178562500Y-115360000D03*
X178562500Y-114090000D03*
X178562500Y-112820000D03*
X178562500Y-111550000D03*
X178562500Y-110280000D03*
X178562500Y-109010000D03*
X178562500Y-107740000D03*
X178562500Y-106470000D03*
D10*
X176810000Y-104712500D03*
X175540000Y-104712500D03*
X174270000Y-104712500D03*
%TD*%
D12*
%TO.C,U2*%
X159750000Y-74697500D03*
X158480000Y-74697500D03*
X157210000Y-74697500D03*
D13*
X155697500Y-76210000D03*
X155697500Y-77480000D03*
X155697500Y-78750000D03*
X155697500Y-80020000D03*
X155697500Y-81290000D03*
D12*
X157210000Y-82802500D03*
X158480000Y-82802500D03*
X159750000Y-82802500D03*
X161020000Y-82802500D03*
X162290000Y-82802500D03*
D13*
X163802500Y-81290000D03*
X163802500Y-80020000D03*
X163802500Y-78750000D03*
X163802500Y-77480000D03*
X163802500Y-76210000D03*
D12*
X162290000Y-74697500D03*
X161020000Y-74697500D03*
%TD*%
D17*
%TO.C,C5*%
X90712500Y-48600000D03*
X87587500Y-48600000D03*
%TD*%
D16*
%TO.C,U10*%
X108477100Y-105145000D03*
X108477100Y-106415000D03*
X108477100Y-107685000D03*
X108477100Y-108955000D03*
X108477100Y-110225000D03*
X108477100Y-111495000D03*
X108477100Y-112765000D03*
X108477100Y-114035000D03*
X108477100Y-115305000D03*
X108477100Y-116575000D03*
X108477100Y-117845000D03*
X108477100Y-119115000D03*
X108477100Y-120385000D03*
X108477100Y-121655000D03*
X119322900Y-121655000D03*
X119322900Y-120385000D03*
X119322900Y-119115000D03*
X119322900Y-117845000D03*
X119322900Y-116575000D03*
X119322900Y-115305000D03*
X119322900Y-114035000D03*
X119322900Y-112765000D03*
X119322900Y-111495000D03*
X119322900Y-110225000D03*
X119322900Y-108955000D03*
X119322900Y-107685000D03*
X119322900Y-106415000D03*
X119322900Y-105145000D03*
%TD*%
D14*
%TO.C,R5*%
X95750000Y-92300000D03*
X95750000Y-95400000D03*
%TD*%
M02*
