M48
; DRILL file {KiCad 8.0.3} date 2024-07-12T17:40:19+0200
; FORMAT={-:-/ absolute / inch / decimal}
; #@! TF.CreationDate,2024-07-12T17:40:19+02:00
; #@! TF.GenerationSoftware,Kicad,Pcbnew,8.0.3
; #@! TF.FileFunction,Plated,1,2,PTH
FMAT,2
INCH
; #@! TA.AperFunction,Plated,PTH,ViaDrill
T1C0.0118
; #@! TA.AperFunction,Plated,PTH,ComponentDrill
T2C0.0299
; #@! TA.AperFunction,Plated,PTH,ComponentDrill
T3C0.0315
; #@! TA.AperFunction,Plated,PTH,ComponentDrill
T4C0.0354
; #@! TA.AperFunction,Plated,PTH,ComponentDrill
T5C0.0429
%
G90
G05
T1
X3.4252Y-4.1417
X3.4252Y-4.4488
X3.4783Y-2.6358
X3.498Y-3.5453
X3.498Y-4.2441
X3.5472Y-3.8878
X3.6516Y-4.1969
X3.6772Y-4.2638
X3.7165Y-1.8976
X3.7835Y-2.1614
X3.7835Y-3.5118
X3.7835Y-4.4488
X3.8169Y-2.3622
X3.8169Y-3.1623
X3.8465Y-2.2087
X3.8465Y-2.9232
X3.8937Y-1.9882
X3.8937Y-2.6358
X3.9823Y-3.6988
X3.9823Y-4.3504
X3.9843Y-2.0335
X3.9843Y-2.6772
X3.9843Y-2.8327
X3.9843Y-4.1457
X3.9941Y-3.063
X3.9941Y-3.6417
X4.0256Y-1.9291
X4.0256Y-3.0197
X4.0256Y-4.0984
X4.061Y-2.5157
X4.061Y-3.1772
X4.0689Y-3.7264
X4.0709Y-4.065
X4.1161Y-3.9252
X4.1181Y-1.5945
X4.1181Y-4.5354
X4.1535Y-1.8484
X4.1535Y-3.0472
X4.1575Y-4.5827
X4.1614Y-3.563
X4.1614Y-3.6201
X4.1614Y-3.8287
X4.1614Y-4.3327
X4.1634Y-3.1122
X4.1839Y-2.874
X4.185Y-1.8012
X4.1988Y-4.4823
X4.1988Y-4.9528
X4.2067Y-3.8957
X4.2067Y-4.1831
X4.2362Y-2.2087
X4.2362Y-2.815
X4.2677Y-2.439
X4.2677Y-3.2815
X4.2933Y-4.8839
X4.2933Y-5.002
X4.2972Y-1.9154
X4.2972Y-2.3622
X4.3071Y-2.5846
X4.3071Y-3.3642
X4.3477Y-3.0623
X4.3484Y-2.6969
X4.3602Y-3.7618
X4.3602Y-4.2835
X4.376Y-3.1122
X4.3878Y-3.2224
X4.3878Y-3.5925
X4.3898Y-1.9488
X4.3937Y-4.2323
X4.3957Y-3.8602
X4.4232Y-2.3937
X4.4232Y-3.1623
X4.4252Y-4.5925
X4.4547Y-2.5433
X4.4626Y-4.5177
X4.4646Y-4.0354
X4.4646Y-4.4331
X4.498Y-4.4829
X4.5374Y-2.0138
X4.5374Y-2.3937
X4.5413Y-4.0
X4.5413Y-4.3819
X4.5571Y-5.0748
X4.5591Y-4.7441
X4.5689Y-4.6339
X4.5709Y-3.122
X4.5709Y-3.4429
X4.5709Y-4.4843
X4.6024Y-2.4587
X4.6024Y-3.7638
X4.6024Y-4.3327
X4.622Y-1.9154
X4.6244Y-2.0232
X4.6457Y-2.2087
X4.6457Y-2.874
X4.6713Y-5.1339
X4.6811Y-2.4252
X4.6811Y-3.5118
X4.6811Y-3.9685
X4.6811Y-4.1358
X4.7185Y-3.7264
X4.7205Y-2.4587
X4.7402Y-2.6181
X4.7402Y-3.0256
X4.7402Y-3.0709
X4.7402Y-3.1142
X4.7559Y-3.6496
X4.7559Y-4.3819
X4.7933Y-3.7972
X4.7953Y-3.2047
X4.7953Y-3.4783
X4.7953Y-3.9252
X4.7953Y-4.4783
X4.813Y-3.1476
X4.8209Y-4.6831
X4.8268Y-3.7283
X4.8268Y-4.0354
X4.8268Y-4.3681
X4.8327Y-3.6201
X4.8563Y-4.5551
X4.8917Y-4.0059
X4.8917Y-4.3346
X4.9094Y-4.4331
X4.9094Y-4.9528
X4.9094Y-5.1024
X4.9193Y-4.2815
X4.9587Y-4.5827
X4.9606Y-4.5335
X4.9626Y-4.065
X4.9744Y-4.9547
X4.9764Y-3.4547
X4.9783Y-3.2835
X4.9783Y-3.3346
X4.9941Y-3.7303
X4.9941Y-3.8287
X4.9941Y-4.1339
X5.002Y-3.6319
X5.0079Y-2.5433
X5.0079Y-2.9016
X5.0315Y-3.4232
X5.0315Y-3.7638
X5.0315Y-4.1043
X5.0413Y-2.6614
X5.0413Y-2.9488
X5.0492Y-4.7028
X5.0492Y-4.8917
X5.0591Y-3.8622
X5.0591Y-4.063
X5.0669Y-3.628
X5.0689Y-3.2461
X5.0866Y-2.2461
X5.1161Y-1.9252
X5.126Y-3.1693
X5.126Y-4.5118
X5.1475Y-3.1202
X5.1614Y-3.872
X5.1654Y-2.5551
X5.1791Y-4.7953
X5.1791Y-4.9232
X5.187Y-3.0709
X5.189Y-4.622
X5.1988Y-2.1161
X5.2283Y-4.7953
X5.2283Y-4.9035
X5.2283Y-5.002
X5.2362Y-4.4331
X5.2598Y-4.0748
X5.2598Y-4.5728
X5.2618Y-2.9488
X5.2657Y-3.0217
X5.2677Y-3.1752
X5.2677Y-3.6673
X5.2717Y-2.2894
X5.2854Y-2.4587
X5.2992Y-3.9016
X5.3031Y-2.5846
X5.3031Y-3.0768
X5.3248Y-3.9685
X5.3248Y-4.0728
X5.3287Y-4.2697
X5.3287Y-4.7913
X5.3287Y-4.8622
X5.3346Y-4.4843
X5.3346Y-4.6024
X5.376Y-4.9843
X5.376Y-5.0748
X5.378Y-4.7736
X5.3799Y-4.4843
X5.3898Y-1.8228
X5.4055Y-2.3701
X5.4134Y-3.4213
X5.4134Y-4.0709
X5.4193Y-4.8642
X5.4193Y-5.0197
X5.4213Y-3.2756
X5.4252Y-4.4843
X5.4311Y-2.6969
X5.4409Y-3.311
X5.4429Y-2.8386
X5.4429Y-2.9173
X5.4685Y-4.7106
X5.4902Y-3.2205
X5.4902Y-3.4961
X5.498Y-3.937
X5.498Y-4.1732
X5.498Y-4.6732
X5.5177Y-1.8898
X5.5315Y-3.6614
X5.5354Y-4.8307
X5.5354Y-5.0748
X5.5413Y-2.6181
X5.5413Y-3.0335
X5.5768Y-3.937
X5.5846Y-4.2835
X5.5846Y-4.3327
X5.5846Y-5.1339
X5.6201Y-1.8524
X5.622Y-4.7126
X5.624Y-1.9252
X5.624Y-3.4213
X5.624Y-3.5217
X5.6535Y-4.5335
X5.6673Y-2.4587
X5.6673Y-3.2047
X5.6673Y-3.4213
X5.6772Y-3.124
X5.685Y-3.0551
X5.6988Y-1.9626
X5.6988Y-2.3209
X5.7028Y-3.4862
X5.7028Y-3.7717
X5.7028Y-4.6339
X5.7283Y-2.4252
X5.7303Y-3.872
X5.7303Y-4.6846
X5.7323Y-3.378
X5.7362Y-1.8602
X5.7362Y-2.0394
X5.7579Y-2.7343
X5.7657Y-4.7346
X5.7677Y-2.5886
X5.7677Y-3.9035
X5.7953Y-3.2953
X5.7953Y-3.628
X5.7992Y-4.6339
X5.7992Y-4.9547
X5.8004Y-4.2846
X5.8031Y-2.8071
X5.8031Y-2.9705
X5.8051Y-3.874
X5.8051Y-4.0709
X5.8209Y-1.8248
X5.8209Y-2.1161
X5.8366Y-3.7362
X5.8425Y-3.4547
X5.8445Y-2.6988
X5.8445Y-3.1772
X5.8445Y-3.2579
X5.8622Y-1.939
X5.8622Y-2.5157
X5.876Y-3.9055
X5.876Y-4.0354
X5.8878Y-2.7008
X5.8878Y-3.2264
X5.8878Y-3.5925
X5.9232Y-2.8386
X5.9232Y-3.8327
X5.9232Y-4.1102
X5.9252Y-3.3661
X5.9606Y-4.0059
X5.9626Y-3.124
X5.9783Y-4.3858
X6.0138Y-3.1772
X6.0138Y-3.9035
X6.0138Y-4.5846
X6.0236Y-2.5157
X6.0276Y-2.7756
X6.0276Y-3.0748
X6.0374Y-5.1024
X6.0472Y-4.4803
X6.0669Y-1.939
X6.0689Y-2.5551
X6.0689Y-3.4311
X6.0984Y-3.7067
X6.0984Y-4.1299
X6.1004Y-2.9449
X6.1181Y-2.624
X6.124Y-4.6417
X6.124Y-5.1181
X6.1339Y-3.4665
X6.1339Y-4.5276
X6.1673Y-2.0315
X6.1693Y-3.7087
X6.1693Y-4.4114
X6.1752Y-4.5846
X6.1791Y-4.685
X6.1791Y-4.7362
X6.2008Y-3.4311
X6.2106Y-2.8031
X6.2165Y-2.5571
X6.2382Y-3.0472
X6.2421Y-3.1299
X6.2421Y-3.4665
X6.2618Y-3.7362
X6.2677Y-1.8602
X6.2697Y-3.9715
X6.2756Y-2.0591
X6.2756Y-3.1654
X6.2756Y-3.4291
X6.315Y-2.1575
X6.3209Y-3.5945
X6.3209Y-4.0827
X6.3228Y-2.6634
X6.3228Y-3.2028
X6.3366Y-4.1831
X6.3386Y-4.7638
X6.3386Y-4.9508
X6.3445Y-4.6378
X6.3445Y-4.7146
X6.3465Y-3.0433
X6.3661Y-2.2087
X6.372Y-4.2362
X6.374Y-2.3209
X6.3819Y-4.6831
X6.3819Y-4.9094
X6.3976Y-3.0728
X6.3996Y-4.1299
X6.437Y-3.7717
X6.439Y-3.8839
X6.439Y-4.5315
X6.4744Y-4.5886
X6.4764Y-3.3189
X6.4803Y-2.9528
X6.4882Y-2.4252
X6.5079Y-3.4272
X6.5079Y-4.6378
X6.5157Y-3.2697
X6.5177Y-2.3701
X6.5394Y-3.7362
X6.5394Y-4.2382
X6.5669Y-2.8209
X6.5669Y-3.126
X6.5965Y-2.1142
X6.5965Y-5.0197
X6.622Y-3.4567
X6.622Y-4.7146
X6.6319Y-3.126
X6.6339Y-2.4606
X6.6575Y-3.937
X6.6594Y-3.0276
X6.6594Y-3.3996
X6.6594Y-3.4941
X6.6614Y-2.1575
X6.6614Y-2.9488
X6.6949Y-2.8071
X6.6949Y-3.0768
X6.6988Y-2.3602
X6.6988Y-3.1811
X6.6988Y-4.0787
X6.7106Y-4.8681
X6.7283Y-2.5571
X6.7303Y-3.0236
X6.7449Y-4.615
X6.7461Y-3.815
X6.752Y-2.3228
X6.7677Y-2.5157
X6.7677Y-3.0748
X6.7953Y-4.9823
X6.8248Y-4.439
X6.8563Y-2.7343
X6.8563Y-3.2795
X6.8661Y-3.3701
X6.8661Y-3.7736
X6.8661Y-4.561
X6.9075Y-2.1142
X6.9075Y-5.0748
X6.9311Y-4.3898
X6.935Y-3.5217
X6.937Y-4.8346
X6.939Y-3.624
X6.939Y-3.8839
X6.939Y-4.5846
X6.9528Y-2.3622
X6.9724Y-3.2165
X6.9783Y-3.9705
X6.9803Y-4.0571
X6.9882Y-4.3386
X7.0Y-1.8602
X7.0059Y-3.0531
X7.0157Y-3.2146
X7.0413Y-2.2894
X7.0472Y-2.3465
X7.065Y-4.7087
X7.065Y-4.9094
X7.0669Y-3.1772
X7.0669Y-3.5945
X7.0787Y-3.7028
X7.0807Y-4.0571
X7.1102Y-2.2087
X7.1122Y-2.065
X7.1122Y-4.8031
X7.1299Y-3.0512
X7.1437Y-3.128
X7.1437Y-3.6654
X7.1437Y-4.2874
X7.1614Y-2.7008
X7.1634Y-4.7736
X7.1634Y-4.9508
X7.1732Y-3.8898
X7.1732Y-4.5728
X7.1752Y-3.563
X7.1752Y-3.8465
X7.2008Y-3.4272
X7.2067Y-4.6378
X7.2067Y-5.1181
X7.2165Y-1.8268
X7.2461Y-4.8346
X7.248Y-1.8839
X7.2835Y-3.4567
X7.2972Y-4.6831
X7.3169Y-2.2441
X7.3209Y-2.2815
X7.3307Y-3.6752
X7.3307Y-3.935
X7.374Y-4.3681
X7.4055Y-3.815
X7.4193Y-4.2456
X7.5177Y-2.2795
X7.5492Y-3.378
X7.5492Y-3.622
X7.5492Y-4.5394
T2
X7.3173Y-4.9213
X7.4173Y-4.7213
X7.5173Y-4.9213
T3
X3.4252Y-3.4646
X3.4764Y-2.7228
X3.4764Y-2.8228
X3.4764Y-2.9228
X3.5236Y-3.4646
X3.6512Y-2.7228
X3.6512Y-2.8228
X3.6512Y-2.9228
X3.6772Y-4.9998
X3.6772Y-5.0982
X7.4528Y-3.9213
X7.4528Y-4.0213
X7.4528Y-4.1213
T4
X3.5984Y-4.5217
X3.5984Y-4.7185
X3.7008Y-3.9183
X3.7008Y-4.0183
X3.7953Y-4.5217
X3.7953Y-4.7185
X7.4665Y-3.5722
X7.4665Y-3.6722
T5
X3.4669Y-1.5402
X3.4669Y-1.7402
X3.5669Y-1.5402
X3.5669Y-1.7402
X3.6669Y-1.5402
X3.6669Y-1.7402
X3.7669Y-1.5402
X3.7669Y-1.7402
X3.8669Y-1.5402
X3.8669Y-1.7402
X3.9669Y-1.5402
X3.9669Y-1.7402
X4.0669Y-1.5402
X4.0669Y-1.7402
X4.1669Y-1.5402
X4.1669Y-1.7402
X4.2669Y-1.5402
X4.2669Y-1.7402
X4.3669Y-1.5402
X4.3669Y-1.7402
X4.4669Y-1.5402
X4.4669Y-1.7402
X4.5669Y-1.5402
X4.5669Y-1.7402
X4.6669Y-1.5402
X4.6669Y-1.7402
X4.7669Y-1.5402
X4.7669Y-1.7402
X4.8669Y-1.5402
X4.8669Y-1.7402
X4.9669Y-1.5402
X4.9669Y-1.7402
X5.0669Y-1.5402
X5.0669Y-1.7402
X5.1669Y-1.5402
X5.1669Y-1.7402
X5.2669Y-1.5402
X5.2669Y-1.7402
X5.3669Y-1.5402
X5.3669Y-1.7402
X5.4669Y-1.5402
X5.4669Y-1.7402
X5.5669Y-1.5402
X5.5669Y-1.7402
X5.6669Y-1.5402
X5.6669Y-1.7402
X5.7669Y-1.5402
X5.7669Y-1.7402
X5.8669Y-1.5402
X5.8669Y-1.7402
X5.9669Y-1.5402
X5.9669Y-1.7402
X6.0669Y-1.5402
X6.0669Y-1.7402
X6.1669Y-1.5402
X6.1669Y-1.7402
X6.2669Y-1.5402
X6.2669Y-1.7402
X6.3669Y-1.5402
X6.3669Y-1.7402
X6.4669Y-1.5402
X6.4669Y-1.7402
X6.5669Y-1.5402
X6.5669Y-1.7402
X6.6669Y-1.5402
X6.6669Y-1.7402
X6.7669Y-1.5402
X6.7669Y-1.7402
X6.8669Y-1.5402
X6.8669Y-1.7402
X6.9669Y-1.5402
X6.9669Y-1.7402
X7.0669Y-1.5402
X7.0669Y-1.7402
X7.1669Y-1.5402
X7.1669Y-1.7402
X7.2669Y-1.5402
X7.2669Y-1.7402
X7.3669Y-1.5402
X7.3669Y-1.7402
X7.4669Y-1.5402
X7.4669Y-1.7402
X7.5669Y-1.5402
X7.5669Y-1.7402
X7.6669Y-1.5402
X7.6669Y-1.7402
M30
