M48
; DRILL file {KiCad 8.0.3} date 2024-09-18T06:56:03+0200
; FORMAT={-:-/ absolute / inch / decimal}
; #@! TF.CreationDate,2024-09-18T06:56:03+02:00
; #@! TF.GenerationSoftware,Kicad,Pcbnew,8.0.3
; #@! TF.FileFunction,Plated,1,2,PTH
FMAT,2
INCH
; #@! TA.AperFunction,Plated,PTH,ViaDrill
T1C0.0118
; #@! TA.AperFunction,Plated,PTH,ComponentDrill
T2C0.0299
; #@! TA.AperFunction,Plated,PTH,ComponentDrill
T3C0.0315
; #@! TA.AperFunction,Plated,PTH,ComponentDrill
T4C0.0354
; #@! TA.AperFunction,Plated,PTH,ComponentDrill
T5C0.0429
%
G90
G05
T1
X3.4409Y-4.4606
X3.4429Y-4.1201
X3.5Y-2.6378
X3.5197Y-3.5276
X3.5217Y-4.2185
X3.5669Y-3.8622
X3.6772Y-4.1693
X3.7008Y-4.2441
X3.7165Y-1.9154
X3.7835Y-3.4921
X3.7835Y-4.4567
X3.7835Y-2.175
X3.8209Y-2.4
X3.8209Y-3.1496
X3.8535Y-2.9244
X3.8563Y-2.2205
X3.895Y-1.97
X3.8976Y-2.6378
X3.9941Y-2.6811
X3.9941Y-2.8228
X3.995Y-2.0
X4.0039Y-4.1181
X4.0039Y-4.3189
X4.0059Y-3.0492
X4.0059Y-3.6378
X4.0059Y-3.6831
X4.0433Y-1.9469
X4.0433Y-3.0079
X4.0433Y-4.0709
X4.0709Y-2.498
X4.0709Y-3.1772
X4.0827Y-3.7087
X4.0827Y-4.0335
X4.1161Y-1.6417
X4.1161Y-3.8937
X4.124Y-4.4902
X4.155Y-4.5394
X4.1555Y-1.8661
X4.1555Y-3.0394
X4.1693Y-3.0984
X4.1693Y-3.5413
X4.1713Y-3.6043
X4.1713Y-3.8071
X4.1713Y-4.2894
X4.1949Y-1.813
X4.1949Y-2.8524
X4.205Y-4.44
X4.205Y-4.91
X4.2185Y-3.8681
X4.2185Y-4.1398
X4.2382Y-2.2205
X4.2382Y-2.813
X4.27Y-4.955
X4.2708Y-4.8392
X4.2795Y-2.4744
X4.2795Y-3.2736
X4.295Y-1.885
X4.2953Y-2.4
X4.311Y-2.5748
X4.311Y-3.3543
X4.3484Y-2.6831
X4.3484Y-3.0492
X4.372Y-3.0984
X4.372Y-3.7441
X4.372Y-4.2396
X4.3937Y-1.915
X4.3937Y-3.2067
X4.3937Y-3.5728
X4.4055Y-3.8346
X4.4055Y-4.189
X4.4291Y-2.45
X4.4291Y-3.1476
X4.437Y-4.5512
X4.4587Y-2.5354
X4.4724Y-4.0059
X4.4724Y-4.3898
X4.4744Y-4.4764
X4.5059Y-4.439
X4.5394Y-2.0
X4.5413Y-2.45
X4.5433Y-3.9764
X4.5433Y-4.3406
X4.563Y-4.7028
X4.563Y-5.0295
X4.5728Y-4.5886
X4.5768Y-3.4252
X4.5787Y-3.1004
X4.5787Y-4.4396
X4.6063Y-4.2894
X4.6083Y-2.4606
X4.6083Y-3.7441
X4.6142Y-1.995
X4.615Y-1.885
X4.6378Y-2.2205
X4.6398Y-2.8543
X4.6732Y-3.4882
X4.6732Y-5.0886
X4.6791Y-2.4114
X4.6831Y-4.0965
X4.689Y-3.939
X4.7185Y-2.4606
X4.7244Y-3.7067
X4.7283Y-2.6122
X4.7283Y-3.0098
X4.7283Y-3.0571
X4.7283Y-3.1043
X4.7579Y-3.6339
X4.7579Y-4.3386
X4.7894Y-3.8937
X4.7894Y-4.439
X4.7913Y-3.2008
X4.7913Y-3.4547
X4.7913Y-3.7756
X4.8051Y-3.1358
X4.8209Y-3.6043
X4.8209Y-3.7047
X4.8209Y-4.0059
X4.8209Y-4.3248
X4.8228Y-4.6339
X4.8543Y-4.5138
X4.8839Y-3.9783
X4.8839Y-4.2894
X4.9114Y-4.9075
X4.9114Y-5.061
X4.9134Y-4.3898
X4.9193Y-4.2421
X4.9567Y-4.5394
X4.9587Y-4.0315
X4.961Y-4.4898
X4.9626Y-3.2618
X4.9626Y-3.3091
X4.9626Y-3.4291
X4.9744Y-4.9094
X4.9902Y-3.7067
X4.9902Y-3.8071
X4.9902Y-4.1063
X4.9961Y-3.6122
X5.0059Y-2.5354
X5.0079Y-2.8858
X5.0256Y-3.4016
X5.0256Y-3.7441
X5.0335Y-4.1358
X5.0354Y-2.6398
X5.0413Y-2.9409
X5.0453Y-4.6594
X5.0453Y-4.8484
X5.0531Y-3.2264
X5.0531Y-3.6024
X5.0551Y-3.8346
X5.0551Y-4.0374
X5.0768Y-2.2224
X5.1161Y-4.4843
X5.1181Y-1.9331
X5.1181Y-3.1496
X5.1339Y-3.1004
X5.1476Y-2.5433
X5.1535Y-3.8406
X5.1673Y-4.75
X5.1673Y-4.878
X5.1693Y-3.0492
X5.1811Y-4.5787
X5.185Y-2.128
X5.2165Y-4.75
X5.2165Y-4.8504
X5.2165Y-4.9567
X5.2185Y-4.3917
X5.248Y-3.1516
X5.248Y-3.6476
X5.252Y-2.2697
X5.252Y-2.9409
X5.252Y-3.0
X5.2559Y-4.0433
X5.2559Y-4.5315
X5.2776Y-3.8701
X5.2874Y-2.4528
X5.2894Y-2.5748
X5.2894Y-3.0591
X5.3071Y-3.939
X5.3071Y-4.0433
X5.315Y-4.2343
X5.3169Y-4.752
X5.3169Y-4.8209
X5.3228Y-4.439
X5.3248Y-4.565
X5.3677Y-4.7362
X5.3681Y-4.937
X5.3681Y-5.0295
X5.372Y-4.439
X5.3839Y-1.8189
X5.3996Y-3.4055
X5.3996Y-4.0394
X5.4016Y-2.3563
X5.4035Y-4.8209
X5.4035Y-4.9646
X5.4114Y-3.2559
X5.4154Y-4.439
X5.4252Y-2.813
X5.4252Y-2.9094
X5.4272Y-3.2933
X5.435Y-2.6811
X5.4606Y-4.6594
X5.4665Y-3.2008
X5.4665Y-3.4764
X5.4803Y-3.9035
X5.4803Y-4.1417
X5.4882Y-4.6358
X5.5157Y-1.8937
X5.5197Y-3.6358
X5.5276Y-2.6122
X5.5276Y-3.0217
X5.5276Y-4.7894
X5.5276Y-5.0295
X5.5669Y-3.9035
X5.5768Y-4.2382
X5.5768Y-4.2913
X5.5768Y-5.0886
X5.6024Y-3.3976
X5.6063Y-1.9331
X5.6063Y-3.4961
X5.6063Y-4.6594
X5.6181Y-1.8563
X5.6398Y-2.4528
X5.6398Y-4.4902
X5.6575Y-3.1811
X5.6575Y-3.3937
X5.6594Y-3.1004
X5.6614Y-3.0354
X5.6693Y-1.9665
X5.6693Y-2.3091
X5.6791Y-3.7382
X5.6791Y-4.5906
X5.689Y-3.4606
X5.7047Y-2.4114
X5.71Y-4.6398
X5.7146Y-1.8543
X5.7146Y-2.0374
X5.7146Y-3.3583
X5.7165Y-3.8425
X5.7382Y-2.7126
X5.752Y-4.689
X5.7539Y-3.8701
X5.7657Y-2.5709
X5.7717Y-3.6024
X5.7736Y-3.2736
X5.775Y-4.9094
X5.7756Y-2.7795
X5.7756Y-2.9567
X5.7756Y-4.24
X5.7756Y-4.59
X5.7854Y-3.8406
X5.7854Y-4.0394
X5.7972Y-1.8268
X5.7972Y-2.128
X5.8189Y-3.2303
X5.8189Y-3.4311
X5.8209Y-2.6752
X5.8209Y-3.1504
X5.8228Y-3.7067
X5.8366Y-1.9331
X5.8366Y-2.498
X5.8543Y-3.878
X5.8543Y-4.0138
X5.874Y-2.6752
X5.874Y-3.1988
X5.874Y-3.5728
X5.8996Y-3.8091
X5.8996Y-4.0728
X5.9094Y-2.813
X5.9094Y-3.3425
X5.935Y-3.0965
X5.935Y-3.9764
X5.9528Y-4.3386
X6.0039Y-3.0512
X6.0039Y-3.1516
X6.0039Y-3.878
X6.0039Y-4.5374
X6.0059Y-2.75
X6.0157Y-2.4941
X6.0315Y-4.439
X6.0315Y-5.061
X6.0433Y-2.5433
X6.0433Y-3.4094
X6.0689Y-1.9311
X6.0748Y-3.6831
X6.0748Y-4.0984
X6.0807Y-2.9252
X6.1083Y-3.4488
X6.1083Y-4.4902
X6.1122Y-4.6024
X6.1142Y-5.061
X6.1181Y-2.6063
X6.1417Y-3.6772
X6.1457Y-4.3642
X6.1496Y-4.5394
X6.1535Y-2.7795
X6.1634Y-4.6378
X6.1634Y-4.689
X6.1673Y-2.0354
X6.1713Y-3.4094
X6.2087Y-3.0236
X6.2146Y-2.5354
X6.2165Y-3.1004
X6.2165Y-3.4488
X6.2461Y-3.7067
X6.2461Y-3.939
X6.25Y-2.0571
X6.25Y-3.1417
X6.25Y-3.4075
X6.2677Y-1.8543
X6.2894Y-2.6398
X6.2894Y-3.1752
X6.2933Y-3.5689
X6.2933Y-4.0492
X6.3189Y-2.1417
X6.3209Y-4.8957
X6.3248Y-3.0118
X6.3248Y-4.14
X6.325Y-4.71
X6.33Y-4.5917
X6.335Y-4.6732
X6.3465Y-4.187
X6.3484Y-2.3091
X6.3622Y-4.6398
X6.3622Y-4.8563
X6.3661Y-2.1831
X6.3799Y-3.0472
X6.3799Y-4.0984
X6.4114Y-3.7382
X6.4114Y-3.8524
X6.4114Y-4.4882
X6.4469Y-3.2913
X6.4469Y-4.5413
X6.4508Y-2.4114
X6.4508Y-2.9409
X6.4803Y-3.4016
X6.4803Y-4.5925
X6.4902Y-2.3563
X6.4902Y-3.248
X6.5098Y-3.7067
X6.5098Y-4.1909
X6.5295Y-2.7972
X6.5295Y-3.1004
X6.5571Y-2.0906
X6.5571Y-4.9646
X6.5846Y-3.4272
X6.5846Y-4.6732
X6.5886Y-2.4528
X6.5886Y-3.0965
X6.624Y-2.1417
X6.624Y-2.9252
X6.624Y-3.0
X6.624Y-3.3701
X6.626Y-3.4626
X6.626Y-3.9094
X6.6535Y-2.7815
X6.6535Y-3.0512
X6.6669Y-2.3449
X6.6673Y-3.1496
X6.6673Y-4.0453
X6.6831Y-2.5354
X6.6831Y-2.9961
X6.6831Y-4.815
X6.7106Y-3.7815
X6.7106Y-4.5669
X6.7165Y-2.3051
X6.7244Y-2.4961
X6.7244Y-3.0472
X6.7657Y-4.939
X6.7972Y-4.3917
X6.813Y-2.7126
X6.815Y-3.248
X6.8248Y-4.5098
X6.8307Y-3.3327
X6.8307Y-3.7343
X6.8622Y-5.0276
X6.8681Y-2.0906
X6.8957Y-4.3406
X6.8996Y-2.3465
X6.8996Y-3.4961
X6.9035Y-3.5984
X6.9035Y-3.8484
X6.9094Y-4.5492
X6.9094Y-4.7894
X6.938Y-3.186
X6.939Y-3.9429
X6.9409Y-4.0472
X6.9567Y-4.2913
X6.9665Y-3.0236
X6.9685Y-1.8563
X6.9843Y-3.187
X7.0157Y-2.2697
X7.0197Y-2.3248
X7.0315Y-3.1535
X7.0315Y-3.5689
X7.0315Y-4.6614
X7.0315Y-4.8543
X7.0413Y-4.0472
X7.0433Y-3.6752
X7.0669Y-2.0571
X7.0709Y-4.7539
X7.0906Y-2.1831
X7.0906Y-3.0256
X7.1063Y-3.0984
X7.1063Y-3.6319
X7.1063Y-4.2421
X7.1161Y-2.6713
X7.128Y-4.7047
X7.128Y-4.8957
X7.1378Y-3.5413
X7.1378Y-3.811
X7.1378Y-3.8524
X7.1378Y-4.5413
X7.1673Y-3.3996
X7.1693Y-4.5906
X7.1693Y-5.061
X7.2087Y-4.7894
X7.2205Y-1.8189
X7.2205Y-1.8661
X7.2559Y-4.6398
X7.2638Y-3.4272
X7.313Y-3.6496
X7.313Y-3.9016
X7.3169Y-2.2224
X7.3189Y-2.2756
X7.3484Y-4.3307
X7.3622Y-3.7815
X7.4232Y-4.2106
X7.4724Y-2.2736
X7.5138Y-3.3445
X7.5138Y-3.5984
X7.5138Y-4.4921
T2
X7.3232Y-4.8063
X7.4232Y-4.6063
X7.5232Y-4.8063
T3
X3.4429Y-3.4508
X3.5Y-2.7244
X3.5Y-2.8244
X3.5Y-2.9244
X3.5413Y-3.4508
X3.6457Y-2.7244
X3.6457Y-2.8244
X3.6457Y-2.9244
X3.7008Y-4.9978
X3.7008Y-5.0963
X7.4213Y-3.9035
X7.4213Y-4.0035
X7.4213Y-4.1035
T4
X3.6094Y-4.5424
X3.6094Y-4.7393
X3.7185Y-3.9065
X3.7185Y-4.0065
X3.8062Y-4.5424
X3.8062Y-4.7393
X7.435Y-3.5496
X7.435Y-3.6496
T5
X3.4669Y-1.5402
X3.4669Y-1.7402
X3.5669Y-1.5402
X3.5669Y-1.7402
X3.6669Y-1.5402
X3.6669Y-1.7402
X3.7669Y-1.5402
X3.7669Y-1.7402
X3.8669Y-1.5402
X3.8669Y-1.7402
X3.9669Y-1.5402
X3.9669Y-1.7402
X4.0669Y-1.5402
X4.0669Y-1.7402
X4.1669Y-1.5402
X4.1669Y-1.7402
X4.2669Y-1.5402
X4.2669Y-1.7402
X4.3669Y-1.5402
X4.3669Y-1.7402
X4.4669Y-1.5402
X4.4669Y-1.7402
X4.5669Y-1.5402
X4.5669Y-1.7402
X4.6669Y-1.5402
X4.6669Y-1.7402
X4.7669Y-1.5402
X4.7669Y-1.7402
X4.8669Y-1.5402
X4.8669Y-1.7402
X4.9669Y-1.5402
X4.9669Y-1.7402
X5.0669Y-1.5402
X5.0669Y-1.7402
X5.1669Y-1.5402
X5.1669Y-1.7402
X5.2669Y-1.5402
X5.2669Y-1.7402
X5.3669Y-1.5402
X5.3669Y-1.7402
X5.4669Y-1.5402
X5.4669Y-1.7402
X5.5669Y-1.5402
X5.5669Y-1.7402
X5.6669Y-1.5402
X5.6669Y-1.7402
X5.7669Y-1.5402
X5.7669Y-1.7402
X5.8669Y-1.5402
X5.8669Y-1.7402
X5.9669Y-1.5402
X5.9669Y-1.7402
X6.0669Y-1.5402
X6.0669Y-1.7402
X6.1669Y-1.5402
X6.1669Y-1.7402
X6.2669Y-1.5402
X6.2669Y-1.7402
X6.3669Y-1.5402
X6.3669Y-1.7402
X6.4669Y-1.5402
X6.4669Y-1.7402
X6.5669Y-1.5402
X6.5669Y-1.7402
X6.6669Y-1.5402
X6.6669Y-1.7402
X6.7669Y-1.5402
X6.7669Y-1.7402
X6.8669Y-1.5402
X6.8669Y-1.7402
X6.9669Y-1.5402
X6.9669Y-1.7402
X7.0669Y-1.5402
X7.0669Y-1.7402
X7.1669Y-1.5402
X7.1669Y-1.7402
X7.2669Y-1.5402
X7.2669Y-1.7402
X7.3669Y-1.5402
X7.3669Y-1.7402
X7.4669Y-1.5402
X7.4669Y-1.7402
X7.5669Y-1.5402
X7.5669Y-1.7402
X7.6669Y-1.5402
X7.6669Y-1.7402
M30
