%TF.GenerationSoftware,KiCad,Pcbnew,8.0.3*%
%TF.CreationDate,2024-07-13T21:17:31+02:00*%
%TF.ProjectId,ARIII,41524949-492e-46b6-9963-61645f706362,rev?*%
%TF.SameCoordinates,Original*%
%TF.FileFunction,Drillmap*%
%TF.FilePolarity,Positive*%
%FSLAX45Y45*%
G04 Gerber Fmt 4.5, Leading zero omitted, Abs format (unit mm)*
G04 Created by KiCad (PCBNEW 8.0.3) date 2024-07-13 21:17:31*
%MOMM*%
%LPD*%
G01*
G04 APERTURE LIST*
%ADD10C,0.050000*%
%ADD11C,0.200000*%
G04 APERTURE END LIST*
D10*
X9390000Y-6190000D02*
G75*
G02*
X9540000Y-6340000I0J-150000D01*
G01*
X8440000Y-3690000D02*
X8440000Y-6190000D01*
X8440000Y-6190000D02*
X9390000Y-6190000D01*
X19840000Y-6490000D02*
X19840000Y-13290000D01*
X19840000Y-3690000D02*
X19840000Y-6190000D01*
X18890000Y-6490000D02*
G75*
G02*
X18740000Y-6340000I0J150000D01*
G01*
X9390000Y-6490000D02*
X8440000Y-6490000D01*
X18890000Y-6190000D02*
X19840000Y-6190000D01*
X9540000Y-6340000D02*
G75*
G02*
X9390000Y-6490000I-150000J0D01*
G01*
X8440000Y-13290000D02*
X19840000Y-13290000D01*
X18740000Y-6340000D02*
G75*
G02*
X18890000Y-6190000I150000J0D01*
G01*
X8440000Y-3690000D02*
X19840000Y-3690000D01*
X8440000Y-6490000D02*
X8440000Y-13290000D01*
X19840000Y-6490000D02*
X18890000Y-6490000D01*
D11*
X8698277Y-13603984D02*
X8698277Y-13403984D01*
X8698277Y-13403984D02*
X8745896Y-13403984D01*
X8745896Y-13403984D02*
X8774467Y-13413508D01*
X8774467Y-13413508D02*
X8793515Y-13432555D01*
X8793515Y-13432555D02*
X8803039Y-13451603D01*
X8803039Y-13451603D02*
X8812563Y-13489698D01*
X8812563Y-13489698D02*
X8812563Y-13518269D01*
X8812563Y-13518269D02*
X8803039Y-13556365D01*
X8803039Y-13556365D02*
X8793515Y-13575412D01*
X8793515Y-13575412D02*
X8774467Y-13594460D01*
X8774467Y-13594460D02*
X8745896Y-13603984D01*
X8745896Y-13603984D02*
X8698277Y-13603984D01*
X8898277Y-13603984D02*
X8898277Y-13470650D01*
X8898277Y-13508746D02*
X8907801Y-13489698D01*
X8907801Y-13489698D02*
X8917324Y-13480174D01*
X8917324Y-13480174D02*
X8936372Y-13470650D01*
X8936372Y-13470650D02*
X8955420Y-13470650D01*
X9022086Y-13603984D02*
X9022086Y-13470650D01*
X9022086Y-13403984D02*
X9012563Y-13413508D01*
X9012563Y-13413508D02*
X9022086Y-13423031D01*
X9022086Y-13423031D02*
X9031610Y-13413508D01*
X9031610Y-13413508D02*
X9022086Y-13403984D01*
X9022086Y-13403984D02*
X9022086Y-13423031D01*
X9145896Y-13603984D02*
X9126848Y-13594460D01*
X9126848Y-13594460D02*
X9117324Y-13575412D01*
X9117324Y-13575412D02*
X9117324Y-13403984D01*
X9250658Y-13603984D02*
X9231610Y-13594460D01*
X9231610Y-13594460D02*
X9222086Y-13575412D01*
X9222086Y-13575412D02*
X9222086Y-13403984D01*
X9479229Y-13603984D02*
X9479229Y-13403984D01*
X9479229Y-13403984D02*
X9545896Y-13546841D01*
X9545896Y-13546841D02*
X9612563Y-13403984D01*
X9612563Y-13403984D02*
X9612563Y-13603984D01*
X9793515Y-13603984D02*
X9793515Y-13499222D01*
X9793515Y-13499222D02*
X9783991Y-13480174D01*
X9783991Y-13480174D02*
X9764944Y-13470650D01*
X9764944Y-13470650D02*
X9726848Y-13470650D01*
X9726848Y-13470650D02*
X9707801Y-13480174D01*
X9793515Y-13594460D02*
X9774467Y-13603984D01*
X9774467Y-13603984D02*
X9726848Y-13603984D01*
X9726848Y-13603984D02*
X9707801Y-13594460D01*
X9707801Y-13594460D02*
X9698277Y-13575412D01*
X9698277Y-13575412D02*
X9698277Y-13556365D01*
X9698277Y-13556365D02*
X9707801Y-13537317D01*
X9707801Y-13537317D02*
X9726848Y-13527793D01*
X9726848Y-13527793D02*
X9774467Y-13527793D01*
X9774467Y-13527793D02*
X9793515Y-13518269D01*
X9888753Y-13470650D02*
X9888753Y-13670650D01*
X9888753Y-13480174D02*
X9907801Y-13470650D01*
X9907801Y-13470650D02*
X9945896Y-13470650D01*
X9945896Y-13470650D02*
X9964944Y-13480174D01*
X9964944Y-13480174D02*
X9974467Y-13489698D01*
X9974467Y-13489698D02*
X9983991Y-13508746D01*
X9983991Y-13508746D02*
X9983991Y-13565888D01*
X9983991Y-13565888D02*
X9974467Y-13584936D01*
X9974467Y-13584936D02*
X9964944Y-13594460D01*
X9964944Y-13594460D02*
X9945896Y-13603984D01*
X9945896Y-13603984D02*
X9907801Y-13603984D01*
X9907801Y-13603984D02*
X9888753Y-13594460D01*
X10069705Y-13584936D02*
X10079229Y-13594460D01*
X10079229Y-13594460D02*
X10069705Y-13603984D01*
X10069705Y-13603984D02*
X10060182Y-13594460D01*
X10060182Y-13594460D02*
X10069705Y-13584936D01*
X10069705Y-13584936D02*
X10069705Y-13603984D01*
X10069705Y-13480174D02*
X10079229Y-13489698D01*
X10079229Y-13489698D02*
X10069705Y-13499222D01*
X10069705Y-13499222D02*
X10060182Y-13489698D01*
X10060182Y-13489698D02*
X10069705Y-13480174D01*
X10069705Y-13480174D02*
X10069705Y-13499222D01*
M02*
