%TF.GenerationSoftware,KiCad,Pcbnew,8.0.3*%
%TF.CreationDate,2024-10-04T21:58:16+02:00*%
%TF.ProjectId,ARIII_EPROM,41524949-495f-4455-9052-4f4d2e6b6963,rev?*%
%TF.SameCoordinates,Original*%
%TF.FileFunction,Copper,L1,Top*%
%TF.FilePolarity,Positive*%
%FSLAX46Y46*%
G04 Gerber Fmt 4.6, Leading zero omitted, Abs format (unit mm)*
G04 Created by KiCad (PCBNEW 8.0.3) date 2024-10-04 21:58:16*
%MOMM*%
%LPD*%
G01*
G04 APERTURE LIST*
G04 Aperture macros list*
%AMRoundRect*
0 Rectangle with rounded corners*
0 $1 Rounding radius*
0 $2 $3 $4 $5 $6 $7 $8 $9 X,Y pos of 4 corners*
0 Add a 4 corners polygon primitive as box body*
4,1,4,$2,$3,$4,$5,$6,$7,$8,$9,$2,$3,0*
0 Add four circle primitives for the rounded corners*
1,1,$1+$1,$2,$3*
1,1,$1+$1,$4,$5*
1,1,$1+$1,$6,$7*
1,1,$1+$1,$8,$9*
0 Add four rect primitives between the rounded corners*
20,1,$1+$1,$2,$3,$4,$5,0*
20,1,$1+$1,$4,$5,$6,$7,0*
20,1,$1+$1,$6,$7,$8,$9,0*
20,1,$1+$1,$8,$9,$2,$3,0*%
G04 Aperture macros list end*
%TA.AperFunction,ComponentPad*%
%ADD10C,1.635000*%
%TD*%
%TA.AperFunction,ComponentPad*%
%ADD11C,1.303000*%
%TD*%
%TA.AperFunction,ComponentPad*%
%ADD12R,1.500000X1.500000*%
%TD*%
%TA.AperFunction,ComponentPad*%
%ADD13C,1.600000*%
%TD*%
%TA.AperFunction,ComponentPad*%
%ADD14C,1.500000*%
%TD*%
%TA.AperFunction,ComponentPad*%
%ADD15R,1.600000X1.600000*%
%TD*%
%TA.AperFunction,ComponentPad*%
%ADD16R,1.800000X1.800000*%
%TD*%
%TA.AperFunction,ComponentPad*%
%ADD17C,1.800000*%
%TD*%
%TA.AperFunction,SMDPad,CuDef*%
%ADD18R,0.700000X1.925000*%
%TD*%
%TA.AperFunction,SMDPad,CuDef*%
%ADD19R,1.925000X0.700000*%
%TD*%
%TA.AperFunction,SMDPad,CuDef*%
%ADD20RoundRect,0.250000X-0.625000X0.400000X-0.625000X-0.400000X0.625000X-0.400000X0.625000X0.400000X0*%
%TD*%
%TA.AperFunction,SMDPad,CuDef*%
%ADD21RoundRect,0.250000X-0.650000X0.412500X-0.650000X-0.412500X0.650000X-0.412500X0.650000X0.412500X0*%
%TD*%
%TA.AperFunction,SMDPad,CuDef*%
%ADD22R,1.981200X0.457200*%
%TD*%
%TA.AperFunction,SMDPad,CuDef*%
%ADD23RoundRect,0.250000X0.412500X0.650000X-0.412500X0.650000X-0.412500X-0.650000X0.412500X-0.650000X0*%
%TD*%
%TA.AperFunction,SMDPad,CuDef*%
%ADD24RoundRect,0.150000X-0.150000X1.350000X-0.150000X-1.350000X0.150000X-1.350000X0.150000X1.350000X0*%
%TD*%
%TA.AperFunction,SMDPad,CuDef*%
%ADD25RoundRect,0.150000X-0.825000X-0.150000X0.825000X-0.150000X0.825000X0.150000X-0.825000X0.150000X0*%
%TD*%
%TA.AperFunction,SMDPad,CuDef*%
%ADD26RoundRect,0.250001X0.624999X-0.462499X0.624999X0.462499X-0.624999X0.462499X-0.624999X-0.462499X0*%
%TD*%
%TA.AperFunction,ComponentPad*%
%ADD27R,1.160000X1.160000*%
%TD*%
%TA.AperFunction,ComponentPad*%
%ADD28O,1.160000X1.160000*%
%TD*%
%TA.AperFunction,ViaPad*%
%ADD29C,0.600000*%
%TD*%
%TA.AperFunction,Conductor*%
%ADD30C,0.200000*%
%TD*%
%TA.AperFunction,Conductor*%
%ADD31C,0.400000*%
%TD*%
G04 APERTURE END LIST*
D10*
%TO.P,CN1,1,1*%
%TO.N,GND*%
X88060000Y-44200000D03*
%TO.P,CN1,2,2*%
X88060000Y-39120000D03*
%TO.P,CN1,3,3*%
X90600000Y-44200000D03*
%TO.P,CN1,4,4*%
X90600000Y-39120000D03*
%TO.P,CN1,5,5*%
%TO.N,unconnected-(CN1-Pad5)*%
X93140000Y-44200000D03*
%TO.P,CN1,6,6*%
%TO.N,+5V*%
X93140000Y-39120000D03*
%TO.P,CN1,7,7*%
%TO.N,unconnected-(CN1-Pad7)*%
X95680000Y-44200000D03*
%TO.P,CN1,8,8*%
%TO.N,unconnected-(CN1-Pad8)*%
X95680000Y-39120000D03*
%TO.P,CN1,9,9*%
%TO.N,unconnected-(CN1-Pad9)*%
X98220000Y-44200000D03*
%TO.P,CN1,10,10*%
%TO.N,unconnected-(CN1-Pad10)*%
X98220000Y-39120000D03*
%TO.P,CN1,11,11*%
%TO.N,unconnected-(CN1-Pad11)*%
X100760000Y-44200000D03*
%TO.P,CN1,12,12*%
%TO.N,unconnected-(CN1-Pad12)*%
X100760000Y-39120000D03*
%TO.P,CN1,13,13*%
%TO.N,unconnected-(CN1-Pad13)*%
X103300000Y-44200000D03*
%TO.P,CN1,14,14*%
%TO.N,unconnected-(CN1-Pad14)*%
X103300000Y-39120000D03*
%TO.P,CN1,15,15*%
%TO.N,unconnected-(CN1-Pad15)*%
X105840000Y-44200000D03*
%TO.P,CN1,16,16*%
%TO.N,unconnected-(CN1-Pad16)*%
X105840000Y-39120000D03*
%TO.P,CN1,17,17*%
%TO.N,unconnected-(CN1-Pad17)*%
X108380000Y-44200000D03*
%TO.P,CN1,18,18*%
%TO.N,unconnected-(CN1-Pad18)*%
X108380000Y-39120000D03*
%TO.P,CN1,19,19*%
%TO.N,unconnected-(CN1-Pad19)*%
X110920000Y-44200000D03*
%TO.P,CN1,20,20*%
%TO.N,unconnected-(CN1-Pad20)*%
X110920000Y-39120000D03*
%TO.P,CN1,21,21*%
%TO.N,/A5*%
X113460000Y-44200000D03*
%TO.P,CN1,22,22*%
%TO.N,unconnected-(CN1-Pad22)*%
X113460000Y-39120000D03*
%TO.P,CN1,23,23*%
%TO.N,/A6*%
X116000000Y-44200000D03*
%TO.P,CN1,24,24*%
%TO.N,/A4*%
X116000000Y-39120000D03*
%TO.P,CN1,25,25*%
%TO.N,unconnected-(CN1-Pad25)*%
X118540000Y-44200000D03*
%TO.P,CN1,26,26*%
%TO.N,/A3*%
X118540000Y-39120000D03*
%TO.P,CN1,27,27*%
%TO.N,/A2*%
X121080000Y-44200000D03*
%TO.P,CN1,28,28*%
%TO.N,/A7*%
X121080000Y-39120000D03*
%TO.P,CN1,29,29*%
%TO.N,/A1*%
X123620000Y-44200000D03*
%TO.P,CN1,30,30*%
%TO.N,/A8*%
X123620000Y-39120000D03*
%TO.P,CN1,31,31*%
%TO.N,/~{FC0}*%
X126160000Y-44200000D03*
%TO.P,CN1,32,32*%
%TO.N,/A9*%
X126160000Y-39120000D03*
%TO.P,CN1,33,33*%
%TO.N,/~{FC1}*%
X128700000Y-44200000D03*
%TO.P,CN1,34,34*%
%TO.N,/A10*%
X128700000Y-39120000D03*
%TO.P,CN1,35,35*%
%TO.N,unconnected-(CN1-Pad35)*%
X131240000Y-44200000D03*
%TO.P,CN1,36,36*%
%TO.N,/A11*%
X131240000Y-39120000D03*
%TO.P,CN1,37,37*%
%TO.N,unconnected-(CN1-Pad37)*%
X133780000Y-44200000D03*
%TO.P,CN1,38,38*%
%TO.N,/A12*%
X133780000Y-39120000D03*
%TO.P,CN1,39,39*%
%TO.N,/A13*%
X136320000Y-44200000D03*
%TO.P,CN1,40,40*%
%TO.N,/~{IPL0}*%
X136320000Y-39120000D03*
%TO.P,CN1,41,41*%
%TO.N,/A14*%
X138860000Y-44200000D03*
%TO.P,CN1,42,42*%
%TO.N,/~{IPL1}*%
X138860000Y-39120000D03*
%TO.P,CN1,43,43*%
%TO.N,/A15*%
X141400000Y-44200000D03*
%TO.P,CN1,44,44*%
%TO.N,/~{IPL2}*%
X141400000Y-39120000D03*
%TO.P,CN1,45,45*%
%TO.N,/A16*%
X143940000Y-44200000D03*
%TO.P,CN1,46,46*%
%TO.N,unconnected-(CN1-Pad46)*%
X143940000Y-39120000D03*
%TO.P,CN1,47,47*%
%TO.N,/A17*%
X146480000Y-44200000D03*
%TO.P,CN1,48,48*%
%TO.N,unconnected-(CN1-Pad48)*%
X146480000Y-39120000D03*
%TO.P,CN1,49,49*%
%TO.N,unconnected-(CN1-Pad49)*%
X149020000Y-44200000D03*
%TO.P,CN1,50,50*%
%TO.N,unconnected-(CN1-Pad50)*%
X149020000Y-39120000D03*
%TO.P,CN1,51,51*%
%TO.N,unconnected-(CN1-Pad51)*%
X151560000Y-44200000D03*
%TO.P,CN1,52,52*%
%TO.N,/A18*%
X151560000Y-39120000D03*
%TO.P,CN1,53,53*%
%TO.N,/~{RST}*%
X154100000Y-44200000D03*
%TO.P,CN1,54,54*%
%TO.N,/A19*%
X154100000Y-39120000D03*
%TO.P,CN1,55,55*%
%TO.N,/~{HLT}*%
X156640000Y-44200000D03*
%TO.P,CN1,56,56*%
%TO.N,/A20*%
X156640000Y-39120000D03*
%TO.P,CN1,57,57*%
%TO.N,/A22*%
X159180000Y-44200000D03*
%TO.P,CN1,58,58*%
%TO.N,/A21*%
X159180000Y-39120000D03*
%TO.P,CN1,59,59*%
%TO.N,/A23*%
X161720000Y-44200000D03*
%TO.P,CN1,60,60*%
%TO.N,unconnected-(CN1-Pad60)*%
X161720000Y-39120000D03*
%TO.P,CN1,61,61*%
%TO.N,unconnected-(CN1-Pad61)*%
X164260000Y-44200000D03*
%TO.P,CN1,62,62*%
%TO.N,unconnected-(CN1-Pad62)*%
X164260000Y-39120000D03*
%TO.P,CN1,63,63*%
%TO.N,/D15*%
X166800000Y-44200000D03*
%TO.P,CN1,64,64*%
%TO.N,unconnected-(CN1-Pad64)*%
X166800000Y-39120000D03*
%TO.P,CN1,65,65*%
%TO.N,/D14*%
X169340000Y-44200000D03*
%TO.P,CN1,66,66*%
%TO.N,unconnected-(CN1-Pad66)*%
X169340000Y-39120000D03*
%TO.P,CN1,67,67*%
%TO.N,/D13*%
X171880000Y-44200000D03*
%TO.P,CN1,68,68*%
%TO.N,/R_W*%
X171880000Y-39120000D03*
%TO.P,CN1,69,69*%
%TO.N,/D12*%
X174420000Y-44200000D03*
%TO.P,CN1,70,70*%
%TO.N,/~{LDS}*%
X174420000Y-39120000D03*
%TO.P,CN1,71,71*%
%TO.N,/D11*%
X176960000Y-44200000D03*
%TO.P,CN1,72,72*%
%TO.N,/~{UDS}*%
X176960000Y-39120000D03*
%TO.P,CN1,73,73*%
%TO.N,GND*%
X179500000Y-44200000D03*
%TO.P,CN1,74,74*%
%TO.N,/~{AS}*%
X179500000Y-39120000D03*
%TO.P,CN1,75,75*%
%TO.N,/D0*%
X182040000Y-44200000D03*
%TO.P,CN1,76,76*%
%TO.N,/D10*%
X182040000Y-39120000D03*
%TO.P,CN1,77,77*%
%TO.N,/D1*%
X184580000Y-44200000D03*
%TO.P,CN1,78,78*%
%TO.N,/D9*%
X184580000Y-39120000D03*
%TO.P,CN1,79,79*%
%TO.N,/D2*%
X187120000Y-44200000D03*
%TO.P,CN1,80,80*%
%TO.N,/D8*%
X187120000Y-39120000D03*
%TO.P,CN1,81,81*%
%TO.N,/D3*%
X189660000Y-44200000D03*
%TO.P,CN1,82,82*%
%TO.N,/D7*%
X189660000Y-39120000D03*
%TO.P,CN1,83,83*%
%TO.N,/D4*%
X192200000Y-44200000D03*
%TO.P,CN1,84,84*%
%TO.N,/D6*%
X192200000Y-39120000D03*
%TO.P,CN1,85,85*%
%TO.N,unconnected-(CN1-Pad85)*%
X194740000Y-44200000D03*
%TO.P,CN1,86,86*%
%TO.N,/D5*%
X194740000Y-39120000D03*
%TD*%
D11*
%TO.P,VR1,1,CCW*%
%TO.N,+5V*%
X191090000Y-122080000D03*
%TO.P,VR1,2,WIPER*%
X188550000Y-117000000D03*
%TO.P,VR1,3,CW*%
%TO.N,Net-(U11-DIS)*%
X186010000Y-122080000D03*
%TD*%
D12*
%TO.P,SW2,1,B*%
%TO.N,Net-(D1-K)*%
X188500000Y-101690000D03*
D13*
%TO.P,SW2,2,C*%
%TO.N,GND*%
X188500000Y-104230000D03*
%TO.P,SW2,3,A*%
%TO.N,Net-(D1-K)*%
X188500000Y-99150000D03*
%TD*%
D12*
%TO.P,Q2,1,D*%
%TO.N,/A22*%
X88900000Y-69200000D03*
D14*
%TO.P,Q2,2,G*%
%TO.N,Net-(Q1-G)*%
X88900000Y-71740000D03*
%TO.P,Q2,3,S*%
%TO.N,+5V*%
X88900000Y-74280000D03*
%TD*%
D15*
%TO.P,C1,1*%
%TO.N,Net-(U11-DIS)*%
X94000000Y-126944888D03*
D13*
%TO.P,C1,2*%
%TO.N,GND*%
X94000000Y-129444888D03*
%TD*%
D16*
%TO.P,D2,1,K*%
%TO.N,GND*%
X94450000Y-99225000D03*
D17*
%TO.P,D2,2,A*%
%TO.N,Net-(D2-A)*%
X94450000Y-101765000D03*
%TD*%
D12*
%TO.P,Q1,1,D*%
%TO.N,/A22*%
X92600000Y-69200000D03*
D14*
%TO.P,Q1,2,G*%
%TO.N,Net-(Q1-G)*%
X92600000Y-71740000D03*
%TO.P,Q1,3,S*%
%TO.N,+5V*%
X92600000Y-74280000D03*
%TD*%
D18*
%TO.P,U4,1,I1/CLK*%
%TO.N,Net-(U2-IO1)*%
X122400000Y-74697500D03*
%TO.P,U4,2,I2*%
%TO.N,Net-(U2-IO7)*%
X121130000Y-74697500D03*
%TO.P,U4,3,I3*%
%TO.N,Net-(U2-IO8)*%
X119860000Y-74697500D03*
D19*
%TO.P,U4,4,I4*%
%TO.N,Net-(U3-IO2)*%
X118347500Y-76210000D03*
%TO.P,U4,5,I5*%
%TO.N,Net-(U3-I03)*%
X118347500Y-77480000D03*
%TO.P,U4,6,I6*%
%TO.N,/~{OE}*%
X118347500Y-78750000D03*
%TO.P,U4,7,I7*%
%TO.N,/~{AS}*%
X118347500Y-80020000D03*
%TO.P,U4,8,I8*%
%TO.N,/~{UDS}*%
X118347500Y-81290000D03*
D18*
%TO.P,U4,9,I9*%
%TO.N,/~{LDS}*%
X119860000Y-82802500D03*
%TO.P,U4,10,GND*%
%TO.N,GND*%
X121130000Y-82802500D03*
%TO.P,U4,11,I10/~{OE}*%
%TO.N,Net-(U3-IO4)*%
X122400000Y-82802500D03*
%TO.P,U4,12,IO8*%
%TO.N,Net-(U4-IO8)*%
X123670000Y-82802500D03*
%TO.P,U4,13,IO7*%
%TO.N,Net-(U2-I8)*%
X124940000Y-82802500D03*
D19*
%TO.P,U4,14,IO6*%
%TO.N,Net-(U2-I9)*%
X126452500Y-81290000D03*
%TO.P,U4,15,IO5*%
%TO.N,Net-(U4-IO5)*%
X126452500Y-80020000D03*
%TO.P,U4,16,IO4*%
%TO.N,Net-(U4-IO4)*%
X126452500Y-78750000D03*
%TO.P,U4,17,I03*%
%TO.N,/D0*%
X126452500Y-77480000D03*
%TO.P,U4,18,IO2*%
%TO.N,/D1*%
X126452500Y-76210000D03*
D18*
%TO.P,U4,19,IO1*%
%TO.N,Net-(U10-~{CE})*%
X124940000Y-74697500D03*
%TO.P,U4,20,VCC*%
%TO.N,+5V*%
X123670000Y-74697500D03*
%TD*%
D16*
%TO.P,SW1,1,1*%
%TO.N,Net-(U3-I6)*%
X91677500Y-115377500D03*
D17*
%TO.P,SW1,2,2*%
%TO.N,GND*%
X96677500Y-115377500D03*
%TO.P,SW1,3,3*%
%TO.N,Net-(U3-I6)*%
X91677500Y-120377500D03*
%TO.P,SW1,4,4*%
%TO.N,GND*%
X96677500Y-120377500D03*
%TD*%
D20*
%TO.P,R3,1*%
%TO.N,Net-(D1-A)*%
X183300000Y-89750000D03*
%TO.P,R3,2*%
%TO.N,+5V*%
X183300000Y-92850000D03*
%TD*%
D21*
%TO.P,C2,1*%
%TO.N,+5V*%
X102400000Y-111587500D03*
%TO.P,C2,2*%
%TO.N,GND*%
X102400000Y-114712500D03*
%TD*%
D22*
%TO.P,U8,1*%
%TO.N,unconnected-(U8-Pad1)*%
X146127100Y-105140000D03*
%TO.P,U8,2,A12*%
%TO.N,/A13*%
X146127100Y-106410000D03*
%TO.P,U8,3,A7*%
%TO.N,/A8*%
X146127100Y-107680000D03*
%TO.P,U8,4,A6*%
%TO.N,/A7*%
X146127100Y-108950000D03*
%TO.P,U8,5,A5*%
%TO.N,/A6*%
X146127100Y-110220000D03*
%TO.P,U8,6,A4*%
%TO.N,/A5*%
X146127100Y-111490000D03*
%TO.P,U8,7,A3*%
%TO.N,/A4*%
X146127100Y-112760000D03*
%TO.P,U8,8,A2*%
%TO.N,/A3*%
X146127100Y-114030000D03*
%TO.P,U8,9,A1*%
%TO.N,/A2*%
X146127100Y-115300000D03*
%TO.P,U8,10,A0*%
%TO.N,/A1*%
X146127100Y-116570000D03*
%TO.P,U8,11,I/O0*%
%TO.N,/D0*%
X146127100Y-117840000D03*
%TO.P,U8,12,I/O1*%
%TO.N,/D1*%
X146127100Y-119110000D03*
%TO.P,U8,13,I/O2*%
%TO.N,/D2*%
X146127100Y-120380000D03*
%TO.P,U8,14,GND*%
%TO.N,GND*%
X146127100Y-121650000D03*
%TO.P,U8,15,I/O3*%
%TO.N,/D3*%
X156972900Y-121650000D03*
%TO.P,U8,16,I/O4*%
%TO.N,/D4*%
X156972900Y-120380000D03*
%TO.P,U8,17,I/O5*%
%TO.N,/D5*%
X156972900Y-119110000D03*
%TO.P,U8,18,I/O6*%
%TO.N,/D6*%
X156972900Y-117840000D03*
%TO.P,U8,19,I/O7*%
%TO.N,/D7*%
X156972900Y-116570000D03*
%TO.P,U8,20,~{CE}*%
%TO.N,Net-(U4-IO4)*%
X156972900Y-115300000D03*
%TO.P,U8,21,A10*%
%TO.N,/A11*%
X156972900Y-114030000D03*
%TO.P,U8,22,~{OE}*%
%TO.N,/~{OE}*%
X156972900Y-112760000D03*
%TO.P,U8,23,A11*%
%TO.N,/A12*%
X156972900Y-111490000D03*
%TO.P,U8,24,A9*%
%TO.N,/A10*%
X156972900Y-110220000D03*
%TO.P,U8,25,A8*%
%TO.N,/A9*%
X156972900Y-108950000D03*
%TO.P,U8,26,CE*%
%TO.N,+5V*%
X156972900Y-107680000D03*
%TO.P,U8,27,~{WE}*%
%TO.N,/R_W*%
X156972900Y-106410000D03*
%TO.P,U8,28,VDD*%
%TO.N,+5V*%
X156972900Y-105140000D03*
%TD*%
D20*
%TO.P,R1,1*%
%TO.N,/~{HLT}*%
X154050000Y-51700000D03*
%TO.P,R1,2*%
%TO.N,+5V*%
X154050000Y-54800000D03*
%TD*%
D23*
%TO.P,C4,1*%
%TO.N,GND*%
X157912500Y-70650000D03*
%TO.P,C4,2*%
%TO.N,+5V*%
X154787500Y-70650000D03*
%TD*%
D20*
%TO.P,R6,1*%
%TO.N,+5V*%
X91950000Y-92300000D03*
%TO.P,R6,2*%
%TO.N,Net-(U3-I6)*%
X91950000Y-95400000D03*
%TD*%
D15*
%TO.P,C6,1*%
%TO.N,Net-(D3-K)*%
X89950000Y-87650000D03*
D13*
%TO.P,C6,2*%
%TO.N,GND*%
X87450000Y-87650000D03*
%TD*%
D18*
%TO.P,U3,1,I1/CLK*%
%TO.N,Net-(U2-IO1)*%
X141400000Y-74697500D03*
%TO.P,U3,2,I2*%
%TO.N,Net-(U2-IO7)*%
X140130000Y-74697500D03*
%TO.P,U3,3,I3*%
%TO.N,Net-(U2-IO8)*%
X138860000Y-74697500D03*
D19*
%TO.P,U3,4,I4*%
%TO.N,/~{UDS}*%
X137347500Y-76210000D03*
%TO.P,U3,5,I5*%
%TO.N,Net-(U3-I5)*%
X137347500Y-77480000D03*
%TO.P,U3,6,I6*%
%TO.N,Net-(U3-I6)*%
X137347500Y-78750000D03*
%TO.P,U3,7,I7*%
%TO.N,/~{FC0}*%
X137347500Y-80020000D03*
%TO.P,U3,8,I8*%
%TO.N,Net-(U2-IO6)*%
X137347500Y-81290000D03*
D18*
%TO.P,U3,9,I9*%
%TO.N,/~{OE}*%
X138860000Y-82802500D03*
%TO.P,U3,10,GND*%
%TO.N,GND*%
X140130000Y-82802500D03*
%TO.P,U3,11,I10/~{OE}*%
%TO.N,/~{LDS}*%
X141400000Y-82802500D03*
%TO.P,U3,12,IO8*%
%TO.N,unconnected-(U3-IO8-Pad12)*%
X142670000Y-82802500D03*
%TO.P,U3,13,IO7*%
%TO.N,unconnected-(U3-IO7-Pad13)*%
X143940000Y-82802500D03*
D19*
%TO.P,U3,14,IO6*%
%TO.N,/~{AS}*%
X145452500Y-81290000D03*
%TO.P,U3,15,IO5*%
%TO.N,Net-(U3-IO5)*%
X145452500Y-80020000D03*
%TO.P,U3,16,IO4*%
%TO.N,Net-(U3-IO4)*%
X145452500Y-78750000D03*
%TO.P,U3,17,I03*%
%TO.N,Net-(U3-I03)*%
X145452500Y-77480000D03*
%TO.P,U3,18,IO2*%
%TO.N,Net-(U3-IO2)*%
X145452500Y-76210000D03*
D18*
%TO.P,U3,19,IO1*%
%TO.N,unconnected-(U3-IO1-Pad19)*%
X143940000Y-74697500D03*
%TO.P,U3,20,VCC*%
%TO.N,+5V*%
X142670000Y-74697500D03*
%TD*%
D16*
%TO.P,D1,1,K*%
%TO.N,Net-(D1-K)*%
X188850000Y-92700000D03*
D17*
%TO.P,D1,2,A*%
%TO.N,Net-(D1-A)*%
X188850000Y-90160000D03*
%TD*%
D18*
%TO.P,U1,1,I1/CLK*%
%TO.N,/A23*%
X178200000Y-74597500D03*
%TO.P,U1,2,I2*%
%TO.N,/A22*%
X176930000Y-74597500D03*
%TO.P,U1,3,I3*%
%TO.N,/A21*%
X175660000Y-74597500D03*
D19*
%TO.P,U1,4,I4*%
%TO.N,/A20*%
X174147500Y-76110000D03*
%TO.P,U1,5,I5*%
%TO.N,/A18*%
X174147500Y-77380000D03*
%TO.P,U1,6,I6*%
%TO.N,/A16*%
X174147500Y-78650000D03*
%TO.P,U1,7,I7*%
%TO.N,/A14*%
X174147500Y-79920000D03*
%TO.P,U1,8,I8*%
%TO.N,/A12*%
X174147500Y-81190000D03*
D18*
%TO.P,U1,9,I9*%
%TO.N,/A10*%
X175660000Y-82702500D03*
%TO.P,U1,10,GND*%
%TO.N,GND*%
X176930000Y-82702500D03*
%TO.P,U1,11,I10/~{OE}*%
%TO.N,/A9*%
X178200000Y-82702500D03*
%TO.P,U1,12,IO8*%
%TO.N,Net-(U1-IO8)*%
X179470000Y-82702500D03*
%TO.P,U1,13,IO7*%
%TO.N,/A11*%
X180740000Y-82702500D03*
D19*
%TO.P,U1,14,IO6*%
%TO.N,/A13*%
X182252500Y-81190000D03*
%TO.P,U1,15,IO5*%
%TO.N,/A15*%
X182252500Y-79920000D03*
%TO.P,U1,16,IO4*%
%TO.N,/A17*%
X182252500Y-78650000D03*
%TO.P,U1,17,I03*%
%TO.N,/A19*%
X182252500Y-77380000D03*
%TO.P,U1,18,IO2*%
%TO.N,Net-(U1-IO2)*%
X182252500Y-76110000D03*
D18*
%TO.P,U1,19,IO1*%
%TO.N,Net-(U1-IO1)*%
X180740000Y-74597500D03*
%TO.P,U1,20,VCC*%
%TO.N,+5V*%
X179470000Y-74597500D03*
%TD*%
%TO.P,U5,1,I1/CLK*%
%TO.N,/~{AS}*%
X104000000Y-74647500D03*
%TO.P,U5,2,I2*%
%TO.N,/R_W*%
X102730000Y-74647500D03*
%TO.P,U5,3,I3*%
%TO.N,Net-(Q1-G)*%
X101460000Y-74647500D03*
D19*
%TO.P,U5,4,I4*%
%TO.N,Net-(U3-IO5)*%
X99947500Y-76160000D03*
%TO.P,U5,5,I5*%
%TO.N,Net-(D3-A)*%
X99947500Y-77430000D03*
%TO.P,U5,6,I6*%
%TO.N,Net-(D1-K)*%
X99947500Y-78700000D03*
%TO.P,U5,7,I7*%
%TO.N,Net-(U5-I7)*%
X99947500Y-79970000D03*
%TO.P,U5,8,I8*%
%TO.N,/~{RST}*%
X99947500Y-81240000D03*
D18*
%TO.P,U5,9,I9*%
%TO.N,unconnected-(U5-I9-Pad9)*%
X101460000Y-82752500D03*
%TO.P,U5,10,GND*%
%TO.N,GND*%
X102730000Y-82752500D03*
%TO.P,U5,11,I10/~{OE}*%
%TO.N,Net-(U3-IO4)*%
X104000000Y-82752500D03*
%TO.P,U5,12,IO8*%
%TO.N,/~{OE}*%
X105270000Y-82752500D03*
%TO.P,U5,13,IO7*%
%TO.N,Net-(U3-I5)*%
X106540000Y-82752500D03*
D19*
%TO.P,U5,14,IO6*%
%TO.N,Net-(U5-IO6)*%
X108052500Y-81240000D03*
%TO.P,U5,15,IO5*%
%TO.N,Net-(U5-IO5)*%
X108052500Y-79970000D03*
%TO.P,U5,16,IO4*%
%TO.N,/~{HLT}*%
X108052500Y-78700000D03*
%TO.P,U5,17,I03*%
%TO.N,/~{IPL0}*%
X108052500Y-77430000D03*
%TO.P,U5,18,IO2*%
%TO.N,/~{IPL1}*%
X108052500Y-76160000D03*
D18*
%TO.P,U5,19,IO1*%
%TO.N,/~{IPL2}*%
X106540000Y-74647500D03*
%TO.P,U5,20,VCC*%
%TO.N,+5V*%
X105270000Y-74647500D03*
%TD*%
D21*
%TO.P,C3,1*%
%TO.N,+5V*%
X183200000Y-106137500D03*
%TO.P,C3,2*%
%TO.N,GND*%
X183200000Y-109262500D03*
%TD*%
D24*
%TO.P,U6,1,~{R}*%
%TO.N,+5V*%
X119760000Y-53100000D03*
%TO.P,U6,2,D*%
%TO.N,GND*%
X118490000Y-53100000D03*
%TO.P,U6,3,C*%
%TO.N,Net-(U5-I7)*%
X117220000Y-53100000D03*
%TO.P,U6,4,~{S}*%
%TO.N,Net-(U5-IO5)*%
X115950000Y-53100000D03*
%TO.P,U6,5,Q*%
%TO.N,Net-(Q1-G)*%
X114680000Y-53100000D03*
%TO.P,U6,6,~{Q}*%
%TO.N,unconnected-(U6A-~{Q}-Pad6)*%
X113410000Y-53100000D03*
%TO.P,U6,7,GND*%
%TO.N,GND*%
X112140000Y-53100000D03*
%TO.P,U6,8,~{Q}*%
%TO.N,Net-(U6B-D)*%
X112140000Y-59000000D03*
%TO.P,U6,9,Q*%
%TO.N,Net-(U5-I7)*%
X113410000Y-59000000D03*
%TO.P,U6,10,~{S}*%
%TO.N,Net-(U5-IO5)*%
X114680000Y-59000000D03*
%TO.P,U6,11,C*%
%TO.N,Net-(U5-IO6)*%
X115950000Y-59000000D03*
%TO.P,U6,12,D*%
%TO.N,Net-(U6B-D)*%
X117220000Y-59000000D03*
%TO.P,U6,13,~{R}*%
%TO.N,+5V*%
X118490000Y-59000000D03*
%TO.P,U6,14,VCC*%
X119760000Y-59000000D03*
%TD*%
D25*
%TO.P,U11,1,GND*%
%TO.N,GND*%
X91525000Y-104645000D03*
%TO.P,U11,2,TR*%
%TO.N,Net-(D3-K)*%
X91525000Y-105915000D03*
%TO.P,U11,3,Q*%
%TO.N,Net-(D3-A)*%
X91525000Y-107185000D03*
%TO.P,U11,4,R*%
%TO.N,+5V*%
X91525000Y-108455000D03*
%TO.P,U11,5,CV*%
%TO.N,unconnected-(U11-CV-Pad5)*%
X96475000Y-108455000D03*
%TO.P,U11,6,THR*%
%TO.N,Net-(U11-DIS)*%
X96475000Y-107185000D03*
%TO.P,U11,7,DIS*%
X96475000Y-105915000D03*
%TO.P,U11,8,VCC*%
%TO.N,+5V*%
X96475000Y-104645000D03*
%TD*%
D20*
%TO.P,R7,1*%
%TO.N,Net-(D2-A)*%
X88100000Y-92300000D03*
%TO.P,R7,2*%
%TO.N,+5V*%
X88100000Y-95400000D03*
%TD*%
D26*
%TO.P,D3,1,K*%
%TO.N,Net-(D3-K)*%
X99700000Y-95337500D03*
%TO.P,D3,2,A*%
%TO.N,Net-(D3-A)*%
X99700000Y-92362500D03*
%TD*%
D27*
%TO.P,U7,1,VPP*%
%TO.N,+5V*%
X125505000Y-89550000D03*
D28*
%TO.P,U7,2,A16*%
%TO.N,/A17*%
X125505000Y-92090000D03*
%TO.P,U7,3,A15*%
%TO.N,/A16*%
X125505000Y-94630000D03*
%TO.P,U7,4,A12*%
%TO.N,/A13*%
X125505000Y-97170000D03*
%TO.P,U7,5,A7*%
%TO.N,/A8*%
X125505000Y-99710000D03*
%TO.P,U7,6,A6*%
%TO.N,/A7*%
X125505000Y-102250000D03*
%TO.P,U7,7,A5*%
%TO.N,/A6*%
X125505000Y-104790000D03*
%TO.P,U7,8,A4*%
%TO.N,/A5*%
X125505000Y-107330000D03*
%TO.P,U7,9,A3*%
%TO.N,/A4*%
X125505000Y-109870000D03*
%TO.P,U7,10,A2*%
%TO.N,/A3*%
X125505000Y-112410000D03*
%TO.P,U7,11,A1*%
%TO.N,/A2*%
X125505000Y-114950000D03*
%TO.P,U7,12,A0*%
%TO.N,/A1*%
X125505000Y-117490000D03*
%TO.P,U7,13,Q0*%
%TO.N,/D0*%
X125505000Y-120030000D03*
%TO.P,U7,14,Q1*%
%TO.N,/D1*%
X125505000Y-122570000D03*
%TO.P,U7,15,Q2*%
%TO.N,/D2*%
X125505000Y-125110000D03*
%TO.P,U7,16,VSS*%
%TO.N,GND*%
X125505000Y-127650000D03*
%TO.P,U7,17,Q3*%
%TO.N,/D3*%
X140505000Y-127650000D03*
%TO.P,U7,18,Q4*%
%TO.N,/D4*%
X140505000Y-125110000D03*
%TO.P,U7,19,Q5*%
%TO.N,/D5*%
X140505000Y-122570000D03*
%TO.P,U7,20,Q6*%
%TO.N,/D6*%
X140505000Y-120030000D03*
%TO.P,U7,21,Q7*%
%TO.N,/D7*%
X140505000Y-117490000D03*
%TO.P,U7,22,~{E}*%
%TO.N,Net-(U4-IO8)*%
X140505000Y-114950000D03*
%TO.P,U7,23,A10*%
%TO.N,/A11*%
X140505000Y-112410000D03*
%TO.P,U7,24,~{G}*%
%TO.N,/~{OE}*%
X140505000Y-109870000D03*
%TO.P,U7,25,A11*%
%TO.N,/A12*%
X140505000Y-107330000D03*
%TO.P,U7,26,A9*%
%TO.N,/A10*%
X140505000Y-104790000D03*
%TO.P,U7,27,A8*%
%TO.N,/A9*%
X140505000Y-102250000D03*
%TO.P,U7,28,A13*%
%TO.N,/A14*%
X140505000Y-99710000D03*
%TO.P,U7,29,A14*%
%TO.N,/A15*%
X140505000Y-97170000D03*
%TO.P,U7,30,NC*%
%TO.N,unconnected-(U7-NC-Pad30)*%
X140505000Y-94630000D03*
%TO.P,U7,31,~{P}*%
%TO.N,+5V*%
X140505000Y-92090000D03*
%TO.P,U7,32,VCC*%
X140505000Y-89550000D03*
%TD*%
D20*
%TO.P,R4,1*%
%TO.N,Net-(D1-K)*%
X183200000Y-99100000D03*
%TO.P,R4,2*%
%TO.N,+5V*%
X183200000Y-102200000D03*
%TD*%
%TO.P,R2,1*%
%TO.N,/~{RST}*%
X150150000Y-51700000D03*
%TO.P,R2,2*%
%TO.N,+5V*%
X150150000Y-54800000D03*
%TD*%
D18*
%TO.P,U2,1,I1/CLK*%
%TO.N,/A8*%
X159750000Y-74697500D03*
%TO.P,U2,2,I2*%
%TO.N,/A7*%
X158480000Y-74697500D03*
%TO.P,U2,3,I3*%
%TO.N,/A4*%
X157210000Y-74697500D03*
D19*
%TO.P,U2,4,I4*%
%TO.N,/A6*%
X155697500Y-76210000D03*
%TO.P,U2,5,I5*%
%TO.N,/A5*%
X155697500Y-77480000D03*
%TO.P,U2,6,I6*%
%TO.N,/A3*%
X155697500Y-78750000D03*
%TO.P,U2,7,I7*%
%TO.N,/A2*%
X155697500Y-80020000D03*
%TO.P,U2,8,I8*%
%TO.N,Net-(U2-I8)*%
X155697500Y-81290000D03*
D18*
%TO.P,U2,9,I9*%
%TO.N,Net-(U2-I9)*%
X157210000Y-82802500D03*
%TO.P,U2,10,GND*%
%TO.N,GND*%
X158480000Y-82802500D03*
%TO.P,U2,11,I10/~{OE}*%
%TO.N,/~{FC1}*%
X159750000Y-82802500D03*
%TO.P,U2,12,IO8*%
%TO.N,Net-(U2-IO8)*%
X161020000Y-82802500D03*
%TO.P,U2,13,IO7*%
%TO.N,Net-(U2-IO7)*%
X162290000Y-82802500D03*
D19*
%TO.P,U2,14,IO6*%
%TO.N,Net-(U2-IO6)*%
X163802500Y-81290000D03*
%TO.P,U2,15,IO5*%
%TO.N,/A1*%
X163802500Y-80020000D03*
%TO.P,U2,16,IO4*%
%TO.N,Net-(U1-IO1)*%
X163802500Y-78750000D03*
%TO.P,U2,17,I03*%
%TO.N,Net-(U1-IO2)*%
X163802500Y-77480000D03*
%TO.P,U2,18,IO2*%
%TO.N,Net-(U1-IO8)*%
X163802500Y-76210000D03*
D18*
%TO.P,U2,19,IO1*%
%TO.N,Net-(U2-IO1)*%
X162290000Y-74697500D03*
%TO.P,U2,20,VCC*%
%TO.N,+5V*%
X161020000Y-74697500D03*
%TD*%
D23*
%TO.P,C5,1*%
%TO.N,+5V*%
X90712500Y-48600000D03*
%TO.P,C5,2*%
%TO.N,GND*%
X87587500Y-48600000D03*
%TD*%
D22*
%TO.P,U10,1,A14*%
%TO.N,/A15*%
X108477100Y-105145000D03*
%TO.P,U10,2,A12*%
%TO.N,/A13*%
X108477100Y-106415000D03*
%TO.P,U10,3,A7*%
%TO.N,/A8*%
X108477100Y-107685000D03*
%TO.P,U10,4,A6*%
%TO.N,/A7*%
X108477100Y-108955000D03*
%TO.P,U10,5,A5*%
%TO.N,/A6*%
X108477100Y-110225000D03*
%TO.P,U10,6,A4*%
%TO.N,/A5*%
X108477100Y-111495000D03*
%TO.P,U10,7,A3*%
%TO.N,/A4*%
X108477100Y-112765000D03*
%TO.P,U10,8,A2*%
%TO.N,/A3*%
X108477100Y-114035000D03*
%TO.P,U10,9,A1*%
%TO.N,/A2*%
X108477100Y-115305000D03*
%TO.P,U10,10,A0*%
%TO.N,/A1*%
X108477100Y-116575000D03*
%TO.P,U10,11,I/O0*%
%TO.N,/D8*%
X108477100Y-117845000D03*
%TO.P,U10,12,I/O1*%
%TO.N,/D9*%
X108477100Y-119115000D03*
%TO.P,U10,13,I/O2*%
%TO.N,/D10*%
X108477100Y-120385000D03*
%TO.P,U10,14,GND*%
%TO.N,GND*%
X108477100Y-121655000D03*
%TO.P,U10,15,I/O3*%
%TO.N,/D11*%
X119322900Y-121655000D03*
%TO.P,U10,16,I/O4*%
%TO.N,/D12*%
X119322900Y-120385000D03*
%TO.P,U10,17,I/O5*%
%TO.N,/D13*%
X119322900Y-119115000D03*
%TO.P,U10,18,I/O6*%
%TO.N,/D14*%
X119322900Y-117845000D03*
%TO.P,U10,19,I/O7*%
%TO.N,/D15*%
X119322900Y-116575000D03*
%TO.P,U10,20,~{CE}*%
%TO.N,Net-(U10-~{CE})*%
X119322900Y-115305000D03*
%TO.P,U10,21,A10*%
%TO.N,/A11*%
X119322900Y-114035000D03*
%TO.P,U10,22,~{OE}*%
%TO.N,/~{OE}*%
X119322900Y-112765000D03*
%TO.P,U10,23,A11*%
%TO.N,/A12*%
X119322900Y-111495000D03*
%TO.P,U10,24,A9*%
%TO.N,/A10*%
X119322900Y-110225000D03*
%TO.P,U10,25,A8*%
%TO.N,/A9*%
X119322900Y-108955000D03*
%TO.P,U10,26,A13*%
%TO.N,/A14*%
X119322900Y-107685000D03*
%TO.P,U10,27,~{WE}*%
%TO.N,/R_W*%
X119322900Y-106415000D03*
%TO.P,U10,28,VDD*%
%TO.N,+5V*%
X119322900Y-105145000D03*
%TD*%
D20*
%TO.P,R5,1*%
%TO.N,Net-(D3-A)*%
X95750000Y-92300000D03*
%TO.P,R5,2*%
%TO.N,Net-(D3-K)*%
X95750000Y-95400000D03*
%TD*%
D27*
%TO.P,U9,1,VPP*%
%TO.N,+5V*%
X162255000Y-89550000D03*
D28*
%TO.P,U9,2,A16*%
%TO.N,/A17*%
X162255000Y-92090000D03*
%TO.P,U9,3,A15*%
%TO.N,/A16*%
X162255000Y-94630000D03*
%TO.P,U9,4,A12*%
%TO.N,/A13*%
X162255000Y-97170000D03*
%TO.P,U9,5,A7*%
%TO.N,/A8*%
X162255000Y-99710000D03*
%TO.P,U9,6,A6*%
%TO.N,/A7*%
X162255000Y-102250000D03*
%TO.P,U9,7,A5*%
%TO.N,/A6*%
X162255000Y-104790000D03*
%TO.P,U9,8,A4*%
%TO.N,/A5*%
X162255000Y-107330000D03*
%TO.P,U9,9,A3*%
%TO.N,/A4*%
X162255000Y-109870000D03*
%TO.P,U9,10,A2*%
%TO.N,/A3*%
X162255000Y-112410000D03*
%TO.P,U9,11,A1*%
%TO.N,/A2*%
X162255000Y-114950000D03*
%TO.P,U9,12,A0*%
%TO.N,/A1*%
X162255000Y-117490000D03*
%TO.P,U9,13,Q0*%
%TO.N,/D8*%
X162255000Y-120030000D03*
%TO.P,U9,14,Q1*%
%TO.N,/D9*%
X162255000Y-122570000D03*
%TO.P,U9,15,Q2*%
%TO.N,/D10*%
X162255000Y-125110000D03*
%TO.P,U9,16,VSS*%
%TO.N,GND*%
X162255000Y-127650000D03*
%TO.P,U9,17,Q3*%
%TO.N,/D11*%
X177255000Y-127650000D03*
%TO.P,U9,18,Q4*%
%TO.N,/D12*%
X177255000Y-125110000D03*
%TO.P,U9,19,Q5*%
%TO.N,/D13*%
X177255000Y-122570000D03*
%TO.P,U9,20,Q6*%
%TO.N,/D14*%
X177255000Y-120030000D03*
%TO.P,U9,21,Q7*%
%TO.N,/D15*%
X177255000Y-117490000D03*
%TO.P,U9,22,~{E}*%
%TO.N,Net-(U4-IO5)*%
X177255000Y-114950000D03*
%TO.P,U9,23,A10*%
%TO.N,/A11*%
X177255000Y-112410000D03*
%TO.P,U9,24,~{G}*%
%TO.N,/~{OE}*%
X177255000Y-109870000D03*
%TO.P,U9,25,A11*%
%TO.N,/A12*%
X177255000Y-107330000D03*
%TO.P,U9,26,A9*%
%TO.N,/A10*%
X177255000Y-104790000D03*
%TO.P,U9,27,A8*%
%TO.N,/A9*%
X177255000Y-102250000D03*
%TO.P,U9,28,A13*%
%TO.N,/A14*%
X177255000Y-99710000D03*
%TO.P,U9,29,A14*%
%TO.N,/A15*%
X177255000Y-97170000D03*
%TO.P,U9,30,NC*%
%TO.N,unconnected-(U9-NC-Pad30)*%
X177255000Y-94630000D03*
%TO.P,U9,31,~{P}*%
%TO.N,+5V*%
X177255000Y-92090000D03*
%TO.P,U9,32,VCC*%
X177255000Y-89550000D03*
%TD*%
D29*
%TO.N,Net-(U3-I6)*%
X133300000Y-80050000D03*
X133300000Y-86075000D03*
X90600000Y-98100000D03*
%TO.N,Net-(U10-~{CE})*%
X127200000Y-73300000D03*
X113250000Y-64400000D03*
X127150000Y-64400000D03*
X112700000Y-115600000D03*
%TO.N,Net-(U2-IO1)*%
X118850000Y-61250000D03*
X163850000Y-61250000D03*
X163850000Y-74700000D03*
X143800000Y-77100000D03*
X120100000Y-77650000D03*
X144900000Y-61250000D03*
%TO.N,/A5*%
X144679200Y-98825000D03*
X113600000Y-111500000D03*
X144729200Y-111475000D03*
X158025000Y-77525000D03*
%TO.N,/A8*%
X144018000Y-107696000D03*
X117050000Y-62500000D03*
X160650000Y-76500000D03*
X117075000Y-99075000D03*
X144043400Y-96372200D03*
X119850000Y-62500000D03*
X111050000Y-99075000D03*
X111050000Y-107685000D03*
%TO.N,/~{IPL2}*%
X106550000Y-46050000D03*
X106550000Y-72450000D03*
X142700000Y-47150000D03*
%TO.N,GND*%
X158750000Y-86550000D03*
X158750000Y-79800000D03*
X179500000Y-52250000D03*
X186650000Y-110000000D03*
X96113600Y-55422800D03*
X120100000Y-78850000D03*
X96100000Y-113200000D03*
X87450000Y-104650000D03*
X146750000Y-122600000D03*
X173450000Y-87000000D03*
X87400000Y-113300000D03*
X156300000Y-70600000D03*
X96100000Y-88700000D03*
X158750000Y-52250000D03*
X173500000Y-84650000D03*
X146750000Y-127675000D03*
X118700000Y-88600000D03*
%TO.N,+5V*%
X188550000Y-106950000D03*
X107650000Y-71450000D03*
X156350000Y-89600000D03*
X181400000Y-92850000D03*
X97950000Y-56400000D03*
X94400000Y-48650000D03*
X181400000Y-102200000D03*
X101700000Y-104600000D03*
X117850000Y-72500000D03*
X101750000Y-93550000D03*
X117800000Y-56400000D03*
X118950000Y-104050000D03*
X156350000Y-104125000D03*
X97880000Y-74280000D03*
X107650000Y-56400000D03*
X101700000Y-109700000D03*
%TO.N,/~{OE}*%
X116250000Y-87375000D03*
X149800000Y-112850000D03*
X149800000Y-109575000D03*
X116300000Y-112765000D03*
X116300000Y-78750000D03*
X137950000Y-83375000D03*
%TO.N,Net-(U4-IO4)*%
X153500000Y-64600000D03*
X154575000Y-115325000D03*
X130750000Y-64600000D03*
X130400000Y-78750000D03*
X155700000Y-86600000D03*
X153500000Y-86600000D03*
%TO.N,Net-(U4-IO5)*%
X130000000Y-80000000D03*
X170050000Y-88425000D03*
X130025000Y-88575000D03*
X170100000Y-115000000D03*
%TO.N,/A1*%
X117100000Y-114635000D03*
X164350000Y-114000000D03*
X163750000Y-83600000D03*
%TO.N,Net-(U4-IO8)*%
X120025000Y-95750000D03*
X137150000Y-95800000D03*
X122050000Y-79650000D03*
%TO.N,/A16*%
X167350000Y-78650000D03*
X167350000Y-62300000D03*
X143250000Y-62300000D03*
X167175000Y-94575000D03*
X134300000Y-62300000D03*
X135150000Y-94625000D03*
%TO.N,Net-(U2-I8)*%
X137175000Y-86025000D03*
X137175000Y-82600000D03*
X147800000Y-82050000D03*
X147725000Y-86250000D03*
%TO.N,Net-(U2-I9)*%
X146625000Y-91200000D03*
X146650000Y-83150000D03*
X128350000Y-91175000D03*
X128350000Y-81950000D03*
%TO.N,Net-(U3-IO4)*%
X145125000Y-85325000D03*
X121725735Y-87200735D03*
X121700000Y-81300000D03*
X143750000Y-78750000D03*
%TO.N,/A9*%
X152900000Y-102450000D03*
X117275000Y-108950000D03*
X177400000Y-80950000D03*
X152900000Y-108950000D03*
%TO.N,Net-(U2-IO7)*%
X120100000Y-76450000D03*
X140400000Y-66350000D03*
X143675000Y-86025000D03*
X140400000Y-76750000D03*
X143700000Y-80800000D03*
X120100000Y-66350000D03*
%TO.N,Net-(U2-IO8)*%
X150100000Y-71450000D03*
X137800000Y-73900000D03*
X150100000Y-84900000D03*
X137800000Y-71450000D03*
%TO.N,Net-(U3-IO2)*%
X146700000Y-70600000D03*
X146700000Y-75100000D03*
%TO.N,Net-(U3-I03)*%
X152500000Y-77500000D03*
X152550000Y-69850000D03*
%TO.N,Net-(U3-I5)*%
X134350000Y-77700000D03*
X109500000Y-85200000D03*
X134350000Y-65400000D03*
X109500000Y-65400000D03*
%TO.N,Net-(U2-IO6)*%
X137200000Y-59850000D03*
X139100000Y-81275000D03*
X164850000Y-59850000D03*
X165175000Y-82525000D03*
%TO.N,Net-(U3-IO5)*%
X147850000Y-80020000D03*
X147850000Y-67950000D03*
%TO.N,/~{FC0}*%
X126050000Y-82275000D03*
%TO.N,/A17*%
X178950000Y-111850000D03*
X146450000Y-65300000D03*
X179025000Y-90675000D03*
%TO.N,Net-(U1-IO8)*%
X168250000Y-76200000D03*
X168250000Y-85600000D03*
%TO.N,Net-(U1-IO2)*%
X169000000Y-77500000D03*
X169000000Y-70650000D03*
%TO.N,/A18*%
X170800000Y-77400000D03*
X170800000Y-63400000D03*
X152800000Y-63350000D03*
%TO.N,Net-(U1-IO1)*%
X165850000Y-71050000D03*
X165850000Y-78750000D03*
%TO.N,Net-(Q1-G)*%
X101450000Y-51003200D03*
X101450000Y-71700000D03*
X101450000Y-68100000D03*
%TO.N,Net-(D1-K)*%
X185750000Y-99100000D03*
X179625000Y-88650000D03*
X179775000Y-96700000D03*
X185750000Y-92700000D03*
X105900000Y-78700000D03*
X105900000Y-89950000D03*
%TO.N,/A19*%
X155400000Y-66200000D03*
%TO.N,/A10*%
X152275000Y-103150000D03*
X126900000Y-110825000D03*
X176225000Y-80925000D03*
X152275000Y-110225000D03*
%TO.N,/~{FC1}*%
X159750000Y-67050000D03*
X127900000Y-67050000D03*
X159750000Y-80650000D03*
%TO.N,Net-(U5-I7)*%
X97050000Y-60909200D03*
X117200000Y-50749200D03*
X117170200Y-48183800D03*
X109143800Y-60909200D03*
X109169200Y-48564800D03*
X97050000Y-80000000D03*
%TO.N,Net-(U5-IO5)*%
X112500000Y-79950000D03*
X112500000Y-61722000D03*
X115300000Y-61738000D03*
X115290600Y-50714200D03*
%TO.N,Net-(U5-IO6)*%
X108700000Y-62458600D03*
X108700000Y-83150000D03*
%TO.N,/A11*%
X116000735Y-130599265D03*
X114826098Y-114041422D03*
X179250000Y-130825000D03*
X130000000Y-49100000D03*
X142400000Y-49100000D03*
X190850000Y-114100000D03*
X190850000Y-84950000D03*
%TO.N,/A12*%
X151325000Y-111500000D03*
X151350000Y-103900000D03*
X173100000Y-82500000D03*
X170725000Y-107250000D03*
X132500000Y-111475000D03*
%TO.N,/~{IPL0}*%
X138050000Y-68100000D03*
X110450000Y-77450000D03*
X110450000Y-68150000D03*
%TO.N,/~{RST}*%
X103400000Y-63450000D03*
X148250000Y-63450000D03*
X148250000Y-49100000D03*
X103400000Y-80700000D03*
X154150000Y-49050000D03*
%TO.N,/A13*%
X178600000Y-80100000D03*
X111900000Y-106400000D03*
X178350000Y-96200000D03*
X148400000Y-96450000D03*
X148400000Y-106400000D03*
X111900000Y-97150000D03*
X135750000Y-97175000D03*
%TO.N,/A20*%
X169750000Y-64400000D03*
X169750000Y-76100000D03*
X157850000Y-64400000D03*
%TO.N,/~{IPL1}*%
X105550000Y-77200000D03*
X105550000Y-47400000D03*
X140100000Y-48100000D03*
%TO.N,/A14*%
X180500000Y-78700000D03*
%TO.N,/~{HLT}*%
X156650000Y-51700000D03*
X111050000Y-78700000D03*
X111506000Y-49225200D03*
%TO.N,/A21*%
X160500000Y-54400000D03*
X168250000Y-74300000D03*
X168250000Y-54400000D03*
%TO.N,/A22*%
X159200000Y-47100000D03*
X99000000Y-50700000D03*
X176950000Y-76800000D03*
X145150000Y-47100000D03*
X88900000Y-67000000D03*
X145150000Y-51750000D03*
X99000000Y-67000000D03*
X177000000Y-47150000D03*
%TO.N,Net-(U11-DIS)*%
X94000000Y-107800000D03*
%TO.N,Net-(D3-A)*%
X89450000Y-107150000D03*
X101750000Y-77450000D03*
X89400000Y-89600000D03*
X101750000Y-92400000D03*
%TO.N,Net-(D3-K)*%
X93400000Y-105900000D03*
%TO.N,/A23*%
X161700000Y-55450000D03*
X180100000Y-76850000D03*
X180100000Y-55450000D03*
%TO.N,/D15*%
X178450000Y-130600000D03*
X165150000Y-117490000D03*
X116150000Y-116550000D03*
X115900000Y-129650000D03*
%TO.N,/A3*%
X131925000Y-114600000D03*
X157400000Y-78775000D03*
X104550000Y-41700000D03*
X131925000Y-112425000D03*
X104750000Y-114050000D03*
X158750000Y-114675000D03*
%TO.N,/A4*%
X154450000Y-74300000D03*
X154250000Y-109600000D03*
X143256000Y-103600000D03*
X123050000Y-124725000D03*
X143256000Y-112750600D03*
X114225000Y-124750000D03*
X114225000Y-112765000D03*
%TO.N,/A6*%
X115400000Y-110250000D03*
X133925000Y-101550000D03*
X135550000Y-111475000D03*
X115400000Y-101125000D03*
X150750000Y-78650000D03*
X149000000Y-110220000D03*
%TO.N,/A7*%
X105950000Y-91550000D03*
X105950000Y-100525000D03*
X105950000Y-108950000D03*
X120600000Y-91525000D03*
X134525000Y-100925000D03*
X135050000Y-109825000D03*
X162050000Y-77400000D03*
%TO.N,/A2*%
X105350000Y-99900000D03*
X127625000Y-100800000D03*
X150425000Y-115250000D03*
X105350000Y-115225000D03*
X119425000Y-99925000D03*
X163750000Y-93625000D03*
X152500000Y-93675000D03*
X152500000Y-80050000D03*
%TO.N,/D14*%
X174900000Y-59600000D03*
X169340000Y-59560000D03*
%TO.N,/R_W*%
X102700000Y-103400000D03*
X121158000Y-103650000D03*
X102700000Y-49450000D03*
X102700000Y-76400000D03*
X144000000Y-58650000D03*
X144000000Y-49950000D03*
X154900000Y-98225000D03*
X170600000Y-58550000D03*
X121158000Y-106415000D03*
X154875000Y-106400000D03*
%TO.N,/D13*%
X115900000Y-119450000D03*
X169450000Y-124375000D03*
X115910000Y-128660000D03*
%TO.N,/~{LDS}*%
X145150000Y-84400000D03*
X145750000Y-68900000D03*
X173050000Y-68900000D03*
%TO.N,/D12*%
X127175000Y-128175000D03*
X166450000Y-126150000D03*
X166550000Y-53100000D03*
X174450000Y-53100000D03*
X127200000Y-121550000D03*
%TO.N,/~{UDS}*%
X178200000Y-57650000D03*
X133400000Y-74700000D03*
X133400000Y-57650000D03*
X127675000Y-74725000D03*
X127675000Y-85675000D03*
%TO.N,/D11*%
X121075000Y-130075000D03*
X121050000Y-122075000D03*
%TO.N,/~{AS}*%
X111575000Y-90700000D03*
X180750000Y-67850000D03*
X111600000Y-86625000D03*
X149200000Y-81250000D03*
X149150000Y-88425000D03*
X149200000Y-67950000D03*
%TO.N,/D3*%
X183400000Y-47400000D03*
X183100000Y-121650000D03*
%TO.N,/D10*%
X131700000Y-54050000D03*
X147250000Y-54050000D03*
X147250000Y-46400000D03*
X130450000Y-124600000D03*
X183400000Y-46200000D03*
%TO.N,/D8*%
X136375000Y-119375000D03*
X136750000Y-46200000D03*
%TO.N,/D0*%
X131300000Y-77450000D03*
X129675000Y-120025000D03*
X131300000Y-86725000D03*
X182050000Y-86350000D03*
X148700000Y-123825000D03*
X148675000Y-117850000D03*
%TO.N,/D4*%
X178300000Y-59050000D03*
X180275000Y-121000000D03*
%TO.N,/D9*%
X128950000Y-123475000D03*
X128950000Y-56450000D03*
X185850000Y-56450000D03*
%TO.N,/D2*%
X169600000Y-125300000D03*
X187000000Y-95375000D03*
X144700000Y-126500000D03*
X144750000Y-120350000D03*
X132475000Y-127675000D03*
X171450000Y-93475000D03*
%TO.N,/D6*%
X151225000Y-117875000D03*
X151225000Y-120500000D03*
X189800000Y-57750000D03*
X185900000Y-57800000D03*
X185150000Y-117750000D03*
%TO.N,/D1*%
X133400000Y-76200000D03*
X143725000Y-119100000D03*
X133962500Y-125675000D03*
X184550000Y-96250000D03*
X134050000Y-93700000D03*
%TO.N,/D5*%
X174850000Y-119100000D03*
X152350000Y-119075000D03*
X152275000Y-120575000D03*
X177775000Y-129925000D03*
%TD*%
D30*
%TO.N,Net-(U3-I6)*%
X134050000Y-79650000D02*
X133650000Y-80050000D01*
X128700000Y-86700000D02*
X124375000Y-86700000D01*
X133650000Y-80050000D02*
X133300000Y-80050000D01*
X91950000Y-94500000D02*
X91950000Y-95400000D01*
X92300000Y-94150000D02*
X91950000Y-94500000D01*
X121775000Y-89300000D02*
X105701471Y-89300000D01*
X137347500Y-78750000D02*
X134400000Y-78750000D01*
X91950000Y-97400000D02*
X91950000Y-95400000D01*
X129325000Y-86075000D02*
X128700000Y-86700000D01*
X105701471Y-89300000D02*
X102600000Y-92401471D01*
X133300000Y-86075000D02*
X129325000Y-86075000D01*
X91000000Y-97700000D02*
X91650000Y-97700000D01*
X91650000Y-97700000D02*
X91950000Y-97400000D01*
X102200000Y-94150000D02*
X92300000Y-94150000D01*
X134050000Y-79100000D02*
X134050000Y-79650000D01*
X102600000Y-92401471D02*
X102600000Y-93750000D01*
X90600000Y-98100000D02*
X91000000Y-97700000D01*
X124375000Y-86700000D02*
X121775000Y-89300000D01*
X102600000Y-93750000D02*
X102200000Y-94150000D01*
X134400000Y-78750000D02*
X134050000Y-79100000D01*
%TO.N,Net-(U10-~{CE})*%
X116745000Y-115305000D02*
X118700000Y-115305000D01*
X126350000Y-74300000D02*
X127200000Y-73450000D01*
X116450000Y-115600000D02*
X116745000Y-115305000D01*
X112700000Y-115600000D02*
X116450000Y-115600000D01*
X124940000Y-74610000D02*
X125250000Y-74300000D01*
X127150000Y-64400000D02*
X113250000Y-64400000D01*
X127200000Y-73450000D02*
X127200000Y-73300000D01*
X125250000Y-74300000D02*
X126350000Y-74300000D01*
%TO.N,Net-(U2-IO1)*%
X122400000Y-77250000D02*
X122000000Y-77650000D01*
X122000000Y-77650000D02*
X120100000Y-77650000D01*
X141850000Y-77100000D02*
X141400000Y-76650000D01*
X118850000Y-61250000D02*
X144900000Y-61250000D01*
X141400000Y-76650000D02*
X141400000Y-74697500D01*
X144900000Y-61250000D02*
X163850000Y-61250000D01*
X122400000Y-74697500D02*
X122400000Y-77250000D01*
X143800000Y-77100000D02*
X141850000Y-77100000D01*
X163850000Y-74700000D02*
X162292500Y-74700000D01*
%TO.N,/A5*%
X109100000Y-111495000D02*
X113595000Y-111495000D01*
X124280000Y-107330000D02*
X131070000Y-107330000D01*
X140870908Y-98831400D02*
X144672800Y-98831400D01*
X116050000Y-107825000D02*
X116825000Y-107050000D01*
X115475000Y-111500000D02*
X116050000Y-110925000D01*
X113600000Y-111500000D02*
X115475000Y-111500000D01*
X124000000Y-107050000D02*
X124280000Y-107330000D01*
X140869508Y-98830000D02*
X140870908Y-98831400D01*
X146127100Y-111490000D02*
X144744200Y-111490000D01*
X113595000Y-111495000D02*
X113600000Y-111500000D01*
X144672800Y-98831400D02*
X144679200Y-98825000D01*
X151575000Y-108325000D02*
X161265000Y-108325000D01*
X116825000Y-107050000D02*
X124000000Y-107050000D01*
X116050000Y-110925000D02*
X116050000Y-107825000D01*
X149385000Y-111490000D02*
X150850000Y-110025000D01*
X146750000Y-111490000D02*
X149385000Y-111490000D01*
X158025000Y-77525000D02*
X157980000Y-77480000D01*
X150850000Y-110025000D02*
X150850000Y-109050000D01*
X150850000Y-109050000D02*
X151575000Y-108325000D01*
X157980000Y-77480000D02*
X155697500Y-77480000D01*
X144744200Y-111490000D02*
X144729200Y-111475000D01*
X161265000Y-108325000D02*
X162260000Y-107330000D01*
X139570000Y-98830000D02*
X140869508Y-98830000D01*
X131070000Y-107330000D02*
X139570000Y-98830000D01*
%TO.N,/A8*%
X160050000Y-76500000D02*
X160650000Y-76500000D01*
X159750000Y-74697500D02*
X159750000Y-76200000D01*
X139109000Y-96266000D02*
X135665000Y-99710000D01*
X157175000Y-99725000D02*
X162245000Y-99725000D01*
X143937200Y-96266000D02*
X139109000Y-96266000D01*
X144018000Y-107696000D02*
X144034000Y-107680000D01*
X159750000Y-76200000D02*
X160050000Y-76500000D01*
X144043400Y-96372200D02*
X143937200Y-96266000D01*
X144034000Y-107680000D02*
X146127100Y-107680000D01*
X146750000Y-107680000D02*
X149220000Y-107680000D01*
X117050000Y-62500000D02*
X119850000Y-62500000D01*
X149220000Y-107680000D02*
X157175000Y-99725000D01*
X111050000Y-107685000D02*
X109100000Y-107685000D01*
X111050000Y-99075000D02*
X117075000Y-99075000D01*
X125510000Y-99710000D02*
X124875000Y-99075000D01*
X135665000Y-99710000D02*
X125510000Y-99710000D01*
X124875000Y-99075000D02*
X117075000Y-99075000D01*
%TO.N,/~{IPL2}*%
X107100000Y-45500000D02*
X107100000Y-41950000D01*
X107100000Y-41950000D02*
X107350000Y-41700000D01*
X124600000Y-41700000D02*
X124900000Y-42000000D01*
X106540000Y-74647500D02*
X106540000Y-72460000D01*
X124900000Y-42000000D02*
X124900000Y-46400000D01*
X107350000Y-41700000D02*
X124600000Y-41700000D01*
X106540000Y-72460000D02*
X106550000Y-72450000D01*
X125650000Y-47150000D02*
X142700000Y-47150000D01*
X106550000Y-46050000D02*
X107100000Y-45500000D01*
X124900000Y-46400000D02*
X125650000Y-47150000D01*
%TO.N,/A15*%
X116845000Y-105145000D02*
X117475000Y-105775000D01*
X179650000Y-99570000D02*
X177250000Y-97170000D01*
X140500000Y-97170000D02*
X160495000Y-97170000D01*
X161525000Y-98200000D02*
X176220000Y-98200000D01*
X192700000Y-111300000D02*
X180650000Y-111300000D01*
X160495000Y-97170000D02*
X161525000Y-98200000D01*
X176220000Y-98200000D02*
X177250000Y-97170000D01*
X192570000Y-79920000D02*
X193100000Y-80450000D01*
X193100000Y-110900000D02*
X192700000Y-111300000D01*
X182252500Y-79920000D02*
X192570000Y-79920000D01*
X117475000Y-105775000D02*
X131000000Y-105775000D01*
X139605000Y-97170000D02*
X140500000Y-97170000D01*
X179650000Y-110300000D02*
X179650000Y-99570000D01*
X109100000Y-105145000D02*
X116845000Y-105145000D01*
X193100000Y-80450000D02*
X193100000Y-110900000D01*
X180650000Y-111300000D02*
X179650000Y-110300000D01*
X131000000Y-105775000D02*
X139605000Y-97170000D01*
D31*
%TO.N,GND*%
X112166400Y-55422800D02*
X88872800Y-55422800D01*
X185000000Y-93750000D02*
X185800000Y-94550000D01*
X88060000Y-39120000D02*
X90600000Y-39120000D01*
X118490000Y-53575000D02*
X118490000Y-54788800D01*
X103205000Y-121655000D02*
X102950000Y-121400000D01*
X121130000Y-83930000D02*
X121130000Y-82802500D01*
X146725000Y-127675000D02*
X146750000Y-127675000D01*
X146750000Y-122600000D02*
X146750000Y-121650000D01*
X96100000Y-113200000D02*
X96677500Y-113777500D01*
X87450000Y-104650000D02*
X87450000Y-113250000D01*
X121500000Y-84300000D02*
X121130000Y-83930000D01*
X102800000Y-88650000D02*
X102730000Y-88580000D01*
X191750000Y-95600000D02*
X191750000Y-109100000D01*
X87450000Y-104650000D02*
X91520000Y-104650000D01*
X139800000Y-84300000D02*
X121500000Y-84300000D01*
X96100000Y-88700000D02*
X96150000Y-88650000D01*
X117856000Y-55422800D02*
X112166400Y-55422800D01*
X158750000Y-79800000D02*
X158450000Y-80100000D01*
X96677500Y-113777500D02*
X96677500Y-115377500D01*
X112166400Y-55422800D02*
X112140000Y-55396400D01*
X181750000Y-90750000D02*
X182250000Y-91250000D01*
X182250000Y-91250000D02*
X184250000Y-91250000D01*
X185800000Y-94550000D02*
X190700000Y-94550000D01*
X87587500Y-54137500D02*
X87587500Y-48600000D01*
X102727500Y-120377500D02*
X96677500Y-120377500D01*
X190700000Y-94550000D02*
X191750000Y-95600000D01*
X158450000Y-80100000D02*
X158450000Y-82772500D01*
X163700000Y-86150000D02*
X163700000Y-85150000D01*
X176250000Y-84650000D02*
X176930000Y-83970000D01*
X162260000Y-127650000D02*
X146750000Y-127650000D01*
X118650000Y-88650000D02*
X102800000Y-88650000D01*
X109100000Y-125900000D02*
X109100000Y-121655000D01*
X87450000Y-113250000D02*
X87400000Y-113300000D01*
X87600000Y-44660000D02*
X87600000Y-48587500D01*
X102730000Y-88580000D02*
X102730000Y-82752500D01*
X156300000Y-70600000D02*
X157862500Y-70600000D01*
X140130000Y-83970000D02*
X140130000Y-82802500D01*
X96677500Y-115377500D02*
X101735000Y-115377500D01*
X179375000Y-87000000D02*
X181750000Y-89375000D01*
X112140000Y-55396400D02*
X112140000Y-53100000D01*
X179500000Y-52250000D02*
X158750000Y-52250000D01*
X125500000Y-127660000D02*
X110860000Y-127660000D01*
X120100000Y-80900000D02*
X120100000Y-78850000D01*
X190850000Y-110000000D02*
X186650000Y-110000000D01*
X176930000Y-83970000D02*
X176930000Y-82702500D01*
X109100000Y-121655000D02*
X103205000Y-121655000D01*
X102950000Y-121400000D02*
X102950000Y-120600000D01*
X102660000Y-88650000D02*
X102730000Y-88580000D01*
X88872800Y-55422800D02*
X87587500Y-54137500D01*
X102950000Y-120600000D02*
X102727500Y-120377500D01*
X121130000Y-81930000D02*
X120100000Y-80900000D01*
X173500000Y-84650000D02*
X176250000Y-84650000D01*
X181750000Y-89375000D02*
X181750000Y-90750000D01*
X118700000Y-88600000D02*
X118650000Y-88650000D01*
X121130000Y-82802500D02*
X121130000Y-81930000D01*
X158750000Y-86550000D02*
X163300000Y-86550000D01*
X101735000Y-115377500D02*
X102400000Y-114712500D01*
X183512500Y-109262500D02*
X184250000Y-110000000D01*
X163300000Y-86550000D02*
X163700000Y-86150000D01*
X191750000Y-109100000D02*
X190850000Y-110000000D01*
X173450000Y-87000000D02*
X179375000Y-87000000D01*
X87400000Y-113300000D02*
X96000000Y-113300000D01*
X164200000Y-84650000D02*
X173500000Y-84650000D01*
X144825000Y-129575000D02*
X146725000Y-127675000D01*
X127435000Y-129575000D02*
X144825000Y-129575000D01*
X146750000Y-127675000D02*
X146750000Y-127650000D01*
X96000000Y-113300000D02*
X96100000Y-113200000D01*
X139800000Y-84300000D02*
X140130000Y-83970000D01*
X88060000Y-44200000D02*
X87600000Y-44660000D01*
X185000000Y-92000000D02*
X185000000Y-93750000D01*
X184250000Y-91250000D02*
X185000000Y-92000000D01*
X163700000Y-85150000D02*
X164200000Y-84650000D01*
X96150000Y-88650000D02*
X102660000Y-88650000D01*
X110860000Y-127660000D02*
X109100000Y-125900000D01*
X118490000Y-54788800D02*
X117856000Y-55422800D01*
X125510000Y-127650000D02*
X127435000Y-129575000D01*
X184250000Y-110000000D02*
X186650000Y-110000000D01*
D30*
%TO.N,+5V*%
X88100000Y-95400000D02*
X88100000Y-94600000D01*
D31*
X107650000Y-56400000D02*
X97950000Y-56400000D01*
X156350000Y-89600000D02*
X156300000Y-89550000D01*
X123670000Y-74697500D02*
X123670000Y-72580000D01*
X161020000Y-74697500D02*
X161020000Y-72530000D01*
X180600000Y-92850000D02*
X181400000Y-92850000D01*
D30*
X91700000Y-93650000D02*
X91950000Y-93400000D01*
D31*
X162260000Y-89550000D02*
X177250000Y-89550000D01*
X97880000Y-74280000D02*
X92600000Y-74280000D01*
X91525000Y-108455000D02*
X91525000Y-109375000D01*
X118491000Y-56400000D02*
X119760000Y-56400000D01*
X156300000Y-89550000D02*
X140500000Y-89550000D01*
X161050000Y-72500000D02*
X179250000Y-72500000D01*
X117800000Y-56400000D02*
X107650000Y-56400000D01*
X183200000Y-102200000D02*
X181400000Y-102200000D01*
X188550000Y-106950000D02*
X184012500Y-106950000D01*
X105270000Y-74647500D02*
X105270000Y-71980000D01*
X154750000Y-72500000D02*
X161050000Y-72500000D01*
X179250000Y-72500000D02*
X179470000Y-72720000D01*
X119760000Y-53575000D02*
X119760000Y-55000000D01*
X102400000Y-109950000D02*
X102400000Y-111587500D01*
X153700000Y-105700000D02*
X154260000Y-105140000D01*
X101700000Y-104600000D02*
X101655000Y-104645000D01*
X184012500Y-106950000D02*
X183200000Y-106137500D01*
X142670000Y-72530000D02*
X142700000Y-72500000D01*
X105800000Y-71450000D02*
X107650000Y-71450000D01*
D30*
X89050000Y-93650000D02*
X91700000Y-93650000D01*
D31*
X101655000Y-104645000D02*
X96475000Y-104645000D01*
X183200000Y-106137500D02*
X183200000Y-102200000D01*
X142700000Y-72500000D02*
X154750000Y-72500000D01*
X101700000Y-109700000D02*
X102150000Y-109700000D01*
X156400000Y-89550000D02*
X162260000Y-89550000D01*
X105700000Y-104050000D02*
X105150000Y-104600000D01*
X102150000Y-109700000D02*
X102400000Y-109950000D01*
X154787500Y-72462500D02*
X154750000Y-72500000D01*
X125510000Y-89550000D02*
X140500000Y-89550000D01*
X105270000Y-71980000D02*
X105800000Y-71450000D01*
X181400000Y-92850000D02*
X183300000Y-92850000D01*
X119910000Y-55150000D02*
X149800000Y-55150000D01*
D30*
X88100000Y-94600000D02*
X89050000Y-93650000D01*
D31*
X91525000Y-109375000D02*
X91850000Y-109700000D01*
X156350000Y-105140000D02*
X156350000Y-104125000D01*
X123670000Y-72580000D02*
X123750000Y-72500000D01*
X91950000Y-93400000D02*
X91950000Y-92300000D01*
X142670000Y-74697500D02*
X142670000Y-72530000D01*
X177250000Y-92090000D02*
X179840000Y-92090000D01*
X156350000Y-107680000D02*
X154305000Y-107680000D01*
X117850000Y-72500000D02*
X123750000Y-72500000D01*
X118491000Y-56400000D02*
X118490000Y-56401000D01*
X154787500Y-70650000D02*
X154787500Y-72462500D01*
X179470000Y-72720000D02*
X179470000Y-74597500D01*
X154260000Y-105140000D02*
X156350000Y-105140000D01*
X161020000Y-72530000D02*
X161050000Y-72500000D01*
X101750000Y-93550000D02*
X92100000Y-93550000D01*
X105150000Y-104600000D02*
X101700000Y-104600000D01*
X119760000Y-55000000D02*
X119760000Y-58525000D01*
X118491000Y-56400000D02*
X117800000Y-56400000D01*
X118950000Y-104050000D02*
X118950000Y-104895000D01*
X92600000Y-74280000D02*
X88900000Y-74280000D01*
X156350000Y-89600000D02*
X156400000Y-89550000D01*
X123750000Y-72500000D02*
X142700000Y-72500000D01*
X118490000Y-56401000D02*
X118490000Y-59000000D01*
X154305000Y-107680000D02*
X153700000Y-107075000D01*
X179840000Y-92090000D02*
X180600000Y-92850000D01*
X118950000Y-104050000D02*
X105700000Y-104050000D01*
X150450000Y-55100000D02*
X153750000Y-55100000D01*
X94400000Y-48650000D02*
X90762500Y-48650000D01*
X91850000Y-109700000D02*
X101700000Y-109700000D01*
X92100000Y-93550000D02*
X91950000Y-93400000D01*
X119760000Y-55000000D02*
X119910000Y-55150000D01*
X153700000Y-107075000D02*
X153700000Y-105700000D01*
D30*
%TO.N,/~{OE}*%
X121025000Y-113450000D02*
X132575000Y-113450000D01*
X136155000Y-109870000D02*
X140500000Y-109870000D01*
X120340000Y-112765000D02*
X121025000Y-113450000D01*
X177250000Y-109870000D02*
X173720000Y-113400000D01*
X137950000Y-83375000D02*
X138287500Y-83375000D01*
X118700000Y-112765000D02*
X120340000Y-112765000D01*
X149890000Y-112760000D02*
X156350000Y-112760000D01*
X116300000Y-112765000D02*
X118700000Y-112765000D01*
X106125000Y-87375000D02*
X105270000Y-86520000D01*
X157925000Y-112750000D02*
X156360000Y-112750000D01*
X105270000Y-86520000D02*
X105270000Y-82752500D01*
X149800000Y-112850000D02*
X149890000Y-112760000D01*
X138287500Y-83375000D02*
X138860000Y-82802500D01*
X116300000Y-78750000D02*
X118347500Y-78750000D01*
X132575000Y-113450000D02*
X136155000Y-109870000D01*
X158575000Y-113400000D02*
X157925000Y-112750000D01*
X173720000Y-113400000D02*
X158575000Y-113400000D01*
X149800000Y-109575000D02*
X140795000Y-109575000D01*
X116250000Y-87375000D02*
X106125000Y-87375000D01*
%TO.N,Net-(U4-IO4)*%
X153500000Y-86600000D02*
X155700000Y-86600000D01*
X154575000Y-115325000D02*
X156325000Y-115325000D01*
X126452500Y-78750000D02*
X130400000Y-78750000D01*
X130750000Y-64600000D02*
X153500000Y-64600000D01*
%TO.N,Net-(U4-IO5)*%
X156676471Y-88425000D02*
X156076471Y-89025000D01*
X156076471Y-89025000D02*
X146734314Y-89025000D01*
X126452500Y-80020000D02*
X129980000Y-80020000D01*
X170150000Y-114950000D02*
X177250000Y-114950000D01*
X146284314Y-88575000D02*
X130025000Y-88575000D01*
X146734314Y-89025000D02*
X146284314Y-88575000D01*
X170100000Y-115000000D02*
X170150000Y-114950000D01*
X129980000Y-80020000D02*
X130000000Y-80000000D01*
X170050000Y-88425000D02*
X156676471Y-88425000D01*
%TO.N,/A1*%
X165950000Y-80350000D02*
X165950000Y-83300000D01*
X117100000Y-114635000D02*
X122655000Y-114635000D01*
X115150000Y-114875000D02*
X111875000Y-114875000D01*
X117100000Y-114635000D02*
X115390000Y-114635000D01*
X111400000Y-115350000D02*
X111400000Y-116150000D01*
X165620000Y-80020000D02*
X165950000Y-80350000D01*
X165650000Y-83600000D02*
X163750000Y-83600000D01*
X145070000Y-116570000D02*
X146750000Y-116570000D01*
X122655000Y-114635000D02*
X125510000Y-117490000D01*
X144500000Y-116000000D02*
X145070000Y-116570000D01*
X131475000Y-116000000D02*
X144500000Y-116000000D01*
X158715000Y-115950000D02*
X147370000Y-115950000D01*
X164350000Y-114000000D02*
X160665000Y-114000000D01*
X165950000Y-83300000D02*
X165650000Y-83600000D01*
X163802500Y-80020000D02*
X165620000Y-80020000D01*
X125510000Y-117490000D02*
X129985000Y-117490000D01*
X147370000Y-115950000D02*
X146750000Y-116570000D01*
X110975000Y-116575000D02*
X109100000Y-116575000D01*
X115390000Y-114635000D02*
X115150000Y-114875000D01*
X111400000Y-116150000D02*
X110975000Y-116575000D01*
X129985000Y-117490000D02*
X131475000Y-116000000D01*
X160665000Y-114000000D02*
X158715000Y-115950000D01*
X111875000Y-114875000D02*
X111400000Y-115350000D01*
%TO.N,Net-(U4-IO8)*%
X123670000Y-82802500D02*
X123670000Y-80070000D01*
X123250000Y-79650000D02*
X122050000Y-79650000D01*
X120025000Y-95750000D02*
X120075000Y-95800000D01*
X120075000Y-95800000D02*
X137150000Y-95800000D01*
X123670000Y-80070000D02*
X123250000Y-79650000D01*
%TO.N,/A16*%
X167350000Y-62300000D02*
X143250000Y-62300000D01*
X143250000Y-62300000D02*
X134300000Y-62300000D01*
X167350000Y-78650000D02*
X174147500Y-78650000D01*
X135150000Y-94625000D02*
X135145000Y-94630000D01*
X162260000Y-94630000D02*
X167120000Y-94630000D01*
X167120000Y-94630000D02*
X167175000Y-94575000D01*
X135145000Y-94630000D02*
X125510000Y-94630000D01*
%TO.N,Net-(U2-I8)*%
X125075000Y-83625000D02*
X136150000Y-83625000D01*
X146000000Y-86250000D02*
X145625000Y-86625000D01*
X155300000Y-82050000D02*
X155697500Y-81652500D01*
X136150000Y-83625000D02*
X137175000Y-82600000D01*
X147725000Y-86250000D02*
X146000000Y-86250000D01*
X155697500Y-81652500D02*
X155697500Y-81290000D01*
X145625000Y-86625000D02*
X142450000Y-86625000D01*
X142450000Y-86625000D02*
X141850000Y-86025000D01*
X141850000Y-86025000D02*
X137175000Y-86025000D01*
X147800000Y-82050000D02*
X155300000Y-82050000D01*
%TO.N,Net-(U2-I9)*%
X154150000Y-83550000D02*
X156650000Y-83550000D01*
X146650000Y-83150000D02*
X153750000Y-83150000D01*
X127990000Y-81290000D02*
X128350000Y-81650000D01*
X128350000Y-81650000D02*
X128350000Y-81950000D01*
X126452500Y-81290000D02*
X127990000Y-81290000D01*
X153750000Y-83150000D02*
X154150000Y-83550000D01*
X128350000Y-91175000D02*
X146600000Y-91175000D01*
X156650000Y-83550000D02*
X157210000Y-82990000D01*
X146600000Y-91175000D02*
X146625000Y-91200000D01*
%TO.N,Net-(U3-IO4)*%
X145125000Y-85325000D02*
X145025000Y-85425000D01*
X120926470Y-88000000D02*
X104950000Y-88000000D01*
X104950000Y-88000000D02*
X104000000Y-87050000D01*
X104000000Y-87050000D02*
X104000000Y-82752500D01*
X128325000Y-86275000D02*
X122651470Y-86275000D01*
X143750000Y-78750000D02*
X145452500Y-78750000D01*
X129175000Y-85425000D02*
X128325000Y-86275000D01*
X121700000Y-81300000D02*
X122150000Y-81300000D01*
X121725735Y-87200735D02*
X120926470Y-88000000D01*
X122150000Y-81300000D02*
X122400000Y-81550000D01*
X145025000Y-85425000D02*
X129175000Y-85425000D01*
X122400000Y-81550000D02*
X122400000Y-82802500D01*
X122651470Y-86275000D02*
X121725735Y-87200735D01*
%TO.N,/A9*%
X152700000Y-102250000D02*
X140500000Y-102250000D01*
X138650000Y-102250000D02*
X140500000Y-102250000D01*
X177900000Y-80950000D02*
X178200000Y-81250000D01*
X117275000Y-108950000D02*
X118695000Y-108950000D01*
X131950000Y-108950000D02*
X138650000Y-102250000D01*
X152900000Y-102450000D02*
X152700000Y-102250000D01*
X163875000Y-108950000D02*
X170575000Y-102250000D01*
X156350000Y-108950000D02*
X163875000Y-108950000D01*
X170575000Y-102250000D02*
X177250000Y-102250000D01*
X177400000Y-80950000D02*
X177900000Y-80950000D01*
X178200000Y-81250000D02*
X178200000Y-82702500D01*
X152900000Y-108950000D02*
X156350000Y-108950000D01*
X118705000Y-108950000D02*
X131950000Y-108950000D01*
%TO.N,Net-(U2-IO7)*%
X120100000Y-66350000D02*
X140400000Y-66350000D01*
X140400000Y-80250000D02*
X140950000Y-80800000D01*
X143700000Y-86000000D02*
X145450000Y-86000000D01*
X145800000Y-85650000D02*
X161850000Y-85650000D01*
X145450000Y-86000000D02*
X145800000Y-85650000D01*
X121130000Y-74697500D02*
X121130000Y-76170000D01*
X140950000Y-80800000D02*
X143700000Y-80800000D01*
X162290000Y-85210000D02*
X162290000Y-82802500D01*
X140130000Y-76480000D02*
X140130000Y-74697500D01*
X121130000Y-76170000D02*
X120850000Y-76450000D01*
X120850000Y-76450000D02*
X120100000Y-76450000D01*
X140400000Y-76750000D02*
X140130000Y-76480000D01*
X143675000Y-86025000D02*
X143700000Y-86000000D01*
X161850000Y-85650000D02*
X162290000Y-85210000D01*
X140400000Y-76750000D02*
X140400000Y-80250000D01*
%TO.N,Net-(U2-IO8)*%
X117000000Y-74250000D02*
X119600000Y-74250000D01*
X137800000Y-71450000D02*
X150100000Y-71450000D01*
X116900000Y-71450000D02*
X137800000Y-71450000D01*
X119860000Y-74510000D02*
X119600000Y-74250000D01*
X117000000Y-74250000D02*
X116650000Y-73900000D01*
X137800000Y-73900000D02*
X138450000Y-73900000D01*
X116650000Y-73900000D02*
X116650000Y-71700000D01*
X116650000Y-71700000D02*
X116900000Y-71450000D01*
X160800000Y-84900000D02*
X161020000Y-84680000D01*
X161020000Y-84680000D02*
X161020000Y-82802500D01*
X150100000Y-84900000D02*
X160800000Y-84900000D01*
X138450000Y-73900000D02*
X138860000Y-74310000D01*
%TO.N,Net-(U3-IO2)*%
X115950000Y-70600000D02*
X146700000Y-70600000D01*
X146700000Y-75100000D02*
X146700000Y-76100000D01*
X116160000Y-76210000D02*
X115600000Y-75650000D01*
X146700000Y-76100000D02*
X146590000Y-76210000D01*
X115600000Y-70950000D02*
X115950000Y-70600000D01*
X146590000Y-76210000D02*
X145452500Y-76210000D01*
X118347500Y-76210000D02*
X116160000Y-76210000D01*
X115600000Y-75650000D02*
X115600000Y-70950000D01*
%TO.N,Net-(U3-I03)*%
X114400000Y-70250000D02*
X114800000Y-69850000D01*
X152500000Y-77500000D02*
X145472500Y-77500000D01*
X114630000Y-77480000D02*
X114400000Y-77250000D01*
X118347500Y-77480000D02*
X114630000Y-77480000D01*
X114400000Y-77250000D02*
X114400000Y-70250000D01*
X114800000Y-69850000D02*
X152550000Y-69850000D01*
%TO.N,Net-(U3-I5)*%
X109500000Y-65400000D02*
X134350000Y-65400000D01*
X106950000Y-85200000D02*
X109500000Y-85200000D01*
X135870000Y-77480000D02*
X137347500Y-77480000D01*
X134350000Y-77700000D02*
X135650000Y-77700000D01*
X106540000Y-84790000D02*
X106950000Y-85200000D01*
X135650000Y-77700000D02*
X135870000Y-77480000D01*
X106540000Y-82752500D02*
X106540000Y-84790000D01*
%TO.N,Net-(U2-IO6)*%
X165175000Y-82525000D02*
X165175000Y-81675000D01*
X139100000Y-81275000D02*
X137362500Y-81275000D01*
X165175000Y-81675000D02*
X164790000Y-81290000D01*
X137200000Y-59850000D02*
X164850000Y-59850000D01*
X164790000Y-81290000D02*
X163802500Y-81290000D01*
%TO.N,Net-(U3-IO5)*%
X100250000Y-75700000D02*
X99947500Y-76002500D01*
X147850000Y-67950000D02*
X144250000Y-67950000D01*
X100250000Y-69500000D02*
X100250000Y-75700000D01*
X100800000Y-68950000D02*
X100250000Y-69500000D01*
X147850000Y-80020000D02*
X145452500Y-80020000D01*
X144250000Y-67950000D02*
X143250000Y-68950000D01*
X143250000Y-68950000D02*
X100800000Y-68950000D01*
%TO.N,/~{FC0}*%
X135380000Y-80020000D02*
X137347500Y-80020000D01*
X135000000Y-82550000D02*
X135000000Y-80400000D01*
X126625000Y-82850000D02*
X134700000Y-82850000D01*
X126050000Y-82275000D02*
X126625000Y-82850000D01*
X135000000Y-80400000D02*
X135380000Y-80020000D01*
X134700000Y-82850000D02*
X135000000Y-82550000D01*
%TO.N,/A17*%
X178950000Y-111850000D02*
X193200000Y-111850000D01*
X193200000Y-111850000D02*
X193700000Y-111350000D01*
X193175000Y-78650000D02*
X186450000Y-78650000D01*
X162260000Y-92090000D02*
X163675000Y-90675000D01*
X163675000Y-90675000D02*
X179025000Y-90675000D01*
X161015000Y-92090000D02*
X162260000Y-92090000D01*
X184150000Y-65300000D02*
X184450000Y-65600000D01*
X186200000Y-69550000D02*
X186450000Y-69800000D01*
X182252500Y-78650000D02*
X186450000Y-78650000D01*
X193700000Y-79175000D02*
X193175000Y-78650000D01*
X146450000Y-65300000D02*
X184150000Y-65300000D01*
X160030000Y-93075000D02*
X161015000Y-92090000D01*
X193700000Y-111350000D02*
X193700000Y-79175000D01*
X186450000Y-69800000D02*
X186450000Y-78650000D01*
X184450000Y-69150000D02*
X184850000Y-69550000D01*
X126495000Y-93075000D02*
X160030000Y-93075000D01*
X184450000Y-65600000D02*
X184450000Y-69150000D01*
X184850000Y-69550000D02*
X186200000Y-69550000D01*
X125510000Y-92090000D02*
X126495000Y-93075000D01*
%TO.N,Net-(U1-IO8)*%
X179050000Y-85600000D02*
X179470000Y-85180000D01*
X163802500Y-76210000D02*
X168240000Y-76210000D01*
X168250000Y-85600000D02*
X179050000Y-85600000D01*
X179470000Y-85180000D02*
X179470000Y-82702500D01*
X168240000Y-76210000D02*
X168250000Y-76200000D01*
%TO.N,Net-(U1-IO2)*%
X163802500Y-77480000D02*
X168980000Y-77480000D01*
X181900000Y-70650000D02*
X182250000Y-71000000D01*
X182250000Y-71000000D02*
X182250000Y-76107500D01*
X168980000Y-77480000D02*
X169000000Y-77500000D01*
X169000000Y-70650000D02*
X181900000Y-70650000D01*
%TO.N,/A18*%
X174147500Y-77380000D02*
X170820000Y-77380000D01*
X170820000Y-77380000D02*
X170800000Y-77400000D01*
X152800000Y-63350000D02*
X152850000Y-63400000D01*
X152850000Y-63400000D02*
X170800000Y-63400000D01*
%TO.N,Net-(U1-IO1)*%
X180740000Y-71890000D02*
X180740000Y-74597500D01*
X180450000Y-71600000D02*
X180740000Y-71890000D01*
X165850000Y-71050000D02*
X167250000Y-71050000D01*
X167250000Y-71050000D02*
X167800000Y-71600000D01*
X167800000Y-71600000D02*
X180450000Y-71600000D01*
X163802500Y-78750000D02*
X165850000Y-78750000D01*
%TO.N,Net-(Q1-G)*%
X99200000Y-68500000D02*
X99200000Y-71150000D01*
X114680000Y-51281600D02*
X114680000Y-53575000D01*
X101450000Y-51003200D02*
X101475400Y-50977800D01*
X99200000Y-71150000D02*
X98610000Y-71740000D01*
X114376200Y-50977800D02*
X114680000Y-51281600D01*
X92600000Y-71740000D02*
X88900000Y-71740000D01*
X99600000Y-68100000D02*
X99200000Y-68500000D01*
X101460000Y-71710000D02*
X101450000Y-71700000D01*
X101450000Y-68100000D02*
X99600000Y-68100000D01*
X101460000Y-74647500D02*
X101460000Y-71710000D01*
X98610000Y-71740000D02*
X92600000Y-71740000D01*
X101475400Y-50977800D02*
X114376200Y-50977800D01*
%TO.N,Net-(D1-K)*%
X185750000Y-92700000D02*
X188850000Y-92700000D01*
X179625000Y-88650000D02*
X178775000Y-87800000D01*
X183200000Y-97400000D02*
X183200000Y-99100000D01*
X146640686Y-87800000D02*
X146415686Y-87575000D01*
X183200000Y-99100000D02*
X185750000Y-99100000D01*
X121900000Y-89950000D02*
X105900000Y-89950000D01*
X179775000Y-96700000D02*
X182500000Y-96700000D01*
X178775000Y-87800000D02*
X146640686Y-87800000D01*
X146415686Y-87575000D02*
X124275000Y-87575000D01*
X182500000Y-96700000D02*
X183200000Y-97400000D01*
X185750000Y-99100000D02*
X188450000Y-99100000D01*
X124275000Y-87575000D02*
X121900000Y-89950000D01*
X99947500Y-78700000D02*
X105900000Y-78700000D01*
%TO.N,/A19*%
X184800000Y-70400000D02*
X185050000Y-70650000D01*
X155400000Y-66200000D02*
X182850000Y-66200000D01*
X185050000Y-77000000D02*
X184670000Y-77380000D01*
X185050000Y-70650000D02*
X185050000Y-77000000D01*
X184670000Y-77380000D02*
X182252500Y-77380000D01*
X183650000Y-70400000D02*
X184800000Y-70400000D01*
X183250000Y-70000000D02*
X183650000Y-70400000D01*
X182850000Y-66200000D02*
X183250000Y-66600000D01*
X183250000Y-66600000D02*
X183250000Y-70000000D01*
%TO.N,/A10*%
X143585000Y-104790000D02*
X140500000Y-104790000D01*
X126900000Y-110825000D02*
X121150000Y-110825000D01*
X132525000Y-110825000D02*
X138560000Y-104790000D01*
X120550000Y-110225000D02*
X118700000Y-110225000D01*
X138560000Y-104790000D02*
X140500000Y-104790000D01*
X152275000Y-103150000D02*
X152225000Y-103200000D01*
X152275000Y-110225000D02*
X152600000Y-110225000D01*
X176225000Y-80925000D02*
X176025000Y-80925000D01*
X171010000Y-104790000D02*
X177250000Y-104790000D01*
X156980000Y-110850000D02*
X164950000Y-110850000D01*
X176025000Y-80925000D02*
X175660000Y-81290000D01*
X126900000Y-110825000D02*
X132525000Y-110825000D01*
X175660000Y-81290000D02*
X175660000Y-82702500D01*
X145175000Y-103200000D02*
X143585000Y-104790000D01*
X152225000Y-103200000D02*
X145175000Y-103200000D01*
X121150000Y-110825000D02*
X120550000Y-110225000D01*
X156350000Y-110220000D02*
X156980000Y-110850000D01*
X152600000Y-110225000D02*
X152605000Y-110220000D01*
X152605000Y-110220000D02*
X156350000Y-110220000D01*
X164950000Y-110850000D02*
X171010000Y-104790000D01*
%TO.N,/~{FC1}*%
X159750000Y-82802500D02*
X159750000Y-80650000D01*
X159750000Y-67050000D02*
X127900000Y-67050000D01*
%TO.N,Net-(U5-I7)*%
X117170200Y-48183800D02*
X109550200Y-48183800D01*
X109143800Y-60909200D02*
X109245400Y-61010800D01*
X113410000Y-60745100D02*
X113410000Y-58525000D01*
X117200000Y-50749200D02*
X117200000Y-53555000D01*
X99947500Y-79970000D02*
X97080000Y-79970000D01*
X109550200Y-48183800D02*
X109169200Y-48564800D01*
X109245400Y-61010800D02*
X113144300Y-61010800D01*
X97050000Y-60909200D02*
X109143800Y-60909200D01*
X113144300Y-61010800D02*
X113410000Y-60745100D01*
X97080000Y-79970000D02*
X97050000Y-80000000D01*
%TO.N,Net-(U5-IO5)*%
X108052500Y-79970000D02*
X112480000Y-79970000D01*
X112480000Y-79970000D02*
X112500000Y-79950000D01*
X114680000Y-59000000D02*
X114680000Y-61721000D01*
X114680000Y-61721000D02*
X114681000Y-61722000D01*
X115290600Y-50723800D02*
X115950000Y-51383200D01*
X114681000Y-61722000D02*
X115284000Y-61722000D01*
X115950000Y-51383200D02*
X115950000Y-53575000D01*
X115284000Y-61722000D02*
X115300000Y-61738000D01*
X115290600Y-50714200D02*
X115290600Y-50723800D01*
X112500000Y-61722000D02*
X114681000Y-61722000D01*
%TO.N,Net-(U5-IO6)*%
X108700000Y-62458600D02*
X108725400Y-62484000D01*
X108390000Y-81240000D02*
X108700000Y-81550000D01*
X108700000Y-81550000D02*
X108700000Y-83150000D01*
X108725400Y-62484000D02*
X115417600Y-62484000D01*
X115417600Y-62484000D02*
X115950000Y-61951600D01*
X115950000Y-61951600D02*
X115950000Y-58525000D01*
%TO.N,/A11*%
X190850000Y-114100000D02*
X190500000Y-114100000D01*
X136850000Y-113950000D02*
X138390000Y-112410000D01*
X114832520Y-114035000D02*
X118700000Y-114035000D01*
X114826098Y-114041422D02*
X114832520Y-114035000D01*
X118785000Y-113950000D02*
X136850000Y-113950000D01*
X116876470Y-131475000D02*
X178600000Y-131475000D01*
X138390000Y-112410000D02*
X141747000Y-112410000D01*
X180740000Y-82702500D02*
X180740000Y-84290000D01*
X190490000Y-114090000D02*
X178930000Y-114090000D01*
X178930000Y-114090000D02*
X177250000Y-112410000D01*
X130000000Y-49100000D02*
X142400000Y-49100000D01*
X148555000Y-114030000D02*
X156350000Y-114030000D01*
X147925000Y-113400000D02*
X148555000Y-114030000D01*
X142737000Y-113400000D02*
X147925000Y-113400000D01*
X116000735Y-130599265D02*
X116876470Y-131475000D01*
X190500000Y-114100000D02*
X190490000Y-114090000D01*
X178600000Y-131475000D02*
X179250000Y-130825000D01*
X141747000Y-112410000D02*
X142737000Y-113400000D01*
X180740000Y-84290000D02*
X181400000Y-84950000D01*
X181400000Y-84950000D02*
X190850000Y-84950000D01*
%TO.N,Net-(U6B-D)*%
X112350000Y-57050000D02*
X116800000Y-57050000D01*
X117220000Y-57470000D02*
X117220000Y-58525000D01*
X112140000Y-58525000D02*
X112140000Y-57260000D01*
X112140000Y-57260000D02*
X112350000Y-57050000D01*
X116800000Y-57050000D02*
X117220000Y-57470000D01*
%TO.N,/A12*%
X170805000Y-107330000D02*
X177250000Y-107330000D01*
X132500000Y-111475000D02*
X132480000Y-111495000D01*
X170725000Y-107250000D02*
X170725000Y-109300000D01*
X145600000Y-103900000D02*
X151350000Y-103900000D01*
X142170000Y-107330000D02*
X145600000Y-103900000D01*
X170725000Y-109300000D02*
X168535000Y-111490000D01*
X132500000Y-111475000D02*
X136645000Y-107330000D01*
X140500000Y-107330000D02*
X142170000Y-107330000D01*
X132480000Y-111495000D02*
X118700000Y-111495000D01*
X173100000Y-81700000D02*
X173610000Y-81190000D01*
X151325000Y-111500000D02*
X151335000Y-111490000D01*
X136645000Y-107330000D02*
X140500000Y-107330000D01*
X168535000Y-111490000D02*
X156350000Y-111490000D01*
X151335000Y-111490000D02*
X156350000Y-111490000D01*
X173100000Y-82500000D02*
X173100000Y-81700000D01*
X170725000Y-107250000D02*
X170805000Y-107330000D01*
%TO.N,/~{IPL0}*%
X110450000Y-68150000D02*
X138000000Y-68150000D01*
X108052500Y-77430000D02*
X110430000Y-77430000D01*
X110430000Y-77430000D02*
X110450000Y-77450000D01*
X138000000Y-68150000D02*
X138050000Y-68100000D01*
%TO.N,/~{RST}*%
X102860000Y-81240000D02*
X103400000Y-80700000D01*
X150150000Y-49150000D02*
X150200000Y-49100000D01*
X154150000Y-49050000D02*
X154100000Y-49100000D01*
X150200000Y-49100000D02*
X148250000Y-49100000D01*
X99947500Y-81240000D02*
X102860000Y-81240000D01*
X150150000Y-51700000D02*
X150150000Y-49150000D01*
X103400000Y-63450000D02*
X148250000Y-63450000D01*
X154100000Y-49100000D02*
X150200000Y-49100000D01*
%TO.N,/A13*%
X111900000Y-106400000D02*
X111650000Y-106400000D01*
X180150000Y-80950000D02*
X180150000Y-80350000D01*
X180150000Y-80350000D02*
X179900000Y-80100000D01*
X137634314Y-97175000D02*
X135750000Y-97175000D01*
X139209314Y-95600000D02*
X137634314Y-97175000D01*
X135750000Y-97175000D02*
X135350000Y-97175000D01*
X135345000Y-97170000D02*
X125510000Y-97170000D01*
X148400000Y-96450000D02*
X161540000Y-96450000D01*
X135350000Y-97175000D02*
X135345000Y-97170000D01*
X163330000Y-96100000D02*
X162260000Y-97170000D01*
X147550000Y-95600000D02*
X139209314Y-95600000D01*
X182252500Y-81190000D02*
X180390000Y-81190000D01*
X179900000Y-80100000D02*
X178600000Y-80100000D01*
X180390000Y-81190000D02*
X180150000Y-80950000D01*
X178350000Y-96200000D02*
X178250000Y-96100000D01*
X148400000Y-106400000D02*
X146760000Y-106400000D01*
X111635000Y-106415000D02*
X109100000Y-106415000D01*
X111920000Y-97170000D02*
X125510000Y-97170000D01*
X178250000Y-96100000D02*
X163330000Y-96100000D01*
X148400000Y-96450000D02*
X147550000Y-95600000D01*
X111650000Y-106400000D02*
X111635000Y-106415000D01*
X161540000Y-96450000D02*
X162260000Y-97170000D01*
X111900000Y-97150000D02*
X111920000Y-97170000D01*
%TO.N,/A20*%
X174147500Y-76110000D02*
X169760000Y-76110000D01*
X169750000Y-64400000D02*
X157850000Y-64400000D01*
X169760000Y-76110000D02*
X169750000Y-76100000D01*
%TO.N,/~{IPL1}*%
X105550000Y-77200000D02*
X106400000Y-77200000D01*
X124000000Y-47700000D02*
X124400000Y-48100000D01*
X106990000Y-76160000D02*
X108052500Y-76160000D01*
X123550000Y-46700000D02*
X124000000Y-47150000D01*
X124000000Y-47150000D02*
X124000000Y-47600000D01*
X124400000Y-48100000D02*
X140100000Y-48100000D01*
X106400000Y-77200000D02*
X106650000Y-76950000D01*
X105550000Y-47400000D02*
X106750000Y-47400000D01*
X106750000Y-47400000D02*
X107450000Y-46700000D01*
X124000000Y-47600000D02*
X124000000Y-47700000D01*
X106650000Y-76500000D02*
X106990000Y-76160000D01*
X106650000Y-76950000D02*
X106650000Y-76500000D01*
X107450000Y-46700000D02*
X123550000Y-46700000D01*
%TO.N,/A14*%
X120075000Y-107700000D02*
X120750000Y-108375000D01*
X176080000Y-79920000D02*
X176450000Y-79550000D01*
X157300000Y-98750000D02*
X176225000Y-98750000D01*
X176225000Y-98750000D02*
X177185000Y-99710000D01*
X176500000Y-78950000D02*
X176750000Y-78700000D01*
X176750000Y-78700000D02*
X180500000Y-78700000D01*
X131825000Y-108375000D02*
X140490000Y-99710000D01*
X176500000Y-79500000D02*
X176500000Y-78950000D01*
X120750000Y-108375000D02*
X131825000Y-108375000D01*
X174147500Y-79920000D02*
X176080000Y-79920000D01*
X156400000Y-99650000D02*
X157300000Y-98750000D01*
X140560000Y-99650000D02*
X156400000Y-99650000D01*
X176450000Y-79550000D02*
X176500000Y-79500000D01*
%TO.N,/~{HLT}*%
X147800000Y-50700000D02*
X148300000Y-51200000D01*
X154050000Y-51700000D02*
X156650000Y-51700000D01*
X153900000Y-52900000D02*
X154050000Y-52750000D01*
X108052500Y-78700000D02*
X111050000Y-78700000D01*
X148850000Y-52900000D02*
X153900000Y-52900000D01*
X111506000Y-49225200D02*
X111582200Y-49149000D01*
X154050000Y-52750000D02*
X154050000Y-51700000D01*
X121600000Y-50700000D02*
X147800000Y-50700000D01*
X148300000Y-52350000D02*
X148850000Y-52900000D01*
X120049000Y-49149000D02*
X121600000Y-50700000D01*
X148300000Y-51200000D02*
X148300000Y-52350000D01*
X111582200Y-49149000D02*
X120049000Y-49149000D01*
%TO.N,Net-(D1-A)*%
X183300000Y-89750000D02*
X186200000Y-89750000D01*
X186200000Y-89750000D02*
X186610000Y-90160000D01*
X186610000Y-90160000D02*
X188850000Y-90160000D01*
%TO.N,/A21*%
X168250000Y-54400000D02*
X160500000Y-54400000D01*
X175250000Y-74300000D02*
X168250000Y-74300000D01*
X175362500Y-74300000D02*
X175250000Y-74300000D01*
X175660000Y-74597500D02*
X175362500Y-74300000D01*
%TO.N,/A22*%
X120950000Y-51750000D02*
X119314200Y-50114200D01*
X176950000Y-47100000D02*
X159200000Y-47100000D01*
X88900000Y-69200000D02*
X92600000Y-69200000D01*
X119314200Y-50114200D02*
X99585800Y-50114200D01*
X176930000Y-76780000D02*
X176950000Y-76800000D01*
X99000000Y-67000000D02*
X88900000Y-67000000D01*
X145150000Y-51750000D02*
X120950000Y-51750000D01*
X176930000Y-74597500D02*
X176930000Y-76780000D01*
X159200000Y-47100000D02*
X145150000Y-47100000D01*
X177000000Y-47150000D02*
X176950000Y-47100000D01*
X99585800Y-50114200D02*
X99000000Y-50700000D01*
%TO.N,Net-(U11-DIS)*%
X96475000Y-107185000D02*
X94265000Y-107185000D01*
X94000000Y-107450000D02*
X94000000Y-107800000D01*
X186010000Y-127265000D02*
X186010000Y-122080000D01*
X181400000Y-131875000D02*
X186010000Y-127265000D01*
X94050000Y-107400000D02*
X94000000Y-107450000D01*
X98930112Y-131875000D02*
X181400000Y-131875000D01*
X94265000Y-107185000D02*
X94050000Y-107400000D01*
X94000000Y-126944888D02*
X98930112Y-131875000D01*
X96475000Y-105915000D02*
X96475000Y-107185000D01*
%TO.N,Net-(D3-A)*%
X89485000Y-107185000D02*
X89450000Y-107150000D01*
X95750000Y-90100000D02*
X95750000Y-92300000D01*
X99700000Y-92362500D02*
X95812500Y-92362500D01*
X101712500Y-92362500D02*
X99700000Y-92362500D01*
X101730000Y-77430000D02*
X101750000Y-77450000D01*
X95250000Y-89600000D02*
X95750000Y-90100000D01*
X101750000Y-92400000D02*
X101712500Y-92362500D01*
X89400000Y-89600000D02*
X95250000Y-89600000D01*
X99947500Y-77430000D02*
X101730000Y-77430000D01*
X91525000Y-107185000D02*
X89485000Y-107185000D01*
%TO.N,Net-(D3-K)*%
X93385000Y-105915000D02*
X93400000Y-105900000D01*
X97250000Y-103350000D02*
X97800000Y-102800000D01*
X97800000Y-95462500D02*
X97737500Y-95400000D01*
X97800000Y-102800000D02*
X97800000Y-95462500D01*
X97737500Y-95400000D02*
X95750000Y-95400000D01*
X95150000Y-103350000D02*
X97250000Y-103350000D01*
X93400000Y-105900000D02*
X94200000Y-105900000D01*
X91525000Y-105915000D02*
X93385000Y-105915000D01*
X94650000Y-103850000D02*
X95150000Y-103350000D01*
X97737500Y-95400000D02*
X99637500Y-95400000D01*
X94200000Y-105900000D02*
X94650000Y-105450000D01*
X94650000Y-105450000D02*
X94650000Y-103850000D01*
%TO.N,Net-(D2-A)*%
X85650000Y-92900000D02*
X86250000Y-92300000D01*
X94085000Y-101400000D02*
X86350000Y-101400000D01*
X85650000Y-100700000D02*
X85650000Y-92900000D01*
X86350000Y-101400000D02*
X85650000Y-100700000D01*
X86250000Y-92300000D02*
X88100000Y-92300000D01*
%TO.N,/A23*%
X178200000Y-75850000D02*
X178650000Y-76300000D01*
X178650000Y-76300000D02*
X179850000Y-76300000D01*
X179850000Y-76300000D02*
X180100000Y-76550000D01*
X180100000Y-55450000D02*
X161700000Y-55450000D01*
X180100000Y-76550000D02*
X180100000Y-76850000D01*
X178200000Y-74597500D02*
X178200000Y-75850000D01*
%TO.N,/D15*%
X165150000Y-117490000D02*
X177250000Y-117490000D01*
X118700000Y-116575000D02*
X116175000Y-116575000D01*
X115900000Y-129650000D02*
X117325000Y-131075000D01*
X117325000Y-131075000D02*
X177950000Y-131075000D01*
X116175000Y-116575000D02*
X116150000Y-116550000D01*
X177950000Y-131075000D02*
X178425000Y-130600000D01*
X178425000Y-130600000D02*
X178450000Y-130600000D01*
%TO.N,/A3*%
X142530000Y-114030000D02*
X141950000Y-113450000D01*
X141950000Y-113450000D02*
X138875000Y-113450000D01*
X118540000Y-40060000D02*
X118540000Y-39120000D01*
X104550000Y-40750000D02*
X104900000Y-40400000D01*
X131910000Y-112410000D02*
X131925000Y-112425000D01*
X155697500Y-78750000D02*
X157375000Y-78750000D01*
X137725000Y-114600000D02*
X131925000Y-114600000D01*
X112465000Y-114035000D02*
X113050000Y-113450000D01*
X114725000Y-113450000D02*
X116050000Y-112125000D01*
X150698529Y-114675000D02*
X150673529Y-114650000D01*
X104550000Y-41700000D02*
X104550000Y-40750000D01*
X118200000Y-40400000D02*
X118540000Y-40060000D01*
X150176471Y-114650000D02*
X150151471Y-114675000D01*
X109100000Y-114035000D02*
X104765000Y-114035000D01*
X109100000Y-114035000D02*
X112465000Y-114035000D01*
X146750000Y-114030000D02*
X142530000Y-114030000D01*
X113050000Y-113450000D02*
X114725000Y-113450000D01*
X116050000Y-112125000D02*
X120750000Y-112125000D01*
X138875000Y-113450000D02*
X137725000Y-114600000D01*
X104900000Y-40400000D02*
X118200000Y-40400000D01*
X157375000Y-78750000D02*
X157400000Y-78775000D01*
X150673529Y-114650000D02*
X150176471Y-114650000D01*
X147395000Y-114675000D02*
X146750000Y-114030000D01*
X104765000Y-114035000D02*
X104750000Y-114050000D01*
X121035000Y-112410000D02*
X125510000Y-112410000D01*
X150698529Y-114675000D02*
X158750000Y-114675000D01*
X125510000Y-112410000D02*
X131910000Y-112410000D01*
X120750000Y-112125000D02*
X121035000Y-112410000D01*
X150151471Y-114675000D02*
X147395000Y-114675000D01*
%TO.N,/A4*%
X158368000Y-109600000D02*
X158638000Y-109870000D01*
X143256000Y-112750600D02*
X143265400Y-112760000D01*
X143265400Y-112760000D02*
X148891471Y-112760000D01*
X132914314Y-109870000D02*
X125510000Y-109870000D01*
X152051471Y-109600000D02*
X154250000Y-109600000D01*
X156850000Y-74300000D02*
X154450000Y-74300000D01*
X158638000Y-109870000D02*
X162260000Y-109870000D01*
X114225000Y-124750000D02*
X123025000Y-124750000D01*
X157210000Y-74660000D02*
X156850000Y-74300000D01*
X139184314Y-103600000D02*
X132914314Y-109870000D01*
X143256000Y-103600000D02*
X139184314Y-103600000D01*
X123025000Y-124750000D02*
X123050000Y-124725000D01*
X154250000Y-109600000D02*
X158368000Y-109600000D01*
X148891471Y-112760000D02*
X152051471Y-109600000D01*
X114225000Y-112765000D02*
X109100000Y-112765000D01*
%TO.N,/A6*%
X153400000Y-78250000D02*
X153000000Y-78650000D01*
X115400000Y-110250000D02*
X115375000Y-110225000D01*
X153400000Y-76550000D02*
X153400000Y-78250000D01*
X162260000Y-104185000D02*
X162260000Y-104790000D01*
X146750000Y-110220000D02*
X150003529Y-110220000D01*
X115375000Y-110225000D02*
X109100000Y-110225000D01*
X124590000Y-104790000D02*
X124075000Y-104275000D01*
X127625000Y-102800000D02*
X127125000Y-103300000D01*
X127125000Y-103300000D02*
X127125000Y-104425000D01*
X124075000Y-104275000D02*
X124075000Y-102075000D01*
X161500000Y-103425000D02*
X162260000Y-104185000D01*
X150003529Y-110220000D02*
X150425000Y-109798529D01*
X153740000Y-76210000D02*
X153400000Y-76550000D01*
X135550000Y-111475000D02*
X142950000Y-111475000D01*
X133925000Y-101550000D02*
X132450000Y-101550000D01*
X142950000Y-111475000D02*
X144205000Y-110220000D01*
X115425000Y-101100000D02*
X115400000Y-101125000D01*
X150425000Y-107665686D02*
X154665686Y-103425000D01*
X132450000Y-101550000D02*
X131200000Y-102800000D01*
X123100000Y-101100000D02*
X115425000Y-101100000D01*
X126760000Y-104790000D02*
X125510000Y-104790000D01*
X153000000Y-78650000D02*
X150750000Y-78650000D01*
X125510000Y-104790000D02*
X124590000Y-104790000D01*
X124075000Y-102075000D02*
X123100000Y-101100000D01*
X144205000Y-110220000D02*
X146750000Y-110220000D01*
X131200000Y-102800000D02*
X127625000Y-102800000D01*
X154665686Y-103425000D02*
X161500000Y-103425000D01*
X127125000Y-104425000D02*
X126760000Y-104790000D01*
X150425000Y-109798529D02*
X150425000Y-107665686D01*
X155697500Y-76210000D02*
X153740000Y-76210000D01*
%TO.N,/A7*%
X120600000Y-91525000D02*
X120575000Y-91550000D01*
X158480000Y-74697500D02*
X158480000Y-76980000D01*
X105955000Y-108955000D02*
X109100000Y-108955000D01*
X135925000Y-108950000D02*
X146750000Y-108950000D01*
X125510000Y-102250000D02*
X131000000Y-102250000D01*
X135050000Y-109825000D02*
X135925000Y-108950000D01*
X154500000Y-103025000D02*
X161485000Y-103025000D01*
X120575000Y-91550000D02*
X105950000Y-91550000D01*
X105950000Y-108950000D02*
X105955000Y-108955000D01*
X105950000Y-100525000D02*
X123375000Y-100525000D01*
X146750000Y-108950000D02*
X148575000Y-108950000D01*
X161485000Y-103025000D02*
X162260000Y-102250000D01*
X131000000Y-102250000D02*
X132325000Y-100925000D01*
X132325000Y-100925000D02*
X134525000Y-100925000D01*
X158900000Y-77400000D02*
X162050000Y-77400000D01*
X148575000Y-108950000D02*
X154500000Y-103025000D01*
X123375000Y-100525000D02*
X125100000Y-102250000D01*
X158480000Y-76980000D02*
X158900000Y-77400000D01*
%TO.N,/A2*%
X131575000Y-115375000D02*
X138000000Y-115375000D01*
X138000000Y-115375000D02*
X139375000Y-114000000D01*
X150375000Y-115300000D02*
X146750000Y-115300000D01*
X105375000Y-99925000D02*
X105350000Y-99900000D01*
X119425000Y-99925000D02*
X123550000Y-99925000D01*
X105430000Y-115305000D02*
X109100000Y-115305000D01*
X142850000Y-115300000D02*
X146750000Y-115300000D01*
X131150000Y-114950000D02*
X131575000Y-115375000D01*
X139375000Y-114000000D02*
X141550000Y-114000000D01*
X152530000Y-80020000D02*
X152500000Y-80050000D01*
X150425000Y-115250000D02*
X150375000Y-115300000D01*
X152500000Y-93675000D02*
X152550000Y-93625000D01*
X152550000Y-93625000D02*
X163750000Y-93625000D01*
X155697500Y-80020000D02*
X152530000Y-80020000D01*
X105350000Y-115225000D02*
X105430000Y-115305000D01*
X141550000Y-114000000D02*
X142850000Y-115300000D01*
X119425000Y-99925000D02*
X105375000Y-99925000D01*
X124425000Y-100800000D02*
X127625000Y-100800000D01*
X125510000Y-114950000D02*
X131150000Y-114950000D01*
X123550000Y-99925000D02*
X124425000Y-100800000D01*
%TO.N,/D14*%
X123875000Y-118475000D02*
X175695000Y-118475000D01*
X169380000Y-59600000D02*
X169340000Y-59560000D01*
X118700000Y-117845000D02*
X123245000Y-117845000D01*
X174900000Y-59600000D02*
X169380000Y-59600000D01*
X175695000Y-118475000D02*
X177250000Y-120030000D01*
X123245000Y-117845000D02*
X123875000Y-118475000D01*
%TO.N,/R_W*%
X102730000Y-74647500D02*
X102730000Y-76370000D01*
X102730000Y-76370000D02*
X102700000Y-76400000D01*
X144000000Y-58650000D02*
X170500000Y-58650000D01*
X108050000Y-48500000D02*
X109077400Y-47472600D01*
X154900000Y-98225000D02*
X139275000Y-98225000D01*
X102700000Y-49450000D02*
X107800000Y-49450000D01*
X108050000Y-49200000D02*
X108050000Y-48500000D01*
X120808000Y-103300000D02*
X121158000Y-103650000D01*
X139275000Y-98225000D02*
X131085000Y-106415000D01*
X102800000Y-103300000D02*
X120808000Y-103300000D01*
X121158000Y-106415000D02*
X118700000Y-106415000D01*
X122300000Y-49950000D02*
X144000000Y-49950000D01*
X107800000Y-49450000D02*
X108050000Y-49200000D01*
X120675000Y-106400000D02*
X120660000Y-106415000D01*
X120660000Y-106415000D02*
X121158000Y-106415000D01*
X170600000Y-58550000D02*
X170500000Y-58650000D01*
X120672600Y-47472600D02*
X121800000Y-48600000D01*
X102700000Y-103400000D02*
X102800000Y-103300000D01*
X121800000Y-49450000D02*
X122300000Y-49950000D01*
X109077400Y-47472600D02*
X120672600Y-47472600D01*
X121800000Y-48600000D02*
X121800000Y-49450000D01*
X131085000Y-106415000D02*
X120660000Y-106415000D01*
X154875000Y-106400000D02*
X156340000Y-106400000D01*
%TO.N,/D13*%
X117925000Y-130675000D02*
X175700000Y-130675000D01*
X175700000Y-130675000D02*
X178325000Y-128050000D01*
X178325000Y-123645000D02*
X177250000Y-122570000D01*
X176355000Y-122570000D02*
X177250000Y-122570000D01*
X116850000Y-119450000D02*
X117185000Y-119115000D01*
X116850000Y-119450000D02*
X115900000Y-119450000D01*
X118700000Y-119115000D02*
X117185000Y-119115000D01*
X174550000Y-124375000D02*
X176355000Y-122570000D01*
X178325000Y-128050000D02*
X178325000Y-123645000D01*
X115910000Y-128660000D02*
X117925000Y-130675000D01*
X169450000Y-124375000D02*
X174550000Y-124375000D01*
%TO.N,/~{LDS}*%
X121445000Y-85000000D02*
X141200000Y-85000000D01*
X145750000Y-68900000D02*
X173050000Y-68900000D01*
X141400000Y-84775000D02*
X141400000Y-82802500D01*
X141200000Y-85000000D02*
X141400000Y-84800000D01*
X119860000Y-83415000D02*
X121445000Y-85000000D01*
X141400000Y-84800000D02*
X141400000Y-84775000D01*
X145150000Y-84400000D02*
X144525000Y-85025000D01*
X141650000Y-85025000D02*
X141400000Y-84775000D01*
X144525000Y-85025000D02*
X141650000Y-85025000D01*
%TO.N,/D12*%
X127200000Y-121550000D02*
X121373529Y-121550000D01*
X165875000Y-126725000D02*
X166450000Y-126150000D01*
X166550000Y-53100000D02*
X174450000Y-53100000D01*
X166450000Y-126150000D02*
X176200000Y-126150000D01*
X121373529Y-121550000D02*
X120208529Y-120385000D01*
X127175000Y-128175000D02*
X127150000Y-128175000D01*
X127150000Y-128175000D02*
X128000000Y-129025000D01*
X128000000Y-129025000D02*
X144500000Y-129025000D01*
X146800000Y-126725000D02*
X165875000Y-126725000D01*
X176200000Y-126150000D02*
X177240000Y-125110000D01*
X144500000Y-129025000D02*
X146800000Y-126725000D01*
%TO.N,/~{UDS}*%
X118347500Y-83647500D02*
X118347500Y-81290000D01*
X136950000Y-74950000D02*
X136950000Y-75812500D01*
X127675000Y-85675000D02*
X120375000Y-85675000D01*
X136950000Y-75812500D02*
X137347500Y-76210000D01*
X120375000Y-85675000D02*
X118347500Y-83647500D01*
X127675000Y-74725000D02*
X127700000Y-74700000D01*
X133400000Y-57650000D02*
X178200000Y-57650000D01*
X136700000Y-74700000D02*
X136950000Y-74950000D01*
X133400000Y-74700000D02*
X136700000Y-74700000D01*
X127700000Y-74700000D02*
X133400000Y-74700000D01*
%TO.N,/D11*%
X174650000Y-130250000D02*
X177250000Y-127650000D01*
X121075000Y-130075000D02*
X121250000Y-130250000D01*
X120350000Y-122025000D02*
X120400000Y-122075000D01*
X120400000Y-122075000D02*
X121050000Y-122075000D01*
X119980000Y-121655000D02*
X120350000Y-122025000D01*
X121250000Y-130250000D02*
X174650000Y-130250000D01*
%TO.N,/~{AS}*%
X111600000Y-86625000D02*
X111600000Y-82800000D01*
X111600000Y-82800000D02*
X113500000Y-80900000D01*
X104500000Y-70550000D02*
X104000000Y-71050000D01*
X113500000Y-71150000D02*
X112900000Y-70550000D01*
X104000000Y-71050000D02*
X104000000Y-74647500D01*
X146250000Y-87975000D02*
X124700000Y-87975000D01*
X121975000Y-90700000D02*
X111575000Y-90700000D01*
X146700000Y-88425000D02*
X146250000Y-87975000D01*
X113530000Y-80020000D02*
X118347500Y-80020000D01*
X149160000Y-81290000D02*
X145452500Y-81290000D01*
X149200000Y-67950000D02*
X149250000Y-67900000D01*
X149150000Y-88425000D02*
X146700000Y-88425000D01*
X112900000Y-70550000D02*
X104500000Y-70550000D01*
X113500000Y-80900000D02*
X113500000Y-71150000D01*
X149200000Y-81250000D02*
X149160000Y-81290000D01*
X149250000Y-67900000D02*
X180700000Y-67900000D01*
X124700000Y-87975000D02*
X121975000Y-90700000D01*
X180700000Y-67900000D02*
X180750000Y-67850000D01*
%TO.N,/D3*%
X189660000Y-44200000D02*
X189660000Y-46690000D01*
X188950000Y-47400000D02*
X189660000Y-46690000D01*
X140700000Y-127650000D02*
X143025000Y-125325000D01*
X176550000Y-121650000D02*
X183100000Y-121650000D01*
X155175000Y-121650000D02*
X156350000Y-121650000D01*
X157675000Y-121650000D02*
X159600000Y-123575000D01*
X143025000Y-125325000D02*
X151500000Y-125325000D01*
X159600000Y-123575000D02*
X174625000Y-123575000D01*
X174625000Y-123575000D02*
X176550000Y-121650000D01*
X151500000Y-125325000D02*
X155175000Y-121650000D01*
X188950000Y-47400000D02*
X183400000Y-47400000D01*
%TO.N,/D10*%
X113951471Y-124050000D02*
X113926471Y-124075000D01*
X110785000Y-122785000D02*
X110785000Y-120385000D01*
X161040000Y-125110000D02*
X162260000Y-125110000D01*
X130450000Y-124600000D02*
X129925000Y-124075000D01*
X114473529Y-124075000D02*
X114448529Y-124050000D01*
X130450000Y-124600000D02*
X134475000Y-128625000D01*
X143900000Y-125850000D02*
X160300000Y-125850000D01*
X112075000Y-124075000D02*
X110785000Y-122785000D01*
X134475000Y-128625000D02*
X141125000Y-128625000D01*
X110785000Y-120385000D02*
X109100000Y-120385000D01*
X183400000Y-46200000D02*
X183350000Y-46250000D01*
X113926471Y-124075000D02*
X112075000Y-124075000D01*
X183350000Y-46250000D02*
X147400000Y-46250000D01*
X129925000Y-124075000D02*
X114473529Y-124075000D01*
X160300000Y-125850000D02*
X161040000Y-125110000D01*
X131700000Y-54050000D02*
X147250000Y-54050000D01*
X141125000Y-128625000D02*
X143900000Y-125850000D01*
X114448529Y-124050000D02*
X113951471Y-124050000D01*
X147400000Y-46250000D02*
X147250000Y-46400000D01*
%TO.N,/D8*%
X123075000Y-118475000D02*
X112950000Y-118475000D01*
X160700000Y-119750000D02*
X160980000Y-120030000D01*
X136375000Y-119375000D02*
X130450000Y-119375000D01*
X160980000Y-120030000D02*
X162260000Y-120030000D01*
X139300000Y-119375000D02*
X139675000Y-119000000D01*
X137250000Y-46200000D02*
X137600000Y-45850000D01*
X138150000Y-41250000D02*
X186400000Y-41250000D01*
X137600000Y-41800000D02*
X138150000Y-41250000D01*
X136375000Y-119375000D02*
X139300000Y-119375000D01*
X130450000Y-119375000D02*
X130100000Y-119025000D01*
X136750000Y-46200000D02*
X137250000Y-46200000D01*
X139675000Y-119000000D02*
X142100000Y-119000000D01*
X112320000Y-117845000D02*
X109100000Y-117845000D01*
X130100000Y-119025000D02*
X123625000Y-119025000D01*
X137600000Y-45850000D02*
X137600000Y-41800000D01*
X142850000Y-119750000D02*
X160700000Y-119750000D01*
X123625000Y-119025000D02*
X123075000Y-118475000D01*
X186400000Y-41250000D02*
X187120000Y-40530000D01*
X187120000Y-40530000D02*
X187120000Y-39120000D01*
X112950000Y-118475000D02*
X112320000Y-117845000D01*
X142100000Y-119000000D02*
X142850000Y-119750000D01*
%TO.N,/D0*%
X126452500Y-77480000D02*
X131270000Y-77480000D01*
X146900000Y-87325000D02*
X146675000Y-87100000D01*
X131270000Y-77480000D02*
X131300000Y-77450000D01*
X141850000Y-86725000D02*
X131300000Y-86725000D01*
X148700000Y-123825000D02*
X148675000Y-123800000D01*
X146675000Y-87100000D02*
X142225000Y-87100000D01*
X163232106Y-87325000D02*
X146900000Y-87325000D01*
X148675000Y-117850000D02*
X146760000Y-117850000D01*
X142225000Y-87100000D02*
X141850000Y-86725000D01*
X129675000Y-120025000D02*
X129670000Y-120030000D01*
X182050000Y-86350000D02*
X164207106Y-86350000D01*
X148675000Y-123800000D02*
X133450000Y-123800000D01*
X133450000Y-123800000D02*
X129675000Y-120025000D01*
X164207106Y-86350000D02*
X163232106Y-87325000D01*
X129670000Y-120030000D02*
X125510000Y-120030000D01*
%TO.N,/D4*%
X192200000Y-44200000D02*
X192200000Y-58450000D01*
X191600000Y-59050000D02*
X178300000Y-59050000D01*
X160635686Y-120380000D02*
X161255686Y-121000000D01*
X156350000Y-120380000D02*
X160635686Y-120380000D01*
X154745000Y-120380000D02*
X156350000Y-120380000D01*
X140500000Y-125110000D02*
X141185000Y-124425000D01*
X150700000Y-124425000D02*
X154745000Y-120380000D01*
X192200000Y-58450000D02*
X191600000Y-59050000D01*
X141185000Y-124425000D02*
X150700000Y-124425000D01*
X161255686Y-121000000D02*
X180275000Y-121000000D01*
%TO.N,/D9*%
X111900000Y-122850000D02*
X111900000Y-119450000D01*
X142675000Y-124900000D02*
X151125000Y-124900000D01*
X130526471Y-123525000D02*
X133326471Y-126325000D01*
X141250000Y-126325000D02*
X142675000Y-124900000D01*
X155025000Y-121000000D02*
X160690000Y-121000000D01*
X133326471Y-126325000D02*
X141250000Y-126325000D01*
X151125000Y-124900000D02*
X155025000Y-121000000D01*
X128950000Y-123475000D02*
X129000000Y-123525000D01*
X129000000Y-123525000D02*
X130526471Y-123525000D01*
X128950000Y-123475000D02*
X128875000Y-123550000D01*
X160690000Y-121000000D02*
X162260000Y-122570000D01*
X111565000Y-119115000D02*
X109100000Y-119115000D01*
X128875000Y-123550000D02*
X112600000Y-123550000D01*
X112600000Y-123550000D02*
X111900000Y-122850000D01*
X185850000Y-56450000D02*
X128950000Y-56450000D01*
X111900000Y-119450000D02*
X111565000Y-119115000D01*
%TO.N,/D2*%
X184250000Y-95350000D02*
X184025000Y-95125000D01*
X184025000Y-95125000D02*
X179350000Y-95125000D01*
X169400000Y-125500000D02*
X165875000Y-125500000D01*
X169600000Y-125300000D02*
X169400000Y-125500000D01*
X144950000Y-126250000D02*
X144700000Y-126500000D01*
X179350000Y-95125000D02*
X177700000Y-93475000D01*
X144780000Y-120380000D02*
X146750000Y-120380000D01*
X132475000Y-127675000D02*
X129910000Y-125110000D01*
X177700000Y-93475000D02*
X171450000Y-93475000D01*
X165875000Y-125500000D02*
X165125000Y-126250000D01*
X144750000Y-120350000D02*
X144780000Y-120380000D01*
X186975000Y-95350000D02*
X184250000Y-95350000D01*
X165125000Y-126250000D02*
X144950000Y-126250000D01*
X129910000Y-125110000D02*
X125510000Y-125110000D01*
X187000000Y-95375000D02*
X186975000Y-95350000D01*
%TO.N,/D7*%
X193100000Y-59700000D02*
X193500000Y-59300000D01*
X192250000Y-115000000D02*
X195050000Y-112200000D01*
X144384000Y-117490000D02*
X144674000Y-117200000D01*
X160200000Y-115900000D02*
X185150000Y-115900000D01*
X194600000Y-67900000D02*
X186100000Y-67900000D01*
X189660000Y-41110000D02*
X189660000Y-39120000D01*
X185650000Y-67450000D02*
X185650000Y-60250000D01*
X186100000Y-67900000D02*
X185650000Y-67450000D01*
X185150000Y-115900000D02*
X186050000Y-115000000D01*
X185650000Y-60250000D02*
X186200000Y-59700000D01*
X159530000Y-116570000D02*
X160200000Y-115900000D01*
X152980000Y-116570000D02*
X159530000Y-116570000D01*
X193095000Y-41350000D02*
X189900000Y-41350000D01*
X152350000Y-117200000D02*
X152980000Y-116570000D01*
X186200000Y-59700000D02*
X193100000Y-59700000D01*
X140500000Y-117490000D02*
X144384000Y-117490000D01*
X189900000Y-41350000D02*
X189660000Y-41110000D01*
X193500000Y-41755000D02*
X193095000Y-41350000D01*
X186050000Y-115000000D02*
X192250000Y-115000000D01*
X195050000Y-112200000D02*
X195050000Y-68350000D01*
X195050000Y-68350000D02*
X194600000Y-67900000D01*
X193500000Y-59300000D02*
X193500000Y-41755000D01*
X144674000Y-117200000D02*
X152350000Y-117200000D01*
%TO.N,/D6*%
X181900000Y-117750000D02*
X185150000Y-117750000D01*
X159185000Y-117840000D02*
X160475000Y-116550000D01*
X150675000Y-121050000D02*
X151225000Y-120500000D01*
X160475000Y-116550000D02*
X180700000Y-116550000D01*
X151225000Y-117875000D02*
X151550000Y-117875000D01*
X185950000Y-57750000D02*
X189800000Y-57750000D01*
X156350000Y-117840000D02*
X159185000Y-117840000D01*
X185900000Y-57800000D02*
X185950000Y-57750000D01*
X151550000Y-117875000D02*
X151585000Y-117840000D01*
X141520000Y-121050000D02*
X150675000Y-121050000D01*
X151585000Y-117840000D02*
X156350000Y-117840000D01*
X140500000Y-120030000D02*
X141520000Y-121050000D01*
X180700000Y-116550000D02*
X181900000Y-117750000D01*
%TO.N,/D1*%
X147200000Y-93675000D02*
X149125000Y-95600000D01*
X133950000Y-125675000D02*
X130845000Y-122570000D01*
X133962500Y-125675000D02*
X133950000Y-125675000D01*
X130845000Y-122570000D02*
X125510000Y-122570000D01*
X146750000Y-119110000D02*
X143735000Y-119110000D01*
X133390000Y-76210000D02*
X133400000Y-76200000D01*
X134075000Y-93675000D02*
X147200000Y-93675000D01*
X183900000Y-95600000D02*
X184550000Y-96250000D01*
X126452500Y-76210000D02*
X133390000Y-76210000D01*
X134050000Y-93700000D02*
X134075000Y-93675000D01*
X143735000Y-119110000D02*
X143725000Y-119100000D01*
X149125000Y-95600000D02*
X183900000Y-95600000D01*
%TO.N,/D5*%
X186500000Y-66500000D02*
X186500000Y-61200000D01*
X182650000Y-129925000D02*
X184125000Y-128450000D01*
X194850000Y-67050000D02*
X187050000Y-67050000D01*
X149625000Y-123225000D02*
X152275000Y-120575000D01*
X187200000Y-60500000D02*
X195550000Y-60500000D01*
X152350000Y-119075000D02*
X152385000Y-119110000D01*
X140500000Y-122570000D02*
X141155000Y-123225000D01*
X189725000Y-118550000D02*
X195550000Y-112725000D01*
X195550000Y-60500000D02*
X196450000Y-59600000D01*
X141155000Y-123225000D02*
X149625000Y-123225000D01*
X174840000Y-119110000D02*
X174850000Y-119100000D01*
X185900000Y-118550000D02*
X189725000Y-118550000D01*
X152385000Y-119110000D02*
X156350000Y-119110000D01*
X194740000Y-40840000D02*
X194740000Y-39120000D01*
X184125000Y-120325000D02*
X185900000Y-118550000D01*
X184125000Y-128450000D02*
X184125000Y-120325000D01*
X156350000Y-119110000D02*
X174840000Y-119110000D01*
X196450000Y-41850000D02*
X196000000Y-41400000D01*
X177775000Y-129925000D02*
X182650000Y-129925000D01*
X196000000Y-41400000D02*
X195300000Y-41400000D01*
X195550000Y-112725000D02*
X195550000Y-67750000D01*
X187050000Y-67050000D02*
X186500000Y-66500000D01*
X196450000Y-59600000D02*
X196450000Y-41850000D01*
X186500000Y-61200000D02*
X187200000Y-60500000D01*
X195300000Y-41400000D02*
X194740000Y-40840000D01*
X195550000Y-67750000D02*
X194850000Y-67050000D01*
%TD*%
M02*
