M48
; DRILL file {KiCad 8.0.3} date 2024-08-26T22:05:46+0200
; FORMAT={-:-/ absolute / inch / decimal}
; #@! TF.CreationDate,2024-08-26T22:05:46+02:00
; #@! TF.GenerationSoftware,Kicad,Pcbnew,8.0.3
; #@! TF.FileFunction,Plated,1,2,PTH
FMAT,2
INCH
; #@! TA.AperFunction,Plated,PTH,ViaDrill
T1C0.0118
; #@! TA.AperFunction,Plated,PTH,ComponentDrill
T2C0.0299
; #@! TA.AperFunction,Plated,PTH,ComponentDrill
T3C0.0315
; #@! TA.AperFunction,Plated,PTH,ComponentDrill
T4C0.0354
; #@! TA.AperFunction,Plated,PTH,ComponentDrill
T5C0.0429
%
G90
G05
T1
X3.4409Y-4.4606
X3.4429Y-4.1201
X3.5Y-2.6378
X3.5197Y-3.5276
X3.5217Y-4.2185
X3.5669Y-3.8622
X3.6772Y-4.1693
X3.7008Y-4.2441
X3.7165Y-1.9154
X3.7795Y-2.1634
X3.7835Y-3.4921
X3.7835Y-4.4567
X3.8209Y-2.3701
X3.8209Y-3.1496
X3.8535Y-2.9244
X3.8563Y-2.2205
X3.8976Y-1.9961
X3.8976Y-2.6378
X3.9941Y-2.0472
X3.9941Y-2.6811
X3.9941Y-2.8228
X4.0039Y-4.1181
X4.0039Y-4.3189
X4.0059Y-3.0492
X4.0059Y-3.6378
X4.0059Y-3.6831
X4.0433Y-1.9469
X4.0433Y-3.0079
X4.0433Y-4.0709
X4.0709Y-2.498
X4.0709Y-3.1772
X4.1161Y-1.6417
X4.124Y-4.4902
X4.1476Y-3.9331
X4.1476Y-4.5364
X4.1555Y-1.8661
X4.1555Y-3.0394
X4.1693Y-3.0984
X4.1693Y-3.5413
X4.1713Y-3.6043
X4.1713Y-3.9577
X4.1713Y-4.2894
X4.1949Y-1.813
X4.1949Y-2.8524
X4.2382Y-2.2205
X4.2382Y-2.813
X4.2795Y-2.437
X4.2795Y-3.2736
X4.2953Y-1.9272
X4.2953Y-2.3701
X4.311Y-2.5748
X4.311Y-3.3543
X4.3484Y-2.6831
X4.3484Y-3.0492
X4.372Y-3.0984
X4.372Y-3.9006
X4.372Y-4.2396
X4.3927Y-3.5709
X4.3937Y-1.9626
X4.3937Y-3.4104
X4.4055Y-3.8248
X4.4055Y-4.189
X4.4291Y-2.3996
X4.4291Y-3.1476
X4.437Y-4.5512
X4.4587Y-2.5354
X4.4724Y-4.3898
X4.497Y-4.4396
X4.497Y-4.9114
X4.5207Y-4.4898
X4.5394Y-2.0256
X4.5394Y-2.3996
X4.5433Y-3.9813
X4.5433Y-4.3406
X4.563Y-4.7028
X4.563Y-5.1043
X4.5634Y-5.0654
X4.567Y-5.1417
X4.5728Y-4.5886
X4.5768Y-3.44
X4.5787Y-3.1004
X4.5787Y-4.4396
X4.6083Y-2.4606
X4.6093Y-3.9006
X4.6102Y-4.5132
X4.6142Y-1.9272
X4.6142Y-2.0315
X4.6171Y-4.2894
X4.6378Y-2.2205
X4.6398Y-2.8543
X4.6732Y-3.4882
X4.6791Y-2.4114
X4.6831Y-4.0965
X4.7018Y-3.9341
X4.7185Y-2.4606
X4.7254Y-3.7697
X4.7283Y-2.6122
X4.7283Y-3.0098
X4.7283Y-3.0571
X4.7283Y-3.1043
X4.748Y-3.6033
X4.75Y-4.0807
X4.75Y-4.19
X4.7657Y-4.8061
X4.7667Y-5.1211
X4.7913Y-3.2008
X4.7924Y-3.4331
X4.8051Y-3.1358
X4.8445Y-4.9104
X4.9626Y-3.2392
X4.9961Y-4.3632
X5.0059Y-2.5354
X5.0069Y-5.0463
X5.0079Y-2.8858
X5.0079Y-4.7854
X5.0246Y-3.9685
X5.0266Y-2.9419
X5.0266Y-3.373
X5.0354Y-2.6398
X5.0531Y-3.2264
X5.0531Y-3.5896
X5.0768Y-2.2224
X5.0768Y-4.8612
X5.1053Y-4.7254
X5.1181Y-1.9331
X5.1181Y-3.1496
X5.1191Y-3.4872
X5.1339Y-3.1004
X5.1358Y-4.9055
X5.1476Y-2.5433
X5.1693Y-3.0492
X5.1693Y-3.4144
X5.185Y-2.128
X5.1939Y-4.4262
X5.1939Y-4.5118
X5.2156Y-5.0266
X5.2165Y-4.3888
X5.248Y-3.1516
X5.248Y-3.3888
X5.252Y-2.2697
X5.252Y-2.9409
X5.252Y-3.0
X5.2726Y-3.998
X5.2741Y-4.9478
X5.2776Y-3.689
X5.2874Y-2.4528
X5.2894Y-2.5748
X5.2894Y-3.0591
X5.2963Y-3.9734
X5.3169Y-4.3238
X5.3209Y-3.7254
X5.3366Y-4.3888
X5.3445Y-3.8258
X5.3691Y-4.6998
X5.3839Y-1.8189
X5.3996Y-3.7717
X5.4006Y-3.252
X5.4006Y-3.3868
X5.4016Y-2.3563
X5.4252Y-2.813
X5.4252Y-2.9094
X5.4311Y-3.2825
X5.435Y-2.6811
X5.4764Y-3.1998
X5.5157Y-1.8937
X5.5276Y-2.6122
X5.5276Y-3.0217
X5.6063Y-1.9331
X5.6181Y-1.8563
X5.6398Y-2.4528
X5.6545Y-4.0787
X5.6555Y-4.439
X5.6565Y-3.3868
X5.6575Y-3.1811
X5.6585Y-4.689
X5.6594Y-3.1004
X5.6614Y-3.0354
X5.6693Y-1.9665
X5.6693Y-2.3091
X5.687Y-3.7904
X5.687Y-4.2392
X5.6969Y-4.9803
X5.6988Y-4.7382
X5.7047Y-2.4114
X5.7106Y-3.8907
X5.7126Y-4.3888
X5.7136Y-3.3593
X5.7146Y-1.8543
X5.7146Y-2.0374
X5.7146Y-3.3228
X5.7382Y-2.7126
X5.7657Y-2.5709
X5.7726Y-3.5906
X5.7736Y-3.2736
X5.7756Y-2.7795
X5.7756Y-2.9567
X5.7776Y-4.8268
X5.7776Y-5.0266
X5.7972Y-1.8268
X5.7972Y-2.128
X5.8159Y-3.3957
X5.8189Y-3.2303
X5.8209Y-2.6752
X5.8209Y-3.1504
X5.8366Y-1.9331
X5.8366Y-2.498
X5.8425Y-3.7972
X5.8425Y-4.189
X5.8533Y-4.6398
X5.8543Y-4.875
X5.8661Y-4.3394
X5.872Y-3.4813
X5.874Y-2.6752
X5.874Y-3.1988
X5.8976Y-4.314
X5.8976Y-4.4429
X5.9094Y-2.813
X5.9094Y-3.3425
X5.9222Y-4.5374
X5.935Y-3.0965
X5.9537Y-4.6407
X5.9537Y-4.7441
X5.9577Y-4.3898
X5.9587Y-4.0906
X5.9951Y-4.061
X5.9951Y-4.3396
X5.9951Y-4.747
X5.998Y-4.688
X6.0039Y-3.0512
X6.0039Y-3.1516
X6.0039Y-3.688
X6.0059Y-2.75
X6.0157Y-2.4941
X6.0197Y-4.0335
X6.0197Y-4.2894
X6.0433Y-2.5433
X6.0433Y-3.4094
X6.0689Y-1.9311
X6.0728Y-4.315
X6.0807Y-2.9252
X6.0856Y-4.5404
X6.0974Y-4.189
X6.0984Y-3.8671
X6.1181Y-2.6063
X6.1299Y-3.4094
X6.1535Y-2.7795
X6.1555Y-3.5276
X6.1555Y-4.0994
X6.1673Y-2.0354
X6.1969Y-3.1014
X6.2146Y-2.5354
X6.2185Y-4.5148
X6.2215Y-3.0522
X6.25Y-2.0571
X6.25Y-3.1417
X6.25Y-3.4075
X6.2677Y-1.8543
X6.2894Y-2.6398
X6.2894Y-3.1752
X6.3189Y-2.1417
X6.3248Y-3.0118
X6.3661Y-2.1831
X6.3799Y-3.0472
X6.4469Y-3.2913
X6.4469Y-3.686
X6.4508Y-2.4114
X6.4508Y-2.9409
X6.4705Y-4.4882
X6.4902Y-2.3563
X6.502Y-4.6256
X6.503Y-3.249
X6.5295Y-2.7972
X6.5295Y-3.1004
X6.5531Y-4.9665
X6.5571Y-2.0906
X6.5817Y-3.7234
X6.5886Y-2.4528
X6.5886Y-3.0965
X6.624Y-2.1417
X6.624Y-2.9252
X6.624Y-3.0
X6.624Y-3.3701
X6.6535Y-2.7815
X6.6535Y-3.0512
X6.6669Y-2.3449
X6.6713Y-4.8967
X6.6772Y-4.9331
X6.6831Y-2.5354
X6.6831Y-2.9961
X6.6949Y-3.4813
X6.6969Y-4.5276
X6.7165Y-2.3051
X6.7215Y-4.2224
X6.7244Y-2.4961
X6.7244Y-3.0472
X6.75Y-3.6801
X6.813Y-2.7126
X6.815Y-3.248
X6.8287Y-3.4252
X6.8307Y-3.3327
X6.8681Y-2.0906
X6.8839Y-4.689
X6.8858Y-2.3465
X6.938Y-3.186
X6.9665Y-3.0236
X6.9685Y-1.8563
X6.9843Y-3.187
X6.999Y-5.1152
X7.0157Y-2.2697
X7.0197Y-2.3248
X7.0217Y-3.7874
X7.0256Y-5.1417
X7.0315Y-3.1535
X7.0453Y-4.4035
X7.0482Y-3.5699
X7.0571Y-5.1506
X7.0669Y-2.0571
X7.0719Y-3.4902
X7.0778Y-3.8071
X7.0906Y-2.1831
X7.0906Y-3.0256
X7.0974Y-4.7638
X7.1063Y-3.0984
X7.1161Y-2.6713
X7.1417Y-3.6555
X7.1417Y-4.0236
X7.1673Y-3.3996
X7.2087Y-4.7894
X7.2205Y-1.8189
X7.2205Y-1.8661
X7.2657Y-3.7894
X7.2894Y-4.6358
X7.313Y-3.6496
X7.313Y-3.9016
X7.3169Y-2.2224
X7.3189Y-2.2756
X7.3484Y-4.3307
X7.3622Y-3.7549
X7.4232Y-4.2106
X7.4724Y-2.2736
X7.5138Y-3.3445
X7.5138Y-4.4921
T2
X4.9413Y-3.5256
X4.9413Y-3.6256
X4.9413Y-3.7256
X4.9413Y-3.8256
X4.9413Y-3.9256
X4.9413Y-4.0256
X4.9413Y-4.1256
X4.9413Y-4.2256
X4.9413Y-4.3256
X4.9413Y-4.4256
X4.9413Y-4.5256
X4.9413Y-4.6256
X4.9413Y-4.7256
X4.9413Y-4.8256
X4.9413Y-4.9256
X4.9413Y-5.0256
X5.5315Y-3.5256
X5.5315Y-3.6256
X5.5315Y-3.7256
X5.5315Y-3.8256
X5.5315Y-3.9256
X5.5315Y-4.0256
X5.5315Y-4.1256
X5.5315Y-4.2256
X5.5315Y-4.3256
X5.5315Y-4.4256
X5.5315Y-4.5256
X5.5315Y-4.6256
X5.5315Y-4.7256
X5.5315Y-4.8256
X5.5315Y-4.9256
X5.5315Y-5.0256
X6.3882Y-3.5256
X6.3882Y-3.6256
X6.3882Y-3.7256
X6.3882Y-3.8256
X6.3882Y-3.9256
X6.3882Y-4.0256
X6.3882Y-4.1256
X6.3882Y-4.2256
X6.3882Y-4.3256
X6.3882Y-4.4256
X6.3882Y-4.5256
X6.3882Y-4.6256
X6.3882Y-4.7256
X6.3882Y-4.8256
X6.3882Y-4.9256
X6.3882Y-5.0256
X6.9783Y-3.5256
X6.9783Y-3.6256
X6.9783Y-3.7256
X6.9783Y-3.8256
X6.9783Y-3.9256
X6.9783Y-4.0256
X6.9783Y-4.1256
X6.9783Y-4.2256
X6.9783Y-4.3256
X6.9783Y-4.4256
X6.9783Y-4.5256
X6.9783Y-4.6256
X6.9783Y-4.7256
X6.9783Y-4.8256
X6.9783Y-4.9256
X6.9783Y-5.0256
X7.3232Y-4.8063
X7.4232Y-4.6063
X7.5232Y-4.8063
T3
X3.4429Y-3.4508
X3.5Y-2.7244
X3.5Y-2.8244
X3.5Y-2.9244
X3.5413Y-3.4508
X3.6457Y-2.7244
X3.6457Y-2.8244
X3.6457Y-2.9244
X3.7008Y-4.9978
X3.7008Y-5.0963
X7.4213Y-3.9035
X7.4213Y-4.0035
X7.4213Y-4.1035
T4
X3.6094Y-4.5424
X3.6094Y-4.7393
X3.7185Y-3.9065
X3.7185Y-4.0065
X3.8062Y-4.5424
X3.8062Y-4.7393
X7.435Y-3.5496
X7.435Y-3.6496
T5
X3.4669Y-1.5402
X3.4669Y-1.7402
X3.5669Y-1.5402
X3.5669Y-1.7402
X3.6669Y-1.5402
X3.6669Y-1.7402
X3.7669Y-1.5402
X3.7669Y-1.7402
X3.8669Y-1.5402
X3.8669Y-1.7402
X3.9669Y-1.5402
X3.9669Y-1.7402
X4.0669Y-1.5402
X4.0669Y-1.7402
X4.1669Y-1.5402
X4.1669Y-1.7402
X4.2669Y-1.5402
X4.2669Y-1.7402
X4.3669Y-1.5402
X4.3669Y-1.7402
X4.4669Y-1.5402
X4.4669Y-1.7402
X4.5669Y-1.5402
X4.5669Y-1.7402
X4.6669Y-1.5402
X4.6669Y-1.7402
X4.7669Y-1.5402
X4.7669Y-1.7402
X4.8669Y-1.5402
X4.8669Y-1.7402
X4.9669Y-1.5402
X4.9669Y-1.7402
X5.0669Y-1.5402
X5.0669Y-1.7402
X5.1669Y-1.5402
X5.1669Y-1.7402
X5.2669Y-1.5402
X5.2669Y-1.7402
X5.3669Y-1.5402
X5.3669Y-1.7402
X5.4669Y-1.5402
X5.4669Y-1.7402
X5.5669Y-1.5402
X5.5669Y-1.7402
X5.6669Y-1.5402
X5.6669Y-1.7402
X5.7669Y-1.5402
X5.7669Y-1.7402
X5.8669Y-1.5402
X5.8669Y-1.7402
X5.9669Y-1.5402
X5.9669Y-1.7402
X6.0669Y-1.5402
X6.0669Y-1.7402
X6.1669Y-1.5402
X6.1669Y-1.7402
X6.2669Y-1.5402
X6.2669Y-1.7402
X6.3669Y-1.5402
X6.3669Y-1.7402
X6.4669Y-1.5402
X6.4669Y-1.7402
X6.5669Y-1.5402
X6.5669Y-1.7402
X6.6669Y-1.5402
X6.6669Y-1.7402
X6.7669Y-1.5402
X6.7669Y-1.7402
X6.8669Y-1.5402
X6.8669Y-1.7402
X6.9669Y-1.5402
X6.9669Y-1.7402
X7.0669Y-1.5402
X7.0669Y-1.7402
X7.1669Y-1.5402
X7.1669Y-1.7402
X7.2669Y-1.5402
X7.2669Y-1.7402
X7.3669Y-1.5402
X7.3669Y-1.7402
X7.4669Y-1.5402
X7.4669Y-1.7402
X7.5669Y-1.5402
X7.5669Y-1.7402
X7.6669Y-1.5402
X7.6669Y-1.7402
M30
