%TF.GenerationSoftware,KiCad,Pcbnew,8.0.3*%
%TF.CreationDate,2024-09-16T15:18:28+02:00*%
%TF.ProjectId,ARIII_EPROM,41524949-495f-4455-9052-4f4d2e6b6963,rev?*%
%TF.SameCoordinates,Original*%
%TF.FileFunction,Copper,L2,Bot*%
%TF.FilePolarity,Positive*%
%FSLAX46Y46*%
G04 Gerber Fmt 4.6, Leading zero omitted, Abs format (unit mm)*
G04 Created by KiCad (PCBNEW 8.0.3) date 2024-09-16 15:18:28*
%MOMM*%
%LPD*%
G01*
G04 APERTURE LIST*
%TA.AperFunction,ComponentPad*%
%ADD10C,1.303000*%
%TD*%
%TA.AperFunction,ComponentPad*%
%ADD11R,1.500000X1.500000*%
%TD*%
%TA.AperFunction,ComponentPad*%
%ADD12C,1.600000*%
%TD*%
%TA.AperFunction,ComponentPad*%
%ADD13C,1.500000*%
%TD*%
%TA.AperFunction,ComponentPad*%
%ADD14R,1.600000X1.600000*%
%TD*%
%TA.AperFunction,ComponentPad*%
%ADD15R,1.800000X1.800000*%
%TD*%
%TA.AperFunction,ComponentPad*%
%ADD16C,1.800000*%
%TD*%
%TA.AperFunction,ComponentPad*%
%ADD17C,1.635000*%
%TD*%
%TA.AperFunction,ComponentPad*%
%ADD18R,1.160000X1.160000*%
%TD*%
%TA.AperFunction,ComponentPad*%
%ADD19O,1.160000X1.160000*%
%TD*%
%TA.AperFunction,ViaPad*%
%ADD20C,0.600000*%
%TD*%
%TA.AperFunction,Conductor*%
%ADD21C,0.200000*%
%TD*%
%TA.AperFunction,Conductor*%
%ADD22C,0.400000*%
%TD*%
G04 APERTURE END LIST*
D10*
%TO.P,VR1,1,CCW*%
%TO.N,+5V*%
X191090000Y-122080000D03*
%TO.P,VR1,2,WIPER*%
X188550000Y-117000000D03*
%TO.P,VR1,3,CW*%
%TO.N,Net-(U11-DIS)*%
X186010000Y-122080000D03*
%TD*%
D11*
%TO.P,SW2,1,B*%
%TO.N,Net-(D1-K)*%
X188500000Y-101690000D03*
D12*
%TO.P,SW2,2,C*%
%TO.N,GND*%
X188500000Y-104230000D03*
%TO.P,SW2,3,A*%
%TO.N,Net-(D1-K)*%
X188500000Y-99150000D03*
%TD*%
D11*
%TO.P,Q2,1,D*%
%TO.N,/A22*%
X88900000Y-69200000D03*
D13*
%TO.P,Q2,2,G*%
%TO.N,Net-(Q1-G)*%
X88900000Y-71740000D03*
%TO.P,Q2,3,S*%
%TO.N,+5V*%
X88900000Y-74280000D03*
%TD*%
D14*
%TO.P,C1,1*%
%TO.N,Net-(U11-DIS)*%
X94000000Y-126944888D03*
D12*
%TO.P,C1,2*%
%TO.N,GND*%
X94000000Y-129444888D03*
%TD*%
D15*
%TO.P,D2,1,K*%
%TO.N,GND*%
X94450000Y-99225000D03*
D16*
%TO.P,D2,2,A*%
%TO.N,Net-(D2-A)*%
X94450000Y-101765000D03*
%TD*%
D11*
%TO.P,Q1,1,D*%
%TO.N,/A22*%
X92600000Y-69200000D03*
D13*
%TO.P,Q1,2,G*%
%TO.N,Net-(Q1-G)*%
X92600000Y-71740000D03*
%TO.P,Q1,3,S*%
%TO.N,+5V*%
X92600000Y-74280000D03*
%TD*%
D15*
%TO.P,SW1,1,1*%
%TO.N,Net-(U3-I6)*%
X91677500Y-115377500D03*
D16*
%TO.P,SW1,2,2*%
%TO.N,GND*%
X96677500Y-115377500D03*
%TO.P,SW1,3,3*%
%TO.N,Net-(U3-I6)*%
X91677500Y-120377500D03*
%TO.P,SW1,4,4*%
%TO.N,GND*%
X96677500Y-120377500D03*
%TD*%
D17*
%TO.P,CN1,1,1*%
%TO.N,GND*%
X88060000Y-39120000D03*
%TO.P,CN1,2,2*%
X88060000Y-44200000D03*
%TO.P,CN1,3,3*%
X90600000Y-39120000D03*
%TO.P,CN1,4,4*%
X90600000Y-44200000D03*
%TO.P,CN1,5,5*%
%TO.N,+5V*%
X93140000Y-39120000D03*
%TO.P,CN1,6,6*%
%TO.N,unconnected-(CN1-Pad6)*%
X93140000Y-44200000D03*
%TO.P,CN1,7,7*%
%TO.N,unconnected-(CN1-Pad7)*%
X95680000Y-39120000D03*
%TO.P,CN1,8,8*%
%TO.N,unconnected-(CN1-Pad8)*%
X95680000Y-44200000D03*
%TO.P,CN1,9,9*%
%TO.N,unconnected-(CN1-Pad9)*%
X98220000Y-39120000D03*
%TO.P,CN1,10,10*%
%TO.N,unconnected-(CN1-Pad10)*%
X98220000Y-44200000D03*
%TO.P,CN1,11,11*%
%TO.N,unconnected-(CN1-Pad11)*%
X100760000Y-39120000D03*
%TO.P,CN1,12,12*%
%TO.N,unconnected-(CN1-Pad12)*%
X100760000Y-44200000D03*
%TO.P,CN1,13,13*%
%TO.N,unconnected-(CN1-Pad13)*%
X103300000Y-39120000D03*
%TO.P,CN1,14,14*%
%TO.N,unconnected-(CN1-Pad14)*%
X103300000Y-44200000D03*
%TO.P,CN1,15,15*%
%TO.N,unconnected-(CN1-Pad15)*%
X105840000Y-39120000D03*
%TO.P,CN1,16,16*%
%TO.N,unconnected-(CN1-Pad16)*%
X105840000Y-44200000D03*
%TO.P,CN1,17,17*%
%TO.N,unconnected-(CN1-Pad17)*%
X108380000Y-39120000D03*
%TO.P,CN1,18,18*%
%TO.N,unconnected-(CN1-Pad18)*%
X108380000Y-44200000D03*
%TO.P,CN1,19,19*%
%TO.N,unconnected-(CN1-Pad19)*%
X110920000Y-39120000D03*
%TO.P,CN1,20,20*%
%TO.N,unconnected-(CN1-Pad20)*%
X110920000Y-44200000D03*
%TO.P,CN1,21,21*%
%TO.N,unconnected-(CN1-Pad21)*%
X113460000Y-39120000D03*
%TO.P,CN1,22,22*%
%TO.N,/A5*%
X113460000Y-44200000D03*
%TO.P,CN1,23,23*%
%TO.N,/A4*%
X116000000Y-39120000D03*
%TO.P,CN1,24,24*%
%TO.N,/A6*%
X116000000Y-44200000D03*
%TO.P,CN1,25,25*%
%TO.N,/A3*%
X118540000Y-39120000D03*
%TO.P,CN1,26,26*%
%TO.N,unconnected-(CN1-Pad26)*%
X118540000Y-44200000D03*
%TO.P,CN1,27,27*%
%TO.N,/A7*%
X121080000Y-39120000D03*
%TO.P,CN1,28,28*%
%TO.N,/A2*%
X121080000Y-44200000D03*
%TO.P,CN1,29,29*%
%TO.N,/A8*%
X123620000Y-39120000D03*
%TO.P,CN1,30,30*%
%TO.N,/A1*%
X123620000Y-44200000D03*
%TO.P,CN1,31,31*%
%TO.N,/A9*%
X126160000Y-39120000D03*
%TO.P,CN1,32,32*%
%TO.N,/~{FC0}*%
X126160000Y-44200000D03*
%TO.P,CN1,33,33*%
%TO.N,/A10*%
X128700000Y-39120000D03*
%TO.P,CN1,34,34*%
%TO.N,/~{FC1}*%
X128700000Y-44200000D03*
%TO.P,CN1,35,35*%
%TO.N,/A11*%
X131240000Y-39120000D03*
%TO.P,CN1,36,36*%
%TO.N,unconnected-(CN1-Pad36)*%
X131240000Y-44200000D03*
%TO.P,CN1,37,37*%
%TO.N,/A12*%
X133780000Y-39120000D03*
%TO.P,CN1,38,38*%
%TO.N,unconnected-(CN1-Pad38)*%
X133780000Y-44200000D03*
%TO.P,CN1,39,39*%
%TO.N,/~{IPL0}*%
X136320000Y-39120000D03*
%TO.P,CN1,40,40*%
%TO.N,/A13*%
X136320000Y-44200000D03*
%TO.P,CN1,41,41*%
%TO.N,/~{IPL1}*%
X138860000Y-39120000D03*
%TO.P,CN1,42,42*%
%TO.N,/A14*%
X138860000Y-44200000D03*
%TO.P,CN1,43,43*%
%TO.N,/~{IPL2}*%
X141400000Y-39120000D03*
%TO.P,CN1,44,44*%
%TO.N,/A15*%
X141400000Y-44200000D03*
%TO.P,CN1,45,45*%
%TO.N,unconnected-(CN1-Pad45)*%
X143940000Y-39120000D03*
%TO.P,CN1,46,46*%
%TO.N,/A16*%
X143940000Y-44200000D03*
%TO.P,CN1,47,47*%
%TO.N,unconnected-(CN1-Pad47)*%
X146480000Y-39120000D03*
%TO.P,CN1,48,48*%
%TO.N,/A17*%
X146480000Y-44200000D03*
%TO.P,CN1,49,49*%
%TO.N,unconnected-(CN1-Pad49)*%
X149020000Y-39120000D03*
%TO.P,CN1,50,50*%
%TO.N,unconnected-(CN1-Pad50)*%
X149020000Y-44200000D03*
%TO.P,CN1,51,51*%
%TO.N,/A18*%
X151560000Y-39120000D03*
%TO.P,CN1,52,52*%
%TO.N,unconnected-(CN1-Pad52)*%
X151560000Y-44200000D03*
%TO.P,CN1,53,53*%
%TO.N,/A19*%
X154100000Y-39120000D03*
%TO.P,CN1,54,54*%
%TO.N,/~{RST}*%
X154100000Y-44200000D03*
%TO.P,CN1,55,55*%
%TO.N,/A20*%
X156640000Y-39120000D03*
%TO.P,CN1,56,56*%
%TO.N,/~{HLT}*%
X156640000Y-44200000D03*
%TO.P,CN1,57,57*%
%TO.N,/A21*%
X159180000Y-39120000D03*
%TO.P,CN1,58,58*%
%TO.N,/A22*%
X159180000Y-44200000D03*
%TO.P,CN1,59,59*%
%TO.N,unconnected-(CN1-Pad59)*%
X161720000Y-39120000D03*
%TO.P,CN1,60,60*%
%TO.N,/A23*%
X161720000Y-44200000D03*
%TO.P,CN1,61,61*%
%TO.N,unconnected-(CN1-Pad61)*%
X164260000Y-39120000D03*
%TO.P,CN1,62,62*%
%TO.N,unconnected-(CN1-Pad62)*%
X164260000Y-44200000D03*
%TO.P,CN1,63,63*%
%TO.N,unconnected-(CN1-Pad63)*%
X166800000Y-39120000D03*
%TO.P,CN1,64,64*%
%TO.N,/D15*%
X166800000Y-44200000D03*
%TO.P,CN1,65,65*%
%TO.N,unconnected-(CN1-Pad65)*%
X169340000Y-39120000D03*
%TO.P,CN1,66,66*%
%TO.N,/D14*%
X169340000Y-44200000D03*
%TO.P,CN1,67,67*%
%TO.N,/R_W*%
X171880000Y-39120000D03*
%TO.P,CN1,68,68*%
%TO.N,/D13*%
X171880000Y-44200000D03*
%TO.P,CN1,69,69*%
%TO.N,/~{LDS}*%
X174420000Y-39120000D03*
%TO.P,CN1,70,70*%
%TO.N,/D12*%
X174420000Y-44200000D03*
%TO.P,CN1,71,71*%
%TO.N,/~{UDS}*%
X176960000Y-39120000D03*
%TO.P,CN1,72,72*%
%TO.N,/D11*%
X176960000Y-44200000D03*
%TO.P,CN1,73,73*%
%TO.N,/~{AS}*%
X179500000Y-39120000D03*
%TO.P,CN1,74,74*%
%TO.N,GND*%
X179500000Y-44200000D03*
%TO.P,CN1,75,75*%
%TO.N,/D10*%
X182040000Y-39120000D03*
%TO.P,CN1,76,76*%
%TO.N,/D0*%
X182040000Y-44200000D03*
%TO.P,CN1,77,77*%
%TO.N,/D9*%
X184580000Y-39120000D03*
%TO.P,CN1,78,78*%
%TO.N,/D1*%
X184580000Y-44200000D03*
%TO.P,CN1,79,79*%
%TO.N,/D8*%
X187120000Y-39120000D03*
%TO.P,CN1,80,80*%
%TO.N,/D2*%
X187120000Y-44200000D03*
%TO.P,CN1,81,81*%
%TO.N,/D7*%
X189660000Y-39120000D03*
%TO.P,CN1,82,82*%
%TO.N,/D3*%
X189660000Y-44200000D03*
%TO.P,CN1,83,83*%
%TO.N,/D6*%
X192200000Y-39120000D03*
%TO.P,CN1,84,84*%
%TO.N,/D4*%
X192200000Y-44200000D03*
%TO.P,CN1,85,85*%
%TO.N,/D5*%
X194740000Y-39120000D03*
%TO.P,CN1,86,86*%
%TO.N,unconnected-(CN1-Pad86)*%
X194740000Y-44200000D03*
%TD*%
D14*
%TO.P,C6,1*%
%TO.N,Net-(D3-K)*%
X89950000Y-87650000D03*
D12*
%TO.P,C6,2*%
%TO.N,GND*%
X87450000Y-87650000D03*
%TD*%
D15*
%TO.P,D1,1,K*%
%TO.N,Net-(D1-K)*%
X188850000Y-92700000D03*
D16*
%TO.P,D1,2,A*%
%TO.N,Net-(D1-A)*%
X188850000Y-90160000D03*
%TD*%
D18*
%TO.P,U7,1,VPP*%
%TO.N,+5V*%
X125505000Y-89550000D03*
D19*
%TO.P,U7,2,A16*%
%TO.N,/A17*%
X125505000Y-92090000D03*
%TO.P,U7,3,A15*%
%TO.N,/A16*%
X125505000Y-94630000D03*
%TO.P,U7,4,A12*%
%TO.N,/A13*%
X125505000Y-97170000D03*
%TO.P,U7,5,A7*%
%TO.N,/A8*%
X125505000Y-99710000D03*
%TO.P,U7,6,A6*%
%TO.N,/A7*%
X125505000Y-102250000D03*
%TO.P,U7,7,A5*%
%TO.N,/A6*%
X125505000Y-104790000D03*
%TO.P,U7,8,A4*%
%TO.N,/A5*%
X125505000Y-107330000D03*
%TO.P,U7,9,A3*%
%TO.N,/A4*%
X125505000Y-109870000D03*
%TO.P,U7,10,A2*%
%TO.N,/A3*%
X125505000Y-112410000D03*
%TO.P,U7,11,A1*%
%TO.N,/A2*%
X125505000Y-114950000D03*
%TO.P,U7,12,A0*%
%TO.N,/A1*%
X125505000Y-117490000D03*
%TO.P,U7,13,Q0*%
%TO.N,/D0*%
X125505000Y-120030000D03*
%TO.P,U7,14,Q1*%
%TO.N,/D1*%
X125505000Y-122570000D03*
%TO.P,U7,15,Q2*%
%TO.N,/D2*%
X125505000Y-125110000D03*
%TO.P,U7,16,VSS*%
%TO.N,GND*%
X125505000Y-127650000D03*
%TO.P,U7,17,Q3*%
%TO.N,/D3*%
X140505000Y-127650000D03*
%TO.P,U7,18,Q4*%
%TO.N,/D4*%
X140505000Y-125110000D03*
%TO.P,U7,19,Q5*%
%TO.N,/D5*%
X140505000Y-122570000D03*
%TO.P,U7,20,Q6*%
%TO.N,/D6*%
X140505000Y-120030000D03*
%TO.P,U7,21,Q7*%
%TO.N,/D7*%
X140505000Y-117490000D03*
%TO.P,U7,22,~{E}*%
%TO.N,Net-(U4-IO8)*%
X140505000Y-114950000D03*
%TO.P,U7,23,A10*%
%TO.N,/A11*%
X140505000Y-112410000D03*
%TO.P,U7,24,~{G}*%
%TO.N,/~{OE}*%
X140505000Y-109870000D03*
%TO.P,U7,25,A11*%
%TO.N,/A12*%
X140505000Y-107330000D03*
%TO.P,U7,26,A9*%
%TO.N,/A10*%
X140505000Y-104790000D03*
%TO.P,U7,27,A8*%
%TO.N,/A9*%
X140505000Y-102250000D03*
%TO.P,U7,28,A13*%
%TO.N,/A14*%
X140505000Y-99710000D03*
%TO.P,U7,29,A14*%
%TO.N,/A15*%
X140505000Y-97170000D03*
%TO.P,U7,30,NC*%
%TO.N,unconnected-(U7-NC-Pad30)*%
X140505000Y-94630000D03*
%TO.P,U7,31,~{P}*%
%TO.N,+5V*%
X140505000Y-92090000D03*
%TO.P,U7,32,VCC*%
X140505000Y-89550000D03*
%TD*%
D18*
%TO.P,U9,1,VPP*%
%TO.N,+5V*%
X162255000Y-89550000D03*
D19*
%TO.P,U9,2,A16*%
%TO.N,/A17*%
X162255000Y-92090000D03*
%TO.P,U9,3,A15*%
%TO.N,/A16*%
X162255000Y-94630000D03*
%TO.P,U9,4,A12*%
%TO.N,/A13*%
X162255000Y-97170000D03*
%TO.P,U9,5,A7*%
%TO.N,/A8*%
X162255000Y-99710000D03*
%TO.P,U9,6,A6*%
%TO.N,/A7*%
X162255000Y-102250000D03*
%TO.P,U9,7,A5*%
%TO.N,/A6*%
X162255000Y-104790000D03*
%TO.P,U9,8,A4*%
%TO.N,/A5*%
X162255000Y-107330000D03*
%TO.P,U9,9,A3*%
%TO.N,/A4*%
X162255000Y-109870000D03*
%TO.P,U9,10,A2*%
%TO.N,/A3*%
X162255000Y-112410000D03*
%TO.P,U9,11,A1*%
%TO.N,/A2*%
X162255000Y-114950000D03*
%TO.P,U9,12,A0*%
%TO.N,/A1*%
X162255000Y-117490000D03*
%TO.P,U9,13,Q0*%
%TO.N,/D8*%
X162255000Y-120030000D03*
%TO.P,U9,14,Q1*%
%TO.N,/D9*%
X162255000Y-122570000D03*
%TO.P,U9,15,Q2*%
%TO.N,/D10*%
X162255000Y-125110000D03*
%TO.P,U9,16,VSS*%
%TO.N,GND*%
X162255000Y-127650000D03*
%TO.P,U9,17,Q3*%
%TO.N,/D11*%
X177255000Y-127650000D03*
%TO.P,U9,18,Q4*%
%TO.N,/D12*%
X177255000Y-125110000D03*
%TO.P,U9,19,Q5*%
%TO.N,/D13*%
X177255000Y-122570000D03*
%TO.P,U9,20,Q6*%
%TO.N,/D14*%
X177255000Y-120030000D03*
%TO.P,U9,21,Q7*%
%TO.N,/D15*%
X177255000Y-117490000D03*
%TO.P,U9,22,~{E}*%
%TO.N,Net-(U4-IO5)*%
X177255000Y-114950000D03*
%TO.P,U9,23,A10*%
%TO.N,/A11*%
X177255000Y-112410000D03*
%TO.P,U9,24,~{G}*%
%TO.N,/~{OE}*%
X177255000Y-109870000D03*
%TO.P,U9,25,A11*%
%TO.N,/A12*%
X177255000Y-107330000D03*
%TO.P,U9,26,A9*%
%TO.N,/A10*%
X177255000Y-104790000D03*
%TO.P,U9,27,A8*%
%TO.N,/A9*%
X177255000Y-102250000D03*
%TO.P,U9,28,A13*%
%TO.N,/A14*%
X177255000Y-99710000D03*
%TO.P,U9,29,A14*%
%TO.N,/A15*%
X177255000Y-97170000D03*
%TO.P,U9,30,NC*%
%TO.N,unconnected-(U9-NC-Pad30)*%
X177255000Y-94630000D03*
%TO.P,U9,31,~{P}*%
%TO.N,+5V*%
X177255000Y-92090000D03*
%TO.P,U9,32,VCC*%
X177255000Y-89550000D03*
%TD*%
D20*
%TO.N,Net-(U3-I6)*%
X133300000Y-80050000D03*
X133300000Y-86075000D03*
X90600000Y-98100000D03*
%TO.N,Net-(U10-~{CE})*%
X127200000Y-73300000D03*
X113250000Y-64400000D03*
X127150000Y-64400000D03*
X112700000Y-115600000D03*
%TO.N,Net-(U2-IO1)*%
X118850000Y-61250000D03*
X163850000Y-61250000D03*
X163850000Y-74700000D03*
X143800000Y-77100000D03*
X120100000Y-77650000D03*
X144900000Y-61250000D03*
%TO.N,/A5*%
X144679200Y-98825000D03*
X113600000Y-111500000D03*
X144729200Y-111475000D03*
X158025000Y-77525000D03*
%TO.N,/A8*%
X144018000Y-107696000D03*
X117050000Y-62500000D03*
X160650000Y-76500000D03*
X117075000Y-99075000D03*
X144043400Y-96372200D03*
X119850000Y-62500000D03*
X111050000Y-99075000D03*
X111050000Y-107685000D03*
%TO.N,/~{IPL2}*%
X106550000Y-46050000D03*
X106550000Y-72450000D03*
X142700000Y-47150000D03*
%TO.N,GND*%
X158750000Y-86550000D03*
X158750000Y-79800000D03*
X179500000Y-52250000D03*
X186650000Y-110000000D03*
X96113600Y-55422800D03*
X120100000Y-78850000D03*
X96100000Y-113200000D03*
X87450000Y-104650000D03*
X146750000Y-122600000D03*
X173450000Y-87000000D03*
X87400000Y-113300000D03*
X156300000Y-70600000D03*
X96100000Y-88700000D03*
X158750000Y-52250000D03*
X173500000Y-84650000D03*
X146750000Y-127675000D03*
X118700000Y-88600000D03*
%TO.N,+5V*%
X188550000Y-106950000D03*
X107650000Y-71450000D03*
X156350000Y-89600000D03*
X181400000Y-92850000D03*
X97950000Y-56400000D03*
X94400000Y-48650000D03*
X181400000Y-102200000D03*
X101700000Y-104600000D03*
X117850000Y-72500000D03*
X101750000Y-93550000D03*
X117800000Y-56400000D03*
X118950000Y-104050000D03*
X156350000Y-104125000D03*
X97880000Y-74280000D03*
X107650000Y-56400000D03*
X101700000Y-109700000D03*
%TO.N,/~{OE}*%
X116250000Y-87375000D03*
X149800000Y-112850000D03*
X149800000Y-109575000D03*
X116300000Y-112765000D03*
X116300000Y-78750000D03*
X137950000Y-83375000D03*
%TO.N,Net-(U4-IO4)*%
X153500000Y-64600000D03*
X154575000Y-115325000D03*
X130750000Y-64600000D03*
X130400000Y-78750000D03*
X155700000Y-86600000D03*
X153500000Y-86600000D03*
%TO.N,Net-(U4-IO5)*%
X130000000Y-80000000D03*
X170050000Y-88425000D03*
X130025000Y-88575000D03*
X170100000Y-115000000D03*
%TO.N,/A1*%
X117100000Y-114635000D03*
X164350000Y-114000000D03*
X163750000Y-83600000D03*
%TO.N,Net-(U4-IO8)*%
X120025000Y-95750000D03*
X137150000Y-95800000D03*
X122050000Y-79650000D03*
%TO.N,/A16*%
X167350000Y-78650000D03*
X167350000Y-62300000D03*
X143250000Y-62300000D03*
X167175000Y-94575000D03*
X134300000Y-62300000D03*
X135150000Y-94625000D03*
%TO.N,Net-(U2-I8)*%
X137175000Y-86025000D03*
X137175000Y-82600000D03*
X147800000Y-82050000D03*
X147725000Y-86250000D03*
%TO.N,Net-(U2-I9)*%
X146625000Y-91200000D03*
X146650000Y-83150000D03*
X128350000Y-91175000D03*
X128350000Y-81950000D03*
%TO.N,Net-(U3-IO4)*%
X145125000Y-85325000D03*
X121725735Y-87200735D03*
X121700000Y-81300000D03*
X143750000Y-78750000D03*
%TO.N,/A9*%
X152900000Y-102450000D03*
X117275000Y-108950000D03*
X177400000Y-80950000D03*
X152900000Y-108950000D03*
%TO.N,Net-(U2-IO7)*%
X120100000Y-76450000D03*
X140400000Y-66350000D03*
X143675000Y-86025000D03*
X140400000Y-76750000D03*
X143700000Y-80800000D03*
X120100000Y-66350000D03*
%TO.N,Net-(U2-IO8)*%
X150100000Y-71450000D03*
X137800000Y-73900000D03*
X150100000Y-84900000D03*
X137800000Y-71450000D03*
%TO.N,Net-(U3-IO2)*%
X146700000Y-70600000D03*
X146700000Y-75100000D03*
%TO.N,Net-(U3-I03)*%
X152500000Y-77500000D03*
X152550000Y-69850000D03*
%TO.N,Net-(U3-I5)*%
X134350000Y-77700000D03*
X109500000Y-85200000D03*
X134350000Y-65400000D03*
X109500000Y-65400000D03*
%TO.N,Net-(U2-IO6)*%
X137200000Y-59850000D03*
X139100000Y-81275000D03*
X164850000Y-59850000D03*
X165175000Y-82525000D03*
%TO.N,Net-(U3-IO5)*%
X147850000Y-80020000D03*
X147850000Y-67950000D03*
%TO.N,/~{FC0}*%
X126050000Y-82275000D03*
%TO.N,/A17*%
X178950000Y-111850000D03*
X146450000Y-65300000D03*
X179025000Y-90675000D03*
%TO.N,Net-(U1-IO8)*%
X168250000Y-76200000D03*
X168250000Y-85600000D03*
%TO.N,Net-(U1-IO2)*%
X169000000Y-77500000D03*
X169000000Y-70650000D03*
%TO.N,/A18*%
X170800000Y-77400000D03*
X170800000Y-63400000D03*
X152800000Y-63350000D03*
%TO.N,Net-(U1-IO1)*%
X165850000Y-71050000D03*
X165850000Y-78750000D03*
%TO.N,Net-(Q1-G)*%
X101450000Y-51003200D03*
X101450000Y-71700000D03*
X101450000Y-68100000D03*
%TO.N,Net-(D1-K)*%
X185750000Y-99100000D03*
X179625000Y-88650000D03*
X179775000Y-96700000D03*
X185750000Y-92700000D03*
X105900000Y-78700000D03*
X105900000Y-89950000D03*
%TO.N,/A19*%
X155400000Y-66200000D03*
%TO.N,/A10*%
X152275000Y-103150000D03*
X126900000Y-110825000D03*
X176225000Y-80925000D03*
X152275000Y-110225000D03*
%TO.N,/~{FC1}*%
X159750000Y-67050000D03*
X127900000Y-67050000D03*
X159750000Y-80650000D03*
%TO.N,Net-(U5-I7)*%
X97050000Y-60909200D03*
X117200000Y-50749200D03*
X117170200Y-48183800D03*
X109143800Y-60909200D03*
X109169200Y-48564800D03*
X97050000Y-80000000D03*
%TO.N,Net-(U5-IO5)*%
X112500000Y-79950000D03*
X112500000Y-61722000D03*
X115300000Y-61738000D03*
X115290600Y-50714200D03*
%TO.N,Net-(U5-IO6)*%
X108700000Y-62458600D03*
X108700000Y-83150000D03*
%TO.N,/A11*%
X116000735Y-130599265D03*
X114826098Y-114041422D03*
X179250000Y-130825000D03*
X130000000Y-49100000D03*
X142400000Y-49100000D03*
X190850000Y-114100000D03*
X190850000Y-84950000D03*
%TO.N,/A12*%
X151325000Y-111500000D03*
X151350000Y-103900000D03*
X173100000Y-82500000D03*
X170725000Y-107250000D03*
X132500000Y-111475000D03*
%TO.N,/~{IPL0}*%
X138050000Y-68100000D03*
X110450000Y-77450000D03*
X110450000Y-68150000D03*
%TO.N,/~{RST}*%
X103400000Y-63450000D03*
X148250000Y-63450000D03*
X148250000Y-49100000D03*
X103400000Y-80700000D03*
X154150000Y-49050000D03*
%TO.N,/A13*%
X178600000Y-80100000D03*
X111900000Y-106400000D03*
X178350000Y-96200000D03*
X148400000Y-96450000D03*
X148400000Y-106400000D03*
X111900000Y-97150000D03*
X135750000Y-97175000D03*
%TO.N,/A20*%
X169750000Y-64400000D03*
X169750000Y-76100000D03*
X157850000Y-64400000D03*
%TO.N,/~{IPL1}*%
X105550000Y-77200000D03*
X105550000Y-47400000D03*
X140100000Y-48100000D03*
%TO.N,/A14*%
X180500000Y-78700000D03*
%TO.N,/~{HLT}*%
X156650000Y-51700000D03*
X111050000Y-78700000D03*
X111506000Y-49225200D03*
%TO.N,/A21*%
X160500000Y-54400000D03*
X168250000Y-74300000D03*
X168250000Y-54400000D03*
%TO.N,/A22*%
X159200000Y-47100000D03*
X99000000Y-50700000D03*
X176950000Y-76800000D03*
X145150000Y-47100000D03*
X88900000Y-67000000D03*
X145150000Y-51750000D03*
X99000000Y-67000000D03*
X177000000Y-47150000D03*
%TO.N,Net-(U11-DIS)*%
X94000000Y-107800000D03*
%TO.N,Net-(D3-A)*%
X89450000Y-107150000D03*
X101750000Y-77450000D03*
X89400000Y-89600000D03*
X101750000Y-92400000D03*
%TO.N,Net-(D3-K)*%
X93400000Y-105900000D03*
%TO.N,/A23*%
X161700000Y-55450000D03*
X180100000Y-76850000D03*
X180100000Y-55450000D03*
%TO.N,/D15*%
X178450000Y-130600000D03*
X165150000Y-117490000D03*
X116150000Y-116550000D03*
X115900000Y-129650000D03*
%TO.N,/A3*%
X131925000Y-114600000D03*
X157400000Y-78775000D03*
X104550000Y-41700000D03*
X131925000Y-112425000D03*
X104750000Y-114050000D03*
X158750000Y-114675000D03*
%TO.N,/A4*%
X154450000Y-74300000D03*
X154250000Y-109600000D03*
X143256000Y-103600000D03*
X123050000Y-124725000D03*
X143256000Y-112750600D03*
X114225000Y-124750000D03*
X114225000Y-112765000D03*
%TO.N,/A6*%
X115400000Y-110250000D03*
X133925000Y-101550000D03*
X135550000Y-111475000D03*
X115400000Y-101125000D03*
X150750000Y-78650000D03*
X149000000Y-110220000D03*
%TO.N,/A7*%
X105950000Y-91550000D03*
X105950000Y-100525000D03*
X105950000Y-108950000D03*
X120600000Y-91525000D03*
X134525000Y-100925000D03*
X135050000Y-109825000D03*
X162050000Y-77400000D03*
%TO.N,/A2*%
X105350000Y-99900000D03*
X127625000Y-100800000D03*
X150425000Y-115250000D03*
X105350000Y-115225000D03*
X119425000Y-99925000D03*
X163750000Y-93625000D03*
X152500000Y-93675000D03*
X152500000Y-80050000D03*
%TO.N,/D14*%
X174900000Y-59600000D03*
X169340000Y-59560000D03*
%TO.N,/R_W*%
X102700000Y-103400000D03*
X121158000Y-103650000D03*
X102700000Y-49450000D03*
X102700000Y-76400000D03*
X144000000Y-58650000D03*
X144000000Y-49950000D03*
X154900000Y-98225000D03*
X170600000Y-58550000D03*
X121158000Y-106415000D03*
X154875000Y-106400000D03*
%TO.N,/D13*%
X115900000Y-119450000D03*
X169450000Y-124375000D03*
X115910000Y-128660000D03*
%TO.N,/~{LDS}*%
X145150000Y-84400000D03*
X145750000Y-68900000D03*
X173050000Y-68900000D03*
%TO.N,/D12*%
X127175000Y-128175000D03*
X166450000Y-126150000D03*
X166550000Y-53100000D03*
X174450000Y-53100000D03*
X127200000Y-121550000D03*
%TO.N,/~{UDS}*%
X178200000Y-57650000D03*
X133400000Y-74700000D03*
X133400000Y-57650000D03*
X127675000Y-74725000D03*
X127675000Y-85675000D03*
%TO.N,/D11*%
X121075000Y-130075000D03*
X121050000Y-122075000D03*
%TO.N,/~{AS}*%
X111575000Y-90700000D03*
X180750000Y-67850000D03*
X111600000Y-86625000D03*
X149200000Y-81250000D03*
X149150000Y-88425000D03*
X149200000Y-67950000D03*
%TO.N,/D3*%
X183400000Y-47400000D03*
X183100000Y-121650000D03*
%TO.N,/D10*%
X131700000Y-54050000D03*
X147250000Y-54050000D03*
X147250000Y-46400000D03*
X130450000Y-124600000D03*
X183400000Y-46200000D03*
%TO.N,/D8*%
X136375000Y-119375000D03*
X136750000Y-46200000D03*
%TO.N,/D0*%
X131300000Y-77450000D03*
X129675000Y-120025000D03*
X131300000Y-86725000D03*
X182050000Y-86350000D03*
X148700000Y-123825000D03*
X148675000Y-117850000D03*
%TO.N,/D4*%
X178300000Y-59050000D03*
X180275000Y-121000000D03*
%TO.N,/D9*%
X128950000Y-123475000D03*
X128950000Y-56450000D03*
X185850000Y-56450000D03*
%TO.N,/D2*%
X169600000Y-125300000D03*
X187000000Y-95375000D03*
X144700000Y-126500000D03*
X144750000Y-120350000D03*
X132475000Y-127675000D03*
X171450000Y-93475000D03*
%TO.N,/D6*%
X151225000Y-117875000D03*
X151225000Y-120500000D03*
X189800000Y-57750000D03*
X185900000Y-57800000D03*
X185150000Y-117750000D03*
%TO.N,/D1*%
X133400000Y-76200000D03*
X143725000Y-119100000D03*
X133962500Y-125675000D03*
X184550000Y-96250000D03*
X134050000Y-93700000D03*
%TO.N,/D5*%
X174850000Y-119100000D03*
X152350000Y-119075000D03*
X152275000Y-120575000D03*
X177775000Y-129925000D03*
%TD*%
D21*
%TO.N,Net-(U3-I6)*%
X133300000Y-86075000D02*
X133300000Y-80050000D01*
X91677500Y-120377500D02*
X91677500Y-115377500D01*
X90600000Y-98100000D02*
X90600000Y-105700000D01*
X90600000Y-105700000D02*
X91650000Y-106750000D01*
X91650000Y-106750000D02*
X91650000Y-115350000D01*
%TO.N,Net-(U10-~{CE})*%
X113250000Y-64400000D02*
X113250000Y-90175000D01*
X113250000Y-90175000D02*
X112700000Y-90725000D01*
X112700000Y-90725000D02*
X112700000Y-115600000D01*
X127150000Y-64400000D02*
X127200000Y-64450000D01*
X127200000Y-64450000D02*
X127200000Y-73300000D01*
%TO.N,Net-(U2-IO1)*%
X118850000Y-77200000D02*
X118850000Y-61250000D01*
X144900000Y-76800000D02*
X144600000Y-77100000D01*
X144600000Y-77100000D02*
X143800000Y-77100000D01*
X163850000Y-61250000D02*
X163850000Y-74700000D01*
X144900000Y-61250000D02*
X144900000Y-76800000D01*
X119300000Y-77650000D02*
X118850000Y-77200000D01*
X120100000Y-77650000D02*
X119300000Y-77650000D01*
%TO.N,/A5*%
X161055000Y-107330000D02*
X162260000Y-107330000D01*
X158025000Y-88175000D02*
X160250000Y-90400000D01*
X113460000Y-62760000D02*
X113460000Y-44200000D01*
X158025000Y-77525000D02*
X158025000Y-88175000D01*
X114100000Y-63400000D02*
X113460000Y-62760000D01*
X113600000Y-111500000D02*
X113600000Y-90850000D01*
X113600000Y-90850000D02*
X114100000Y-90350000D01*
X160250000Y-90400000D02*
X160250000Y-106525000D01*
X144729200Y-98875000D02*
X144729200Y-111475000D01*
X114100000Y-90350000D02*
X114100000Y-63400000D01*
X160250000Y-106525000D02*
X161055000Y-107330000D01*
%TO.N,/A8*%
X117050000Y-99050000D02*
X117050000Y-62500000D01*
X119850000Y-62500000D02*
X119750000Y-62400000D01*
X117075000Y-99075000D02*
X117050000Y-99050000D01*
X144043400Y-107670600D02*
X144018000Y-107696000D01*
X123620000Y-37820000D02*
X123620000Y-39120000D01*
X160650000Y-98100000D02*
X162260000Y-99710000D01*
X144043400Y-96372200D02*
X144043400Y-107670600D01*
X120350000Y-37500000D02*
X123300000Y-37500000D01*
X123300000Y-37500000D02*
X123620000Y-37820000D01*
X119750000Y-38100000D02*
X120350000Y-37500000D01*
X160650000Y-76500000D02*
X160650000Y-98100000D01*
X119750000Y-62400000D02*
X119750000Y-38100000D01*
X111050000Y-107685000D02*
X111050000Y-99075000D01*
%TO.N,/~{IPL2}*%
X142700000Y-47150000D02*
X142700000Y-40420000D01*
X142700000Y-40420000D02*
X141400000Y-39120000D01*
X106550000Y-72450000D02*
X106550000Y-46050000D01*
%TO.N,/A15*%
X141400000Y-44200000D02*
X141400000Y-96275000D01*
X141400000Y-96275000D02*
X140505000Y-97170000D01*
D22*
%TO.N,GND*%
X93200000Y-85150000D02*
X93900000Y-85850000D01*
X173500000Y-86950000D02*
X173500000Y-84650000D01*
X93900000Y-98350000D02*
X94450000Y-98900000D01*
X90600000Y-39120000D02*
X90600000Y-44200000D01*
X187270000Y-104230000D02*
X186650000Y-104850000D01*
X158750000Y-70600000D02*
X158750000Y-79800000D01*
X88000000Y-85150000D02*
X93200000Y-85150000D01*
X173450000Y-87000000D02*
X173500000Y-86950000D01*
X158750000Y-70600000D02*
X156300000Y-70600000D01*
X93900000Y-85850000D02*
X93900000Y-98350000D01*
X87450000Y-87650000D02*
X87450000Y-113250000D01*
X96677500Y-120377500D02*
X96677500Y-128872500D01*
X87450000Y-85700000D02*
X88000000Y-85150000D01*
X179500000Y-44200000D02*
X179500000Y-52250000D01*
X158750000Y-52250000D02*
X158750000Y-70600000D01*
X96101600Y-55434800D02*
X96101600Y-88698400D01*
X96100000Y-88700000D02*
X96100000Y-113200000D01*
X96105112Y-129444888D02*
X94000000Y-129444888D01*
X188500000Y-104230000D02*
X187270000Y-104230000D01*
X96113600Y-55422800D02*
X96101600Y-55434800D01*
X96101600Y-88698400D02*
X96100000Y-88700000D01*
X146750000Y-127675000D02*
X146750000Y-122600000D01*
X118700000Y-79400000D02*
X119250000Y-78850000D01*
X96677500Y-128872500D02*
X96105112Y-129444888D01*
X87450000Y-113250000D02*
X87450000Y-104650000D01*
X88060000Y-44200000D02*
X88060000Y-39120000D01*
X96677500Y-115377500D02*
X96677500Y-120377500D01*
X119250000Y-78850000D02*
X120100000Y-78850000D01*
X186650000Y-104850000D02*
X186650000Y-110000000D01*
X87450000Y-87650000D02*
X87450000Y-85700000D01*
X87450000Y-113250000D02*
X87400000Y-113300000D01*
X158750000Y-79800000D02*
X158750000Y-86550000D01*
X118700000Y-88600000D02*
X118700000Y-79400000D01*
%TO.N,+5V*%
X189000000Y-119500000D02*
X190500000Y-119500000D01*
X188550000Y-119050000D02*
X189000000Y-119500000D01*
X99150000Y-93550000D02*
X99000000Y-93400000D01*
X190500000Y-119500000D02*
X191090000Y-120090000D01*
X122850000Y-91150000D02*
X124450000Y-89550000D01*
X94357500Y-48607500D02*
X94357500Y-41707500D01*
X191090000Y-120090000D02*
X191090000Y-122080000D01*
X97950000Y-49100000D02*
X97500000Y-48650000D01*
X101750000Y-93550000D02*
X99150000Y-93550000D01*
X99000000Y-93400000D02*
X99000000Y-85500000D01*
X140500000Y-89550000D02*
X140500000Y-92090000D01*
X177250000Y-89550000D02*
X177250000Y-92090000D01*
X118950000Y-104050000D02*
X122850000Y-100150000D01*
X124450000Y-89550000D02*
X125510000Y-89550000D01*
X93140000Y-40490000D02*
X93140000Y-39120000D01*
X181400000Y-102200000D02*
X181400000Y-92850000D01*
X97950000Y-56400000D02*
X97950000Y-49100000D01*
X101700000Y-104600000D02*
X101700000Y-109700000D01*
X97950000Y-74210000D02*
X97880000Y-74280000D01*
X94400000Y-48650000D02*
X94357500Y-48607500D01*
X117800000Y-72450000D02*
X117800000Y-56400000D01*
X97950000Y-56400000D02*
X97950000Y-74210000D01*
X122850000Y-100150000D02*
X122850000Y-91150000D01*
X107650000Y-71450000D02*
X107650000Y-56400000D01*
X97500000Y-48650000D02*
X94400000Y-48650000D01*
X101750000Y-93550000D02*
X101700000Y-93600000D01*
X188550000Y-106950000D02*
X188550000Y-119050000D01*
X156350000Y-89600000D02*
X156350000Y-104125000D01*
X101700000Y-93600000D02*
X101700000Y-104600000D01*
X117850000Y-72500000D02*
X117800000Y-72450000D01*
X97880000Y-84380000D02*
X97880000Y-74280000D01*
X94357500Y-41707500D02*
X93140000Y-40490000D01*
X99000000Y-85500000D02*
X97880000Y-84380000D01*
D21*
%TO.N,/~{OE}*%
X116250000Y-112715000D02*
X116300000Y-112765000D01*
X137900000Y-83425000D02*
X137900000Y-107270000D01*
X116250000Y-87375000D02*
X116250000Y-112715000D01*
X137950000Y-83375000D02*
X137900000Y-83425000D01*
X149800000Y-112850000D02*
X149800000Y-109575000D01*
X116250000Y-87375000D02*
X116250000Y-78800000D01*
X116250000Y-78800000D02*
X116300000Y-78750000D01*
X137900000Y-107270000D02*
X140500000Y-109870000D01*
%TO.N,Net-(U4-IO4)*%
X130400000Y-78750000D02*
X130400000Y-74800000D01*
X155700000Y-114125000D02*
X154575000Y-115250000D01*
X130400000Y-74800000D02*
X130750000Y-74450000D01*
X153500000Y-64600000D02*
X153500000Y-86600000D01*
X155700000Y-86600000D02*
X155700000Y-114125000D01*
X154575000Y-115250000D02*
X154575000Y-115325000D01*
X130750000Y-74450000D02*
X130750000Y-64600000D01*
%TO.N,Net-(U4-IO5)*%
X130000000Y-80000000D02*
X130000000Y-88550000D01*
X170100000Y-115000000D02*
X170050000Y-114950000D01*
X130000000Y-88550000D02*
X130025000Y-88575000D01*
X170050000Y-114950000D02*
X170050000Y-88425000D01*
%TO.N,/A1*%
X123620000Y-88280000D02*
X123620000Y-44200000D01*
X121250000Y-99750000D02*
X121250000Y-90650000D01*
X116675000Y-104325000D02*
X121250000Y-99750000D01*
X116675000Y-109450000D02*
X116675000Y-104325000D01*
X164350000Y-114000000D02*
X164350000Y-115400000D01*
X164350000Y-115400000D02*
X162260000Y-117490000D01*
X164350000Y-114000000D02*
X164350000Y-84200000D01*
X117125000Y-109900000D02*
X116675000Y-109450000D01*
X117100000Y-114635000D02*
X117125000Y-114610000D01*
X121250000Y-90650000D02*
X123620000Y-88280000D01*
X117125000Y-114610000D02*
X117125000Y-109900000D01*
X164350000Y-84200000D02*
X163750000Y-83600000D01*
%TO.N,Net-(U4-IO8)*%
X122650000Y-80300000D02*
X122050000Y-79700000D01*
X120000000Y-89775000D02*
X122650000Y-87125000D01*
X122650000Y-87125000D02*
X122650000Y-80300000D01*
X122050000Y-79700000D02*
X122050000Y-79650000D01*
X138812500Y-114950000D02*
X140500000Y-114950000D01*
X120000000Y-95725000D02*
X120000000Y-89775000D01*
X120025000Y-95750000D02*
X120000000Y-95725000D01*
X137150000Y-113287500D02*
X138812500Y-114950000D01*
X137150000Y-95800000D02*
X137150000Y-113287500D01*
%TO.N,/A16*%
X167175000Y-94575000D02*
X167350000Y-94400000D01*
X135150000Y-64850000D02*
X135150000Y-94625000D01*
X167350000Y-94400000D02*
X167350000Y-78650000D01*
X143250000Y-62300000D02*
X143250000Y-48550000D01*
X143250000Y-48550000D02*
X143950000Y-47850000D01*
X135150000Y-64850000D02*
X134300000Y-64000000D01*
X143940000Y-47840000D02*
X143940000Y-44200000D01*
X143950000Y-47850000D02*
X143940000Y-47840000D01*
X167350000Y-78650000D02*
X167350000Y-62300000D01*
X134300000Y-64000000D02*
X134300000Y-62300000D01*
%TO.N,Net-(U2-I8)*%
X147725000Y-82025000D02*
X147725000Y-86250000D01*
X137175000Y-82600000D02*
X137175000Y-86025000D01*
%TO.N,Net-(U2-I9)*%
X146625000Y-83175000D02*
X146650000Y-83150000D01*
X146625000Y-91200000D02*
X146625000Y-83175000D01*
X128350000Y-81950000D02*
X128350000Y-91175000D01*
%TO.N,Net-(U3-IO4)*%
X121725000Y-87200000D02*
X121725000Y-81325000D01*
X144475000Y-84675000D02*
X144475000Y-79475000D01*
X144475000Y-79475000D02*
X143750000Y-78750000D01*
X121725735Y-87200735D02*
X121725000Y-87200000D01*
X121725000Y-81325000D02*
X121700000Y-81300000D01*
X145125000Y-85325000D02*
X144475000Y-84675000D01*
%TO.N,/A9*%
X126160000Y-39120000D02*
X124900000Y-40380000D01*
X175500000Y-82850000D02*
X175500000Y-88522058D01*
X177400000Y-80950000D02*
X175500000Y-82850000D01*
X174025000Y-99025000D02*
X177250000Y-102250000D01*
X122100000Y-100051471D02*
X117275000Y-104876471D01*
X175500000Y-88522058D02*
X174025000Y-89997058D01*
X124900000Y-88000000D02*
X122100000Y-90800000D01*
X152900000Y-102450000D02*
X152900000Y-108950000D01*
X124900000Y-40380000D02*
X124900000Y-88000000D01*
X174025000Y-89997058D02*
X174025000Y-99025000D01*
X122100000Y-90800000D02*
X122100000Y-100051471D01*
X117275000Y-104876471D02*
X117275000Y-108950000D01*
%TO.N,Net-(U2-IO7)*%
X143675000Y-80825000D02*
X143700000Y-80800000D01*
X120100000Y-76450000D02*
X120100000Y-66350000D01*
X143675000Y-86025000D02*
X143675000Y-80825000D01*
X140400000Y-66350000D02*
X140400000Y-76750000D01*
%TO.N,Net-(U2-IO8)*%
X137800000Y-71450000D02*
X137800000Y-73900000D01*
X150100000Y-71450000D02*
X150100000Y-84900000D01*
%TO.N,Net-(U3-IO2)*%
X146700000Y-70600000D02*
X146700000Y-75100000D01*
%TO.N,Net-(U3-I03)*%
X152550000Y-77450000D02*
X152500000Y-77500000D01*
X152550000Y-69850000D02*
X152550000Y-77450000D01*
%TO.N,Net-(U3-I5)*%
X109500000Y-85200000D02*
X109500000Y-65400000D01*
X134350000Y-65400000D02*
X134350000Y-77700000D01*
%TO.N,Net-(U2-IO6)*%
X137450000Y-74850000D02*
X137200000Y-74600000D01*
X139100000Y-75750000D02*
X139100000Y-81275000D01*
X164850000Y-59850000D02*
X164850000Y-82200000D01*
X164850000Y-82200000D02*
X165175000Y-82525000D01*
X138200000Y-74850000D02*
X139100000Y-75750000D01*
X137450000Y-74850000D02*
X138200000Y-74850000D01*
X137200000Y-74600000D02*
X137200000Y-59850000D01*
%TO.N,Net-(U3-IO5)*%
X147850000Y-67950000D02*
X147850000Y-80020000D01*
%TO.N,/~{FC0}*%
X125700000Y-80100000D02*
X125700000Y-44660000D01*
X126050000Y-82275000D02*
X126050000Y-80450000D01*
X126050000Y-80450000D02*
X125700000Y-80100000D01*
%TO.N,/A17*%
X178050000Y-101000000D02*
X178950000Y-101900000D01*
X179025000Y-90675000D02*
X179025000Y-97400000D01*
X176650000Y-98500000D02*
X176175000Y-98975000D01*
X177925000Y-98500000D02*
X176650000Y-98500000D01*
X146480000Y-65270000D02*
X146480000Y-44200000D01*
X176750000Y-101000000D02*
X178050000Y-101000000D01*
X179025000Y-97400000D02*
X177925000Y-98500000D01*
X146450000Y-65300000D02*
X146480000Y-65270000D01*
X176175000Y-100425000D02*
X176750000Y-101000000D01*
X176175000Y-98975000D02*
X176175000Y-100425000D01*
X178950000Y-101900000D02*
X178950000Y-111850000D01*
%TO.N,Net-(U1-IO8)*%
X168250000Y-76200000D02*
X168250000Y-85600000D01*
%TO.N,Net-(U1-IO2)*%
X169000000Y-77500000D02*
X169000000Y-70650000D01*
%TO.N,/A18*%
X170800000Y-77400000D02*
X170800000Y-63400000D01*
X152800000Y-63350000D02*
X152800000Y-40360000D01*
X152800000Y-40360000D02*
X151560000Y-39120000D01*
%TO.N,Net-(U1-IO1)*%
X165850000Y-78750000D02*
X165850000Y-71050000D01*
%TO.N,Net-(Q1-G)*%
X101450000Y-71700000D02*
X101450000Y-68100000D01*
X101450000Y-68100000D02*
X101450000Y-51003200D01*
%TO.N,Net-(D1-K)*%
X188500000Y-99150000D02*
X188500000Y-101690000D01*
X179775000Y-88800000D02*
X179775000Y-96700000D01*
X179625000Y-88650000D02*
X179775000Y-88800000D01*
X185750000Y-99100000D02*
X185750000Y-92700000D01*
X105900000Y-78700000D02*
X105900000Y-89950000D01*
%TO.N,/A19*%
X155400000Y-66200000D02*
X155400000Y-40420000D01*
X155400000Y-40420000D02*
X154100000Y-39120000D01*
%TO.N,/A10*%
X173600000Y-101140000D02*
X173600000Y-89856372D01*
X173600000Y-89856372D02*
X175100000Y-88356372D01*
X126900000Y-77950000D02*
X126900000Y-110825000D01*
X175100000Y-82050000D02*
X176225000Y-80925000D01*
X128700000Y-41350000D02*
X128700000Y-39120000D01*
X152275000Y-103150000D02*
X152275000Y-110225000D01*
X126900000Y-77950000D02*
X126300000Y-77350000D01*
X127700000Y-41750000D02*
X128300000Y-41750000D01*
X175100000Y-88356372D02*
X175100000Y-82050000D01*
X127400000Y-42050000D02*
X127700000Y-41750000D01*
X177250000Y-104790000D02*
X173600000Y-101140000D01*
X126300000Y-77350000D02*
X126300000Y-54550000D01*
X128300000Y-41750000D02*
X128700000Y-41350000D01*
X126300000Y-54550000D02*
X127400000Y-53450000D01*
X127400000Y-53450000D02*
X127400000Y-42050000D01*
%TO.N,/~{FC1}*%
X159750000Y-80650000D02*
X159750000Y-67050000D01*
X127900000Y-55700000D02*
X128700000Y-54900000D01*
X127900000Y-67050000D02*
X127900000Y-55700000D01*
X128700000Y-54900000D02*
X128700000Y-44200000D01*
%TO.N,Net-(U5-I7)*%
X109100000Y-60865400D02*
X109100000Y-48634000D01*
X117170200Y-48183800D02*
X117200000Y-48213600D01*
X117200000Y-48213600D02*
X117200000Y-50749200D01*
X109143800Y-60909200D02*
X109100000Y-60865400D01*
X109100000Y-48634000D02*
X109169200Y-48564800D01*
X97050000Y-80000000D02*
X97050000Y-60909200D01*
%TO.N,Net-(U5-IO5)*%
X115300000Y-50723600D02*
X115290600Y-50714200D01*
X115300000Y-61738000D02*
X115300000Y-50723600D01*
X112500000Y-79950000D02*
X112500000Y-61722000D01*
%TO.N,Net-(U5-IO6)*%
X108700000Y-83150000D02*
X108700000Y-62458600D01*
%TO.N,/A11*%
X179550000Y-130525000D02*
X179550000Y-113575000D01*
X114825000Y-114042520D02*
X114826098Y-114041422D01*
X116000735Y-130599265D02*
X114825000Y-129423530D01*
X190850000Y-114100000D02*
X190850000Y-84950000D01*
X142400000Y-110510000D02*
X140500000Y-112410000D01*
X131240000Y-39120000D02*
X131240000Y-41410000D01*
X179550000Y-113575000D02*
X178385000Y-112410000D01*
X130950000Y-41700000D02*
X130362500Y-41700000D01*
X142400000Y-49100000D02*
X142400000Y-110510000D01*
X131240000Y-41410000D02*
X130950000Y-41700000D01*
X130000000Y-42062500D02*
X130000000Y-49100000D01*
X178385000Y-112410000D02*
X177250000Y-112410000D01*
X179250000Y-130825000D02*
X179550000Y-130525000D01*
X114825000Y-129423530D02*
X114825000Y-114042520D01*
X130362500Y-41700000D02*
X130000000Y-42062500D01*
%TO.N,/A12*%
X132500000Y-41950000D02*
X132900000Y-41550000D01*
X170725000Y-107250000D02*
X170725000Y-87325000D01*
X133800000Y-41250000D02*
X133780000Y-41230000D01*
X151350000Y-111475000D02*
X151325000Y-111500000D01*
X172375000Y-85675000D02*
X172375000Y-83225000D01*
X172375000Y-83225000D02*
X173100000Y-82500000D01*
X132900000Y-41550000D02*
X133500000Y-41550000D01*
X133500000Y-41550000D02*
X133800000Y-41250000D01*
X132500000Y-111475000D02*
X132500000Y-41950000D01*
X170725000Y-87325000D02*
X172375000Y-85675000D01*
X151350000Y-103900000D02*
X151350000Y-111475000D01*
X133780000Y-41230000D02*
X133780000Y-39120000D01*
%TO.N,/~{IPL0}*%
X138050000Y-68100000D02*
X138050000Y-58687500D01*
X110450000Y-77450000D02*
X110450000Y-68150000D01*
X137600000Y-40400000D02*
X136320000Y-39120000D01*
X138050000Y-58687500D02*
X137600000Y-58237500D01*
X137600000Y-58237500D02*
X137600000Y-40400000D01*
%TO.N,/~{RST}*%
X103400000Y-80700000D02*
X103400000Y-63450000D01*
X148250000Y-63450000D02*
X148250000Y-49100000D01*
X154150000Y-49050000D02*
X154150000Y-44250000D01*
%TO.N,/A13*%
X136320000Y-44200000D02*
X136320000Y-42970000D01*
X136100000Y-42750000D02*
X135500000Y-42750000D01*
X136320000Y-42970000D02*
X136100000Y-42750000D01*
X111900000Y-97150000D02*
X111900000Y-106400000D01*
X135050000Y-43200000D02*
X135050000Y-63500000D01*
X135500000Y-42750000D02*
X135050000Y-43200000D01*
X135750000Y-64200000D02*
X135750000Y-97175000D01*
X179025000Y-80100000D02*
X178600000Y-80100000D01*
X135050000Y-63500000D02*
X135750000Y-64200000D01*
X178350000Y-96200000D02*
X178350000Y-80775000D01*
X178350000Y-80775000D02*
X179025000Y-80100000D01*
X148400000Y-96450000D02*
X148400000Y-106400000D01*
%TO.N,/A20*%
X157850000Y-64400000D02*
X157900000Y-64350000D01*
X157900000Y-64350000D02*
X157900000Y-40380000D01*
X157900000Y-40380000D02*
X156640000Y-39120000D01*
X169750000Y-76100000D02*
X169750000Y-64400000D01*
%TO.N,/~{IPL1}*%
X105550000Y-77200000D02*
X105550000Y-47400000D01*
X140100000Y-40360000D02*
X138860000Y-39120000D01*
X140100000Y-48100000D02*
X140100000Y-40360000D01*
%TO.N,/A14*%
X180700000Y-78900000D02*
X180700000Y-98575000D01*
X139800000Y-83025000D02*
X138860000Y-83965000D01*
X138860000Y-83965000D02*
X138860000Y-97985000D01*
X180700000Y-98575000D02*
X179565000Y-99710000D01*
X179565000Y-99710000D02*
X177250000Y-99710000D01*
X139800000Y-74275000D02*
X139800000Y-83025000D01*
X138860000Y-97985000D02*
X140500000Y-99625000D01*
X138860000Y-73335000D02*
X139800000Y-74275000D01*
X180500000Y-78700000D02*
X180700000Y-78900000D01*
X138860000Y-44200000D02*
X138860000Y-73335000D01*
%TO.N,/~{HLT}*%
X111600000Y-49319200D02*
X111600000Y-78150000D01*
X111506000Y-49225200D02*
X111600000Y-49319200D01*
X111600000Y-78150000D02*
X111050000Y-78700000D01*
X156650000Y-51700000D02*
X156640000Y-51690000D01*
X156640000Y-51690000D02*
X156640000Y-44200000D01*
%TO.N,/A21*%
X160450000Y-40390000D02*
X159180000Y-39120000D01*
X168250000Y-74300000D02*
X168250000Y-54400000D01*
X160500000Y-54400000D02*
X160450000Y-54350000D01*
X160450000Y-54350000D02*
X160450000Y-40390000D01*
%TO.N,/A22*%
X176950000Y-47200000D02*
X177000000Y-47150000D01*
X176950000Y-76800000D02*
X176950000Y-47200000D01*
X145150000Y-47100000D02*
X145150000Y-51750000D01*
X99000000Y-50700000D02*
X99000000Y-67000000D01*
X159200000Y-47100000D02*
X159180000Y-47080000D01*
X88900000Y-67000000D02*
X88900000Y-69200000D01*
X159180000Y-47080000D02*
X159180000Y-44200000D01*
%TO.N,Net-(U11-DIS)*%
X94000000Y-107800000D02*
X94000000Y-127044888D01*
%TO.N,Net-(D3-A)*%
X89450000Y-107150000D02*
X89450000Y-89650000D01*
X101750000Y-77450000D02*
X101750000Y-92400000D01*
X89450000Y-89650000D02*
X89400000Y-89600000D01*
%TO.N,Net-(D3-K)*%
X92450000Y-105350000D02*
X92000000Y-104900000D01*
X93050000Y-105350000D02*
X92450000Y-105350000D01*
X93400000Y-105700000D02*
X93050000Y-105350000D01*
X93400000Y-105900000D02*
X93400000Y-105700000D01*
X92000000Y-104900000D02*
X92000000Y-87950000D01*
X92000000Y-87950000D02*
X91700000Y-87650000D01*
X91700000Y-87650000D02*
X89950000Y-87650000D01*
%TO.N,/A23*%
X161720000Y-55080000D02*
X161720000Y-44200000D01*
X161700000Y-55450000D02*
X161700000Y-55100000D01*
X180100000Y-76850000D02*
X180100000Y-55450000D01*
X161700000Y-55100000D02*
X161720000Y-55080000D01*
%TO.N,/D15*%
X166000000Y-50750000D02*
X166800000Y-49950000D01*
X115900000Y-129650000D02*
X115275000Y-129025000D01*
X162850000Y-51250000D02*
X163350000Y-50750000D01*
X163998529Y-82748529D02*
X163998529Y-78098529D01*
X163998529Y-78098529D02*
X162850000Y-76950000D01*
X178450000Y-118690000D02*
X177250000Y-117490000D01*
X165175000Y-117465000D02*
X165175000Y-83925000D01*
X178450000Y-130600000D02*
X178450000Y-118690000D01*
X165175000Y-83925000D02*
X163998529Y-82748529D01*
X115275000Y-117425000D02*
X116150000Y-116550000D01*
X165150000Y-117490000D02*
X165175000Y-117465000D01*
X163350000Y-50750000D02*
X166000000Y-50750000D01*
X166800000Y-49950000D02*
X166800000Y-44200000D01*
X162850000Y-76950000D02*
X162850000Y-51250000D01*
X115275000Y-129025000D02*
X115275000Y-117425000D01*
%TO.N,/A3*%
X104550000Y-113850000D02*
X104750000Y-114050000D01*
X131925000Y-112425000D02*
X131925000Y-114600000D01*
X157485000Y-112410000D02*
X162260000Y-112410000D01*
X157400000Y-113325000D02*
X157400000Y-112325000D01*
X157400000Y-78775000D02*
X157400000Y-112325000D01*
X104550000Y-41700000D02*
X104550000Y-113850000D01*
X158750000Y-114675000D02*
X157400000Y-113325000D01*
X157400000Y-112325000D02*
X157485000Y-112410000D01*
%TO.N,/A4*%
X154450000Y-87050000D02*
X154250000Y-87250000D01*
X114700000Y-40420000D02*
X116000000Y-39120000D01*
X114200000Y-62100000D02*
X114200000Y-49450000D01*
X154250000Y-87250000D02*
X154250000Y-109600000D01*
X114226098Y-112766098D02*
X114225000Y-112765000D01*
X114450000Y-112540000D02*
X114450000Y-91100000D01*
X114200000Y-49450000D02*
X114700000Y-48950000D01*
X123050000Y-124725000D02*
X123050000Y-112330000D01*
X114800000Y-62700000D02*
X114200000Y-62100000D01*
X114700000Y-48950000D02*
X114700000Y-40420000D01*
X114450000Y-91100000D02*
X114800000Y-90750000D01*
X114225000Y-112765000D02*
X114450000Y-112540000D01*
X154450000Y-87050000D02*
X154450000Y-74300000D01*
X114226098Y-124748902D02*
X114226098Y-112766098D01*
X143256000Y-112750600D02*
X143256000Y-103600000D01*
X114225000Y-124750000D02*
X114226098Y-124748902D01*
X123050000Y-112330000D02*
X125510000Y-109870000D01*
X114800000Y-90750000D02*
X114800000Y-62700000D01*
%TO.N,/A6*%
X116000000Y-76750000D02*
X116000000Y-44200000D01*
X149000000Y-110220000D02*
X149000000Y-104584314D01*
X115400000Y-77350000D02*
X116000000Y-76750000D01*
X115400000Y-101125000D02*
X115400000Y-77350000D01*
X115400000Y-101125000D02*
X115400000Y-110250000D01*
X133925000Y-101550000D02*
X133925000Y-109850000D01*
X149000000Y-104584314D02*
X150750000Y-102834314D01*
X150750000Y-102834314D02*
X150750000Y-78650000D01*
X133925000Y-109850000D02*
X135550000Y-111475000D01*
%TO.N,/A7*%
X134525000Y-109300000D02*
X135050000Y-109825000D01*
X105950000Y-100525000D02*
X105950000Y-108950000D01*
X134525000Y-100925000D02*
X134525000Y-109300000D01*
X162050000Y-77400000D02*
X163140000Y-78490000D01*
X120600000Y-90025000D02*
X123050000Y-87575000D01*
X123050000Y-46000000D02*
X122350000Y-45300000D01*
X123050000Y-87575000D02*
X123050000Y-46000000D01*
X163140000Y-101370000D02*
X162260000Y-102250000D01*
X122350000Y-45300000D02*
X122350000Y-40390000D01*
X122350000Y-40390000D02*
X121080000Y-39120000D01*
X163140000Y-78490000D02*
X163140000Y-101370000D01*
X105950000Y-100525000D02*
X105950000Y-91550000D01*
X120600000Y-91525000D02*
X120600000Y-90025000D01*
%TO.N,/A2*%
X119425000Y-99925000D02*
X119375000Y-99875000D01*
X152500000Y-93675000D02*
X152500000Y-101650000D01*
X119375000Y-99875000D02*
X119375000Y-81325000D01*
X163750000Y-113460000D02*
X162260000Y-114950000D01*
X127625000Y-112835000D02*
X125510000Y-114950000D01*
X119375000Y-81325000D02*
X121080000Y-79620000D01*
X150425000Y-103725000D02*
X150425000Y-115250000D01*
X127625000Y-100800000D02*
X127625000Y-112835000D01*
X152500000Y-93675000D02*
X152500000Y-80050000D01*
X105350000Y-99900000D02*
X105350000Y-115225000D01*
X152500000Y-101650000D02*
X150425000Y-103725000D01*
X163750000Y-93625000D02*
X163750000Y-113460000D01*
X121080000Y-79620000D02*
X121080000Y-44200000D01*
%TO.N,/D14*%
X174700000Y-88190686D02*
X173150000Y-89740686D01*
X173150000Y-89740686D02*
X173150000Y-115879806D01*
X169340000Y-59560000D02*
X169340000Y-44200000D01*
X173150000Y-115879806D02*
X177250000Y-119979806D01*
X174900000Y-59600000D02*
X174900000Y-81475000D01*
X174900000Y-81475000D02*
X174700000Y-81675000D01*
X174700000Y-81675000D02*
X174700000Y-88190686D01*
%TO.N,/R_W*%
X144000000Y-58650000D02*
X144000000Y-49950000D01*
X170600000Y-40400000D02*
X171880000Y-39120000D01*
X170600000Y-58550000D02*
X170600000Y-40400000D01*
X121158000Y-103650000D02*
X121158000Y-106415000D01*
X102700000Y-49450000D02*
X102700000Y-76400000D01*
X102700000Y-76400000D02*
X102700000Y-103400000D01*
X154900000Y-98225000D02*
X154875000Y-98250000D01*
X154875000Y-98250000D02*
X154875000Y-106400000D01*
%TO.N,/D13*%
X169425000Y-124350000D02*
X169425000Y-87650000D01*
X169425000Y-87650000D02*
X171880000Y-85195000D01*
X171880000Y-85195000D02*
X171880000Y-44200000D01*
X115900000Y-119450000D02*
X115900000Y-128650000D01*
X115900000Y-128650000D02*
X115910000Y-128660000D01*
X169450000Y-124375000D02*
X169425000Y-124350000D01*
%TO.N,/~{LDS}*%
X145750000Y-81600000D02*
X145750000Y-68900000D01*
X173150000Y-40390000D02*
X174420000Y-39120000D01*
X173050000Y-68900000D02*
X173150000Y-68800000D01*
X145150000Y-82200000D02*
X145750000Y-81600000D01*
X145150000Y-84400000D02*
X145150000Y-82200000D01*
X173150000Y-68800000D02*
X173150000Y-40390000D01*
%TO.N,/D12*%
X127200000Y-121550000D02*
X127200000Y-128150000D01*
X174420000Y-53070000D02*
X174420000Y-44200000D01*
X174450000Y-53100000D02*
X174420000Y-53070000D01*
X166450000Y-53200000D02*
X166450000Y-126150000D01*
X166550000Y-53100000D02*
X166450000Y-53200000D01*
X127200000Y-128150000D02*
X127175000Y-128175000D01*
%TO.N,/~{UDS}*%
X127675000Y-74725000D02*
X127675000Y-85675000D01*
X178200000Y-57650000D02*
X178200000Y-40300000D01*
X178200000Y-40300000D02*
X177020000Y-39120000D01*
X133400000Y-57650000D02*
X133400000Y-74700000D01*
%TO.N,/D11*%
X172700000Y-89625000D02*
X172700000Y-115995492D01*
X175450000Y-118745492D02*
X175450000Y-125850000D01*
X175850000Y-46725000D02*
X175850000Y-54300000D01*
X121050000Y-122075000D02*
X121050000Y-130050000D01*
X174300000Y-88025000D02*
X172700000Y-89625000D01*
X121050000Y-130050000D02*
X121075000Y-130075000D01*
X174900000Y-54650000D02*
X174300000Y-55250000D01*
X176960000Y-45615000D02*
X175850000Y-46725000D01*
X175850000Y-54300000D02*
X175500000Y-54650000D01*
X174300000Y-55250000D02*
X174300000Y-88025000D01*
X172700000Y-115995492D02*
X175450000Y-118745492D01*
X175500000Y-54650000D02*
X174900000Y-54650000D01*
X175450000Y-125850000D02*
X177250000Y-127650000D01*
X176960000Y-44200000D02*
X176960000Y-45615000D01*
%TO.N,/~{AS}*%
X149200000Y-88375000D02*
X149200000Y-81250000D01*
X111600000Y-90675000D02*
X111575000Y-90700000D01*
X180750000Y-67850000D02*
X180750000Y-40370000D01*
X149200000Y-67950000D02*
X149200000Y-81250000D01*
X149150000Y-88425000D02*
X149200000Y-88375000D01*
X111600000Y-86625000D02*
X111600000Y-90675000D01*
X180750000Y-40370000D02*
X179500000Y-39120000D01*
%TO.N,/D3*%
X183100000Y-47700000D02*
X183100000Y-121650000D01*
X183400000Y-47400000D02*
X183100000Y-47700000D01*
%TO.N,/D10*%
X131700000Y-76250000D02*
X131700000Y-54050000D01*
X132100000Y-76650000D02*
X131700000Y-76250000D01*
X132100000Y-92125000D02*
X132100000Y-76650000D01*
X130425000Y-93800000D02*
X132100000Y-92125000D01*
X183350000Y-46150000D02*
X183350000Y-40430000D01*
X147250000Y-54050000D02*
X147250000Y-46400000D01*
X183350000Y-40430000D02*
X182040000Y-39120000D01*
X130450000Y-124600000D02*
X130425000Y-124575000D01*
X183400000Y-46200000D02*
X183350000Y-46150000D01*
X130425000Y-124575000D02*
X130425000Y-93800000D01*
%TO.N,/D8*%
X136350000Y-119350000D02*
X136350000Y-58625000D01*
X136375000Y-119375000D02*
X136350000Y-119350000D01*
X136700000Y-46250000D02*
X136750000Y-46200000D01*
X136350000Y-58625000D02*
X136700000Y-58275000D01*
X136700000Y-58275000D02*
X136700000Y-46250000D01*
%TO.N,/D0*%
X148675000Y-123800000D02*
X148675000Y-117850000D01*
X182050000Y-86350000D02*
X182040000Y-86340000D01*
X148700000Y-123825000D02*
X148675000Y-123800000D01*
X131300000Y-91650000D02*
X129675000Y-93275000D01*
X129675000Y-93275000D02*
X129675000Y-120025000D01*
X131300000Y-77450000D02*
X131300000Y-86725000D01*
X131300000Y-86725000D02*
X131300000Y-91650000D01*
X182040000Y-86340000D02*
X182040000Y-44200000D01*
%TO.N,/D4*%
X178300000Y-76800000D02*
X179000000Y-77500000D01*
X178300000Y-59050000D02*
X178300000Y-76800000D01*
X180450000Y-77500000D02*
X181275000Y-78325000D01*
X182000000Y-92601471D02*
X182000000Y-119325000D01*
X181275000Y-78325000D02*
X181275000Y-91876471D01*
X181275000Y-91876471D02*
X182000000Y-92601471D01*
X179000000Y-77500000D02*
X180450000Y-77500000D01*
X182000000Y-119325000D02*
X180325000Y-121000000D01*
%TO.N,/D9*%
X185850000Y-56450000D02*
X185850000Y-40390000D01*
X185850000Y-40390000D02*
X184580000Y-39120000D01*
X128950000Y-123475000D02*
X128950000Y-56450000D01*
%TO.N,/D2*%
X171450000Y-123375000D02*
X169600000Y-125225000D01*
X187000000Y-66000000D02*
X186600000Y-65600000D01*
X132475000Y-127675000D02*
X139050000Y-127675000D01*
X140012500Y-126712500D02*
X144362500Y-126712500D01*
X144575000Y-126500000D02*
X144700000Y-126500000D01*
X186600000Y-65600000D02*
X186600000Y-61240202D01*
X169600000Y-125225000D02*
X169600000Y-125300000D01*
X187000000Y-95375000D02*
X187000000Y-66000000D01*
X139050000Y-127675000D02*
X140012500Y-126712500D01*
X171450000Y-93475000D02*
X171450000Y-123375000D01*
X144700000Y-126500000D02*
X144700000Y-126375000D01*
X187100000Y-60740202D02*
X187100000Y-44220000D01*
X144750000Y-126325000D02*
X144750000Y-120350000D01*
X144362500Y-126712500D02*
X144575000Y-126500000D01*
X144700000Y-126375000D02*
X144750000Y-126325000D01*
X186600000Y-61240202D02*
X187100000Y-60740202D01*
%TO.N,/D6*%
X185150000Y-117750000D02*
X185150000Y-58550000D01*
X192200000Y-40600000D02*
X192200000Y-39120000D01*
X190900000Y-57450000D02*
X190900000Y-41350000D01*
X191300000Y-40950000D02*
X191850000Y-40950000D01*
X189800000Y-57750000D02*
X190600000Y-57750000D01*
X151225000Y-120500000D02*
X151225000Y-117875000D01*
X190900000Y-41350000D02*
X191300000Y-40950000D01*
X185150000Y-58550000D02*
X185900000Y-57800000D01*
X190600000Y-57750000D02*
X190900000Y-57450000D01*
X191850000Y-40950000D02*
X192200000Y-40600000D01*
%TO.N,/D1*%
X143725000Y-123750000D02*
X143725000Y-119100000D01*
X134050000Y-93700000D02*
X134050000Y-79350000D01*
X132900000Y-101626471D02*
X132900000Y-111026471D01*
X184580000Y-96220000D02*
X184580000Y-44200000D01*
X134050000Y-100476471D02*
X132900000Y-101626471D01*
X139846814Y-126312500D02*
X141162500Y-126312500D01*
X134612500Y-126325000D02*
X139834314Y-126325000D01*
X133400000Y-78700000D02*
X133400000Y-76200000D01*
X134050000Y-93700000D02*
X134050000Y-100476471D01*
X133962500Y-112088971D02*
X133962500Y-125675000D01*
X141162500Y-126312500D02*
X143725000Y-123750000D01*
X132900000Y-111026471D02*
X133962500Y-112088971D01*
X133962500Y-125675000D02*
X134612500Y-126325000D01*
X184550000Y-96250000D02*
X184580000Y-96220000D01*
X134050000Y-79350000D02*
X133400000Y-78700000D01*
X139834314Y-126325000D02*
X139846814Y-126312500D01*
%TO.N,/D5*%
X174850000Y-127050000D02*
X174850000Y-119100000D01*
X177725000Y-129925000D02*
X174850000Y-127050000D01*
X152275000Y-119150000D02*
X152350000Y-119075000D01*
X152275000Y-120575000D02*
X152275000Y-119150000D01*
X177775000Y-129925000D02*
X177725000Y-129925000D01*
%TD*%
M02*
